<svg width="551" height="353" viewBox="0 0 551 353" fill="none" xmlns="http://www.w3.org/2000/svg">
<path d="M246.857 40.0879L247.853 40.5469C249.181 40.6569 250.497 40.7899 251.77 41.2099C251.974 41.2289 252.137 41.2839 252.227 41.3869C252.364 41.4409 252.503 41.4849 252.64 41.5469C253.144 41.7749 252.997 42.2669 252.725 42.6099C254.46 46.3979 258.334 47.6199 262.463 48.0929C268.744 48.8129 275.091 48.7909 281.399 49.1089C284.316 49.2559 295.336 50.3939 303.813 49.3639C306.33 48.7539 309.676 47.8629 311.977 46.9469C313.969 45.6139 314.825 43.7059 313.765 40.9839C313.517 40.3489 316.365 39.4419 316.662 40.2079C317.23 41.6679 317.292 42.9189 317.001 44.0129C317.251 43.9279 317.485 43.8649 317.698 43.8149C318.205 43.4969 318.714 43.1789 319.219 42.8569C319.723 29.1049 316.601 13.8209 303.413 6.9109C299.199 4.7029 294.593 3.34292 289.885 2.70992C285.233 2.41792 280.511 2.35491 275.907 3.02091C275.715 3.06991 275.534 3.10591 275.34 3.15791C270.688 4.39891 267.144 5.5909 264.391 6.7209C252.766 13.1269 246.96 26.9639 246.857 40.0879ZM281.84 34.8829C291.784 35.1039 302.089 36.2019 311.432 39.7959C311.609 39.8639 309.479 41.0549 308.694 40.7529C300.937 37.7699 292.322 36.5259 284.057 36.1299C275.372 35.7139 265.326 35.5099 257.413 39.6329C256.924 39.8879 254.004 40.2589 255.216 39.6279C263.244 35.4449 272.933 34.6859 281.84 34.8829ZM354.888 120.174C357.422 114.712 360.707 109.445 364.048 104.325C373.665 110.586 382.634 118.091 390.584 126.535C388.395 128.663 386.131 130.743 384.046 133.009C382.13 135.091 380.379 137.306 378.689 139.569C371.297 132.572 363.406 125.643 354.888 120.174ZM351.911 121C351.365 122.193 350.855 123.396 350.388 124.61C350.328 123.048 350.256 121.485 350.175 119.919C350.756 120.273 351.336 120.631 351.911 121ZM377.11 141.706C373.792 146.291 370.624 150.998 366.897 155.264C361.671 151.483 356.213 148.008 350.707 144.677C350.735 140.94 350.701 137.222 350.637 133.545C351.23 129.708 352.399 125.975 353.935 122.33C362.229 127.942 369.868 134.888 377.11 141.706ZM365.447 102.191C367.889 98.4779 370.305 94.8389 372.424 91.2539C382.388 98.0369 391.817 105.87 400.094 114.629C399.757 114.764 399.486 114.944 399.386 115.162C397.709 118.82 395.255 121.794 392.553 124.572C384.427 116.047 375.261 108.495 365.447 102.191ZM352.893 118.933C351.945 118.357 350.992 117.795 350.028 117.26C349.588 109.912 348.891 102.545 347.816 95.2549C352.748 97.5849 357.577 100.241 362.264 103.193C358.927 108.287 355.577 113.513 352.893 118.933ZM399.164 165.002C402.29 168.918 405.355 173.234 406.884 177.993C405.168 179.339 403.581 180.851 402.175 182.507C399.057 183.179 395.929 183.809 392.794 184.407C391.58 180.248 389.378 176.501 386.669 173.086C390.929 170.536 395.065 167.797 399.164 165.002ZM413.211 176.098C412.547 176.454 411.91 176.796 411.3 177.123C411.924 176.757 412.561 176.414 413.211 176.098ZM397.812 163.334C393.733 166.114 389.618 168.838 385.377 171.376C385.346 171.394 385.324 171.414 385.296 171.433C382.244 167.904 378.719 164.732 375.304 161.828C372.906 159.788 370.419 157.854 367.88 155.987C368.481 155.9 369.106 155.703 369.325 155.455C372.737 151.592 375.708 147.393 378.715 143.222C379.142 143.626 379.57 144.031 379.995 144.432C386.284 150.38 392.328 156.629 397.812 163.334ZM419.532 171.953C415.988 172.724 412.548 174.185 409.428 176.186C407.683 171.51 404.521 167.329 401.431 163.456C404.939 161.039 408.433 158.601 411.951 156.199C414.548 161.108 416.809 166.164 418.686 171.334C418.818 171.696 419.145 171.887 419.532 171.953ZM347.412 92.6769C346.571 87.4349 345.509 82.2459 344.214 77.1349C344.178 76.4019 344.176 75.8119 344.189 75.3249C353.418 79.5699 362.689 84.7049 371.564 90.6749C370.85 90.7489 370.011 90.9819 369.783 91.3699C367.914 94.5599 365.811 97.7849 363.662 101.061C358.664 97.9539 353.509 95.1659 348.241 92.7459C347.993 92.6329 347.702 92.6219 347.412 92.6769ZM401.54 116.17C410.041 125.432 417.221 135.71 422.386 146.871C419.33 148.726 416.328 150.663 413.363 152.653C407.987 143.022 401.334 134.006 393.736 125.842C396.702 122.933 399.518 119.927 401.54 116.17ZM391.74 127.781C399.182 135.875 405.683 144.802 410.922 154.311C407.295 156.784 403.696 159.298 400.081 161.787C395.288 155.918 389.972 150.47 384.543 145.196C383.138 143.831 381.713 142.453 380.271 141.074C382.314 138.279 384.409 135.524 386.706 132.924C388.307 131.11 390.025 129.438 391.74 127.781ZM414.395 154.539C417.318 152.574 420.276 150.662 423.285 148.825C426.48 156.131 428.784 163.813 430.037 171.826C427.065 171.209 424.016 171.188 421.017 171.672C421.465 171.413 421.75 171.015 421.584 170.558C419.593 165.072 417.176 159.722 414.395 154.539ZM175.84 192.657L170.305 191.885C172.174 192.06 174.045 192.22 175.915 192.382L175.84 192.657ZM215.443 145.659C215.443 145.662 215.443 145.665 215.443 145.668C213.336 147.207 209.103 150.359 204.588 154.051C208.017 150.983 211.632 148.132 215.443 145.659ZM174.975 191.021C171.094 190.669 167.214 190.297 163.339 189.891C163.73 189.751 164.032 189.564 164.083 189.35C165.187 184.678 166.944 180.155 169.115 175.78C171.922 178.34 174.71 180.918 177.482 183.51C177.571 183.593 177.707 183.639 177.865 183.66C176.68 186.039 175.696 188.493 174.975 191.021ZM196.29 90.0939C196.269 90.0579 196.238 90.0309 196.21 90.0009C204.683 84.3549 213.505 79.4659 222.3 75.4009C220.803 81.0719 219.644 86.8489 218.743 92.6829C218.51 92.6949 218.265 92.7519 218.024 92.8749C212.619 95.6399 207.541 98.9829 202.748 102.726C200.848 98.4009 198.765 94.1589 196.29 90.0939ZM168.589 171.808C165.051 168.62 161.481 165.467 157.865 162.368C163.329 151.793 170.001 141.801 177.221 132.437C177.639 131.894 178.068 131.353 178.493 130.812C180.726 136.582 182.985 142.336 185.594 147.919C179.645 155.201 173.425 163.217 168.589 171.808ZM153.983 188.86C153.936 188.855 153.874 188.859 153.81 188.864C153.555 188.497 153.216 188.029 152.787 187.48C151.831 185.67 150.661 183.958 149.361 182.401C151.365 176.345 153.841 170.454 156.677 164.728C160.262 167.825 163.807 170.968 167.318 174.149C164.691 179.148 162.568 184.33 161.283 189.671C158.848 189.41 156.415 189.143 153.983 188.86ZM215.602 133.5C213.949 130.171 212.456 126.77 211.047 123.332C212.694 122.047 214.381 120.846 216.111 119.754C215.895 123.939 215.742 128.112 215.632 132.257C215.621 132.668 215.612 133.085 215.602 133.5ZM186.498 149.835C188.616 154.188 190.982 158.418 193.758 162.449C193.101 163.147 192.445 163.846 191.8 164.551C187.18 169.605 182.508 175.239 179.056 181.409C176.171 178.719 173.269 176.043 170.345 173.391C174.828 165.029 180.716 157.234 186.336 150.041C186.389 149.973 186.444 149.903 186.498 149.835ZM218.39 95.0119C218.086 97.1409 217.82 99.2779 217.577 101.418C216.932 105.884 216.46 110.431 216.339 114.657C216.318 115.389 216.301 116.109 216.285 116.824C216.241 117.567 216.187 118.31 216.148 119.052C215.502 119.086 214.594 119.266 214.335 119.427C213.033 120.231 211.762 121.099 210.515 122.012C208.197 116.269 206.045 110.453 203.629 104.757C208.271 101.058 213.187 97.7559 218.39 95.0119ZM137.571 176.27C138.967 176.972 140.311 177.785 141.577 178.7C139.909 177.771 138.569 176.936 137.571 176.27ZM208.642 125.287C210.61 130.017 212.734 134.677 215.278 139.148C215.327 139.234 215.4 139.298 215.484 139.352C215.46 141.032 215.444 142.719 215.441 144.413C215.126 144.48 214.858 144.559 214.736 144.635C207.756 148.925 201.526 154.439 195.796 160.326C193.01 156.147 190.643 151.762 188.525 147.253C194.48 139.693 201.127 131.666 208.642 125.287ZM201.226 106.719C203.595 112.402 205.733 118.191 208.063 123.893C200.421 130.038 193.78 137.929 187.657 145.396C185.1 139.748 182.875 133.934 180.634 128.125C186.806 120.5 193.641 113.105 201.226 106.719ZM175.761 130.406C168.312 139.774 161.452 149.909 155.814 160.629C151.719 157.159 147.571 153.754 143.347 150.448C143.307 150.417 143.26 150.393 143.209 150.373C149.236 135.724 158.776 122.526 170.293 111.053C172.959 116.66 175.251 122.445 177.5 128.249C176.917 128.967 176.334 129.686 175.761 130.406ZM142.247 152.772C146.433 156.085 150.556 159.48 154.618 162.95C151.8 168.529 149.325 174.26 147.278 180.122C146.924 179.769 146.567 179.427 146.208 179.099C143.416 176.547 140.189 174.563 136.76 173.24C136.931 173.09 137.05 172.915 137.077 172.719C138.04 165.816 139.813 159.163 142.247 152.772ZM179.665 125.622C177.463 119.955 175.193 114.318 172.526 108.875C179.131 102.556 186.319 96.7869 193.826 91.6159C196.322 95.8139 198.427 100.188 200.347 104.648C192.771 110.896 185.93 118.124 179.665 125.622ZM326.36 137.804C321.237 137.79 316.115 137.735 310.992 137.658C311.722 132.903 312.068 128.128 312.219 123.342C317.893 123.592 323.571 123.753 329.256 123.771C329.511 123.771 329.735 123.718 329.931 123.633C329.291 128.52 328.183 133.307 326.36 137.739C326.351 137.763 326.353 137.784 326.36 137.804ZM281.123 119.169C273.482 118.624 265.841 118.096 258.193 117.701C258.53 114.504 258.941 111.314 259.231 108.153C265.151 106.234 269.588 101.776 274.779 98.4779C278.21 104.709 280.108 111.873 281.123 119.169ZM256.302 69.5369C257.038 71.8569 257.859 74.2169 258.786 76.5439L258.785 76.5739C258.373 76.7699 258.063 77.0449 258.057 77.3789C257.999 80.6399 257.614 83.9189 257.181 87.2029C257.05 87.1399 256.854 87.0999 256.559 87.0999C250.766 87.0999 244.973 87.0999 239.179 87.0999C238.729 87.0999 238.107 87.3899 237.687 87.7239C238.935 81.9409 240.73 76.2849 243.22 71.0289C247.474 70.4669 251.729 69.9069 256.009 69.5829C256.11 69.5759 256.208 69.5599 256.302 69.5369ZM317.973 71.2569C318.838 71.3229 319.7 71.4119 320.561 71.5019L324.067 72.2689C324.048 72.3089 324.041 72.3459 324.057 72.3789C329.056 82.3799 330.237 94.1339 330.602 105.157C330.779 110.506 330.75 116.138 330.163 121.686C329.983 121.612 329.763 121.566 329.491 121.565C323.749 121.547 318.015 121.384 312.284 121.129C312.377 116.535 312.329 111.934 312.302 107.332C313.265 102.033 312.665 96.6959 311.783 91.3599C311.874 91.3749 311.977 91.3849 312.096 91.3879C317.103 91.5169 321.89 93.1909 326.901 93.3199C328.106 93.3509 329.948 91.5579 327.983 91.5069C322.976 91.3779 318.189 89.7039 313.178 89.5749C312.65 89.5609 312 89.8979 311.601 90.2849C310.743 85.2649 309.724 80.2479 309.622 75.2669C309.617 75.0259 309.331 74.9119 308.941 74.8989C309.491 73.1179 309.967 71.3639 310.38 69.6799C312.355 71.0309 314.822 71.4029 317.215 70.9929C317.343 71.1289 317.581 71.2279 317.973 71.2569ZM258.614 136.568C257.329 131.096 257.462 125.501 257.973 119.906C265.788 120.309 273.596 120.852 281.404 121.41C281.994 126.536 282.193 131.683 282.222 136.573C282.226 137.236 285.125 136.754 285.119 135.797C285.101 132.838 285.018 129.782 284.828 126.696C284.979 126.58 285.085 126.45 285.109 126.311C285.362 124.851 285.643 123.311 285.959 121.734C293.75 122.289 301.542 122.819 309.34 123.202C309.204 128.02 308.871 132.827 308.16 137.615C291.645 137.337 275.131 136.841 258.614 136.568ZM286.42 119.546C287.991 112.456 290.493 104.932 295.336 100.068C295.463 100.11 295.592 100.155 295.723 100.202C300.092 103.335 304.151 107.007 309.407 108.444C309.432 112.628 309.466 116.812 309.393 120.989C301.73 120.61 294.075 120.09 286.42 119.546ZM255.757 67.7839C255.511 67.8039 255.267 67.8329 255.021 67.8539L255.728 67.6839C255.738 67.7179 255.747 67.7499 255.757 67.7839ZM309.396 106.331C309.377 106.323 309.359 106.312 309.34 106.304V94.9959C309.787 98.2439 310.042 101.489 309.799 104.717C309.554 104.901 309.391 105.124 309.391 105.379C309.392 105.697 309.395 106.014 309.396 106.331ZM288.779 105.452C289.906 102.412 291.152 99.9959 292.34 99.6569C292.593 99.5849 292.904 99.5699 293.254 99.5949C291.495 101.292 290.022 103.279 288.779 105.452ZM255.535 136.523C250.468 136.449 245.401 136.395 240.333 136.384C237.445 131.042 236.072 125.032 235.537 118.917C235.739 119.124 236.075 119.263 236.564 119.264C242.755 119.283 248.938 119.475 255.117 119.764C254.58 125.385 254.379 131.011 255.535 136.523ZM237.49 88.6459C237.619 88.6899 237.802 88.7149 238.045 88.7149C243.838 88.7149 249.631 88.7149 255.425 88.7149C255.94 88.7149 256.677 88.3369 257.083 87.9469C256.202 94.5489 255.225 101.171 256.387 107.713C256.111 110.971 255.696 114.261 255.341 117.559C249.166 117.27 242.987 117.079 236.799 117.059C236.149 117.057 235.676 117.384 235.449 117.786C235.135 113.375 235.221 108.932 235.46 104.668C235.757 99.3829 236.397 93.9699 237.49 88.6459Z" fill="#EB144C"/>
<path d="M280.741 88.9479C283.019 86.0519 286.958 86.6089 289.538 88.6829C290.072 89.1129 287.478 90.2389 286.817 89.7069C286.24 89.2429 285.611 88.7549 284.91 88.4919C284.093 88.1849 283.931 88.1039 283.383 88.7999C282.924 89.3839 280.099 89.7639 280.741 88.9479ZM249.837 57.8549C248.947 57.1939 247.774 57.1649 246.736 57.3869C246.209 57.4999 245.354 58.0269 245.531 58.6849C245.706 59.3379 246.576 59.3229 247.118 59.2259C247.106 59.2289 247.111 59.2299 247.147 59.2269C247.168 59.2329 247.178 59.2359 247.216 59.2469C247.385 59.2939 247.575 59.4159 247.734 59.5619C248.232 60.0199 248.528 60.6319 248.749 61.2599C249.181 62.4899 252.065 61.6739 251.646 60.4839C251.28 59.4379 250.737 58.5239 249.837 57.8549ZM315.743 64.6109C316.557 62.2919 318.679 60.7029 321.188 61.2419C321.848 61.3839 321.949 62.0809 321.533 62.5289C321.048 63.0519 320.3 63.2009 319.62 63.0919C319.612 63.1049 319.561 63.1239 319.531 63.1299C319.479 63.1609 319.432 63.1889 319.427 63.1929C319.489 63.1459 319.457 63.1799 319.332 63.2949C318.93 63.7459 318.69 64.2939 318.491 64.8599C318.102 65.9679 315.209 66.1299 315.743 64.6109ZM319.484 63.0779C319.502 63.0819 319.508 63.0849 319.516 63.0879C319.531 63.0859 319.54 63.0859 319.552 63.0849C319.529 63.0809 319.506 63.0829 319.484 63.0779ZM257.413 39.6329C265.326 35.5099 275.372 35.7149 284.057 36.1299C292.323 36.5259 300.937 37.7689 308.694 40.7529C309.479 41.0549 311.609 39.8639 311.432 39.7959C302.088 36.2019 291.784 35.1039 281.84 34.8829C272.933 34.6849 263.244 35.4449 255.215 39.6279C254.004 40.2599 256.923 39.8879 257.413 39.6329ZM536.071 331.398C524.242 340.078 505.757 344.4 492.257 336.879C491.323 336.359 490.481 335.795 489.701 335.194C450.471 343.441 410.3 347.306 370.333 349.596C264.036 355.688 156.799 351.087 50.925 339.651C42.477 341.607 32.993 340.456 25.337 337.327C9.301 330.776 -3.84901 313.645 2.22699 295.585C4.64299 288.405 9.441 283.038 15.254 280.107C15.193 280.05 15.143 279.984 15.118 279.902C14.844 278.994 17.16 276.926 17.63 276.379C20.289 273.28 23.025 270.247 25.768 267.224C34.665 257.42 43.695 247.736 52.773 238.099C72.237 217.439 91.724 196.645 112.398 177.179C112.402 177.175 112.409 177.172 112.414 177.167C111.997 176.917 111.899 176.484 112.616 175.961C119.108 171.221 127.005 170.336 134.269 172.401C141.024 126.441 182.666 91.2969 222.894 73.2049C222.939 73.0449 222.979 72.8839 223.024 72.7239C223.081 72.5239 223.355 72.3529 223.709 72.2209C223.817 71.6729 224.84 70.8919 225.628 70.8819C235.498 70.7529 245.208 68.7099 255.021 67.8539C255.267 67.8329 255.511 67.8039 255.757 67.7839C255.747 67.7499 255.738 67.7179 255.728 67.6839C255.492 66.9039 255.266 66.1329 255.046 65.3699C252.832 67.1259 249.9 67.9259 247.046 67.1549C243.608 66.2259 239.621 63.4569 239.42 59.5139C239.228 55.7469 240.875 52.9579 243.944 51.6749L243.84 51.6559L243.95 50.6089C243.075 47.9939 243.633 44.3799 243.386 41.7829C243.321 41.6669 243.306 41.5379 243.34 41.4029C243.321 41.2619 243.304 41.1179 243.279 40.9839C243.207 40.6059 243.489 40.2759 243.9 40.0409C244.104 25.9289 251.02 10.2229 264.34 4.31991C268.5 2.47691 272.745 1.4109 277.065 0.865896C278.85 -0.399104 283.208 0.111893 284.757 0.134893C290.742 0.221893 297.017 1.2379 302.508 3.6999C317.719 10.5199 322.426 25.3329 322.197 40.9609C322.984 40.4609 323.771 39.9609 324.563 39.4709C327.813 37.4589 331.485 34.3859 335.211 32.9759C335.089 32.6829 335.417 32.2339 336.298 31.9629C338.611 31.2499 341.022 30.6269 343.469 30.1699C343.684 30.1069 343.91 30.0679 344.13 30.0559C347.558 29.4629 351.044 29.2179 354.426 29.6069C354.623 29.6289 355.099 29.7629 354.951 30.0759C354.017 32.0519 352.644 33.8179 351.161 35.4699C351.493 35.8289 351.443 36.3869 350.589 36.8529C350.221 37.0539 349.838 37.1899 349.45 37.2989C349.165 37.5939 348.881 37.8859 348.6 38.1759C347.233 39.5839 344.043 41.7059 343.364 43.5929C343.239 43.9419 342.679 44.2059 342.085 44.3449C341.949 44.4309 341.76 44.5189 341.499 44.6059C334.406 46.9709 328.393 52.2649 321.558 55.2939C324.572 56.3539 326.494 59.1259 325.96 62.7879C325.527 65.7619 323.594 68.1309 321.102 69.5799C328.281 70.2929 335.339 71.7489 342.585 71.8329C343.677 71.8459 343.604 72.4259 343.113 72.9369C343.132 73.0039 343.149 73.0709 343.167 73.1379C343.706 72.9269 344.311 72.8319 344.674 72.9939C384.973 91.0329 426.727 126.359 433.169 172.484C433.18 172.56 433.177 172.633 433.165 172.705C435.134 173.419 437.047 174.418 438.861 175.742C439.31 176.07 439.265 176.444 438.986 176.762C439.017 176.782 439.051 176.799 439.078 176.824C459.971 196.496 479.667 217.512 499.322 238.407C508.301 247.952 517.249 257.53 526.04 267.248C528.696 270.185 531.363 273.118 533.923 276.14C534.357 276.652 536.408 278.486 536.157 279.316C536.147 279.348 536.128 279.377 536.113 279.407C538.749 280.659 541.239 282.532 543.458 285.122C555.616 299.319 550.427 320.863 536.071 331.398ZM423.285 148.825C420.277 150.662 417.318 152.574 414.395 154.539C417.176 159.722 419.593 165.072 421.584 170.557C421.75 171.015 421.465 171.412 421.017 171.671C424.016 171.187 427.064 171.209 430.037 171.825C428.783 163.813 426.479 156.13 423.285 148.825ZM350.636 133.545C350.7 137.222 350.734 140.94 350.706 144.677C356.212 148.008 361.67 151.483 366.896 155.264C370.623 150.997 373.791 146.291 377.109 141.706C369.867 134.888 362.228 127.942 353.933 122.33C352.398 125.976 351.229 129.708 350.636 133.545ZM351.911 121C351.336 120.631 350.756 120.273 350.174 119.919C350.255 121.484 350.327 123.048 350.387 124.61C350.855 123.396 351.365 122.193 351.911 121ZM367.88 155.985C370.419 157.852 372.906 159.786 375.304 161.826C378.719 164.731 382.243 167.903 385.296 171.431C385.324 171.412 385.346 171.392 385.377 171.374C389.617 168.837 393.733 166.113 397.812 163.332C392.329 156.627 386.284 150.378 379.996 144.428C379.571 144.026 379.143 143.621 378.716 143.218C375.709 147.39 372.738 151.589 369.326 155.451C369.106 155.702 368.481 155.898 367.88 155.985ZM400.081 161.787C403.696 159.298 407.295 156.784 410.922 154.311C405.683 144.802 399.182 135.875 391.74 127.781C390.025 129.438 388.307 131.111 386.705 132.924C384.408 135.525 382.313 138.279 380.27 141.074C381.712 142.453 383.137 143.83 384.542 145.196C389.972 150.47 395.288 155.918 400.081 161.787ZM390.584 126.536C382.634 118.092 373.665 110.586 364.048 104.326C360.707 109.446 357.422 114.713 354.888 120.175C363.407 125.644 371.298 132.572 378.69 139.57C380.38 137.307 382.131 135.092 384.047 133.01C386.131 130.745 388.395 128.665 390.584 126.536ZM362.263 103.193C357.576 100.24 352.747 97.5839 347.815 95.2549C348.891 102.545 349.587 109.912 350.027 117.26C350.991 117.796 351.944 118.358 352.892 118.933C355.577 113.513 358.927 108.287 362.263 103.193ZM344.6 190.726C344.56 190.849 344.439 190.959 344.274 191.056C359.555 189.662 374.782 187.731 389.832 184.976C386.974 175.467 378.953 167.959 371.466 161.882C364.882 156.537 357.88 151.77 350.679 147.308C350.445 161.993 349.114 176.901 344.6 190.726ZM392.793 184.407C395.929 183.809 399.056 183.179 402.174 182.507C403.581 180.851 405.167 179.339 406.883 177.993C405.354 173.234 402.289 168.918 399.163 165.002C395.065 167.797 390.929 170.536 386.667 173.085C389.377 176.501 391.579 180.248 392.793 184.407ZM409.429 176.186C412.548 174.185 415.988 172.724 419.533 171.953C419.146 171.887 418.819 171.697 418.688 171.334C416.811 166.164 414.55 161.108 411.953 156.199C408.435 158.601 404.941 161.04 401.433 163.456C404.521 167.329 407.684 171.51 409.429 176.186ZM401.54 116.17C399.518 119.927 396.702 122.932 393.735 125.842C401.333 134.006 407.985 143.022 413.362 152.653C416.328 150.663 419.33 148.726 422.385 146.871C417.221 135.71 410.041 125.433 401.54 116.17ZM372.424 91.2549C370.305 94.8389 367.889 98.4789 365.447 102.192C375.261 108.495 384.427 116.048 392.553 124.574C395.255 121.796 397.709 118.822 399.386 115.164C399.486 114.946 399.758 114.766 400.094 114.631C391.817 105.871 382.389 98.0379 372.424 91.2549ZM343.699 75.0959C343.88 75.7729 344.042 76.4559 344.214 77.1349C345.509 82.2459 346.57 87.4349 347.412 92.6769C347.703 92.6219 347.994 92.6329 348.24 92.7459C353.509 95.1659 358.664 97.9539 363.661 101.061C365.81 97.7849 367.913 94.5599 369.782 91.3699C370.01 90.9809 370.848 90.7479 371.563 90.6749C362.689 84.7049 353.418 79.5699 344.188 75.3249C344.025 75.2499 343.862 75.1699 343.699 75.0959ZM320.562 71.5019C319.701 71.4119 318.839 71.3229 317.974 71.2569C317.582 71.2269 317.344 71.1289 317.216 70.9949C314.823 71.4049 312.355 71.0329 310.381 69.6819C309.968 71.3659 309.492 73.1199 308.942 74.9009C309.332 74.9139 309.618 75.0279 309.623 75.2689C309.725 80.2489 310.744 85.2669 311.602 90.2869C312.001 89.8999 312.651 89.5629 313.179 89.5769C318.19 89.7059 322.977 91.3799 327.984 91.5089C329.949 91.5589 328.107 93.3529 326.902 93.3219C321.891 93.1929 317.104 91.5189 312.097 91.3899C311.979 91.3869 311.876 91.3769 311.784 91.3619C312.665 96.6979 313.265 102.035 312.303 107.334C312.33 111.936 312.378 116.538 312.285 121.131C318.015 121.385 323.75 121.549 329.492 121.567C329.764 121.568 329.984 121.614 330.164 121.688C330.751 116.14 330.781 110.508 330.603 105.159C330.237 94.1359 329.057 82.3819 324.058 72.3809C324.042 72.3479 324.049 72.3109 324.068 72.2709C324.113 72.1769 324.245 72.0679 324.435 71.9579C323.146 71.7889 321.855 71.6379 320.562 71.5019ZM329.256 123.77C323.571 123.752 317.893 123.591 312.219 123.341C312.068 128.127 311.722 132.902 310.992 137.657C316.115 137.735 321.237 137.79 326.36 137.803C326.353 137.783 326.351 137.762 326.36 137.738C328.183 133.305 329.291 128.518 329.931 123.632C329.735 123.717 329.511 123.771 329.256 123.77ZM268.568 81.3829C266.284 80.9699 264.155 79.8879 262.59 78.3279C266.627 87.8059 272.735 96.3649 283.108 98.0539C286.221 98.5609 288.968 98.1609 291.399 97.1099C291.572 96.7299 292.421 96.3349 293.132 96.2169C298.404 93.0679 302.025 86.7169 304.509 80.1389C302.897 81.0759 300.884 81.4909 298.5 81.0599C294.465 80.3309 290.921 77.5099 290.118 73.6589C290.06 73.6399 290.002 73.6209 289.951 73.5929C289.648 73.4279 289.264 73.1929 288.83 72.9229C288.921 73.9579 288.949 74.9949 288.779 76.0369C288.571 77.3169 287.972 78.6709 286.558 78.9729C284.816 79.3449 283.595 78.4019 282.418 77.2219C281.444 76.2449 284.191 75.0819 285.078 75.9719C285.278 76.1729 285.515 76.4269 285.774 76.6439C285.97 75.6669 285.985 74.6559 285.948 73.6649C285.916 72.8009 285.798 71.9179 285.691 71.0349C283.36 69.7479 280.817 68.7379 279.471 69.8609C279.292 70.0099 279.077 70.1059 278.851 70.1629C279.947 75.8509 276.05 82.7339 268.568 81.3829ZM292.482 72.8249C292.939 76.2359 295.431 79.4069 299.982 79.6549C302.632 79.7999 304.508 78.6459 305.633 76.9209C306.1 75.4809 306.517 74.0569 306.888 72.6739C306.992 69.0359 305.011 65.2039 300.984 64.5149C300.624 64.4529 300.428 64.3199 300.352 64.1569C294.862 63.9139 292.205 68.0559 292.418 72.1279C292.646 72.3419 292.636 72.5889 292.482 72.8249ZM292.489 98.0689C290.478 98.9329 288.271 99.4519 285.841 99.5259C283.013 99.6109 280.447 99.2339 278.101 98.4999C281.231 104.479 283.01 111.263 283.988 118.176C285.08 113.76 286.57 109.317 288.78 105.452C290.023 103.279 291.496 101.292 293.254 99.5959C293.477 99.3809 293.698 99.1639 293.93 98.9589C293.456 98.6489 292.975 98.3539 292.489 98.0689ZM271.053 64.8369C270.693 64.7749 270.497 64.6419 270.421 64.4789C259.989 64.0169 259.791 79.4169 270.05 79.9759C278.991 80.4639 279.191 66.2299 271.053 64.8369ZM260.706 80.9469C259.966 89.2319 257.938 97.6129 259.106 105.849C259.288 105.97 259.398 106.152 259.377 106.413C259.369 106.516 259.359 106.619 259.351 106.722C264.904 104.675 269.278 99.9299 274.393 96.9589C268.261 93.7009 263.926 87.6919 260.706 80.9469ZM258.193 117.701C265.841 118.096 273.482 118.624 281.123 119.169C280.108 111.873 278.21 104.709 274.778 98.4789C269.587 101.776 265.151 106.235 259.23 108.154C258.941 111.314 258.53 114.504 258.193 117.701ZM257.974 119.906C257.462 125.501 257.329 131.096 258.615 136.568C275.132 136.841 291.645 137.337 308.162 137.615C308.873 132.827 309.206 128.02 309.342 123.202C301.543 122.819 293.752 122.288 285.961 121.734C285.645 123.31 285.365 124.851 285.111 126.311C285.087 126.45 284.981 126.58 284.83 126.696C285.02 129.782 285.103 132.838 285.121 135.797C285.127 136.755 282.227 137.236 282.224 136.573C282.195 131.684 281.996 126.536 281.406 121.41C273.597 120.853 265.789 120.31 257.974 119.906ZM309.393 120.989C309.466 116.812 309.432 112.628 309.407 108.444C304.151 107.007 300.092 103.336 295.723 100.202C295.621 100.129 295.521 100.053 295.419 99.9799C295.39 100.008 295.364 100.04 295.336 100.068C290.494 104.932 287.991 112.456 286.42 119.546C294.075 120.09 301.73 120.61 309.393 120.989ZM309.799 104.717C310.042 101.488 309.787 98.2439 309.34 94.9959C308.668 90.1109 307.559 85.2169 307.024 80.3569C304.362 87.0289 300.512 93.3539 294.905 96.8119C299.845 99.7329 304.068 104.07 309.34 106.304C309.359 106.312 309.377 106.323 309.396 106.331C309.395 106.014 309.392 105.697 309.391 105.379C309.391 105.124 309.554 104.901 309.799 104.717ZM348.487 35.5369C349.222 34.7019 349.937 33.8499 350.584 32.9529C352.069 30.8919 352.138 30.7029 349.307 30.8299C347.918 30.8929 346.537 31.0259 345.164 31.2209C344.409 32.9639 346.604 35.5419 348.487 35.5369ZM336.535 39.4439C337.341 41.5299 338.973 42.7469 340.999 43.1299C341.874 41.9259 343.435 40.8079 344.324 39.9089C345.146 39.0769 345.974 38.2369 346.791 37.3849C345.769 37.1729 344.791 36.7049 343.974 35.9959C342.757 34.9389 341.832 33.3309 342.156 31.7499C340.668 32.0539 339.187 32.4009 337.725 32.8129C338.072 32.8159 338.264 32.8839 338.078 33.0499C336.336 34.6119 335.684 37.2399 336.535 39.4439ZM320.261 43.9199C318.386 45.1169 316.502 46.3009 314.585 47.4189C313.991 50.5019 313.458 53.5959 312.924 56.6899C312.98 56.6479 313.029 56.5999 313.088 56.5599C314.809 55.3909 317.212 54.7129 319.294 54.8439C319.297 54.8439 319.3 54.8449 319.304 54.8449C325.507 52.3239 332.124 46.9239 338.906 44.2219C336.576 43.8579 334.41 42.6549 333.639 40.2199C333.118 38.5749 333.227 36.9089 333.905 35.4549C333.332 35.7989 332.758 36.1419 332.187 36.4899C329.7 38.0079 327.221 39.5379 324.747 41.0759C323.88 41.6149 323.017 42.1619 322.155 42.7119C322.155 42.7209 322.155 42.7309 322.154 42.7399C322.123 43.5179 321.093 43.9789 320.261 43.9199ZM246.847 40.4639C247.183 40.4929 247.518 40.5199 247.854 40.5469C249.182 40.6569 250.498 40.7899 251.771 41.2099C251.975 41.2289 252.138 41.2839 252.228 41.3869C252.365 41.4409 252.504 41.4849 252.641 41.5469C253.145 41.7749 252.998 42.2669 252.726 42.6099C254.461 46.3979 258.335 47.6199 262.464 48.0929C268.745 48.8129 275.092 48.7909 281.4 49.1089C284.317 49.2559 295.337 50.3939 303.814 49.3639C307.149 48.9589 310.081 48.2159 311.978 46.9469C313.97 45.6139 314.826 43.7059 313.766 40.9839C313.518 40.3489 316.366 39.4419 316.663 40.2079C317.231 41.6679 317.293 42.9189 317.002 44.0129C316.978 44.1059 316.968 44.2049 316.938 44.2949C317.192 44.1359 317.445 43.9749 317.699 43.8149C318.206 43.4969 318.715 43.1789 319.22 42.8569C319.724 29.1049 316.602 13.8209 303.414 6.91089C299.2 4.70289 294.594 3.34291 289.886 2.70991C285.234 2.41791 280.512 2.35489 275.908 3.0209C272.723 3.48189 269.594 4.2879 266.585 5.6209C265.83 5.9549 265.103 6.3279 264.392 6.7199C252.767 13.1279 246.961 26.9649 246.859 40.0889C246.856 40.2129 246.847 40.3389 246.847 40.4639ZM257.397 62.6649C258.169 65.4479 259.031 68.4759 260.053 71.5559C260.093 71.1289 260.153 70.6959 260.261 70.2529C261.273 66.0769 264.435 63.7409 268.237 63.1219C268.122 62.9979 268.05 62.8389 268.053 62.6299C268.079 60.7579 268.447 58.9379 269.019 57.1589C269.371 56.0639 272.311 55.6899 271.934 56.8609C271.362 58.6399 270.995 60.4589 270.968 62.3319C270.965 62.5719 270.822 62.7819 270.608 62.9559C271.013 62.9629 271.42 62.9819 271.83 63.0239C272.317 63.0739 272.502 63.2659 272.502 63.4959C275.381 64.1879 277.26 65.9649 278.233 68.1599C280.397 66.8219 282.997 67.2909 285.515 68.3479C285.518 68.2139 285.518 68.0789 285.527 67.9449C285.611 66.6989 288.554 66.2449 288.456 67.6969C288.408 68.4079 288.437 69.1189 288.498 69.8309C289.033 70.1299 289.551 70.4309 290.049 70.7249C290.089 70.4619 290.129 70.1999 290.194 69.9319C291.087 66.2489 293.651 63.9969 296.852 63.0899C296.755 62.9709 296.696 62.8209 296.698 62.6309C296.724 60.7589 297.092 58.9389 297.663 57.1599C298.015 56.0649 300.955 55.6909 300.578 56.8619C300.006 58.6409 299.639 60.4599 299.613 62.3329C299.612 62.4469 299.573 62.5539 299.516 62.6549C300.252 62.6129 301.003 62.6249 301.762 62.7029C302.249 62.7529 302.434 62.9449 302.434 63.1749C305.249 63.8509 307.112 65.5639 308.103 67.6919C308.124 67.5939 308.146 67.4959 308.167 67.3989C308.127 67.3369 308.083 67.2809 308.044 67.2179C307.456 66.2609 310.28 65.3619 310.743 66.1149C310.77 66.1599 310.801 66.2029 310.829 66.2479C311.021 66.2959 311.136 66.3869 311.104 66.5319C311.097 66.5639 311.089 66.5969 311.083 66.6299C312.65 68.8579 315.222 70.5489 318.046 69.3779C320.357 68.4199 322.611 66.3529 322.99 63.7509C323.377 61.0939 322.394 57.0329 319.231 56.5189C315.133 55.8519 314.47 58.3409 312.343 60.8739C312.298 60.9269 312.235 60.9769 312.163 61.0239C312.159 61.0499 312.154 61.0759 312.149 61.1029C311.998 61.9409 309.214 62.0879 309.252 61.8789C310.041 57.4969 310.755 53.1009 311.587 48.7259C304.229 51.4479 291.847 50.9249 288.488 50.8059C279.019 50.4709 268.992 50.7589 259.621 49.2229C258.312 49.0079 257.037 48.7349 255.846 48.3479C255.726 51.0649 255.908 53.7549 256.258 56.4509C256.397 57.5169 254.663 58.1819 253.812 57.8049C253.475 57.8129 253.185 57.7419 253.033 57.5609C251.69 55.9619 250.887 53.6269 248.729 52.9679C248.279 52.8299 247.825 52.7319 247.377 52.6759C246.701 52.9909 245.77 53.1279 245.333 52.7749C244.123 53.0889 243.146 53.9209 242.726 55.4849C242.401 56.6939 242.101 58.0539 242.399 59.3029C243.686 64.6949 250.821 68.3469 254.417 63.1219C254.389 62.9539 254.553 62.7799 254.819 62.6239C255.539 62.0359 257.71 61.8209 257.397 62.6649ZM243.22 71.0289C240.73 76.2849 238.935 81.9419 237.687 87.7239C238.107 87.3909 238.729 87.0999 239.179 87.0999C244.972 87.0999 250.766 87.0999 256.559 87.0999C256.854 87.0999 257.05 87.1399 257.181 87.2029C257.614 83.9179 257.999 80.6399 258.057 77.3789C258.063 77.0449 258.372 76.7699 258.785 76.5739C258.789 76.5719 258.792 76.5699 258.795 76.5679C258.792 76.5599 258.789 76.5519 258.786 76.5439C257.859 74.2159 257.037 71.8569 256.302 69.5369C256.208 69.5589 256.11 69.5759 256.009 69.5829C251.729 69.9069 247.474 70.4679 243.22 71.0289ZM257.083 87.9469C256.677 88.3369 255.94 88.7149 255.425 88.7149C249.632 88.7149 243.838 88.7149 238.045 88.7149C237.801 88.7149 237.619 88.6899 237.49 88.6459C236.397 93.9689 235.757 99.3819 235.461 104.669C235.222 108.933 235.136 113.376 235.45 117.787C235.677 117.385 236.149 117.058 236.8 117.06C242.988 117.079 249.167 117.271 255.342 117.56C255.696 114.262 256.112 110.972 256.388 107.714C255.225 101.171 256.201 94.5489 257.083 87.9469ZM255.116 119.765C248.937 119.476 242.755 119.284 236.563 119.265C236.073 119.264 235.737 119.125 235.536 118.918C236.071 125.034 237.444 131.043 240.332 136.385C245.4 136.395 250.467 136.45 255.534 136.524C254.379 131.011 254.58 125.385 255.116 119.765ZM218.471 134.321C218.18 153.943 218.458 174.892 224.613 193.73C224.65 193.844 224.552 193.971 224.378 194.095C232.242 194.367 240.109 194.547 247.976 194.625C246.764 188.33 244.15 182.07 243.667 175.655C242.851 175.362 242.795 174.419 243.844 174.025C244.412 173.459 245.819 173.195 246.317 173.498C271.116 168.685 297.957 169.723 322.819 173.194C323.616 173.305 323.8 173.679 323.657 174.07C324.41 173.94 325.136 174.069 325.028 174.613C323.902 180.312 323.458 187.724 320.185 192.667C320.141 192.733 320.073 192.795 319.996 192.854C327.25 192.432 334.505 191.916 341.75 191.283C341.751 191.274 341.746 191.266 341.749 191.256C346.473 176.789 347.789 161.03 347.877 145.591C347.631 145.442 347.387 145.291 347.141 145.142C346.994 145.053 347.36 144.778 347.878 144.53C347.883 142.205 347.864 139.889 347.823 137.587C347.557 137.566 347.384 137.499 347.392 137.379C347.468 136.317 347.588 135.264 347.751 134.219C347.724 133.136 347.694 132.056 347.66 130.982C347.058 111.826 345.452 92.1649 340.201 73.6539C335.863 73.5069 331.585 72.9259 327.303 72.3389C332.171 82.5249 333.396 94.6169 333.532 105.753C333.66 116.155 333.227 127.449 329.214 137.206C329.098 137.488 328.603 137.695 328.057 137.818C329.87 137.879 328.14 139.706 326.913 139.704C320.978 139.698 315.045 139.628 309.112 139.535C308.904 139.555 308.704 139.555 308.532 139.527C285.124 139.152 261.723 138.294 238.31 138.269C237.398 138.268 237.299 137.858 237.575 137.42C231.903 127.154 231.706 114.065 232.77 102.687C233.765 92.0529 235.822 81.1049 240.448 71.3929C235.563 72.0249 230.671 72.5699 225.739 72.7059C220.175 92.5159 218.774 113.844 218.471 134.321ZM250.956 194.269C250.98 194.4 250.948 194.525 250.877 194.643C263.992 194.734 277.106 194.572 290.199 194.16C299.241 193.875 308.313 193.506 317.391 193.004C317.373 192.907 317.402 192.79 317.496 192.648C319.232 190.025 319.777 186.319 320.443 183.304C321.043 180.589 321.569 177.861 322.108 175.133C321.994 175.145 321.879 175.148 321.768 175.133C297.348 171.724 270.954 170.582 246.601 175.327C247.182 181.727 249.809 187.979 250.956 194.269ZM195.795 160.326C201.525 154.438 207.755 148.924 214.735 144.635C214.857 144.56 215.125 144.48 215.44 144.413C215.443 142.72 215.459 141.033 215.483 139.352C215.4 139.298 215.326 139.234 215.277 139.148C212.734 134.676 210.609 130.017 208.641 125.287C201.126 131.666 194.479 139.693 188.523 147.253C190.642 151.762 193.009 156.147 195.795 160.326ZM186.498 149.835C186.444 149.903 186.39 149.973 186.336 150.041C180.715 157.234 174.828 165.029 170.345 173.391C173.269 176.043 176.171 178.719 179.056 181.409C182.509 175.239 187.181 169.605 191.8 164.551C192.444 163.846 193.101 163.148 193.758 162.449C190.981 158.419 188.616 154.188 186.498 149.835ZM215.602 133.5C215.612 133.086 215.621 132.669 215.632 132.256C215.743 128.111 215.896 123.938 216.111 119.753C214.381 120.845 212.694 122.046 211.047 123.331C212.456 126.77 213.949 130.17 215.602 133.5ZM216.148 119.052C216.188 118.31 216.241 117.567 216.285 116.824C216.59 111.687 216.997 106.542 217.577 101.419C217.819 99.2789 218.085 97.1419 218.39 95.0129C213.187 97.7569 208.271 101.058 203.629 104.757C206.045 110.453 208.196 116.269 210.515 122.012C211.762 121.099 213.033 120.231 214.335 119.427C214.594 119.266 215.502 119.085 216.148 119.052ZM201.226 106.719C193.641 113.106 186.806 120.5 180.634 128.126C182.875 133.934 185.1 139.748 187.657 145.397C193.78 137.93 200.421 130.039 208.063 123.894C205.732 118.19 203.595 112.402 201.226 106.719ZM178.494 130.811C178.069 131.353 177.64 131.894 177.222 132.436C170.002 141.8 163.33 151.792 157.866 162.367C161.482 165.466 165.052 168.619 168.59 171.807C173.425 163.216 179.646 155.201 185.595 147.917C182.985 142.335 180.727 136.581 178.494 130.811ZM156.677 164.729C153.841 170.455 151.365 176.346 149.361 182.402C150.66 183.958 151.831 185.671 152.787 187.481C153.037 187.954 153.281 188.43 153.498 188.916C153.615 188.89 153.717 188.874 153.81 188.866C153.874 188.86 153.936 188.856 153.983 188.862C156.415 189.145 158.848 189.412 161.283 189.674C162.567 184.333 164.69 179.151 167.318 174.152C163.807 170.969 160.262 167.825 156.677 164.729ZM163.339 189.891C167.214 190.297 171.093 190.669 174.975 191.021C175.697 188.493 176.68 186.039 177.865 183.661C177.707 183.64 177.572 183.594 177.482 183.511C174.711 180.919 171.922 178.341 169.115 175.781C166.945 180.156 165.187 184.679 164.083 189.351C164.032 189.563 163.729 189.751 163.339 189.891ZM177.607 191.259C192.227 192.539 206.886 193.446 221.56 193.999C216.653 178.699 215.466 161.96 215.443 145.667C215.443 145.664 215.443 145.661 215.443 145.658C211.632 148.132 208.017 150.982 204.588 154.051C201.788 156.557 199.109 159.206 196.571 161.936C196.498 162.101 196.344 162.254 196.144 162.387C195.232 163.377 194.335 164.374 193.457 165.376C186.88 172.889 180.187 181.427 177.607 191.259ZM196.21 90.0009C196.238 90.0309 196.269 90.0579 196.29 90.0939C198.765 94.1579 200.848 98.4009 202.748 102.726C207.541 98.9829 212.619 95.6399 218.024 92.8749C218.265 92.7509 218.51 92.6949 218.743 92.6829C219.644 86.8489 220.804 81.0719 222.3 75.4009C213.505 79.4669 204.683 84.3549 196.21 90.0009ZM172.526 108.875C175.193 114.318 177.464 119.955 179.665 125.622C185.93 118.124 192.77 110.896 200.347 104.648C198.427 100.188 196.322 95.8139 193.826 91.6159C186.319 96.7859 179.131 102.556 172.526 108.875ZM143.209 150.373C143.26 150.394 143.307 150.417 143.347 150.448C147.572 153.754 151.719 157.159 155.814 160.629C161.452 149.91 168.312 139.775 175.761 130.406C176.334 129.685 176.917 128.967 177.5 128.248C175.251 122.444 172.958 116.659 170.293 111.052C158.776 122.525 149.236 135.724 143.209 150.373ZM136.759 173.24C140.188 174.563 143.415 176.547 146.207 179.099C146.566 179.428 146.924 179.77 147.277 180.122C149.324 174.26 151.799 168.529 154.617 162.95C150.555 159.48 146.432 156.085 142.246 152.772C139.812 159.162 138.039 165.815 137.075 172.719C137.049 172.915 136.931 173.089 136.759 173.24ZM43.756 337.503C48.117 336.882 52.128 334.992 54.683 330.932C56.509 328.031 57.526 324.752 57.926 321.376C53.658 322.297 49.456 323.508 45.154 324.274C44.538 324.383 44.08 324.214 43.8 323.944C31.866 325.937 19.515 306.062 31.94 298.693C32.262 298.502 32.705 298.438 33.127 298.464C36.291 296.141 38.911 293.236 40.986 289.856C41.249 289.428 42.492 289.106 43.212 289.182C39.798 284.837 35.427 281.468 30.44 280.059C12.865 275.097 0.975994 294.34 4.47999 309.912C7.37799 322.792 17.022 332.372 29.418 336.395C29.957 336.181 30.545 336.011 30.823 336.044C35.131 336.55 39.444 337.023 43.756 337.503ZM43.651 289.757C43.648 289.763 43.648 289.767 43.644 289.773C41.128 293.873 37.815 297.178 33.833 299.799C33.823 299.805 33.817 299.811 33.808 299.817C26.925 303.9 29.411 312.347 34.118 317.202C36.372 319.527 39.931 322.456 43.454 322.046C47.639 321.558 50.286 317.855 50.778 313.892C51.747 306.088 48.914 296.756 43.651 289.757ZM49.42 321.287C52.314 320.607 55.19 319.851 58.1 319.248C58.204 316.828 58.014 314.389 57.59 312.03C56.215 304.378 52.775 296.826 47.651 290.888C53.87 300.518 57.703 314.597 49.42 321.287ZM57.279 335.358C62.732 332.32 65.291 327.197 68.825 322.376C80.479 306.48 92.491 290.813 104.801 275.419C112.995 265.173 121.04 255.136 127.708 243.781C135.005 231.355 141.457 218.433 149.05 206.181C153.995 198.203 151.979 189.758 146.69 183.436C146.6 183.367 146.526 183.285 146.476 183.185C145.048 181.52 143.392 180.009 141.577 178.699C140.311 177.784 138.968 176.971 137.571 176.269C130.341 172.635 121.673 172.065 114.815 176.855C115.055 176.985 115.086 177.218 114.701 177.581C94.159 196.922 74.788 217.572 55.457 238.107C46.563 247.554 37.704 257.036 28.985 266.644C26.262 269.644 23.537 272.647 20.891 275.715C20.474 276.198 18.716 278.152 18.177 278.864C21.58 277.687 25.228 277.307 28.89 277.824C29.213 277.657 29.589 277.572 29.952 277.641C47.467 280.978 60.083 298.096 60.97 315.531C61.027 316.651 61.028 317.79 60.977 318.932C61.916 319.26 62.033 320.39 60.849 320.757C60.295 326.256 58.294 331.65 53.906 335.233C52.394 336.467 50.768 337.4 49.068 338.1C49.175 338.112 49.283 338.125 49.39 338.137C52.147 337.627 54.813 336.731 57.279 335.358ZM488.854 334.509C485.752 331.853 483.71 328.566 481.171 325.047C476.535 318.622 471.743 312.307 466.949 306C460.164 297.073 453.328 288.184 446.361 279.399C438.806 269.875 430.879 260.726 424.44 250.373C416.815 238.114 410.321 225.216 403.03 212.764C398.403 204.861 393.599 198.01 398.057 188.788C398.952 186.937 400.057 185.182 401.331 183.546C398.483 184.158 395.627 184.736 392.765 185.287C392.175 185.759 390.445 186.155 390.11 185.797C356.622 192.021 322.24 194.264 288.301 195.276C250.844 196.392 213.265 195.617 175.914 192.382C174.044 192.22 172.173 192.06 170.304 191.885C164.873 191.378 159.448 190.821 154.028 190.206C155.214 193.38 155.619 196.763 154.706 200.115C153.214 205.59 149.341 210.36 146.567 215.245C143.139 221.283 139.838 227.39 136.459 233.454C129.748 245.501 122.666 257.184 113.882 267.844C107.067 276.115 100.458 284.556 93.911 293.04C87.527 301.311 81.188 309.619 74.954 318.003C72.024 321.944 69.484 326.312 66.489 330.164C63.309 334.254 59.078 337.008 54.364 338.659C97.459 343.239 140.693 346.559 183.981 348.592C240.788 351.259 297.763 351.977 354.587 349.386C399.505 347.339 444.751 343.66 488.854 334.509ZM495.043 333.196C492.213 329.718 490.77 325.356 490.356 320.881C489.106 320.609 489.443 319.594 490.239 319.082C490.195 317.708 490.239 316.334 490.368 314.982C491.995 297.827 504.078 281.046 521.586 277.71C522.083 277.615 522.471 277.702 522.752 277.871C525.811 277.282 528.927 277.27 531.943 277.961C531.172 277.094 530.308 276.18 530.072 275.908C527.338 272.767 524.547 269.676 521.744 266.596C512.927 256.907 503.99 247.326 495.003 237.794C475.863 217.494 456.702 197.067 436.381 177.934C436.159 177.725 436.262 177.478 436.529 177.255C429.641 172.271 420.653 172.486 413.211 176.098C412.561 176.413 411.924 176.757 411.3 177.123C410.859 177.382 410.422 177.647 409.996 177.93C409.969 178.152 409.577 178.39 409.083 178.57C404.689 181.758 401.26 186.249 399.833 191.551C397.53 200.114 402.483 205.921 406.559 213.035C411.447 221.566 416.033 230.266 420.93 238.792C429.976 254.54 441.169 268.137 452.325 282.363C461.368 293.894 470.285 305.528 479.029 317.288C482.026 321.318 484.633 326.112 487.863 329.916C489.141 331.421 490.596 332.706 492.17 333.804C493.128 333.601 494.088 333.406 495.043 333.196ZM503.012 292.137C503.789 290.824 504.667 289.574 505.629 288.396C498.931 294.876 494.533 303.964 493.466 313.134C493.24 315.075 493.14 317.111 493.228 319.149C495.804 319.677 498.352 320.328 500.908 320.944C499.549 319.663 498.513 318.002 498.008 316.02C495.995 308.119 498.972 298.966 503.012 292.137ZM500.396 337.577C498.997 336.856 497.681 335.944 496.488 334.789C496.175 334.487 495.878 334.174 495.592 333.853C495.382 333.949 495.16 334.029 494.952 334.075C494.354 334.207 493.754 334.327 493.156 334.457C495.387 335.855 497.836 336.887 500.396 337.577ZM546.989 299.287C545.047 289.6 537.663 279.711 526.971 279.23C515.539 278.716 506.888 288.034 503.041 297.98C501.231 302.659 499.55 308.295 500.491 313.361C501.297 317.698 504.624 322.904 509.835 321.983C518.517 320.449 526.426 306.955 518.323 300.75C518.161 300.74 518.017 300.708 517.908 300.642C513.608 298.001 510.153 294.498 507.515 290.203C507.168 289.639 509.897 288.587 510.412 289.427C512.595 292.981 515.41 295.957 518.767 298.349C519.061 298.325 519.335 298.358 519.537 298.477C530.632 305.058 521.694 319.187 512.842 323.003C511.073 323.766 509.191 324.018 507.373 323.84C506.999 324.192 506.436 324.433 505.886 324.335C501.687 323.587 497.583 322.416 493.422 321.504C493.897 325.379 495.171 329.123 497.752 332.071C503.17 338.258 511.462 338.527 519.009 336.928C519.435 336.838 519.784 336.882 520.053 336.999C536.475 332.23 550.688 317.737 546.989 299.287ZM273.248 249.279C272.437 249.545 271.494 249.508 271.494 249.008C271.494 247.863 271.494 246.719 271.494 245.574C271.494 244.463 274.391 243.92 274.391 244.798C274.391 245.853 274.391 246.907 274.391 247.962C274.396 247.962 274.402 247.961 274.407 247.961C300.355 247.957 326.304 247.721 352.251 247.448C365.505 247.309 378.759 247.159 392.012 246.912C396.262 246.832 400.514 246.752 404.763 246.616C406.123 246.573 407.485 246.53 408.844 246.455C408.949 246.449 409.041 246.442 409.131 246.435C398.739 238.334 391.608 227.009 382.455 217.632C382.135 217.8 381.769 217.897 381.424 217.854C366.425 215.988 351.363 215.411 336.282 215.356C336.265 220.02 336.193 224.684 336.186 229.349C336.186 229.504 336.112 229.644 335.998 229.772C337.118 229.667 338.249 229.726 339.366 230.052C339.974 230.23 339.256 230.637 338.997 230.755C338.458 231 337.577 231.314 336.975 231.138C334.864 230.521 333.328 231.18 331.549 232.328C330.983 232.694 330.169 232.887 329.5 232.877C328.937 232.868 328.896 232.584 329.344 232.294C330.587 231.492 331.963 230.796 333.396 230.324C333.33 230.272 333.289 230.206 333.289 230.123C333.296 225.2 333.379 220.278 333.39 215.355C314.975 215.367 296.536 216.08 278.147 216.128C276.091 221.346 275.859 227.081 274.482 232.5C275.713 232.606 276.916 232.829 278 233.312C279.159 233.828 276.498 235.031 275.682 234.667C273.52 233.705 270.725 233.995 268.411 234C267.986 234 267.235 233.764 267.642 233.211C268.048 232.66 268.913 232.438 269.559 232.436C270.268 232.435 271.009 232.417 271.762 232.412C273.054 226.999 273.319 221.305 275.477 216.144C260.23 216.204 244.99 216.813 229.75 217.373C229.756 217.409 229.759 217.446 229.749 217.489C226.989 228.858 222.035 239.537 219.45 250.961C219.44 251.003 219.42 251.044 219.396 251.084C220.152 251.084 220.909 251.084 221.665 251.084C223.607 251.084 221.364 252.449 220.463 252.449C217.316 252.449 214.169 252.449 211.022 252.449C209.08 252.449 211.323 251.084 212.224 251.084C213.704 251.084 215.184 251.084 216.664 251.084C219.269 239.789 224.144 229.206 226.878 217.95C226.923 217.763 227.116 217.596 227.377 217.459C208.267 218.151 189.156 218.698 170.036 217.905C166.942 230.226 159.596 240.685 154.445 252.199C157.082 252.251 159.679 252.439 162.277 253.056C163.855 253.431 161.258 254.667 160.462 254.478C157.438 253.76 154.437 253.639 151.341 253.638C149.861 253.638 150.753 252.798 151.689 252.393C157.13 240.324 164.943 229.396 167.658 216.229C167.826 215.413 170.708 214.924 170.532 215.778C170.523 215.82 170.511 215.861 170.503 215.903C207.286 217.486 244.147 214.423 280.937 214.135C314.747 213.871 348.801 211.681 382.463 215.87C382.735 215.904 382.931 215.972 383.074 216.06C383.73 215.805 384.554 215.779 384.987 216.22C394.565 225.993 401.857 237.987 413.1 246.059C414.455 247.033 411.923 248.498 410.869 247.742C410.754 247.659 410.645 247.57 410.531 247.487C409.404 247.844 407.846 247.765 406.982 247.804C403.383 247.966 399.779 248.044 396.178 248.121C383.038 248.402 369.896 248.559 356.754 248.703C328.917 249.011 301.082 249.273 273.248 249.279ZM408.94 246.967C409.028 246.853 409.203 246.746 409.423 246.655C409.391 246.631 409.359 246.607 409.327 246.582C409.198 246.681 409.065 246.805 408.94 246.967ZM141.047 267.403C144.412 267.405 147.732 267.476 151.026 268.237C151.865 268.431 154.431 267.134 152.828 266.763C149.329 265.955 145.783 265.884 142.208 265.882C141.205 265.882 139.094 267.402 141.047 267.403ZM261.514 266.769C260.55 266.769 259.586 266.769 258.622 266.769C258.611 265.734 256.496 266.001 255.884 266.769C254.9 266.769 253.916 266.769 252.932 266.769C251.967 266.769 249.806 268.232 251.756 268.232C253.05 268.232 254.344 268.232 255.638 268.232C254.761 280.391 253.262 292.446 250.919 304.415C220.034 304.384 189.146 303.987 158.267 303.452C149.244 303.296 140.157 303.36 131.145 302.785C131.173 302.728 131.203 302.677 131.224 302.597C131.471 301.655 131.819 300.735 132.143 299.818C133.269 296.629 134.545 293.491 135.831 290.364C138.905 282.883 142.136 275.287 146.414 268.401C147.144 267.226 144.223 267.493 143.71 268.318C139.772 274.657 136.789 281.602 133.876 288.456C131.921 293.053 128.693 298.675 128.164 303.725C128.127 304.075 128.394 304.306 128.731 304.352C133.638 305.021 138.794 304.768 143.731 304.876C154.815 305.119 165.901 305.287 176.986 305.445C202.204 305.804 227.425 306.1 252.646 306.107C253.754 306.107 255.723 304.426 253.763 304.425C253.754 304.425 253.744 304.425 253.734 304.425C253.764 304.366 253.788 304.306 253.8 304.243C256.139 292.331 257.639 280.332 258.523 268.232C259.129 268.232 259.735 268.232 260.341 268.232C261.303 268.231 263.464 266.769 261.514 266.769ZM204.553 301.172C204.38 302.209 207.289 301.689 207.442 300.774C209.165 290.441 210.943 280.126 213.433 269.945C213.619 269.945 213.805 269.945 213.991 269.945C214.95 269.945 217.118 268.49 215.169 268.49C212.022 268.49 208.875 268.49 205.728 268.49C204.769 268.49 202.601 269.945 204.55 269.945C206.623 269.945 208.696 269.945 210.77 269.945C210.665 270.046 210.59 270.156 210.561 270.275C208.062 280.477 206.28 290.815 204.553 301.172ZM407.091 259.89C406.328 260.128 405.803 259.902 405.59 259.524C405.142 259.513 404.694 259.504 404.246 259.512C402.419 259.542 400.593 259.609 398.768 259.69C393.28 259.936 387.795 260.254 382.31 260.575C370.439 261.269 358.565 262.074 346.679 262.475C331.682 262.981 316.662 262.894 301.66 262.734C295.553 262.669 289.447 262.576 283.34 262.5C281.564 262.478 279.788 262.449 278.012 262.452C277.235 262.453 276.853 262.534 276.725 262.571C276.845 262.52 277.168 262.344 277.53 261.887C277.525 261.867 277.519 261.847 277.514 261.827C277.175 262.166 276.636 262.441 276.127 262.499C276.127 263.559 276.127 264.619 276.127 265.679C276.127 267.018 273.188 267.436 273.188 265.886C273.188 264.17 273.188 262.453 273.188 260.738C273.188 259.432 275.977 259.008 276.115 260.426C278.018 259.782 281.473 260.393 282.776 260.41C289.623 260.495 296.469 260.603 303.316 260.669C320.205 260.83 337.115 260.916 353.989 260.098C368.138 259.412 382.269 258.415 396.418 257.732C399.949 257.562 403.955 256.927 407.479 257.499C409.646 257.852 408.595 259.421 407.091 259.89ZM406.571 257.946C405.632 258.238 405.451 258.52 405.554 258.763C405.688 258.433 406.016 258.119 406.571 257.946ZM412.571 253.38C412.571 252.786 409.673 253.242 409.674 254.156C409.675 256.658 409.697 259.201 411.48 261.148C412.022 261.74 414.741 260.711 414.2 260.121C412.52 258.288 412.573 255.718 412.571 253.38ZM256.278 316.766C256.816 317.376 254.085 318.39 253.558 317.793C253.264 317.46 253.035 317.105 252.831 316.741C252.207 316.749 251.85 316.365 251.835 315.914C251.806 315.91 251.787 315.908 251.755 315.903C251.278 315.831 250.802 315.764 250.322 315.714C248.666 315.54 247.006 315.416 245.344 315.32C240.701 315.054 236.052 314.898 231.403 314.792C219.275 314.515 207.133 314.462 195.004 314.724C181.089 315.023 167.231 315.112 153.32 314.49C147.803 314.243 142.289 313.944 136.778 313.593C135.156 313.489 133.536 313.382 131.914 313.28C131.111 314.569 130.104 315.726 129.11 316.869C128.228 317.883 125.464 317.369 126.674 315.976C127.453 315.08 128.324 314.153 128.992 313.138C128.914 313.129 128.839 313.116 128.768 313.093C128.747 313.087 128.726 313.08 128.705 313.073C127.931 312.827 127.941 311.976 128.515 311.531C128.3 311.298 128.159 310.986 128.138 310.52C128.081 309.252 130.745 308.806 131.045 310.121C131.139 310.153 131.233 310.186 131.329 310.217C131.739 310.346 132.179 310.59 132.399 310.979C133.711 311.1 135.02 311.348 135.932 311.406C142.569 311.833 149.209 312.219 155.854 312.487C172.644 313.163 189.358 312.593 206.146 312.506C219.246 312.437 232.395 312.453 245.478 313.203C247.33 313.309 249.77 313.183 251.903 313.516C251.818 312.626 251.814 311.712 251.813 310.806C251.812 309.891 254.71 309.436 254.71 310.03C254.717 312.344 254.651 314.921 256.278 316.766ZM252.187 315.117C252.182 315.098 252.178 315.079 252.173 315.06C252.065 315.156 252.015 315.247 252.009 315.333C252.058 315.259 252.117 315.187 252.187 315.117Z" fill="#424242"/>
</svg>
