<svg width="715" height="538" viewBox="0 0 715 538" fill="none" xmlns="http://www.w3.org/2000/svg">
<path d="M714.783 511.223L600.223 471.199L467.978 424.802C436.059 413.522 408.427 392.615 388.895 364.965C369.363 337.315 358.894 304.285 358.931 270.432V0.786621C367.943 3.56226 375.857 9.09696 381.557 16.6102V16.6102L384.277 20.6914L714.783 511.223Z" fill="url(#paint0_linear)"/>
<path d="M355.709 0.786621V272.079C355.74 305.959 345.252 339.013 325.693 366.677C306.135 394.342 278.47 415.252 246.519 426.52L114.56 472.846L0 512.87L330.506 22.3382L333.226 18.257C338.773 10.2862 346.615 4.19272 355.709 0.786621V0.786621Z" fill="url(#paint1_linear)"/>
<path opacity="0.5" d="M70.3112 537.214L268.07 467.833C293.752 458.848 316.005 442.099 331.745 419.906C347.486 397.712 355.935 371.174 355.924 343.965V113.342L70.3112 537.214Z" fill="#F4B9A8"/>
<path opacity="0.5" d="M644.4 537.214L446.569 467.833C420.895 458.845 398.652 442.093 382.924 419.899C367.195 397.705 358.76 371.168 358.788 343.965V113.342L644.4 537.214Z" fill="#F4B9A8"/>
<defs>
<linearGradient id="paint0_linear" x1="44833.3" y1="-6017.26" x2="44833.3" y2="46241.2" gradientUnits="userSpaceOnUse">
<stop stop-color="#F34768"/>
<stop offset="1" stop-color="#F25D4A"/>
</linearGradient>
<linearGradient id="paint1_linear" x1="177.926" y1="-173.989" x2="177.926" y2="561.415" gradientUnits="userSpaceOnUse">
<stop stop-color="#F34768"/>
<stop offset="1" stop-color="#F25D4A"/>
</linearGradient>
</defs>
</svg>
