<svg width="611" height="479" viewBox="0 0 611 479" fill="none" xmlns="http://www.w3.org/2000/svg">
<path d="M119.818 188.615C119.508 204.956 116.618 221.174 112.262 236.901C108.497 250.497 103.461 264.662 95.1362 276.227C86.3888 276.88 77.5071 275.38 72.5505 267.413C70.1295 263.519 69.3482 258.547 69.5008 254.029C69.596 251.208 73.2813 246.637 74.9461 243.501C78.6992 236.438 83.136 228.242 83.432 220.066C83.4435 219.753 83.3471 219.511 83.1853 219.326C88.5228 216.399 93.4691 212.563 97.8417 208.969C105.481 202.692 112.039 194.752 119.818 188.615ZM78.7496 221.482C79.2143 221.297 79.6366 221.123 80.0072 220.964C80.0083 220.954 80.0094 220.944 80.0094 220.936C79.5918 221.126 79.1707 221.304 78.7496 221.482ZM67.2416 224.193C65.1259 224.256 63.211 224.052 61.4693 223.638C64.7312 224.908 69.0166 224.408 72.8109 223.436C70.9809 223.86 69.1245 224.137 67.2416 224.193ZM155.332 239.449C154.923 239.502 154.514 239.538 154.106 239.583C153.485 239.674 152.822 239.739 152.115 239.774C139.801 240.749 127.813 238.277 116.079 234.421C115.901 235.067 115.738 235.718 115.555 236.361C111.468 250.64 106.29 265.329 97.2657 277.309C97.1636 277.956 96.5326 278.656 95.5699 278.741C94.8218 278.806 94.0784 278.846 93.3395 278.873C81.4941 317.239 58.0742 350.965 33.4794 382.238C29.4373 387.377 25.3504 392.482 21.2211 397.552C19.2866 399.925 19.4197 399.648 19.8764 403.064C21.5767 415.792 27.8069 427.123 37.8417 434.724C38.0884 434.776 38.2582 434.883 38.2857 435.06C39.5662 436.006 40.9109 436.887 42.313 437.707C47.6413 432.159 52.8973 426.533 58.0513 420.813C71.8689 404.18 92.4388 378.383 109.837 352.322C111.37 350.026 112.846 347.736 114.288 345.451C129.093 320.233 141.018 293.512 150.137 265.66C150.401 264.853 152.63 264.407 153.283 264.779C153.382 264.823 153.444 264.886 153.452 264.969C153.453 264.978 153.454 264.987 153.454 264.995C153.456 265.005 153.456 265.016 153.458 265.024C156.72 293.63 152.424 323.776 138.29 349.142C131.179 361.905 121.964 373.584 110.649 382.892C107.071 385.834 127.492 394.691 129.402 395.114C133.642 396.057 138.028 396.525 142.334 395.911C142.386 395.824 142.422 395.736 142.476 395.649C142.747 395.216 143.23 394.983 143.733 394.922C166.276 372.173 183.611 345.274 188.781 313.197C193.445 284.265 190.524 254.706 190.379 225.553C179.567 232.009 167.929 237.828 155.332 239.449ZM580.344 391.999C568.61 378.454 556.768 364.989 544.608 351.825C536.576 343.131 527.944 334.942 520.992 325.314C512.807 313.979 506.415 301.492 502.114 288.179C497.624 274.282 495.623 259.777 491.038 245.908C486.477 232.116 480.439 218.869 471.78 207.162C460.463 213.898 445.216 216.586 432.31 216.291C422.545 216.069 412.394 214.77 402.795 212.217C401.885 230.599 393.422 248.354 388.192 265.739C384.687 277.39 382.847 289.741 381.367 301.805C379.863 314.069 378.378 327.244 382.35 339.204C385.231 347.875 389.815 355.545 395.292 362.597L420.446 388.628C426.59 394.367 432.778 400.065 439.025 405.695C447.968 410.263 457.752 398.951 462.616 392.758C467.589 386.425 473.086 378.815 474.858 370.77C459.922 351.099 442.074 334.36 421.576 320.577C421.218 320.337 421.049 319.877 421.282 319.485C429.711 305.278 432.503 288.602 440.409 274.133C439.332 270.538 438.329 266.925 437.43 263.289C437.263 262.604 440.595 261.746 440.755 262.398C441.663 266.07 442.681 269.705 443.772 273.314C443.847 273.417 443.886 273.539 443.881 273.682C446.822 283.347 450.398 292.786 454.419 302.041C455.671 304.922 456.963 307.786 458.296 310.632C465.203 325.374 473.125 339.672 481.329 353.689C485.781 361.293 490.548 368.68 495.555 375.896C505.696 389.173 518.213 404.985 528.319 417.626C534.62 424.906 541.063 432.065 547.579 439.142C550.04 437.832 552.35 436.315 554.519 434.616C555.392 433.934 556.243 433.225 557.072 432.489C563.616 426.668 568.813 419.252 573.107 411.545C573.064 411.18 573.282 410.857 573.624 410.606C573.946 410.015 574.269 409.425 574.581 408.832C576.737 404.741 578.765 400.461 579.829 395.934C580.039 395.028 580.816 392.543 580.344 391.999ZM68.6242 222.637C81.1166 221.654 92.2736 211.665 101.109 203.586C107.26 197.964 112.949 191.287 119.771 186.441C117.387 178.984 115.864 170.74 111.981 163.86C105.06 168.244 98.109 172.581 91.156 176.91C91.0229 177.024 90.8589 177.124 90.6753 177.211C83.9495 181.399 77.2214 185.59 70.5277 189.832C69.4882 190.491 66.5762 190.094 68.4773 188.889C75.0311 184.735 81.6169 180.631 88.2027 176.531C88.9531 170.36 89.7299 164.176 90.8463 158.062C91.0516 156.939 94.4008 156.369 94.169 157.638C93.1605 163.162 92.4319 168.745 91.7469 174.32C98.4716 170.131 105.195 165.935 111.882 161.685C112.356 161.383 114.029 160.821 114.453 161.513C114.904 162.246 115.318 162.999 115.715 163.76C116.49 162.56 117.135 161.281 117.705 159.955C117.558 159.804 117.462 159.609 117.457 159.353C117.13 142.191 109.009 123.979 99.3574 110.012C85.6499 112.9 73.8757 120.737 66.9123 133.844C63.4944 140.275 60.8153 147.592 60.1372 154.905C60.1257 155.024 60.081 155.133 60.0225 155.239C57.5774 169.893 53.1739 184.514 52.4373 199.401C51.8923 210.418 54.5323 223.747 68.6242 222.637ZM194.386 252.334C194.52 256.532 194.641 260.733 194.725 264.932C195.106 258.765 195.387 253.878 195.48 252.248C195.39 252.262 195.302 252.279 195.213 252.293C194.839 252.35 194.577 252.357 194.386 252.334ZM117.024 166.518L116.78 165.444C116.708 165.457 116.635 165.47 116.563 165.482C116.721 165.826 116.874 166.171 117.024 166.518ZM261.562 53.3685C258.54 52.8785 255.695 51.948 252.922 50.803C252.603 50.7731 252.329 50.6779 252.172 50.4943C250.85 49.9275 249.543 49.3148 248.241 48.6792C248.217 48.8743 248.127 49.0911 247.931 49.3343C240.86 58.1162 235.736 68.9668 230.124 78.6999C227.19 83.7895 224.298 88.9056 221.259 93.9311C219.734 96.4541 218.592 98.7786 215.636 99.8308C204.632 103.75 194.54 101.999 183.19 101.019C176.891 100.476 169.817 99.7332 162.794 99.7757C160.685 99.8457 158.721 99.9317 156.933 100.025C154.31 100.238 151.726 100.596 149.228 101.172C163.436 115.072 171.101 134.065 177.611 152.5C185.694 175.386 191.161 198.802 193.643 222.962C193.643 222.969 193.642 222.976 193.643 222.983C193.671 223.017 193.691 223.056 193.691 223.102C193.706 232.558 194.055 242.085 194.364 251.629C194.716 251.351 195.279 251.079 195.815 250.999C202.288 250.019 208.876 247.351 213.695 243.162C214.856 242.034 216.02 240.8 217.126 239.503C220.314 235.256 221.856 229.937 220.578 223.642C217.555 208.756 213.354 194.123 208.114 179.867C202.676 165.07 196.534 150.277 188.855 136.473C188.785 136.419 188.755 136.35 188.747 136.275C188.718 136.223 188.692 136.17 188.663 136.118C188.559 135.932 188.875 135.665 189.346 135.43C189.821 135.058 190.477 134.738 190.971 134.721C196.453 134.522 201.659 132.711 206.876 131.181C210.02 130.26 213.267 129.768 216.456 129.095C218.488 128.541 220.384 128.004 222.04 127.507C230.058 124.193 234.404 116.043 239.075 109.03C250.077 92.5129 259.292 74.4374 262.882 54.8268C262.831 54.1016 262.765 53.5383 262.708 53.155C262.266 53.3168 261.831 53.4121 261.562 53.3685ZM447.722 213.408C454.598 212.38 461.401 210.484 467.306 207.477C462.449 209.205 454.919 211.71 447.722 213.408ZM183.038 227.805C178.047 230.129 171.733 233.001 166.112 235.355C171.993 233.443 177.6 230.8 183.038 227.805ZM116.739 231.972C116.662 232.265 116.58 232.554 116.504 232.845C116.559 232.827 116.615 232.807 116.671 232.789C116.688 232.57 116.711 232.297 116.739 231.972ZM531.059 332.885C530.833 332.614 530.605 332.342 530.378 332.074C530.58 332.308 530.767 332.552 530.97 332.785C531 332.819 531.031 332.851 531.059 332.885Z" fill="#EB144C"/>
<path d="M606.103 444.986C606.069 444.924 606.034 444.861 605.999 444.8C605.985 444.776 605.973 444.752 605.959 444.728C605.899 444.628 605.814 444.551 605.719 444.486C600.712 439.002 594.793 434.358 589.402 429.263C584.237 424.378 577.64 418.283 576.474 410.911C579.994 405.066 582.916 398.634 583.714 392.05C584.039 389.359 578.182 384.776 576.598 382.966C569.287 374.609 561.922 366.299 554.475 358.062C546.793 349.566 538.588 341.508 531.06 332.883C531.032 332.85 531 332.817 530.971 332.784C530.768 332.551 530.581 332.306 530.379 332.072C520.673 320.765 513.201 307.821 507.805 293.952C502.304 279.816 500.172 264.862 496.007 250.352C491.704 235.357 485.408 220.815 476.42 208.022C475.708 207.03 474.977 206.05 474.228 205.086C474.206 205.058 474.177 205.039 474.15 205.015C474.133 204.968 474.138 204.927 474.109 204.877C471.103 199.804 469.133 194.334 467.619 188.713C469.241 191.699 470.933 194.644 472.887 197.427C479.602 206.989 486.882 216.328 494.609 225.095C501.504 232.92 509.741 239.169 513.58 249.217C516.952 258.041 517.518 267.705 521.107 276.47C521.413 277.217 522.727 277.149 523.621 276.731C523.98 276.755 524.377 276.714 524.734 276.591C529.276 274.996 529.586 270.436 529.194 265.908C532.036 270.749 535.074 275.455 538.689 279.792C541.085 282.662 544.6 287.924 548.733 284.805C549.355 284.336 549.728 283.731 549.918 283.032C551.143 283.152 552.301 283.013 553.164 282.546C553.164 282.546 553.164 282.547 553.165 282.545C554.408 281.873 555.029 280.513 554.297 278.228C554.297 278.227 554.297 278.227 554.296 278.227C557.22 277.554 557.381 275.234 556.092 272.179C556.035 272.042 555.967 271.912 555.906 271.775C556.018 271.75 556.119 271.721 556.193 271.689C564.467 268.175 551.942 256.368 548.304 253.25C548.27 253.167 548.219 253.085 548.141 253.003C541.053 245.566 533.69 238.386 526.969 230.608C520.097 222.658 517.172 213.535 513.08 204.061C509.588 195.975 504.917 187.933 498.502 181.847C494.953 178.48 490.764 176.073 487.642 172.237C484.499 168.375 482.7 163.485 480.822 158.932C480.814 158.912 480.799 158.899 480.791 158.88C481.559 157.811 482.177 156.635 482.635 155.348C482.755 155.182 482.821 154.998 482.823 154.804C482.838 154.761 482.855 154.719 482.869 154.674C483.003 154.227 482.797 153.952 482.434 153.815C475.176 139.738 469.295 114.974 452.259 109.794C457.458 108.613 461.148 105.901 460.493 100.725C459.832 95.4983 454.255 92.1824 451.999 87.7387C448.835 81.5051 459.338 76.5279 459.513 70.3333C459.718 63.0866 453.493 61.5112 450.167 56.3493C448.602 53.9215 448.59 49.8885 447.931 47.1153C447.031 43.3302 445.89 39.6001 444.813 35.8632C443.869 32.5829 441.562 30.4683 438.768 29.0433C436.69 27.5161 433.634 26.1634 429.116 25.4968C427.691 25.2857 426.418 25.0975 425.267 24.9288C421.817 24.0557 418.356 23.2113 414.941 22.3083C405.336 19.7715 392.688 20.1501 385.116 27.5942C381.023 31.6191 379.68 36.3898 378.02 41.7388C375.672 49.3079 368.951 52.5664 365.144 58.9744C362.464 63.4893 364.426 69.0104 366.228 73.3979C368.169 78.1216 368.877 82.267 367.321 85.9351C364.833 88.6279 361.616 90.9869 360.485 93.222C356.077 98.003 365.377 102.864 369.664 104.596C370.366 104.879 371.077 105.125 371.792 105.35C367.744 105.14 363.76 104.583 359.819 103.458C359.57 103.386 359.087 103.472 358.585 103.626C357.857 103.248 356.555 103.38 356.049 104.122C355.862 104.395 355.69 104.689 355.509 104.972C355.444 104.648 355.135 104.405 354.455 104.38C345.163 104.039 335.51 100.434 326.533 97.9548C323.515 97.1207 321.006 93.9379 318.859 91.8486C315.258 88.3457 311.849 84.6695 308.693 80.7616C299.729 69.6621 289.196 58.4203 284.919 44.4925C285.498 44.2814 285.964 43.9337 285.975 43.5321C286.277 33.3241 291.96 22.1752 281.175 15.5641C281.163 7.17575 279.092 -0.342882 270.495 0.204408C269.976 0.155072 269.368 0.309958 269.022 0.472883C261.447 4.05264 258.447 13.0686 256.295 20.5563C253.793 29.2624 252.351 38.6088 252.079 47.7234C251.184 47.2955 250.291 46.8583 249.399 46.412C248.621 46.0242 246.152 46.9983 246.446 47.6741C245.934 47.7303 245.433 47.9322 245.135 48.3017C238.932 56.0028 234.377 65.3996 229.448 73.9245C226.371 79.2471 223.317 84.5846 220.213 89.8935C217.504 94.5265 216.499 97.3616 210.879 98.6501C208.881 99.1079 206.852 99.4154 204.805 99.6196C204.438 99.6552 204.071 99.6919 203.702 99.7206C182.489 101.413 159.074 91.6306 139.28 102.161C137.687 97.723 136.848 92.802 141.384 91.6753C146.058 90.5165 150.252 89.6227 154.137 86.565C167.783 75.8245 155.811 57.2316 152.933 44.3135C152.886 44.1047 152.777 43.9486 152.631 43.827C152.442 43.5505 152.252 43.274 152.06 42.9997C152.215 42.636 152.386 42.223 152.567 41.7675C159.605 34.9338 159.228 21.0255 150.08 15.9611C144.867 13.0743 138.363 13.5608 132.921 15.6628C131.139 16.3512 129.339 17.144 127.542 18.0149C126.227 18.5943 124.902 19.2919 123.587 20.0663C119.684 22.2016 115.885 24.6122 112.461 27.04C108.807 29.6319 106.066 33.2277 102.6 36.0307C98.8421 39.0689 94.0703 40.9368 89.9168 43.3646C84.8329 46.3351 81.852 48.6321 82.3064 54.8118C83.5662 71.9109 93.1283 88.2045 110.039 93.6855C110.039 98.0064 110.039 102.327 110.039 106.648C92.6143 107.367 76.8381 114.174 66.6461 128.877C61.4325 136.399 57.6359 146.054 56.7845 155.236C56.7776 155.309 56.7857 155.373 56.7949 155.439C56.7822 155.468 56.765 155.498 56.7604 155.529C54.071 171.775 49.0571 188.001 48.9917 204.57C48.9527 214.37 53.0522 221.634 61.4669 223.634C63.2097 224.048 65.1247 224.253 67.2393 224.19C69.1221 224.133 70.9785 223.857 72.8085 223.432C74.8268 222.964 76.8082 222.299 78.7473 221.478C79.1684 221.302 79.5894 221.123 80.0071 220.931C80.0071 220.94 80.0059 220.951 80.0048 220.96C79.407 230.407 73.5624 239.965 69.0429 247.998C67.0488 251.546 65.9646 252.899 66.1412 256.895C66.7792 271.431 77.3085 278.325 90.1945 278.863C77.9258 318.998 53.004 353.889 27.1907 386.43C23.7796 390.73 20.3329 395.001 16.861 399.25C15.5897 400.806 16.4686 403.475 16.7417 405.307C16.8759 406.219 17.0389 407.122 17.2224 408.016C16.8576 408.122 16.5489 408.256 16.3952 408.409C5.23368 419.62 -6.07354 434.553 4.86538 449.939C9.60512 456.607 15.5003 462.353 21.6776 467.676C26.4736 471.807 31.7457 476.179 37.6202 478.693C38.3063 478.987 40.3979 478.587 40.6171 477.725C43.871 464.966 40.7536 451.526 38.802 438.675C39.5225 439.113 40.2534 439.54 41.0015 439.944C41.4535 440.187 42.6376 439.899 43.3639 439.488C43.5853 439.401 43.77 439.3 43.8767 439.189C68.2983 413.888 91.0102 386.961 110.047 357.341C126.987 330.979 140.461 302.599 150.766 273.043C153.577 314.85 139.282 357.093 106.236 384.273C106.072 384.407 106.021 384.573 106.177 384.723C115.479 393.712 128.644 399.264 141.658 397.175C138.398 404.348 142.791 412.51 146.602 418.759C152.055 427.698 159.247 435.401 166.025 443.336C148.519 444.613 130.246 437.118 114.794 429.911C112.233 428.715 92.6831 419.896 93.9303 417.061C98.343 407.036 105.146 399.371 114.143 393.236C116.003 391.968 113.322 390.589 111.896 391.562C101.8 398.447 94.8964 407.118 89.9834 418.276C89.7906 418.714 89.9134 419.241 90.315 419.517C101.972 427.565 114.972 433.763 128.215 438.704C140.916 443.443 155.239 447.482 168.903 445.631C169.682 445.525 171.419 444.613 170.543 443.57C164.845 436.791 158.888 430.26 153.623 423.124C148.922 416.752 140.152 404.953 145.291 396.757C145.473 396.466 145.538 396.207 145.532 395.978C168.916 372.725 186.456 345.526 192.068 312.647C194.752 296.922 195.039 280.933 194.722 264.929C194.639 260.729 194.518 256.529 194.384 252.331C194.574 252.354 194.838 252.347 195.211 252.291C195.299 252.277 195.388 252.26 195.477 252.246C205.826 250.635 216.224 246.366 221.795 237.012C224.805 231.959 224.609 226.233 223.483 220.689C221.595 211.396 219.081 202.237 216.266 193.188C210.217 173.745 202.481 154.286 192.62 136.403C201.461 135.488 210.253 132.128 218.858 130.259C226.869 128.517 232.064 123.805 236.681 117.245C250.562 97.5257 262.906 75.8268 266.648 51.7231C271.404 72.5798 284.994 91.4952 296.807 108.751C302.286 116.755 307.003 125.985 316.637 129.461C321.361 131.166 326.674 131.506 331.53 132.929C337.178 134.583 342.751 136.404 348.676 136.62C348.996 136.632 349.382 136.52 349.741 136.348C349.937 137.261 350.155 138.162 350.428 139.03C350.644 139.722 351.452 139.906 352.221 139.763C352.085 140.156 352.244 140.533 352.929 140.736C359.192 142.587 365.208 145.083 371.65 146.244C371.636 153.743 373.975 161.13 378.179 168.111C382.291 174.938 386.368 181.136 389.055 188.735C391.449 195.501 392.988 202.569 394.816 209.499C394.801 209.592 394.834 209.678 394.922 209.755C395.155 210.136 395.665 210.272 396.216 210.235C397.317 210.609 398.421 210.981 399.542 211.318C399.107 231.079 389.497 250.306 384.035 268.998C380.713 280.37 379.225 292.632 377.785 304.372C376.326 316.27 375.566 328.482 379.02 340.095C384.091 357.137 397.162 370.747 409.7 382.732C418.496 391.142 427.478 399.366 436.523 407.509C436.632 407.712 436.821 407.902 437.131 408.061C444.118 411.632 451.298 407.605 456.904 402.797C472.064 407.695 466.252 421.417 462.128 433.002C460.331 438.05 456.543 453.031 466.835 451.472C476.381 450.024 484.162 440.156 489.638 433.065C495.117 425.97 504.833 413.065 501.61 403.386C499.19 398.136 494.587 394.844 489.767 391.929C484.737 388.888 477.731 386.68 474.096 381.849C474.054 381.793 474.002 381.746 473.946 381.704C475.913 378.046 477.441 374.255 478.253 370.486C478.313 370.356 478.339 370.221 478.323 370.08C478.347 369.683 478.156 369.415 477.845 369.263C465.585 353.127 451.379 338.831 435.239 326.568C432.321 324.352 423.959 320.79 426.166 316.797C428.496 312.582 430.219 308.027 431.894 303.525C435.057 295.016 437.725 286.35 441.662 278.182C450.213 305.046 463.388 330.702 478 354.578C497.186 385.926 520.163 413.915 545.037 440.9C545.303 441.19 546.188 441.035 546.957 440.75C547.208 440.705 547.427 440.647 547.57 440.58C551.9 438.546 555.506 436.103 558.713 433.304C572.856 444.363 570.108 469.721 588.943 476.205C595.728 478.54 602.536 476.82 607.071 471.182C613.259 463.486 610.6 452.718 606.103 444.986ZM553.921 277.162C553.913 277.141 553.907 277.122 553.899 277.101C554.01 277.099 554.15 277.092 554.338 277.082C554.227 277.087 554.082 277.117 553.921 277.162ZM490.188 179.109C499.316 186.282 504.858 194.447 509.754 204.956C513.983 214.035 516.409 222.856 522.844 230.758C529.673 239.143 537.631 246.601 545.081 254.42C545.192 254.537 545.335 254.619 545.492 254.677C548.397 257.299 558.107 267.059 555.309 270.481C553.272 266.363 550.392 262.623 547.83 258.848C547.275 258.029 544.244 259.353 544.505 259.737C546.508 262.688 548.566 265.592 550.414 268.644C551.389 270.254 552.277 271.915 553.009 273.65C553.292 274.318 553.494 275.007 553.648 275.714C553.728 276.079 553.717 276.348 553.682 276.55C551.365 270.763 546.983 265.548 543.709 260.367C543.097 259.4 539.976 260.614 540.384 261.258C542.852 265.162 545.501 268.945 547.871 272.912C548.95 274.719 549.947 276.578 550.75 278.525C551.039 279.227 551.24 279.951 551.378 280.697C551.424 280.942 551.418 281.189 551.389 281.435C550.942 281.315 550.501 281.177 550.073 281.001C550.05 280.993 550.023 280.991 549.999 280.984C549.128 274.836 539.995 264.813 538.132 261.888C537.503 260.904 534.379 262.11 534.806 262.78C535.994 264.642 546.885 279.583 546.628 283.429C539.036 276.588 533.938 267.713 529.004 258.847C528.837 258.547 528.439 258.443 527.972 258.459C527.03 258.312 525.155 258.865 525.172 259.736C525.24 263.11 527.826 272.582 524.244 275.07C521.015 266.923 519.988 258.064 517.384 249.717C514.386 240.109 507.009 233.388 500.173 226.404C491.675 217.722 484.295 207.609 477.178 197.79C472.4 191.197 469.106 183.659 464.906 176.726C464.902 176.712 464.899 176.699 464.897 176.685C464.867 176.535 464.782 176.42 464.664 176.333C463.118 173.814 461.441 171.381 459.526 169.106C466.361 167.863 473.554 165.769 478.261 161.649C481.112 168.375 484.242 174.435 490.188 179.109ZM387.509 27.8225C386.375 29.2647 385.302 30.8584 384.318 32.4808C385.221 30.614 386.297 29.0811 387.509 27.8225ZM388.068 51.4879C388.024 51.8941 388.681 52.0559 389.062 52.0559C390.189 52.0559 391.315 52.0559 392.442 52.0559C393.178 52.0559 394.174 51.7931 394.645 51.1781C395.127 50.5528 394.238 50.3187 393.775 50.3187C392.649 50.3187 391.521 50.3187 390.395 50.3187C389.659 50.3187 388.664 50.5815 388.192 51.1965C388.156 51.2447 388.141 51.286 388.12 51.3284C388.896 48.9545 389.583 46.7172 390.035 44.7151C393.436 39.7332 397.259 34.9304 402.753 32.3568C402.194 38.1567 402.826 44.1081 407.609 48.0711C410.761 50.6825 414.914 51.3686 418.804 52.1212C422.393 52.8154 420.044 56.9023 420.472 59.4402C420.642 60.4488 421.057 61.3449 421.606 62.1606C421.622 62.1847 421.634 62.2077 421.65 62.2306C422.643 63.6763 424.089 64.8409 425.572 65.7978C425.581 65.8035 425.589 65.8092 425.596 65.8138C425.809 65.9504 426.02 66.0892 426.232 66.2177C428.115 67.3605 430.195 68.0879 432.235 68.9037C432.356 68.9519 432.48 69.0012 432.602 69.0505C433.865 69.5646 435.107 70.1256 436.27 70.853C436.645 71.0882 436.972 71.3774 437.271 71.6918C438.528 73.4013 439.111 75.4012 438.583 77.8978C438.488 78.3487 438.363 78.7618 438.215 79.145C436.589 81.9928 431.359 82.2073 428.554 82.267C427.927 82.2807 426.263 82.5561 426.263 83.4866C426.263 91.6007 426.263 99.716 426.263 107.83C426.263 108.983 428.156 108.896 429.092 108.256C430.127 108.606 431.335 108.94 432.682 109.238C430.014 120.807 413.993 128.403 403.055 125.362C395.015 123.128 397.13 111.595 396.868 105.051C396.868 105.042 396.868 105.033 396.868 105.025C397.286 104.933 397.699 104.833 398.116 104.738C398.64 104.618 399.169 104.5 399.688 104.377C399.025 106.028 398.351 107.493 397.949 108.499C397.253 110.246 400.592 110.149 401.116 108.833C402.7 104.863 407.015 96.6858 404.289 92.3178C402.322 89.1683 397.518 89.1878 394.32 88.2963C376.37 83.2916 383.602 65.1311 388.068 51.4879ZM400.191 102.828L400.691 101.634C400.562 102.031 400.428 102.424 400.286 102.813C400.258 102.815 400.22 102.824 400.191 102.828ZM149.94 40.1451C148.881 38.7993 147.774 37.5165 146.589 36.3279C148.189 37.3398 149.242 38.7568 149.94 40.1451ZM113.722 62.9948C110.841 65.7542 105.454 66.5631 101.686 68.8211C104.437 66.695 109.355 65.4123 113.722 62.9948ZM100.676 76.669C98.9718 70.4561 107.694 68.5491 111.648 66.7432C114.43 65.4731 116.658 63.6224 118.347 61.0844C118.675 60.5888 118.815 59.8361 118.866 58.9756C121.053 56.2231 120.036 54.0993 118.998 52.9152C119.121 52.5274 119.316 52.2601 119.625 52.1844C123.872 51.1483 127.906 50.6205 131.559 47.9816C136.1 44.7036 137.198 39.3557 137.037 34.1031C137.687 34.2041 138.603 34.3452 139.88 34.5426C143.803 37.3318 146.848 41.2179 149.628 45.2876C149.985 46.8698 150.482 48.5839 151.052 50.3853C150.887 50.3417 150.72 50.3187 150.586 50.3187C149.459 50.3187 148.331 50.3187 147.204 50.3187C146.469 50.3187 145.473 50.5815 145.002 51.1965C144.52 51.8218 145.409 52.0559 145.871 52.0559C146.998 52.0559 148.126 52.0559 149.252 52.0559C149.939 52.0559 150.836 51.8138 151.337 51.2837C155.775 65.0359 163.597 83.3845 145.194 88.5143C141.993 89.407 138.1 89.4173 135.778 92.1331C132.212 96.3038 136.898 105.212 138.45 109.108C140.708 113.488 143.497 120.465 139.168 124.469C134.088 129.166 124.907 124.563 120.752 121.017C116.666 117.529 114.359 112.415 113.383 107.242C113.383 99.2031 113.383 91.1647 113.383 83.1263C113.383 82.5378 112.887 82.2773 112.333 82.2658C108.024 82.1763 102.028 81.5958 100.676 76.669ZM110.192 108.763C112.937 121.6 124.737 130.542 137.905 126.866C146.991 124.33 145.129 114.725 141.776 108.219C141.399 107.271 140.806 105.976 140.202 104.526C141.959 103.573 143.801 102.792 145.715 102.166C160.116 116.002 167.699 134.908 174.286 153.391C182.396 176.154 187.796 199.544 190.287 223.586C187.897 225.039 185.484 226.458 183.038 227.805C177.6 230.798 171.993 233.443 166.112 235.354C163.254 236.283 160.331 237.041 157.331 237.578C144.046 239.954 130.536 236.861 117.958 232.659C117.67 232.563 117.175 232.634 116.671 232.789C116.615 232.807 116.559 232.827 116.503 232.845C116.58 232.554 116.662 232.265 116.739 231.972C120.673 217.043 123.036 201.557 123.167 186.134C123.202 186.027 123.212 185.918 123.176 185.806C122.724 184.409 122.304 182.989 121.894 181.558C128.817 180.259 139.912 174.458 141.111 166.823C141.781 162.556 141.172 157.584 136.823 155.602C135.154 154.841 133.236 155.029 131.412 155.586C132.469 152.063 133.519 145.132 129.832 143.217C128.107 142.321 125.977 143.077 124.763 144.487C122.718 146.862 121.465 149.763 120.364 152.772C118.558 137.438 111.463 121.917 102.937 109.377C105.311 109.031 107.732 108.825 110.192 108.763ZM127.845 157.093C127.719 157.16 127.592 157.224 127.47 157.289C126.056 158.037 129.415 157.67 130.007 157.357C137.787 153.232 138.93 165.274 137.11 169.418C134.793 174.69 127.682 179.51 122.169 180.442C121.988 180.472 121.801 180.526 121.617 180.593C120.27 175.85 118.975 171.015 117.025 166.518C116.875 166.17 116.723 165.825 116.564 165.483C116.637 165.471 116.71 165.459 116.781 165.445C117.378 165.325 117.943 165.093 118.171 164.784C121.038 160.891 122.573 156.096 124.308 151.635C125.148 149.476 125.99 147.288 127.252 145.335C127.353 145.251 127.425 145.181 127.48 145.122C128.263 145.926 128.45 147.386 128.701 148.398C129.409 151.232 128.776 154.089 127.84 156.764C127.795 156.896 127.804 157.002 127.845 157.093ZM68.6241 222.637C54.5334 223.747 51.8922 210.418 52.4372 199.4C53.1749 184.512 57.5774 169.892 60.0224 155.238C60.0809 155.132 60.1256 155.022 60.1371 154.904C60.8152 147.591 63.4954 140.274 66.9123 133.843C73.8756 120.736 85.6498 112.899 99.3573 110.011C109.009 123.978 117.13 142.19 117.457 159.352C117.461 159.609 117.558 159.804 117.705 159.953C117.134 161.28 116.488 162.559 115.715 163.759C115.318 162.997 114.904 162.245 114.453 161.512C114.029 160.82 112.356 161.383 111.882 161.684C105.195 165.934 98.4715 170.128 91.7468 174.318C92.433 168.743 93.1604 163.16 94.1689 157.637C94.3995 156.369 91.0504 156.939 90.8462 158.06C89.7298 164.175 88.9542 170.359 88.2027 176.529C81.6168 180.63 75.031 184.734 68.4773 188.888C66.5761 190.092 69.4881 190.489 70.5276 189.831C77.2213 185.589 83.9482 181.398 90.6752 177.21C90.8588 177.123 91.0229 177.023 91.156 176.909C98.1101 172.58 105.06 168.243 111.981 163.859C115.864 170.739 117.387 178.982 119.771 186.44C112.95 191.287 107.261 197.963 101.109 203.585C92.2735 211.665 81.1154 221.654 68.6241 222.637ZM72.5504 267.414C70.1295 263.52 69.3481 258.548 69.5007 254.03C69.5959 251.209 73.2813 246.638 74.9461 243.502C78.6991 236.439 83.1359 228.243 83.4319 220.067C83.4434 219.754 83.347 219.512 83.1853 219.327C88.5228 216.4 93.469 212.564 97.8416 208.97C105.478 202.69 112.038 194.751 119.816 188.615C119.506 204.956 116.616 221.174 112.259 236.901C108.495 250.497 103.459 264.661 95.1339 276.227C86.3887 276.881 77.507 275.38 72.5504 267.414ZM37.7957 476.088C27.1907 470.717 17.4152 460.629 10.2086 451.732C5.22909 445.584 2.93208 439.853 3.95552 431.86C5.07879 423.08 11.6325 416.145 17.7009 410.047C20.3398 420.537 26.3898 429.626 34.9767 436.072C36.6931 449.106 40.4048 462.953 37.7957 476.088ZM188.78 313.199C183.61 345.276 166.276 372.175 143.731 394.925C143.229 394.985 142.747 395.218 142.475 395.651C142.421 395.737 142.384 395.825 142.333 395.914C138.026 396.527 133.64 396.059 129.401 395.116C127.491 394.693 107.07 385.836 110.647 382.895C121.963 373.586 131.178 361.907 138.288 349.144C152.422 323.778 156.718 293.631 153.456 265.026C153.455 265.017 153.455 265.006 153.453 264.998C153.453 264.988 153.452 264.979 153.451 264.971C153.442 264.889 153.38 264.826 153.282 264.781C152.629 264.409 150.4 264.854 150.136 265.662C141.017 293.514 129.092 320.234 114.287 345.453C111.625 349.988 108.879 354.48 106.029 358.916C91.8891 380.919 75.5484 401.393 58.0512 420.815C52.8973 426.534 47.6412 432.161 42.3129 437.71C40.9108 436.889 39.5661 436.009 38.2857 435.063C38.2593 434.885 38.0883 434.778 37.8416 434.726C27.8068 427.125 21.5767 415.794 19.8763 403.066C19.4196 399.651 19.2865 399.928 21.221 397.554C25.3503 392.484 29.4361 387.381 33.4794 382.241C58.0742 350.967 81.494 317.243 93.3394 278.875C94.0794 278.849 94.8218 278.807 95.5698 278.743C96.5325 278.658 97.1635 277.958 97.2657 277.311C106.29 265.332 111.469 250.642 115.555 236.363C115.738 235.719 115.901 235.068 116.079 234.423C127.814 238.279 139.801 240.752 152.115 239.776C152.777 239.724 153.44 239.657 154.106 239.585C154.514 239.54 154.923 239.504 155.332 239.452C167.929 237.83 179.567 232.012 190.377 225.558C190.523 254.709 193.445 284.268 188.78 313.199ZM262.88 54.8256C259.29 74.4362 250.074 92.5129 239.072 109.029C234.403 116.042 230.056 124.193 222.038 127.506C221.377 127.779 220.699 128.032 219.985 128.236C218.821 128.569 217.641 128.843 216.453 129.094C213.266 129.766 210.019 130.26 206.874 131.18C201.657 132.709 196.45 134.521 190.968 134.72C190.475 134.738 189.819 135.057 189.344 135.429C188.873 135.664 188.556 135.931 188.661 136.117C188.69 136.169 188.716 136.222 188.745 136.274C188.753 136.348 188.782 136.418 188.852 136.472C196.532 150.276 202.674 165.068 208.112 179.866C213.352 194.123 217.554 208.756 220.576 223.641C221.854 229.935 220.313 235.255 217.123 239.502C216.129 240.827 214.973 242.049 213.693 243.161C208.874 247.35 202.286 250.019 195.812 250.998C195.277 251.078 194.713 251.35 194.362 251.627C194.052 242.084 193.703 232.557 193.689 223.101C193.689 223.056 193.669 223.017 193.64 222.981C193.639 222.974 193.64 222.968 193.64 222.961C191.159 198.801 185.691 175.384 177.608 152.499C171.097 134.063 163.434 115.071 149.226 101.171C151.724 100.595 154.308 100.237 156.931 100.023C158.868 99.864 160.827 99.7871 162.791 99.7745C169.814 99.7321 176.889 100.474 183.188 101.018C194.539 101.998 204.63 103.749 215.634 99.8296C218.59 98.7775 219.731 96.4541 221.256 93.9299C224.294 88.9033 227.188 83.7872 230.122 78.6987C235.734 68.9668 240.856 58.1162 247.929 49.3332C248.125 49.0899 248.215 48.8731 248.239 48.678C249.541 49.3137 250.847 49.9264 252.169 50.4932C252.328 50.6756 252.601 50.7708 252.92 50.8018C255.693 51.9469 258.537 52.8785 261.559 53.3673C261.829 53.4109 262.264 53.3157 262.703 53.1516C262.875 53.0885 263.046 53.015 263.211 52.9347C263.11 53.5681 262.995 54.1968 262.88 54.8256ZM265.81 44.4603C265.576 44.676 265.434 44.9285 265.471 45.2084C265.475 45.2474 265.483 45.2853 265.489 45.3255C265.01 46.6323 264.492 47.9139 263.908 49.1416C263.806 49.262 263.739 49.394 263.721 49.534C263.63 50.2419 263.511 50.9441 263.406 51.6474C260.591 51.1689 257.938 50.2832 255.353 49.1989C255.451 41.6459 256.535 34.0676 258.036 26.6786C259.503 19.4514 261.854 7.66798 268.557 2.88234C271.733 10.8875 270.836 20.0308 269.523 28.3514C268.696 33.5948 267.615 39.2548 265.81 44.4603ZM349.421 134.682C343.972 134.385 338.763 132.666 333.564 131.112C328.422 129.574 322.923 129.16 317.898 127.347C308.997 124.134 303.981 113.414 298.981 106.11C286.364 87.6814 271.982 67.3467 268.851 44.6829C270.598 39.7206 271.661 34.4106 272.603 29.3462C274.213 20.6802 275.238 10.6488 271.971 2.20654C277.113 3.45717 278.086 10.8072 277.814 18.3235C276.775 23.5142 276.316 28.8712 276.242 34.149C276.222 35.5052 279.483 34.8099 279.564 33.7234C279.813 30.3547 280.754 24.7843 281.07 19.1404C287.173 25.1881 283.389 34.3751 282.739 42.5316C281.836 42.7095 280.991 43.3531 281.225 44.1953C285.599 59.9439 297.809 73.072 308.153 85.2662C312.358 90.2228 318.256 97.98 324.63 100.251C328.602 101.665 332.894 102.122 336.919 103.458C342.276 105.237 347.658 106.655 353.322 106.863C353.64 106.876 353.959 106.786 354.252 106.645C354.384 106.581 354.514 106.511 354.633 106.427C354.502 106.658 354.38 106.898 354.252 107.134C349.951 115.077 347.975 125.68 349.421 134.682ZM398.08 208.362C395.041 196.823 392.379 185.317 386.526 174.804C382.775 168.066 378.225 162.44 376.004 154.886C373.647 146.875 374.819 138.582 378.286 131.119C379.051 129.472 375.699 129.63 375.135 130.844C373.164 135.084 372.082 139.352 371.756 143.594C365.97 142.402 360.51 140.142 354.844 138.468C354.522 138.373 354.151 138.406 353.789 138.516C353.8 138.397 353.797 138.273 353.757 138.143C350.619 128.125 352.887 113.872 358.771 105.183C363.47 106.342 368.236 106.77 373.094 106.801C373.427 106.803 374.318 106.491 374.972 106.169C381.036 107.385 387.397 106.846 393.541 105.699C393.873 111.078 392.918 116.802 394.847 121.93C396.699 126.854 402.431 127.639 406.979 127.779C417.697 128.107 432.424 120.7 435.717 109.814C439.283 110.389 443.337 110.695 447.126 110.482C447.1 110.833 447.364 111.145 448.118 111.266C458.11 112.86 464.156 123.629 468.426 131.761C472.451 139.422 475.4 147.594 479.398 155.262C476.075 165.235 459.434 167.076 449.897 168.174C449.9 168.139 449.9 168.102 449.884 168.066C445.991 159.356 441.109 150.861 440.247 141.186C440.184 140.483 436.836 141.116 436.922 142.075C437.784 151.751 442.667 160.247 446.559 168.956C446.618 169.088 446.748 169.171 446.916 169.22C446.411 169.961 446.617 170.872 448.063 170.699C450.342 170.425 453.01 170.126 455.833 169.712C458.042 172.226 459.908 174.96 461.613 177.798C463.561 187.434 465.742 196.976 470.669 205.564C469.585 206.243 468.467 206.885 467.306 207.477C461.401 210.484 454.598 212.38 447.722 213.408C441.999 214.263 436.228 214.524 430.887 214.303C421.613 213.918 411.827 212.483 402.749 209.841C402.612 209.733 402.387 209.677 402.117 209.664C400.752 209.259 399.405 208.825 398.08 208.362ZM498.288 404.279C501.213 413.055 492.759 424.654 488.04 431.253C485.158 435.285 471.549 453.962 465.356 449.241C458.365 443.91 467.101 428.378 468.987 422.345C472.215 412.032 469.649 404.248 458.772 401.125C459.607 400.342 460.394 399.561 461.131 398.806C465.018 394.822 469.02 389.934 472.247 384.658C479.664 392.624 493.278 393.401 498.288 404.279ZM557.07 432.488C556.24 433.225 555.39 433.934 554.517 434.615C552.347 436.313 550.038 437.832 547.577 439.14C541.061 432.063 534.617 424.905 528.317 417.625C516.728 404.235 505.639 390.425 495.553 375.895C490.546 368.679 485.778 361.291 481.327 353.687C473.122 339.67 465.2 325.372 458.294 310.63C456.96 307.785 455.669 304.92 454.417 302.04C450.395 292.786 446.821 283.346 443.878 273.681C443.884 273.537 443.846 273.416 443.769 273.313C442.678 269.704 441.66 266.069 440.753 262.397C440.591 261.746 437.259 262.604 437.428 263.288C438.326 266.924 439.33 270.537 440.406 274.132C432.501 288.601 429.708 305.278 421.28 319.483C421.047 319.876 421.216 320.336 421.574 320.576C442.071 334.359 459.921 351.099 474.856 370.769C473.083 378.813 467.586 386.425 462.614 392.757C457.751 398.95 447.965 410.263 439.023 405.694C432.775 400.064 426.588 394.366 420.443 388.627C418.523 386.833 416.589 385.054 414.68 383.248C407.836 376.773 401.067 370.029 395.291 362.594C389.814 355.543 385.229 347.873 382.349 339.202C378.376 327.242 379.861 314.068 381.366 301.803C382.846 289.738 384.687 277.389 388.191 265.737C393.421 248.352 401.884 230.595 402.794 212.215C412.391 214.767 422.544 216.065 432.308 216.289C445.215 216.584 460.462 213.895 471.779 207.159C480.438 218.866 486.477 232.112 491.037 245.906C495.622 259.775 497.623 274.279 502.112 288.177C506.414 301.491 512.806 313.976 520.991 325.312C527.943 334.941 536.575 343.128 544.607 351.823C556.768 364.987 568.61 378.452 580.343 391.997C580.814 392.542 580.038 395.027 579.827 395.931C578.763 400.457 576.734 404.738 574.579 408.828C574.266 409.421 573.944 410.011 573.622 410.602C573.28 410.855 573.062 411.177 573.104 411.542C568.812 419.251 563.614 426.666 557.07 432.488ZM603.557 471.386C596.603 480.032 585.396 472.213 580.522 465.615C572.504 454.757 572.459 440.002 561.097 431.35C561.048 431.312 560.989 431.282 560.93 431.256C564.926 427.346 568.358 422.83 571.941 417.79C572.614 416.843 573.288 415.87 573.954 414.876C576.044 420.627 581.056 425.443 585.231 429.556C590.967 435.21 597.482 440.11 602.885 446.093C602.89 446.101 602.891 446.109 602.895 446.117C607.454 453.822 609.639 463.821 603.557 471.386ZM134.333 52.6617C135.794 51.7484 137.367 51.5384 139.055 51.5372C139.631 51.5361 140.398 51.9492 139.982 52.6123C139.541 53.3111 138.559 53.5451 137.794 53.5451C137.403 53.5451 137.234 53.5348 136.884 53.5864C136.8 53.5991 136.757 53.6036 136.728 53.6048C136.7 53.6174 136.659 53.6335 136.574 53.6633C136.759 53.5991 136.358 53.8159 136.428 53.7723C135.787 54.1739 134.78 54.4332 134.067 54.058C133.362 53.6828 133.85 52.9646 134.333 52.6617ZM138.08 59.5137C138.102 60.1688 138.44 60.9525 138.735 61.5617C139.095 62.3098 137.904 63.0028 137.376 63.1439C136.606 63.3505 135.774 63.2093 135.408 62.4532C134.998 61.5996 134.743 60.7173 134.711 59.7684C134.683 58.9503 135.916 58.4753 136.543 58.4271C137.299 58.3698 138.051 58.6842 138.08 59.5137ZM129.809 81.6279C132.905 83.5589 136.895 80.8569 138.712 78.4474C138.826 78.2948 138.734 78.2122 138.563 78.1629C138.865 77.6408 138.722 76.9685 138.041 76.8113C135.135 76.1412 132.226 74.9548 130.958 72.0429C130.739 71.5392 130.187 71.3372 129.592 71.3407C129.598 71.2936 129.601 71.2454 129.607 71.1984C129.661 70.8152 126.425 71.0837 126.282 72.0899C125.811 75.4241 126.759 79.7267 129.809 81.6279ZM135.625 78.8605C135.56 78.9201 135.485 78.9695 135.433 79.0383C135 79.612 134.578 80.0858 134.053 80.5631C133.414 81.0083 133.3 81.0863 133.703 80.7972C133.433 80.7398 133.179 80.64 132.943 80.4989C131.924 79.986 131.244 78.9557 130.711 77.9896C130.382 77.3907 130.131 76.7482 129.937 76.0873C131.498 77.4699 133.496 78.3178 135.625 78.8605ZM146.017 62.6816C145.263 61.3804 148.486 60.2893 149.092 61.3322C150.172 63.1944 151.848 65.2998 152.089 67.5016C152.355 69.942 150.222 71.0515 148.026 71.1295C145.739 71.2122 146.708 69.1767 148.433 69.1148C148.57 69.1102 148.66 69.1102 148.734 69.1113C148.781 68.8624 148.81 68.6467 148.764 68.3919C148.635 67.6748 148.391 66.9876 148.076 66.3313C147.472 65.0669 146.718 63.892 146.017 62.6816ZM148.596 57.7181C148.275 57.0515 149.613 56.4789 150.017 56.3699C150.644 56.2024 151.591 56.1416 151.921 56.8277C152.294 57.601 152.56 58.4214 152.936 59.1947C153.258 59.8625 151.918 60.4362 151.515 60.544C150.886 60.7115 149.943 60.7723 149.61 60.0874C149.235 59.3129 148.969 58.4937 148.596 57.7181ZM393.655 62.0884C392.98 63.2518 388.951 68.9909 392.044 69.1022C392.627 69.1228 393.397 69.5233 392.978 70.2036C392.553 70.8966 391.553 71.172 390.793 71.1433C384.766 70.9265 388.938 64.6814 390.535 61.9266C391.132 60.8963 394.492 60.6427 393.655 62.0884ZM399.666 52.47C400.105 51.7725 401.09 51.5361 401.854 51.5372C403.16 51.5384 404.449 51.6692 405.581 52.376C406.246 52.7925 405.834 53.4384 405.316 53.7712C404.719 54.1521 403.617 54.4699 402.954 54.0569C402.19 53.5796 401.473 53.5463 400.592 53.5451C400.017 53.5428 399.249 53.1332 399.666 52.47ZM400.988 61.8187C401.3 61.1693 401.543 60.4958 401.568 59.7684C401.619 58.2711 404.994 57.7766 404.937 59.5125C404.906 60.4327 404.562 61.3724 404.166 62.1951C403.802 62.9546 402.791 63.3069 402.001 63.2128C401.308 63.1302 400.627 62.5703 400.988 61.8187ZM401.365 78.7285C401.04 78.9178 400.844 79.0957 400.913 79.1886C403.258 82.2979 406.467 83.0254 409.845 80.9188C412.91 79.0073 413.835 74.5189 413.367 71.1972C413.303 70.7544 411.742 70.9345 410.78 71.3602C409.98 71.3475 409.043 71.6906 408.768 72.3217C407.567 75.0811 405.061 76.1665 402.283 76.8067C400.903 77.1256 400.732 78.187 401.365 78.7285ZM410.015 75.4207C409.836 76.5577 409.483 77.6672 408.96 78.732C408.758 79.1439 407.834 80.8787 407.297 80.7823C406.131 80.5723 405.155 79.4812 404.445 78.5633C406.535 77.9185 408.507 76.9249 410.015 75.4207ZM386.819 59.5688C387.192 58.7954 387.459 57.9751 387.833 57.2018C388.343 56.1485 391.681 55.8295 390.948 57.3452C390.574 58.1185 390.308 58.9389 389.934 59.7122C389.425 60.7654 386.086 61.0867 386.819 59.5688Z" fill="#424242"/>
</svg>
