<svg width="515" height="385" viewBox="0 0 515 385" fill="none" xmlns="http://www.w3.org/2000/svg">
<path d="M484.48 239.763C483.385 247.657 483.145 255.667 483.121 263.626C483.12 263.948 483.259 264.175 483.47 264.328C480.229 270.999 469.545 270.211 463.416 269.688C457.049 269.146 448.536 267.822 443.311 263.582C443.321 263.544 443.333 263.506 443.334 263.466C443.477 256.808 445.465 249.948 447.064 243.531C448.477 237.865 449.713 229.293 453.68 224.671C462.071 223.351 470.37 220.306 477.874 217.27C479.786 216.497 477.97 216.164 476.872 216.608C463.865 221.872 449.869 226.326 435.856 222.502C432.895 221.693 430.347 218.171 428.368 216.002C426.049 213.46 423.934 210.731 421.854 207.995C417.913 202.811 414.293 197.385 410.538 192.068C410.509 192.026 410.471 191.993 410.428 191.963C413.454 188.519 417.788 187.068 422.046 185.752C422.06 185.778 422.067 185.806 422.088 185.833C428.297 194.02 433.25 204.063 443.775 207.246C452.962 210.024 462.359 203.61 470.633 200.714C472.557 200.041 470.782 199.195 469.52 199.638C465.645 200.994 461.882 202.791 458.136 204.11C459.521 200.355 461.865 196.484 465.761 195.038C466.22 194.868 466.464 194.642 466.551 194.405C470.362 195.694 475.104 195.604 479.071 195.323C479.079 195.34 479.084 195.358 479.094 195.374C479.172 195.626 479.437 195.827 479.982 195.886C490.902 197.058 489.863 213.628 488.482 221.297C487.363 227.513 485.354 233.458 484.48 239.763ZM486.842 244.975L488.895 231.484C488.399 233.576 487.949 235.679 487.652 237.819C487.321 240.2 487.059 242.586 486.842 244.975ZM122.706 218.231L122.973 217.923L114.927 214.704C117.432 216.141 120.06 217.323 122.706 218.231ZM97.4729 243.424L97.7209 242.495C96.8049 244.662 96.0109 246.844 95.3219 249.052L97.4729 243.424ZM94.7399 200.784C94.5209 200.8 94.3059 200.82 94.0949 200.847C94.1589 200.852 94.2219 200.863 94.2859 200.864C94.4429 200.824 94.5869 200.814 94.7399 200.784ZM97.7669 203.024C97.0849 203.116 96.4369 202.925 96.3999 202.36C95.5959 202.095 94.7769 202.042 93.9489 202.309C93.1249 202.575 92.6369 202.413 92.5299 202.118C89.6869 201.739 87.0249 199.909 85.0389 197.47C84.7909 197.533 84.5399 197.577 84.2989 197.585C84.1359 197.591 83.8059 197.546 83.6019 197.431C75.6799 201.266 72.1149 211.29 68.9159 218.889C65.2269 227.656 59.1729 234.71 53.9339 242.538C53.0279 243.892 49.6619 247.584 50.2709 249.344C50.9709 251.365 52.2249 253.366 53.4839 255.063C56.0039 258.461 58.8989 262.002 62.4189 264.418C69.0309 268.954 80.7769 274.689 88.1989 269.16C88.2449 269.126 88.3049 269.094 88.3719 269.063C90.1419 256.821 92.4189 245.89 98.8399 235.066C98.8819 234.996 98.9489 234.932 99.0279 234.872C90.9759 231.069 81.4069 224.364 82.0739 214.466C82.1499 213.335 85.0809 212.822 84.9899 214.171C84.3389 223.829 94.4139 230.215 102.09 233.707C102.183 233.749 102.253 233.796 102.309 233.846C103.878 233.38 105.507 233.232 107.164 233.335C109.32 232.345 111.428 230.69 113.318 228.774L114.329 227.7C116.813 224.943 118.821 221.822 119.878 219.363C114.836 217.543 110.289 214.727 106.047 211.442C103.789 209.692 100.919 204.99 97.7669 203.024ZM101.142 235.553L101.246 235.531C101.22 235.522 101.191 235.518 101.166 235.51C101.158 235.523 101.15 235.538 101.142 235.553Z" fill="#EB144C"/>
<path d="M168.409 281.104C162.039 284.731 157.291 290.757 155.371 297.819C153.021 306.462 156.72 315.013 162.352 321.468C173.039 332.518 192.844 332.365 204.46 322.834C214.968 314.213 215.479 297.383 207.621 286.856C198.305 274.377 181.243 273.794 168.409 281.104ZM206.497 317.565C198.168 331.811 175.769 331.496 165.07 320.432C155.609 309.59 155.119 295.111 165.777 284.887C176.708 274.403 194.907 275.444 204.307 287.092C211.148 295.57 211.943 308.25 206.497 317.565ZM106.163 172.705C106.82 172.528 107.552 172.628 107.87 173.278C108.151 173.853 108.407 174.611 108.909 174.896C109.546 175.257 109.188 176.023 108.742 176.35C108.156 176.78 107.311 176.902 106.667 176.537C105.747 176.016 105.41 174.949 104.973 174.054C104.658 173.412 105.721 172.823 106.163 172.705ZM98.201 171.444C99.157 169.238 101.44 167.871 103.813 167.809C104.39 167.794 105.244 168.025 105.157 168.777C105.075 169.483 104.204 169.941 103.563 169.958C102.332 169.989 101.461 170.67 100.976 171.79C100.457 172.987 97.534 172.982 98.201 171.444ZM105.729 184.076C106.93 184.959 108.201 185.649 109.647 186.032C110.316 186.21 109.596 186.788 109.33 186.927C108.739 187.236 107.955 187.436 107.295 187.261C105.729 186.846 104.314 186.074 103.014 185.119C102.534 184.765 103.657 184.24 103.844 184.169C104.342 183.978 105.24 183.718 105.729 184.076ZM92.302 184.312H92.299L92.3 184.311L92.302 184.312ZM92.302 184.312C92.302 184.312 92.305 184.314 92.307 184.314C92.305 184.316 92.298 184.32 92.297 184.322C92.299 184.317 92.305 184.314 92.302 184.312ZM462.236 164.737C462.488 164.358 462.716 164.018 462.75 163.552C462.793 162.953 463.97 162.653 464.404 162.595C464.845 162.536 465.687 162.537 465.642 163.169C465.6 163.76 465.244 164.278 464.923 164.76C464.552 165.319 463.629 165.543 463.007 165.537C462.553 165.534 461.86 165.304 462.236 164.737ZM474.36 167.788C473.936 168.638 473.44 169.344 472.691 169.939C472.175 170.349 471.208 170.504 470.625 170.156C469.992 169.777 470.404 169.152 470.824 168.818C471.17 168.543 471.409 168 471.622 167.575C471.936 166.944 472.876 166.679 473.519 166.729C474.092 166.774 474.675 167.161 474.36 167.788ZM317.386 82.052C317.556 81.887 317.662 81.697 317.663 81.484C317.69 72.742 320.385 59.948 310.653 55.811C303.969 52.969 295.851 53.285 288.735 53.29C280.949 53.284 272.681 53.203 265.391 56.303C255.893 60.34 258.664 73.94 258.691 82.26C258.691 82.429 258.798 82.545 258.969 82.616C258.798 82.781 258.692 82.972 258.691 83.185C258.664 91.927 255.968 104.719 265.701 108.857C272.385 111.699 280.503 111.384 287.619 111.378C295.405 111.384 303.674 111.465 310.963 108.365C320.459 104.328 317.69 90.727 317.663 82.407C317.662 82.238 317.556 82.122 317.386 82.052ZM315.042 82.613C314.871 82.779 314.764 82.971 314.765 83.184C314.783 88.523 314.877 93.85 314.407 99.174C313.97 104.113 312.184 106.592 307.382 108.102C301.466 109.962 294.897 109.76 288.762 109.754H288.76C288.753 109.754 288.745 109.754 288.739 109.754C288.736 109.754 288.733 109.754 288.73 109.754C281.822 109.76 274.585 109.865 268.011 107.466C258.802 104.104 261.566 90.072 261.591 82.406C261.591 82.238 261.486 82.123 261.315 82.052C261.486 81.886 261.591 81.695 261.591 81.482C261.573 76.142 261.478 70.815 261.948 65.491C262.385 60.552 264.172 58.073 268.974 56.563C274.889 54.703 281.46 54.905 287.594 54.911H287.596C287.603 54.911 287.61 54.911 287.617 54.911C287.62 54.911 287.623 54.911 287.626 54.911H287.627C294.534 54.904 301.771 54.8 308.344 57.199C317.552 60.561 314.789 74.593 314.765 82.258C314.764 82.428 314.871 82.543 315.042 82.613ZM314.652 153.106C314.822 152.941 314.927 152.75 314.928 152.538C314.956 143.796 317.652 131.003 307.919 126.865C301.235 124.024 293.116 124.339 286 124.344C278.214 124.338 269.945 124.257 262.657 127.356C253.159 131.394 255.93 144.994 255.957 153.315C255.957 153.483 256.063 153.599 256.233 153.67C256.063 153.834 255.958 154.024 255.957 154.236C255.929 162.978 253.233 175.773 262.965 179.911C269.65 182.752 277.768 182.437 284.884 182.432C292.67 182.438 300.939 182.519 308.228 179.42C317.726 175.382 314.954 161.781 314.927 153.461C314.928 153.293 314.822 153.177 314.652 153.106ZM312.305 153.669C312.135 153.834 312.03 154.025 312.031 154.237C312.049 159.577 312.145 164.905 311.675 170.229C311.238 175.169 309.452 177.647 304.649 179.157C298.734 181.017 292.164 180.815 286.029 180.809H286.027C286.019 180.809 286.012 180.809 286.006 180.809C286.002 180.809 285.999 180.809 285.996 180.809C279.088 180.815 271.851 180.92 265.278 178.521C256.069 175.16 258.834 161.126 258.858 153.461C258.859 153.293 258.753 153.177 258.583 153.107C258.753 152.942 258.859 152.751 258.858 152.538C258.84 147.199 258.745 141.871 259.215 136.547C259.652 131.608 261.438 129.13 266.241 127.62C272.155 125.76 278.725 125.962 284.86 125.968H284.862C284.87 125.968 284.877 125.968 284.883 125.968C284.887 125.968 284.89 125.968 284.893 125.968C291.801 125.962 299.038 125.857 305.612 128.256C314.821 131.618 312.056 145.65 312.031 153.316C312.029 153.483 312.135 153.599 312.305 153.669ZM304.093 148.849C304.122 148.785 304.142 148.718 304.142 148.651C304.167 143.812 305.312 138.082 299.897 136.183C295.452 134.624 290.304 134.842 285.662 134.845C280.808 134.842 275.524 134.666 270.882 136.294C265.037 138.343 266.023 143.894 266.051 149.224C266.052 149.313 266.087 149.383 266.14 149.444C266.087 149.513 266.051 149.586 266.051 149.664C266.062 153.46 265.617 158.074 268.146 161.223C270 163.532 273.871 163.974 276.569 164.098C278.076 164.167 279.574 164.188 281.082 164.121C281.102 164.17 281.145 164.229 281.261 164.319C281.814 164.75 282.364 165.184 282.913 165.618C285.916 167.99 288.987 170.36 291.695 173.07C291.894 173.269 292.427 173.216 292.973 173.058C293.79 172.949 294.716 172.458 294.673 171.787C294.485 168.877 293.437 166.067 293.06 163.166C296.441 162.924 300.232 162.646 302.659 160.021C305.198 157.273 304.223 152.492 304.155 149.135C304.151 149.026 304.127 148.934 304.093 148.849ZM301.271 149.188C301.247 149.261 301.231 149.336 301.233 149.416C301.289 152.135 301.628 154.842 301.065 157.53C300.294 161.214 295.903 161.076 292.929 161.293C292.899 161.295 292.87 161.303 292.841 161.306C292.389 160.648 289.997 161.234 290.023 162.312C290.079 164.661 290.747 166.927 291.248 169.209C289.664 167.857 288.03 166.561 286.41 165.265C285.18 164.281 284.171 162.962 282.547 163.036C278.543 163.219 273.295 163.25 270.549 159.832C268.362 157.109 268.957 152.087 268.948 148.889C268.948 148.847 268.908 148.816 268.847 148.791C268.909 148.684 268.949 148.569 268.948 148.447C268.933 145.766 268.89 143.109 269.25 140.447C269.609 137.79 271.938 137.389 274.231 136.996C277.614 136.417 281.098 136.467 284.519 136.469C288.247 136.467 291.978 136.49 295.663 137.12C297.373 137.413 299.207 137.896 300.398 139.23C302.079 141.113 301.257 146.813 301.245 149.02C301.245 149.082 301.257 149.136 301.271 149.188ZM314.651 226.052C314.822 225.887 314.927 225.696 314.928 225.484C314.956 216.742 317.652 203.948 307.919 199.81C301.235 196.969 293.117 197.285 286 197.289C278.214 197.283 269.945 197.202 262.657 200.301C253.159 204.339 255.93 217.939 255.957 226.259C255.957 226.428 256.064 226.544 256.234 226.614C256.064 226.779 255.958 226.97 255.957 227.182C255.929 235.924 253.233 248.719 262.965 252.856C269.65 255.698 277.767 255.381 284.884 255.377C292.67 255.383 300.939 255.465 308.228 252.366C317.726 248.328 314.954 234.727 314.927 226.407C314.928 226.238 314.822 226.122 314.651 226.052ZM312.307 226.613C312.136 226.778 312.03 226.969 312.031 227.182C312.049 232.522 312.145 237.85 311.675 243.174C311.238 248.114 309.452 250.592 304.649 252.102C298.734 253.962 292.164 253.759 286.029 253.753H286.027C286.02 253.753 286.012 253.753 286.006 253.753C286.002 253.753 285.999 253.753 285.996 253.753C279.088 253.76 271.851 253.865 265.278 251.466C256.069 248.105 258.834 234.071 258.858 226.406C258.859 226.238 258.753 226.122 258.582 226.052C258.753 225.887 258.859 225.696 258.858 225.483C258.84 220.143 258.745 214.815 259.215 209.491C259.652 204.552 261.438 202.074 266.241 200.563C272.155 198.704 278.725 198.906 284.86 198.912H284.862C284.87 198.912 284.877 198.912 284.883 198.912C284.887 198.912 284.89 198.912 284.893 198.912C291.801 198.905 299.038 198.801 305.612 201.2C314.821 204.561 312.056 218.594 312.031 226.259C312.029 226.427 312.136 226.543 312.307 226.613ZM393.905 226.052C394.076 225.887 394.181 225.696 394.182 225.484C394.21 216.742 396.906 203.948 387.173 199.81C380.489 196.969 372.371 197.285 365.254 197.289C357.468 197.283 349.2 197.202 341.911 200.301C332.413 204.339 335.184 217.939 335.211 226.259C335.212 226.428 335.317 226.544 335.488 226.614C335.317 226.779 335.212 226.97 335.211 227.182C335.184 235.924 332.487 248.719 342.22 252.856C348.905 255.698 357.022 255.381 364.139 255.377C371.925 255.383 380.194 255.465 387.483 252.366C396.981 248.328 394.209 234.727 394.182 226.407C394.182 226.238 394.076 226.122 393.905 226.052ZM391.561 226.613C391.39 226.778 391.284 226.969 391.285 227.182C391.303 232.522 391.399 237.85 390.929 243.174C390.492 248.114 388.706 250.592 383.903 252.102C377.988 253.962 371.418 253.759 365.283 253.753H365.281C365.274 253.753 365.266 253.753 365.26 253.753C365.256 253.753 365.253 253.753 365.25 253.753C358.342 253.76 351.105 253.865 344.532 251.466C335.323 248.105 338.088 234.071 338.112 226.406C338.113 226.238 338.007 226.122 337.836 226.052C338.007 225.887 338.113 225.696 338.112 225.483C338.094 220.143 337.999 214.815 338.469 209.491C338.906 204.552 340.692 202.074 345.495 200.563C351.41 198.704 357.979 198.906 364.114 198.912H364.116C364.124 198.912 364.131 198.912 364.137 198.912C364.141 198.912 364.144 198.912 364.147 198.912C371.055 198.905 378.292 198.801 384.866 201.2C394.075 204.561 391.31 218.594 391.285 226.259C391.283 226.427 391.39 226.543 391.561 226.613ZM314.651 295.741C314.822 295.576 314.927 295.385 314.928 295.173C314.956 286.431 317.653 273.636 307.919 269.499C301.234 266.658 293.117 266.974 286 266.978C278.214 266.972 269.945 266.891 262.657 269.99C253.159 274.027 255.93 287.628 255.957 295.948C255.957 296.117 256.064 296.233 256.234 296.303C256.064 296.468 255.958 296.659 255.957 296.871C255.929 305.613 253.234 318.407 262.965 322.545C269.65 325.386 277.767 325.07 284.884 325.066C292.67 325.072 300.939 325.153 308.228 322.054C317.726 318.016 314.954 304.416 314.927 296.096C314.928 295.928 314.822 295.812 314.651 295.741ZM312.307 296.303C312.136 296.468 312.03 296.659 312.031 296.872C312.049 302.212 312.145 307.539 311.675 312.863C311.238 317.803 309.452 320.281 304.649 321.792C298.734 323.651 292.164 323.449 286.029 323.443H286.027C286.019 323.443 286.012 323.443 286.006 323.443C286.002 323.443 285.999 323.443 285.996 323.443C279.088 323.45 271.851 323.554 265.278 321.155C256.069 317.794 258.834 303.761 258.858 296.096C258.859 295.928 258.753 295.812 258.582 295.742C258.753 295.577 258.859 295.386 258.858 295.173C258.84 289.833 258.745 284.505 259.215 279.181C259.652 274.241 261.438 271.764 266.241 270.253C272.155 268.394 278.725 268.596 284.86 268.602H284.862C284.87 268.602 284.877 268.602 284.883 268.602C284.887 268.602 284.89 268.602 284.893 268.602C291.801 268.595 299.038 268.491 305.612 270.889C314.822 274.251 312.056 288.284 312.031 295.949C312.029 296.116 312.136 296.232 312.307 296.303ZM393.905 295.741C394.076 295.576 394.181 295.385 394.182 295.173C394.21 286.431 396.907 273.636 387.173 269.499C380.488 266.658 372.371 266.974 365.254 266.978C357.468 266.972 349.2 266.891 341.911 269.99C332.413 274.027 335.184 287.628 335.211 295.948C335.212 296.117 335.317 296.233 335.488 296.303C335.317 296.468 335.212 296.659 335.211 296.871C335.184 305.613 332.488 318.407 342.22 322.545C348.905 325.386 357.022 325.07 364.139 325.066C371.925 325.072 380.194 325.153 387.483 322.054C396.981 318.016 394.209 304.416 394.182 296.096C394.182 295.928 394.076 295.812 393.905 295.741ZM391.561 296.303C391.39 296.468 391.284 296.659 391.285 296.872C391.303 302.212 391.399 307.539 390.929 312.863C390.492 317.803 388.706 320.281 383.903 321.792C377.988 323.651 371.418 323.449 365.283 323.443H365.281C365.273 323.443 365.266 323.443 365.26 323.443C365.256 323.443 365.253 323.443 365.25 323.443C358.342 323.45 351.105 323.554 344.532 321.155C335.323 317.794 338.088 303.761 338.112 296.096C338.113 295.928 338.007 295.812 337.836 295.742C338.007 295.577 338.113 295.386 338.112 295.173C338.094 289.833 337.999 284.505 338.469 279.181C338.906 274.241 340.692 271.764 345.495 270.253C351.41 268.394 357.979 268.596 364.114 268.602H364.116C364.124 268.602 364.131 268.602 364.137 268.602C364.141 268.602 364.144 268.602 364.147 268.602C371.055 268.595 378.292 268.491 384.866 270.889C394.076 274.251 391.31 288.284 391.285 295.949C391.283 296.116 391.39 296.232 391.561 296.303ZM336.856 81.249C336.685 81.414 336.58 81.604 336.579 81.817C336.552 90.559 333.856 103.353 343.588 107.491C350.273 110.332 358.39 110.016 365.507 110.012C373.293 110.018 381.562 110.099 388.851 107C398.349 102.962 395.577 89.361 395.55 81.04C395.549 80.871 395.444 80.755 395.273 80.685C395.444 80.52 395.549 80.33 395.55 80.117C395.577 71.376 398.274 58.582 388.541 54.445C381.856 51.603 373.739 51.92 366.622 51.924C358.836 51.918 350.568 51.836 343.279 54.935C333.781 58.973 336.552 72.573 336.579 80.894C336.58 81.063 336.686 81.179 336.856 81.249ZM339.201 80.687C339.372 80.521 339.478 80.33 339.477 80.117C339.459 74.778 339.364 69.451 339.834 64.126C340.271 59.187 342.057 56.709 346.86 55.199C352.775 53.339 359.344 53.542 365.479 53.548H365.481C365.488 53.548 365.496 53.548 365.502 53.548C365.506 53.548 365.509 53.548 365.512 53.548C372.42 53.541 379.657 53.436 386.231 55.835C395.44 59.196 392.674 73.229 392.65 80.895C392.649 81.063 392.755 81.178 392.926 81.249C392.755 81.415 392.649 81.606 392.65 81.819C392.668 87.158 392.763 92.486 392.294 97.81C391.857 102.75 390.071 105.228 385.268 106.739C379.353 108.598 372.783 108.396 366.648 108.39H366.646C366.638 108.39 366.631 108.39 366.625 108.39C366.621 108.39 366.618 108.39 366.615 108.39C359.707 108.397 352.47 108.501 345.897 106.102C336.688 102.741 339.453 88.707 339.477 81.041C339.479 80.872 339.372 80.757 339.201 80.687ZM513.024 368.352C513.023 368.349 513.024 368.346 513.023 368.343C511.771 364.593 510.331 360.351 506.065 359.741C507.246 358.395 508.224 356.792 508.903 354.805C508.998 354.528 508.271 354.486 507.525 354.613C501.033 341.847 487.096 335.388 480.993 322.424C472.74 304.895 485.365 284.741 485.697 266.757C485.703 266.402 485.468 266.2 485.134 266.111C485.572 265.541 485.972 264.933 486.283 264.247C486.463 263.852 486.327 263.605 486.043 263.474C486.046 263.448 486.055 263.423 486.055 263.396C486.074 257.239 486.288 251.096 486.842 244.975C487.059 242.586 487.321 240.201 487.652 237.819C487.949 235.679 488.399 233.576 488.895 231.484C490.05 226.62 491.485 221.825 492.02 216.839C492.911 208.54 491.794 195.71 481.873 193.939C481.735 192.853 481.575 191.707 481.512 190.56C490.96 188.045 498.697 179.997 499.431 169.875C499.891 163.54 499.141 151.11 490.473 151.486C490.285 138.199 458.744 143.791 455.805 154.014C455.649 154.558 456.237 154.746 456.925 154.684C456.892 154.901 457.042 155.096 457.497 155.209C459.273 155.652 460.984 156.125 462.663 156.568C462.073 157.35 461.491 158.16 460.93 158.998C457.295 160.785 453.494 164.634 456.502 167.981C455.796 170.344 455.457 172.782 455.691 175.236C455.956 178.003 458.413 179.978 460.302 181.715C463.099 184.287 465.844 188.704 465.717 192.652C465.713 192.787 465.753 192.896 465.823 192.983C465.684 193.054 465.561 193.131 465.455 193.211C465.145 193.154 464.805 193.166 464.469 193.291C459.785 195.029 456.766 199.704 455.188 204.236C455.074 204.563 455.11 204.82 455.235 205.015C450.057 206.411 444.868 206.437 439.417 202.648C438.373 201.922 437.405 201.105 436.486 200.231C436.89 200.066 437.188 199.844 437.186 199.582C437.123 192.819 436.522 186.084 436.456 179.324C437.967 178.851 439.426 178.218 440.799 177.353C443.445 175.688 444.38 173.076 444.851 170.134C445.802 164.186 445.44 157.996 445.421 151.997C445.421 151.828 445.315 151.712 445.144 151.642C445.314 151.477 445.42 151.286 445.421 151.074C445.448 142.332 448.144 129.538 438.412 125.401C437.801 125.141 437.174 124.916 436.54 124.707C436.536 103.395 436.878 82.084 436.475 60.776C436.369 55.192 436.191 49.611 435.949 44.032C436.307 43.827 436.57 43.525 436.587 43.147C436.934 35.028 437.092 25.543 433.691 17.822C432.633 14.09 430.684 10.773 426.833 8.10601C425.193 6.97001 423.354 6.34101 421.462 5.86501C415.899 3.51401 409.409 2.79401 403.352 2.53701C402.853 2.46901 402.355 2.39601 401.856 2.33101C390.44 0.841013 378.888 0.553013 367.388 0.650013C351.951 0.783013 336.544 1.80101 321.121 2.29701C313.998 2.32701 306.875 2.35201 299.755 2.35201C299.625 2.35201 299.505 2.36901 299.39 2.39301C288.026 2.36701 276.664 2.41901 265.312 2.61601C263.266 2.63601 261.222 2.67101 259.179 2.72501C258.932 2.73101 258.684 2.73301 258.437 2.73901C249.943 2.93501 240.224 3.56901 232.604 7.90801C232.135 8.16701 231.672 8.43801 231.216 8.72401C229.473 9.81601 228.027 11.083 226.81 12.478C226.705 12.595 226.598 12.711 226.496 12.83C226.409 12.934 226.33 13.042 226.246 13.147C219.559 21.248 219.801 33.803 220.221 43.646C220.23 43.873 220.483 43.984 220.832 44.009C220.813 45.32 220.795 46.632 220.78 47.944C217.997 47.921 215.215 47.898 212.431 47.874C193.408 47.455 174.294 47.988 155.285 48.021C153.628 48.024 151.807 47.944 149.931 47.906C149.793 47.76 149.546 47.658 149.146 47.644C143.839 47.456 139.427 48.14 136.332 50.482C135.54 51.012 134.806 51.64 134.156 52.399C130.84 56.275 130.973 62.973 131.245 68.692C131.245 68.879 131.247 69.066 131.248 69.254C130.993 69.628 130.97 70.085 131.253 70.398C131.293 73.881 131.422 77.37 131.422 80.794C131.422 82.565 131.422 84.335 131.422 86.106C131.382 93.862 131.293 101.625 131.335 109.381C131.248 113.232 131.203 117.117 131.533 120.919C131.62 122.586 131.811 124.283 132.25 125.884C132.612 127.373 133.172 128.573 133.895 129.533C134.004 129.69 134.124 129.843 134.244 129.995C134.255 130.008 134.264 130.023 134.276 130.036C134.646 130.502 135.061 130.943 135.536 131.346C138.791 134.105 144.1 133.891 148.059 133.752C148.266 133.745 148.53 133.666 148.796 133.552C164.831 133.824 181.01 134.335 197.074 133.967C204.19 133.992 211.306 133.879 218.423 133.819C218.927 133.814 219.631 133.451 220.042 133.068C219.857 165.409 219.83 197.753 220.161 230.081C220.172 231.152 220.174 232.226 220.221 233.296C220.222 233.33 220.236 233.359 220.248 233.388C220.25 237.767 220.249 242.147 220.252 246.526C215.923 246.797 211.534 248.638 207.297 249.746C204.564 245.777 202.512 240.693 198.966 237.432C195.717 234.442 189.612 235.204 185.651 235.307C181.516 235.414 176.652 235.337 172.673 237.015C174.89 233.272 179.202 225.424 175.499 225.628C170.887 225.882 166.414 231.367 162.851 233.808C156.536 238.135 144.933 232.477 138.215 230.636C132.054 228.948 126.245 226.246 121.444 221.99C121.378 221.931 121.289 221.894 121.189 221.867C121.659 221.079 122.077 220.292 122.439 219.514C123.268 219.188 123.962 218.663 123.304 218.449C123.105 218.384 122.908 218.302 122.709 218.233C120.063 217.325 117.435 216.142 114.93 214.707C110.89 212.393 107.18 209.442 104.309 205.949C102.761 204.065 101.248 202.399 99.47 201.447C99.738 200.344 100.185 199.317 100.777 198.358C101.007 198.405 101.276 198.398 101.585 198.309C106.383 196.925 112.294 196.952 116.554 194.126C121.312 190.97 119.941 185.272 118.215 180.708C118.994 179.129 119.756 177.459 120.964 176.166C121.242 175.869 121.308 175.41 121.07 175.071C120.316 173.998 119.373 173.004 117.98 172.944C116.829 172.894 115.883 173.541 114.774 173.599C111.542 169.676 107.877 166.345 105.336 161.925C108.634 162.381 112.054 161.437 113.444 158.068C114.567 155.346 111.83 151.624 109.724 150.231C106.298 147.966 102.367 146.827 98.318 146.326C95.917 146.029 92.819 146.001 90.563 147.074C87.094 148.723 86.221 151.962 84.576 155.183C80.542 163.083 67.763 166.004 73.262 176.269C69.056 179.828 72.051 184.275 75.411 187.307C79.122 190.658 83.265 191.699 87.929 191.934C87.015 193.194 86.031 194.354 84.985 195.477C84.682 195.602 84.424 195.752 84.267 195.9C83.965 195.895 83.634 195.946 83.334 196.07C74.535 199.707 70.544 208.869 66.998 217.087C64.279 223.389 61.032 229.062 57.007 234.621C53.908 238.9 48.671 244.044 47.336 249.248C47.153 249.962 47.319 250.82 47.69 251.744C46.999 251.869 46.302 252.237 46.212 252.742C43.579 267.498 40.293 282.239 33.9 295.877C27.578 309.367 17.808 320.596 6.52098 330.177C5.21498 331.285 8.09298 331.42 8.87298 330.759C20.045 321.276 29.477 310.311 36.063 297.16C42.823 283.663 46.171 268.695 48.848 253.923C50.711 256.803 53.697 259.799 54.891 261.101C58.324 264.844 62.348 267.428 66.918 269.559C73.856 272.791 82.565 274.431 89.336 270.246C89.651 270.209 89.988 270.13 90.286 270.025C97.941 282.369 108.332 294.154 108.732 309.335C109.178 326.259 98.169 341.395 93.669 357.248C92.568 356.924 90.451 358.146 91.577 358.898C87.23 359.284 82.664 359.133 78.67 357.602C78.489 357.436 78.202 357.318 77.876 357.267C76.46 356.645 75.128 355.836 73.916 354.797C81.523 341.916 90.194 325.463 89.501 310.118C89.282 305.274 86.895 301.536 83.59 298.18C78.962 293.481 75.067 289.264 72.687 282.937C72.519 282.489 72.085 282.284 71.602 282.252C71.619 282.198 71.638 282.146 71.654 282.091C71.92 281.219 69.04 281.629 68.771 282.509C61.205 307.314 40.951 325.84 22.96 343.629C17.601 341.575 12.731 336.64 11.196 331.105C10.888 329.994 7.99198 330.777 8.29898 331.88C8.63298 333.088 9.11198 334.258 9.70998 335.376C4.71498 337.577 0.403982 340.99 0.995982 346.996C1.70098 354.14 9.85398 360.081 15.68 362.888C17.784 363.902 22.903 365.673 24.284 362.361C26.138 357.913 23.044 350.973 21.688 346.338C22.349 346.283 23.11 346.089 23.38 345.818C23.609 345.589 23.84 345.361 24.069 345.132C24.205 345.028 24.317 344.919 24.396 344.808C41.964 327.356 61.967 309.312 70.515 285.49C72.521 290.092 75.317 293.939 78.955 297.53C82.562 301.09 85.617 304.269 86.466 309.476C87.758 317.398 84.141 326.386 81.358 333.602C78.715 340.456 75.404 347.072 71.719 353.426C70.785 353.572 69.554 354.187 69.872 354.532C70.146 354.831 70.437 355.1 70.727 355.371C70.744 355.688 71.025 355.889 71.413 355.974C72.618 356.972 73.934 357.763 75.331 358.373C72.243 360.794 69.985 363.625 68.748 367.491C68.623 367.883 69.064 368.181 69.361 368.287C81.414 372.55 97.822 376.043 109.074 367.961C109.566 367.607 109.831 366.975 109.256 366.562C104.993 363.497 100.339 361.047 95.787 358.443C96.024 358.3 96.2 358.13 96.251 357.936C100.516 341.765 110.588 327.391 111.59 310.371C112.556 293.956 99.992 280.732 92.156 267.564C92.024 267.341 91.755 267.236 91.433 267.212C92.379 260.87 93.505 254.874 95.322 249.052C96.011 246.844 96.806 244.662 97.721 242.495C98.705 240.167 99.83 237.856 101.142 235.553C101.151 235.538 101.158 235.524 101.166 235.509C101.191 235.518 101.22 235.522 101.246 235.53C101.631 235.648 102.118 235.665 102.573 235.488C102.678 235.447 102.789 235.422 102.896 235.386C103.561 235.316 104.224 235.199 104.884 235.041C108.551 234.898 112.926 236.94 115.893 238.141C119.475 239.59 122.947 241.302 126.476 242.872C136.325 247.255 147.267 243.835 157.508 246.185C157.202 246.443 157.169 246.685 157.774 246.771C160.529 247.161 162.973 246.625 165.107 245.461C164.199 247.3 163.379 249.157 162.53 250.721C158.142 249.711 153.566 248.042 149.156 248.212C145.04 248.371 141.853 251.354 139.074 254.068C135.476 257.584 129.881 262.469 129.446 267.867C129.308 269.576 130.02 271.278 130.623 272.834C131.911 276.152 133.144 279.421 134.062 282.867C133.711 282.938 133.405 283.035 133.261 283.138C129.139 286.073 124.257 288.07 120.376 291.302C117.11 294.022 117.354 299.142 117.368 302.951C117.386 307.932 117.19 314.449 120.729 318.432C123.797 321.885 129.706 323.554 133.822 325.777C133.818 325.793 133.809 325.807 133.806 325.824C132.955 330.851 130.58 335.982 130.393 341.071C130.213 345.957 135.393 350.007 138.537 352.96C141.919 356.137 145.832 359.654 150.675 359.967C155.218 360.26 160.208 357.819 164.664 356.367C167.16 360.283 169.2 366.475 173.082 369.243C177.442 372.351 184.159 371.681 189.165 371.585C193.028 371.511 198.234 371.525 201.299 368.679C204.912 365.325 206.748 359.766 209.326 355.533C213.472 356.655 217.772 358.381 222.024 358.407C222.5 360.175 223.12 361.79 223.886 363.248C226.409 368.711 232.068 372.802 237.744 374.716C239.16 375.193 240.617 375.483 242.092 375.674C252.106 378.059 263.791 377.565 272.689 377.68C284.989 377.839 297.28 377.433 309.569 377.028C331.357 377.849 353.153 378.385 374.958 377.966C387.435 377.727 399.899 377.117 412.339 376.132C418.959 375.607 426.783 372.589 430.919 367.169C432.898 364.578 433.777 361.971 434.293 359.103C437.038 351.738 436.89 343.003 436.567 335.455C436.562 335.34 436.472 335.262 436.335 335.211C436.433 333.423 436.501 331.634 436.576 329.846C437.098 329.735 437.592 329.504 437.781 329.181C443.752 319.016 447.913 307.924 453.36 297.493C454.374 309.972 453.97 322.3 459.366 334.268C465.367 347.58 478.247 356.569 488.35 366.546C482.447 370.317 479.283 377.075 482.959 383.342C482.308 384.097 483.649 385.077 484.884 384.602C484.929 384.584 484.973 384.565 485.018 384.548C485.312 384.476 485.599 384.361 485.835 384.218C495.442 380.424 504.641 375.4 513.579 370.254C514.994 369.438 514.162 368.261 513.024 368.352ZM109.973 159.59C110.114 159.432 110.244 159.266 110.372 159.099C110.083 159.888 109.548 160.311 108.893 160.495C109.275 160.262 109.64 159.965 109.973 159.59ZM21.59 362.361C21.212 363.91 16.635 360.865 15.9 360.431C7.06299 355.211 -2.55301 342.671 10.344 336.477C12.749 340.33 16.567 343.439 20.69 345.107C19.779 345.101 18.395 345.647 18.543 346.227C19.512 350.033 20.654 353.8 21.427 357.653C21.737 359.19 21.966 360.819 21.59 362.361ZM106.055 367.507C99.934 371.255 92.353 371.005 85.427 370.089C81.801 369.61 78.241 368.702 74.739 367.665C72.76 367.078 71.417 367.394 72.706 364.608C73.732 362.389 75.708 360.66 77.658 359.222C82.541 360.656 88.082 360.388 93.043 359.757C97.418 362.278 101.897 364.64 106.055 367.507ZM416.014 341.5C358.557 341.323 301.101 341.326 243.645 341.502C243.317 341.503 242.871 341.669 242.485 341.889C242.779 341.176 242.993 340.456 243.078 339.736C243.657 334.8 240.507 329.02 239.368 324.192C243.273 321.842 248.018 319.867 251.145 316.601C254.419 313.181 254.451 308.273 254.568 303.804C254.693 299.048 255.154 292.699 252.013 288.704C248.984 284.853 242.238 282.858 238.272 280.27C238.216 280.234 238.15 280.207 238.079 280.186C239.269 275.713 241.747 270.56 241.361 266.042C241.159 263.689 240.077 261.527 238.606 259.54C238.722 259.396 238.796 259.234 238.796 259.056C238.796 221.92 238.796 184.785 238.796 147.651C238.796 147.618 238.787 147.591 238.784 147.56C238.784 111.056 238.784 74.552 238.784 38.047C238.784 37.967 238.745 37.904 238.685 37.853C297.794 37.853 356.905 37.853 416.016 37.853C416.087 66.196 416.129 94.539 416.133 122.881C408.452 122.873 400.327 122.842 393.15 125.893C383.653 129.93 386.424 143.531 386.451 151.85C386.451 151.956 386.496 152.041 386.57 152.109C386.498 152.228 386.446 152.357 386.433 152.499C385.401 163.938 385.956 180.267 400.426 180.81C402.462 184.786 405.638 188.278 408.062 191.935C407.97 192.035 407.873 192.13 407.783 192.234C407.648 192.388 407.701 192.483 407.859 192.534C407.685 192.658 407.591 192.772 407.642 192.844C410.683 197.149 413.67 201.49 416.764 205.754C416.388 205.945 416.117 206.203 416.117 206.51C416.175 251.505 416.151 296.503 416.014 341.5ZM408.396 178.603C407.25 177.302 406.187 173.769 404.7 171.242C404.752 171.129 404.766 171.011 404.732 170.888C404.513 170.111 404.446 169.413 404.678 168.844C406.452 171.834 407.605 175.141 409.349 178.156C409.906 179.117 412.687 178.138 412.247 177.379C410.786 174.856 409.716 172.143 408.388 169.559C408.66 169.364 408.84 169.12 408.832 168.84C408.827 168.651 408.806 168.45 408.791 168.25C411.368 170.661 411.768 175.048 413.107 178.156C413.537 179.152 416.383 178.257 416.005 177.379C415.098 175.276 414.61 172.936 413.754 170.792C413.856 170.682 413.928 170.561 413.958 170.43C413.973 170.369 413.986 170.297 414.001 170.231C414.852 171.33 415.487 172.619 416.128 173.839C417.161 175.806 418.385 179.564 420.584 180.552C420.726 180.615 420.909 180.635 421.111 180.626C421.13 180.626 421.142 180.629 421.162 180.629C421.377 180.63 421.596 180.631 421.812 180.632C421.709 180.752 421.645 180.882 421.645 181.02C421.645 182.273 421.645 183.526 421.645 184.779C421.645 184.84 421.658 184.893 421.671 184.945C417.7 186.17 413.511 187.49 410.178 190.015C406.378 184.573 400.663 178.57 401.339 171.637C401.39 171.726 401.442 171.815 401.491 171.902C402.071 172.912 402.571 173.969 403.083 175.014C403.845 176.57 404.522 178.348 405.683 179.662C406.252 180.304 409.001 179.287 408.396 178.603ZM413.242 169.379C413.046 169.229 413.068 169.308 413.242 169.379ZM424.543 180.644C427.548 180.648 430.615 180.57 433.557 180.034C433.613 185.987 434.082 191.922 434.241 197.871C430.725 193.794 427.95 188.898 424.789 184.731C424.726 184.649 424.634 184.591 424.523 184.549C424.534 184.507 424.546 184.464 424.546 184.42C424.546 183.167 424.546 181.914 424.546 180.661C424.546 180.655 424.543 180.65 424.543 180.644ZM488.482 221.295C487.363 227.513 485.354 233.458 484.48 239.763C483.385 247.657 483.145 255.667 483.121 263.626C483.12 263.948 483.259 264.175 483.47 264.328C480.229 270.999 469.545 270.211 463.416 269.688C457.049 269.146 448.536 267.822 443.311 263.582C443.321 263.544 443.333 263.506 443.334 263.466C443.477 256.808 445.465 249.948 447.064 243.531C448.477 237.865 449.713 229.293 453.68 224.671C462.071 223.351 470.37 220.306 477.874 217.27C479.786 216.497 477.97 216.164 476.872 216.608C463.865 221.872 449.869 226.326 435.856 222.502C432.895 221.693 430.347 218.171 428.368 216.002C426.049 213.46 423.934 210.731 421.854 207.995C417.913 202.811 414.293 197.385 410.538 192.068C410.509 192.026 410.471 191.993 410.428 191.963C413.454 188.519 417.788 187.068 422.046 185.752C422.06 185.778 422.067 185.806 422.088 185.833C428.297 194.02 433.25 204.063 443.775 207.246C452.962 210.024 462.359 203.61 470.633 200.714C472.557 200.041 470.782 199.195 469.52 199.638C465.645 200.994 461.882 202.791 458.136 204.11C459.521 200.355 461.865 196.484 465.761 195.038C466.22 194.868 466.464 194.642 466.551 194.405C470.362 195.694 475.104 195.604 479.071 195.323C479.079 195.34 479.084 195.358 479.094 195.374C479.172 195.626 479.437 195.827 479.982 195.886C490.902 197.056 489.863 213.626 488.482 221.295ZM464.914 157.146C470.005 158.388 474.893 159.055 480.396 157.357C480.324 159.251 479.808 162.584 479.619 166.011C479.246 165.11 478.565 164.282 477.507 163.615C477.167 163.4 476.676 163.405 476.207 163.537C475.49 163.057 474.609 162.808 473.694 162.789C473.031 162.774 472.164 163.001 471.788 163.604C471.756 163.655 471.742 163.702 471.725 163.75C470.662 164.284 469.728 165.031 468.991 165.937C468.576 165.78 468.155 165.676 467.727 165.624C468.554 164.321 469.03 162.81 468.966 161.23C468.957 161.006 468.871 160.838 468.742 160.708C468.735 160.691 468.74 160.676 468.731 160.659C468.074 159.411 466.947 158.598 465.541 158.388C465.377 158.364 465.207 158.357 465.037 158.362C464.938 158.164 464.703 158.024 464.297 158.008C464.506 157.709 464.713 157.42 464.914 157.146ZM479.729 171.497C479.495 171.362 479.256 171.241 479.019 171.118C479.245 170.729 479.439 170.329 479.588 169.919C479.617 170.458 479.663 170.987 479.729 171.497ZM473.303 173.044C471.244 173.269 470.137 171.149 470.273 169.42C470.414 167.633 471.675 166.011 473.268 165.278C473.509 165.167 473.686 165.044 473.814 164.915C474.167 165.145 474.453 165.479 474.628 165.909C474.88 166.522 475.772 166.453 476.29 166.313C476.298 166.311 476.311 166.306 476.318 166.304C477.9 168.684 476.4 172.707 473.303 173.044ZM462.89 160.107C463.141 160.022 463.38 159.956 463.591 159.93C463.594 159.93 463.596 159.929 463.599 159.928C463.659 159.952 463.702 159.991 463.778 160.001C464.655 160.132 465.414 160.634 465.834 161.432C465.889 161.536 465.964 161.614 466.047 161.679C466.045 164.917 462.396 169.734 459.4 166.984C460.278 164.567 461.573 162.182 462.89 160.107ZM460.406 178.095C458.166 175.757 457.925 172.615 458.683 169.361C459.679 169.675 460.777 169.719 461.838 169.556C461.505 170.381 461.64 171.223 462.693 171.943C463.25 172.324 464.012 172.192 464.604 171.948C464.831 171.854 465.94 171.204 465.388 170.828C463.744 169.705 465.141 168.336 466.39 167.461C466.624 167.476 466.842 167.506 467.054 167.606C467.313 167.728 467.595 167.766 467.878 167.763C467.576 168.469 467.371 169.221 467.309 170.014C467.084 172.874 469.459 174.893 472.136 175.123C471.902 175.224 470.896 175.694 471.315 175.883C472.418 176.381 473.611 176.163 474.721 175.789C475.748 175.441 476.625 174.76 477.041 173.744C477.09 173.626 477.047 173.552 476.957 173.506C477.155 173.347 477.349 173.182 477.533 173.005C478.585 173.583 479.595 174.216 480.618 174.81C481.393 176.445 482.669 177.515 484.706 177.566C485.172 177.578 485.799 177.29 486.217 176.951C486.295 176.954 486.375 176.95 486.456 176.94C487.066 177.902 487.104 179.425 486.734 180.698C486.421 181.774 485.85 182.764 485.108 183.6C484.028 184.143 482.927 184.499 482.188 184.705C481.74 184.575 481.285 184.359 480.826 184.105C480.09 183.698 477.728 184.89 478.096 185.093C478.642 185.396 479.205 185.616 479.776 185.769C478.86 187.266 478.6 188.915 478.613 190.603C478.479 190.773 478.459 190.924 478.62 191.003C478.65 191.951 478.756 192.907 478.87 193.852C475.401 194.059 471.338 194.021 468.202 192.806C468.438 192.649 468.598 192.461 468.604 192.259C468.806 186.052 464.276 182.133 460.406 178.095ZM436.102 126.792C445.311 130.153 442.547 144.186 442.522 151.851C442.522 152.019 442.627 152.135 442.798 152.205C442.627 152.37 442.522 152.561 442.522 152.774C442.543 159.118 444.536 171.1 439.513 176.099C438.444 177.162 437.05 177.855 435.494 178.312C435.066 178.356 434.576 178.467 434.193 178.632C430.44 179.395 426.032 179.052 422.759 179.01C421.599 178.387 420.829 176.476 420.258 175.412C419.266 173.562 418.359 171.665 417.249 169.881C416.587 168.815 415.704 167.562 414.312 167.558C413.504 167.555 412.89 167.803 412.41 168.204C412.142 167.818 411.847 167.447 411.514 167.097C410.482 166.009 408.922 165.223 407.512 166.076C407.182 166.276 406.93 166.475 406.721 166.679C406.706 166.658 406.695 166.636 406.68 166.615C406.334 166.1 405.186 166.434 404.765 166.597C403.536 167.071 402.608 167.736 402.091 168.619C401.418 168.384 400.672 168.429 399.832 168.881C397.184 170.305 398.561 176.083 399.248 178.11C399.302 178.268 399.377 178.419 399.435 178.576C388.115 176.918 388.544 161.376 389.365 152.274C389.392 151.972 389.289 151.753 389.113 151.598C389.257 151.443 389.347 151.268 389.347 151.075C389.329 145.735 389.234 140.407 389.704 135.083C390.141 130.144 391.927 127.667 396.73 126.156C402.644 124.297 409.214 124.499 415.349 124.505H415.351C415.358 124.505 415.366 124.505 415.372 124.505C415.375 124.505 415.379 124.505 415.382 124.505H415.383C422.292 124.499 429.528 124.394 436.102 126.792ZM223.41 74.712C223.477 65.999 223.566 57.286 223.68 48.573C223.859 48.374 223.894 48.189 223.687 48.077C223.735 44.476 223.773 40.876 223.837 37.275C223.961 30.34 223.462 23.627 226.366 17.185C227.472 14.95 228.941 12.916 230.822 11.155C236.684 5.99601 245.565 4.84701 253.321 4.37001C255.759 4.22101 258.203 4.13301 260.651 4.07701C262.805 4.10301 264.889 4.14401 266.835 4.14401C273.235 4.14401 279.635 4.14401 286.035 4.14401C290.154 4.14401 294.274 4.14401 298.393 4.14401C298.446 4.17901 298.515 4.20801 298.597 4.23201C298.799 4.37301 299.09 4.46401 299.493 4.46401C329.778 4.46401 360.064 4.46401 390.349 4.46401C401.509 4.46401 415.13 3.76801 424.662 10.664C427.402 12.646 429.349 15.25 430.72 18.205C431.856 22.155 432.012 26.623 432.294 30.74C433.03 41.474 433.396 52.233 433.6 62.99C433.985 83.296 433.641 103.606 433.632 123.914C428.902 122.877 423.797 122.851 418.999 122.872C419.029 122.793 419.051 122.711 419.051 122.624C419.047 91.681 419.001 60.737 418.917 29.795C418.913 28.396 415.994 28.928 415.997 30.076C416.002 31.994 416.004 33.911 416.009 35.829C356.497 35.829 296.987 35.829 237.475 35.829C235.891 35.829 235.256 37.759 237.072 37.845C236.445 38.031 235.885 38.377 235.885 38.824C235.885 75.164 235.885 111.503 235.885 147.843C235.882 147.869 235.873 147.895 235.873 147.922C235.873 184.077 235.873 220.232 235.873 256.386C234.217 254.702 232.446 253.17 230.955 251.78C228.737 249.712 226.142 247.418 223.102 246.713C223.129 246.658 223.147 246.602 223.147 246.542C223.125 212.963 223.124 179.384 223.116 145.804C223.116 145.767 223.095 145.738 223.064 145.711C223.13 122.044 223.226 98.378 223.41 74.712ZM135.164 56.098C136.591 49.891 142.842 49.571 148.143 49.757C148.771 49.779 149.428 49.371 149.789 48.909C153.681 48.931 157.44 49.293 159.684 49.29C169.684 49.277 179.716 49.109 189.746 49.045C189.644 49.275 189.814 49.448 190.497 49.43C200.582 49.159 210.673 49.336 220.76 49.412C220.716 53.232 220.678 57.053 220.64 60.872C220.614 63.452 220.59 66.033 220.564 68.613C191.826 68.613 163.088 68.613 134.351 68.613C134.333 64.426 134.221 60.199 135.164 56.098ZM220.044 132.232C219.919 132.2 219.762 132.178 219.55 132.18C214.912 132.22 210.274 132.283 205.637 132.317C205.513 132.287 205.346 132.273 205.118 132.282C204.601 132.303 204.083 132.311 203.566 132.33C198.614 132.354 193.662 132.337 188.71 132.198C188.351 132.188 187.893 132.359 187.51 132.593C175.841 132.591 164.146 132.265 152.525 132.116C144.545 132.014 136.542 133.204 134.746 123.138C134.559 122.092 134.433 121.024 134.332 119.948C134.257 117.94 134.336 115.929 134.336 114.108C134.336 110.157 134.336 106.206 134.336 102.254C134.343 102.209 134.355 102.165 134.355 102.118C134.355 91.665 134.355 81.213 134.355 70.761C163.084 70.761 191.814 70.761 220.544 70.761C220.344 91.248 220.163 111.739 220.044 132.232ZM90.528 191.91C90.886 191.811 91.358 191.635 91.74 191.454C92.602 191.599 93.511 191.566 94.327 191.438C94.953 191.339 95.831 191.035 95.929 190.288C96.02 189.597 95.151 189.288 94.599 189.374C92.556 189.694 91.036 188.844 91.228 186.607C91.295 185.827 91.587 185.06 92.109 184.474C92.191 184.383 92.212 184.368 92.297 184.311C92.29 184.305 92.272 184.301 92.221 184.308C92.245 184.305 92.257 184.301 92.272 184.298C92.278 184.302 92.287 184.306 92.298 184.31C92.326 184.291 92.363 184.268 92.411 184.235C92.348 184.278 92.322 184.298 92.306 184.313C92.324 184.321 92.341 184.328 92.372 184.337C92.608 184.41 92.808 184.584 92.999 184.735C93.633 185.236 94.925 184.826 95.407 184.197C95.824 184.063 96.159 183.876 96.23 183.649C97.734 178.876 96.675 173.406 93.633 169.449C97.648 168.842 100.566 166.352 102.498 162.814C105.135 167.37 108.915 170.813 112.24 174.894C112.42 175.115 112.819 175.166 113.261 175.11C113.351 175.504 113.734 175.811 114.495 175.779C115.284 175.746 116.006 175.535 116.743 175.271C117.374 175.044 117.722 175.375 118.06 175.845C117.007 177.158 116.237 178.713 115.494 180.216C115.257 180.433 115.122 180.708 115.168 181.022C115.146 181.23 115.205 181.399 115.331 181.527C116.904 185.668 118.493 190.964 113.51 193.175C109.756 194.841 105.294 195.001 101.331 196.084C100.707 195.741 99.527 195.842 99.059 196.477C98.255 197.567 97.587 198.708 97.089 199.93C96.793 199.997 96.539 200.085 96.404 200.185C96.122 200.394 95.829 200.534 95.533 200.645C95.277 200.669 95.005 200.731 94.737 200.783C94.584 200.813 94.44 200.823 94.283 200.862C94.219 200.861 94.156 200.85 94.092 200.845C91.43 200.665 88.638 197.749 87.248 195.795C88.423 194.567 89.518 193.297 90.528 191.91ZM84.991 214.171C85.082 212.822 82.151 213.335 82.075 214.466C81.408 224.364 90.977 231.07 99.029 234.872C98.95 234.933 98.883 234.996 98.841 235.066C92.42 245.89 90.143 256.821 88.373 269.063C88.306 269.093 88.246 269.126 88.2 269.16C80.778 274.689 69.032 268.954 62.42 264.418C58.899 262.002 56.005 258.461 53.485 255.063C52.226 253.367 50.972 251.366 50.272 249.344C49.663 247.584 53.029 243.893 53.935 242.538C59.174 234.71 65.228 227.655 68.917 218.889C72.115 211.29 75.68 201.266 83.603 197.431C83.807 197.546 84.137 197.591 84.3 197.585C84.542 197.577 84.793 197.532 85.04 197.47C87.026 199.909 89.688 201.74 92.531 202.118C92.638 202.413 93.126 202.575 93.95 202.309C94.779 202.041 95.597 202.095 96.401 202.36C96.438 202.925 97.086 203.116 97.768 203.024C100.92 204.99 103.79 209.692 106.049 211.442C110.291 214.727 114.838 217.543 119.88 219.363C118.823 221.822 116.816 224.943 114.331 227.7C114.001 228.065 113.665 228.425 113.32 228.774C111.43 230.69 109.322 232.344 107.166 233.335C105.509 233.231 103.88 233.38 102.311 233.846C102.255 233.796 102.186 233.749 102.092 233.707C94.415 230.215 84.34 223.829 84.991 214.171ZM159.941 245.426C160.248 245.082 160.25 244.728 159.559 244.562C153.147 243.015 146.619 243.574 140.083 243.518C133.903 243.464 129.249 241.634 123.812 239.136C119.511 237.16 114.169 234.353 108.942 233.537C113.194 231.418 117.067 227.807 119.817 223.958C126.423 229.3 134.111 231.074 142.148 233.587C149.035 235.74 156.305 238.464 163.31 235.118C167.402 233.164 170.53 229.57 174.385 227.221C174.028 227.439 173.617 229.478 173.462 229.857C172.75 231.596 171.861 233.289 171.04 234.978C169.001 239.173 165.667 245.953 159.941 245.426ZM222.566 355.934C222.557 356.033 222.564 356.128 222.557 356.226C222.068 356.455 221.704 356.828 221.74 357.274C217.77 356.882 212.478 354.503 209.849 353.934C209.671 353.896 209.37 353.941 209.037 354.033C208.308 353.995 207.318 354.263 207.013 354.732C204.632 358.382 202.803 362.289 200.602 366.034C197.975 370.503 191.805 369.799 187.331 369.836C182.976 369.873 177.417 370.215 174.278 366.648C171.432 363.415 169.704 358.917 167.393 355.277C167.827 354.693 167.278 354.001 166.022 354.328C161.5 355.505 156.498 358.173 151.784 358.267C146.564 358.372 141.325 352.025 138.021 348.716C135.217 345.908 132.805 342.956 133.493 338.812C134.224 334.405 135.868 330.17 136.654 325.745C137.111 325.505 137.398 325.246 137.207 325.134C133.066 322.703 128.273 321.079 124.389 318.257C120.503 315.434 120.568 309.362 120.339 305.099C120.101 300.651 119.466 294.527 123.013 291.147C126.324 287.993 131.448 286.107 135.246 283.476C136.13 283.398 137.163 282.861 136.995 282.222C135.875 277.972 134.077 274.036 132.735 269.874C131.193 265.09 135.405 261.029 138.31 257.794C140.975 254.825 144.867 249.731 149.286 249.884C153.779 250.038 158.484 252.015 162.919 252.757C163.706 252.889 165.577 251.87 165.177 251.376C167.206 247.824 168.835 243.812 171.376 240.616C174.237 237.019 181.411 237.698 185.426 237.561C189.445 237.425 194.818 236.708 197.681 240.178C200.361 243.424 202.192 247.485 204.591 250.975C204.436 251.604 205.063 252.288 206.199 252.049C210.696 251.103 215.11 249.255 219.649 248.604C224.281 247.94 228.672 253.334 231.52 256.132C234.699 259.255 238.77 263.104 238.39 267.936C238.033 272.475 235.843 277.087 234.876 281.533C234.671 282.476 235.969 282.602 236.91 282.197C240.394 284.307 244.103 286.018 247.514 288.231C251.135 290.581 251.384 294.962 251.597 298.887C251.878 304.051 252.516 311.166 249.328 315.672C246.721 319.357 240.816 321.495 236.996 323.864C236.79 323.959 236.621 324.066 236.508 324.181C235.924 324.609 236.064 324.877 236.48 324.998C237.376 329.035 238.73 332.882 239.86 336.852C240.849 340.325 239.503 342.919 237.347 345.617C234.159 349.606 229.957 354.244 225.393 356.706C225.393 356.308 225.407 355.903 225.443 355.492C225.528 354.531 222.638 355.131 222.566 355.934ZM433.598 225.06C432.637 269.732 436.278 314.414 431.546 358.972C431.527 359.15 431.498 359.321 431.474 359.495C430.173 363.001 428.208 366.174 425.244 368.681C421.338 371.983 416.294 373.609 410.938 374.397C410.203 374.483 409.473 374.554 408.755 374.608C406.425 374.785 404.092 374.929 401.76 375.073C397.622 375.149 393.57 375.01 389.965 375.01C379.471 375.01 368.978 375.01 358.485 375.01C358.367 374.853 358.121 374.741 357.684 374.723C345.444 374.202 333.207 374.369 320.973 374.706C309.685 374.648 298.396 374.614 287.108 374.597C275.329 374.578 263.548 374.577 251.769 374.577C250.91 374.577 250.056 374.57 249.207 374.55C248.29 374.469 247.373 374.393 246.456 374.302C237.515 373.414 229.67 368.775 226.092 360.877C225.763 359.919 225.545 358.915 225.449 357.866C228.376 356.853 230.904 354.588 233.108 352.57C235.687 350.209 239.944 346.721 241.973 342.963C242.098 342.997 242.261 343.019 242.483 343.018C300.26 342.841 358.038 342.838 415.815 343.018C415.877 343.018 415.942 343.012 416.011 343.001C416.01 343.28 416.01 343.559 416.009 343.837C416.007 344.555 418.904 344.064 418.907 343.06C419.048 298.305 419.07 253.549 419.014 208.793C419.706 209.716 420.39 210.646 421.099 211.557C423.251 214.324 425.558 216.955 427.972 219.495C430.416 222.066 432.113 223.168 435.027 223.997C434.314 224.113 433.609 224.519 433.598 225.06ZM436.512 224.757C436.516 224.594 436.475 224.46 436.403 224.35C436.557 224.386 436.693 224.423 436.854 224.459C441.422 225.468 446.11 225.556 450.793 225.054C447.079 229.636 445.899 237.398 444.48 242.84C442.927 248.789 441.15 255.133 440.601 261.368C439.857 261.483 439.084 261.874 439.073 262.339C438.982 266.007 437.969 269.381 436.742 272.728C436.462 256.739 436.168 240.751 436.512 224.757ZM461.654 332.139C456.004 319.604 457.218 306.168 455.868 292.92C455.989 292.71 456.105 292.498 456.228 292.289C456.534 291.768 456.215 291.499 455.702 291.422C455.503 289.73 455.265 288.039 454.95 286.357C454.767 285.383 451.857 286.091 452.052 287.132C452.426 289.13 452.713 291.126 452.943 293.119C446.858 303.741 442.61 315.304 436.743 326.036C437.059 316.852 437.122 307.66 437.079 298.473C437.046 291.551 436.944 284.629 436.827 277.709C437.317 277.553 437.744 277.303 437.866 276.982C439.321 273.158 440.891 269.45 441.592 265.48C447.841 269.979 457.277 271.088 464.507 271.574C469.812 271.929 477.786 271.816 482.749 268.371C481.946 285.8 471.534 303.314 477.108 320.69C481.973 335.858 498.918 342.424 505.342 356.818C505.357 356.851 505.381 356.878 505.401 356.907C502.617 362.792 496.9 364.454 490.93 366.146C491.191 365.917 491.287 365.659 491.057 365.431C480.539 355.042 467.895 345.981 461.654 332.139ZM485.596 382.122C482.487 376.592 485.115 370.495 490.466 367.214C495.459 365.798 500.598 364.499 504.354 361.416C508 361.688 509.164 366.235 510.125 369.12C510.197 369.336 510.372 369.473 510.6 369.55C502.521 374.167 494.224 378.625 485.596 382.122ZM468.37 180.18C466.45 179.768 467.957 177.778 469.376 178.082C470.463 178.315 471.345 178.074 472.331 177.599C472.905 177.323 473.861 177.231 474.299 177.812C474.739 178.398 474.124 179.051 473.612 179.298C471.979 180.084 470.179 180.568 468.37 180.18ZM170.281 114.482C170.772 114.926 168.15 116.024 167.555 115.488C162.213 110.663 156.103 106.83 150.576 102.236C150.405 102.093 150.619 101.862 150.991 101.644C151.037 101.577 151.097 101.504 151.173 101.428C156.13 96.451 160.938 91.141 166.755 87.14C167.76 86.449 170.219 87.047 168.597 88.163C163.105 91.94 158.548 96.976 153.874 101.69C159.25 106.081 165.121 109.823 170.281 114.482ZM219.104 101.642C213.577 106.236 207.465 110.071 202.125 114.894C201.594 115.373 198.836 115.67 199.492 115.078C204.67 110.402 210.562 106.651 215.953 102.244C211.168 97.434 206.526 92.265 200.91 88.402C199.672 87.55 202.317 86.303 203.19 86.904C208.985 90.89 213.773 96.184 218.712 101.142C218.779 101.209 218.817 101.278 218.844 101.347C219.165 101.371 219.32 101.461 219.104 101.642ZM192.464 86.604C188.082 96.318 181.12 104.66 177.555 114.765C177.347 115.356 175.052 115.6 175.192 115.204C178.757 105.099 185.719 96.756 190.101 87.043C190.368 86.449 192.613 86.271 192.464 86.604ZM299.219 78.221C300.007 78.888 297.309 80.015 296.528 79.354C290.585 74.325 284.094 73.759 277.9 79.023C277.191 79.626 274.303 79.635 275.578 78.552C282.982 72.259 291.697 71.856 299.219 78.221ZM295.256 83.128C296.044 83.795 293.346 84.922 292.565 84.261C289.114 81.34 285.479 80.857 281.863 83.93C281.154 84.533 278.266 84.542 279.541 83.459C284.401 79.327 290.3 78.935 295.256 83.128ZM283.889 92.705C283.927 92.746 283.973 92.777 284.018 92.81C284.045 92.838 284.064 92.867 284.096 92.895C286.116 94.67 289.402 94.102 291.237 92.374C292.774 90.926 292.533 88.322 291.161 86.88C287.594 83.134 279.843 88.401 283.889 92.705ZM289.165 91.073C288.675 92.224 287.278 91.971 286.462 91.344C285.649 90.423 285.343 89.27 286.212 88.25C286.88 87.466 288.002 87.614 288.657 88.304C289.342 89.024 289.552 90.164 289.165 91.073ZM360.172 93.579C360.248 94.327 360.339 94.972 360.463 95.525C360.426 95.562 360.376 95.589 360.344 95.629C360.044 96.004 360.343 96.202 360.681 96.289C361.061 97.356 361.685 97.961 362.835 98.201C362.938 98.304 363.119 98.377 363.408 98.396C366.205 98.587 368.431 98.154 368.916 95.076C369.475 91.531 369.616 89.711 372.743 87.136C374.571 85.63 375.778 83.91 376.595 81.692C379.492 73.82 372.537 66.312 364.893 66.323C364.692 66.323 364.52 66.376 364.364 66.445C356.708 66.68 351.18 73.06 352.269 80.815C353.056 86.422 359.598 87.952 360.172 93.579ZM364.182 96.899C364.178 96.899 364.174 96.899 364.17 96.899C363.754 96.786 363.435 96.594 363.183 96.346C363.641 96.346 364.1 96.346 364.558 96.346C365.183 96.346 366.026 96.117 366.452 95.616C366.074 96.439 365.422 96.984 364.182 96.899ZM366.597 95.261C366.545 94.978 366.022 94.874 365.73 94.874C364.633 94.874 363.538 94.874 362.44 94.874C362.375 94.582 362.328 94.276 362.295 93.96C362.395 93.972 362.489 93.978 362.557 93.978C363.876 93.978 365.196 93.978 366.515 93.978C366.63 93.978 366.759 93.96 366.887 93.944C366.82 94.41 366.732 94.859 366.597 95.261ZM367.036 92.659C365.948 92.659 364.859 92.659 363.771 92.659C363.3 92.659 362.689 92.804 362.23 93.077C362.201 92.562 362.175 92.052 362.119 91.578C363.717 91.578 365.314 91.578 366.912 91.578C366.998 91.578 367.088 91.565 367.176 91.559C367.119 91.911 367.075 92.28 367.036 92.659ZM363.988 67.724C364.033 67.724 364.08 67.718 364.127 67.712C364.269 67.776 364.439 67.823 364.676 67.823C372.73 67.812 377.04 76.762 373.643 83.535C372.334 86.145 369.327 87.535 367.693 89.973C367.595 90.119 367.517 90.29 367.448 90.471C365.677 90.471 363.907 90.471 362.135 90.471C362.046 90.471 361.953 90.484 361.864 90.49C361.115 88.291 358.851 86.868 357.216 85.398C350.779 79.61 355.415 67.712 363.988 67.724ZM280.17 153.149C280.128 153.239 280.072 153.328 279.985 153.409C279.863 153.55 279.711 153.668 279.543 153.764C278.383 154.575 276.758 154.817 275.683 153.701C274.863 152.851 274.907 151.476 275.728 150.648C276.667 149.7 278.524 149.211 279.689 150.057C280.703 150.796 280.832 152.154 280.17 153.149ZM287.603 153.149C287.561 153.24 287.504 153.328 287.418 153.409C287.296 153.549 287.145 153.667 286.978 153.763C285.818 154.576 284.192 154.819 283.116 153.702C282.296 152.852 282.34 151.477 283.161 150.649C284.1 149.701 285.958 149.213 287.123 150.058C288.137 150.795 288.266 152.155 287.603 153.149ZM295.037 153.148C294.994 153.239 294.938 153.328 294.851 153.409C294.728 153.55 294.577 153.668 294.409 153.764C293.249 154.575 291.625 154.817 290.549 153.701C289.729 152.851 289.773 151.476 290.594 150.648C291.533 149.699 293.39 149.212 294.555 150.057C295.569 150.795 295.697 152.153 295.037 153.148ZM398.386 138.978C398.385 139.148 398.437 139.334 398.512 139.528C398.406 147.212 398.298 154.894 398.191 162.578C398.189 162.716 398.319 162.802 398.517 162.848C398.352 163.139 398.496 163.379 399.261 163.379C410.026 163.379 420.79 163.379 431.555 163.379C432.028 163.379 432.717 163.05 433.139 162.693C433.71 162.507 434.197 162.197 434.202 161.8C434.312 153.935 434.421 146.07 434.531 138.204C434.535 137.917 433.989 137.843 433.37 137.931C433.133 137.75 432.705 137.727 432.258 137.809C421.74 137.809 411.223 137.809 400.705 137.809C399.861 137.726 398.394 138.208 398.386 138.978ZM430.82 139.371C430.68 141.17 421.398 149.208 417.587 152.483C415.079 150.428 412.58 148.362 410.101 146.273C408.187 144.661 406.288 143.03 404.416 141.367C404.031 141.025 402.827 140.173 402.028 139.371C411.626 139.371 421.224 139.371 430.82 139.371ZM401.089 161.8C401.178 155.439 401.267 149.076 401.356 142.715C403.379 144.411 405.834 146.052 406.644 146.74C409.719 149.353 412.83 151.928 415.957 154.478C416.603 155.004 417.898 154.621 418.459 154.127C419.939 152.825 427.8 146.598 431.589 142.148C431.498 148.704 431.406 155.258 431.315 161.814C421.239 161.814 411.163 161.814 401.086 161.814C401.086 161.81 401.089 161.806 401.089 161.8ZM295.29 225.931C295.029 223.961 294.273 221.81 292.362 220.946C291.107 220.377 289.836 220.529 288.663 221.028C286.461 214.226 274.587 217.014 275.118 223.644C271.47 223.033 267.859 225.253 266.896 229.187C266.421 231.129 266.76 233.319 268.148 234.809C269.635 236.406 272.007 236.474 274.084 236.162C279.725 236.258 285.36 236.521 291.003 236.346C293.861 236.257 297.75 236.368 300.296 234.75C302.713 233.215 302.953 230.239 301.555 227.966C300.412 226.107 297.496 225.77 295.29 225.931ZM290.414 234.664C284.601 234.846 278.776 234.43 272.964 234.392C272.788 234.391 272.593 234.434 272.398 234.502C270.417 233.877 269.36 231.797 269.691 229.331C269.878 227.941 270.508 226.562 271.551 225.614C272.705 224.563 274.204 225.267 275.379 225.942C276.051 226.329 278.087 225.547 277.966 224.896C278.218 224.694 278.358 224.454 278.279 224.202C277.537 221.844 278.514 219.458 280.997 218.762C283.642 218.021 285.55 220.314 285.983 222.646C285.992 222.694 286.012 222.735 286.034 222.775C286.001 222.804 285.967 222.834 285.934 222.863C285.428 223.326 285.709 224.011 286.293 224.203C287.027 224.443 287.798 224.15 288.342 223.654C289.355 222.728 290.215 222.224 291.208 223.377C292.112 224.426 292.349 225.986 292.462 227.315C292.531 228.123 293.742 228.129 294.578 227.678C297.246 227.481 299.57 228.617 299.526 231.76C299.479 235.06 292.023 234.614 290.414 234.664ZM365.142 208.699C359.103 208.32 353.348 211.273 351.841 217.37C349.551 226.641 357.045 236.353 363.542 241.941C364.036 242.366 365.682 241.823 366.187 241.327C366.685 241.215 367.146 241.031 367.309 240.818C374.295 231.699 383.874 209.874 365.142 208.699ZM365.311 240.065C359.889 235.147 355.627 228.973 354.566 221.59C353.26 212.508 361.69 206.943 369.791 211.736C378.947 217.154 370.043 233.495 365.311 240.065ZM367.894 215.372C365.502 213.567 361.647 214.351 359.603 216.296C357.139 218.642 357.378 222.535 359.739 224.876C362.289 227.402 366.01 226.679 368.472 224.513C368.549 224.458 368.62 224.4 368.68 224.331C368.748 224.267 368.799 224.198 368.84 224.128C370.946 221.511 370.63 217.438 367.894 215.372ZM366.266 223.517C362.785 226.789 359.12 220.267 361.771 217.345C362.887 216.114 364.717 216.31 365.928 217.224C367.764 218.609 367.662 221.927 366.266 223.517ZM378.558 278.639C373.756 275.014 365.935 276.317 361.762 280.288C356.245 285.539 356.924 294.045 362.009 299.348C357.446 303.112 353.735 307.683 350.109 312.335C349.235 313.456 352.186 313.349 352.838 312.513C356.098 308.33 359.458 304.137 363.518 300.697C368.686 304.593 375.505 303.018 380.136 298.803C380.213 298.749 380.284 298.69 380.344 298.622C380.468 298.505 380.545 298.398 380.6 298.296C385.36 292.511 384.645 283.231 378.558 278.639ZM377.929 297.808C367.594 307.521 355.241 290.863 363.578 281.671C367.041 277.853 373.064 277.827 376.985 280.786C382.059 284.614 381.813 293.386 377.929 297.808ZM296.862 288.146C294.399 287.615 294.018 285.383 293.171 283.369C292.155 280.959 290.027 280.174 287.539 280.113C286.463 280.087 284.445 281.686 286.406 281.734C286.446 281.735 286.476 281.744 286.515 281.745C286.515 286.995 286.515 292.245 286.515 297.494C284.637 296.825 282.342 297.31 280.291 298.185C279.752 298.022 279.012 298.044 278.535 298.353C275.476 300.332 271.127 304.506 272.525 308.639C274.055 313.162 281.416 310.444 284.034 308.91C286.728 307.331 290.443 303.906 289.429 300.542C289.429 294.687 289.429 288.831 289.429 282.978C290.054 283.673 290.472 284.621 290.876 285.744C291.636 287.855 292.825 289.216 295.082 289.702C295.988 289.896 298.502 288.5 296.862 288.146ZM281.938 307.883C280.014 308.923 275.295 310.434 275.214 306.788C275.173 304.911 276.213 303.204 277.563 301.807C277.874 301.771 278.175 301.673 278.41 301.494C280.495 299.905 284.301 297.72 286.264 300.659C286.368 300.814 286.446 300.972 286.516 301.129C286.516 301.444 286.516 301.76 286.516 302.075C286.516 302.295 286.599 302.46 286.728 302.584C286.45 304.862 283.554 307.009 281.938 307.883Z" fill="#424242"/>
</svg>
