<svg width="1676" height="1158" viewBox="0 0 1676 1158" fill="none" xmlns="http://www.w3.org/2000/svg">
<g clip-path="url(#clip0)">
<path d="M51.6639 518.847C26.9908 473.477 19.9024 420.476 32.0345 370.337C66.5223 228.229 164.124 -21.2413 422.442 14.047C780.952 63.0965 885.234 75.3588 1032.32 29.3069C1179.4 -16.7451 1433.77 -16.6089 1513.38 87.4849C1561.63 150.568 1724.8 433.556 1620.66 531.655C1516.51 629.753 1671.09 823.771 1675.86 926.775C1680.64 1029.78 1531.91 1043.13 1344.89 1046.26C1157.86 1049.4 71.4297 1013.7 71.4297 1013.7C71.4297 1013.7 -67.8848 773.632 42.5308 687.931C110.825 634.795 80.1539 571.303 51.6639 518.847Z" fill="#F8F8FF"/>
<path d="M160.307 901.431C136.452 900.614 46.8926 912.876 41.5763 917.509C40.2131 918.735 20.5837 977.049 106.871 1052.26C244.823 1172.7 615.874 1176.79 736.104 1131.01C910.588 1064.52 1101.84 1189.19 1498.11 1141.5C1624.75 1126.24 1709.4 932.36 1651.87 907.154C1617.38 892.167 1576.08 931.951 1541.46 914.511C1501.52 894.347 1420.68 881.812 1370.65 897.208C1368.61 897.753 1367.38 899.933 1367.93 901.977C1368.47 903.884 1370.38 905.11 1372.43 904.701L1346.12 913.149C1316.81 934.949 1323.35 905.928 1254.65 902.249L1052.08 897.208C979.7 899.388 700.935 911.65 591.882 907.29H531.903C491.827 902.249 388.09 899.933 384.274 899.797L160.307 901.431Z" fill="#F5F5FC"/>
<path d="M239.69 572H301.032C301.032 572 320.116 574.725 321.479 588.35C322.843 601.975 321.071 779.234 321.071 779.234L444.163 777.735C444.163 777.735 456.432 781.823 456.432 795.447C456.432 809.072 446.89 814.522 446.89 814.522L259.865 813.705L239.69 572Z" fill="#BAC6F2"/>
<path d="M239.69 572C239.69 572 221.969 574.725 220.606 601.975C219.243 629.224 220.606 813.16 220.606 813.16L407.495 814.522C410.221 814.522 412.811 813.432 414.583 811.388C417.309 808.391 420.99 803.759 420.99 799.535C420.99 792.177 418.263 780.46 403.269 780.46C388.274 780.46 261.501 779.098 261.501 779.098L258.774 588.35C258.774 588.486 258.774 574.725 239.69 572Z" fill="#B1C1F2"/>
<path d="M317.935 814.113C317.935 814.113 314.664 829.509 325.569 829.509H343.29C344.653 829.509 350.515 821.334 346.834 814.522C343.153 807.709 317.935 814.113 317.935 814.113Z" fill="#BAC6F2"/>
<path d="M325.569 829.646L326.932 983.47H339.2L339.882 828.692L325.569 829.646Z" fill="#E9EDFA"/>
<path d="M275.132 980.745L392.364 982.108V993.007L275.132 991.645V980.745Z" fill="#E9EDFA"/>
<path d="M1444.69 976.947L1446.04 1091.84L1600.21 1089.14V976.947H1444.69Z" fill="#E9EDFA"/>
<path d="M1566.4 1089.68L1566.53 976.947H1556.66" fill="white"/>
<path d="M1484.72 976.677C1484.72 976.677 1481.07 908.551 1513.25 889.222C1545.44 869.892 1517.85 824.745 1524.34 800.82C1530.83 776.895 1561.13 759.323 1561.13 740.94C1561.13 722.557 1558.42 670.922 1593.31 655.377C1628.2 639.833 1655.93 659.973 1644.97 690.386C1634.02 720.8 1625.63 755.809 1613.6 766.758C1601.56 777.706 1606.29 795.278 1608.05 816.5C1609.81 837.722 1593.31 872.596 1584.12 885.572C1574.92 898.548 1584.12 920.581 1581.41 943.56C1581.41 943.56 1576.41 975.73 1571.27 976.812C1566.13 977.893 1484.72 976.677 1484.72 976.677Z" fill="#BAC6F2"/>
<path d="M1556.66 978.839C1556.66 978.839 1560.72 946.398 1524.75 937.207C1488.77 928.015 1519.61 906.523 1512.44 895.169C1505.27 883.815 1471.33 875.434 1471.33 866.783C1471.33 858.132 1474.44 833.531 1435.36 826.097C1396.27 818.663 1365.44 828.26 1377.74 842.723C1390.05 857.186 1399.38 873.812 1412.64 879.084C1425.89 884.355 1420.88 892.601 1418.86 902.739C1416.83 912.876 1435.35 929.502 1445.63 935.585C1455.91 941.667 1445.63 952.211 1448.74 963.16C1448.74 963.16 1454.42 978.434 1459.97 978.974C1465.51 979.515 1556.66 978.839 1556.66 978.839Z" fill="#BAC6F2"/>
<path d="M1526.64 978.704C1526.64 978.704 1523.8 944.776 1548.82 935.179C1573.84 925.582 1552.47 903.144 1557.34 891.249C1562.21 879.354 1586.01 870.703 1586.01 861.512C1586.01 852.32 1583.84 826.773 1611.03 818.933C1638.21 811.093 1659.71 821.231 1651.06 836.37C1642.4 851.509 1636.05 868.811 1626.71 874.353C1617.38 879.895 1621.03 888.546 1622.39 899.089C1623.74 909.632 1610.89 927.069 1603.72 933.422C1596.56 939.775 1603.72 950.859 1601.56 962.213C1601.56 962.213 1597.64 978.163 1593.72 978.704C1589.8 979.245 1526.64 978.704 1526.64 978.704Z" fill="#BAC6F2"/>
<path d="M113.551 1022.56C113.551 1022.56 125.547 957.43 62.2962 922.551C-0.81788 887.671 -3.81682 888.08 -16.3579 884.129C-23.5826 881.676 -30.9436 886.854 -22.6284 897.208C-14.3131 907.7 -19.0842 910.288 -2.45367 914.921C14.1768 919.553 16.6305 939.718 24.9458 944.759C33.261 949.8 40.4857 951.163 65.8404 962.063C88.8778 972.009 108.507 1000.08 108.507 1009.89C108.507 1019.7 130.999 1023.1 130.999 1023.1L113.551 1022.56Z" fill="url(#paint0_linear)"/>
<path d="M111.37 1013.43C111.37 1013.43 127.455 953.479 72.111 921.052C16.7669 888.625 -2.45365 889.033 -13.4952 885.082C-19.7657 882.766 -2.58997 890.668 4.63476 900.206C11.8595 909.879 10.0874 907.699 23.0374 914.784C38.0321 923.096 44.3026 931.134 53.1631 932.769C65.9768 935.222 62.1599 948.574 84.3794 958.52C104.418 967.649 107.008 992.037 107.008 1001.17C107.008 1010.43 126.637 1013.43 126.637 1013.43H111.37Z" fill="url(#paint1_linear)"/>
<path d="M166.987 1004.57L173.257 998.577C176.256 995.852 179.937 993.808 183.89 992.718C203.383 987.541 264.861 968.33 290.352 921.869C290.625 921.46 290.352 920.915 289.943 920.779H289.807C289.671 920.779 289.534 920.643 289.534 920.643C281.083 919.962 237.325 919.28 178.846 969.147C177.756 969.965 176.801 971.055 175.983 972.009C174.484 974.052 172.03 977.595 170.94 979.366C169.44 982.091 172.439 986.587 168.35 990.538C164.26 994.489 155.4 1004.44 155.4 1004.44L162.625 1009.75L166.987 1004.57Z" fill="url(#paint2_linear)"/>
<path d="M133.726 1000.76C133.726 1000.76 150.492 850.748 104.69 803.606C62.5689 760.279 61.8873 800.063 62.0236 806.876C62.0236 807.557 62.2963 807.966 62.4326 808.511C72.3836 827.04 75.7915 848.431 72.2473 869.141C67.8852 890.805 98.9652 887.943 101.691 909.334C104.418 930.725 115.187 963.698 114.096 978.821C113.006 993.945 112.869 1008.66 112.869 1008.66L129.772 1009.2L133.726 1000.76Z" fill="url(#paint3_linear)"/>
<path d="M133.589 1001.17C133.726 1000.89 133.862 1000.48 133.862 1000.08C134.953 990.266 148.993 848.976 104.827 803.469C62.9779 760.279 62.2963 799.382 62.5689 806.467C62.7053 807.284 63.1142 808.102 63.5231 808.783C66.6584 813.279 80.4263 832.899 92.6947 830.719C126.637 824.724 96.6478 865.462 115.05 887.262C129.773 904.429 124.865 963.834 123.775 979.093C123.093 987.677 121.594 996.125 119.413 1004.44C119.004 1006.62 120.503 1008.66 122.548 1009.07C122.684 1009.07 122.82 1009.07 122.82 1009.07C123.093 1009.07 123.366 1009.2 123.638 1009.2H126.774C128.682 1009.34 130.318 1008.39 131.136 1006.75L133.589 1001.17Z" fill="url(#paint4_linear)"/>
<path d="M150.083 1009.89C150.083 1009.89 153.082 968.33 177.347 942.988C184.162 936.039 192.75 931.271 202.156 929.091C209.381 927.456 221.24 921.597 231.6 902.113C231.6 902.113 251.093 874.455 270.723 866.144C290.216 857.696 270.723 856.743 270.723 856.743C270.723 856.743 214.833 867.37 178.982 900.07C176.665 902.113 174.348 904.021 171.758 905.656C162.488 912.06 136.724 935.903 137.815 1005.8L150.083 1009.89Z" fill="url(#paint5_linear)"/>
<path d="M198.612 1006.62C198.612 1006.62 199.43 1001.57 192.75 1001.71C186.889 1001.98 88.1962 1001.17 88.1962 1001.17C88.1962 1001.17 83.5615 1001.17 83.8341 1004.71C84.1067 1008.25 99.1014 1090.41 100.465 1092.04C101.146 1093.13 102.1 1093.95 103.327 1094.22C105.236 1094.77 174.484 1094.36 174.484 1094.36C176.12 1094.09 177.347 1092.86 177.483 1091.23C177.483 1091.23 198.748 1007.57 198.612 1006.62Z" fill="url(#paint6_linear)"/>
<path d="M1042.74 863.941C1056.06 893.791 1069.9 923.94 1087.93 951.4C1087.89 951.446 1087.84 951.491 1087.82 951.54C1084.34 957.843 1075.24 959.063 1066.48 957.912C1062.86 957.081 1059.18 956.18 1056.02 955.382C1055.24 955.099 1054.49 954.802 1053.78 954.494C1054.53 953.934 1054.9 953.232 1054.43 952.514C1024.28 906.509 992.434 860.725 970.695 810.109C960.057 785.34 953.202 760.989 966.569 735.864C968.202 732.801 970.036 729.782 972.009 726.807C974.52 723.383 976.923 720.123 979.188 717.053C983.203 712.103 987.626 707.35 992.373 702.878C993.14 702.807 993.893 702.574 994.447 702.156C1000.62 697.498 1006.63 692.448 1012.2 686.993C1018.84 682.494 1025.75 678.574 1032.71 675.34C1033.78 676.441 1037.19 676.454 1038.55 675.046C1039.94 673.604 1041.48 672.538 1043.1 671.75L1067.63 673.114C1071.91 674.45 1076.02 675.896 1079.63 676.773C1082.6 677.497 1085.61 677.821 1088.64 677.876C1070.21 685.591 1050.53 690.614 1033.04 700.641C1008.82 714.519 996.347 738.878 1001.67 765.993C1004.88 782.328 1014.15 798.217 1020.72 813.451C1027.99 830.311 1035.25 847.172 1042.74 863.941ZM1116.11 674.419C1111.74 675.048 1107.28 675.925 1102.79 676.64C1082.85 686.895 1060.16 691.422 1040.32 702.18C1009.62 718.834 999.717 749.016 1013.6 780.394C1038.51 836.683 1059.71 896.562 1093.78 948.363C1093.9 948.394 1094.01 948.434 1094.12 948.487C1105.14 954.456 1129.76 953.435 1137.13 942.12C1136.54 941.858 1136.09 941.409 1135.91 940.711C1127.63 907.324 1115.24 875.124 1106.35 841.905C1102.68 828.175 1099.05 812.727 1092.94 798.773C1092.56 798.585 1092.47 798.299 1092.6 797.967C1087.64 786.848 1081.06 776.731 1071.55 769.273C1069.89 767.968 1071.06 766.095 1072.56 765.295C1075.15 763.909 1077.79 762.783 1080.47 761.86C1081.35 761 1082.7 760.272 1083.89 760.278C1084.54 760.281 1085.2 760.283 1085.85 760.285C1108.29 754.79 1133.11 761.344 1155.48 754.708C1186.43 745.53 1204.7 721.113 1205.24 689.637C1205.25 689.157 1205.43 688.738 1205.7 688.375C1176.01 682.707 1146.33 670.06 1116.11 674.419ZM1137.54 947.092C1139.61 946.082 1140.89 945.387 1140.89 945.387C1140.89 945.387 1140.8 945.094 1140.65 944.576C1139.71 945.48 1138.67 946.313 1137.54 947.092ZM1295.55 366.381C1298.9 365.661 1301.94 364.073 1304.52 361.931C1299.96 364.064 1294.59 366.135 1290.33 366.491C1291.78 366.815 1293.49 366.821 1295.55 366.381ZM1284.34 353.678C1284.12 355.078 1284.05 356.482 1284.14 357.831C1284.13 356.474 1284.2 355.065 1284.34 353.678ZM1371.11 554.545C1356.7 550.005 1343.41 541.805 1332.05 532.133C1331.69 531.827 1331.48 531.511 1331.38 531.196C1314.46 532.328 1288.64 535.371 1276.34 524.035C1275.24 523.021 1274.32 521.945 1273.54 520.824C1272.66 520.093 1272.12 519.079 1271.86 517.834C1265.26 502.817 1280.84 481.379 1288.42 470.01C1290.12 467.465 1296.21 468.559 1293.91 471.999C1293.47 472.67 1292.96 473.43 1292.4 474.261C1293.1 474.008 1294.94 473.246 1295.92 471.908C1291.81 464.289 1289.03 453.357 1297.53 449.102C1309.87 442.92 1318.39 454.3 1326.55 461.718C1333.65 468.163 1340.48 476.903 1349.03 481.492C1352.96 483.601 1357.05 485.408 1361.21 487.071C1355.34 464.883 1349.6 442.683 1346.42 419.932C1346.12 417.748 1352.69 416.311 1352.95 418.213C1355.41 435.859 1359.43 453.171 1363.84 470.404C1382.49 470.101 1400.66 467.676 1415.22 455.543C1409.75 442.112 1405.61 428.224 1400.44 414.678C1396.71 404.882 1392.51 393.748 1386.51 384.27C1384.94 381.991 1383.36 379.787 1381.78 377.714C1380.29 375.891 1378.72 374.166 1377.02 372.591C1360.96 357.732 1336.43 356.489 1319.46 343.53C1319.64 344.327 1319.83 345.113 1320.04 345.869C1320.3 346.814 1319.71 347.634 1318.8 348.199C1316.13 359.087 1305.52 366.784 1294.32 368.697C1289.93 369.448 1283.73 369.951 1280.2 366.571C1275.64 362.206 1277.05 355.838 1278.97 350.547C1279.07 350.267 1279.35 350.019 1279.73 349.8C1280.29 348.154 1280.72 346.624 1280.99 345.222L1280.76 345.293C1280.61 345.909 1279.85 346.639 1278.31 347.129C1263.29 351.913 1247.28 354.363 1232.73 360.485C1223.45 364.394 1216.23 369.787 1210.85 376.662C1207.82 382.128 1204.65 388.397 1202.08 393.652C1201.47 395.566 1200.93 397.533 1200.48 399.582C1200.34 400.224 1199.5 400.764 1198.47 401.13C1198.33 401.429 1198.2 401.703 1198.07 401.971C1205.82 407.409 1213.78 412.638 1220.32 419.686C1223.43 423.035 1226.28 426.574 1228.83 430.253C1229.08 424.342 1229.34 418.428 1229.36 412.51C1229.38 410.406 1235.9 409.378 1235.9 410.791C1235.85 420.262 1235.24 429.717 1235 439.181V440.548C1245.93 462.054 1246.85 486.872 1231.47 508.41C1235.31 516.892 1238.35 525.759 1241.04 534.033C1246.82 551.737 1252.78 569.529 1258.08 587.37C1259.4 591.802 1260.97 597.016 1261.98 602.38C1262.03 602.384 1262.08 602.38 1262.12 602.387C1303.59 608.542 1339.7 599.966 1376.48 581.573C1375.81 572.628 1372.22 564.231 1370.96 555.334C1370.93 555.057 1370.99 554.793 1371.11 554.545ZM1245.52 571.073C1245.62 571.387 1246.01 572.295 1246.58 573.595C1245.85 571.394 1245.11 569.195 1244.38 566.995C1245 569.263 1245.41 570.754 1245.52 571.073ZM1338.69 529.894C1343.6 533.962 1349.03 537.983 1354.83 541.526L1338.97 529.59C1338.88 529.697 1338.79 529.796 1338.69 529.894ZM1314.4 527.116C1307.38 526.651 1299.7 526.02 1292.82 525.187C1299.7 526.833 1307.05 527.225 1314.4 527.116ZM1340.62 482.48L1343.2 485.432L1347.78 486.719C1345.2 485.497 1342.78 484.095 1340.62 482.48ZM1219.97 363.614C1219.33 363.884 1218.5 364.704 1217.54 365.924C1219.55 364.615 1221.63 363.408 1223.79 362.285C1221.95 362.881 1220.62 363.342 1219.97 363.614ZM673.554 480.303C673.379 480.329 673.207 480.349 673.036 480.36C674.305 481.567 675.795 483.346 676.577 485.492C676.28 483.864 675.071 481.99 673.554 480.303ZM759.534 612.207C759.516 612.201 759.5 612.194 759.486 612.185C759.389 612.137 759.369 612.059 759.387 611.973C756.923 607.973 754.628 603.906 752.487 599.851C740.267 576.681 731.018 551.564 727.19 525.666C726.823 523.174 733.385 521.661 733.723 523.947C735.876 538.538 739.74 553.035 744.926 567.02C759.423 554.388 773.061 539.697 784.546 524.476C784.526 524.465 784.499 524.461 784.478 524.45C767.157 514.372 754.903 498.084 738.47 486.883C720.577 474.686 700.672 477.813 680.195 478.261C682.56 480.679 684.53 483.718 683.13 486.879C681.818 489.838 677.941 491.368 674.684 492.086C670.083 494.217 660.151 492.622 656.235 491.339C654.998 490.934 653.625 490.13 652.257 489.149C649.401 487.696 646.82 485.798 644.689 483.459C619.736 491.949 597.899 505.825 585.154 529.353C573.385 551.079 567.459 575.363 560.07 598.73C559.973 599.036 559.792 599.312 559.56 599.563C580.837 602.761 602.225 602.958 623.525 600.054C620.105 584.734 618.349 569.051 619.58 553.493C619.733 551.546 626.189 550.824 626.113 551.775C624.143 576.692 629.636 602.511 637.909 625.973C645.9 648.638 656.605 672.388 675.004 688.802C675.047 688.84 675.058 688.884 675.08 688.926C675.108 688.955 675.141 688.977 675.164 689.01C694.717 677.278 716.83 669.415 738.452 662.275C757.37 656.029 777.844 651.326 797.995 651.645C781.685 642.671 769.267 627.973 759.534 612.207ZM555.926 602.635C555.926 602.635 556.359 602.608 557.083 602.573C556.72 602.522 556.355 602.48 555.992 602.427L555.926 602.635Z" fill="#EB144C"/>
<path d="M695.179 407.036C695.735 412.274 691.234 415.809 687.266 418.511C684.823 420.177 679.377 418.411 683.026 415.924C685.58 414.183 690.143 411.124 688.24 407.463C686.466 404.043 682.116 402.077 678.822 400.418C675.754 398.874 681.602 395.751 683.912 396.914C687.706 398.823 694.656 402.114 695.179 407.036ZM663.897 405.97C664.862 405.53 666.618 404.028 665.495 402.861C664.22 401.536 663.904 400.158 663.902 398.382C663.9 396.816 662.304 396.353 660.937 396.473C659.747 396.577 657.308 397.423 657.308 398.956C657.311 401.49 657.646 403.691 659.493 405.605C660.606 406.761 662.542 406.59 663.897 405.97ZM683.768 388.397C683.901 390.752 686.155 392.639 687.733 394.189C688.062 394.513 689.016 394.409 689.392 394.375C690.258 394.302 691.121 394.099 691.935 393.811C692.401 393.647 694.705 392.816 693.891 392.014C692.404 390.55 690.425 388.896 690.301 386.677C690.24 385.567 683.671 386.646 683.768 388.397ZM646.689 395.14C648.37 391.766 649.696 386.909 653.248 384.975C654.299 384.404 655.061 382.891 653.738 382.16C652.279 381.359 650.424 381.952 649.087 382.679C644.468 385.193 642.73 390.389 640.542 394.774C639.049 397.771 645.627 397.266 646.689 395.14ZM675.382 374.916C677.269 374.916 679.158 374.916 681.045 374.916C682.418 374.916 684.453 373.897 684.67 372.417C684.909 370.767 682.873 370.481 681.696 370.481C679.81 370.481 677.921 370.481 676.034 370.481C674.661 370.481 672.625 371.5 672.409 372.98C672.168 374.632 674.206 374.916 675.382 374.916ZM891.333 438.055C903.021 415.545 860.726 397.888 882.592 376.3C884.237 374.674 877.849 375.285 876.605 376.515C853.882 398.951 896.561 416.493 884.853 439.043C884.143 440.409 890.405 439.842 891.333 438.055ZM896.18 400.09C895.472 401.456 901.732 400.887 902.661 399.102C914.349 376.592 872.053 358.935 893.919 337.347C895.565 335.721 889.176 336.332 887.932 337.562C865.21 359.998 907.888 377.54 896.18 400.09ZM908.887 653.232C920.575 630.723 878.279 613.066 900.145 591.479C901.791 589.854 895.402 590.465 894.158 591.694C871.436 614.129 914.114 631.673 902.406 654.222C901.698 655.587 907.958 655.018 908.887 653.232ZM920.212 614.277C931.902 591.767 889.607 574.11 911.47 552.524C913.116 550.898 906.727 551.51 905.483 552.739C882.763 575.173 925.442 592.718 913.731 615.267C913.023 616.632 919.285 616.065 920.212 614.277ZM1504.82 761.245C1504.82 772.689 1504.82 784.131 1504.82 795.576C1504.82 795.992 1504.42 796.358 1503.82 796.659C1503.56 797.713 1501.02 799.257 1499.44 799.246C1458.66 798.971 1417.87 798.805 1377.08 798.692C1380.38 835.24 1383.8 871.807 1389.09 908.138C1391.85 913.781 1394.62 919.418 1397.38 925.064C1418.47 968.177 1439.53 1011.3 1460.57 1054.44C1461.38 1056.11 1458.08 1057.45 1456.96 1057.48C1445.22 1057.73 1431.11 1060.14 1419.62 1057.62C1419.43 1057.58 1419.29 1057.52 1419.14 1057.47C1418.4 1057.5 1417.65 1057.39 1417.02 1057.08C1417.01 1057.07 1417 1057.06 1416.98 1057.06C1416.1 1056.62 1415.96 1056.06 1416.24 1055.49C1415.92 1054.56 1412.01 1048.26 1411.12 1046.71C1406.95 1039.45 1402.75 1032.23 1398.53 1025C1394.57 1018.21 1390.61 1011.42 1386.64 1004.64C1386.1 1004.81 1385.59 1004.93 1385.21 1004.93C1359.85 1004.99 1334.5 1005.98 1309.13 1006.04C1306.59 1006.05 1307.32 1005.09 1308.74 1004.29C1308.68 1004.12 1308.64 1003.94 1308.65 1003.73C1308.9 988.629 1312.11 973.951 1317.8 959.959C1311.59 956.526 1306.72 951.58 1306.58 944.076C1306.3 929.394 1306.49 914.674 1307.03 899.998C1307.29 892.891 1305.52 878.653 1309.29 871.446C1295.87 847.878 1282.69 824.181 1270.03 800.227C1265.67 852.474 1258.33 904.415 1252.88 956.553C1252.81 957.208 1251.99 957.784 1250.97 958.174C1251.17 958.657 1250.9 959.275 1249.82 959.995C1248.95 960.573 1248.03 961.08 1247.12 961.594C1247.15 961.636 1247.2 961.669 1247.23 961.716C1258.25 979.145 1253.81 997.435 1237.06 1009.18C1237.04 1009.2 1236.99 1009.22 1236.96 1009.24C1236.08 1010.16 1234.57 1011 1233.32 1011C1199.34 1011 1165.36 1011 1131.37 1011C1129.1 1011 1129.08 1009.92 1129.97 1008.86C1129.41 1008.37 1129.14 1007.64 1129.43 1006.64C1130.23 1003.94 1131.2 1001.46 1132.26 999.103C1120.75 1010.71 1107.45 1019.66 1098.71 1021.28C1087.37 1023.39 1068.91 1023.22 1065.98 1012.12C1054.69 1019.32 1028.43 1028.34 1020.58 1011.64C1013.87 997.326 1022.61 987.814 1031.25 978.048C1029.38 979.612 1027.57 981.021 1026 982.219C1013.33 991.929 997.765 1004.48 981.287 1007.18C975.219 1008.18 968.997 1007.85 962.771 1007.29C940.198 1012.65 922.948 991.45 910.83 974.883C910.62 974.814 910.438 974.717 910.314 974.564C890.937 950.639 863.235 935.343 842.898 912.39C839.848 908.951 836.915 905.434 834.039 901.879C832.057 904.964 829.76 907.405 827.236 909.281C827.387 909.567 827.484 909.896 827.488 910.291C827.693 931.726 848.276 1040.41 796.218 1018.64C773.757 1009.25 768.947 971.559 766.109 951.224C764.109 936.936 762.779 922.313 763.625 907.883C764.094 899.85 764.418 889.21 770.115 882.755C770.496 882.324 771.021 882.018 771.609 881.825C771.643 879.395 772.238 876.859 773.6 874.197C779.469 862.706 787.249 853.65 789.489 840.507C789.559 840.092 789.83 839.723 790.211 839.401C788.836 837.335 787.461 835.268 786.072 833.209C778.065 821.35 769.592 810.121 760.721 799.226C686.876 799.226 613.034 799.226 539.189 799.226C537.124 810.271 532.837 820.035 525.808 828.923C525.691 829.071 525.504 829.209 525.287 829.339C571.194 829.339 617.1 829.339 663.009 829.339C666.111 829.339 665.06 831.397 663.192 832.626C663.192 903.879 663.192 975.129 663.192 1046.38C667.285 1046.51 663.381 1050.55 660.617 1050.55C571.888 1050.55 483.157 1050.55 394.427 1050.55C393.111 1050.55 392.554 1050.18 392.477 1049.66C392.407 1049.56 392.356 1049.45 392.356 1049.32C392.356 976.976 392.356 904.634 392.356 832.292C392.356 831.621 392.921 831.054 393.715 830.626C394.594 829.909 395.786 829.339 396.819 829.339C424.958 829.339 453.099 829.339 481.238 829.339C487.996 820.427 494.709 810.969 496.934 799.89C496.981 799.653 497.178 799.43 497.459 799.226C487.228 799.226 476.996 799.226 466.762 799.226C464.889 799.226 464.659 798.595 465.182 797.87C463.922 797.78 462.873 797.186 462.873 795.897C462.873 785.385 462.873 774.873 462.873 764.361C462.873 763.077 464.352 762.167 465.91 761.899C466.865 761.15 468.322 760.485 469.343 760.485C472.902 760.485 476.464 760.485 480.023 760.485C476.367 759.814 472.963 758.758 470.044 757.128C465.179 754.41 465.078 747.98 469.737 744.82C476.928 739.94 488.44 740.957 496.72 739.659C532.523 734.049 559.204 701.944 567.968 668.96C571.636 655.164 573.942 641.334 573.944 627.037C573.944 619.859 572.582 612.917 572.357 605.81C572.339 605.234 572.675 604.731 573.189 604.328C567.815 603.94 562.441 603.342 557.078 602.576C556.715 602.525 556.35 602.483 555.987 602.43C555.55 602.365 555.11 602.321 554.673 602.255C553.271 602.04 553.505 601.482 554.355 600.919C553.618 600.669 553.194 600.144 553.467 599.282C561.747 573.1 567.826 543.873 583.759 520.856C598.043 500.222 618.575 487.936 641.998 479.814C641.189 474.924 640.983 468.49 638.335 464.439C634.124 457.991 627.715 459.462 621.178 461.455C612.966 463.958 607.195 460.729 605.37 451.874C604.998 450.068 604.853 448.372 604.892 446.784C590.447 436.859 580.238 423.231 577.422 408.196C576.897 406.023 576.617 403.793 576.662 401.448C576.327 392.169 578.835 382.506 584.906 372.964C589.135 366.317 594.306 360.366 600.142 355.152C604.662 350.459 609.914 346.873 615.356 344.155C626.847 337.54 639.795 333.364 653.138 332.1C652.953 330.556 652.946 329.057 653.057 327.584C652.915 326.627 652.78 325.612 652.662 324.483C652.299 320.926 653.866 318.062 656.418 315.876C656.727 315.214 657.036 314.549 657.371 313.88C657.987 312.647 661.449 312.042 663.047 312.243C663.273 312.166 663.496 312.093 663.724 312.022C664.833 311.271 667.551 310.221 668.388 310.199C678.876 309.916 690.882 313.296 694.976 323.978C697.426 330.366 697.354 337.396 694.935 343.653C692.683 350.86 688.36 357.334 684.221 359.921C684.038 360.036 683.797 360.142 683.597 360.255C685.148 359.56 687.257 359.338 688.159 360.262C697.183 369.491 704.511 380.967 710.796 392.105C715.728 400.845 723.18 412.362 722.497 422.825C721.778 433.862 713.724 441.763 704.881 447.608C693.082 455.406 681.773 462.066 677.675 475.947C677.695 475.965 677.715 475.98 677.733 475.998C678.671 475.369 679.895 474.855 680.777 474.844C700.174 474.607 722.055 470.279 739.464 481.117C757.73 492.483 770.845 510.351 789.39 521.259C790.129 521.188 790.842 521.219 791.39 521.37C794.507 514.65 797.722 507.974 801.155 501.403C805.571 492.955 807.956 480.122 817.202 475.407C816.481 475.342 815.96 475.11 815.917 474.649C813.097 445.98 840.939 446.303 861.939 446.279C882.774 446.254 903.558 444.919 924.375 444.445C926.129 443.749 928.413 443.933 928.872 445.623C932.312 458.255 932.59 472.656 933.282 485.631C933.994 499.022 937.206 522.225 927.574 533.574C924.161 537.594 919.975 537.906 914.975 538.438C905.494 539.445 895.95 540.38 886.404 540.431C878.514 540.475 854.087 541.439 855.156 528.71C849.85 529.485 843.865 530.023 838.227 529.359C826.009 552.008 826.866 579.827 813.079 601.867C802.683 618.485 786.638 621.735 770.135 616.594C779.24 629.927 790.416 641.903 804.777 649.345C804.976 649.447 805.12 649.56 805.233 649.675C822.872 651.587 841.065 658.761 857.349 665.215C866.271 668.752 876.336 672.663 885.838 677.536C886.724 677.055 887.752 676.692 888.473 676.692C907.352 676.692 926.231 676.692 945.109 676.692C947.774 676.692 947.019 677.873 945.533 678.805C946.437 679.104 947.098 679.769 947.098 680.867C947.098 683.002 947.098 685.14 947.098 687.277C953.164 684.015 959.175 681.523 961.624 680.309C962.205 680.021 963.152 679.873 964.085 679.857C963.055 679.368 962.724 678.415 964.353 677.151C978.927 665.85 988.723 647.808 996.049 631.385C1003.43 614.833 1009.87 596.875 1010.24 578.611C1010.24 578.443 1010.28 578.281 1010.35 578.124C1000.95 551.908 991.719 525.627 980.949 499.947C980.491 498.858 982.123 497.801 983.888 497.394C985.529 496.178 988.814 496.085 989.456 497.989C989.021 496.532 987.466 496.816 990.067 497.126C991.395 497.283 992.727 497.427 994.059 497.551C998.101 497.93 1002.15 498.257 1006.2 498.561C1015.95 499.29 1025.71 499.936 1035.47 500.554C1035.51 500.459 1035.55 500.362 1035.63 500.253C1042.97 489.876 1054.46 482.731 1065.23 475.728C1034.53 467.566 1033.92 419.206 1033.96 391.968C1033.34 391.873 1032.82 391.633 1032.55 391.182C1014.29 360.481 1029.76 317.245 1069.68 319.028C1069.98 319.041 1070.23 319.074 1070.46 319.114C1077.81 313.925 1086.65 310.208 1096.03 307.749C1096.3 307.679 1096.57 307.599 1096.84 307.53C1098.63 307.074 1100.45 306.677 1102.27 306.31C1104.61 305.605 1108.13 304.819 1113.72 304.556C1121.68 303.705 1129.57 303.585 1136.81 304.077C1148.93 304.901 1162.6 307.82 1171.07 317.238C1179.09 326.155 1180.11 336.804 1179.01 348.271C1177.9 359.879 1173.41 380.309 1182.93 389.826C1186.43 393.321 1190.31 396.358 1194.3 399.266C1198.13 383.297 1206.57 373.09 1217.54 365.928C1219.54 364.619 1221.63 363.411 1223.78 362.289C1239.61 354.043 1259.24 350.319 1277.57 344.479C1279.84 343.754 1280.96 344.403 1280.75 345.296C1280.6 345.912 1279.84 346.643 1278.3 347.132C1263.28 351.916 1247.27 354.366 1232.72 360.488C1223.44 364.397 1216.22 369.79 1210.84 376.665C1207 381.567 1204.09 387.228 1202.07 393.656C1201.46 395.569 1200.92 397.536 1200.47 399.585C1200.33 400.227 1199.49 400.768 1198.46 401.133C1198.09 401.264 1197.71 401.37 1197.31 401.45C1197.56 401.627 1197.82 401.8 1198.06 401.975C1205.81 407.412 1213.77 412.642 1220.31 419.689C1223.42 423.038 1226.27 426.577 1228.82 430.256C1229.07 424.345 1229.33 418.431 1229.36 412.513C1229.37 410.409 1235.9 409.381 1235.89 410.794C1235.84 420.265 1235.23 429.72 1234.99 439.185C1234.98 439.621 1234.97 440.057 1234.96 440.494C1234.97 440.511 1234.98 440.531 1234.99 440.549C1245.92 462.055 1246.84 486.873 1231.46 508.411C1235.3 516.893 1238.34 525.76 1241.03 534.034C1246.81 551.738 1252.77 569.53 1258.07 587.371C1259.39 591.803 1260.96 597.017 1261.97 602.381C1262.02 602.385 1262.07 602.381 1262.11 602.388C1303.58 608.543 1339.69 599.967 1376.47 581.574C1375.8 572.629 1372.21 564.232 1370.95 555.335C1370.91 555.056 1370.97 554.792 1371.1 554.542C1356.68 550.001 1343.4 541.802 1332.03 532.13C1331.68 531.824 1331.47 531.507 1331.37 531.193C1314.44 532.324 1288.63 535.368 1276.33 524.032C1275.23 523.018 1274.31 521.941 1273.53 520.82C1272.86 519.857 1272.3 518.86 1271.84 517.83C1265.24 502.813 1280.83 481.376 1288.4 470.007C1290.1 467.462 1296.19 468.556 1293.9 471.996C1293.45 472.667 1292.94 473.427 1292.38 474.257C1284.19 486.505 1265.81 514.893 1285.7 522.958C1287.99 523.888 1290.37 524.606 1292.8 525.186C1299.69 526.829 1307.03 527.221 1314.38 527.115C1322.01 527.002 1329.63 526.371 1336.73 526.092C1339.71 525.974 1340.13 528.118 1338.95 529.589C1338.87 529.695 1338.78 529.795 1338.67 529.893C1343.58 533.961 1349.01 537.981 1354.81 541.525C1365.69 548.17 1377.82 553.14 1390.04 553.614C1399.95 554.002 1411.7 551.957 1415.64 541.804C1417.96 535.815 1418.74 529.299 1418.79 522.918C1418.92 509.046 1416.82 495.228 1414.04 481.655C1413.17 477.371 1409.92 469.856 1410.35 464.988C1396.79 472.625 1381.04 474.82 1365.06 475.221C1366.35 480.158 1367.65 485.09 1368.96 490.023C1369.81 490.333 1370.66 490.649 1371.51 490.953C1378.48 493.449 1385.51 495.768 1392.49 498.24C1394.6 498.988 1398.75 499.708 1400.14 501.677C1400.82 502.639 1394.83 505.121 1393.61 503.396C1392.29 501.533 1385.73 500.395 1383.68 499.691C1377.84 497.69 1371.99 495.724 1366.19 493.613C1365.7 493.431 1365.17 493.252 1364.65 493.072C1363.7 493.11 1362.91 492.904 1362.63 492.364C1357.82 490.714 1352.56 488.979 1347.77 486.714C1345.18 485.491 1342.76 484.091 1340.61 482.476C1340.08 482.08 1339.53 481.704 1339.04 481.278C1328.15 471.834 1318.23 461.309 1306.99 452.221C1304.69 450.363 1302.88 450.232 1301.54 451.061C1301.23 451.249 1300.94 451.47 1300.69 451.75C1298.92 453.694 1298.35 457.65 1299.02 460.744C1300.11 465.77 1301.98 470.417 1305.17 474.53C1306.34 476.045 1300.09 478.16 1299.04 476.806C1298.01 475.48 1296.91 473.79 1295.9 471.905C1291.79 464.286 1289.01 453.353 1297.51 449.098C1309.85 442.917 1318.37 454.297 1326.54 461.714C1333.63 468.16 1340.46 476.899 1349.01 481.489C1352.94 483.597 1357.04 485.405 1361.19 487.068C1355.32 464.879 1349.58 442.68 1346.4 419.928C1346.1 417.745 1352.67 416.307 1352.93 418.21C1355.4 435.856 1359.41 453.167 1363.82 470.401C1382.48 470.098 1400.64 467.672 1415.21 455.539C1409.73 442.108 1405.59 428.221 1400.43 414.675C1396.69 404.878 1392.49 393.744 1386.49 384.267C1385.03 381.963 1383.45 379.773 1381.77 377.711C1380.28 375.888 1378.7 374.162 1377 372.588C1360.94 357.728 1336.41 356.486 1319.44 343.526C1319.62 344.324 1319.81 345.11 1320.02 345.865C1320.29 346.811 1319.69 347.63 1318.78 348.195C1316.11 359.084 1305.5 366.78 1294.3 368.694C1289.91 369.445 1283.71 369.948 1280.18 366.568C1275.63 362.202 1277.03 355.834 1278.95 350.543C1279.05 350.264 1279.33 350.016 1279.71 349.797C1280.27 348.151 1280.7 346.621 1280.97 345.218C1285.37 322.804 1254.92 329.918 1240.54 320.199C1218.09 305.027 1237.41 268.021 1238.38 247.514C1238.41 246.907 1238.97 246.404 1239.74 246.016C1239.2 245.799 1238.51 245.525 1237.7 245.199C1220.45 245.56 1204.45 231.939 1208.63 211.422C1212.62 191.892 1242.63 181.86 1255.77 197.502C1268.62 181.267 1307.43 178.95 1310.61 201.934C1316.38 198.755 1323.23 197.486 1329.49 200.49C1337.91 204.534 1341.73 212.742 1342.12 221.571C1342.31 221.655 1342.51 221.75 1342.71 221.839C1363.47 222.432 1381.82 249.259 1365.72 264.265C1375.71 264.885 1382.55 272.325 1380.72 283.45C1379.11 293.233 1371.9 300.25 1362.58 301.317C1356.79 320.343 1336.55 325.98 1318.96 330.884C1318.91 330.897 1318.87 330.899 1318.82 330.913C1318.59 332.441 1318.48 334.002 1318.5 335.564C1319.05 335.588 1319.51 335.719 1319.78 336.005C1337 354.627 1368.86 352.222 1384.91 372.176C1404.01 395.917 1410.31 425.634 1421.48 453.196C1422.51 453.707 1423.08 454.675 1422.45 455.825C1422.41 456.173 1422.1 456.52 1421.62 456.839C1419.75 458.567 1417.8 460.117 1415.79 461.544C1417.07 461.945 1417.34 462.62 1417.06 463.311C1416.39 466.23 1418.86 471.823 1419.47 474.669C1421.02 481.952 1422.47 489.27 1423.49 496.643C1425.44 510.628 1427.73 527.177 1422.47 540.734C1417.16 554.409 1401.79 559.368 1387.69 557.993C1384.4 557.672 1381.16 557.116 1377.96 556.394C1379.68 565.576 1383.17 574.263 1383.13 583.761C1383.13 585.373 1379.38 586.547 1377.57 585.849C1373.05 588.073 1368.53 590.155 1364.01 592.084C1364.16 592.213 1364.25 592.37 1364.25 592.574C1364.42 648.747 1369.44 704.702 1374.33 760.625C1415.94 760.508 1457.55 760.339 1499.16 760.062C1500.62 760.054 1501.42 760.514 1501.74 761.134C1503.32 760.855 1504.82 760.858 1504.82 761.245ZM1358.37 263.977C1359.26 263.339 1360.05 262.648 1360.75 261.919C1359.3 263.153 1358.23 263.946 1358.23 263.946C1358.23 263.946 1358.31 263.964 1358.37 263.977ZM1304.52 361.932C1309.49 357.812 1312.72 351.6 1312.9 345.272C1312.9 345.258 1312.91 345.245 1312.92 345.232C1310.47 334.359 1311.99 322.221 1322.54 316.301C1324.64 315.118 1327.28 315.107 1329.52 314.33C1335.11 312.394 1338.61 307.428 1339.63 302.024C1340.72 296.296 1340.55 286.624 1334.41 286.36C1331.3 287.924 1324.11 291.574 1318.01 287.567C1313.11 287.107 1309.16 284.48 1307.8 278.5C1306.27 271.784 1306.82 263.997 1309.44 257.439C1299.84 258.929 1289.87 256.389 1287.96 247.139C1275.49 255.29 1253.2 258.181 1255.48 240.612C1252.59 242.53 1248.44 244.995 1244.92 246.032C1244.74 249.43 1244.06 253.376 1243.16 257.658C1248.62 255.438 1255.95 255.955 1259.78 259.833C1260.86 260.925 1254.84 263.264 1253.64 262.045C1251.27 259.658 1246.54 257.711 1244.1 260.723C1243.82 261.066 1243.12 261.379 1242.29 261.62C1241.74 264.052 1241.16 266.557 1240.57 269.111C1245.83 266.69 1252.72 267.824 1255.73 273.295C1256.6 274.872 1250.31 277.047 1249.19 275.014C1248.46 273.669 1247.08 272.447 1245.66 271.826C1243.5 270.883 1243.36 270.949 1242.03 272.748C1241.48 273.499 1240.47 273.946 1239.45 274.194C1235.17 294.279 1233.08 315.488 1254.51 321.107C1272 325.692 1294.6 325.006 1286.08 349.219C1285.96 349.56 1285.63 349.863 1285.19 350.124C1284.81 351.274 1284.53 352.468 1284.34 353.677C1284.13 355.077 1284.06 356.481 1284.14 357.83C1284.41 362.001 1286.24 365.578 1290.34 366.49C1291.79 366.814 1293.5 366.82 1295.55 366.379C1298.9 365.66 1301.94 364.074 1304.52 361.932ZM1357.75 594.678C1327.42 606.649 1296.6 611.628 1262.72 607.121C1263.49 613.854 1263.02 620.539 1259.68 625.967C1254.64 634.2 1245 637.976 1235.55 638.895C1225.61 639.863 1215.89 639.225 1206.41 637.394C1209 654.916 1219.87 669.791 1223.16 687.182C1223.59 689.485 1219.85 690.978 1217.83 690.23C1215.84 690.008 1213.86 689.745 1211.87 689.439C1211.61 702.761 1208.25 715.377 1201.92 726.235C1201.54 737.745 1200.53 749.212 1199.61 760.689C1221.56 760.736 1243.51 760.751 1265.46 760.76C1269.54 724.928 1270.53 688.752 1278.14 653.379C1278.17 653.23 1278.27 653.088 1278.41 652.951C1278.32 650.01 1284.82 649.126 1285.04 652.583C1287.42 689.59 1299.68 725.214 1311.53 760.142C1311.6 760.353 1311.62 760.556 1311.63 760.751C1330.31 760.733 1348.99 760.694 1367.67 760.645C1362.84 705.413 1357.94 650.151 1357.75 594.678ZM1271.86 760.222C1271.84 760.419 1271.74 760.596 1271.59 760.765C1282.6 760.767 1293.61 760.769 1304.62 760.762C1294.97 732.297 1285.28 703.481 1280.7 673.782C1276.44 702.425 1275.19 731.44 1271.86 760.222ZM1137.14 942.118C1136.55 941.857 1136.09 941.408 1135.92 940.71C1127.64 907.323 1115.24 875.123 1106.36 841.904C1102.69 828.174 1099.05 812.725 1092.94 798.772C1092.56 798.583 1092.47 798.298 1092.6 797.966C1087.64 786.847 1081.06 776.729 1071.56 769.272C1069.89 767.967 1071.07 766.094 1072.56 765.294C1075.15 763.907 1077.79 762.782 1080.48 761.859C1081.35 760.999 1082.7 760.271 1083.9 760.277C1084.55 760.279 1085.2 760.282 1085.85 760.284C1108.29 754.789 1133.12 761.343 1155.48 754.707C1186.43 745.528 1204.7 721.112 1205.24 689.636C1205.25 689.155 1205.43 688.737 1205.71 688.374C1176.01 682.708 1146.33 670.061 1116.11 674.42C1111.74 675.049 1107.28 675.926 1102.79 676.641C1082.85 686.896 1060.16 691.423 1040.32 702.181C1009.62 718.835 999.719 749.017 1013.6 780.395C1038.51 836.684 1059.71 896.563 1093.78 948.364C1093.9 948.395 1094.02 948.435 1094.12 948.488C1105.14 954.455 1129.76 953.436 1137.14 942.118ZM1013.87 930.548C1025.81 928.136 1033.76 933.777 1039.76 942.012C1009.73 896.86 977.649 850.786 959.441 799.899C959.437 799.886 959.432 799.873 959.428 799.859C934.65 799.859 909.872 799.859 885.089 799.859C877.833 810.096 870.507 820.294 863.956 831.011C874.657 846.839 885.939 862.343 897.738 877.185C908.222 890.375 919.707 902.043 932.75 912.802C944.94 922.862 957.388 932.654 967.606 944.732C985.464 950.081 997.237 933.906 1013.87 930.548ZM888.453 795.088C911.563 795.088 934.672 795.088 957.78 795.088C954.448 785.117 951.908 774.913 951.829 764.35C951.827 764.171 951.84 763.992 951.843 763.812C937.341 763.812 922.843 763.812 908.341 763.812C902.453 774.729 895.556 784.975 888.453 795.088ZM1056.02 955.383C1059.15 956.522 1062.77 957.425 1066.48 957.913C1075.24 959.064 1084.35 957.844 1087.82 951.541C1087.85 951.492 1087.89 951.448 1087.93 951.401C1069.9 923.941 1056.06 893.792 1042.74 863.942C1035.26 847.173 1027.99 830.312 1020.72 813.454C1014.15 798.22 1004.87 782.331 1001.67 765.996C996.345 738.882 1008.82 714.522 1033.03 700.644C1050.53 690.619 1070.21 685.596 1088.64 677.879C1085.61 677.826 1082.6 677.503 1079.63 676.776C1076.02 675.899 1071.9 674.453 1067.63 673.117C1059.23 670.491 1050.2 668.316 1043.1 671.753C1041.47 672.542 1039.94 673.607 1038.55 675.049C1037.19 676.458 1033.78 676.444 1032.71 675.343C1025.74 678.577 1018.84 682.495 1012.19 686.996C1006.63 692.449 1000.62 697.501 994.444 702.159C993.89 702.578 993.137 702.808 992.371 702.881C987.626 707.355 983.203 712.106 979.186 717.056C976.607 720.232 974.209 723.488 972.006 726.81C970.034 729.785 968.199 732.804 966.567 735.867C953.2 760.993 960.055 785.343 970.692 810.112C992.434 860.729 1024.28 906.512 1054.43 952.517C1054.9 953.235 1054.53 953.935 1053.78 954.497C1054.49 954.803 1055.24 955.098 1056.02 955.383ZM1021.19 677.273C1024.82 675.275 1028.52 673.454 1032.28 671.797C1036.22 667.374 1039.74 662.486 1043.35 657.857C1046.3 654.085 1049.35 648.322 1053.37 645.533C1054.02 645.084 1055.49 644.435 1056.82 644.235C1054.7 644.162 1052.59 644.112 1050.48 644.025C1047.37 643.899 1042.91 644.34 1039.34 643.684C1035.97 656.233 1029.45 667.359 1021.19 677.273ZM1083.06 644.958C1074.84 644.769 1066.62 644.557 1058.4 644.286C1058.62 644.357 1058.81 644.459 1058.97 644.605C1058.98 644.612 1058.98 644.619 1058.99 644.628C1059.2 644.791 1059.26 644.995 1059.16 645.241C1059.09 645.436 1058.98 645.606 1058.88 645.784C1058.64 646.191 1058.1 646.521 1057.44 646.783C1054.44 649.607 1050.53 655.985 1047.9 659.334C1045.84 661.977 1043.8 664.71 1041.69 667.372C1047.61 665.015 1054.22 665.148 1061.24 666.48C1067.95 667.755 1074.32 670.294 1080.94 671.906C1087.49 673.501 1094 673.206 1100.51 672.342C1100.64 672.276 1100.77 672.214 1100.9 672.147C1101.93 671.603 1102.98 671.58 1103.82 671.866C1105.57 671.589 1107.33 671.297 1109.09 670.993C1146.07 664.604 1179.8 680.201 1215.77 685.102C1211.63 668.765 1201.58 654.388 1199.63 637.429C1199.57 636.891 1199.73 636.401 1200.03 635.972C1173.82 629.378 1149.59 614.06 1128.03 598.607C1126.33 599.821 1124.42 600.921 1122.33 601.892C1122.45 602.016 1122.56 602.153 1122.63 602.321C1127.95 615.108 1131.47 628.488 1136.79 641.274C1137.26 642.413 1135.47 643.518 1133.63 643.883C1133.23 644.902 1132.05 645.826 1130.39 645.817C1114.61 645.728 1098.82 645.319 1083.06 644.958ZM1086.21 596.569C1082.1 595.521 1077.14 593.854 1072.64 591.493C1082.05 606.024 1111.29 607.196 1123.89 597.329C1124.35 596.968 1125.44 596.669 1126.54 596.518C1126.65 596.361 1126.79 596.193 1126.99 596.009C1130.98 592.334 1132 585.617 1132.44 580.516C1132.72 577.187 1133.47 572.343 1131.67 569.258C1131.61 569.156 1131.58 569.049 1131.56 568.945C1120.32 558.272 1114.93 543.625 1101.38 535.47C1104.25 543.217 1107.16 550.952 1110.34 558.586C1110.57 559.151 1110.24 559.707 1109.63 560.17C1111.15 561.525 1105.76 563.818 1104.01 562.972C1092.84 557.563 1081.1 552.537 1068.83 550.112C1069.21 552.686 1070.58 554.945 1072.57 556.949C1075.72 558.033 1078.73 559.725 1081.4 561.397C1082.36 562.004 1082.52 562.739 1082.21 563.428C1088.42 566.531 1095.28 568.872 1099.31 571.038C1101.96 572.465 1095.93 575.085 1094.1 574.102C1087.84 570.735 1076.13 567.193 1068.76 561.362C1067.34 560.755 1065.88 560.336 1066.28 561.703C1067.47 565.727 1070.43 568.713 1073.92 571.007C1081.05 575.701 1089.15 578.509 1097.15 581.437C1101.08 582.879 1096.39 587.047 1093.43 585.964C1086.46 583.411 1076.77 580.547 1069.48 575.694C1068.58 575.867 1067.71 575.845 1067.2 575.512C1067 575.377 1066.78 575.209 1066.57 575.023C1067.37 585.085 1081.08 590.76 1090.21 593.092C1093.91 594.035 1088.28 597.096 1086.21 596.569ZM1150.04 760.53C1164.43 760.581 1178.83 760.647 1193.22 760.68C1193.88 752.441 1194.56 744.206 1195.02 735.956C1189.01 743.012 1181.45 748.959 1172.32 753.329C1164.97 756.851 1157.6 759.119 1150.04 760.53ZM1114.29 450.055C1114.92 457.942 1119.65 465.728 1128.76 461.748C1135.74 458.695 1141.1 452.567 1140.95 444.824C1138.09 441.379 1135.86 437.459 1134.5 432.916C1134.43 432.671 1134.62 432.405 1134.98 432.143C1131.97 426.101 1129.1 420.015 1127.42 413.439C1127.28 412.881 1127.76 412.345 1128.51 411.908C1126.58 411.171 1128.2 408.05 1131.02 407.6C1132.99 407.286 1134.63 406.628 1135.96 405.727C1137.47 403.598 1139.11 401.055 1140.4 398.544C1141.57 391.1 1135.82 382.346 1125.58 385.405C1123.44 386.043 1122.18 385.157 1122.05 384.023C1109.79 385.197 1102.41 376.49 1097.24 366.306C1092.84 357.628 1085.57 330.669 1071.87 339.945C1070.58 340.822 1068.16 340.769 1067.08 340.087C1066.41 340.363 1065.67 340.53 1065.11 340.634C1057.91 341.967 1055.15 351.088 1053.88 358.127C1054.35 358.357 1054.67 358.731 1054.66 359.307C1054.64 361.691 1054.55 364.357 1054.44 367.203C1054.75 367.172 1055.07 367.144 1055.37 367.157C1056.54 367.208 1057.7 367.606 1058.8 367.967C1059.3 368.129 1059.79 368.3 1060.29 368.437C1060.41 368.47 1060.48 368.49 1060.53 368.508C1060.55 368.51 1060.56 368.51 1060.59 368.512C1060.73 368.534 1060.88 368.548 1061.03 368.548C1062.41 368.608 1063.69 369.812 1063.01 371.19C1062.25 372.712 1060.33 373.208 1058.75 373.139C1057.58 373.088 1056.42 372.69 1055.31 372.329C1054.96 372.213 1054.61 372.103 1054.25 371.992C1054.17 374.156 1054.1 376.384 1054.05 378.665C1054.66 378.351 1055.32 378.165 1055.91 378.165C1056.22 378.165 1056.52 378.169 1056.82 378.151C1056.88 378.149 1057.06 378.112 1057.21 378.085C1057.38 377.952 1057.55 377.817 1057.7 377.666C1058.84 376.625 1061.12 376.417 1062.39 377.303C1063.82 378.298 1063.08 379.788 1062.07 380.719C1060.24 382.397 1057.82 382.998 1055.37 383.002C1054.95 383.002 1054.47 382.944 1054.02 382.82C1054.03 403.273 1057.35 425.687 1078.77 429.393C1085.55 430.566 1092.99 427.94 1099.57 430.09C1107.42 432.657 1110.7 441.138 1113.04 448.567C1113.73 448.788 1114.22 449.264 1114.29 450.055ZM1057.36 378.076C1057.46 378.043 1057.47 378.036 1057.41 378.056C1057.41 378.058 1057.39 378.065 1057.36 378.076ZM1073.14 321.453C1072.12 321.843 1070.47 322.058 1069.29 321.962L1071.95 322.268C1071.95 322.268 1072.39 321.962 1073.14 321.453ZM1040.72 500.895C1055.95 501.861 1071.26 503.21 1086.52 503.511C1088.18 503.544 1088.71 504.204 1088.55 505.015C1089.25 505.124 1089.82 505.425 1090.05 505.981C1093.5 514.258 1096.62 522.654 1099.74 531.058C1101.06 530.486 1102.67 530.198 1103.54 530.621C1119.53 538.382 1125.12 554.227 1137.1 565.88C1137.9 565.689 1138.63 565.612 1139.03 565.747C1157.95 572.155 1177.25 577.428 1196.72 582C1185.67 562.365 1176.13 539.636 1175.51 517.153C1175.44 514.225 1182.04 513.265 1182.14 516.685C1182.75 539.363 1193.21 562.857 1204.47 582.272C1204.78 582.815 1204.83 583.338 1204.69 583.818C1213.46 585.789 1222.25 587.648 1231.06 589.395C1232.93 589.765 1227.25 592.215 1225.7 591.909C1196.49 586.111 1167.4 579.262 1139.1 570.028C1139.97 573.884 1139.18 579.025 1138.66 582.288C1137.88 587.103 1136.64 592.128 1133.37 595.88C1149.1 607.214 1165.43 618.457 1183.46 625.976C1198.86 632.393 1236.46 646.145 1250.25 631.19C1258.85 621.854 1256.5 607.493 1253.58 596.337C1251.57 588.673 1249.1 581.127 1246.58 573.592C1245.84 571.39 1245.11 569.191 1244.38 566.992C1243.03 562.943 1241.7 558.89 1240.47 554.812C1231.73 526.003 1222.67 489.128 1193.39 473.965C1179.44 466.742 1159.73 461.322 1146.67 450.478C1141.14 467.568 1112.09 475.672 1108.11 454.445C1107.87 454.283 1107.68 454.066 1107.6 453.783C1106.91 451.568 1106.17 448.764 1105.18 445.947C1100.72 455.993 1089.29 463.635 1080.88 469.46C1078.68 470.984 1076.39 472.481 1074.05 473.982C1074.75 474.224 1073.35 475.057 1071.74 475.69L1069.7 477.305C1069.7 477.305 1069.51 477.201 1069.25 477.05C1058.96 483.626 1048.45 490.605 1041.67 500.195C1041.48 500.459 1041.14 500.694 1040.72 500.895ZM1040.22 637.792C1040.31 638.016 1040.4 638.244 1040.5 638.468C1040.5 638.475 1040.5 638.483 1040.5 638.49C1040.53 638.548 1040.53 638.605 1040.54 638.663C1040.97 638.825 1041.34 639.066 1041.59 639.414C1040.98 638.559 1040 638.712 1041.88 638.871C1043.16 638.98 1044.45 639.07 1045.73 639.141C1049.21 639.33 1052.69 639.474 1056.17 639.595C1065.89 639.934 1075.62 640.184 1085.35 640.402C1100.08 640.729 1114.81 641.117 1129.55 641.214C1124.65 629.03 1121.2 616.366 1116.17 604.226C1098.15 609.748 1073.05 607.198 1065.12 591.519C1064.69 590.667 1066.81 589.544 1068.77 589.191C1062.24 584.773 1057.85 578.545 1060.88 570.194C1061.1 569.568 1061.6 569.091 1062.22 568.739C1061.59 567.802 1061.03 566.83 1060.59 565.785C1058.9 561.718 1059.25 557.178 1063.95 556.103C1062.53 553.72 1061.84 551.029 1062.29 547.946C1062.56 546.063 1066.17 545.636 1067.56 545.82C1079.63 547.412 1091.26 551.685 1102.35 556.701C1095.83 540.595 1090.33 524.112 1083.67 508.061C1064.59 507.66 1045.44 505.939 1026.41 504.692C1023.15 504.479 1000.33 504.605 989.129 502.282C1007.53 546.909 1021.59 593.242 1040.22 637.792ZM974.013 674.732C974.542 674.841 975.022 675.053 975.376 675.414C982.2 682.354 986.521 690.71 990.455 699.43C994.918 695.368 999.609 691.534 1004.48 687.97C1018.56 674.792 1029.96 658.947 1033.83 639.87C1027.24 624.133 1021.24 608.164 1015.41 592.126C1012.89 606.851 1007.27 621.347 1000.89 634.574C993.985 648.902 985.775 663.6 974.013 674.732ZM947.034 691.12C946.719 692.309 945.33 693.074 943.908 693.249C939.614 696.458 936.758 700.033 937.822 703.638C942.758 701.96 947.79 700.814 953.062 700.347C958.177 699.895 961.797 700.434 964.534 695.572C964.261 693.423 968.382 691.415 970.352 693.058C976.697 698.356 978.072 705.244 977.25 712.781C980.108 709.559 983.115 706.436 986.226 703.406C985.392 703.238 984.677 702.817 984.337 702.055C980.5 693.472 976.278 685.359 969.653 678.528C969.274 678.836 968.907 679.153 968.521 679.452C967.96 679.886 967.194 680.125 966.416 680.196C967.128 680.522 967.16 681.076 965.589 681.857C962.505 683.39 953.901 686.805 947.034 691.12ZM890.276 679.911C899.469 685.053 907.848 691.231 913.718 699.058C927.301 717.174 919.443 742.197 910.021 760.649C920.174 760.649 930.322 760.649 940.475 760.649C940.475 760.632 940.468 760.618 940.468 760.601C940.468 743.442 940.468 726.283 940.468 709.125C940.468 706.09 947.102 705.209 947.102 708.695C947.102 725.854 947.102 743.012 947.102 760.171C947.102 760.339 947.073 760.497 947.037 760.649C948.687 760.649 950.339 760.649 951.989 760.649C952.654 752.667 955.551 744.727 959.451 737.437C958.344 737.313 957.476 736.775 957.489 735.67C957.579 727.672 961.076 712.77 952.553 707.829C949.615 706.126 955.53 703.187 957.672 704.429C965.848 709.171 965.016 720.241 964.369 729.271C965.16 728.088 965.963 726.928 966.779 725.805C968.62 723.269 970.566 720.775 972.57 718.314C971.125 718.283 969.932 717.59 970.196 716.066C971.262 709.935 971.368 703.926 967.536 699.156C965.489 701.014 962.985 702.245 959.852 702.79C951.766 704.197 944.368 704.117 936.525 707.249C935.301 707.738 932.887 708.341 932.022 706.987C928.489 701.455 933.53 695.884 940.488 691.217C940.484 691.155 940.466 691.102 940.466 691.038C940.466 687.793 940.466 684.546 940.466 681.299C940.466 680.763 940.68 680.3 941.02 679.911C924.107 679.911 907.192 679.911 890.276 679.911ZM559.562 599.559C580.839 602.758 602.227 602.955 623.527 600.051C620.107 584.731 618.351 569.047 619.582 553.49C619.735 551.543 626.191 550.821 626.115 551.771C624.145 576.688 629.638 602.507 637.911 625.969C645.902 648.634 656.607 672.384 675.006 688.799C675.049 688.836 675.06 688.881 675.083 688.923C675.11 688.952 675.143 688.974 675.166 689.007C694.719 677.275 716.832 669.412 738.455 662.271C757.372 656.025 777.846 651.323 797.997 651.642C781.683 642.67 769.265 627.972 759.531 612.206C759.513 612.2 759.497 612.193 759.484 612.184C759.387 612.135 759.367 612.058 759.385 611.971C756.921 607.971 754.626 603.905 752.485 599.849C740.265 576.68 731.016 551.563 727.188 525.664C726.821 523.173 733.383 521.66 733.721 523.946C735.873 538.537 739.737 553.034 744.924 567.018C759.421 554.387 773.059 539.696 784.544 524.475C784.523 524.464 784.496 524.46 784.476 524.448C767.155 514.371 754.901 498.083 738.468 486.882C720.574 474.685 700.67 477.812 680.193 478.259C682.557 480.678 684.528 483.717 683.128 486.877C681.816 489.837 677.939 491.367 674.681 492.085C674.084 492.215 673.505 492.328 672.968 492.408C666.145 493.422 658.553 492.355 652.257 489.148C649.401 487.695 646.82 485.797 644.689 483.458C619.735 491.947 597.899 505.823 585.154 529.352C573.385 551.078 567.459 575.362 560.069 598.729C559.975 599.032 559.794 599.309 559.562 599.559ZM617.844 672.619C609.13 690.325 597.218 706.848 584.762 722.173C575.064 734.104 562.896 751.012 547.994 757.199C543.808 758.937 539.162 759.905 534.345 760.483C598.375 760.483 662.405 760.483 726.433 760.483C726.246 760.286 726.065 760.089 725.878 759.892C705.207 738.166 685.008 716.148 668.782 690.929C650.397 674.486 639.094 650.504 631.378 627.688C630.402 624.802 629.46 621.89 628.563 618.955C627.526 628.266 626.142 637.535 624.467 646.767C622.864 655.596 621.85 664.479 617.844 672.619ZM822.457 472.933C822.484 473.198 822.4 473.453 822.234 473.69C825.556 472.884 830.069 472.111 834.224 472.213C833.872 462.777 846.054 457.869 855.17 458.875C857.131 457.865 860.262 458.199 860.262 460.596C860.262 478.527 860.262 496.459 860.262 514.391C860.262 514.761 860.16 515.099 859.987 515.403C859.87 516.335 859.11 517.301 857.552 517.762C849.845 520.047 841.139 519.514 835.107 513.744C829.936 508.798 827.921 501.948 828.563 495.101C827.064 495.42 825.592 495.609 824.188 495.686C823.129 503.662 822.863 513.848 829.037 519.968C836.46 527.326 847.51 526.905 857.279 525.427C858.285 524.976 859.484 524.816 860.426 525.002C861.456 524.993 861.833 525.328 861.768 525.795C861.968 526.107 862.058 526.495 861.959 526.991C859.441 539.594 895.864 535.498 902.665 534.943C908.021 534.504 915.226 534.954 920.34 533.199C924.576 531.744 925.543 522.913 926.023 519.363C928.047 504.373 927.166 488.959 925.764 473.954C924.959 465.344 924.659 455.991 922.405 447.575C907.171 447.913 891.949 448.815 876.715 449.174C868.348 449.371 859.951 449.632 851.588 449.271C834.384 448.531 820.572 453.783 822.457 472.933ZM844.904 481.172C844.782 482.395 844.469 483.535 844.011 484.605C847.192 483.991 850.416 483.489 853.63 483.201C853.63 476.554 853.63 469.905 853.63 463.256C846.798 461.701 838.912 466.124 841.304 473.739C843.77 475.068 845.285 477.369 844.904 481.172ZM835.45 492.742C835.078 495.15 835.101 497.533 835.479 499.799C841.214 499.137 846.987 498.884 852.715 498.127C853.064 498.08 853.362 498.065 853.63 498.065C853.63 493.839 853.63 489.611 853.63 485.385C850.086 485.487 846.428 485.98 842.866 486.667C841.126 489.241 838.466 491.265 835.45 492.742ZM836.212 502.882C838.603 510.116 844.909 515.277 853.63 513.914C853.63 509.522 853.63 505.13 853.63 500.736C853.078 501.057 852.428 501.307 851.745 501.396C846.583 502.08 841.385 502.353 836.212 502.882ZM766.963 574.46C774.603 559.255 781.275 543.6 788.301 528.112C776.12 543.82 761.889 558.881 746.723 571.619C749.545 578.766 752.674 585.781 756.136 592.567C759.112 598.403 762.353 604.319 765.924 610.089C777.49 616.042 791.879 620.877 801.797 609.513C808.312 602.053 812.099 592.658 815.063 583.375C820.669 565.811 823.041 546.318 832.01 529.979C832.328 529.401 833.266 528.971 834.327 528.694C830.775 527.85 827.481 526.386 824.745 524.028C816.42 516.847 816.393 505.593 817.831 495.591C817.926 494.937 818.74 494.373 819.759 493.987C819.977 492.543 822.022 490.736 824.066 490.835C827.977 491.026 841.234 486.138 838.281 479.531C835.838 474.064 819.905 478 817.229 481.573C812.924 487.332 810.697 495.859 807.442 502.264C795.246 526.256 785.324 551.275 773.243 575.32C771.893 578.002 765.275 577.822 766.963 574.46ZM612.689 433.774C614.312 432.963 616.099 432.447 617.979 432.265C615.944 431.944 614.183 432.595 612.689 433.774ZM643.22 460.569C647.415 464.328 647.642 472.481 648.526 477.998C650.009 478.144 650.676 479.296 650.277 480.43C655.282 486.295 663.397 489.786 671.169 489.553C675.709 489.416 676.976 487.686 676.573 485.489C676.275 483.863 675.069 481.989 673.55 480.299C673.374 480.326 673.203 480.346 673.031 480.357C671.53 480.465 670.256 480.02 670.54 478.782C670.642 478.337 670.791 477.929 670.906 477.493C670.935 477.391 670.966 477.289 670.993 477.187C673.838 466.744 680.332 458.961 689.428 452.775C699.092 446.201 713.014 439.96 715.403 427.344C717.79 414.741 708.248 400.158 701.932 389.943C696.11 380.526 689.931 370.862 682.127 362.878C681.379 362.111 681.886 361.274 682.873 360.643C674.043 365.011 651.571 367.863 640.839 372.698C636.338 375.795 633.031 380.134 631.784 386.708C637.62 403.261 638.54 422.05 634.624 439.127C634.16 441.158 629.392 442.157 628.274 440.815C627.848 440.808 627.501 440.726 627.31 440.533C624.052 437.247 616.956 430.327 613.381 437.191C612.229 439.404 611.469 441.849 611.291 444.339C612.335 445.052 612.094 445.893 611.296 446.589C611.343 447.169 611.411 447.747 611.53 448.325C612.193 451.552 613.99 458.326 617.619 459.661C620.664 460.78 625.179 458.113 628.123 457.229C634.126 455.428 638.623 456.45 643.22 460.569ZM513.701 756.417C513.983 756.406 514.239 756.41 514.476 756.43C517.422 756.246 520.366 756.062 523.308 755.821C529.798 755.285 540.021 755.96 545.843 752.782C560.755 744.64 572.492 728.859 582.632 715.783C593.603 701.634 605.038 686.595 612.279 670.183C616.453 660.721 617.452 649.923 619.1 639.812C621.045 627.872 622.58 615.921 623.304 603.845C623.338 603.3 623.574 602.833 623.935 602.441C608.931 604.609 593.88 605.353 578.842 604.64C578.896 604.806 578.932 604.988 578.939 605.187C579.566 624.866 580.921 643.048 576.031 662.597C573.254 673.704 570.064 685.448 564.33 695.505C557.678 707.171 546.835 716.688 536.63 725.313C527.706 732.857 517.168 739.776 505.464 742.191C500.103 743.296 472.841 743.94 473.193 751.179C473.569 758.962 507.745 756.678 513.701 756.417ZM398.893 833.525C398.893 904.472 398.893 975.419 398.893 1046.37C484.813 1046.37 570.736 1046.37 656.661 1046.37C656.661 975.421 656.661 904.472 656.661 833.525C570.736 833.525 484.813 833.525 398.893 833.525ZM533.109 799.221C523.159 799.221 513.209 799.221 503.259 799.221C500.863 810.464 493.9 820.05 487.013 829.093C486.95 829.18 486.865 829.26 486.772 829.337C497.734 829.337 508.699 829.337 519.659 829.337C519.701 829.255 519.737 829.175 519.812 829.082C526.755 820.298 530.806 810.708 532.785 799.802C532.821 799.598 532.942 799.405 533.109 799.221ZM757.888 795.726C748.918 784.896 739.507 774.397 729.715 763.978C642.969 763.978 556.221 763.978 469.476 763.978C469.476 774.43 469.476 784.882 469.476 795.334C469.476 795.472 469.447 795.6 469.417 795.726C565.572 795.726 661.729 795.726 757.888 795.726ZM820.915 912.676C808.068 917.29 791.987 911.055 781.02 899.761C777.736 896.377 774.826 892.789 773.135 888.922C770.401 895.092 770.363 903.422 770.175 909.407C769.761 922.798 770.669 936.247 772.644 949.503C774.578 962.482 777.134 975.57 781.622 987.96C784.548 996.037 789.093 1009.61 798.055 1013.36C824.738 1024.52 825.333 989.247 825.047 971.869C824.725 952.072 821.312 932.433 820.915 912.676ZM830.391 897.245C817.549 880.806 806.134 863.402 794.62 846.013C792.864 852.104 790.141 857.734 786.586 863.225C783.173 868.496 776.909 875.721 778.043 882.468C779.652 892.04 789.214 900.689 797.381 905.396C810.598 913.011 823.111 912.333 830.132 897.628C830.195 897.491 830.286 897.365 830.391 897.245ZM914.101 969.592C914.727 969.703 915.277 969.968 915.629 970.451C916.671 971.884 917.703 973.335 918.735 974.786C927.831 959.244 942.229 949.62 959.701 945.007C948.978 932.896 936.079 923.115 923.731 912.658C910.798 901.706 899.329 889.734 889.133 876.255C872.507 854.274 856.15 831.809 841.586 808.442C828.182 786.933 815.426 765.044 802.171 743.446C794.951 731.685 787.28 714.257 776.03 705.149C775.347 704.952 774.779 704.549 774.513 703.915C774.49 703.867 774.465 703.818 774.449 703.765C774.386 703.565 774.341 703.351 774.341 703.109C774.341 702.491 774.341 701.871 774.341 701.255C774.341 699.645 776.609 698.706 777.928 698.615C778.516 698.575 779.111 698.662 779.625 698.876C780.617 698.608 781.651 698.58 782.416 698.972C795.864 705.878 810.332 710.93 824.808 715.313C832.894 717.76 841.62 721.138 850.084 722.06C851.554 722.219 852.149 722.848 852.185 723.599C852.872 724.142 853.053 724.992 852.135 726.113C844.187 735.805 839.951 748.295 835.31 759.726C833.703 763.684 832.026 770.714 828.2 774.043C833.858 783.465 839.53 792.876 845.323 802.218C850.249 810.161 855.341 818.068 860.564 825.913C866.801 816.187 873.625 806.843 880.34 797.425C880.475 796.792 880.899 796.169 881.548 795.724C887.425 787.443 893.159 779.07 898.206 770.255C908.677 751.965 923.938 721.375 907.73 701.844C893.996 685.293 870.82 675.953 851.096 668.48C836.57 662.978 820.665 656.595 805.012 654.506C804.087 655.139 802.839 655.62 801.874 655.551C778.971 653.919 755.809 659.751 734.388 667.228C714.993 673.999 695.271 681.016 677.742 691.78C677.589 691.875 677.411 691.955 677.222 692.026C694.374 717.947 715.665 740.487 737.082 763.048C757.599 784.663 776.081 806.772 792.614 831.486C811.141 859.178 828.225 889.148 851.773 913.157C871.411 933.186 895.745 948.349 914.101 969.592ZM827.495 762.767C829.485 757.925 831.383 753.046 833.444 748.23C836.665 740.7 840.035 733.079 844.915 726.432C836.875 725.109 828.672 722.095 821.068 719.738C809.401 716.124 797.848 712.146 786.721 707.187C795.159 716.385 801.423 729.86 807.324 739.475C813.244 749.119 819.062 758.822 824.882 768.523C825.108 768.158 825.306 767.832 825.398 767.628C826.118 766.018 826.825 764.401 827.495 762.767ZM940.66 997.907C943.739 999.765 946.694 1001 949.546 1001.75C952.868 1001.84 956.18 1002.1 959.487 1002.4C972.534 1000.67 983.426 989.12 994.163 979.324C1002.69 971.539 1011.42 963.959 1020 956.225C1023.99 952.633 1027.97 948.418 1032.77 945.87C1033.38 945.549 1033.96 945.303 1034.52 945.089C1030.36 938.575 1024.82 932.756 1017.64 933.068C1010.03 933.401 1003.25 938.59 996.762 942.014C985.707 947.846 974.274 951.518 962.18 947.627C945.024 951.837 931.886 961.437 923.568 976.972C923.253 977.559 922.324 978.035 921.274 978.321C926.706 985.8 932.524 993.003 940.66 997.907ZM1037.2 963.499C1038.46 961.18 1040.08 958.185 1039.57 955.428C1039.07 952.781 1038.35 953.281 1039.09 953.335C1038.97 953.104 1038.86 952.872 1038.74 952.637C1037.01 952.296 1035.8 951.257 1037.42 950.054C1037.39 950.003 1037.36 949.955 1037.33 949.904C1035.98 949.452 1034.32 950.32 1031.57 952.657C1024.22 958.901 1017.26 965.572 1009.99 971.904C998.177 982.188 986.814 995.849 972.649 1003.4C973.424 1003.42 974.197 1003.46 974.971 1003.46C985.187 1003.57 994.158 998.525 1002.47 993.149C1014.55 985.351 1030.16 976.487 1037.2 963.499ZM1090.27 955.153C1080.71 962.929 1061.96 962.066 1050.03 957.696C1047.36 970.943 1033.34 978.753 1027.52 990.556C1023.35 999.028 1023.57 1013.48 1035.31 1016.1C1044.75 1018.2 1054.23 1014.72 1062.06 1009.65C1062.98 1009.05 1064.43 1008.92 1065.59 1009.13C1065.56 1007.29 1065.86 1005.24 1066.59 1002.91C1071.9 986 1085.96 972.25 1090.27 955.153ZM1133.95 988.026C1142.35 977.191 1157.24 955.089 1140.9 944.451C1140.87 944.433 1140.86 944.413 1140.84 944.395C1140.78 944.455 1140.72 944.517 1140.66 944.577C1139.72 945.479 1138.67 946.313 1137.54 947.093C1132.16 950.819 1124.87 953.169 1117.3 954.203C1116.98 954.247 1116.67 954.287 1116.35 954.325C1115.68 954.409 1115.02 954.46 1114.38 954.491C1108.37 955.042 1102.34 954.825 1097.11 953.784C1094.08 966.825 1084.88 978.117 1078.74 989.829C1075.82 995.406 1070.9 1003.4 1072.29 1009.99C1074.08 1018.53 1085.15 1018.2 1092.13 1017.55C1109.62 1015.92 1123.77 1001.16 1133.95 988.026ZM1148.17 978.943C1156.56 972.274 1166.73 967.428 1177.6 962.522C1176.25 962.017 1176.31 961.2 1177.01 960.447C1176.61 960.183 1176.4 959.784 1176.49 959.215C1185.6 906.065 1188.05 852.21 1193.41 798.643C1162.32 798.719 1131.24 798.834 1100.16 798.982C1105.03 810.743 1108.36 823.299 1111.47 834.888C1120.86 869.858 1133.73 903.841 1142.45 938.989C1142.56 939.441 1142.51 939.857 1142.37 940.24C1143.06 940.234 1143.59 940.307 1143.77 940.46C1144.58 940.349 1145.38 940.437 1145.96 940.814C1159.12 949.388 1156.88 964.269 1148.17 978.943ZM1241.25 964.387C1224.33 971.018 1202.6 969.06 1185.05 964.626C1185.05 964.626 1185.04 964.628 1185.04 964.631C1163.07 974.509 1143.43 982.498 1135.94 1006.89C1168.75 1006.89 1201.56 1006.89 1234.37 1006.89C1248.07 995.787 1250.31 979.521 1241.25 964.387ZM1265.06 798.568C1243.34 798.579 1221.62 798.584 1199.9 798.632C1194.6 851.973 1192.13 905.591 1183.06 958.511C1183.02 958.734 1182.91 958.941 1182.78 959.138C1201.25 964.71 1228.93 968.865 1245.66 957.733C1245.88 957.592 1246.12 957.483 1246.38 957.39C1251.87 904.895 1259.28 852.602 1263.63 799.994C1263.68 799.445 1264.26 798.947 1265.06 798.568ZM1320.2 955.366C1320.97 955.917 1321.78 956.393 1322.58 956.885C1323.61 956.943 1324.44 957.299 1324.59 958.046C1332.91 962.48 1342.59 963.911 1352.1 963.009C1354.94 962.739 1357.75 961.105 1360.61 960.046C1359.59 958.3 1358.57 956.557 1357.55 954.812C1342.87 929.6 1328.13 904.401 1313.63 879.065C1313.03 885.841 1313.71 893.668 1313.56 898.277C1313.13 911.077 1312.93 923.895 1313.04 936.701C1313.1 944.869 1312.7 949.997 1320.2 955.366ZM1385.19 1002.15C1377.32 988.68 1369.45 975.211 1361.59 961.731C1358.14 962.894 1355.31 964.921 1351.39 965.293C1342.61 966.126 1332.99 966.157 1324.63 963.042C1324.12 962.854 1323.61 962.655 1323.11 962.453C1318.13 975.446 1315.44 989.134 1315.21 1003.04C1315.21 1003.09 1315.19 1003.14 1315.18 1003.2C1338.52 1003.07 1361.85 1002.27 1385.19 1002.15ZM1391.83 928.781C1389.1 923.199 1386.36 917.622 1383.62 912.041C1383.15 911.932 1382.82 911.717 1382.76 911.361C1382.69 910.858 1382.62 910.355 1382.55 909.852C1371.21 886.678 1359.87 863.502 1348.48 840.352C1343.6 830.429 1338.72 820.504 1333.79 810.601C1331.93 806.856 1330.37 802.178 1327.8 798.823C1327.74 798.745 1327.71 798.672 1327.67 798.595C1310.65 798.572 1293.62 798.552 1276.6 798.555C1289.08 822.13 1302.05 845.464 1315.26 868.669C1316.11 868.664 1316.68 868.762 1316.55 868.946C1316.33 869.24 1316.15 869.572 1315.96 869.905C1332.51 898.957 1349.42 927.817 1366.24 956.69C1379.87 980.086 1393.57 1003.44 1407.2 1026.84C1411.19 1033.69 1415.19 1040.54 1419.1 1047.44C1419.72 1048.55 1421.97 1051.42 1422.68 1053.5C1422.95 1053.48 1423.21 1053.49 1423.45 1053.54C1432.16 1055.45 1443.09 1053.99 1452.66 1053.36C1432.41 1011.82 1412.13 970.294 1391.83 928.781ZM1370.39 798.679C1358.74 798.648 1347.08 798.63 1335.43 798.612C1337.13 801.607 1338.42 805.071 1339.88 807.984C1344.7 817.682 1349.49 827.401 1354.27 837.122C1362.78 854.421 1371.25 871.739 1379.73 889.052C1375.9 859.005 1373.11 828.834 1370.39 798.679ZM1498.29 795.684C1498.29 785.257 1498.29 774.827 1498.29 764.397C1398.34 765.061 1298.38 765.236 1198.43 765.024C1196.61 766.058 1192.77 766.324 1192.83 765.644C1192.84 765.436 1192.86 765.227 1192.88 765.017C1158.19 764.937 1123.5 764.811 1088.81 764.638C1085.51 765.363 1082.29 766.342 1079.19 767.664C1087.76 775.232 1093.91 784.929 1098.64 795.458C1231.85 794.809 1365.07 794.805 1498.29 795.684ZM1071.68 396.951C1064.17 397.972 1064.45 389.139 1065.99 384.338C1066.68 382.174 1060.14 383.068 1059.46 385.175C1058.27 388.891 1057.54 393.651 1059.97 397.08C1062.42 400.533 1066.83 400.923 1070.76 400.387C1071.97 400.223 1074.11 399.627 1074.48 398.251C1074.86 396.854 1072.46 396.843 1071.68 396.951ZM1092.42 404.183C1090.93 404.26 1089.16 404.73 1088.06 405.778C1086.96 406.832 1085.56 408.311 1083.92 408.356C1082.5 408.396 1080.57 408.896 1079.56 409.95C1078.51 411.051 1080.47 411.257 1081.17 411.239C1086.13 411.104 1090.52 408.812 1094.02 405.472C1095.13 404.409 1093.06 404.15 1092.42 404.183ZM1100.65 377.381C1093.93 372.597 1085.57 371.365 1079.83 378.304C1077.23 381.447 1083.46 382.256 1085.26 380.078C1086.49 378.59 1087.45 377.669 1089.45 377.888C1091.69 378.134 1093.83 379.753 1095.59 381.002C1097.85 382.606 1103.63 379.5 1100.65 377.381ZM1087.91 363.416C1091.61 363.416 1092.95 358.793 1088.51 358.796C1082.88 358.798 1078.13 359.414 1073.31 362.457C1072.15 363.19 1071.65 364.862 1072.94 365.719C1074.37 366.665 1076.3 366.156 1077.62 365.318C1080.82 363.301 1084.23 363.418 1087.91 363.416ZM655.336 427.337C655.243 427.836 655.158 428.352 655.083 428.879C656.625 428.141 658.805 427.891 659.833 428.846C662.624 431.439 665.667 431.767 669.339 431.771C670.626 431.771 671.979 432.85 671.25 434.168C671.057 434.516 670.797 434.795 670.5 435.032C670.924 435.136 671.176 435.326 670.912 435.683C668.57 438.857 665.958 441.718 662.265 443.364C659.896 444.421 656.404 445.384 653.83 444.445C647.489 442.135 647.89 433.774 648.884 428.429C649.186 426.806 655.638 425.707 655.336 427.337ZM654.806 432.374C654.772 434.932 655.178 437.512 656.524 439.577C656.966 440.257 657.486 440.939 658.192 441.377C658.823 441.772 659.553 441.729 659.339 441.947C661.429 440.728 663.065 438.66 664.459 436.775C664.684 436.469 664.977 436.221 665.299 436.006C661.35 435.816 657.919 434.868 654.806 432.374ZM1260.24 296.646C1257.55 295.295 1254.93 293.592 1254.54 290.434C1254.21 287.656 1256.93 284.91 1258.68 283.104C1259.8 281.955 1257.74 281.39 1256.96 281.39C1255.36 281.388 1253.74 281.959 1252.63 283.098C1250.16 285.643 1247.97 288.5 1248.01 292.154C1248.05 295.811 1252.14 298.188 1255 299.628C1256.78 300.516 1262.81 297.942 1260.24 296.646ZM1296.16 301.1C1295.89 307.698 1291.52 312.999 1284.56 313.685C1277.49 314.383 1272.48 310.591 1270.86 303.794C1270.66 302.948 1271.95 302.148 1273.44 301.701C1274.06 300.584 1276.02 300.19 1277.1 299.971C1282.94 298.786 1288.43 300.553 1294.25 300.454C1294.58 300.447 1296.18 300.429 1296.16 301.1ZM1289.59 303.422C1285.57 303.185 1281.53 302.203 1277.55 302.611C1278.48 306.046 1280.7 310.27 1284.7 310.746C1288.09 311.149 1289.34 306.219 1289.59 303.422ZM1285.19 277.556C1285.11 277.623 1285.76 277.206 1285.97 277.022C1286.07 277.022 1286.17 277.027 1286.26 277.056C1287.4 277.397 1288.23 278.396 1288.77 279.384C1289.87 281.399 1296.15 279.222 1295.3 277.665C1292.12 271.84 1284.55 273.208 1280.03 276.766C1278.98 277.587 1279.26 278.573 1280.58 278.774C1282.11 279.009 1283.98 278.511 1285.19 277.556ZM1277.47 263.988C1276.36 264.79 1276.78 265.851 1278.04 266.059C1279.64 266.322 1281.37 265.764 1282.66 264.843C1287.21 261.576 1292.59 264.878 1295.48 268.737C1296.7 270.362 1303.01 268.229 1301.56 266.298C1295.69 258.453 1284.98 258.599 1277.47 263.988Z" fill="#424242"/>
<g clip-path="url(#clip1)">
<path d="M791.371 322.645C788.324 323.868 785.045 324.763 781.71 324.763C772.173 319.195 759.229 324.998 759.229 337.193H759.233C759.233 341.739 762.102 347.971 766.588 349.496V349.677C763.255 351.169 762.334 358.765 766.765 361.494V361.675C761.925 363.287 758.737 366.395 758.737 371.762C758.737 381.011 767.385 383.579 774.958 383.579C784.18 383.579 791.039 380.22 791.039 369.928C791.039 357.267 773.135 361.937 773.135 355.058C773.135 352.634 774.412 351.699 776.624 351.233C783.979 349.848 788.592 344.049 788.592 336.469C788.592 335.159 788.327 333.918 787.881 332.698C789.068 332.43 790.221 332.105 791.371 331.709V322.645ZM774.781 366.613V366.61C777.794 366.61 782.085 367.149 782.085 371.098C782.085 375.014 778.629 375.822 775.401 375.822C772.333 375.822 767.724 375.336 767.724 371.296C767.741 367.297 771.64 366.613 774.781 366.613V366.613ZM774.214 343.358V343.355C770.315 343.355 768.666 341.022 768.666 337.287C768.666 328.434 779.481 328.524 779.481 337.2C779.477 340.844 778.059 343.358 774.214 343.358Z" fill="#424242"/>
<path d="M832.487 361.042V352.242C831.069 353.231 829.03 353.734 827.294 353.734C824.015 353.734 823.429 350.499 823.429 347.84V331.481C829.05 331.481 832.473 331.662 832.473 331.662V323.127H823.429C823.429 320.667 823.338 318.21 823.694 315.729H813.64C813.959 317.559 813.905 319.125 813.905 323.127H809.651V331.659C812.611 331.193 812.665 331.478 813.905 331.478V331.659H813.818V347.408C813.818 355.219 814.934 362.798 824.418 362.798C827.079 362.801 830.13 362.352 832.487 361.042V361.042Z" fill="#424242"/>
<path d="M800.613 303.124C797.07 303.124 794.499 306.245 794.499 309.715C794.499 313.127 797.103 316.218 800.613 316.218C804.032 316.218 806.604 313.077 806.604 309.715C806.604 306.359 804.12 303.124 800.613 303.124V303.124Z" fill="#424242"/>
<path d="M795.665 323.093C795.984 325.748 795.95 358.959 795.665 362.208H805.508C805.223 358.979 805.189 325.715 805.508 323.093H795.665Z" fill="#424242"/>
</g>
<g clip-path="url(#clip2)">
<path d="M949.543 410.262C950.26 410.214 950.882 410.422 951.406 410.882L958.169 416.824L965.969 407.948L965.335 398.135C965.289 397.417 965.495 396.795 965.955 396.272C966.415 395.748 967.004 395.464 967.723 395.417C968.441 395.371 969.062 395.578 969.585 396.038C970.109 396.498 970.394 397.087 970.44 397.805L971.073 407.618L996.555 430.01L1006.37 429.377C1007.09 429.33 1007.71 429.537 1008.23 429.997C1008.75 430.457 1009.04 431.046 1009.09 431.764C1009.13 432.483 1008.93 433.104 1008.47 433.627C1008.01 434.151 1007.42 434.436 1006.7 434.482L996.885 435.115L989.085 443.992L995.847 449.934C996.371 450.394 996.655 450.983 996.702 451.702C996.748 452.42 996.541 453.042 996.082 453.565C995.622 454.088 995.032 454.373 994.314 454.419C993.596 454.466 992.974 454.26 992.451 453.8L985.688 447.857C982.859 451.077 979.851 453.322 976.668 454.59L976.744 466.802C976.732 467.506 976.477 468.111 975.978 468.617C975.48 469.124 974.88 469.39 974.179 469.417C973.514 469.403 972.939 469.184 972.456 468.76C971.893 468.264 971.595 467.629 971.564 466.852L971.531 455.747L970.706 455.772C970.194 455.787 969.47 455.729 968.531 455.599C967.592 455.47 966.583 455.279 965.503 455.027C964.423 454.773 963.256 454.336 962.001 453.714C960.745 453.093 959.604 452.332 958.578 451.43L982.349 424.378L978.484 420.982L954.713 448.033C953.747 447.185 952.886 446.196 952.13 445.068C951.374 443.939 950.805 442.922 950.423 442.016C950.043 441.111 949.71 440.168 949.429 439.19C949.148 438.211 948.977 437.553 948.918 437.215C948.858 436.876 948.822 436.613 948.809 436.425L937.605 437.119C936.906 437.182 936.286 436.976 935.742 436.499C935.199 436.021 934.914 435.432 934.887 434.731C934.842 434.013 935.048 433.391 935.508 432.868C935.968 432.345 936.557 432.06 937.275 432.013L949.1 431.222C949.856 427.641 951.746 424.13 954.77 420.689L948.008 414.746C947.484 414.286 947.199 413.696 947.153 412.978C947.107 412.26 947.313 411.638 947.773 411.115C948.233 410.592 948.823 410.307 949.543 410.262Z" fill="#424242"/>
<path d="M986.38 402.101C989.915 401.873 993.022 402.935 995.699 405.288C998.376 407.64 999.828 410.584 1000.06 414.12C1000.28 417.655 999.222 420.761 996.87 423.438L977.548 406.46C979.9 403.783 982.844 402.33 986.38 402.101Z" fill="#424242"/>
</g>
<g clip-path="url(#clip3)">
<path d="M517.902 476.61C517.226 471.294 512.855 467.116 507.452 466.742C504.498 459.544 497.459 454.78 489.609 454.78C479.481 454.78 471.151 462.627 470.38 472.561C463.384 472.953 457.813 478.769 457.813 485.862C457.813 493.208 463.789 499.184 471.135 499.184H516.465C522.714 499.184 527.797 494.1 527.797 487.851C527.797 482.089 523.475 477.318 517.902 476.61ZM516.465 496.128H471.135C465.475 496.128 460.869 491.522 460.869 485.862C460.869 480.201 465.475 475.596 471.135 475.596C471.322 475.596 471.526 475.602 471.758 475.617C472.641 475.669 473.379 474.967 473.379 474.091C473.379 474.076 473.378 474.062 473.378 474.047C473.388 465.106 480.666 457.836 489.609 457.836C496.518 457.836 502.681 462.222 504.945 468.75C505.152 469.347 505.688 469.798 506.524 469.774C510.326 469.64 514.026 472.433 514.792 476.519H510.317C509.473 476.519 508.789 477.203 508.789 478.047C508.789 478.891 509.473 479.575 510.317 479.575H516.464C521.028 479.575 524.741 483.288 524.741 487.851C524.741 492.415 521.029 496.128 516.465 496.128Z" fill="#424242"/>
</g>
<path d="M597.438 981.273L575.077 973.581L549.264 964.664C543.034 962.495 537.63 958.447 533.798 953.078C529.966 947.708 527.895 941.282 527.871 934.685L527.619 882.141C529.378 882.674 530.925 883.745 532.043 885.204L532.576 885.996L597.438 981.273Z" fill="#EB144C"/>
<path d="M597.438 981.273L575.077 973.581L549.264 964.664C543.034 962.495 537.63 958.447 533.798 953.078C529.966 947.708 527.895 941.282 527.871 934.685L527.619 882.141C529.378 882.674 530.925 883.745 532.043 885.204L532.576 885.996L597.438 981.273Z" stroke="#EB144C"/>
<path d="M526.992 882.15L527.245 935.015C527.283 941.617 525.27 948.067 521.485 953.476C517.7 958.885 512.328 962.986 506.113 965.211L480.442 974.362L458.156 982.268L522.101 886.374L522.627 885.576C523.7 884.017 525.223 882.823 526.992 882.15Z" fill="#EB144C"/>
<path d="M526.992 882.15L527.245 935.015C527.283 941.617 525.27 948.067 521.485 953.476C517.7 958.885 512.328 962.986 506.113 965.211L480.442 974.362L458.156 982.268L522.101 886.374L522.627 885.576C523.7 884.017 525.223 882.823 526.992 882.15Z" stroke="#EB144C"/>
<g opacity="0.5">
<path d="M471.88 986.939L510.351 973.235C515.347 971.46 519.668 968.176 522.714 963.836C525.761 959.497 527.382 954.318 527.355 949.016L527.139 904.076L471.88 986.939Z" fill="#EB144C"/>
<path d="M471.88 986.939L510.351 973.235C515.347 971.46 519.668 968.176 522.714 963.836C525.761 959.497 527.382 954.318 527.355 949.016L527.139 904.076L471.88 986.939Z" stroke="#EB144C"/>
</g>
<g opacity="0.5">
<path d="M583.748 986.403L545.133 973.068C540.122 971.341 535.772 968.097 532.686 963.787C529.601 959.477 527.932 954.314 527.912 949.013L527.697 904.074L583.748 986.403Z" fill="#EB144C"/>
<path d="M583.748 986.403L545.133 973.068C540.122 971.341 535.772 968.097 532.686 963.787C529.601 959.477 527.932 954.314 527.912 949.013L527.697 904.074L583.748 986.403Z" stroke="#EB144C"/>
</g>
</g>
<defs>
<linearGradient id="paint0_linear" x1="-26.1292" y1="953.19" x2="131.309" y2="953.19" gradientUnits="userSpaceOnUse">
<stop stop-color="#93FD93"/>
<stop offset="0.51" stop-color="#21C2C1"/>
<stop offset="1" stop-color="#84F599"/>
</linearGradient>
<linearGradient id="paint1_linear" x1="32.8615" y1="903.493" x2="122.265" y2="1013.16" gradientUnits="userSpaceOnUse">
<stop stop-color="#93FD93"/>
<stop offset="0.51" stop-color="#21C2C1"/>
<stop offset="1" stop-color="#84F599"/>
</linearGradient>
<linearGradient id="paint2_linear" x1="135.869" y1="1027.45" x2="258.808" y2="932.28" gradientUnits="userSpaceOnUse">
<stop stop-color="#93FD93"/>
<stop offset="0.51" stop-color="#21C2C1"/>
<stop offset="1" stop-color="#84F599"/>
</linearGradient>
<linearGradient id="paint3_linear" x1="166.786" y1="979.147" x2="61.2189" y2="845.439" gradientUnits="userSpaceOnUse">
<stop stop-color="#93FD93"/>
<stop offset="0.51" stop-color="#21C2C1"/>
<stop offset="1" stop-color="#84F599"/>
</linearGradient>
<linearGradient id="paint4_linear" x1="62.493" y1="896.321" x2="136.814" y2="896.321" gradientUnits="userSpaceOnUse">
<stop stop-color="#93FD93"/>
<stop offset="0.51" stop-color="#21C2C1"/>
<stop offset="1" stop-color="#84F599"/>
</linearGradient>
<linearGradient id="paint5_linear" x1="130.443" y1="1017.69" x2="210.898" y2="901.275" gradientUnits="userSpaceOnUse">
<stop stop-color="#93FD93"/>
<stop offset="0.51" stop-color="#21C2C1"/>
<stop offset="1" stop-color="#84F599"/>
</linearGradient>
<linearGradient id="paint6_linear" x1="84.03" y1="1047.76" x2="198.738" y2="1047.76" gradientUnits="userSpaceOnUse">
<stop stop-color="#E5A4ED"/>
<stop offset="1" stop-color="#7A5BF5"/>
</linearGradient>
<clipPath id="clip0">
<rect width="1676" height="1158" fill="white"/>
</clipPath>
<clipPath id="clip1">
<rect width="80.4546" height="80.4546" fill="white" transform="translate(755.384 303.124)"/>
</clipPath>
<clipPath id="clip2">
<rect width="64.3097" height="64.3097" fill="white" transform="matrix(-0.751184 -0.660093 -0.660093 0.751184 1020.28 426.029)"/>
</clipPath>
<clipPath id="clip3">
<rect width="69.9844" height="69.9844" fill="white" transform="translate(457.813 441.99)"/>
</clipPath>
</defs>
</svg>
