<svg width="158" height="119" viewBox="0 0 158 119" fill="none" xmlns="http://www.w3.org/2000/svg">
<path fill-rule="evenodd" clip-rule="evenodd" d="M79 0L80.6162 0.824478C81.9342 1.49687 83.0924 2.45589 84.0006 3.6386L84.0226 3.66716L84.6272 4.57071L84.6275 4.57118L84.6291 4.5735L158 113L132.577 104.156L132.575 104.156L132.569 104.153L132.566 104.152L103.209 93.8971C96.1226 91.4038 89.9883 86.7823 85.6521 80.6703C81.316 74.5587 78.9919 67.2578 79 59.7747V59.7742M79 59.7742V0ZM81.22 3.89182L81.22 59.7766C81.2123 66.8023 83.3943 73.6569 87.4654 79.3949C91.5364 85.1332 97.2956 89.4721 103.948 91.813L133.292 102.063L133.293 102.064L133.301 102.067L152.427 108.72L82.7846 5.80363L82.7819 5.79963L82.2158 4.95365C81.9165 4.56751 81.5828 4.21235 81.22 3.89182Z" fill="#EB144C"/>
<path fill-rule="evenodd" clip-rule="evenodd" d="M79 0V60.4838C79.0065 67.6427 76.9015 74.6359 72.9608 80.5912L72.9704 80.5979L72.9746 80.601L72.3337 81.5084L71.6927 82.4159L71.6788 82.406C67.3825 88.1096 61.4964 92.4276 54.7498 94.8087L54.7483 94.8092L25.4444 105.104L25.4413 105.105L25.4121 105.115L25.4098 105.116L0 114L73.3993 4.98367L73.4023 4.97916L73.4026 4.97863L74.0066 4.07142L74.0134 4.06166C74.8887 2.80621 76.0201 1.76087 77.3249 0.98985L79 0ZM70.4649 80.3035C66.39 86.0374 60.6435 90.372 54.0111 92.7127L24.7411 102.996L24.7403 102.996L24.7087 103.007L5.57555 109.696L75.2463 6.21784L75.2495 6.21293L75.2508 6.21097L75.2512 6.21044L75.8415 5.32384C76.1223 4.92226 76.4363 4.54794 76.7791 4.20424V60.486C76.7855 67.5555 74.5987 74.4528 70.5202 80.2252L70.4649 80.3035Z" fill="#EB144C"/>
<path opacity="0.5" fill-rule="evenodd" clip-rule="evenodd" d="M79 25V76.1442C79 76.1444 79 76.1445 79 76.1447C79.0024 82.1785 77.1388 88.0635 73.6667 92.9852C70.2075 97.8889 65.322 101.594 59.6833 103.592L59.6823 103.592L16 119L79 25ZM21.546 114.694L58.8302 101.543L58.8315 101.542L58.8929 101.52C64.1259 99.68 68.6603 96.2487 71.8675 91.7023C75.0749 87.1556 76.7965 81.7192 76.7942 76.1451V32.2598L21.546 114.694Z" fill="#EB144C"/>
<path opacity="0.5" fill-rule="evenodd" clip-rule="evenodd" d="M79 25L143 119L98.6814 103.618L98.6811 103.618L98.6701 103.614C93.2701 101.743 88.5475 98.3549 85.0737 93.8761L85.0574 93.8876L85.0563 93.8883L84.4085 92.9837C84.4006 92.9726 84.3925 92.9616 84.3846 92.9505C84.3785 92.942 84.3724 92.9334 84.3663 92.9249L83.7606 92.079L83.778 92.0668C80.659 87.339 78.9942 81.8068 79 76.1446V76.1442M79 76.1442V25ZM86.1793 91.6211C82.9604 87.0909 81.235 81.686 81.2408 76.1464L81.2408 32.2598L137.367 114.695L99.4117 101.521L99.4104 101.521L99.4002 101.517L99.3992 101.517C94.0897 99.6745 89.49 96.2445 86.2368 91.7014L86.1793 91.6211Z" fill="#EB144C"/>
</svg>
