<svg width="715" height="538" viewBox="0 0 715 538" fill="none" xmlns="http://www.w3.org/2000/svg">
<path d="M363.931 270.437V270.432V8.1961C369.209 10.9003 373.847 14.7573 377.484 19.5141L380.116 23.4643L380.123 23.4748L380.13 23.4853L702.231 501.541L601.878 466.481L601.872 466.479L469.644 420.088C438.701 409.153 411.914 388.885 392.979 362.08C374.044 335.276 363.895 303.256 363.931 270.437Z" stroke="white" stroke-width="10"/>
<path d="M350.709 8.69699V272.079V272.084C350.739 304.928 340.572 336.972 321.61 363.79L325.693 366.677L321.61 363.791C302.65 390.61 275.831 410.881 244.856 421.805L112.911 468.126L112.904 468.128L12.5524 503.188L334.653 25.1321L334.66 25.1216L334.667 25.1111L337.357 21.0738C340.886 16.0155 345.448 11.8036 350.709 8.69699Z" stroke="white" stroke-width="10"/>
<path opacity="0.5" d="M266.415 463.115L82.8828 527.504L350.924 129.71V343.965V343.967C350.935 370.139 342.808 395.665 327.667 417.013C312.527 438.36 291.122 454.471 266.419 463.113L266.415 463.115Z" stroke="white" stroke-width="10"/>
<path opacity="0.5" d="M363.788 129.71L631.83 527.507L448.224 463.115L448.221 463.114C423.526 454.468 402.132 438.355 387.004 417.008L382.924 419.899L387.003 417.008C371.874 395.66 363.761 370.135 363.788 343.97V343.965V129.71Z" stroke="white" stroke-width="10"/>
</svg>
