<svg width="229" height="60" viewBox="0 0 229 60" fill="none" xmlns="http://www.w3.org/2000/svg">
<path d="M94.48 40.0452L92.3324 35.1662H78.6837L76.4967 40.0452H71.8947L83.0733 14.7404H87.9585L99.137 40.0452H94.48ZM80.32 31.1737H90.6017L85.4569 19.196L80.32 31.1737Z" fill="#454545"/>
<path d="M100.608 47.6472V22.3902H104.243L104.589 25.3766L104.998 24.7777C105.647 23.8971 106.492 23.1848 107.464 22.699C108.436 22.2133 109.508 21.9679 110.591 21.9829C111.794 21.9475 112.992 22.1663 114.108 22.6255C115.223 23.0846 116.233 23.774 117.074 24.65C118.694 26.4411 119.573 28.7977 119.527 31.2297C119.527 36.7714 115.996 40.4845 110.741 40.4845C108.727 40.4845 106.162 39.8377 104.998 38.0251L104.502 37.2266V47.6072L100.608 47.6472ZM110.268 25.7919C109.555 25.7577 108.843 25.8751 108.179 26.1362C107.513 26.3972 106.907 26.7965 106.403 27.3083C105.898 27.8201 105.504 28.4332 105.245 29.1084C104.987 29.7837 104.87 30.5061 104.903 31.2297C104.903 32.674 105.468 34.0593 106.474 35.0805C107.481 36.1018 108.845 36.6755 110.268 36.6755C111.691 36.6755 113.056 36.1018 114.062 35.0805C115.068 34.0593 115.633 32.674 115.633 31.2297C115.666 30.5061 115.55 29.7837 115.291 29.1084C115.033 28.4332 114.639 27.8201 114.133 27.3083C113.629 26.7965 113.024 26.3972 112.359 26.1362C111.693 25.8751 110.981 25.7577 110.268 25.7919Z" fill="#454545"/>
<path d="M121.448 47.6472V22.3903H125.081L125.427 25.3766L125.837 24.7778C126.492 23.9002 127.342 23.1923 128.319 22.7121C129.294 22.2319 130.369 21.993 131.453 22.015C132.656 21.9782 133.853 22.1964 134.967 22.6557C136.082 23.1149 137.091 23.805 137.928 24.682C139.55 26.473 140.429 28.8297 140.382 31.2617C140.382 36.8034 136.85 40.5165 131.595 40.5165C129.581 40.5165 127.017 39.8697 125.86 38.0571L125.357 37.2585V47.6392L121.448 47.6472ZM131.107 25.7919C130.394 25.7578 129.682 25.875 129.016 26.1362C128.352 26.3973 127.746 26.7966 127.242 27.3084C126.737 27.8201 126.342 28.4332 126.084 29.1085C125.826 29.7837 125.709 30.5062 125.742 31.2298C125.742 32.6741 126.307 34.0592 127.313 35.0806C128.32 36.1019 129.684 36.6756 131.107 36.6756C132.53 36.6756 133.895 36.1019 134.901 35.0806C135.907 34.0592 136.472 32.6741 136.472 31.2298C136.505 30.5062 136.389 29.7837 136.13 29.1085C135.872 28.4332 135.478 27.8201 134.972 27.3084C134.468 26.7966 133.863 26.3973 133.198 26.1362C132.532 25.875 131.82 25.7578 131.107 25.7919Z" fill="#454545"/>
<path d="M142.813 40.0452V14.7404H161.331V18.9165H147.037V25.4165H160.827V29.409H147.037V35.7891H161.331V40.0452H142.813Z" fill="#454545"/>
<path d="M176.057 40.0453L172.022 33.7211L167.978 40.0453H163.258L169.402 31.086L163.597 22.3901H168.332L172.022 28.8262L175.703 22.3901H180.446L174.641 31.086L180.777 40.0453H176.057Z" fill="#454545"/>
<path d="M190.508 40.5244C184.593 40.5244 180.919 36.9071 180.919 31.086C180.919 25.5523 184.64 21.8312 190.178 21.8312C193.05 21.8312 195.378 22.7256 196.896 24.4263C198.54 26.2629 199.256 29.0657 198.989 32.5473H184.947V32.8587C185.27 35.3581 187.471 36.971 190.563 36.971C192.291 36.9837 193.977 36.423 195.362 35.374L197.817 37.8334C195.793 39.6187 193.189 40.5777 190.508 40.5244ZM190.327 25.2728C187.668 25.2728 185.694 26.6702 185.041 29.0178L184.947 29.3692H195.291V29.0577C194.954 26.6543 193.159 25.2728 190.327 25.2728Z" fill="#454545"/>
<path d="M201.302 40.0452V22.3902H204.912L205.313 24.9853L205.699 24.3625C207.021 22.2065 208.798 21.9111 210.529 21.9111C212.087 21.8901 213.602 22.4273 214.808 23.4282L213.055 26.8538C212.167 26.1267 211.046 25.7595 209.908 25.8238C206.934 25.8238 205.188 27.6523 205.188 30.7186V40.0452H201.302Z" fill="#454545"/>
<path d="M225.311 40.2689C224.535 40.3082 223.76 40.1869 223.033 39.9123C222.305 39.6378 221.64 39.2157 221.078 38.6719C219.951 37.3482 219.386 35.6261 219.505 33.8808V25.752H216.154V22.4222H219.505V17.711L223.399 17.2877V22.4222H228.347V25.752H223.359V33.8889C223.359 35.6855 224.335 36.7555 225.963 36.7555C226.648 36.737 227.321 36.5823 227.946 36.3003L229 39.5822C227.934 40.0071 226.802 40.2317 225.657 40.245L225.311 40.2689Z" fill="#454545"/>
<path opacity="0.78" d="M34.45 29.4V30.1C34.3205 33.2896 33.2428 36.3682 31.3546 38.9422C29.4664 41.5162 26.8535 43.4686 23.85 44.55L11 49.05L0 52.9L32 5.1L32.25 4.7C32.8079 3.93674 33.5707 3.34728 34.45 3V29.4Z" fill="#E9264E"/>
<path opacity="0.78" d="M69.3 52.6L58.7 48.9H58.2L45.35 44.4C42.2403 43.3163 39.547 41.2879 37.6465 38.5985C35.746 35.9092 34.7333 32.6931 34.75 29.4001V3.05005C35.6112 3.35594 36.3721 3.89203 36.95 4.60005V4.60005L37.2 5.10005L69.3 52.6Z" fill="#E9264E"/>
<path opacity="0.3" d="M34.4501 30.0999V36.3499C34.4451 38.9958 33.6204 41.5752 32.0892 43.7331C30.5581 45.891 28.3959 47.5214 25.9001 48.3999L6.70006 55.0999L10.9001 48.8499L23.7501 44.3499C26.742 43.2976 29.355 41.3825 31.2594 38.8463C33.1638 36.3101 34.274 33.2666 34.4501 30.0999Z" fill="#E9264E"/>
<path d="M34.4501 13.35V29.6C34.4053 32.8071 33.3946 35.9261 31.5501 38.55C29.6263 41.2036 26.9407 43.2091 23.8501 44.3L11.0001 48.9L34.4501 13.35Z" fill="#E9264E"/>
<path opacity="0.3" d="M62.45 54.5L43.15 47.75C40.6595 46.8695 38.5039 45.2371 36.9812 43.0785C35.4586 40.9199 34.644 38.3416 34.65 35.7V29.25C34.6333 32.5431 35.646 35.7591 37.5465 38.4485C39.447 41.1379 42.1403 43.1662 45.25 44.25L58.1 48.75H58.6L62.45 54.5Z" fill="#E9264E"/>
<path d="M58.7 48.9H58.2L45.35 44.4C42.2403 43.3163 39.547 41.2879 37.6465 38.5985C35.746 35.9091 34.7333 32.6931 34.75 29.4V13.35L58.7 48.9Z" fill="#E9264E"/>
</svg>
