<svg width="355" height="302" viewBox="0 0 355 302" fill="none" xmlns="http://www.w3.org/2000/svg">
<path d="M203.589 89.6519C187.973 89.6519 172.358 89.6519 156.741 89.6519C154.772 89.6519 155.382 87.5929 157.015 87.5929C172.631 87.5929 188.246 87.5929 203.863 87.5929C205.833 87.5939 205.223 89.6519 203.589 89.6519ZM3.40601 120.852C21.94 120.852 40.474 120.852 59.009 120.852C60.085 120.852 62.097 119.219 60.139 119.219C41.605 119.219 23.071 119.219 4.53602 119.219C3.45902 119.219 1.44701 120.852 3.40601 120.852ZM352.87 118.531C331.478 118.531 310.087 118.531 288.695 118.531C292.183 121.144 295.524 123.927 298.649 126.921C303.19 131.273 307.927 136.429 309.899 142.549C311.864 148.65 310.247 155.093 307.006 160.509C307.05 160.504 307.096 160.498 307.136 160.498C322.3 160.498 337.465 160.498 352.629 160.498C354.574 160.498 352.354 161.893 351.435 161.893C346.584 161.893 341.732 161.893 336.881 161.893C336.881 177.075 336.881 192.254 336.881 207.436C341.889 207.436 346.898 207.436 351.906 207.436C353.851 207.436 351.631 208.831 350.712 208.831C345.879 208.831 341.045 208.831 336.212 208.831C335.568 209.159 334.633 209.219 334.201 208.831C320.411 208.831 306.621 208.831 292.831 208.831C292.831 223.771 292.831 238.711 292.831 253.651C312.523 253.651 332.214 253.651 351.906 253.651C353.851 253.651 351.631 255.046 350.712 255.046C346.102 255.046 341.491 255.046 336.881 255.046C336.881 269.985 336.881 284.927 336.881 299.866C341.889 299.866 346.898 299.866 351.906 299.866C353.851 299.866 351.631 301.261 350.712 301.261C346.036 301.261 341.36 301.261 336.684 301.261C336.073 301.985 334.207 302.208 333.99 301.261C293.486 301.261 252.982 301.261 212.479 301.261C211.868 301.985 210.002 302.208 209.785 301.261C141.222 301.261 72.659 301.261 4.09502 301.261C2.15002 301.261 4.37002 299.866 5.28902 299.866C24.823 299.866 44.357 299.866 63.891 299.866C63.891 284.926 63.891 269.986 63.891 255.046C54.988 255.046 46.086 255.046 37.183 255.046C36.99 256.09 34.285 256.551 34.285 255.221C34.285 255.162 34.285 255.104 34.285 255.046C24.222 255.046 14.159 255.046 4.09602 255.046C2.15102 255.046 4.37102 253.651 5.29002 253.651C14.955 253.651 24.62 253.651 34.285 253.651C34.285 238.768 34.285 223.886 34.285 209.004C34.285 208.944 34.297 208.887 34.313 208.831C24.241 208.831 14.168 208.831 4.09602 208.831C2.15102 208.831 4.37102 207.436 5.29002 207.436C24.824 207.436 44.358 207.436 63.892 207.436C63.892 194.96 63.892 182.486 63.892 170.009C63.892 169.819 63.98 169.648 64.119 169.496C57.762 169.684 51.77 167.616 47.606 161.648C47.281 161.793 46.946 161.892 46.702 161.892C31.537 161.892 16.373 161.892 1.20802 161.892C-0.736984 161.892 1.48302 160.497 2.40202 160.497C17.22 160.497 32.039 160.497 46.858 160.497C46.778 160.367 46.694 160.246 46.617 160.112C44.897 157.16 43.495 154.005 42.858 150.761C42.412 148.488 42.349 146.172 42.813 143.851C42.998 142.926 43.258 141.999 43.622 141.076C46.031 134.961 50.543 129.814 55.339 125.425C67.402 114.383 81.905 105.99 96.439 98.6489C102.341 95.6669 108.324 92.8329 114.413 90.2529C117.152 89.0919 120.016 87.6839 122.95 87.0239C122.193 79.4169 125.501 72.9519 130.797 68.0479L129.39 68.6789C129.39 68.6789 129.33 68.2179 129.237 67.4179C129.032 67.2489 128.892 67.0099 128.871 66.6869C128.595 62.4279 128.208 58.0259 128.074 53.6189C127.73 46.5769 127.819 38.9599 129.39 35.3459C129.844 34.3019 130.52 33.1829 131.339 32.0289C134.444 25.0929 139.764 19.9419 146.373 15.9249C143.902 13.0289 141.549 8.51785 143.112 5.16085C143.233 4.16885 143.748 3.41486 144.836 3.08186C145.112 2.87186 145.413 2.67186 145.749 2.48486C150.195 0.0218596 154.265 2.26587 157.161 5.64087C158.203 2.92287 160.218 0.745858 163.515 0.557858C169.394 0.221858 170.618 6.21487 170.139 10.9319C170.208 10.9259 170.277 10.9199 170.355 10.9109C178.931 7.24785 188.009 4.34486 197.235 2.80586C199.494 2.15886 201.506 1.63785 203.056 1.34585C214.043 -0.727148 223.335 0.494859 229.605 4.55586C230.697 5.05686 231.755 5.62386 232.764 6.28086C246.975 15.5189 235.208 29.7779 224.103 36.4269C224.11 36.4329 224.119 36.4369 224.125 36.4429C231.29 43.5309 230.014 54.8119 226.341 63.4389C226.101 65.2719 225.926 66.7869 225.825 67.7089C229.789 71.8779 230.192 77.5519 230.011 83.0659C229.996 83.5309 229.512 83.8879 228.944 84.0639C229.888 85.5089 230.809 86.9679 231.672 88.4629C234.554 89.1049 237.434 90.6009 240.109 91.7529C245.647 94.1369 251.114 96.6919 256.496 99.4109C266.833 104.634 277.371 110.323 286.9 117.21C286.909 117.209 286.92 117.207 286.928 117.207C309.314 117.207 331.699 117.207 354.085 117.207C356.021 117.207 353.745 118.531 352.87 118.531ZM211.147 92.8959C204.882 96.5049 201.588 102.656 200.187 109.43C200.37 109.598 200.428 109.851 200.27 110.202C199.924 110.971 199.755 111.815 199.704 112.699C199.704 112.7 199.704 112.701 199.705 112.702C199.718 112.745 199.714 112.788 199.7 112.832C199.481 118.035 203.816 124.683 207.306 127.198C213.71 131.815 222.374 132.552 229.074 127.898C239.584 120.596 242.053 105.437 232.757 96.1059C232.731 96.0809 232.718 96.0529 232.698 96.0279C232.577 96.0009 232.471 95.9599 232.391 95.8929C226.556 91.0869 218.073 88.9039 211.147 92.8959ZM206.846 207.436C207.817 207.436 208.788 207.436 209.76 207.436C209.76 192.312 209.76 177.19 209.76 162.066C209.76 162.006 209.772 161.949 209.788 161.893C168.577 161.893 127.365 161.893 86.153 161.893C85.226 162.458 84.294 163.01 83.355 163.533C78.377 166.301 72.468 168.62 66.691 169.304C66.765 169.416 66.809 169.552 66.809 169.718C66.809 182.236 66.809 194.751 66.809 207.269C66.809 207.327 66.797 207.382 66.782 207.436C112.495 207.436 158.208 207.436 203.92 207.436C204.027 207.304 204.138 207.17 204.244 207.039C204.937 206.171 207.284 206.332 206.846 207.436ZM180.171 241.687C182.435 247.939 190.817 235.427 192.245 233.107C194.903 228.789 198.735 222.744 198.229 217.398C181.274 235.1 157.815 249.966 133.956 240.697C144.607 250.467 164.785 253.147 175.363 243.164C175.792 242.76 176.745 242.639 177.401 242.778C177.359 242.674 177.314 242.574 177.273 242.463C176.796 241.145 179.683 240.337 180.171 241.687ZM202.784 208.83C190.195 208.83 177.606 208.83 165.016 208.83C165.016 213.619 165.016 218.406 165.016 223.194C169.297 221.049 173.71 219.292 178.155 219.583C178.137 219.565 178.114 219.55 178.099 219.529C170.533 209.214 192.4 213.018 196.62 213.096C198.58 213.133 196.566 214.742 195.488 214.723C192.133 214.66 188.806 213.946 185.452 213.785C183.806 213.705 181.579 213.404 180.03 214.115C178.258 214.926 180.148 217.521 180.792 218.399C181.208 218.966 180.339 219.547 179.462 219.744C179.608 219.766 179.754 219.772 179.9 219.801C180.832 219.98 178.286 221.16 177.545 221.018C173.534 220.247 168.834 223.031 165.016 225.024C165.016 225.123 165.016 225.221 165.016 225.321C165.016 226.194 163.264 226.714 162.477 226.259C158.66 228.035 154.779 229.641 150.862 231.19C143.793 233.985 137.178 235.447 129.887 233.846C129.975 234.326 130.213 234.811 130.345 235.186C130.45 235.483 130.011 235.805 129.445 236.024C129.779 236.048 130.07 236.167 130.231 236.407C130.333 236.558 130.446 236.703 130.552 236.852C130.895 236.797 131.225 236.814 131.469 236.942C158.8 251.313 185.831 229.368 202.784 208.83ZM260.241 160.498C248.758 151.925 239.021 140.278 232.863 127.644C230.7 129.439 228.178 130.86 225.351 131.748C217.907 134.087 210.224 132.997 204.12 128.003C202.196 126.428 200.17 123.8 198.74 120.868C198.195 121.116 197.536 121.335 197.279 121.335C192.468 121.335 187.658 121.335 182.847 121.335C181.525 121.648 180.166 121.827 178.775 121.843C176.919 121.864 175.13 121.68 173.395 121.335C168.564 121.335 163.733 121.335 158.902 121.335C157.233 124.436 154.925 127.174 152.805 128.702C146.871 132.981 139.052 134.578 132.064 131.896C127.719 130.229 124.103 127.384 121.45 123.905C117.493 131.54 112.246 138.878 106.153 145.419C104.096 147.627 101.938 149.735 99.704 151.741C96.1 154.977 92.292 157.922 88.343 160.498C145.641 160.498 202.94 160.498 260.241 160.498ZM195.987 110.488C194.73 105.432 194.103 100.221 193.392 95.0679C183.643 95.0679 173.894 95.0679 164.145 95.0679C163.392 100.944 162.943 106.922 161.244 112.618C161.25 112.7 161.245 112.78 161.229 112.858C161.233 112.97 161.244 113.082 161.245 113.196C161.437 113.22 161.619 113.278 161.776 113.382C167.119 116.918 173.625 120.429 180.295 119.469C186.525 118.572 191.386 114.907 195.797 110.64C195.857 110.581 195.921 110.533 195.987 110.488ZM186.311 120.181C190.347 120.181 194.384 120.181 198.42 120.181C197.436 117.986 196.803 115.66 196.817 113.494C196.815 113.488 196.808 113.483 196.806 113.477C196.767 113.351 196.736 113.223 196.698 113.096C193.66 115.907 190.167 118.55 186.311 120.181ZM160.937 116.017C160.634 117.41 160.132 118.819 159.489 120.181C162.746 120.181 166.003 120.181 169.26 120.181C166.371 119.148 163.617 117.702 160.937 116.017ZM228.818 89.3499C225.617 83.8369 221.689 78.7549 218.124 73.4639C213.376 71.3589 209.036 74.9479 204.205 74.9829C202.177 74.9979 197.891 73.6129 198.411 70.8389C199.376 65.6939 209.069 63.4739 213.732 63.6959C212.856 63.3629 211.975 63.0419 211.093 62.7289C210.932 62.7149 210.79 62.6789 210.682 62.6099C210.646 62.5869 210.609 62.5669 210.573 62.5449C209.664 62.2239 208.758 61.9029 207.862 61.5749C207.476 61.4329 207.307 61.2409 207.278 61.0339C203.881 60.0359 200.342 60.6919 197.885 63.9639C194.891 67.9499 194.167 72.8079 194.321 77.6849C194.323 77.7629 194.303 77.8379 194.273 77.9109C197.624 77.9109 200.975 77.9109 204.326 77.9109C206.27 77.9109 204.045 79.2979 203.13 79.2979C199.652 79.2979 196.174 79.2979 192.697 79.2979C192.094 79.7249 191.087 79.9709 190.564 79.6389C190.392 79.5299 190.24 79.4109 190.078 79.2979C179.264 79.2979 168.451 79.2979 157.637 79.2979C155.693 79.2979 157.918 77.9109 158.833 77.9109C161.062 77.9109 163.291 77.9109 165.519 77.9109C165.603 77.8409 165.689 77.7789 165.758 77.7359C165.83 77.6909 165.901 77.6419 165.972 77.5969C165.721 73.4729 164.743 69.1219 162.288 65.7509C162.335 67.4779 160.441 68.4489 158.42 68.9229C160.384 70.2239 161.043 71.8499 158.793 73.7799C156.377 75.8529 152.724 76.2459 149.812 75.3619C145.467 74.0439 142.11 72.7879 137.856 75.8219C137.548 76.0419 137.244 76.2639 136.939 76.4869C137.147 76.6219 137.205 76.8379 136.981 77.1539C133.578 81.9459 130.162 86.7139 127.502 91.9439C133.092 88.9559 139.819 88.0139 145.846 90.3809C153.186 93.2639 157.703 99.1599 159.901 106.22C160.5 102.522 160.849 98.7729 161.336 95.0679C161.159 95.0679 160.982 95.0679 160.805 95.0679C158.836 95.0679 159.446 93.0089 161.079 93.0089C174.348 93.0089 187.617 93.0089 200.886 93.0089C202.855 93.0089 202.245 95.0679 200.612 95.0679C199.207 95.0679 197.802 95.0679 196.397 95.0679C196.922 98.9149 197.423 102.786 198.189 106.598C200.451 99.5369 205.073 93.3089 212.456 90.8229C218.475 88.7959 224.61 89.0459 230.068 91.6159C229.705 90.9289 229.332 90.2479 228.945 89.5749C228.775 89.5329 228.749 89.4519 228.818 89.3499ZM222.021 67.9129C220.672 66.9279 219.22 66.1149 217.718 65.3919C217.433 65.3439 217.194 65.2379 217.053 65.0689C216.295 64.7219 215.523 64.3999 214.745 64.0909C214.51 64.5299 213.029 65.1909 212.474 65.1349C208.938 64.7819 196.182 69.6029 203.721 73.1789C206.462 74.4799 210.728 71.9509 213.571 71.5209C215.563 71.2199 217.46 71.1709 219.3 71.7269C219.863 71.6109 220.446 71.7009 220.726 72.1169C220.788 72.2089 220.851 72.2989 220.914 72.3899C220.96 72.4129 221.007 72.4309 221.054 72.4559C221.293 72.5859 221.337 72.7409 221.264 72.8999C223.192 75.7309 225.189 78.5179 227.123 81.3399C227.107 76.3759 226.284 71.0239 222.021 67.9129ZM215.548 58.1419C215.025 57.7699 214.483 57.4209 213.947 57.0799C213.703 56.9249 213.584 56.7509 213.548 56.5729C208.308 53.7599 201.551 52.0539 196.165 55.0519C190.182 58.3799 187.966 64.6279 187.644 71.1299C187.746 71.2159 187.83 71.3189 187.88 71.4519C188.725 73.6959 189.732 75.5189 191.409 77.0019C191.47 70.8329 193.187 63.7449 199.084 60.7079C203.128 58.6259 207.349 58.5969 211.278 60.3859C213.369 61.1069 215.595 61.8289 217.75 62.6989C218.047 61.8109 218.129 60.8729 217.566 60.0609C217.129 59.4309 216.574 58.9129 215.972 58.4479C215.748 58.4029 215.586 58.3079 215.548 58.1419ZM187.519 55.6649C186.924 57.5069 187.118 59.9609 187.121 61.9949C188.993 58.1039 192.035 54.9249 196.559 53.4129C201.393 51.7999 206.215 51.8609 210.802 53.2199C210.617 53.0529 210.44 52.8779 210.255 52.7119C209.122 51.6929 207.983 50.6819 206.823 49.6939C206.406 49.3389 205.989 48.9809 205.561 48.6369C205.292 48.4209 204.821 48.2499 205.073 48.2569C204.971 48.2199 204.885 48.1699 204.823 48.1039C198.084 47.8989 191.228 49.7009 187.522 55.5479C187.52 55.5899 187.508 55.6329 187.487 55.6759C187.496 55.6729 187.507 55.6689 187.519 55.6649ZM157.769 41.3459C158.855 41.4389 159.912 41.4449 160.87 41.3049C160.239 41.3319 159.532 41.3459 158.721 41.3459C158.398 41.3459 158.082 41.3459 157.769 41.3459ZM149.789 3.47186C150.316 3.65986 150.836 3.87786 151.341 4.12286C150.825 3.81086 150.304 3.58286 149.789 3.47186ZM146.81 50.2079C147.71 49.4089 148.615 48.6159 149.539 47.8459C150.275 47.2319 150.977 46.5489 151.963 46.4169C152.206 46.3849 152.427 46.4329 152.629 46.5149C161.099 46.2079 170.016 48.5699 174.104 56.6629C174.248 56.9479 174.072 57.2319 173.746 57.4579C173.925 59.3469 173.746 61.4559 173.798 63.1529C173.854 65.0009 174.637 68.7599 173.721 70.4729C173.638 70.6289 173.463 70.7619 173.24 70.8719C173.261 71.1979 173.286 71.5229 173.299 71.8509C173.317 72.3299 172.971 72.6849 172.514 72.8849C172.131 73.8249 171.687 74.7509 171.045 75.5269C170.249 76.4899 169.27 77.2299 168.239 77.9089C174.962 77.9089 181.684 77.9089 188.407 77.9089C186.95 76.4529 185.968 74.7159 185.156 72.6619C184.889 72.6189 184.715 72.5139 184.721 72.3339C184.732 72.0309 184.757 71.7269 184.777 71.4239C184.546 71.3729 184.36 71.2679 184.263 71.0879C183.888 70.3909 184.106 69.0569 184.11 68.3039C184.119 66.7829 184.153 65.2629 184.203 63.7419C184.263 61.9179 184.053 59.6269 184.304 57.6379C183.979 57.5949 183.79 57.4719 183.899 57.2569C188.114 48.9129 197.708 46.2569 206.467 46.6449C206.863 46.6629 207.084 46.7379 207.186 46.8409C207.873 47.0189 208.556 47.7789 209.049 48.1979C210.265 49.2269 211.464 50.2779 212.649 51.3429C213.17 51.8119 213.691 52.2829 214.209 52.7569C212.969 48.2589 211.443 43.8719 209.62 39.5629C207.317 40.8169 205.03 42.0099 202.552 42.8599C201.632 43.2159 200.681 43.5079 199.718 43.6779C199.568 43.7039 199.398 43.7209 199.223 43.7349C195.341 44.4389 191.056 44.1749 187.237 43.4249C183.04 42.6019 178.991 41.3429 175.046 39.6929C173.367 38.9899 170.127 36.9039 168.174 37.5799C167.644 37.7649 167.228 39.4589 166.916 39.9119C166.23 40.9099 165.295 41.7729 164.138 42.1949C159.637 43.8409 154.507 42.9079 149.826 41.8589C148.888 44.6689 147.913 47.4639 146.81 50.2079ZM152.423 48.5599C152.327 48.6159 152.209 48.6919 152.064 48.8099C151.639 49.1559 151.219 49.5089 150.802 49.8649C149.749 50.7679 148.706 51.6829 147.674 52.6109C147.508 52.7589 147.348 52.9149 147.183 53.0639C151.904 51.4409 157.029 51.0039 161.72 52.8929C166.107 54.6599 169.054 57.6829 170.885 61.4059C170.917 59.6539 170.959 57.7539 170.475 56.2559C170.496 56.2549 170.516 56.2539 170.536 56.2529C166.842 50.3069 159.817 48.1469 153.004 48.2169C152.847 48.3639 152.647 48.4799 152.423 48.5599ZM152.525 48.5019C152.678 48.4509 152.662 48.4349 152.525 48.5019V48.5019ZM140.359 61.7309C144.623 59.7429 149.234 58.4529 153.681 57.9779C154.867 57.8519 154.95 58.2879 154.556 58.6999C156.366 58.8659 158.146 59.3659 159.764 60.2489C165.409 63.3289 167.992 69.0099 168.711 75.1049C169.323 74.1599 169.732 73.1049 170.127 72.0529C170.165 71.9509 170.241 71.8579 170.34 71.7709C170.041 65.2319 167.59 57.9579 160.99 55.3009C154.728 52.7799 148.14 54.2089 142.535 57.6329C141.471 58.7779 140.749 60.1819 140.359 61.7309ZM126.284 89.0059C128.152 85.7459 130.267 82.6369 132.441 79.5579C132.267 79.6619 132.099 79.7729 131.922 79.8719C131.155 80.3029 128.514 80.2669 130.206 79.3189C136.122 76.0049 140.243 70.9189 147.593 72.8169C149.878 73.4069 153.114 75.1389 155.462 74.0999C158.455 72.7759 157.207 70.8709 155.431 69.7349C151.705 67.3519 147.121 66.3499 142.735 66.5439C140.8 66.6299 143.075 65.2449 143.944 65.2059C145.721 65.1279 152.611 66.1179 156.833 68.0599C157.934 68.0459 159.642 68.0389 159.457 66.4879C159.317 65.3149 158.568 64.3119 157.724 63.5249C155.72 61.6559 153.031 60.2459 150.257 59.9959C149.912 60.0819 149.572 60.1869 149.242 60.3389C148.827 60.5289 147.778 60.6069 147.263 60.4939C144.431 61.2969 141.68 62.4419 139.144 63.8919C139.087 64.1759 139.053 64.3459 139.053 64.3459L136.853 65.3319C129.117 70.6279 124.078 78.9739 126.284 89.0059ZM125.039 96.0829C118.688 102.556 118.02 112.625 122.105 120.22C122.728 120.165 123.235 120.255 123.11 120.525C122.989 120.786 122.853 121.043 122.729 121.303C122.992 121.728 123.272 122.14 123.566 122.545L123.567 122.547C123.614 122.612 123.667 122.675 123.715 122.739C124.043 123.18 124.398 123.601 124.761 124.016C125.047 124.34 125.352 124.649 125.661 124.954C125.882 125.174 126.09 125.405 126.324 125.615C126.325 125.615 126.325 125.616 126.326 125.617C126.457 125.735 126.598 125.844 126.734 125.958C127.051 126.228 127.382 126.483 127.72 126.732C128.141 127.041 128.571 127.339 129.021 127.619C129.144 127.695 129.267 127.77 129.391 127.844C129.944 128.168 130.51 128.477 131.107 128.748C137.853 131.823 146.047 131.793 151.768 126.497C154.829 123.664 158.7 117.594 158.214 112.695C158.207 112.627 158.209 112.556 158.2 112.488C158.171 112.251 158.116 112.02 158.064 111.789C158.039 111.679 158.027 111.564 157.997 111.456C157.906 111.123 157.791 110.797 157.648 110.48C157.513 110.181 157.565 109.91 157.725 109.681C156.273 103.007 152.916 96.5929 146.601 93.3609C139.373 89.6609 131.401 90.8609 125.203 95.9679C125.153 96.0129 125.096 96.0479 125.039 96.0829ZM72.195 167.187C73.055 166.937 73.907 166.646 74.751 166.326C76.118 165.808 77.461 165.215 78.759 164.553C96.12 155.698 111.566 139.28 119.918 121.651C119.046 120.198 118.322 118.669 117.776 117.087C117.366 115.911 117.064 114.705 116.855 113.485C116.831 113.346 116.802 113.21 116.781 113.071C116.753 112.882 116.733 112.692 116.71 112.503C116.671 112.199 116.633 111.896 116.607 111.591C116.605 111.558 116.604 111.526 116.601 111.493C116.131 105.716 117.942 99.7789 122.683 95.0199C122.878 94.8239 123.147 94.6949 123.44 94.6199C123.452 94.5839 123.457 94.5509 123.474 94.5119C123.662 94.0829 123.87 93.6649 124.07 93.2419C124.282 92.7939 124.491 92.3439 124.714 91.9019C124.277 91.9169 123.919 91.8159 123.837 91.5399C123.487 90.3719 123.233 89.2259 123.066 88.1029C123.001 88.1219 122.935 88.1399 122.87 88.1529C121.766 88.3719 119.143 89.5279 117.636 90.1509C111.909 92.5169 106.234 95.0869 100.646 97.8419C92.559 101.828 84.66 106.213 77.092 111.027C69.889 115.609 62.751 120.561 56.641 126.558C52.003 131.112 47.078 136.633 45.703 143.2C44.179 150.477 48.01 159.669 53.665 164.323C59.162 168.843 65.847 169.036 72.195 167.187ZM209.759 255.045C162.109 255.045 114.458 255.045 66.808 255.045C66.808 269.985 66.808 284.925 66.808 299.865C114.458 299.865 162.109 299.865 209.759 299.865C209.759 284.926 209.759 269.984 209.759 255.045ZM289.915 253.65C289.915 238.767 289.915 223.885 289.915 209.003C289.915 208.943 289.927 208.886 289.943 208.83C265.796 208.83 241.649 208.83 217.502 208.83C216.489 211.308 215.093 213.622 213.132 215.696C212.348 216.526 209.53 216.307 210.753 215.014C212.515 213.151 213.765 211.061 214.68 208.829C213.789 208.829 212.9 208.829 212.009 208.829C211.365 209.157 210.43 209.217 209.998 208.829C208.598 208.829 207.198 208.829 205.797 208.829C203.925 211.123 201.932 213.426 199.832 215.694C200.459 215.615 201.045 215.815 201.115 216.41C202.053 224.471 195.295 234.348 190.24 240.053C187.388 243.272 180.864 248.895 177.866 243.742C177.829 243.785 177.798 243.826 177.75 243.871C164.538 256.34 137.548 252.527 127.563 237.627C127.202 237.088 127.615 236.576 128.225 236.279C127.841 236.285 127.532 236.197 127.449 235.961C126.8 234.133 125.799 233.982 127.771 232.576C128.328 232.18 129.139 231.962 129.82 232.027C132.077 232.244 134.23 233.306 136.57 233.353C139.27 233.405 141.883 233.101 144.454 232.291C147.806 231.235 151.003 229.821 154.269 228.54C156.8 227.546 159.419 226.125 162.101 224.705C162.101 219.47 162.101 214.236 162.101 209.001C162.101 208.941 162.113 208.884 162.129 208.828C120.487 208.828 78.845 208.828 37.204 208.828C37.204 223.768 37.204 238.708 37.204 253.648C46.107 253.648 55.011 253.648 63.913 253.648C64.121 252.612 66.81 252.157 66.81 253.483C66.81 253.538 66.81 253.592 66.81 253.648C141.177 253.65 215.546 253.65 289.915 253.65ZM292.813 255.045C292.62 256.089 289.915 256.55 289.915 255.22C289.915 255.161 289.915 255.103 289.915 255.045C264.169 255.045 238.423 255.045 212.677 255.045C212.677 269.984 212.677 284.926 212.677 299.865C253.106 299.865 293.536 299.865 333.965 299.865C333.965 284.926 333.965 269.984 333.965 255.045C320.247 255.045 306.53 255.045 292.813 255.045ZM306.132 161.893C306.1 161.942 306.069 161.992 306.036 162.04C302.331 167.497 297.374 170.386 291.956 171.364C291.305 171.481 290.646 171.565 289.983 171.63C283.539 172.247 276.598 170.371 270.416 167.036C267.5 165.464 264.657 163.677 261.902 161.72C261.634 161.824 261.371 161.893 261.17 161.893C245.005 161.893 228.84 161.893 212.676 161.893C212.676 177.075 212.676 192.254 212.676 207.436C213.519 207.436 214.362 207.436 215.205 207.436C216.133 204.721 216.633 201.828 216.981 198.89C217.118 197.732 220.059 197.257 219.899 198.603C219.537 201.659 218.99 204.636 218.021 207.436C256.668 207.436 295.316 207.436 333.964 207.436C333.964 192.312 333.964 177.19 333.964 162.066C333.964 162.006 333.976 161.949 333.992 161.893C324.705 161.893 315.419 161.893 306.132 161.893ZM258.074 102.647C251.612 99.2779 245.045 96.0969 238.35 93.2149C236.621 92.4709 234.812 91.5829 232.973 90.8419C233.551 91.9429 234.105 93.0569 234.612 94.2009C234.655 94.2989 234.67 94.3919 234.672 94.4849C234.731 94.5319 234.792 94.5759 234.851 94.6229C235.079 94.6619 235.282 94.7439 235.425 94.8889C244.134 103.631 242.751 117.208 235.099 125.518C238.231 132.257 242.389 138.515 247.189 144.181C253.55 151.69 260.883 158.682 269.325 163.819C270.101 164.292 270.929 164.775 271.786 165.258C275.727 167.476 280.44 169.652 285.138 170.48C288.809 171.127 292.467 170.957 295.729 169.311C295.731 169.309 295.734 169.309 295.737 169.307C295.742 169.304 295.748 169.301 295.753 169.297C298.764 167.772 301.569 165.063 303.735 161.838C304.736 160.35 305.6 158.752 306.283 157.108C307.559 154.034 308.209 150.803 307.941 147.839C307.358 141.377 303.432 135.744 299.099 131.141C287.702 119.036 272.699 110.269 258.074 102.647ZM214.849 221.403C213.31 227.046 209.305 231.143 203.899 233.272C202.136 233.967 204.911 233.791 205.54 233.543C211.36 231.25 216.019 227.02 217.698 220.857C217.831 220.371 215.033 220.727 214.849 221.403ZM183.303 106.486C182.903 107.231 182.113 107.745 181.352 108.062C180.265 108.516 179.108 108.817 177.928 108.875C176.506 108.944 174.153 108.855 173.386 107.371C173.059 106.738 173.302 105.979 173.682 105.428C174.488 104.256 175.705 103.405 176.892 102.658C177.222 102.45 177.619 102.3 178.026 102.207C178.174 101.943 178.81 101.698 178.944 101.65C179.351 101.503 180.408 101.139 180.811 101.487C182.032 102.542 184.301 104.626 183.303 106.486ZM180.61 106.511C180.65 106.141 180.589 105.767 180.459 105.419C180.105 104.481 179.42 103.706 178.685 103.021C177.943 103.498 177.334 103.94 176.7 104.702C176.685 104.72 176.687 104.717 176.68 104.724C176.675 104.732 176.678 104.728 176.669 104.74C176.646 104.769 176.624 104.801 176.602 104.831C176.551 104.903 176.5 104.977 176.455 105.053C176.374 105.187 176.298 105.325 176.242 105.473C176.124 105.779 176.107 105.805 176.134 106.087C176.155 106.31 176.226 106.525 176.352 106.711C176.372 106.74 176.382 106.756 176.387 106.764C176.387 106.764 176.387 106.763 176.391 106.768C176.43 106.811 176.47 106.854 176.512 106.895C176.593 106.969 176.678 107.04 176.768 107.102C176.875 107.176 176.987 107.245 177.104 107.302C177.165 107.332 177.227 107.364 177.29 107.39C177.31 107.399 177.307 107.398 177.317 107.403C177.583 107.501 177.859 107.575 178.138 107.628C178.236 107.646 178.334 107.662 178.433 107.675C178.474 107.679 178.514 107.683 178.554 107.687C178.749 107.702 178.946 107.71 179.141 107.709C179.171 107.708 179.201 107.706 179.231 107.704C179.33 107.698 179.429 107.69 179.528 107.681C179.595 107.67 179.662 107.658 179.728 107.645C179.742 107.641 179.756 107.638 179.77 107.634C179.781 107.629 179.793 107.624 179.805 107.62C179.838 107.604 179.871 107.591 179.904 107.573C179.918 107.564 179.926 107.558 179.946 107.546C179.967 107.532 179.987 107.519 180.008 107.505C180.109 107.421 180.205 107.331 180.29 107.234C180.322 107.191 180.372 107.125 180.388 107.097C180.427 107.032 180.464 106.964 180.494 106.894C180.524 106.824 180.553 106.751 180.574 106.677C180.581 106.647 180.603 106.538 180.61 106.511ZM218.592 109.673C218.074 109.72 216.978 110.095 216.979 110.78C216.98 111.932 217.007 113.246 217.829 114.149C218.645 115.045 221.406 113.922 220.495 112.92C219.917 112.285 219.902 111.326 219.902 110.512C219.901 109.811 219.19 109.617 218.592 109.673ZM140.458 114.81C140.458 113.607 140.458 112.403 140.458 111.199C140.458 109.933 137.555 110.539 137.555 111.541C137.555 112.744 137.555 113.948 137.555 115.152C137.555 116.417 140.458 115.812 140.458 114.81Z" fill="#424242"/>
</svg>
