<svg width="2191" height="2225" viewBox="0 0 2191 2225" fill="none" xmlns="http://www.w3.org/2000/svg">
<path d="M1281.9 1218L1245.05 1205.13L1245.04 1205.13L1169.73 1178.71C1169.73 1178.71 1169.73 1178.71 1169.72 1178.7C1153.5 1172.97 1139.45 1162.34 1129.52 1148.28C1119.58 1134.22 1114.26 1117.42 1114.28 1100.21V1100.19V969.23L1281.9 1218Z" stroke="#EB144C" stroke-width="20"/>
<path d="M924.906 1218.94L1092.44 970.29V1101.13L1092.44 1101.14C1092.46 1118.37 1087.12 1135.18 1077.18 1149.25L1077.18 1149.25C1067.23 1163.32 1053.17 1173.95 1036.92 1179.68C1036.92 1179.68 1036.92 1179.68 1036.91 1179.68L961.766 1206.07L961.752 1206.07L924.906 1218.94Z" stroke="#EB144C" stroke-width="20"/>
<path opacity="0.5" d="M1049.21 1203.21L965 1232.76L1092.56 1043.44V1142.09V1142.09C1092.57 1155.52 1088.4 1168.61 1080.63 1179.56L1088.4 1185.07L1080.63 1179.56C1072.87 1190.51 1061.89 1198.78 1049.21 1203.21L1049.21 1203.21Z" stroke="#EB144C" stroke-width="20"/>
<path opacity="0.5" d="M1114.2 1142.08V1043.44L1241.76 1232.76L1157.51 1203.21L1157.51 1203.21C1144.84 1198.78 1133.87 1190.51 1126.11 1179.56L1126.11 1179.56C1118.34 1168.61 1114.18 1155.52 1114.2 1142.09V1142.08Z" stroke="#EB144C" stroke-width="20"/>
<circle cx="1102" cy="1087" r="625.5" stroke="#8F8F8F"/>
<circle cx="1102" cy="1087" r="835.5" stroke="#8F8F8F"/>
<circle cx="1102" cy="1087" r="1035.5" stroke="#8F8F8F"/>
<path d="M1302 1589.99L1324.47 1560.33L1408.52 1526.17V1501.45L1482.22 1555.38L1331.66 1584.6V1666.84L1302 1658.3V1589.99ZM1542 1545.49V1692.01L1484.47 1741L1391.44 1710.44V1741L1331.66 1666.84L1482.23 1684.82V1555.38L1542 1545.49Z" fill="#6D6D6D"/>
<g clip-path="url(#clip0)">
<path d="M511.135 1076.24H535.857C536.43 1076.24 536.981 1076.02 537.387 1075.61C537.794 1075.21 538.024 1074.66 538.027 1074.09V1052.07C538.027 1051.5 537.798 1050.94 537.391 1050.54C536.984 1050.13 536.432 1049.9 535.857 1049.9H511.135C510.563 1049.9 510.014 1050.13 509.609 1050.53C509.204 1050.94 508.977 1051.49 508.977 1052.06V1074.09C508.977 1075.28 509.945 1076.24 511.135 1076.24V1076.24ZM476.672 1012.89H501.382C501.957 1012.89 502.509 1012.67 502.916 1012.26C503.323 1011.85 503.552 1011.3 503.552 1010.72V988.698C503.549 988.124 503.319 987.575 502.912 987.171C502.506 986.767 501.955 986.54 501.382 986.54H476.672C476.099 986.54 475.55 986.767 475.146 987.172C474.741 987.576 474.514 988.125 474.514 988.698V1010.72C474.514 1011.91 475.47 1012.88 476.672 1012.88V1012.89ZM476.672 1044.57H501.382C501.956 1044.57 502.507 1044.34 502.913 1043.93C503.319 1043.52 503.549 1042.97 503.552 1042.4V1020.38C503.549 1019.81 503.319 1019.26 502.912 1018.86C502.506 1018.45 501.955 1018.23 501.382 1018.23H476.672C476.099 1018.23 475.55 1018.45 475.146 1018.86C474.741 1019.26 474.514 1019.81 474.514 1020.38V1042.4C474.514 1043.59 475.47 1044.56 476.672 1044.57ZM442.489 1044.57H467.222C467.793 1044.56 468.339 1044.33 468.741 1043.93C469.143 1043.52 469.369 1042.97 469.369 1042.4V1020.38C469.369 1019.81 469.141 1019.26 468.736 1018.86C468.332 1018.45 467.783 1018.23 467.21 1018.23H442.5C441.928 1018.23 441.379 1018.45 440.974 1018.86C440.569 1019.26 440.342 1019.81 440.342 1020.38V1042.4C440.342 1043.59 441.31 1044.56 442.5 1044.57H442.489ZM407.92 1044.57H432.642C433.215 1044.57 433.764 1044.34 434.169 1043.93C434.573 1043.52 434.8 1042.97 434.8 1042.4V1020.38C434.8 1019.81 434.573 1019.26 434.168 1018.86C433.763 1018.45 433.214 1018.23 432.642 1018.23H407.92C407.347 1018.23 406.797 1018.45 406.39 1018.86C405.983 1019.26 405.753 1019.81 405.75 1020.38V1042.4C405.75 1043.59 406.73 1044.56 407.92 1044.57V1044.57ZM476.672 1076.24H501.382C501.955 1076.24 502.506 1076.02 502.912 1075.61C503.319 1075.21 503.549 1074.66 503.552 1074.09V1052.07C503.552 1051.5 503.323 1050.94 502.916 1050.54C502.509 1050.13 501.957 1049.9 501.382 1049.9H476.672C476.099 1049.9 475.55 1050.13 475.146 1050.53C474.741 1050.94 474.514 1051.49 474.514 1052.06V1074.09C474.514 1075.28 475.47 1076.24 476.672 1076.24V1076.24ZM442.489 1076.24H467.222C467.792 1076.24 468.338 1076.01 468.741 1075.61C469.143 1075.2 469.369 1074.66 469.369 1074.09V1052.07C469.37 1051.79 469.316 1051.51 469.209 1051.24C469.102 1050.98 468.944 1050.74 468.745 1050.54C468.545 1050.34 468.308 1050.18 468.047 1050.07C467.786 1049.96 467.505 1049.9 467.222 1049.9H442.489C441.918 1049.9 441.372 1050.13 440.97 1050.54C440.568 1050.94 440.342 1051.49 440.342 1052.06V1074.09C440.342 1075.28 441.31 1076.24 442.5 1076.24H442.489ZM407.92 1076.24H432.642C433.214 1076.24 433.763 1076.02 434.168 1075.61C434.573 1075.21 434.8 1074.66 434.8 1074.09V1052.07C434.802 1051.79 434.747 1051.51 434.64 1051.24C434.533 1050.98 434.376 1050.74 434.176 1050.54C433.977 1050.34 433.74 1050.18 433.479 1050.07C433.217 1049.96 432.937 1049.9 432.654 1049.9H407.92C407.345 1049.9 406.793 1050.13 406.386 1050.54C405.979 1050.94 405.75 1051.5 405.75 1052.07V1074.09C405.75 1075.28 406.73 1076.24 407.92 1076.24V1076.24ZM373.854 1076.24H398.587C399.157 1076.24 399.703 1076.01 400.106 1075.61C400.508 1075.2 400.734 1074.66 400.734 1074.09V1052.07C400.735 1051.79 400.681 1051.51 400.574 1051.24C400.467 1050.98 400.309 1050.74 400.11 1050.54C399.91 1050.34 399.673 1050.18 399.412 1050.07C399.151 1049.96 398.87 1049.9 398.587 1049.9H373.854C373.283 1049.9 372.737 1050.13 372.335 1050.54C371.933 1050.94 371.707 1051.49 371.707 1052.06V1074.09C371.707 1075.28 372.664 1076.24 373.865 1076.24H373.854ZM625.235 1062.38C624.477 1061.79 617.395 1056.43 602.439 1056.43C598.495 1056.45 594.552 1056.78 590.655 1057.45C587.762 1037.62 571.37 1027.93 570.635 1027.51L566.622 1025.19L563.985 1029.01C560.672 1034.12 558.269 1039.76 556.845 1045.69C554.162 1057.01 555.795 1067.65 561.547 1076.73C554.605 1080.61 543.464 1081.55 541.2 1081.63H356.762C354.446 1081.64 352.226 1082.56 350.586 1084.19C348.947 1085.83 348.021 1088.05 348.012 1090.36C347.796 1106.52 350.532 1122.58 356.085 1137.75C362.444 1154.41 371.894 1166.68 384.202 1174.2C397.969 1182.63 420.369 1187.46 445.744 1187.46C457.212 1187.5 468.645 1186.46 479.927 1184.36C495.593 1181.48 510.668 1176 524.529 1168.15C535.962 1161.54 546.229 1153.13 554.979 1143.23C569.585 1126.69 578.289 1108.27 584.764 1091.9H587.342C603.349 1091.9 613.184 1085.5 618.609 1080.13C622.214 1076.71 625.025 1072.55 626.857 1067.93L628 1064.57L625.235 1062.38Z" fill="#6D6D6D"/>
</g>
<g clip-path="url(#clip1)">
<path d="M2098.98 763C2048.14 763 2007 804.147 2007 855C2006.99 867.084 2009.37 879.051 2013.99 890.216C2018.61 901.382 2025.38 911.527 2033.93 920.072C2042.47 928.616 2052.62 935.393 2063.78 940.013C2074.95 944.634 2086.92 947.008 2099 947C2149.85 947 2191 905.853 2191 855C2190.99 804.147 2149.51 763 2098.98 763ZM2055.84 874.742C2058.84 878.751 2062.86 880.43 2068.54 880.43C2071.22 880.43 2073.9 880.093 2076.24 879.089C2078.58 878.092 2081.26 876.743 2084.59 874.742L2093.97 888.12C2086.28 894.483 2077.58 897.489 2067.54 897.489C2059.51 897.489 2052.82 895.817 2046.81 892.475C2040.96 889.028 2036.3 883.897 2033.42 877.755C2030.41 871.391 2028.74 864.031 2028.74 855.33C2028.74 846.973 2030.41 839.276 2033.41 832.92C2036.27 826.588 2040.93 821.237 2046.81 817.533C2052.49 813.853 2059.52 812.182 2067.21 812.182C2072.57 812.182 2077.59 812.849 2081.6 814.52C2086.11 816.265 2090.29 818.752 2093.98 821.88L2084.61 834.591C2082.23 832.835 2079.65 831.373 2076.92 830.237C2074.58 829.24 2071.57 828.903 2068.89 828.903C2057.52 828.903 2051.83 837.597 2051.83 855.322C2051.5 864.369 2053.17 870.717 2055.84 874.734H2055.84V874.742ZM2147.84 895.48C2144.49 905.853 2139.47 913.55 2132.44 919.231C2125.42 924.928 2116.05 927.933 2104.34 928.937L2102.01 913.221C2109.7 912.209 2115.38 910.537 2119.06 907.854C2120.4 906.857 2123.08 903.844 2123.08 903.844L2095.31 814.857H2118.39L2134.45 881.427L2151.52 814.857H2173.93L2147.84 895.48Z" fill="#6D6D6D"/>
</g>
<path d="M1125.25 432C1121.45 432.028 1117.66 432.582 1114.01 433.646L1113.75 433.727C1111.45 433.32 1109.11 433.094 1106.78 433.054C1101.97 432.972 1097.84 434.14 1094.51 436.083C1091.23 434.944 1084.42 432.98 1077.25 433.372C1072.26 433.646 1066.81 435.165 1062.77 439.432C1058.74 443.699 1056.61 450.302 1057.06 459.285C1057.18 461.764 1057.89 465.806 1059.06 471.041C1060.23 476.276 1061.87 482.405 1063.93 487.995C1065.98 493.589 1068.23 498.612 1071.74 502.026C1073.49 503.737 1075.91 505.174 1078.76 505.056C1080.76 504.974 1082.56 504.096 1084.12 502.802C1084.88 503.802 1085.69 504.239 1086.43 504.643C1087.36 505.154 1088.27 505.501 1089.21 505.729C1090.89 506.15 1093.78 506.713 1097.15 506.138C1098.3 505.946 1099.52 505.57 1100.72 505.035C1100.77 506.383 1100.82 507.702 1100.88 509.037C1101.04 513.267 1101.15 517.175 1102.42 520.601C1102.62 521.16 1103.18 524.043 1105.38 526.587C1107.59 529.135 1111.9 530.724 1116.82 529.67C1120.29 528.927 1124.7 527.588 1127.63 523.414C1130.53 519.29 1131.83 513.373 1132.09 503.777C1132.15 503.259 1132.23 502.818 1132.31 502.405L1133 502.467H1133.08C1136.78 502.634 1140.8 502.107 1144.15 500.548C1147.12 499.171 1149.37 497.779 1151.01 495.309C1151.42 494.696 1151.86 493.957 1151.99 492.683C1152.11 491.409 1151.38 489.416 1150.17 488.498C1147.74 486.652 1146.21 487.354 1144.58 487.693C1142.97 488.05 1141.32 488.249 1139.67 488.289C1144.39 480.339 1147.77 471.895 1149.7 464.422C1150.84 460.012 1151.48 455.945 1151.54 452.388C1151.59 448.832 1151.3 445.683 1149.17 442.96C1142.52 434.45 1133.16 432.098 1125.92 432.016C1125.7 432.012 1125.47 432.008 1125.25 432.012V432ZM1125.06 434.613C1131.9 434.548 1140.65 436.471 1146.93 444.503C1148.34 446.308 1148.76 448.946 1148.71 452.196C1148.66 455.443 1148.06 459.33 1146.96 463.589C1144.83 471.837 1140.81 481.454 1135.14 490.082C1135.34 490.224 1135.56 490.342 1135.79 490.433C1136.97 490.923 1139.67 491.344 1145.05 490.237C1146.41 489.951 1147.4 489.759 1148.42 490.543C1148.67 490.755 1148.87 491.022 1149 491.323C1149.13 491.624 1149.19 491.951 1149.17 492.279C1149.12 492.774 1148.93 493.247 1148.64 493.651C1147.6 495.215 1145.55 496.697 1142.92 497.918C1140.59 499.004 1137.25 499.572 1134.28 499.604C1132.8 499.621 1131.43 499.506 1130.26 499.143L1130.19 499.114C1129.74 503.443 1128.71 511.989 1128.04 515.889C1127.5 519.033 1126.56 521.532 1124.76 523.402C1122.96 525.272 1120.42 526.399 1117 527.134C1112.76 528.045 1109.68 527.065 1107.68 525.387C1105.7 523.712 1104.79 521.491 1104.24 520.131C1103.87 519.192 1103.67 517.975 1103.48 516.35C1103.29 514.725 1103.16 512.736 1103.06 510.495C1102.94 507.062 1102.9 503.627 1102.94 500.192C1101.17 501.814 1098.97 502.891 1096.61 503.296C1093.8 503.773 1091.29 503.304 1089.79 502.928C1089.05 502.743 1088.34 502.467 1087.67 502.107C1086.97 501.736 1086.31 501.315 1085.87 500.486C1085.61 500.012 1085.53 499.46 1085.64 498.931C1085.78 498.393 1086.09 497.918 1086.53 497.579C1087.34 496.922 1088.41 496.554 1090.02 496.219C1092.95 495.615 1093.98 495.202 1094.6 494.708C1095.13 494.284 1095.73 493.426 1096.79 492.168C1096.79 492.113 1096.78 492.057 1096.78 492.001C1094.88 491.948 1093.02 491.447 1091.35 490.539C1090.74 491.184 1087.61 494.492 1083.8 499.082C1082.2 501.001 1080.43 502.103 1078.56 502.181C1076.69 502.263 1075 501.319 1073.57 499.927C1070.7 497.138 1068.41 492.34 1066.41 486.917C1064.42 481.495 1062.8 475.455 1061.65 470.31C1060.5 465.165 1059.82 461.016 1059.72 459.016C1059.29 450.514 1061.28 444.785 1064.68 441.171C1068.1 437.557 1072.77 436.19 1077.33 435.928C1085.51 435.459 1093.28 438.313 1094.85 438.925C1097.88 436.867 1101.78 435.585 1106.65 435.667C1108.96 435.699 1111.26 435.998 1113.51 436.557L1113.59 436.52C1114.58 436.173 1115.58 435.881 1116.6 435.646C1119.38 434.999 1122.21 434.656 1125.05 434.622L1125.06 434.613ZM1125.68 437.349H1125.08C1122.74 437.382 1120.42 437.644 1118.13 438.133C1123.21 440.387 1127.05 443.858 1129.76 447.321C1131.64 449.718 1133.19 452.355 1134.38 455.161C1134.83 456.239 1135.13 457.149 1135.3 457.856C1135.38 458.211 1135.44 458.509 1135.46 458.82C1135.47 458.975 1135.48 459.134 1135.41 459.408C1135.41 459.42 1135.39 459.448 1135.39 459.461C1135.51 463.038 1134.63 465.463 1134.52 468.877C1134.44 471.351 1135.07 474.259 1135.23 477.432C1135.37 480.412 1135.01 483.687 1133.08 486.901C1133.24 487.097 1133.39 487.293 1133.54 487.489C1138.66 479.424 1142.35 470.502 1144.32 462.895C1145.37 458.799 1145.93 455.087 1145.98 452.147C1146.02 449.207 1145.47 447.076 1144.77 446.186C1139.3 439.179 1131.89 437.394 1125.68 437.345V437.349ZM1106.13 438.395C1101.31 438.407 1097.85 439.865 1095.23 442.049C1092.52 444.307 1090.71 447.398 1089.52 450.563C1088.1 454.32 1087.61 457.954 1087.42 460.42L1087.48 460.388C1088.93 459.571 1090.85 458.754 1092.89 458.281C1094.94 457.811 1097.15 457.664 1099.15 458.44C1101.15 459.216 1102.8 461.041 1103.4 463.809C1106.27 477.109 1102.51 482.054 1101.12 485.786C1100.59 487.139 1100.14 488.52 1099.77 489.923C1099.94 489.882 1100.12 489.833 1100.3 489.816C1101.28 489.735 1102.04 490.061 1102.5 490.257C1103.89 490.837 1104.85 492.054 1105.37 493.442C1105.51 493.806 1105.6 494.198 1105.66 494.602C1105.72 494.768 1105.75 494.944 1105.74 495.121C1105.59 500.208 1105.61 505.299 1105.8 510.384C1105.89 512.581 1106.03 514.517 1106.2 516.044C1106.38 517.567 1106.63 518.727 1106.79 519.119C1107.31 520.425 1108.07 522.136 1109.45 523.3C1110.83 524.46 1112.81 525.236 1116.42 524.46C1119.56 523.786 1121.49 522.851 1122.79 521.507C1124.07 520.164 1124.85 518.294 1125.34 515.431C1126.08 511.144 1127.56 498.71 1127.74 496.37C1127.66 494.606 1127.92 493.251 1128.49 492.217C1129.06 491.156 1129.96 490.507 1130.74 490.155C1131.13 489.98 1131.49 489.861 1131.79 489.776C1131.47 489.322 1131.14 488.879 1130.79 488.449C1129.68 487.092 1128.76 485.58 1128.08 483.961C1127.75 483.292 1127.4 482.634 1127.03 481.989C1126.49 481.009 1125.8 479.784 1125.08 478.408C1123.65 475.651 1122.08 472.311 1121.27 469.057C1120.46 465.806 1120.35 462.442 1122.42 460.069C1124.25 457.962 1127.48 457.088 1132.32 457.578C1132.17 457.149 1132.09 456.794 1131.85 456.223C1130.75 453.645 1129.33 451.224 1127.6 449.019C1123.5 443.772 1116.86 438.57 1106.6 438.403H1106.13V438.395ZM1079.03 438.607C1078.52 438.607 1078 438.623 1077.48 438.652C1073.36 438.889 1069.47 440.085 1066.68 443.041C1063.89 445.998 1062.05 450.845 1062.45 458.869C1062.53 460.388 1063.19 464.642 1064.33 469.698C1065.46 474.753 1067.06 480.702 1068.99 485.958C1070.92 491.213 1073.25 495.786 1075.47 497.951C1076.59 499.033 1077.56 499.47 1078.44 499.433C1079.33 499.392 1080.39 498.882 1081.69 497.318C1084.07 494.453 1086.53 491.664 1089.08 488.955C1087.27 487.383 1085.89 485.381 1085.05 483.133C1084.22 480.885 1083.97 478.464 1084.32 476.092C1084.74 473.075 1084.8 470.253 1084.75 468.023C1084.7 465.851 1084.54 464.406 1084.54 463.503C1084.54 463.477 1084.54 463.451 1084.54 463.426V463.405L1084.54 463.381V463.377C1084.54 458.676 1085.35 454.011 1086.95 449.591C1088.1 446.553 1089.8 443.466 1092.35 440.967C1089.84 440.142 1085.4 438.885 1080.58 438.648C1080.06 438.621 1079.55 438.608 1079.03 438.607H1079.03ZM1129.62 460.175C1126.85 460.212 1125.29 460.927 1124.48 461.862C1123.32 463.189 1123.21 465.516 1123.93 468.383C1124.65 471.253 1126.12 474.463 1127.51 477.129C1128.2 478.465 1128.88 479.665 1129.42 480.641C1129.97 481.621 1130.37 482.315 1130.61 482.907C1130.84 483.455 1131.08 483.936 1131.34 484.386C1132.41 482.119 1132.6 479.894 1132.49 477.574C1132.35 474.704 1131.68 471.768 1131.78 468.795C1131.89 465.32 1132.58 463.058 1132.64 460.371C1131.64 460.241 1130.63 460.176 1129.62 460.175V460.175ZM1096.02 460.645C1095.18 460.653 1094.33 460.754 1093.51 460.947C1091.87 461.346 1090.29 461.963 1088.81 462.78C1088.31 463.049 1087.83 463.361 1087.38 463.711L1087.29 463.793C1087.32 464.389 1087.44 465.835 1087.48 467.962C1087.53 470.29 1087.48 473.258 1087.03 476.472C1086.05 483.455 1091.12 489.237 1097.06 489.245C1097.41 487.812 1097.98 486.358 1098.55 484.827C1100.21 480.359 1103.47 477.101 1100.72 464.385C1100.28 462.303 1099.39 461.462 1098.16 460.988C1097.48 460.745 1096.75 460.629 1096.02 460.645V460.645ZM1128.33 461.478H1128.53C1128.8 461.486 1129.05 461.515 1129.26 461.568C1129.48 461.617 1129.67 461.69 1129.83 461.792C1129.91 461.842 1129.98 461.907 1130.03 461.984C1130.08 462.062 1130.12 462.149 1130.13 462.241L1130.13 462.274H1130.13H1130.13C1130.14 462.468 1130.09 462.66 1129.99 462.825C1129.87 463.049 1129.72 463.256 1129.54 463.438C1129.12 463.894 1128.57 464.199 1127.96 464.304C1127.37 464.375 1126.78 464.225 1126.29 463.883C1126.09 463.749 1125.91 463.587 1125.76 463.401C1125.63 463.255 1125.54 463.076 1125.5 462.883C1125.49 462.788 1125.51 462.693 1125.53 462.603C1125.56 462.514 1125.61 462.431 1125.67 462.36C1125.81 462.208 1125.97 462.083 1126.15 461.992C1126.54 461.772 1127.07 461.609 1127.67 461.519C1127.9 461.486 1128.12 461.47 1128.33 461.466V461.478ZM1096.42 462.164C1096.64 462.164 1096.86 462.184 1097.1 462.217C1097.72 462.303 1098.28 462.47 1098.7 462.715C1098.91 462.823 1099.09 462.97 1099.24 463.148C1099.33 463.242 1099.39 463.353 1099.43 463.472C1099.46 463.591 1099.48 463.717 1099.46 463.842C1099.42 464.077 1099.32 464.295 1099.16 464.471C1098.99 464.676 1098.79 464.855 1098.57 465.002C1098.04 465.378 1097.39 465.543 1096.75 465.463C1096.09 465.355 1095.48 465.027 1095.03 464.532C1094.84 464.333 1094.68 464.108 1094.55 463.863C1094.42 463.647 1094.36 463.393 1094.38 463.14C1094.45 462.699 1094.81 462.47 1095.16 462.344C1095.57 462.214 1095.99 462.159 1096.42 462.18L1096.42 462.164ZM1133.39 492.148L1133.37 492.152C1132.77 492.369 1132.28 492.458 1131.86 492.642C1131.44 492.804 1131.1 493.115 1130.89 493.516C1130.63 493.986 1130.41 494.819 1130.48 496.235C1130.66 496.363 1130.86 496.459 1131.08 496.521C1131.78 496.734 1132.95 496.873 1134.25 496.852C1136.86 496.824 1140.06 496.215 1141.76 495.423C1143.16 494.774 1144.45 493.928 1145.61 492.912H1145.61C1139.92 494.088 1136.71 493.773 1134.74 492.961C1134.25 492.757 1133.79 492.482 1133.39 492.144V492.148ZM1100.62 492.532H1100.53C1100.32 492.552 1100 492.626 1099.39 493.3C1097.97 494.892 1097.48 495.892 1096.31 496.828C1095.13 497.759 1093.61 498.257 1090.57 498.882C1089.61 499.078 1089.06 499.294 1088.69 499.47C1088.81 499.568 1088.8 499.592 1088.98 499.686C1089.42 499.931 1089.99 500.147 1090.45 500.266C1091.76 500.592 1093.91 500.972 1096.15 500.592C1098.39 500.209 1100.72 499.135 1102.7 496.346C1103.05 495.864 1103.08 495.153 1102.8 494.39C1102.52 493.626 1101.89 492.969 1101.45 492.785C1101.19 492.658 1100.91 492.576 1100.62 492.54V492.532Z" fill="#6D6D6D"/>
<g clip-path="url(#clip2)">
<path d="M451.087 278.761H386C386.002 282.62 386.766 286.442 388.247 290.006C389.728 293.57 391.897 296.807 394.631 299.532C397.364 302.257 400.608 304.416 404.177 305.885C407.747 307.354 411.57 308.105 415.43 308.095H427.411V319.666C427.411 327.444 430.5 334.903 435.999 340.404C441.498 345.905 448.956 348.997 456.734 349V284.414C456.734 282.914 456.139 281.477 455.079 280.416C454.018 279.356 452.581 278.761 451.081 278.761H451.087ZM483.279 246.383H418.265C418.266 254.162 421.358 261.622 426.859 267.122C432.36 272.622 439.82 275.712 447.599 275.712H459.575V287.288C459.581 295.066 462.674 302.523 468.174 308.022C473.674 313.521 481.132 316.612 488.909 316.617V252.014C488.909 250.52 488.316 249.088 487.26 248.032C486.204 246.976 484.772 246.383 483.279 246.383V246.383ZM515.448 214H450.434C450.434 221.78 453.525 229.241 459.026 234.743C464.527 240.244 471.989 243.334 479.769 243.334H491.744V254.905C491.75 262.667 494.833 270.111 500.316 275.605C505.8 281.099 513.238 284.196 521 284.217V219.653C521.006 218.169 520.426 216.743 519.387 215.685C518.347 214.626 516.932 214.021 515.448 214V214Z" fill="#6D6D6D"/>
</g>
<path d="M541.117 1713C541.117 1707.32 545.718 1702.77 551.348 1702.77C556.981 1702.77 561.582 1707.37 561.582 1713C561.582 1718.63 556.981 1723.23 551.348 1723.23C545.722 1723.23 541.117 1718.63 541.117 1713ZM551.348 1670C531.27 1670 514.454 1683.76 509.681 1702.34C509.645 1702.47 509.645 1702.59 509.645 1702.77C509.645 1703.89 510.548 1704.83 511.705 1704.83H529.031C529.855 1704.83 530.582 1704.37 530.883 1703.64C534.456 1695.9 542.278 1690.48 551.351 1690.48C563.771 1690.48 573.876 1700.59 573.876 1713.01C573.876 1725.44 563.771 1735.55 551.337 1735.55C542.271 1735.55 534.445 1730.17 530.876 1722.39C530.528 1721.71 529.837 1721.18 529.023 1721.18H511.705C510.587 1721.18 509.645 1722.09 509.645 1723.25C509.645 1723.38 509.695 1723.51 509.695 1723.68C514.425 1742.24 531.267 1756 551.348 1756C575.084 1756 594.348 1736.74 594.348 1713C594.348 1689.27 575.084 1670 551.348 1670V1670Z" fill="#6D6D6D"/>
<g clip-path="url(#clip3)">
<path d="M791.352 1564.76L730.224 1503.64C726.701 1500.12 720.996 1500.12 717.461 1503.64L704.797 1516.32L720.897 1532.42C724.659 1531.17 728.941 1532.01 731.916 1535C734.926 1538 735.754 1542.33 734.471 1546.08L749.976 1561.6C753.738 1560.29 758.067 1561.14 761.059 1564.13C765.265 1568.33 765.265 1575.12 761.059 1579.32C756.865 1583.52 750.087 1583.52 745.892 1579.32C742.748 1576.17 741.961 1571.52 743.536 1567.68L729.017 1553.24V1591.3C730.043 1591.8 731.012 1592.48 731.863 1593.33C736.022 1597.53 736.022 1604.31 731.863 1608.5C727.669 1612.7 720.844 1612.7 716.644 1608.5C712.45 1604.3 712.45 1597.53 716.644 1593.34C717.706 1592.29 718.902 1591.5 720.173 1590.97V1552.54C718.907 1552.01 717.7 1551.24 716.673 1550.2C713.494 1547.02 712.73 1542.37 714.363 1538.48L698.543 1522.58L656.625 1564.47C653.125 1568 653.125 1573.71 656.625 1577.24L717.758 1638.36C721.282 1641.88 726.987 1641.88 730.51 1638.36L791.352 1577.51C794.881 1574 794.881 1568.29 791.352 1564.76" fill="#6D6D6D"/>
</g>
<path d="M653.285 631.875L668.657 532.997C668.768 532.264 669.108 531.585 669.628 531.056C670.147 530.528 670.821 530.176 671.552 530.052C672.283 529.929 673.034 530.038 673.699 530.366C674.364 530.694 674.908 531.224 675.255 531.879L691.784 562.891L653.285 631.875ZM762.452 655.867L747.814 564.873C747.706 564.235 747.426 563.639 747.002 563.15C746.579 562.661 746.029 562.298 745.414 562.1C744.798 561.902 744.139 561.877 743.511 562.028C742.882 562.179 742.306 562.5 741.847 562.956L649.547 655.867L700.618 684.649C702.193 685.534 703.969 685.998 705.775 685.998C707.582 685.998 709.358 685.534 710.933 684.649L762.452 655.867ZM720.95 576.463L709.12 553.83C708.821 553.26 708.373 552.784 707.823 552.451C707.273 552.119 706.642 551.943 706 551.943C705.357 551.943 704.726 552.119 704.177 552.451C703.627 552.784 703.178 553.26 702.88 553.83L650.945 646.897L720.95 576.463Z" fill="#6D6D6D"/>
<g clip-path="url(#clip4)">
<path d="M1866.99 1485C1865.09 1485 1863.2 1484.5 1861.53 1483.54L1844.16 1473.26C1841.57 1471.81 1842.84 1471.3 1843.69 1470.99C1847.15 1469.79 1847.85 1469.52 1851.55 1467.42C1851.93 1467.2 1852.44 1467.28 1852.84 1467.52L1866.18 1475.44C1866.67 1475.71 1867.35 1475.71 1867.79 1475.44L1919.83 1445.41C1920.31 1445.13 1920.62 1444.58 1920.62 1444V1383.95C1920.62 1383.36 1920.31 1382.81 1919.81 1382.52L1867.8 1352.51C1867.32 1352.23 1866.68 1352.23 1866.19 1352.51L1814.19 1382.52C1813.69 1382.81 1813.37 1383.38 1813.37 1383.95V1444C1813.37 1444.58 1813.69 1445.12 1814.19 1445.39L1828.45 1453.63C1836.18 1457.5 1840.92 1452.94 1840.92 1448.36V1389.07C1840.92 1388.23 1841.59 1387.58 1842.43 1387.58H1849.03C1849.85 1387.58 1850.54 1388.24 1850.54 1389.07V1448.36C1850.54 1458.69 1844.92 1464.6 1835.13 1464.6C1832.13 1464.6 1829.75 1464.6 1823.15 1461.34L1809.49 1453.49C1806.12 1451.55 1804.03 1447.9 1804.03 1444V1383.95C1804.03 1380.05 1806.12 1376.4 1809.49 1374.46L1861.53 1344.4C1864.82 1342.53 1869.19 1342.53 1872.46 1344.4L1924.49 1374.46C1927.86 1376.41 1929.96 1380.05 1929.96 1383.95V1444C1929.96 1447.9 1927.86 1451.53 1924.49 1453.49L1872.46 1483.54C1870.8 1484.5 1868.92 1485 1866.99 1485ZM1909 1425.79C1909 1414.55 1901.41 1411.56 1885.41 1409.44C1869.25 1407.31 1867.61 1406.2 1867.61 1402.42C1867.61 1399.3 1869 1395.12 1880.97 1395.12C1891.66 1395.12 1895.6 1397.43 1897.22 1404.63C1897.36 1405.31 1897.99 1405.81 1898.68 1405.81H1905.43C1905.85 1405.81 1906.25 1405.63 1906.53 1405.33C1906.82 1405.01 1906.97 1404.6 1906.93 1404.17C1905.88 1391.76 1897.64 1385.97 1880.97 1385.97C1866.13 1385.97 1857.28 1392.23 1857.28 1402.73C1857.28 1414.12 1866.08 1417.27 1880.32 1418.68C1897.36 1420.35 1898.68 1422.84 1898.68 1426.19C1898.68 1432 1894.02 1434.48 1883.05 1434.48C1869.28 1434.48 1866.25 1431.03 1865.24 1424.18C1865.12 1423.44 1864.49 1422.9 1863.74 1422.9H1857.01C1856.18 1422.9 1855.51 1423.57 1855.51 1424.4C1855.51 1433.17 1860.28 1443.62 1883.05 1443.62C1899.55 1443.62 1909 1437.13 1909 1425.79Z" fill="#6D6D6D"/>
</g>
<path d="M1163.67 2130.87C1155.46 2094.73 1136.1 2082.85 1134.02 2078.31C1131.73 2075.1 1129.25 2069 1129.25 2069C1129.24 2069.12 1129.23 2069.2 1129.22 2069.32V2069.4H1129.21C1129.2 2069.5 1129.19 2069.57 1129.19 2069.66V2069.75H1129.17C1129.17 2069.82 1129.16 2069.87 1129.16 2069.92V2070.09H1129.14C1129.13 2070.14 1129.13 2070.21 1129.12 2070.25V2070.39H1129.11C1129.11 2070.44 1129.11 2070.49 1129.1 2070.53V2070.66H1129.08C1129.08 2070.72 1129.08 2070.8 1129.07 2070.87V2070.88C1129.05 2070.99 1129.03 2071.1 1129.01 2071.2V2071.26H1129C1128.99 2071.28 1128.98 2071.31 1128.98 2071.33V2071.44H1128.96V2071.59H1128.93V2071.7H1128.89V2071.84H1128.87V2071.96H1128.84V2072.07H1128.8V2072.17H1128.78V2072.28H1128.75V2072.37H1128.72V2072.46H1128.7V2072.56H1128.67C1128.67 2072.56 1128.67 2072.57 1128.67 2072.58V2072.65H1128.65C1128.64 2072.66 1128.64 2072.67 1128.64 2072.69V2072.72H1128.63C1128.62 2072.74 1128.61 2072.78 1128.61 2072.79C1128.6 2072.84 1128.57 2072.88 1128.55 2072.93V2072.94C1128.54 2072.95 1128.52 2072.97 1128.52 2072.98V2073.04H1128.49V2073.09H1128.46V2073.14H1128.44V2073.21H1128.4V2073.3H1128.37V2073.32H1128.35V2073.37H1128.32V2073.45H1128.3V2073.5H1128.26V2073.57H1128.23V2073.62H1128.2V2073.67H1128.18V2073.74H1128.15V2073.79H1128.12V2073.83H1128.09V2073.88H1128.06V2073.94H1128.03V2073.98H1128V2074.03H1127.97V2074.1H1127.94V2074.13H1127.92V2074.18H1127.88V2074.21H1127.85V2074.27H1127.83V2074.3H1127.8V2074.35H1127.77V2074.39H1127.75L1127.74 2074.41V2074.44H1127.72C1127.72 2074.45 1127.71 2074.45 1127.71 2074.47V2074.47H1127.7C1127.7 2074.49 1127.69 2074.51 1127.68 2074.52V2074.54H1127.67C1127.64 2074.58 1127.62 2074.62 1127.59 2074.66V2074.66C1127.58 2074.67 1127.55 2074.7 1127.54 2074.73V2074.74H1127.53C1127.52 2074.75 1127.51 2074.75 1127.51 2074.76V2074.78H1127.5L1127.48 2074.8V2074.8H1127.47C1127.47 2074.81 1127.46 2074.82 1127.45 2074.83V2074.86H1127.43L1127.42 2074.87V2074.88H1127.41C1127.41 2074.9 1127.39 2074.9 1127.39 2074.9V2074.92H1127.37C1127.37 2074.93 1127.36 2074.93 1127.35 2074.94V2074.98H1127.33V2075.01H1127.31V2075.05H1127.28V2075.1H1127.25V2075.05H1127.22V2075.07H1127.19V2075.11H1127.16V2075.16H1127.13V2075.19H1127.1V2075.23H1127.07V2075.25H1127.05V2075.31H1127.01V2075.33H1126.98V2075.37H1126.95V2075.4H1126.92V2075.43H1126.89V2075.49H1126.88V2075.52H1126.84V2075.55H1126.81V2075.56H1126.79V2075.59H1126.76V2075.66H1126.73V2075.68H1126.7V2075.71H1126.67V2075.75H1126.64V2075.77H1126.61V2075.8H1126.58V2075.82H1126.55V2075.89H1126.53V2075.92H1126.49V2075.95H1126.46V2075.97H1126.43V2076.01H1126.4V2076.04H1126.37V2076.09H1126.35V2076.11H1126.31V2076.15H1126.29V2076.18H1126.27V2076.2H1126.24V2076.23H1126.21V2076.27H1126.18V2076.29H1126.16C1126.15 2076.3 1126.15 2076.31 1126.15 2076.31V2076.32H1126.14L1126.11 2076.34C1126.11 2076.34 1126.1 2076.36 1126.09 2076.36V2076.4H1126.06V2076.44H1126.03V2076.46H1126.01V2076.49H1125.99L1125.97 2076.51V2076.53H1125.96L1125.94 2076.54V2076.56H1125.93C1125.9 2076.6 1125.88 2076.62 1125.84 2076.66C1125.83 2076.68 1125.79 2076.71 1125.76 2076.73C1125.68 2076.78 1125.59 2076.86 1125.51 2076.94C1125.46 2076.97 1125.4 2077.01 1125.36 2077.05V2077.05H1125.36C1125.25 2077.14 1125.16 2077.22 1125.04 2077.31V2077.31C1124.88 2077.44 1124.73 2077.57 1124.56 2077.72V2077.71H1124.55C1124.18 2078.02 1123.79 2078.36 1123.34 2078.74V2078.75H1123.33C1122.23 2079.71 1120.93 2080.95 1119.46 2082.44L1119.37 2082.54L1119.34 2082.57C1110.5 2091.71 1096.57 2110.77 1095.1 2141.57C1094.97 2144.11 1095 2146.59 1095.14 2149V2149.06C1095.85 2161.2 1099.66 2171.56 1104.42 2179.97V2179.98C1106.32 2183.33 1108.37 2186.38 1110.44 2189.11V2189.12C1117.6 2198.58 1124.92 2204.18 1126.78 2205.54C1129.65 2212.19 1129.38 2223.6 1129.38 2223.6L1133.57 2225C1133.57 2225 1132.72 2213.94 1133.91 2208.61C1134.28 2206.94 1135.16 2205.51 1136.18 2204.3C1136.87 2203.82 1138.91 2202.35 1141.36 2200.11C1141.48 2199.99 1141.54 2199.88 1141.65 2199.76C1151.53 2190.54 1170 2167.85 1163.67 2130.87V2130.87Z" fill="#6D6D6D"/>
<path d="M198 1548.27C196.198 1548.27 194.413 1548.63 192.748 1549.32C191.082 1550.01 189.569 1551.02 188.295 1552.29C187.02 1553.57 186.009 1555.08 185.32 1556.75C184.63 1558.41 184.275 1560.2 184.275 1562C184.275 1563.8 184.63 1565.59 185.32 1567.25C186.009 1568.92 187.02 1570.43 188.295 1571.71C189.569 1572.98 191.082 1573.99 192.748 1574.68C194.413 1575.37 196.198 1575.73 198 1575.73C199.802 1575.73 201.587 1575.37 203.252 1574.68C204.918 1573.99 206.431 1572.98 207.705 1571.71C208.98 1570.43 209.991 1568.92 210.68 1567.25C211.37 1565.59 211.725 1563.8 211.725 1562C211.725 1560.2 211.37 1558.41 210.68 1556.75C209.991 1555.08 208.98 1553.57 207.705 1552.29C206.431 1551.02 204.918 1550.01 203.252 1549.32C201.587 1548.63 199.802 1548.27 198 1548.27ZM159.551 1589.3L156.523 1588.53C133.949 1582.83 121 1573.15 121 1561.97C121 1550.8 133.949 1541.12 156.523 1535.42L159.551 1534.65L160.405 1537.65C162.692 1545.53 165.617 1553.21 169.151 1560.61L169.799 1561.98L169.151 1563.35C165.611 1570.75 162.685 1578.43 160.405 1586.31L159.551 1589.3ZM155.117 1542.43C137.959 1547.25 127.429 1554.62 127.429 1561.97C127.429 1569.32 137.959 1576.69 155.117 1581.52C157.216 1574.85 159.749 1568.32 162.702 1561.97C159.746 1555.63 157.212 1549.1 155.117 1542.43V1542.43ZM236.449 1589.3L235.595 1586.29C233.311 1578.42 230.383 1570.74 226.843 1563.34L226.195 1561.97L226.843 1560.61C230.382 1553.21 233.309 1545.53 235.595 1537.65L236.449 1534.65L239.484 1535.41C262.051 1541.11 275 1550.8 275 1561.97C275 1573.15 262.051 1582.83 239.484 1588.53L236.449 1589.3V1589.3ZM233.298 1561.97C236.378 1568.64 238.926 1575.19 240.883 1581.52C258.047 1576.69 268.57 1569.32 268.57 1561.97C268.57 1554.62 258.041 1547.25 240.883 1542.43C238.787 1549.1 236.253 1555.63 233.298 1561.97V1561.97ZM155.072 1542.4L154.219 1539.4C147.873 1517.03 149.798 1501 159.5 1495.41C169.016 1489.91 184.294 1496.4 200.304 1512.84L202.485 1515.07L200.304 1517.31C194.615 1523.23 189.417 1529.59 184.762 1536.35L183.896 1537.59L182.388 1537.72C174.2 1538.36 166.078 1539.67 158.101 1541.63L155.072 1542.4V1542.4ZM167.238 1499.85C165.519 1499.85 163.998 1500.23 162.715 1500.96C156.337 1504.64 155.207 1517.42 159.603 1534.67C166.44 1533.15 173.37 1532.08 180.348 1531.46C184.374 1525.73 188.772 1520.28 193.515 1515.13C183.505 1505.39 174.027 1499.85 167.238 1499.85V1499.85ZM228.768 1630.51C228.761 1630.51 228.761 1630.51 228.768 1630.51C219.624 1630.51 207.882 1623.63 195.696 1611.11L193.515 1608.87L195.696 1606.63C201.384 1600.72 206.579 1594.35 211.231 1587.59L212.097 1586.35L213.599 1586.22C221.791 1585.58 229.918 1584.27 237.899 1582.31L240.928 1581.55L241.787 1584.55C248.121 1606.91 246.202 1622.95 236.5 1628.53C234.143 1629.87 231.475 1630.55 228.768 1630.51V1630.51ZM202.485 1608.82C212.495 1618.56 221.973 1624.09 228.762 1624.09H228.768C230.481 1624.09 232.008 1623.72 233.285 1622.98C239.663 1619.31 240.799 1606.52 236.397 1589.27C229.558 1590.79 222.626 1591.87 215.646 1592.49C211.625 1598.21 207.228 1603.67 202.485 1608.82V1608.82ZM240.928 1542.4L237.899 1541.63C229.919 1539.67 221.792 1538.36 213.599 1537.72L212.097 1537.59L211.231 1536.35C206.581 1529.59 201.386 1523.23 195.696 1517.31L193.515 1515.07L195.696 1512.84C211.7 1496.41 226.971 1489.92 236.5 1495.41C246.202 1501 248.127 1517.03 241.787 1539.39L240.928 1542.4ZM215.646 1531.46C222.974 1532.12 229.936 1533.21 236.397 1534.67C240.799 1517.42 239.663 1504.64 233.285 1500.96C226.946 1497.3 215.03 1502.92 202.485 1515.13C207.226 1520.28 211.622 1525.73 215.646 1531.46V1531.46ZM167.238 1630.51C164.529 1630.55 161.859 1629.87 159.5 1628.53C149.798 1622.95 147.873 1606.92 154.219 1584.55L155.066 1581.55L158.095 1582.31C165.506 1584.18 173.681 1585.5 182.382 1586.22L183.89 1586.35L184.75 1587.59C189.405 1594.35 194.603 1600.72 200.291 1606.63L202.472 1608.87L200.291 1611.11C188.112 1623.63 176.369 1630.51 167.238 1630.51V1630.51ZM159.603 1589.27C155.201 1606.52 156.337 1619.31 162.715 1622.98C169.048 1626.6 180.957 1621.03 193.515 1608.82C188.774 1603.67 184.376 1598.21 180.348 1592.49C173.37 1591.87 166.44 1590.79 159.603 1589.27V1589.27ZM198 1593.3C192.719 1593.3 187.291 1593.07 181.856 1592.62L180.348 1592.49L179.482 1591.25C176.407 1586.84 173.517 1582.29 170.819 1577.64C168.129 1572.98 165.633 1568.21 163.337 1563.34L162.695 1561.97L163.337 1560.61C165.632 1555.74 168.128 1550.97 170.819 1546.31C173.475 1541.72 176.395 1537.14 179.482 1532.69L180.348 1531.46L181.856 1531.33C192.601 1530.42 203.405 1530.42 214.151 1531.33L215.652 1531.46L216.512 1532.69C222.667 1541.53 228.069 1550.87 232.663 1560.61L233.311 1561.97L232.663 1563.34C228.08 1573.09 222.677 1582.42 216.512 1591.25L215.652 1592.49L214.151 1592.62C208.716 1593.07 203.281 1593.3 198 1593.3V1593.3ZM183.903 1586.34C193.399 1587.06 202.601 1587.06 212.104 1586.34C217.409 1578.59 222.12 1570.44 226.195 1561.97C222.127 1553.5 217.414 1545.35 212.097 1537.6C202.713 1536.89 193.287 1536.89 183.903 1537.6C178.584 1545.35 173.871 1553.5 169.805 1561.97C173.885 1570.44 178.597 1578.59 183.903 1586.34V1586.34Z" fill="#6D6D6D"/>
<path d="M384.087 711.731C387.377 717.751 389.249 724.656 389.249 732C389.249 747.584 380.805 761.203 368.244 768.523L381.149 731.209C383.558 725.177 384.361 720.356 384.361 716.075C384.361 714.489 384.259 713.02 384.087 711.727V711.731ZM352.828 712.139C355.362 712.021 357.653 711.727 357.653 711.727C359.933 711.434 359.667 708.085 357.391 708.206C357.391 708.206 350.517 708.735 346.111 708.735C341.944 708.735 334.948 708.147 334.948 708.147C332.657 708.03 332.359 711.496 334.655 711.614C334.655 711.614 336.77 711.853 339.061 711.966L345.641 730.003L336.358 757.733L320.97 712.025C323.512 711.908 325.803 711.633 325.803 711.633C328.094 711.34 327.824 707.991 325.548 708.124C325.548 708.124 318.71 708.664 314.292 708.664C313.509 708.664 312.576 708.633 311.589 708.606C319.235 697.337 332.254 689.759 347 689.759C358.002 689.759 368.013 693.957 375.537 700.855C375.357 700.843 375.18 700.819 374.985 700.819C370.833 700.819 367.888 704.435 367.888 708.316C367.888 711.802 369.897 714.751 372.039 718.229C373.649 721.049 375.525 724.664 375.525 729.889C375.525 733.473 374.139 737.699 372.31 743.515L368.099 757.556L352.824 712.084L352.828 712.139V712.139ZM347 774.237C342.852 774.237 338.849 773.638 335.062 772.526L347.74 735.686L360.724 771.276C360.818 771.484 360.92 771.672 361.03 771.86C356.643 773.399 351.923 774.245 347 774.245V774.237ZM304.743 732C304.743 725.874 306.059 720.054 308.405 714.806L328.553 770.027C314.468 763.177 304.747 748.728 304.743 732ZM347 685C321.091 685 300 706.091 300 732C300 757.909 321.091 779 347 779C372.909 779 394 757.909 394 732C394 706.091 372.909 685 347 685Z" fill="#6D6D6D"/>
<path d="M1666 1915V1978H1792V1852H1666V1915ZM1767.54 1909.98C1770.74 1910.78 1773.18 1912.2 1775.42 1914.52C1776.58 1915.76 1778.3 1918.02 1778.44 1918.56C1778.48 1918.72 1773 1922.4 1769.68 1924.46C1769.56 1924.54 1769.08 1924.02 1768.54 1923.22C1766.92 1920.86 1765.22 1919.84 1762.62 1919.66C1758.8 1919.4 1756.34 1921.4 1756.36 1924.74C1756.33 1925.56 1756.51 1926.38 1756.9 1927.1C1757.74 1928.84 1759.3 1929.88 1764.2 1932C1773.22 1935.88 1777.08 1938.44 1779.48 1942.08C1782.16 1946.14 1782.76 1952.62 1780.94 1957.44C1778.94 1962.68 1773.98 1966.24 1767 1967.42C1764.84 1967.8 1759.72 1967.74 1757.4 1967.32C1752.34 1966.42 1747.54 1963.92 1744.58 1960.64C1743.42 1959.36 1741.16 1956.02 1741.3 1955.78C1741.36 1955.7 1741.88 1955.38 1742.46 1955.04C1743.02 1954.72 1745.14 1953.5 1747.14 1952.34L1750.76 1950.24L1751.52 1951.36C1752.58 1952.98 1754.9 1955.2 1756.3 1955.94C1760.32 1958.06 1765.84 1957.76 1768.56 1955.32C1769.11 1954.86 1769.54 1954.28 1769.82 1953.62C1770.11 1952.97 1770.24 1952.25 1770.2 1951.54C1770.2 1950.08 1770.02 1949.44 1769.26 1948.34C1768.28 1946.94 1766.28 1945.76 1760.6 1943.3C1754.1 1940.5 1751.3 1938.76 1748.74 1936C1747.14 1934.18 1745.96 1932.03 1745.28 1929.7C1744.8 1927.92 1744.68 1923.46 1745.06 1921.66C1746.4 1915.38 1751.14 1911 1757.98 1909.7C1760.2 1909.28 1765.36 1909.44 1767.54 1909.98V1909.98ZM1737.96 1915.24L1738 1920.4H1721.6V1967H1710V1920.4H1693.6V1915.34C1693.6 1912.54 1693.66 1910.2 1693.74 1910.14C1693.8 1910.06 1703.78 1910.02 1715.88 1910.04L1737.9 1910.1L1737.96 1915.24Z" fill="#6D6D6D"/>
<path d="M1510.32 603.052L1470.61 625.417V607.998L1495.35 594.446L1510.32 603.052H1510.32ZM1513.04 600.602V553.828L1498.51 562.179V592.242L1513.04 600.602V600.602ZM1427.41 603.052L1467.12 625.417V607.998L1442.38 594.446L1427.41 603.052H1427.41ZM1424.69 600.602V553.828L1439.23 562.179V592.242L1424.69 600.602V600.602ZM1426.39 550.802L1467.12 527.859V544.702L1441.03 558.991L1440.83 559.105L1426.39 550.802V550.802ZM1511.34 550.802L1470.61 527.859V544.702L1496.7 558.992L1496.9 559.105L1511.34 550.802L1511.34 550.802ZM1467.12 604.035L1442.71 590.673V564.193L1467.12 578.227V604.035H1467.12ZM1470.61 604.035L1495.02 590.673V564.193L1470.61 578.227V604.035V604.035ZM1444.36 561.129L1468.87 547.709L1493.38 561.129L1468.87 575.22L1444.36 561.129Z" fill="#6D6D6D"/>
<g clip-path="url(#clip5)">
<path d="M1661.96 876.235C1661.96 878.159 1662.17 879.712 1662.53 880.85C1662.95 881.994 1663.47 883.242 1664.2 884.594C1664.46 885.003 1664.56 885.419 1664.56 885.783C1664.56 886.303 1664.25 886.823 1663.57 887.343L1660.3 889.521C1659.91 889.806 1659.44 889.969 1658.95 889.989C1658.43 889.989 1657.91 889.729 1657.4 889.261C1656.7 888.51 1656.07 887.694 1655.53 886.823C1654.95 885.827 1654.41 884.805 1653.92 883.762C1649.88 888.533 1644.79 890.918 1638.66 890.918C1634.31 890.918 1630.83 889.677 1628.29 887.187C1625.75 884.691 1624.46 881.376 1624.46 877.223C1624.46 872.816 1626.01 869.228 1629.17 866.537C1632.34 863.839 1636.54 862.487 1641.88 862.487C1643.65 862.487 1645.46 862.643 1647.38 862.903C1649.3 863.163 1651.28 863.579 1653.35 864.047V860.258C1653.35 856.312 1652.52 853.563 1650.91 851.957C1649.25 850.345 1646.45 849.572 1642.46 849.572C1640.64 849.572 1638.77 849.773 1636.85 850.241C1634.93 850.709 1633.06 851.281 1631.25 852.009C1630.66 852.274 1630.05 852.5 1629.43 852.685C1629.16 852.772 1628.88 852.822 1628.6 852.835C1627.87 852.835 1627.51 852.315 1627.51 851.229V848.688C1627.51 847.856 1627.61 847.232 1627.87 846.868C1628.27 846.396 1628.77 846.024 1629.33 845.782C1631.14 844.846 1633.32 844.066 1635.86 843.442C1638.51 842.765 1641.23 842.435 1643.96 842.461C1650.14 842.461 1654.65 843.865 1657.55 846.666C1660.41 849.461 1661.86 853.719 1661.86 859.426V876.235H1661.96ZM1640.9 884.126C1642.61 884.126 1644.37 883.814 1646.24 883.19C1648.11 882.566 1649.77 881.428 1651.17 879.875C1652 878.887 1652.63 877.795 1652.94 876.547C1653.24 875.305 1653.46 873.797 1653.46 872.036V869.858C1651.88 869.475 1650.29 869.179 1648.68 868.974C1647.06 868.769 1645.44 868.665 1643.81 868.662C1640.33 868.662 1637.79 869.338 1636.07 870.742C1634.36 872.14 1633.54 874.109 1633.54 876.703C1633.54 879.14 1634.15 880.96 1635.45 882.202C1636.69 883.502 1638.51 884.126 1640.9 884.126ZM1682.57 889.729C1681.63 889.729 1681.01 889.573 1680.59 889.209C1680.17 888.897 1679.81 888.169 1679.5 887.187L1667.31 847.076C1667.07 846.403 1666.92 845.705 1666.84 844.996C1666.84 844.164 1667.26 843.696 1668.08 843.696H1673.17C1674.15 843.696 1674.83 843.858 1675.19 844.216C1675.61 844.528 1675.92 845.256 1676.23 846.244L1684.95 880.59L1693.04 846.244C1693.3 845.204 1693.62 844.528 1694.02 844.216C1694.65 843.833 1695.37 843.652 1696.1 843.696H1700.25C1701.24 843.696 1701.92 843.858 1702.33 844.216C1702.74 844.528 1703.11 845.256 1703.31 846.244L1711.51 881.006L1720.49 846.244C1720.8 845.204 1721.16 844.528 1721.53 844.216C1722.13 843.834 1722.84 843.652 1723.55 843.696H1728.38C1729.2 843.696 1729.68 844.118 1729.68 844.996C1729.68 845.256 1729.62 845.516 1729.57 845.828C1729.49 846.271 1729.36 846.707 1729.2 847.128L1716.7 887.233C1716.39 888.273 1716.03 888.942 1715.61 889.254C1715.03 889.63 1714.34 889.812 1713.64 889.774H1709.18C1708.19 889.774 1707.52 889.618 1707.1 889.254C1706.69 888.89 1706.32 888.214 1706.12 887.174L1698.07 853.712L1690.08 887.122C1689.82 888.162 1689.51 888.838 1689.1 889.202C1688.68 889.566 1687.95 889.722 1687.02 889.722L1682.57 889.729ZM1749.23 891.126C1746.53 891.126 1743.83 890.814 1741.24 890.197C1738.65 889.573 1736.63 888.897 1735.27 888.117C1734.44 887.655 1733.88 887.135 1733.67 886.667C1733.47 886.209 1733.36 885.713 1733.36 885.211V882.566C1733.36 881.48 1733.77 880.96 1734.55 880.96C1734.86 880.96 1735.17 881.012 1735.48 881.116C1735.79 881.22 1736.26 881.428 1736.78 881.636C1738.54 882.416 1740.46 883.034 1742.49 883.45C1744.56 883.866 1746.58 884.074 1748.66 884.074C1751.93 884.074 1754.47 883.502 1756.24 882.358C1757.08 881.848 1757.78 881.123 1758.25 880.258C1758.72 879.392 1758.96 878.417 1758.93 877.431C1758.95 876.763 1758.84 876.098 1758.6 875.474C1758.36 874.85 1758 874.281 1757.54 873.797C1756.6 872.816 1754.83 871.932 1752.29 871.1L1744.77 868.76C1740.98 867.57 1738.18 865.809 1736.47 863.475C1734.8 861.322 1733.88 858.676 1733.87 855.948C1733.87 853.771 1734.34 851.853 1735.27 850.189C1736.21 848.532 1737.45 847.076 1739.01 845.938C1740.57 844.742 1742.33 843.858 1744.41 843.241C1746.49 842.617 1748.66 842.357 1750.95 842.357C1752.08 842.357 1753.28 842.409 1754.42 842.565C1755.61 842.721 1756.7 842.929 1757.79 843.137C1758.83 843.397 1759.82 843.657 1760.75 843.962C1761.68 844.274 1762.41 844.586 1762.93 844.898C1763.54 845.207 1764.08 845.652 1764.49 846.198C1764.83 846.703 1764.99 847.303 1764.95 847.908V850.345C1764.95 851.437 1764.54 852.009 1763.76 852.009C1763.07 851.93 1762.4 851.718 1761.79 851.385C1758.65 850.001 1755.26 849.311 1751.83 849.364C1748.87 849.364 1746.53 849.825 1744.93 850.813C1743.31 851.801 1742.49 853.303 1742.49 855.428C1742.49 856.884 1743.01 858.132 1744.05 859.114C1745.08 860.102 1747 861.09 1749.75 861.974L1757.12 864.301C1760.85 865.497 1763.56 867.161 1765.16 869.286C1766.77 871.412 1767.55 873.849 1767.55 876.547C1767.55 878.776 1767.08 880.804 1766.2 882.566C1765.26 884.334 1764.02 885.887 1762.41 887.135C1760.8 888.435 1758.88 889.365 1756.65 890.041C1754.31 890.762 1751.88 891.126 1749.23 891.126V891.126ZM1759.04 916.346C1741.97 928.956 1717.16 935.645 1695.84 935.645C1665.96 935.645 1639.03 924.595 1618.69 906.226C1617.08 904.776 1618.53 902.8 1620.46 903.944C1642.45 916.704 1669.59 924.439 1697.66 924.439C1716.6 924.439 1737.4 920.493 1756.55 912.401C1759.4 911.101 1761.84 914.266 1759.04 916.346V916.346ZM1766.15 908.247C1763.96 905.452 1751.72 906.902 1746.17 907.578C1744.51 907.786 1744.25 906.33 1745.76 905.238C1755.51 898.393 1771.54 900.363 1773.41 902.644C1775.27 904.984 1772.89 921.013 1763.76 928.69C1762.36 929.886 1761.01 929.262 1761.63 927.708C1763.71 922.573 1768.33 911.003 1766.15 908.247V908.247Z" fill="#6D6D6D"/>
</g>
<path d="M1581.1 170.708H1604.87L1592.98 142.505L1581.1 170.708ZM1592.98 98.0513L1527.94 120.931L1537.86 205.801L1592.98 235.948L1648.11 205.829L1658.02 120.942L1592.98 98.057V98.0513ZM1633.56 203.259H1618.4L1610.24 183.128H1575.72L1567.56 203.259H1552.39L1592.98 113.283L1633.56 203.259Z" fill="#6D6D6D"/>
<path d="M124.405 863.042C123.533 863.042 122.941 863.148 122.327 863.292V863.391H122.433C122.842 864.179 123.54 864.756 124.056 865.461C124.465 866.272 124.814 867.084 125.224 867.888L125.33 867.774C126.043 867.273 126.391 866.469 126.391 865.249C126.088 864.892 126.043 864.536 125.785 864.187C125.481 863.679 124.829 863.429 124.42 863.027L124.405 863.042ZM43.7558 963.096H36.7261C36.4986 951.251 35.7933 940.119 34.6786 929.654H34.6179L23.9254 963.096H18.5792L7.9625 929.654H7.88667C7.10558 939.687 6.61267 950.834 6.40792 963.096H0C0.417083 948.187 1.456 934.204 3.10917 921.16H11.83L21.9538 951.979H22.0144L32.2292 921.16H40.5329C42.3681 936.441 43.4449 950.432 43.7786 963.096H43.7558ZM74.2181 932.156C71.3516 947.664 67.5751 958.948 62.9038 965.978C59.2486 971.408 55.2446 974.115 50.8993 974.115C49.7391 974.115 48.321 973.766 46.6072 973.068V969.322C47.4413 969.451 48.4272 969.519 49.5343 969.519C51.5667 969.519 53.1971 968.951 54.4408 967.836C55.9347 966.471 56.6778 964.939 56.6778 963.248C56.6778 962.073 56.0939 959.684 54.9337 956.089L47.2442 932.156H54.145L59.6581 950.053C60.9018 954.118 61.425 956.954 61.2127 958.569C64.246 950.5 66.3542 941.681 67.5447 932.156H74.2181V932.156ZM167.683 963.096H147.739V921.16H154.45V957.94H167.683V963.096ZM142.506 964.12L134.801 960.328C135.484 959.752 136.144 959.13 136.735 958.433C140.019 954.595 141.649 948.893 141.649 941.347C141.649 927.47 136.204 920.523 125.307 920.523C119.968 920.523 115.797 922.283 112.794 925.809C109.534 929.661 107.896 935.334 107.896 942.834C107.896 950.205 109.337 955.619 112.249 959.062C114.903 962.171 118.899 963.726 124.253 963.726C126.255 963.726 128.09 963.475 129.751 962.983L139.799 968.837L142.529 964.12H142.506ZM117.542 954.702C115.835 951.972 114.986 947.573 114.986 941.537C114.986 930.973 118.201 925.688 124.617 925.688C127.976 925.688 130.456 926.954 132.026 929.479C133.725 932.225 134.574 936.577 134.574 942.545C134.574 953.192 131.359 958.531 124.943 958.531C121.568 958.531 119.104 957.265 117.527 954.739L117.542 954.702ZM104.969 951.479C104.969 955.043 103.664 957.97 101.056 960.245C98.4468 962.52 94.9661 963.657 90.5602 963.657C86.4424 963.657 82.4915 962.353 78.6316 959.752L80.4288 956.142C83.7503 957.811 86.7457 958.63 89.453 958.63C91.9707 958.63 93.9499 958.076 95.3908 956.961C96.8164 955.847 97.6657 954.277 97.6657 952.298C97.6657 949.795 95.9216 947.672 92.7518 945.89C89.8094 944.274 83.9323 940.907 83.9323 940.907C80.7322 938.579 79.1397 936.084 79.1397 931.982C79.1397 928.569 80.3303 925.839 82.7038 923.754C85.0926 921.646 88.1638 920.607 91.9555 920.607C95.8382 920.607 99.3872 921.638 102.572 923.716L100.957 927.326C98.2269 926.173 95.5348 925.582 92.8882 925.582C90.7422 925.582 89.0814 926.097 87.9288 927.144C86.7685 928.175 86.0481 929.495 86.0481 931.117C86.0481 933.605 87.8226 935.743 91.0986 937.563C94.0788 939.194 100.1 942.644 100.1 942.644C103.384 944.957 105.014 947.422 105.014 951.501L104.969 951.479ZM176.115 907.101C172.058 906.995 168.911 907.404 166.28 908.527C165.521 908.83 164.308 908.83 164.202 909.793C164.619 910.195 164.68 910.855 165.036 911.416C165.643 912.432 166.689 913.789 167.66 914.502C168.722 915.336 169.783 916.14 170.898 916.853C172.87 918.066 175.107 918.787 177.041 920.008C178.14 920.721 179.262 921.623 180.377 922.381C180.931 922.761 181.287 923.443 182 923.686V923.534C181.651 923.079 181.545 922.419 181.204 921.911C180.696 921.403 180.188 920.948 179.687 920.448C178.216 918.476 176.388 916.755 174.417 915.329C172.794 914.222 169.245 912.675 168.578 910.817L168.479 910.711C169.586 910.612 170.906 910.21 171.967 909.907C173.689 909.452 175.266 909.55 177.048 909.103C177.852 908.898 178.663 908.648 179.475 908.39V907.935C178.565 907.025 177.882 905.789 176.942 904.94C174.364 902.703 171.505 900.526 168.57 898.699C166.977 897.682 164.96 897.03 163.284 896.166C162.678 895.862 161.661 895.711 161.313 895.203C160.403 894.096 159.872 892.624 159.227 891.305C157.771 888.514 156.346 885.428 155.079 882.485C154.169 880.499 153.616 878.519 152.501 876.699C147.268 868.077 141.604 862.852 132.89 857.741C131.017 856.679 128.773 856.224 126.399 855.663C125.133 855.603 123.866 855.512 122.607 855.458C121.773 855.102 120.969 854.139 120.257 853.676C117.375 851.856 109.913 847.913 107.79 853.13C106.425 856.422 109.814 859.667 110.99 861.336C111.862 862.496 112.961 863.823 113.568 865.127C113.924 866.007 114.023 866.909 114.379 867.827C115.183 870.056 115.949 872.544 117.011 874.629C117.564 875.691 118.171 876.806 118.884 877.761C119.293 878.315 119.991 878.572 120.15 879.482C119.438 880.514 119.392 882.015 118.982 883.274C117.162 889.015 117.875 896.113 120.454 900.337C121.265 901.595 123.199 904.386 125.785 903.317C128.06 902.407 127.559 899.525 128.211 896.985C128.363 896.378 128.265 895.976 128.575 895.567V895.68C129.288 897.106 130.001 898.464 130.653 899.889C132.215 902.377 134.945 904.955 137.228 906.676C138.441 907.586 139.404 909.164 140.921 909.725V909.573H140.807C140.481 909.133 140.049 908.921 139.639 908.565C138.729 907.655 137.706 906.54 136.985 905.531C134.862 902.672 132.989 899.54 131.321 896.295C130.486 894.702 129.789 892.988 129.121 891.419C128.818 890.812 128.818 889.902 128.31 889.599C127.552 890.706 126.437 891.669 125.883 893.034C124.92 895.218 124.822 897.902 124.458 900.693C124.253 900.746 124.352 900.693 124.253 900.799C122.63 900.405 122.076 898.721 121.47 897.311C119.953 893.709 119.703 887.923 121.015 883.775C121.371 882.713 122.888 879.361 122.281 878.345C121.963 877.382 120.962 876.828 120.408 876.047C119.748 875.107 119.043 873.886 118.588 872.809C117.375 869.973 116.768 866.833 115.449 863.997C114.842 862.685 113.78 861.313 112.916 860.107C111.953 858.742 110.891 857.779 110.125 856.164C109.875 855.61 109.519 854.693 109.92 854.086C110.027 853.676 110.239 853.517 110.633 853.403C111.301 852.857 113.174 853.57 113.833 853.874C115.706 854.632 117.284 855.345 118.854 856.406C119.566 856.907 120.332 857.87 121.242 858.12H122.304C123.927 858.477 125.754 858.226 127.271 858.674C129.963 859.538 132.39 860.797 134.566 862.162C141.209 866.378 146.669 872.362 150.378 879.498C150.984 880.665 151.25 881.735 151.803 882.948C152.865 885.451 154.177 887.976 155.254 890.395C156.315 892.784 157.339 895.218 158.863 897.197C159.622 898.259 162.67 898.812 164.035 899.366C165.044 899.821 166.613 900.238 167.523 900.792C169.268 901.853 170.966 903.067 172.604 904.234C173.438 904.811 175.964 906.077 176.115 907.101V907.101Z" fill="#6D6D6D"/>
<path d="M1928.13 420.197L1930.6 424.766L1922.36 427.718L1933.41 428.717L1936.83 434.428L1938.97 429.29L1948.49 428.337L1941.11 425.527L1943.07 420.866L1935.83 423.245L1928.13 420.197ZM1959.77 429.716L1943.07 436.335L1958.16 442.284L1959.77 441.615L1974.87 435.666L1959.77 429.716ZM1911.6 431.146C1907.99 431.146 1904.53 431.702 1901.98 432.693C1899.43 433.683 1897.99 435.026 1897.99 436.426C1897.99 437.828 1899.42 439.172 1901.98 440.163C1904.53 441.154 1907.99 441.711 1911.6 441.711C1915.21 441.711 1918.67 441.154 1921.23 440.163C1923.78 439.172 1925.21 437.828 1925.21 436.426C1925.21 435.026 1923.78 433.683 1921.22 432.693C1918.67 431.702 1915.21 431.146 1911.6 431.146V431.146ZM1990 439.19C1990 439.19 1948.83 458.798 1942.36 461.891C1936.74 464.463 1933.64 464.463 1927.41 462.322C1918.12 458.518 1880 441.188 1880 441.188V445.946C1880 447.046 1881.52 448.233 1884.43 449.613C1890.28 452.422 1922.65 466.466 1927.74 468.89C1932.84 471.319 1936.45 471.365 1942.92 467.987C1949.4 464.605 1979.82 450.089 1985.67 447.041C1988.67 445.474 1990 444.282 1990 443.191V439.19ZM1943.97 441.949L1918.45 445.859L1936.26 453.238L1943.97 441.949ZM1990 456.753C1990 456.753 1948.83 476.366 1942.36 479.459C1936.74 482.026 1933.64 482.026 1927.41 479.886C1918.12 476.081 1880 458.756 1880 458.756V463.514C1880 464.605 1881.52 465.796 1884.43 467.181C1890.28 469.986 1922.65 484.029 1927.74 486.453C1932.84 488.883 1936.45 488.928 1942.92 485.551C1949.4 482.173 1979.82 467.653 1985.67 464.605C1988.67 463.083 1990 461.846 1990 460.755V456.753ZM1990 474.363L1942.36 497.068C1936.74 499.635 1933.64 499.635 1927.41 497.499C1918.12 493.691 1880 476.366 1880 476.366V481.123C1880 482.218 1881.52 483.41 1884.43 484.79C1890.28 487.599 1922.65 501.638 1927.74 504.067C1932.84 506.496 1936.45 506.542 1942.92 503.16C1949.4 499.782 1979.82 485.266 1985.67 482.218C1988.67 480.646 1990 479.409 1990 478.364V474.363Z" fill="#6D6D6D"/>
<g clip-path="url(#clip6)">
<path d="M2012.83 1537H2005.76C2005.58 1536.52 2005.41 1536.05 2005.25 1535.57C2003.69 1530.74 2000.95 1524.77 2000.24 1519.95C1999.18 1512.82 2005.89 1512.42 2010.2 1509.33C2016.83 1504.55 2022.05 1501.9 2029.24 1497.58C2031.38 1496.29 2037.81 1493.06 2038.53 1491.58C2039.99 1488.62 2036.03 1484.46 2034.98 1482.15C2033.35 1478.48 2032.48 1475.36 2032.25 1471.75C2026.28 1470.8 2021.7 1467.2 2018.88 1463.16C2014.32 1456.45 2011.15 1444.05 2015.08 1434.62C2015.4 1433.88 2016.92 1432.41 2017.14 1431.27C2017.58 1429.02 2016.38 1426.05 2016.27 1423.66C2015.83 1411.39 2018.33 1400.82 2026.6 1397.12C2029.96 1383.78 2041.92 1379.34 2053.23 1372.71C2057.45 1370.23 2062.11 1368.64 2066.94 1366.86C2084.13 1360.51 2110.64 1361.7 2124.9 1372.54C2130.96 1377.13 2140.68 1386.83 2144.16 1393.85C2153.31 1412.37 2152.64 1443.34 2146.24 1465.88C2145.36 1468.93 2144.13 1473.36 2142.37 1476.99C2141.15 1479.52 2137.38 1484.6 2137.84 1486.85C2138.31 1489.13 2146.46 1495.33 2148.22 1496.96C2151.37 1500.02 2157.36 1504.03 2157.82 1507.84C2158.33 1511.88 2156.02 1517.53 2154.85 1521.43C2153.28 1526.66 2151.69 1531.88 2150.11 1536.88H2012.81L2012.83 1537V1537ZM2093.33 1511.33C2089.38 1509.16 2083.47 1506.82 2078.36 1505.85C2072.06 1504.66 2072.71 1514.46 2072.92 1520.3C2073.14 1524.96 2075.54 1529.84 2076.63 1532.95C2077.17 1534.37 2077.27 1535.92 2078.48 1536.2C2080.65 1536.69 2087.83 1533.84 2089.9 1532.73C2094.25 1530.35 2097.61 1526.61 2101.31 1524.11C2101.42 1522.88 2101.42 1521.64 2101.53 1520.43C2099.35 1519.35 2096.86 1518.56 2093.59 1518.42C2095.86 1517.33 2099.02 1517.33 2101.09 1516.01L2101.21 1514.61C2097.61 1514.39 2096.21 1512.77 2093.8 1511.45L2093.33 1511.33V1511.33ZM2147.38 1532.61C2148.78 1528.13 2149.98 1523.76 2150.75 1519.91C2151.18 1517.83 2152.31 1513.26 2152.04 1511.38C2151.62 1508.06 2147.08 1505.59 2144.76 1503.51C2140.53 1499.71 2137.87 1496.44 2133.45 1492.86C2131.65 1495.58 2127.8 1497.32 2126.33 1499.49C2136.82 1494.49 2138.72 1518.52 2134.6 1526.23C2135.25 1528.63 2137.44 1529.5 2138.33 1531.57L2137.7 1532.77H2147.05C2147.15 1532.77 2147.27 1532.77 2147.37 1532.87L2147.38 1532.61V1532.61ZM2099.28 1532.53C2098.92 1531.99 2098.55 1531.55 2098.19 1531.01L2096.01 1532.42H2099.28V1532.53ZM2119.37 1532.53C2119.43 1531.01 2119.5 1529.6 2119.58 1528.19C2115.74 1528.4 2113.6 1524.71 2110.91 1524.37C2108.57 1524.04 2106.56 1526.99 2103.52 1525.78C2102.82 1526.54 2102.19 1527.43 2101.45 1528.07C2102.57 1529.38 2103.59 1530.79 2104.53 1532.31H2110.44C2110.54 1531.12 2111.42 1530.24 2112.61 1530.24C2113.81 1530.24 2114.68 1531.12 2114.68 1532.2H2119.46L2119.37 1532.53V1532.53ZM2134.71 1532.53C2132.43 1529.05 2127.84 1526.02 2122.53 1528.5L2122.3 1532.42H2134.71V1532.53ZM2073.01 1532.53L2072.25 1530.03C2070.62 1524.8 2069.65 1520.9 2069.31 1517.85C2062.69 1514.69 2055.72 1511.54 2050.07 1507.51C2048.99 1506.75 2042.03 1497.73 2041.16 1498.05C2028.55 1502.95 2016.8 1511.53 2006.25 1519.69C2008.11 1523.72 2009.73 1527.96 2011.26 1532.3H2072.92L2073.01 1532.53ZM2132.93 1517.21C2132.72 1513.49 2131.74 1505.89 2129.45 1504.59C2124.67 1501.76 2116.07 1510.24 2112.49 1511.43C2112.81 1512.52 2113.47 1513.39 2113.58 1514.91C2115.64 1514.37 2118.25 1514.7 2120.09 1515.58C2117.92 1515.79 2115.53 1515.79 2114.11 1516.76C2113.58 1518.18 2114.23 1520.24 2113.9 1522.3C2118.9 1523.73 2124.78 1524.5 2131.19 1524.71C2132.38 1523.06 2132.82 1520.03 2132.72 1516.87L2132.93 1517.21V1517.21ZM2103.35 1514.6C2103.03 1517.32 2103.68 1518.29 2104.22 1521.43C2113.35 1524.27 2111.72 1508.82 2103.24 1514.48L2103.35 1514.6ZM2055.52 1504.37C2052.25 1507.69 2064.73 1512.22 2068.67 1512.46C2068.67 1510.35 2069.87 1508.37 2069.65 1506.87C2064.94 1506.02 2058.76 1506.57 2055.55 1504.36L2055.52 1504.37V1504.37ZM2095.86 1505.93C2095.86 1506.24 2095.42 1506.14 2095.37 1506.4C2099.58 1509.67 2102.72 1510.35 2108.44 1510.09C2111.01 1508.19 2113.3 1506.01 2116 1504.24C2109.81 1504.78 2102 1508.64 2095.89 1505.9L2095.86 1505.93V1505.93ZM2120.66 1377.41C2109.02 1370.84 2089.12 1365.88 2076.61 1372.11C2066.6 1377.13 2052.9 1385.46 2048.34 1395.98C2052.69 1406.14 2047.14 1415.45 2046.7 1425.77C2046.57 1431.27 2049.31 1436.06 2049.54 1442.03C2048.09 1444.48 2043.55 1444.79 2040.4 1444.61C2039.34 1439.33 2037.49 1433.38 2032.03 1432.79C2024.31 1431.95 2018.65 1438.33 2018.32 1445C2017.88 1452.82 2024.36 1465.76 2033.44 1464.9C2036.98 1464.56 2037.85 1460.98 2041.7 1460.98C2043.77 1465.11 2038.47 1466.41 2037.91 1469.35C2037.79 1470.11 2038.33 1473.05 2038.66 1474.46C2040.35 1481.3 2044.06 1490.11 2047.69 1495.34C2052.29 1501.87 2061.35 1502.96 2071.1 1503.61C2072.84 1499.81 2079.25 1500.13 2083.47 1501.1C2078.46 1499.15 2073.78 1494.25 2069.87 1490.02C2065.41 1485.12 2060.95 1479.8 2060.73 1473.49C2069.1 1485.12 2075.96 1495.23 2091.19 1500.34C2102.71 1504.15 2116.19 1498.5 2125 1492.3C2128.7 1489.7 2130.88 1485.56 2133.48 1481.87C2143.27 1467.83 2147.84 1447.72 2146.87 1428.26C2146.43 1420.2 2146.43 1412.15 2143.71 1406.83C2140.89 1401.17 2131.42 1396.17 2125.76 1401.17C2124.68 1395.63 2130.32 1392.26 2136.96 1394.22C2132.18 1388.02 2127.28 1380.74 2120.54 1376.93L2120.66 1377.41V1377.41ZM2090.47 1471C2094.93 1482.19 2110.23 1480.88 2123.14 1480.59C2122.53 1481.99 2121.28 1483.74 2119.77 1484.32C2115.63 1486 2104.21 1487.28 2098.47 1484.23C2094.8 1482.27 2092.49 1477.9 2090.48 1475.34C2089.48 1474.09 2084.71 1470.93 2090.39 1470.92L2090.47 1471V1471ZM2091.66 1464.68C2098.13 1468.05 2109.93 1468.44 2118.72 1468.16C2119.19 1470.1 2119.19 1472.47 2119.21 1474.79C2107.96 1475.37 2094.65 1472.58 2091.69 1464.67H2091.66V1464.68ZM2140.06 1460.44C2136.63 1466.96 2131.76 1474.19 2121.65 1474.42C2121.49 1472.36 2121.33 1469.09 2121.65 1467.86C2129.37 1467.12 2134.17 1463.18 2140.09 1460.49L2140.06 1460.44V1460.44ZM2135.35 1455.6C2127.96 1460.39 2119.74 1465.57 2107.63 1464.38C2105.08 1462.13 2104.11 1457.12 2106.61 1453.81C2107.93 1456.07 2107.05 1460.22 2110.74 1460.83C2117.59 1462.03 2125.52 1456.64 2130.53 1454.74C2133.58 1449.58 2130.21 1447.67 2127.49 1444.36C2121.83 1437.61 2114.22 1429.13 2114.43 1418.91C2116.71 1417.28 2116.94 1421.41 2117.27 1422.17C2120.19 1429.13 2127.59 1437.94 2133.03 1443.92C2134.33 1445.45 2136.51 1446.75 2136.72 1447.72C2137.39 1450.54 2134.88 1453.91 2135.21 1455.76L2135.35 1455.6V1455.6ZM2037.91 1450.71C2035.64 1449.38 2035.07 1443.53 2032.35 1443.39C2028.47 1443.17 2029.17 1450.99 2029.19 1455.56C2026.5 1453.17 2026.03 1445.67 2028 1441.86C2025.76 1440.77 2024.77 1443.05 2023.52 1443.92C2025.11 1432.4 2040.48 1438.6 2037.94 1450.88L2037.91 1450.71ZM2026.18 1406.46C2021.21 1411.94 2022.26 1422.22 2022.85 1429.57C2031.87 1423.88 2043.86 1430 2043.75 1439.68C2048.06 1439.57 2045.37 1434.29 2044.58 1430.87C2042.03 1419.79 2048.88 1407.76 2044.88 1397.6C2037.17 1398.2 2030.82 1401.36 2026.19 1406.4L2026.18 1406.46V1406.46ZM2092.3 1414.52C2094.52 1418.6 2095.23 1422.85 2098.39 1425.91C2099.8 1427.29 2102.55 1428.98 2101.19 1432.8C2100.87 1433.68 2098.55 1435.64 2097.2 1436.06C2092.31 1437.48 2080.86 1436.28 2084.72 1430.19C2088.8 1430.3 2094.25 1432.79 2097.28 1429.87C2095 1426.06 2090.86 1418.77 2092.39 1414.42L2092.3 1414.52ZM2137.24 1414.43H2137.73C2140.12 1419.27 2142.08 1424.4 2145.01 1428.68C2143.05 1433.24 2130.13 1437.3 2130.34 1429.09C2133.16 1427.86 2137.95 1428.84 2140.46 1427.28C2139.06 1423.25 2136.98 1419.98 2137.31 1414.44L2137.24 1414.43ZM2087.01 1402.71C2076.7 1400.31 2071.56 1407 2068.45 1413.97C2065.67 1413.29 2066.78 1409.51 2067.47 1407.56C2069.32 1402.48 2076.75 1395.73 2082.84 1396.65C2085.44 1397.06 2088.98 1399.44 2087.01 1402.69V1402.71V1402.71ZM2061.91 1374.54C2050.6 1377.73 2036.1 1385.95 2031.46 1396.1C2035.05 1395.6 2037.55 1393.78 2041.1 1393.56C2042.45 1393.44 2044.21 1394.09 2045.75 1393.67C2048.83 1392.91 2051.41 1385.95 2053.74 1383.45C2056 1380.94 2058.71 1379.85 2060.56 1377.57C2061.77 1376.92 2063.52 1377.04 2063.61 1375.18C2063.07 1374.64 2062.52 1374.2 2061.92 1374.42V1374.54H2061.91Z" fill="#6D6D6D"/>
</g>
<g clip-path="url(#clip7)">
<path d="M1009.72 11.6918L1030.69 23.8043C1034.16 20.1535 1039.93 20.009 1043.58 23.477C1044.21 24.072 1044.74 24.7563 1045.18 25.5043C1047.68 29.8733 1046.16 35.445 1041.8 37.9483C1041.06 38.3733 1040.26 38.692 1039.42 38.896V63.1168C1044.29 64.277 1047.3 69.1645 1046.14 74.035C1045.94 74.902 1045.6 75.735 1045.15 76.5043C1042.64 80.852 1037.07 82.3438 1032.71 79.8278C1031.88 79.3475 1031.12 78.727 1030.48 78.0045L1009.63 90.0405C1011.21 94.8175 1008.62 99.9643 1003.85 101.541C1002.93 101.843 1001.97 102 1001 102C995.981 102.004 991.909 97.9413 991.905 92.922C991.905 92.0508 992.028 91.1795 992.279 90.3338L971.301 78.234C967.833 81.8635 962.074 82.0038 958.441 78.5315C954.811 75.0635 954.675 69.3048 958.143 65.671C959.346 64.4088 960.889 63.5205 962.58 63.1083L962.584 38.8875C957.697 37.7145 954.688 32.7973 955.865 27.9055C956.065 27.064 956.388 26.2523 956.817 25.5C959.333 21.148 964.901 19.6605 969.257 22.1765C970.009 22.6058 970.698 23.1455 971.297 23.7788L992.283 11.6663C990.855 6.851 993.605 1.79775 998.408 0.374003C999.245 0.123253 1000.12 3.33465e-06 1001 3.33465e-06C1006.02 -0.00424667 1010.09 4.0545 1010.1 9.0695C1010.1 9.95775 1009.97 10.846 1009.72 11.6918ZM1007.53 15.419C1007.45 15.5083 1007.37 15.5848 1007.28 15.6655L1034.74 63.223C1034.85 63.1848 1034.98 63.155 1035.09 63.1253V38.8705C1030.22 37.6678 1027.26 32.742 1028.47 27.8715C1028.49 27.7695 1028.52 27.6633 1028.55 27.5655L1007.53 15.419V15.419ZM994.714 15.6698L994.459 15.4148L973.439 27.5358C974.829 32.3595 972.049 37.3873 967.23 38.777C967.119 38.811 967.013 38.8365 966.907 38.8663V63.1253L967.264 63.223L994.723 15.6655L994.714 15.6698V15.6698ZM1003.54 17.8245C1001.88 18.3005 1000.12 18.3005 998.471 17.8245L971.016 65.3778C972.266 66.5805 973.15 68.119 973.566 69.802H1028.44C1028.85 68.1105 1029.74 66.5678 1031 65.365L1003.54 17.8245ZM1007.73 86.7893L1028.61 74.7278C1028.54 74.528 1028.49 74.3283 1028.45 74.1243H973.554L973.464 74.477L994.455 86.598C996.104 84.881 998.425 83.8228 1001 83.8228C1003.66 83.8228 1006.06 84.966 1007.73 86.7893Z" fill="#6D6D6D"/>
</g>
<path d="M576.872 1936H595.838V2023.8C586.109 2025.64 578.965 2026.38 571.208 2026.38C548.051 2026.38 535.982 2015.91 535.982 1995.84C535.982 1976.5 548.791 1963.94 568.622 1963.94C571.701 1963.94 574.04 1964.18 576.872 1964.92V1936ZM576.872 1980.19C574.811 1979.49 572.644 1979.16 570.468 1979.21C560.86 1979.21 555.321 1985.12 555.321 1995.46C555.321 2005.57 560.618 2011.11 570.347 2011.11C572.44 2011.11 574.166 2010.98 576.872 2010.61V1980.19V1980.19ZM626.018 1965.29V2009.26C626.018 2024.41 624.911 2031.68 621.586 2037.95C618.507 2043.99 614.442 2047.81 606.066 2052L588.453 2043.62C596.829 2039.68 600.894 2036.23 603.48 2030.93C606.191 2025.51 607.052 2019.23 607.052 2002.73V1965.29H626.018V1965.29ZM607.052 1936.1H626.018V1955.56H607.052V1936.1Z" fill="#6D6D6D"/>
<defs>
<clipPath id="clip0">
<rect width="280" height="280" fill="white" transform="translate(348 947)"/>
</clipPath>
<clipPath id="clip1">
<rect width="184" height="184" fill="white" transform="translate(2007 763)"/>
</clipPath>
<clipPath id="clip2">
<rect width="135" height="135" fill="white" transform="translate(386 214)"/>
</clipPath>
<clipPath id="clip3">
<rect width="140" height="140" fill="white" transform="translate(654 1501)"/>
</clipPath>
<clipPath id="clip4">
<rect width="142" height="142" fill="white" transform="translate(1796 1343)"/>
</clipPath>
<clipPath id="clip5">
<rect width="156" height="156" fill="white" transform="translate(1618 811)"/>
</clipPath>
<clipPath id="clip6">
<rect width="174" height="174" fill="white" transform="translate(1992 1363)"/>
</clipPath>
<clipPath id="clip7">
<rect width="102" height="102" fill="white" transform="translate(950)"/>
</clipPath>
</defs>
</svg>
