<svg width="532" height="289" viewBox="0 0 532 289" fill="none" xmlns="http://www.w3.org/2000/svg">
<path d="M97.459 195.208L91.028 199.019C83.551 200.297 77.339 191.502 72.914 185.535C70.335 182.056 65.287 175.407 66.944 170.553C67.424 170.624 68.541 170.459 68.912 170.28C81.362 164.241 91.294 185.034 97.459 195.208ZM225.976 159.927C220.957 147.895 221.648 134.708 217.609 122.43C215.485 115.974 212.193 109.058 204.911 107.447C201.766 106.752 198.578 106.578 195.393 106.73L194.029 106.824C191.185 107.04 188.348 107.482 185.554 108.045C180.163 116.424 172.154 123.466 164.127 128.647C161.734 130.191 158.602 131.949 155.382 132.815C142.612 140.723 128.385 145.779 114.062 150.11C105.48 152.705 96.551 155.117 88.323 158.695C81.719 161.568 75.712 165.466 69.529 169.106C78.694 166.106 86.033 172.593 91.338 180.275C99.296 191.798 105.473 206.651 119.146 212.646C121.489 213.673 123.785 214.386 126.031 214.827H137.216C138.945 214.49 140.641 214.012 142.298 213.397L152.337 207.941C154.566 206.35 156.708 204.568 158.761 202.667L164.574 196.752C165.109 196.161 165.638 195.566 166.157 194.968C171.812 188.45 176.838 181.334 182.718 175.023C187.601 169.783 194.092 165.415 198.035 159.411C197.321 157.375 196.611 155.337 195.916 153.296C195.455 151.941 190.664 140.943 192.211 139.952C192.835 139.552 195.769 139.398 194.48 140.223C195.099 139.827 194.816 140.096 195.098 141.064C195.419 142.169 195.76 143.268 196.111 144.363C197.273 147.991 198.488 151.603 199.737 155.202C200.11 156.276 200.491 157.347 200.867 158.42C201.044 158.436 201.147 158.469 201.116 158.518C201.071 158.589 201.021 158.657 200.975 158.727C203.697 166.475 206.525 174.194 209.687 181.77C213.326 190.491 216.995 197.721 224.827 203.543C225.456 204.01 226.094 204.46 226.736 204.903C227.368 204.872 227.91 205.098 227.878 205.664C235.556 210.726 244.087 214.155 252.738 217.254C252.981 217.254 253.224 217.254 253.467 217.254C254.162 217.254 254.391 217.504 254.347 217.826C256.184 218.476 258.023 219.117 259.859 219.758C264.039 213.88 265.838 206.705 270.059 200.855C262.821 196.9 255.812 191.786 249.258 186.863C239.692 179.679 230.669 171.178 225.976 159.927ZM85.55 158.304C85.683 158.246 85.819 158.194 85.952 158.137C77.341 161.398 69.673 165.131 66.813 168.812C66.849 168.809 66.885 168.805 66.92 168.802C73.061 165.205 79.01 161.149 85.55 158.304ZM133.431 141.828C137.506 140.245 141.52 138.517 145.448 136.555L133.431 141.828ZM336.261 170.632L334.185 172.647C334.185 172.652 334.186 172.658 334.186 172.664C334.887 171.999 335.579 171.321 336.261 170.632ZM483.428 210.029L487.667 208.159C487.667 208.159 487.985 207.483 488.522 206.446C487.308 207.45 486.061 208.379 484.782 209.198C484.336 209.483 483.881 209.754 483.428 210.029ZM501.468 175.438L495.443 175.164C497.615 175.452 499.931 175.703 501.468 175.438ZM493.097 176.572C487.201 176.205 481.275 176.447 475.413 175.565C461.55 173.48 451.448 167.185 443.062 156.063C434.13 144.217 424.836 132.563 416.275 120.449C411.845 114.179 407.809 107.769 403.723 101.285C401.641 97.9809 399.546 95.0879 395.887 93.4179C394.244 92.6679 392.664 91.9379 391.171 90.9819C390.528 91.0099 389.886 91.0479 389.243 91.1049C387.499 91.4919 384.655 92.1239 380 93.1589C379.717 93.2219 379.461 93.3029 379.187 93.3709C375.686 94.7079 372.423 96.6309 369.648 99.2489C363.521 105.032 360.438 112.146 358.384 120.207C356.411 127.949 354.584 135.707 352.429 143.404C350.819 149.155 349.825 156.064 346.562 161.176C341.545 169.038 334.212 175.533 327.33 181.719C324.028 184.687 320.675 187.597 317.303 190.485C316.264 191.374 315.219 192.256 314.194 193.162C313.769 193.537 313.183 194.482 313.378 193.723C313.287 194.079 312.942 194.363 312.521 194.548C313.958 197.804 317.051 199.802 319.038 202.77C321.481 206.419 323.053 210.524 325.926 213.871C327.831 213.088 329.83 211.435 331.307 210.461C334.545 208.326 337.716 206.091 340.835 203.787C341.425 203.351 342.008 202.905 342.596 202.466L352.352 194.935C355.537 192.375 358.67 189.752 361.702 187.022C368.142 181.224 372.044 175.43 376.079 167.653C382.411 155.451 387.861 142.627 389.975 128.963C390.096 128.182 392.978 127.647 392.846 128.5C391.712 135.829 389.632 142.972 386.953 149.907C387.086 149.933 387.174 149.979 387.182 150.053C387.466 152.721 388.218 155.235 389.271 157.627L396.741 169.267C400.549 174.144 404.127 179.106 407.727 184.12L423.457 204.209C426.662 207.556 430.131 210.57 433.926 212.951L436.453 214.404C436.939 214.661 437.422 214.925 437.918 215.16C439.588 215.95 441.323 216.581 443.102 217.079L450.334 217.827L457.449 218.301C458.886 218.178 460.321 217.985 461.75 217.735C461.757 217.498 461.767 217.262 461.765 217.023C461.758 215.734 464.691 215.283 464.7 216.796C464.7 216.865 464.696 216.932 464.695 217L467.971 216.244C468.265 216.155 468.557 216.061 468.848 215.967L473.551 214.204C477.627 212.458 481.431 210.245 484.738 207.679C487.432 205.588 489.993 202.992 492.293 200.083C492.735 199.448 493.191 198.841 493.652 198.281C498.229 191.924 501.497 184.297 502.09 176.924C499.271 177.498 495.68 176.733 493.097 176.572Z" fill="#EB144C"/>
<path d="M212.879 62.933C214.38 63.629 215.961 63.816 217.426 62.909C218.033 62.534 218.862 62.287 219.507 62.746C220.064 63.142 219.909 63.952 219.363 64.29C216.834 65.855 213.959 66.206 211.218 64.934C209.533 64.151 211.633 62.355 212.879 62.933ZM205.256 49.959C205.594 50.972 205.951 52.03 206.698 52.822C207.43 53.597 210.189 52.517 209.383 51.663C208.728 50.97 208.449 50.069 208.154 49.183C207.795 48.108 204.912 48.93 205.256 49.959ZM203.954 44.304C201.545 44.735 198.969 45.846 198.911 48.623C198.899 49.171 201.789 48.751 201.808 47.847C201.822 47.212 201.978 46.57 202.39 46.072C202.762 45.623 203.102 45.547 203.445 45.486C203.94 45.398 204.902 45.194 205.133 44.655C205.355 44.136 204.136 44.271 203.954 44.304ZM342.892 64.646C342.344 64.734 341.489 64.952 341.211 65.5C340.652 66.602 340.003 67.645 339.318 68.672C338.967 69.198 339.619 69.291 340.036 69.271C340.59 69.245 341.624 69.06 341.967 68.546C342.727 67.407 343.462 66.261 344.083 65.038C344.349 64.511 343.059 64.619 342.892 64.646ZM355.932 50.604C355.252 50.551 354.444 50.765 353.883 51.153C352.881 51.846 352.187 52.796 351.346 53.655C350.873 54.137 351.756 54.233 352.054 54.216C352.695 54.179 353.521 53.978 353.987 53.501C354.699 52.774 355.28 51.913 356.126 51.328C356.589 51.008 356.497 50.649 355.932 50.604ZM362.799 46.177C362.781 45.134 362.509 44.124 361.64 43.474C360.617 42.709 359.118 42.845 357.938 42.996C357.454 43.058 356.48 43.3 356.245 43.807C356.012 44.31 357.259 44.143 357.414 44.123C359.154 43.901 359.875 45.476 359.901 46.954C359.91 47.487 362.813 47.033 362.799 46.177ZM505.086 173.767C505.086 185.723 497.941 198.658 488.522 206.446C487.308 207.45 486.061 208.379 484.782 209.198C484.337 209.483 483.881 209.754 483.428 210.029C477.66 213.527 471.289 216.166 464.677 217.765C464.42 223.406 461.827 228.269 463.287 234.143C464.646 239.614 466.994 244.629 470.573 249.004C471.505 250.143 468.747 251.288 467.919 250.275C464.063 245.561 460.976 239.548 460.102 233.463C459.337 228.132 461.398 223.535 461.72 218.413C456.832 219.355 451.846 219.728 446.908 219.459C436.723 218.903 428.338 212.798 421.295 205.474C411.694 209.08 400.603 212.2 390.341 209.886C391.943 228.006 399.881 245.517 413.131 258.087C413.927 258.842 411.195 259.943 410.443 259.229C396.75 246.239 388.605 227.931 387.312 209.167C377.74 204.233 373.041 192.305 368.011 183.32C365.906 185.502 363.63 187.572 361.162 189.681C357.085 193.164 352.91 196.545 348.654 199.821C348.713 199.915 348.758 200.022 348.773 200.152C349.37 205.426 349.967 210.699 350.565 215.973C350.713 216.705 350.741 217.116 350.8 218.143C350.81 218.316 350.75 218.478 350.646 218.624C350.662 218.634 350.681 218.642 350.695 218.652C352.74 220.179 354.321 223.729 355.739 225.795C358.573 229.927 361.391 234.069 364.202 238.216C365.827 240.612 367.451 243.009 369.071 245.409C369.982 246.759 371.068 252.687 369.544 253.854C369.085 254.206 367.651 254.342 367.117 254.105C366.772 254.28 366.4 254.404 366.117 254.404C312.787 254.404 259.457 254.404 206.128 254.404C205.66 254.404 205.43 254.316 205.358 254.183C204.738 254.394 204.035 254.466 203.69 254.202C202.345 253.172 203.614 247.065 204.448 245.83C206.206 243.228 207.966 240.628 209.729 238.031C212.694 233.662 215.66 229.293 218.656 224.946C219.873 223.18 221.171 220.313 222.93 219C222.97 218.97 223.036 218.933 223.116 218.894C222.99 218.754 222.916 218.578 222.949 218.373C223.584 214.459 224.219 210.544 224.853 206.63C223.518 205.706 222.214 204.734 220.961 203.691C213.764 197.7 210.292 191.027 206.792 182.546C206.383 181.556 205.997 180.557 205.597 179.564C201.624 186.888 200.608 195.173 197.427 202.856C196.154 205.931 194.807 208.684 192.474 210.433C192.737 210.63 192.869 210.941 192.727 211.389C188.323 225.326 188.878 240.223 184.377 254.141C183.987 255.346 181.097 255.412 181.61 253.824C186.027 240.168 185.584 225.553 189.738 211.828C189.292 211.971 188.827 212.096 188.324 212.185C179.772 213.705 167.035 209.558 161.873 202.031C154.605 209.079 146.154 214.889 135.765 216.046C133.279 216.323 130.698 216.443 128.124 216.326C123.544 219.755 120.408 226.517 117.773 231.326C114.625 237.073 111.677 242.948 109.269 249.046C108.981 249.775 106.224 250.046 106.414 249.567C109.296 242.268 112.871 235.164 116.87 228.415C119.332 224.26 122.001 219.109 126.033 216.173C122.211 215.792 118.467 214.825 115.142 212.963C108.737 209.375 103.588 204.029 99.333 198.099C99.022 197.666 98.696 197.174 98.359 196.649C89.881 203.286 81.519 200.408 74.608 192.114C70.665 187.383 59.838 175.982 64.999 169.41C65.279 169.054 66.118 168.874 66.816 168.812C66.852 168.809 66.888 168.805 66.923 168.802C73.064 165.204 79.013 161.148 85.553 158.303C85.686 158.245 85.822 158.193 85.955 158.136C93.293 154.988 101.006 152.833 108.579 150.336C116.956 147.574 125.312 144.981 133.434 141.826C137.509 140.243 141.523 138.515 145.451 136.553C147.464 135.548 149.454 134.482 151.418 133.34C150.147 133.317 148.902 133.09 147.729 132.564C143.573 130.701 143.396 127.189 144.919 123.78C137.352 128.084 128.64 130.417 120.091 131.648C110.374 133.046 98.883 134.19 89.4 130.913C81.735 128.264 70.556 121.464 71.842 111.756C72.885 103.879 79.475 97.827 87.259 97.381C78.871 90.797 69.493 83.598 70.678 71.673C71.138 67.039 73.17 62.816 77.54 60.679C83.686 57.675 87.249 58.862 93.312 61.611C93.326 61.617 93.335 61.625 93.349 61.632C93.321 47.891 106.948 49.374 117.1 52.519C124.788 54.901 132.227 58.035 139.94 60.333C144.342 61.645 152.767 64.679 156.49 60.536C156.063 60.32 155.955 59.928 156.691 59.422C161.869 55.865 163.306 48.109 166.745 43.128C168.853 40.074 171.355 37.831 174.607 36.856C171.522 36.559 168.11 35.465 168.973 31.938C170.015 27.678 174.125 24.288 177.94 22.492C188.405 17.566 202.06 24.576 207.098 34.567C207.231 34.59 207.339 34.634 207.404 34.71C209.769 37.423 211.942 40.3 214.416 42.918C215.823 44.407 217.276 45.994 218.991 47.14C219.608 47.553 220.343 48.113 221.093 48.244C220.339 48.112 221.35 47.381 221.594 47.123C222.491 46.17 224.833 44.857 226.132 45.888C228.705 47.93 226.402 52.098 225.842 54.665C225.799 54.863 225.555 55.04 225.23 55.181C232.383 63.185 233.004 74.783 222.082 79.847C217.762 81.85 215.37 84.304 213.668 88.708C212.474 91.801 211.422 94.942 210.349 98.079C209.578 100.332 208.942 103.885 207.286 105.969C210.738 106.979 213.779 108.831 215.929 111.972C223.652 123.257 222.641 137.341 225.868 150.065C227.12 155.002 228.994 159.546 231.383 163.752C232.162 154.35 232.941 144.947 233.719 135.545C233.782 134.773 234.943 134.308 235.784 134.412C235.826 134.409 235.866 134.402 235.909 134.402C270.175 134.402 304.442 134.402 338.708 134.402C338.968 134.362 339.218 134.367 339.431 134.423C340.438 134.555 340.534 135.331 340.075 135.876C340.834 145.045 341.594 154.214 342.353 163.383C343.824 161.194 345.013 158.894 345.764 156.468C348.656 147.122 351.389 137.671 353.619 128.143C355.269 121.091 356.704 113.433 360.416 107.101C361.036 106.044 361.715 105.046 362.422 104.078C362.238 104.049 362.087 103.988 362.003 103.877C358.298 99.057 355.548 93.596 351.913 88.732C349.729 85.811 347.622 83.873 344.148 82.438C342.2 81.633 340.073 80.919 338.311 79.738C328.519 73.173 334.46 65.933 337.537 57.137C337.589 56.989 337.722 56.856 337.899 56.741C337.793 56.684 337.701 56.612 337.638 56.513C336.263 54.38 334.285 51.975 336.442 49.778C338.811 47.364 342.898 47.335 345.13 44.751C350.295 38.772 355.443 32.73 363.863 32.297C363.919 32.294 363.964 32.298 364.015 32.298C364.013 32.25 364.003 32.202 364.012 32.154C363.388 32.241 362.766 32.097 362.578 31.589C360.127 24.971 371.416 17.451 376.873 16.89C382.349 16.327 387.216 18.006 392.308 19.785C397.311 21.533 404.487 24.553 409.583 21.774C409.633 21.634 409.693 21.5 409.739 21.358C409.989 20.588 411.267 20.287 412.016 20.586C412.964 20.603 413.79 21.224 412.727 22.089C412.554 22.23 412.371 22.344 412.193 22.472C411.306 24.786 409.952 26.763 408.202 28.333C409.913 28.055 411.628 27.924 413.29 28.108C417.385 28.561 420.894 30.867 424.951 31.216C425.432 31.028 425.979 31.086 426.38 31.295C426.771 31.361 426.906 31.547 426.875 31.776C427.021 32.098 426.942 32.503 426.46 32.923C422.446 36.426 417.35 38.244 413.123 41.427C418.856 40.787 424.169 42.763 430.084 43.254C430.682 43.303 430.704 43.643 430.279 43.983C423.904 49.075 422.789 57.783 416.949 63.21C418.258 63.278 420.129 63.44 421.67 63.826C422.5 64.034 423.298 64.5 424.003 65.043C425.133 65.713 426.137 66.641 426.931 67.887C427.238 68.368 424.927 69.328 424.179 68.807C424.057 68.841 423.945 68.865 423.857 68.871C412.333 69.655 407.035 82.606 396.177 85.232C395.049 85.505 393.935 85.684 392.84 85.776C400.676 87.661 408.968 88.976 416.967 87.815C428.08 86.201 435.732 80 441.473 70.565C446.194 62.807 450.052 54.151 457.486 48.571C463.392 44.137 470.975 42.276 478.136 41.147C478.85 41.034 479.166 41.165 479.224 41.386C483.175 41.365 486.948 42.355 490.831 43.096C491.782 43.277 491.365 43.835 490.662 44.243C491.32 44.18 491.867 44.304 491.723 44.688C490.658 47.526 489.523 50.298 487.943 52.894C487.735 53.235 486.977 53.498 486.307 53.569C486.233 53.763 485.992 53.973 485.509 54.172C481.31 55.901 476.278 56.572 472.438 59.011C467.702 62.019 464.579 66.932 461.99 71.794C457.974 79.335 454.347 86.4 447.085 91.305C435.176 99.35 419.112 103.694 405.408 98.55C405.457 98.625 405.509 98.692 405.557 98.77C409.255 104.638 412.801 110.511 416.789 116.2C424.688 127.467 433.55 137.965 441.544 149.149C448.966 159.533 456.879 169.207 469.848 172.459C476.991 174.25 483.974 174.292 491.254 174.667C492.318 174.722 493.842 174.953 495.446 175.166C497.618 175.454 499.935 175.705 501.471 175.44C501.727 175.396 501.955 175.334 502.163 175.259C502.169 175.021 502.191 174.782 502.191 174.545C502.188 173.78 505.086 173.393 505.086 173.767ZM388.086 85.603C388.209 85.751 388.333 85.898 388.456 86.046C388.556 85.929 388.707 85.812 388.888 85.703C388.62 85.672 388.351 85.646 388.086 85.603ZM389.064 86.777C389.633 87.46 390.203 88.143 390.772 88.826C390.844 88.912 390.824 89.011 390.751 89.114C390.807 89.111 390.864 89.109 390.92 89.106C391.535 88.873 392.272 88.784 392.686 89.034C393.471 89.053 393.79 89.399 393.77 89.796C396.363 91.557 398.876 92.611 401.151 94.194C401.457 94.161 401.735 94.185 401.916 94.298C417.867 104.228 443.666 97.885 453.68 81.89C457.826 75.267 460.535 67.435 466.127 61.803C471.282 56.611 477.832 55.676 484.36 52.988C484.673 52.859 485.011 52.818 485.317 52.838C486.791 50.395 487.834 47.769 488.834 45.104C488.891 44.954 489.024 44.82 489.2 44.704C489.151 44.703 489.101 44.701 489.057 44.693C485.317 43.98 481.569 42.826 477.723 43.042C477.177 43.073 476.856 42.969 476.698 42.804C471.162 43.73 465.442 45.159 460.743 48.319C456.029 51.489 452.839 55.862 449.965 60.681C445.111 68.816 440.863 77.496 433.036 83.219C420.548 92.347 403.119 90.337 389.064 86.777ZM418.704 69.064C418.58 69.096 418.46 69.125 418.333 69.159C417.328 69.427 416.254 69.987 415.136 70.728C416.285 70.086 417.469 69.525 418.704 69.064ZM359.343 94.611C366.176 89.699 374.273 87.3 381.573 83.193C378.635 81.406 376.126 78.762 374.264 75.343C374.165 75.162 374.543 74.887 375.056 74.666C374.468 74.385 373.902 74.024 373.376 73.558C372.435 72.723 375.166 71.563 376.046 72.344C377.188 73.358 378.665 73.485 380.068 73.069C381.072 72.429 382.321 71.615 383.313 70.915C384.36 69.66 384.891 68.076 384.358 66.573C383.138 63.132 379.239 64.93 376.599 65.084C374.519 65.205 370.871 63.46 372.61 61.036C375.874 56.485 368.463 53.279 371.813 48.784C373.958 45.905 374.845 42.992 373.337 39.538C372.042 36.571 369.542 32.342 365.594 33.077C365.381 33.117 365.188 33.123 365.013 33.109C364.885 33.574 364.296 34.071 363.519 34.111C355.509 34.523 351.769 41.147 346.657 46.206C345.66 47.192 344.383 47.662 343.132 48.209C339.066 49.991 337.655 51.201 340.31 55.319C340.545 55.684 340.404 56.035 340.09 56.312C340.34 56.372 340.482 56.497 340.411 56.7C338.947 60.886 335.816 65.123 335.461 69.616C334.926 76.386 341.271 78.852 346.488 81.172C352.471 83.833 355.989 89.152 359.343 94.611ZM364.085 101.966C370.086 94.93 378.479 90.637 387.698 89.398C386.318 87.742 384.938 86.085 383.557 84.429C383.437 84.575 383.27 84.717 383.039 84.848C375.647 89.041 367.349 91.351 360.517 96.527C361.663 98.394 362.825 100.237 364.085 101.966ZM233.318 166.919C235.18 169.75 237.289 172.416 239.613 174.932C240.519 163.946 240.596 152.9 241.61 141.922C241.679 141.171 243.694 140.83 244.319 140.995C244.391 140.981 244.456 140.972 244.502 140.972C273.091 140.972 301.68 140.972 330.269 140.972C330.958 140.741 331.768 140.703 332.024 140.975C332.468 140.989 332.412 141.136 332.124 141.321C333.08 151.743 333.226 162.226 334.184 172.648C334.184 172.653 334.185 172.659 334.185 172.665C334.886 171.999 335.578 171.322 336.26 170.633C337.686 169.192 339.051 167.697 340.3 166.146C339.9 166.093 339.596 165.892 339.564 165.501C338.761 155.808 337.958 146.114 337.155 136.42C303.62 136.42 270.085 136.42 236.55 136.42C235.734 146.282 234.916 156.144 234.099 166.006C234.067 166.404 233.741 166.72 233.318 166.919ZM326.204 225.885C324.615 223.799 321.998 223.167 319.494 223.345C319.845 224.904 320.108 226.437 320.323 227.839C320.782 227.675 321.24 227.515 321.701 227.344C323 226.863 324.744 227.811 322.841 228.516C310.999 232.902 299.848 235.203 287.216 234.708C276.782 234.299 265.371 233.743 256.32 227.958C255.158 227.216 257.842 226.063 258.629 226.566C258.952 226.772 259.283 226.959 259.611 227.152C259.687 226.451 259.669 225.466 259.741 224.957C259.817 224.42 259.92 223.894 260.037 223.374C257.588 223.163 254.953 223.704 254.045 226.344C253.295 228.527 253.923 230.666 254.936 232.63C255.212 232.61 255.459 232.64 255.623 232.745C265.554 239.119 278.87 239.906 290.338 240.449C302.815 241.04 314.545 237.202 326.122 232.907C327.176 230.693 327.798 227.978 326.204 225.885ZM241.446 176.838C243.643 179.041 246.002 181.13 248.516 183.106C256.003 188.987 264.158 195.032 272.566 199.587C272.81 199.651 273.019 199.761 273.156 199.911C273.243 199.957 273.33 200.009 273.418 200.055C276.361 198.034 280.161 196.764 284.082 196.213C284.04 194.533 286.266 192.333 287.151 191.642C289.54 189.775 294.351 190.277 297.14 190.497C301.485 190.84 305.778 191.565 309.973 192.745C310.425 192.546 310.967 192.468 311.387 192.571C312.455 191.478 314.118 190.467 314.919 189.781C318.57 186.654 322.211 183.512 325.766 180.274C328.023 178.218 330.543 176.052 333.031 173.75C332.242 173.987 331.337 173.976 331.297 173.542C330.328 163.076 330.186 152.548 329.226 142.082C300.961 142.082 272.696 142.082 244.431 142.082C243.441 153.401 243.395 164.79 242.352 176.106C242.322 176.428 241.931 176.674 241.446 176.838ZM296.641 199.09C295.971 198.945 295.266 198.845 294.495 198.83C291.659 198.775 287.494 199.416 285.015 197.678C281.381 197.99 277.83 199.006 275.065 200.942C274.651 201.232 273.877 201.318 273.34 201.213C273.143 201.323 272.917 201.421 272.683 201.495C268.645 206.96 266.804 213.658 263.16 219.369C263.701 219.43 264.075 219.703 263.884 220.238C263.99 220.265 264.088 220.301 264.165 220.359C273.79 227.495 279.986 215.049 285.233 209.13C287.824 206.208 291.546 204.539 295.427 204.661C296.673 204.7 302.123 206.129 302.298 203.66C302.373 202.602 301.681 201.827 300.865 201.258C299.586 200.364 298.136 199.646 296.641 199.09ZM313.145 215.464C311.249 214.663 309.544 213.291 308.119 211.203C306.718 209.151 305.508 206.888 304.127 204.863C301.829 206.619 299.484 206.881 296.62 206.524C287.897 205.438 285.731 213.106 280.829 218.005C275.863 222.967 269.674 225.89 263.505 222.726C263.36 222.898 263.092 223.073 262.988 223.122C262.968 223.131 262.946 223.138 262.925 223.147C262.758 223.907 262.637 224.678 262.564 225.457C262.491 226.227 262.604 227.333 262.18 228.023C262.103 228.148 261.982 228.257 261.835 228.353C269.517 232.063 278.511 232.697 286.918 233.026C297.759 233.451 307.407 232.069 317.458 228.818C316.828 224.663 315.794 219.036 313.145 215.464ZM322.252 213.799C319.835 210.384 318.468 206.321 315.71 203.154C313.415 200.518 310.628 198.136 309.43 194.806C309.298 194.809 309.17 194.801 309.057 194.767C305.312 193.658 301.435 192.853 297.536 192.545C295.385 192.375 293.182 192.187 291.031 192.456C287.181 192.936 286.967 194.795 288.241 195.897C290.75 195.866 293.201 196.122 295.398 196.661C295.664 196.726 296.071 196.841 296.569 196.997C298.907 197.246 301.139 197.84 303.212 199.42C310.465 204.949 310.59 217.041 322.252 213.799ZM211.024 43.195C209.304 41.271 207.686 39.265 206.025 37.293C205.982 37.297 205.94 37.3 205.898 37.303C205.782 37.356 205.67 37.411 205.524 37.456C204.029 37.917 201.832 37.938 200.497 38.74C199.938 39.076 199.456 39.54 199.037 40.07C198.971 40.153 198.907 40.238 198.844 40.325C198.165 41.262 197.673 42.371 197.347 43.395C196.478 46.13 195.791 48.344 193.582 50.035C190.71 55.724 198.134 60.787 196.814 66.626C196.322 68.8 195.115 71.321 192.932 72.294C191.619 72.88 190.45 73.205 189.022 73.455C186.519 73.543 185.516 75.391 186.014 78.998C186.616 79.798 187.328 80.445 188.147 80.95C188.838 81.248 189.491 81.467 190.074 81.617C190.101 81.609 190.118 81.597 190.147 81.59C190.592 81.479 191.038 81.367 191.483 81.256C191.839 81.167 193.024 80.971 193.123 81.582C194.055 87.275 192.297 92.735 190.369 98.05C190.058 98.906 189.744 99.758 189.435 100.607C189.328 100.902 189.22 101.198 189.114 101.492C189.09 101.56 189.05 101.624 189.002 101.686C188.3 103.287 187.494 104.849 186.6 106.371C192.078 105.315 198.853 104.341 204.812 105.392C205.584 104.386 206.032 102.338 206.369 101.392C207.301 98.767 208.161 96.119 209.084 93.492C210.493 89.486 211.737 85.183 214.605 81.959C218.499 77.582 226.354 77.942 227.548 70.913C228.554 64.993 225.821 59.661 221.737 55.528C221.087 54.87 222.245 54.117 223.286 54.018C223.751 52.493 224.386 50.919 224.395 49.378C224.397 49.016 224.025 47.164 224.217 46.927C223.799 47.444 223.394 47.921 222.906 48.373C221.687 49.502 219.686 49.714 218.181 49.212C215.359 48.27 212.934 45.331 211.024 43.195ZM97.729 195.65C97.639 195.504 97.55 195.359 97.458 195.208C91.293 185.034 81.361 164.241 68.911 170.279C68.54 170.459 67.424 170.624 66.943 170.552C65.286 175.406 70.334 182.055 72.913 185.534C77.338 191.501 83.55 200.296 91.027 199.018C92.891 198.7 94.832 197.765 96.845 195.993C96.996 195.862 97.338 195.742 97.729 195.65ZM158.761 202.666C160.787 200.79 162.725 198.797 164.574 196.751C165.109 196.16 165.638 195.565 166.157 194.967C171.812 188.449 176.838 181.333 182.718 175.022C187.601 169.782 194.092 165.414 198.035 159.41C197.321 157.374 196.611 155.336 195.916 153.295C195.455 151.94 190.664 140.942 192.211 139.951C192.835 139.551 195.769 139.397 194.48 140.222C195.099 139.826 194.816 140.095 195.098 141.063C195.419 142.168 195.76 143.267 196.111 144.362C197.273 147.99 198.488 151.602 199.737 155.201C200.11 156.275 200.491 157.346 200.867 158.419C201.044 158.435 201.147 158.468 201.116 158.517C201.071 158.588 201.021 158.656 200.975 158.726C203.697 166.474 206.525 174.193 209.687 181.769C213.326 190.49 216.995 197.72 224.827 203.542C225.456 204.009 226.094 204.459 226.736 204.902C227.368 204.871 227.91 205.097 227.878 205.663C235.556 210.725 244.087 214.154 252.738 217.253C252.981 217.253 253.224 217.253 253.467 217.253C254.162 217.253 254.391 217.503 254.347 217.825C256.184 218.475 258.023 219.116 259.859 219.757C264.039 213.879 265.838 206.704 270.059 200.854C262.821 196.899 255.812 191.785 249.258 186.862C239.693 179.677 230.67 171.176 225.976 159.925C220.957 147.893 221.648 134.706 217.609 122.428C215.485 115.972 212.193 109.056 204.911 107.445C201.766 106.75 198.578 106.576 195.393 106.728C194.938 106.749 194.483 106.788 194.029 106.822C191.185 107.038 188.348 107.48 185.554 108.043C180.163 116.422 172.154 123.464 164.127 128.645C161.734 130.189 158.602 131.947 155.382 132.813C142.612 140.721 128.385 145.777 114.062 150.108C105.48 152.703 96.551 155.115 88.323 158.693C81.719 161.566 75.712 165.464 69.529 169.104C78.694 166.104 86.033 172.591 91.338 180.273C99.296 191.796 105.473 206.649 119.146 212.644C121.489 213.671 123.785 214.384 126.031 214.825C129.908 215.586 133.638 215.522 137.216 214.825C138.945 214.488 140.641 214.01 142.298 213.395C145.814 212.09 149.163 210.206 152.337 207.939C154.566 206.349 156.708 204.567 158.761 202.666ZM204.546 176.952C202.548 171.885 200.647 166.778 198.823 161.644C194.244 167.194 187.938 171.522 183.33 177.022C177.594 183.868 172.238 191.007 166.186 197.59C165.457 198.383 164.71 199.167 163.957 199.944C167.971 206.793 181.385 212.881 189.118 210.143C194.978 208.068 196.378 197.572 197.863 192.357C199.36 187.099 201.041 182.03 204 177.39C204.113 177.214 204.308 177.066 204.546 176.952ZM227.454 208.345C226.973 211.315 226.491 214.285 226.009 217.255C232.926 217.255 239.842 217.255 246.757 217.255C240.063 214.812 233.445 212.057 227.454 208.345ZM367.275 252.892C367.363 252.892 367.435 252.898 367.507 252.904C367.758 251.667 367.053 248.882 366.369 247.029C366.279 247.046 366.193 247.058 366.114 247.058C313.011 247.058 259.909 247.058 206.807 247.058C206.131 249.232 205.554 252.457 206.384 253.093C206.398 253.103 206.402 253.115 206.413 253.126C206.72 252.985 207.038 252.892 207.286 252.892C260.616 252.892 313.945 252.892 367.275 252.892ZM348.264 220.002C348.067 219.934 347.931 219.815 347.901 219.634C347.899 219.622 347.897 219.609 347.895 219.597C347.879 219.501 347.89 219.413 347.911 219.328C338.032 219.199 328.153 219.12 318.273 219.096C318.657 220.149 318.98 221.239 319.253 222.331C322.287 221.879 326.28 221.879 328.488 224.357C330.805 226.957 330.165 230.204 328.659 233.033C328.771 233.281 328.581 233.587 327.851 233.859C315.389 238.501 302.649 242.782 289.205 242.074C277.365 241.451 263.71 240.748 253.423 234.201C252.932 234.285 252.496 234.254 252.351 233.995C250.558 230.799 249.881 226.667 253.251 224.238C255.327 222.741 257.845 222.147 260.369 222.129C260.392 222.054 260.418 221.979 260.442 221.904C260.256 221.923 260.092 221.919 259.976 221.878C257.462 220.992 254.906 220.122 252.338 219.232C243.376 219.232 234.414 219.232 225.453 219.232C225.354 219.408 225.159 219.562 224.917 219.689C223.576 220.965 221.963 224.055 220.867 225.65C218.38 229.27 215.908 232.9 213.44 236.534C211.475 239.428 209.513 242.324 207.554 245.223C207.499 245.305 207.439 245.415 207.377 245.541C260.152 245.541 312.927 245.541 365.702 245.541C365.685 245.514 365.667 245.478 365.651 245.454C363.587 242.401 361.52 239.35 359.449 236.302C356.85 232.478 354.251 228.653 351.623 224.849C350.662 223.46 349.606 221.189 348.264 220.002ZM345.977 201.85C343.373 203.808 340.748 205.737 338.079 207.599C334.759 209.914 330.604 213.474 326.395 214.938C326.066 215.659 324.33 216.179 323.661 215.558C323.397 215.568 323.22 215.538 323.11 215.483C321.015 216.113 318.975 216.424 317.05 216.328C317.166 216.544 317.281 216.762 317.389 216.985C317.557 216.928 317.743 216.895 317.949 216.896C327.842 216.918 337.734 216.999 347.625 217.126C347.576 216.757 347.532 216.387 347.504 216.015C347.489 215.884 347.507 215.76 347.54 215.64C347.018 211.043 346.498 206.447 345.977 201.85ZM420.212 204.33C417.003 200.873 414.076 197.201 411.391 193.747C405.922 186.715 401.124 179.226 395.586 172.247C391.341 166.898 386.862 161.262 385.026 154.639C382.275 161.038 379.062 167.247 375.654 173.242C373.869 176.382 371.849 179.083 369.613 181.592C370.02 181.537 370.36 181.576 370.479 181.784C375.48 190.5 379.974 202.382 389.093 207.707C389.451 207.672 389.774 207.711 389.975 207.84C390.069 207.842 390.157 207.851 390.228 207.874C399.985 210.967 410.967 207.806 420.212 204.33ZM493.652 198.28C498.229 191.923 501.497 184.296 502.09 176.923C499.272 177.499 495.68 176.734 493.098 176.573C487.202 176.206 481.276 176.448 475.414 175.566C461.551 173.481 451.449 167.186 443.063 156.064C434.131 144.218 424.837 132.564 416.276 120.45C411.846 114.18 407.81 107.77 403.724 101.286C401.642 97.982 399.547 95.089 395.888 93.419C394.245 92.669 392.665 91.939 391.172 90.983C390.529 91.011 389.887 91.049 389.244 91.106C385.812 91.411 382.4 92.146 379.188 93.372C375.687 94.709 372.424 96.632 369.649 99.25C363.522 105.033 360.439 112.147 358.385 120.208C356.412 127.95 354.585 135.708 352.43 143.405C350.82 149.156 349.826 156.065 346.563 161.177C341.546 169.039 334.213 175.534 327.331 181.72C324.029 184.688 320.676 187.598 317.304 190.486C316.265 191.375 315.22 192.257 314.195 193.163C313.77 193.538 313.184 194.483 313.379 193.724C313.288 194.08 312.943 194.364 312.522 194.549C313.959 197.805 317.052 199.803 319.039 202.771C321.482 206.42 323.054 210.525 325.927 213.872C327.832 213.089 329.831 211.436 331.308 210.462C334.546 208.327 337.717 206.092 340.836 203.788C341.426 203.352 342.009 202.906 342.597 202.467C345.888 200.013 349.15 197.511 352.353 194.936C355.538 192.376 358.671 189.753 361.703 187.023C368.143 181.225 372.045 175.431 376.08 167.654C382.412 155.452 387.862 142.628 389.976 128.964C390.097 128.183 392.979 127.648 392.847 128.501C391.713 135.83 389.633 142.973 386.954 149.908C387.087 149.934 387.175 149.98 387.183 150.054C387.467 152.722 388.219 155.236 389.272 157.628C391.073 161.72 393.761 165.455 396.525 168.985C396.598 169.079 396.669 169.174 396.742 169.268C400.55 174.145 404.128 179.107 407.728 184.121C408.132 184.684 408.536 185.246 408.942 185.81C413.255 191.816 417.977 198.485 423.459 204.21C426.664 207.557 430.133 210.571 433.928 212.952C434.754 213.47 435.597 213.951 436.455 214.405C436.941 214.662 437.424 214.926 437.92 215.161C439.59 215.951 441.325 216.582 443.104 217.08C447.685 218.363 452.566 218.72 457.451 218.302C458.888 218.179 460.323 217.986 461.752 217.736C461.759 217.499 461.769 217.263 461.767 217.024C461.76 215.735 464.693 215.284 464.702 216.797C464.702 216.866 464.698 216.933 464.697 217.001C464.697 217.044 464.695 217.086 464.694 217.129C465.797 216.869 466.891 216.574 467.974 216.244C468.268 216.155 468.56 216.061 468.851 215.967C470.45 215.45 472.02 214.861 473.554 214.204C477.63 212.458 481.434 210.245 484.741 207.679C487.435 205.588 489.996 202.992 492.296 200.083C492.757 199.493 493.21 198.893 493.652 198.28ZM302.728 211.576C302.157 211.274 301.194 211.591 300.685 211.879C300.287 212.104 299.816 212.581 300.398 212.889C301.631 213.54 302.499 214.746 303.121 215.961C303.586 216.87 306.385 215.901 306.018 215.185C305.25 213.683 304.241 212.375 302.728 211.576ZM306.224 221.795C307.2 223.145 307.786 224.693 308.131 226.315C308.32 227.205 311.229 226.481 311.028 225.539C310.655 223.786 309.98 222.162 308.927 220.706C308.409 219.991 305.606 220.942 306.224 221.795Z" fill="#424242"/>
<path d="M63.5518 13.6602H58.1904L56.9863 17H55.2461L60.1328 4.20312H61.6094L66.5049 17H64.7734L63.5518 13.6602ZM58.7002 12.2715H63.0508L60.8711 6.28613L58.7002 12.2715ZM72.5693 8.94922C72.3232 8.9082 72.0566 8.8877 71.7695 8.8877C70.7031 8.8877 69.9795 9.3418 69.5986 10.25V17H67.9727V7.49023H69.5547L69.5811 8.58887C70.1143 7.73926 70.8701 7.31445 71.8486 7.31445C72.165 7.31445 72.4053 7.35547 72.5693 7.4375V8.94922ZM77.7109 15.8486C78.291 15.8486 78.7979 15.6729 79.2314 15.3213C79.665 14.9697 79.9053 14.5303 79.9521 14.0029H81.4902C81.4609 14.5479 81.2734 15.0664 80.9277 15.5586C80.582 16.0508 80.1191 16.4434 79.5391 16.7363C78.9648 17.0293 78.3555 17.1758 77.7109 17.1758C76.416 17.1758 75.3848 16.7451 74.6172 15.8838C73.8555 15.0166 73.4746 13.833 73.4746 12.333V12.0605C73.4746 11.1348 73.6445 10.3115 73.9844 9.59082C74.3242 8.87012 74.8105 8.31055 75.4434 7.91211C76.082 7.51367 76.835 7.31445 77.7021 7.31445C78.7686 7.31445 79.6533 7.63379 80.3564 8.27246C81.0654 8.91113 81.4434 9.74023 81.4902 10.7598H79.9521C79.9053 10.1445 79.6709 9.64062 79.249 9.24805C78.833 8.84961 78.3174 8.65039 77.7021 8.65039C76.876 8.65039 76.2344 8.94922 75.7773 9.54688C75.3262 10.1387 75.1006 10.9971 75.1006 12.1221V12.4297C75.1006 13.5254 75.3262 14.3691 75.7773 14.9609C76.2285 15.5527 76.873 15.8486 77.7109 15.8486ZM84.9443 8.6416C85.665 7.75684 86.6025 7.31445 87.7568 7.31445C89.7666 7.31445 90.7803 8.44824 90.7979 10.7158V17H89.1719V10.707C89.166 10.0215 89.0078 9.51465 88.6973 9.18652C88.3926 8.8584 87.915 8.69434 87.2646 8.69434C86.7373 8.69434 86.2744 8.83496 85.876 9.11621C85.4775 9.39746 85.167 9.7666 84.9443 10.2236V17H83.3184V3.5H84.9443V8.6416ZM94.999 17H93.373V7.49023H94.999V17ZM93.2412 4.96777C93.2412 4.7041 93.3203 4.48145 93.4785 4.2998C93.6426 4.11816 93.8828 4.02734 94.1992 4.02734C94.5156 4.02734 94.7559 4.11816 94.9199 4.2998C95.084 4.48145 95.166 4.7041 95.166 4.96777C95.166 5.23145 95.084 5.45117 94.9199 5.62695C94.7559 5.80273 94.5156 5.89062 94.1992 5.89062C93.8828 5.89062 93.6426 5.80273 93.4785 5.62695C93.3203 5.45117 93.2412 5.23145 93.2412 4.96777ZM99.8154 5.1875V7.49023H101.591V8.74707H99.8154V14.6445C99.8154 15.0254 99.8945 15.3125 100.053 15.5059C100.211 15.6934 100.48 15.7871 100.861 15.7871C101.049 15.7871 101.307 15.752 101.635 15.6816V17C101.207 17.1172 100.791 17.1758 100.387 17.1758C99.6602 17.1758 99.1123 16.9561 98.7432 16.5166C98.374 16.0771 98.1895 15.4531 98.1895 14.6445V8.74707H96.458V7.49023H98.1895V5.1875H99.8154ZM107.444 17.1758C106.155 17.1758 105.106 16.7539 104.298 15.9102C103.489 15.0605 103.085 13.9268 103.085 12.5088V12.21C103.085 11.2666 103.264 10.4258 103.621 9.6875C103.984 8.94336 104.488 8.36328 105.133 7.94727C105.783 7.52539 106.486 7.31445 107.242 7.31445C108.479 7.31445 109.439 7.72168 110.125 8.53613C110.811 9.35059 111.153 10.5166 111.153 12.0342V12.7109H104.711C104.734 13.6484 105.007 14.4072 105.528 14.9873C106.056 15.5615 106.724 15.8486 107.532 15.8486C108.106 15.8486 108.593 15.7314 108.991 15.4971C109.39 15.2627 109.738 14.9521 110.037 14.5654L111.03 15.3389C110.233 16.5635 109.038 17.1758 107.444 17.1758ZM107.242 8.65039C106.586 8.65039 106.035 8.89062 105.59 9.37109C105.145 9.8457 104.869 10.5137 104.764 11.375H109.527V11.252C109.48 10.4258 109.258 9.78711 108.859 9.33594C108.461 8.87891 107.922 8.65039 107.242 8.65039ZM116.857 15.8486C117.438 15.8486 117.944 15.6729 118.378 15.3213C118.812 14.9697 119.052 14.5303 119.099 14.0029H120.637C120.607 14.5479 120.42 15.0664 120.074 15.5586C119.729 16.0508 119.266 16.4434 118.686 16.7363C118.111 17.0293 117.502 17.1758 116.857 17.1758C115.562 17.1758 114.531 16.7451 113.764 15.8838C113.002 15.0166 112.621 13.833 112.621 12.333V12.0605C112.621 11.1348 112.791 10.3115 113.131 9.59082C113.471 8.87012 113.957 8.31055 114.59 7.91211C115.229 7.51367 115.981 7.31445 116.849 7.31445C117.915 7.31445 118.8 7.63379 119.503 8.27246C120.212 8.91113 120.59 9.74023 120.637 10.7598H119.099C119.052 10.1445 118.817 9.64062 118.396 9.24805C117.979 8.84961 117.464 8.65039 116.849 8.65039C116.022 8.65039 115.381 8.94922 114.924 9.54688C114.473 10.1387 114.247 10.9971 114.247 12.1221V12.4297C114.247 13.5254 114.473 14.3691 114.924 14.9609C115.375 15.5527 116.02 15.8486 116.857 15.8486ZM124.671 5.1875V7.49023H126.446V8.74707H124.671V14.6445C124.671 15.0254 124.75 15.3125 124.908 15.5059C125.066 15.6934 125.336 15.7871 125.717 15.7871C125.904 15.7871 126.162 15.752 126.49 15.6816V17C126.062 17.1172 125.646 17.1758 125.242 17.1758C124.516 17.1758 123.968 16.9561 123.599 16.5166C123.229 16.0771 123.045 15.4531 123.045 14.6445V8.74707H121.313V7.49023H123.045V5.1875H124.671ZM134.225 16.0596C133.592 16.8037 132.663 17.1758 131.438 17.1758C130.425 17.1758 129.651 16.8828 129.118 16.2969C128.591 15.7051 128.324 14.832 128.318 13.6777V7.49023H129.944V13.6338C129.944 15.0752 130.53 15.7959 131.702 15.7959C132.944 15.7959 133.771 15.333 134.181 14.4072V7.49023H135.807V17H134.26L134.225 16.0596ZM142.882 8.94922C142.636 8.9082 142.369 8.8877 142.082 8.8877C141.016 8.8877 140.292 9.3418 139.911 10.25V17H138.285V7.49023H139.867L139.894 8.58887C140.427 7.73926 141.183 7.31445 142.161 7.31445C142.478 7.31445 142.718 7.35547 142.882 7.4375V8.94922ZM148.155 17.1758C146.866 17.1758 145.817 16.7539 145.009 15.9102C144.2 15.0605 143.796 13.9268 143.796 12.5088V12.21C143.796 11.2666 143.975 10.4258 144.332 9.6875C144.695 8.94336 145.199 8.36328 145.844 7.94727C146.494 7.52539 147.197 7.31445 147.953 7.31445C149.189 7.31445 150.15 7.72168 150.836 8.53613C151.521 9.35059 151.864 10.5166 151.864 12.0342V12.7109H145.422C145.445 13.6484 145.718 14.4072 146.239 14.9873C146.767 15.5615 147.435 15.8486 148.243 15.8486C148.817 15.8486 149.304 15.7314 149.702 15.4971C150.101 15.2627 150.449 14.9521 150.748 14.5654L151.741 15.3389C150.944 16.5635 149.749 17.1758 148.155 17.1758ZM147.953 8.65039C147.297 8.65039 146.746 8.89062 146.301 9.37109C145.855 9.8457 145.58 10.5137 145.475 11.375H150.238V11.252C150.191 10.4258 149.969 9.78711 149.57 9.33594C149.172 8.87891 148.633 8.65039 147.953 8.65039Z" fill="#424242"/>
<path d="M436.485 17V4.20312H440.098C441.211 4.20312 442.195 4.44922 443.051 4.94141C443.906 5.43359 444.565 6.13379 445.028 7.04199C445.497 7.9502 445.734 8.99316 445.74 10.1709V10.9883C445.74 12.1953 445.506 13.2529 445.037 14.1611C444.574 15.0693 443.909 15.7666 443.042 16.2529C442.181 16.7393 441.176 16.9883 440.027 17H436.485ZM438.173 5.5918V15.6201H439.948C441.249 15.6201 442.26 15.2158 442.98 14.4072C443.707 13.5986 444.07 12.4473 444.07 10.9531V10.2061C444.07 8.75293 443.728 7.625 443.042 6.82227C442.362 6.01367 441.396 5.60352 440.142 5.5918H438.173ZM451.989 17.1758C450.7 17.1758 449.651 16.7539 448.843 15.9102C448.034 15.0605 447.63 13.9268 447.63 12.5088V12.21C447.63 11.2666 447.809 10.4258 448.166 9.6875C448.529 8.94336 449.033 8.36328 449.678 7.94727C450.328 7.52539 451.031 7.31445 451.787 7.31445C453.023 7.31445 453.984 7.72168 454.67 8.53613C455.355 9.35059 455.698 10.5166 455.698 12.0342V12.7109H449.256C449.279 13.6484 449.552 14.4072 450.073 14.9873C450.601 15.5615 451.269 15.8486 452.077 15.8486C452.651 15.8486 453.138 15.7314 453.536 15.4971C453.935 15.2627 454.283 14.9521 454.582 14.5654L455.575 15.3389C454.778 16.5635 453.583 17.1758 451.989 17.1758ZM451.787 8.65039C451.131 8.65039 450.58 8.89062 450.135 9.37109C449.689 9.8457 449.414 10.5137 449.309 11.375H454.072V11.252C454.025 10.4258 453.803 9.78711 453.404 9.33594C453.006 8.87891 452.467 8.65039 451.787 8.65039ZM465.621 12.3506C465.621 13.7979 465.29 14.9639 464.628 15.8486C463.966 16.7334 463.069 17.1758 461.938 17.1758C460.784 17.1758 459.876 16.8096 459.214 16.0771V20.6562H457.588V7.49023H459.073L459.152 8.54492C459.814 7.72461 460.734 7.31445 461.912 7.31445C463.055 7.31445 463.957 7.74512 464.619 8.60645C465.287 9.46777 465.621 10.666 465.621 12.2012V12.3506ZM463.995 12.166C463.995 11.0938 463.767 10.2471 463.31 9.62598C462.853 9.00488 462.226 8.69434 461.429 8.69434C460.444 8.69434 459.706 9.13086 459.214 10.0039V14.5479C459.7 15.415 460.444 15.8486 461.446 15.8486C462.226 15.8486 462.844 15.541 463.301 14.9258C463.764 14.3047 463.995 13.3848 463.995 12.166ZM469.462 17H467.836V3.5H469.462V17ZM471.642 12.1572C471.642 11.2256 471.823 10.3877 472.187 9.64355C472.556 8.89941 473.065 8.3252 473.716 7.9209C474.372 7.5166 475.119 7.31445 475.957 7.31445C477.252 7.31445 478.298 7.7627 479.095 8.65918C479.897 9.55566 480.299 10.748 480.299 12.2363V12.3506C480.299 13.2764 480.12 14.1084 479.763 14.8467C479.411 15.5791 478.904 16.1504 478.242 16.5605C477.586 16.9707 476.83 17.1758 475.975 17.1758C474.686 17.1758 473.64 16.7275 472.837 15.8311C472.04 14.9346 471.642 13.748 471.642 12.2715V12.1572ZM473.276 12.3506C473.276 13.4053 473.52 14.252 474.006 14.8906C474.498 15.5293 475.154 15.8486 475.975 15.8486C476.801 15.8486 477.457 15.5264 477.943 14.8818C478.43 14.2314 478.673 13.3232 478.673 12.1572C478.673 11.1143 478.424 10.2705 477.926 9.62598C477.434 8.97559 476.777 8.65039 475.957 8.65039C475.154 8.65039 474.507 8.96973 474.015 9.6084C473.522 10.2471 473.276 11.1611 473.276 12.3506ZM485.309 14.6182L487.523 7.49023H489.264L485.44 18.4678C484.849 20.0498 483.908 20.8408 482.619 20.8408L482.312 20.8145L481.705 20.7002V19.3818L482.145 19.417C482.695 19.417 483.123 19.3057 483.428 19.083C483.738 18.8604 483.993 18.4531 484.192 17.8613L484.553 16.8945L481.16 7.49023H482.936L485.309 14.6182ZM492.252 7.49023L492.296 8.54492C492.993 7.72461 493.934 7.31445 495.117 7.31445C496.447 7.31445 497.353 7.82422 497.833 8.84375C498.149 8.38672 498.56 8.01758 499.063 7.73633C499.573 7.45508 500.174 7.31445 500.865 7.31445C502.951 7.31445 504.012 8.41895 504.047 10.6279V17H502.421V10.7246C502.421 10.0449 502.266 9.53809 501.955 9.2041C501.645 8.86426 501.123 8.69434 500.391 8.69434C499.787 8.69434 499.286 8.87598 498.888 9.23926C498.489 9.59668 498.258 10.0801 498.193 10.6895V17H496.559V10.7686C496.559 9.38574 495.882 8.69434 494.528 8.69434C493.462 8.69434 492.732 9.14844 492.34 10.0566V17H490.714V7.49023H492.252ZM510.454 17.1758C509.165 17.1758 508.116 16.7539 507.308 15.9102C506.499 15.0605 506.095 13.9268 506.095 12.5088V12.21C506.095 11.2666 506.273 10.4258 506.631 9.6875C506.994 8.94336 507.498 8.36328 508.143 7.94727C508.793 7.52539 509.496 7.31445 510.252 7.31445C511.488 7.31445 512.449 7.72168 513.135 8.53613C513.82 9.35059 514.163 10.5166 514.163 12.0342V12.7109H507.721C507.744 13.6484 508.017 14.4072 508.538 14.9873C509.065 15.5615 509.733 15.8486 510.542 15.8486C511.116 15.8486 511.603 15.7314 512.001 15.4971C512.399 15.2627 512.748 14.9521 513.047 14.5654L514.04 15.3389C513.243 16.5635 512.048 17.1758 510.454 17.1758ZM510.252 8.65039C509.596 8.65039 509.045 8.89062 508.6 9.37109C508.154 9.8457 507.879 10.5137 507.773 11.375H512.537V11.252C512.49 10.4258 512.268 9.78711 511.869 9.33594C511.471 8.87891 510.932 8.65039 510.252 8.65039ZM517.591 7.49023L517.644 8.68555C518.37 7.77148 519.319 7.31445 520.491 7.31445C522.501 7.31445 523.515 8.44824 523.532 10.7158V17H521.906V10.707C521.9 10.0215 521.742 9.51465 521.432 9.18652C521.127 8.8584 520.649 8.69434 519.999 8.69434C519.472 8.69434 519.009 8.83496 518.61 9.11621C518.212 9.39746 517.901 9.7666 517.679 10.2236V17H516.053V7.49023H517.591ZM528.19 5.1875V7.49023H529.966V8.74707H528.19V14.6445C528.19 15.0254 528.27 15.3125 528.428 15.5059C528.586 15.6934 528.855 15.7871 529.236 15.7871C529.424 15.7871 529.682 15.752 530.01 15.6816V17C529.582 17.1172 529.166 17.1758 528.762 17.1758C528.035 17.1758 527.487 16.9561 527.118 16.5166C526.749 16.0771 526.564 15.4531 526.564 14.6445V8.74707H524.833V7.49023H526.564V5.1875H528.19Z" fill="#424242"/>
<path d="M472.256 117.296C470.809 116.88 469.754 116.37 469.092 115.767C468.436 115.157 468.107 114.407 468.107 113.517C468.107 112.509 468.509 111.677 469.312 111.021C470.12 110.358 471.169 110.027 472.458 110.027C473.337 110.027 474.119 110.197 474.805 110.537C475.496 110.877 476.029 111.346 476.404 111.943C476.785 112.541 476.976 113.194 476.976 113.903H475.279C475.279 113.13 475.033 112.523 474.541 112.084C474.049 111.639 473.354 111.416 472.458 111.416C471.626 111.416 470.976 111.601 470.507 111.97C470.044 112.333 469.812 112.84 469.812 113.49C469.812 114.012 470.032 114.454 470.472 114.817C470.917 115.175 471.67 115.503 472.73 115.802C473.797 116.101 474.629 116.432 475.227 116.795C475.83 117.152 476.275 117.571 476.562 118.052C476.855 118.532 477.002 119.098 477.002 119.748C477.002 120.785 476.598 121.617 475.789 122.244C474.98 122.865 473.899 123.176 472.546 123.176C471.667 123.176 470.847 123.009 470.085 122.675C469.323 122.335 468.734 121.872 468.318 121.286C467.908 120.7 467.703 120.035 467.703 119.291H469.399C469.399 120.064 469.684 120.677 470.252 121.128C470.826 121.573 471.591 121.796 472.546 121.796C473.437 121.796 474.119 121.614 474.594 121.251C475.068 120.888 475.306 120.393 475.306 119.766C475.306 119.139 475.086 118.655 474.646 118.315C474.207 117.97 473.41 117.63 472.256 117.296ZM482.864 123.176C481.575 123.176 480.526 122.754 479.718 121.91C478.909 121.061 478.505 119.927 478.505 118.509V118.21C478.505 117.267 478.684 116.426 479.041 115.688C479.404 114.943 479.908 114.363 480.553 113.947C481.203 113.525 481.906 113.314 482.662 113.314C483.898 113.314 484.859 113.722 485.545 114.536C486.23 115.351 486.573 116.517 486.573 118.034V118.711H480.131C480.154 119.648 480.427 120.407 480.948 120.987C481.476 121.562 482.144 121.849 482.952 121.849C483.526 121.849 484.013 121.731 484.411 121.497C484.81 121.263 485.158 120.952 485.457 120.565L486.45 121.339C485.653 122.563 484.458 123.176 482.864 123.176ZM482.662 114.65C482.006 114.65 481.455 114.891 481.01 115.371C480.564 115.846 480.289 116.514 480.184 117.375H484.947V117.252C484.9 116.426 484.678 115.787 484.279 115.336C483.881 114.879 483.342 114.65 482.662 114.65ZM492.277 121.849C492.857 121.849 493.364 121.673 493.798 121.321C494.231 120.97 494.472 120.53 494.519 120.003H496.057C496.027 120.548 495.84 121.066 495.494 121.559C495.148 122.051 494.686 122.443 494.105 122.736C493.531 123.029 492.922 123.176 492.277 123.176C490.982 123.176 489.951 122.745 489.184 121.884C488.422 121.017 488.041 119.833 488.041 118.333V118.061C488.041 117.135 488.211 116.312 488.551 115.591C488.891 114.87 489.377 114.311 490.01 113.912C490.648 113.514 491.401 113.314 492.269 113.314C493.335 113.314 494.22 113.634 494.923 114.272C495.632 114.911 496.01 115.74 496.057 116.76H494.519C494.472 116.145 494.237 115.641 493.815 115.248C493.399 114.85 492.884 114.65 492.269 114.65C491.442 114.65 490.801 114.949 490.344 115.547C489.893 116.139 489.667 116.997 489.667 118.122V118.43C489.667 119.525 489.893 120.369 490.344 120.961C490.795 121.553 491.439 121.849 492.277 121.849ZM503.756 122.06C503.123 122.804 502.194 123.176 500.97 123.176C499.956 123.176 499.183 122.883 498.649 122.297C498.122 121.705 497.855 120.832 497.85 119.678V113.49H499.476V119.634C499.476 121.075 500.062 121.796 501.233 121.796C502.476 121.796 503.302 121.333 503.712 120.407V113.49H505.338V123H503.791L503.756 122.06ZM512.413 114.949C512.167 114.908 511.9 114.888 511.613 114.888C510.547 114.888 509.823 115.342 509.442 116.25V123H507.816V113.49H509.398L509.425 114.589C509.958 113.739 510.714 113.314 511.692 113.314C512.009 113.314 512.249 113.355 512.413 113.438V114.949ZM515.683 123H514.057V113.49H515.683V123ZM513.925 110.968C513.925 110.704 514.004 110.481 514.162 110.3C514.326 110.118 514.566 110.027 514.883 110.027C515.199 110.027 515.439 110.118 515.604 110.3C515.768 110.481 515.85 110.704 515.85 110.968C515.85 111.231 515.768 111.451 515.604 111.627C515.439 111.803 515.199 111.891 514.883 111.891C514.566 111.891 514.326 111.803 514.162 111.627C514.004 111.451 513.925 111.231 513.925 110.968ZM520.499 111.188V113.49H522.274V114.747H520.499V120.645C520.499 121.025 520.578 121.312 520.736 121.506C520.895 121.693 521.164 121.787 521.545 121.787C521.732 121.787 521.99 121.752 522.318 121.682V123C521.891 123.117 521.475 123.176 521.07 123.176C520.344 123.176 519.796 122.956 519.427 122.517C519.058 122.077 518.873 121.453 518.873 120.645V114.747H517.142V113.49H518.873V111.188H520.499ZM527.293 120.618L529.508 113.49H531.248L527.425 124.468C526.833 126.05 525.893 126.841 524.604 126.841L524.296 126.814L523.689 126.7V125.382L524.129 125.417C524.68 125.417 525.107 125.306 525.412 125.083C525.723 124.86 525.978 124.453 526.177 123.861L526.537 122.895L523.145 113.49H524.92L527.293 120.618Z" fill="#424242"/>
<path d="M10.3271 111.592H6.21387V123H4.53516V111.592H0.430664V110.203H10.3271V111.592ZM15.0381 123.176C13.749 123.176 12.7002 122.754 11.8916 121.91C11.083 121.061 10.6787 119.927 10.6787 118.509V118.21C10.6787 117.267 10.8574 116.426 11.2148 115.688C11.5781 114.943 12.082 114.363 12.7266 113.947C13.377 113.525 14.0801 113.314 14.8359 113.314C16.0723 113.314 17.0332 113.722 17.7188 114.536C18.4043 115.351 18.7471 116.517 18.7471 118.034V118.711H12.3047C12.3281 119.648 12.6006 120.407 13.1221 120.987C13.6494 121.562 14.3174 121.849 15.126 121.849C15.7002 121.849 16.1865 121.731 16.585 121.497C16.9834 121.263 17.332 120.952 17.6309 120.565L18.624 121.339C17.8271 122.563 16.6318 123.176 15.0381 123.176ZM14.8359 114.65C14.1797 114.65 13.6289 114.891 13.1836 115.371C12.7383 115.846 12.4629 116.514 12.3574 117.375H17.1211V117.252C17.0742 116.426 16.8516 115.787 16.4531 115.336C16.0547 114.879 15.5156 114.65 14.8359 114.65ZM26.1738 120.478C26.1738 120.038 26.0068 119.698 25.6729 119.458C25.3447 119.212 24.7676 119.001 23.9414 118.825C23.1211 118.649 22.4678 118.438 21.9814 118.192C21.501 117.946 21.1436 117.653 20.9092 117.313C20.6807 116.974 20.5664 116.569 20.5664 116.101C20.5664 115.321 20.8945 114.662 21.5508 114.123C22.2129 113.584 23.0566 113.314 24.082 113.314C25.1602 113.314 26.0332 113.593 26.7012 114.149C27.375 114.706 27.7119 115.418 27.7119 116.285H26.0771C26.0771 115.84 25.8867 115.456 25.5059 115.134C25.1309 114.812 24.6562 114.65 24.082 114.65C23.4902 114.65 23.0273 114.779 22.6934 115.037C22.3594 115.295 22.1924 115.632 22.1924 116.048C22.1924 116.44 22.3477 116.736 22.6582 116.936C22.9688 117.135 23.5283 117.325 24.3369 117.507C25.1514 117.688 25.8105 117.905 26.3145 118.157C26.8184 118.409 27.1904 118.714 27.4307 119.071C27.6768 119.423 27.7998 119.854 27.7998 120.363C27.7998 121.213 27.46 121.896 26.7803 122.411C26.1006 122.921 25.2188 123.176 24.1348 123.176C23.373 123.176 22.6992 123.041 22.1133 122.771C21.5273 122.502 21.0674 122.127 20.7334 121.646C20.4053 121.16 20.2412 120.636 20.2412 120.073H21.8672C21.8965 120.618 22.1133 121.052 22.5176 121.374C22.9277 121.69 23.4668 121.849 24.1348 121.849C24.75 121.849 25.2422 121.726 25.6113 121.479C25.9863 121.228 26.1738 120.894 26.1738 120.478ZM32.124 111.188V113.49H33.8994V114.747H32.124V120.645C32.124 121.025 32.2031 121.312 32.3613 121.506C32.5195 121.693 32.7891 121.787 33.1699 121.787C33.3574 121.787 33.6152 121.752 33.9434 121.682V123C33.5156 123.117 33.0996 123.176 32.6953 123.176C31.9688 123.176 31.4209 122.956 31.0518 122.517C30.6826 122.077 30.498 121.453 30.498 120.645V114.747H28.7666V113.49H30.498V111.188H32.124ZM37.5732 123H35.9473V113.49H37.5732V123ZM35.8154 110.968C35.8154 110.704 35.8945 110.481 36.0527 110.3C36.2168 110.118 36.457 110.027 36.7734 110.027C37.0898 110.027 37.3301 110.118 37.4941 110.3C37.6582 110.481 37.7402 110.704 37.7402 110.968C37.7402 111.231 37.6582 111.451 37.4941 111.627C37.3301 111.803 37.0898 111.891 36.7734 111.891C36.457 111.891 36.2168 111.803 36.0527 111.627C35.8945 111.451 35.8154 111.231 35.8154 110.968ZM41.7217 113.49L41.7744 114.686C42.501 113.771 43.4502 113.314 44.6221 113.314C46.6318 113.314 47.6455 114.448 47.6631 116.716V123H46.0371V116.707C46.0312 116.021 45.873 115.515 45.5625 115.187C45.2578 114.858 44.7803 114.694 44.1299 114.694C43.6025 114.694 43.1396 114.835 42.7412 115.116C42.3428 115.397 42.0322 115.767 41.8096 116.224V123H40.1836V113.49H41.7217ZM49.7285 118.166C49.7285 116.684 50.0713 115.506 50.7568 114.633C51.4424 113.754 52.3506 113.314 53.4814 113.314C54.6416 113.314 55.5469 113.725 56.1973 114.545L56.2764 113.49H57.7617V122.771C57.7617 124.002 57.3955 124.972 56.6631 125.681C55.9365 126.39 54.958 126.744 53.7275 126.744C53.042 126.744 52.3711 126.598 51.7148 126.305C51.0586 126.012 50.5576 125.61 50.2119 125.101L51.0557 124.125C51.7529 124.986 52.6055 125.417 53.6133 125.417C54.4043 125.417 55.0195 125.194 55.459 124.749C55.9043 124.304 56.127 123.677 56.127 122.868V122.051C55.4766 122.801 54.5889 123.176 53.4639 123.176C52.3506 123.176 51.4482 122.728 50.7568 121.831C50.0713 120.935 49.7285 119.713 49.7285 118.166ZM51.3633 118.351C51.3633 119.423 51.583 120.267 52.0225 120.882C52.4619 121.491 53.0771 121.796 53.8682 121.796C54.8936 121.796 55.6465 121.33 56.127 120.398V116.057C55.6289 115.148 54.8818 114.694 53.8857 114.694C53.0947 114.694 52.4766 115.002 52.0312 115.617C51.5859 116.232 51.3633 117.144 51.3633 118.351Z" fill="#424242"/>
<path d="M95.4854 285V272.203H99.0977C100.211 272.203 101.195 272.449 102.051 272.941C102.906 273.434 103.565 274.134 104.028 275.042C104.497 275.95 104.734 276.993 104.74 278.171V278.988C104.74 280.195 104.506 281.253 104.037 282.161C103.574 283.069 102.909 283.767 102.042 284.253C101.181 284.739 100.176 284.988 99.0273 285H95.4854ZM97.1729 273.592V283.62H98.9482C100.249 283.62 101.26 283.216 101.98 282.407C102.707 281.599 103.07 280.447 103.07 278.953V278.206C103.07 276.753 102.728 275.625 102.042 274.822C101.362 274.014 100.396 273.604 99.1416 273.592H97.1729ZM110.989 285.176C109.7 285.176 108.651 284.754 107.843 283.91C107.034 283.061 106.63 281.927 106.63 280.509V280.21C106.63 279.267 106.809 278.426 107.166 277.688C107.529 276.943 108.033 276.363 108.678 275.947C109.328 275.525 110.031 275.314 110.787 275.314C112.023 275.314 112.984 275.722 113.67 276.536C114.355 277.351 114.698 278.517 114.698 280.034V280.711H108.256C108.279 281.648 108.552 282.407 109.073 282.987C109.601 283.562 110.269 283.849 111.077 283.849C111.651 283.849 112.138 283.731 112.536 283.497C112.935 283.263 113.283 282.952 113.582 282.565L114.575 283.339C113.778 284.563 112.583 285.176 110.989 285.176ZM110.787 276.65C110.131 276.65 109.58 276.891 109.135 277.371C108.689 277.846 108.414 278.514 108.309 279.375H113.072V279.252C113.025 278.426 112.803 277.787 112.404 277.336C112.006 276.879 111.467 276.65 110.787 276.65ZM122.125 282.478C122.125 282.038 121.958 281.698 121.624 281.458C121.296 281.212 120.719 281.001 119.893 280.825C119.072 280.649 118.419 280.438 117.933 280.192C117.452 279.946 117.095 279.653 116.86 279.313C116.632 278.974 116.518 278.569 116.518 278.101C116.518 277.321 116.846 276.662 117.502 276.123C118.164 275.584 119.008 275.314 120.033 275.314C121.111 275.314 121.984 275.593 122.652 276.149C123.326 276.706 123.663 277.418 123.663 278.285H122.028C122.028 277.84 121.838 277.456 121.457 277.134C121.082 276.812 120.607 276.65 120.033 276.65C119.441 276.65 118.979 276.779 118.645 277.037C118.311 277.295 118.144 277.632 118.144 278.048C118.144 278.44 118.299 278.736 118.609 278.936C118.92 279.135 119.479 279.325 120.288 279.507C121.103 279.688 121.762 279.905 122.266 280.157C122.77 280.409 123.142 280.714 123.382 281.071C123.628 281.423 123.751 281.854 123.751 282.363C123.751 283.213 123.411 283.896 122.731 284.411C122.052 284.921 121.17 285.176 120.086 285.176C119.324 285.176 118.65 285.041 118.064 284.771C117.479 284.502 117.019 284.127 116.685 283.646C116.356 283.16 116.192 282.636 116.192 282.073H117.818C117.848 282.618 118.064 283.052 118.469 283.374C118.879 283.69 119.418 283.849 120.086 283.849C120.701 283.849 121.193 283.726 121.562 283.479C121.938 283.228 122.125 282.894 122.125 282.478ZM127.636 285H126.01V275.49H127.636V285ZM125.878 272.968C125.878 272.704 125.957 272.481 126.115 272.3C126.279 272.118 126.52 272.027 126.836 272.027C127.152 272.027 127.393 272.118 127.557 272.3C127.721 272.481 127.803 272.704 127.803 272.968C127.803 273.231 127.721 273.451 127.557 273.627C127.393 273.803 127.152 273.891 126.836 273.891C126.52 273.891 126.279 273.803 126.115 273.627C125.957 273.451 125.878 273.231 125.878 272.968ZM129.859 280.166C129.859 278.684 130.202 277.506 130.888 276.633C131.573 275.754 132.481 275.314 133.612 275.314C134.772 275.314 135.678 275.725 136.328 276.545L136.407 275.49H137.893V284.771C137.893 286.002 137.526 286.972 136.794 287.681C136.067 288.39 135.089 288.744 133.858 288.744C133.173 288.744 132.502 288.598 131.846 288.305C131.189 288.012 130.688 287.61 130.343 287.101L131.187 286.125C131.884 286.986 132.736 287.417 133.744 287.417C134.535 287.417 135.15 287.194 135.59 286.749C136.035 286.304 136.258 285.677 136.258 284.868V284.051C135.607 284.801 134.72 285.176 133.595 285.176C132.481 285.176 131.579 284.728 130.888 283.831C130.202 282.935 129.859 281.713 129.859 280.166ZM131.494 280.351C131.494 281.423 131.714 282.267 132.153 282.882C132.593 283.491 133.208 283.796 133.999 283.796C135.024 283.796 135.777 283.33 136.258 282.398V278.057C135.76 277.148 135.013 276.694 134.017 276.694C133.226 276.694 132.607 277.002 132.162 277.617C131.717 278.232 131.494 279.144 131.494 280.351ZM141.892 275.49L141.944 276.686C142.671 275.771 143.62 275.314 144.792 275.314C146.802 275.314 147.815 276.448 147.833 278.716V285H146.207V278.707C146.201 278.021 146.043 277.515 145.732 277.187C145.428 276.858 144.95 276.694 144.3 276.694C143.772 276.694 143.31 276.835 142.911 277.116C142.513 277.397 142.202 277.767 141.979 278.224V285H140.354V275.49H141.892Z" fill="#424242"/>
<path d="M431.173 279.99V285H429.485V272.203H434.205C435.605 272.203 436.701 272.561 437.492 273.275C438.289 273.99 438.688 274.937 438.688 276.114C438.688 277.356 438.298 278.314 437.519 278.988C436.745 279.656 435.635 279.99 434.188 279.99H431.173ZM431.173 278.61H434.205C435.107 278.61 435.799 278.399 436.279 277.978C436.76 277.55 437 276.935 437 276.132C437 275.37 436.76 274.761 436.279 274.304C435.799 273.847 435.14 273.609 434.302 273.592H431.173V278.61ZM445.183 276.949C444.937 276.908 444.67 276.888 444.383 276.888C443.316 276.888 442.593 277.342 442.212 278.25V285H440.586V275.49H442.168L442.194 276.589C442.728 275.739 443.483 275.314 444.462 275.314C444.778 275.314 445.019 275.355 445.183 275.438V276.949ZM446.079 280.157C446.079 279.226 446.261 278.388 446.624 277.644C446.993 276.899 447.503 276.325 448.153 275.921C448.81 275.517 449.557 275.314 450.395 275.314C451.689 275.314 452.735 275.763 453.532 276.659C454.335 277.556 454.736 278.748 454.736 280.236V280.351C454.736 281.276 454.558 282.108 454.2 282.847C453.849 283.579 453.342 284.15 452.68 284.561C452.023 284.971 451.268 285.176 450.412 285.176C449.123 285.176 448.077 284.728 447.274 283.831C446.478 282.935 446.079 281.748 446.079 280.271V280.157ZM447.714 280.351C447.714 281.405 447.957 282.252 448.443 282.891C448.936 283.529 449.592 283.849 450.412 283.849C451.238 283.849 451.895 283.526 452.381 282.882C452.867 282.231 453.11 281.323 453.11 280.157C453.11 279.114 452.861 278.271 452.363 277.626C451.871 276.976 451.215 276.65 450.395 276.65C449.592 276.65 448.944 276.97 448.452 277.608C447.96 278.247 447.714 279.161 447.714 280.351ZM458.981 273.188V275.49H460.757V276.747H458.981V282.645C458.981 283.025 459.061 283.312 459.219 283.506C459.377 283.693 459.646 283.787 460.027 283.787C460.215 283.787 460.473 283.752 460.801 283.682V285C460.373 285.117 459.957 285.176 459.553 285.176C458.826 285.176 458.278 284.956 457.909 284.517C457.54 284.077 457.355 283.453 457.355 282.645V276.747H455.624V275.49H457.355V273.188H458.981ZM462.058 280.157C462.058 279.226 462.239 278.388 462.603 277.644C462.972 276.899 463.481 276.325 464.132 275.921C464.788 275.517 465.535 275.314 466.373 275.314C467.668 275.314 468.714 275.763 469.511 276.659C470.313 277.556 470.715 278.748 470.715 280.236V280.351C470.715 281.276 470.536 282.108 470.179 282.847C469.827 283.579 469.32 284.15 468.658 284.561C468.002 284.971 467.246 285.176 466.391 285.176C465.102 285.176 464.056 284.728 463.253 283.831C462.456 282.935 462.058 281.748 462.058 280.271V280.157ZM463.692 280.351C463.692 281.405 463.936 282.252 464.422 282.891C464.914 283.529 465.57 283.849 466.391 283.849C467.217 283.849 467.873 283.526 468.359 282.882C468.846 282.231 469.089 281.323 469.089 280.157C469.089 279.114 468.84 278.271 468.342 277.626C467.85 276.976 467.193 276.65 466.373 276.65C465.57 276.65 464.923 276.97 464.431 277.608C463.938 278.247 463.692 279.161 463.692 280.351ZM474.96 273.188V275.49H476.735V276.747H474.96V282.645C474.96 283.025 475.039 283.312 475.197 283.506C475.355 283.693 475.625 283.787 476.006 283.787C476.193 283.787 476.451 283.752 476.779 283.682V285C476.352 285.117 475.936 285.176 475.531 285.176C474.805 285.176 474.257 284.956 473.888 284.517C473.519 284.077 473.334 283.453 473.334 282.645V276.747H471.603V275.49H473.334V273.188H474.96ZM481.754 282.618L483.969 275.49H485.709L481.886 286.468C481.294 288.05 480.354 288.841 479.064 288.841L478.757 288.814L478.15 288.7V287.382L478.59 287.417C479.141 287.417 479.568 287.306 479.873 287.083C480.184 286.86 480.438 286.453 480.638 285.861L480.998 284.895L477.605 275.49H479.381L481.754 282.618ZM495.201 280.351C495.201 281.798 494.87 282.964 494.208 283.849C493.546 284.733 492.649 285.176 491.519 285.176C490.364 285.176 489.456 284.81 488.794 284.077V288.656H487.168V275.49H488.653L488.732 276.545C489.395 275.725 490.314 275.314 491.492 275.314C492.635 275.314 493.537 275.745 494.199 276.606C494.867 277.468 495.201 278.666 495.201 280.201V280.351ZM493.575 280.166C493.575 279.094 493.347 278.247 492.89 277.626C492.433 277.005 491.806 276.694 491.009 276.694C490.024 276.694 489.286 277.131 488.794 278.004V282.548C489.28 283.415 490.024 283.849 491.026 283.849C491.806 283.849 492.424 283.541 492.881 282.926C493.344 282.305 493.575 281.385 493.575 280.166ZM501.222 285.176C499.933 285.176 498.884 284.754 498.075 283.91C497.267 283.061 496.862 281.927 496.862 280.509V280.21C496.862 279.267 497.041 278.426 497.398 277.688C497.762 276.943 498.266 276.363 498.91 275.947C499.561 275.525 500.264 275.314 501.02 275.314C502.256 275.314 503.217 275.722 503.902 276.536C504.588 277.351 504.931 278.517 504.931 280.034V280.711H498.488C498.512 281.648 498.784 282.407 499.306 282.987C499.833 283.562 500.501 283.849 501.31 283.849C501.884 283.849 502.37 283.731 502.769 283.497C503.167 283.263 503.516 282.952 503.814 282.565L504.808 283.339C504.011 284.563 502.815 285.176 501.222 285.176ZM501.02 276.65C500.363 276.65 499.812 276.891 499.367 277.371C498.922 277.846 498.646 278.514 498.541 279.375H503.305V279.252C503.258 278.426 503.035 277.787 502.637 277.336C502.238 276.879 501.699 276.65 501.02 276.65Z" fill="#424242"/>
<path d="M268.179 11.8232H265.173V17H263.477V4.20312H267.713C269.154 4.20312 270.262 4.53125 271.035 5.1875C271.814 5.84375 272.204 6.79883 272.204 8.05273C272.204 8.84961 271.987 9.54395 271.554 10.1357C271.126 10.7275 270.528 11.1699 269.761 11.4629L272.767 16.8945V17H270.956L268.179 11.8232ZM265.173 10.4434H267.766C268.604 10.4434 269.269 10.2266 269.761 9.79297C270.259 9.35938 270.508 8.7793 270.508 8.05273C270.508 7.26172 270.271 6.65527 269.796 6.2334C269.327 5.81152 268.647 5.59766 267.757 5.5918H265.173V10.4434ZM278.269 17.1758C276.979 17.1758 275.931 16.7539 275.122 15.9102C274.313 15.0605 273.909 13.9268 273.909 12.5088V12.21C273.909 11.2666 274.088 10.4258 274.445 9.6875C274.809 8.94336 275.312 8.36328 275.957 7.94727C276.607 7.52539 277.311 7.31445 278.066 7.31445C279.303 7.31445 280.264 7.72168 280.949 8.53613C281.635 9.35059 281.978 10.5166 281.978 12.0342V12.7109H275.535C275.559 13.6484 275.831 14.4072 276.353 14.9873C276.88 15.5615 277.548 15.8486 278.356 15.8486C278.931 15.8486 279.417 15.7314 279.815 15.4971C280.214 15.2627 280.562 14.9521 280.861 14.5654L281.854 15.3389C281.058 16.5635 279.862 17.1758 278.269 17.1758ZM278.066 8.65039C277.41 8.65039 276.859 8.89062 276.414 9.37109C275.969 9.8457 275.693 10.5137 275.588 11.375H280.352V11.252C280.305 10.4258 280.082 9.78711 279.684 9.33594C279.285 8.87891 278.746 8.65039 278.066 8.65039ZM285.634 17H284.008V3.5H285.634V17ZM292.19 17.1758C290.901 17.1758 289.853 16.7539 289.044 15.9102C288.235 15.0605 287.831 13.9268 287.831 12.5088V12.21C287.831 11.2666 288.01 10.4258 288.367 9.6875C288.73 8.94336 289.234 8.36328 289.879 7.94727C290.529 7.52539 291.232 7.31445 291.988 7.31445C293.225 7.31445 294.186 7.72168 294.871 8.53613C295.557 9.35059 295.899 10.5166 295.899 12.0342V12.7109H289.457C289.48 13.6484 289.753 14.4072 290.274 14.9873C290.802 15.5615 291.47 15.8486 292.278 15.8486C292.853 15.8486 293.339 15.7314 293.737 15.4971C294.136 15.2627 294.484 14.9521 294.783 14.5654L295.776 15.3389C294.979 16.5635 293.784 17.1758 292.19 17.1758ZM291.988 8.65039C291.332 8.65039 290.781 8.89062 290.336 9.37109C289.891 9.8457 289.615 10.5137 289.51 11.375H294.273V11.252C294.227 10.4258 294.004 9.78711 293.605 9.33594C293.207 8.87891 292.668 8.65039 291.988 8.65039ZM303.66 17C303.566 16.8125 303.49 16.4785 303.432 15.998C302.676 16.7832 301.773 17.1758 300.725 17.1758C299.787 17.1758 299.017 16.9121 298.413 16.3848C297.815 15.8516 297.517 15.1777 297.517 14.3633C297.517 13.373 297.892 12.6055 298.642 12.0605C299.397 11.5098 300.458 11.2344 301.823 11.2344H303.405V10.4873C303.405 9.91895 303.235 9.46777 302.896 9.13379C302.556 8.79395 302.055 8.62402 301.393 8.62402C300.812 8.62402 300.326 8.77051 299.934 9.06348C299.541 9.35645 299.345 9.71094 299.345 10.127H297.71C297.71 9.65234 297.877 9.19531 298.211 8.75586C298.551 8.31055 299.008 7.95898 299.582 7.70117C300.162 7.44336 300.798 7.31445 301.489 7.31445C302.585 7.31445 303.443 7.58984 304.064 8.14062C304.686 8.68555 305.008 9.43848 305.031 10.3994V14.7764C305.031 15.6494 305.143 16.3438 305.365 16.8594V17H303.66ZM300.962 15.7607C301.472 15.7607 301.955 15.6289 302.412 15.3652C302.869 15.1016 303.2 14.7588 303.405 14.3369V12.3857H302.131C300.139 12.3857 299.143 12.9688 299.143 14.1348C299.143 14.6445 299.312 15.043 299.652 15.3301C299.992 15.6172 300.429 15.7607 300.962 15.7607ZM313.117 14.4775C313.117 14.0381 312.95 13.6982 312.616 13.458C312.288 13.2119 311.711 13.001 310.885 12.8252C310.064 12.6494 309.411 12.4385 308.925 12.1924C308.444 11.9463 308.087 11.6533 307.853 11.3135C307.624 10.9736 307.51 10.5693 307.51 10.1006C307.51 9.32129 307.838 8.66211 308.494 8.12305C309.156 7.58398 310 7.31445 311.025 7.31445C312.104 7.31445 312.977 7.59277 313.645 8.14941C314.318 8.70605 314.655 9.41797 314.655 10.2852H313.021C313.021 9.83984 312.83 9.45605 312.449 9.13379C312.074 8.81152 311.6 8.65039 311.025 8.65039C310.434 8.65039 309.971 8.7793 309.637 9.03711C309.303 9.29492 309.136 9.63184 309.136 10.0479C309.136 10.4404 309.291 10.7363 309.602 10.9355C309.912 11.1348 310.472 11.3252 311.28 11.5068C312.095 11.6885 312.754 11.9053 313.258 12.1572C313.762 12.4092 314.134 12.7139 314.374 13.0713C314.62 13.4229 314.743 13.8535 314.743 14.3633C314.743 15.2129 314.403 15.8955 313.724 16.4111C313.044 16.9209 312.162 17.1758 311.078 17.1758C310.316 17.1758 309.643 17.041 309.057 16.7715C308.471 16.502 308.011 16.127 307.677 15.6465C307.349 15.1602 307.185 14.6357 307.185 14.0732H308.811C308.84 14.6182 309.057 15.0518 309.461 15.374C309.871 15.6904 310.41 15.8486 311.078 15.8486C311.693 15.8486 312.186 15.7256 312.555 15.4795C312.93 15.2275 313.117 14.8936 313.117 14.4775ZM320.808 17.1758C319.519 17.1758 318.47 16.7539 317.661 15.9102C316.853 15.0605 316.448 13.9268 316.448 12.5088V12.21C316.448 11.2666 316.627 10.4258 316.984 9.6875C317.348 8.94336 317.852 8.36328 318.496 7.94727C319.146 7.52539 319.85 7.31445 320.605 7.31445C321.842 7.31445 322.803 7.72168 323.488 8.53613C324.174 9.35059 324.517 10.5166 324.517 12.0342V12.7109H318.074C318.098 13.6484 318.37 14.4072 318.892 14.9873C319.419 15.5615 320.087 15.8486 320.896 15.8486C321.47 15.8486 321.956 15.7314 322.354 15.4971C322.753 15.2627 323.102 14.9521 323.4 14.5654L324.394 15.3389C323.597 16.5635 322.401 17.1758 320.808 17.1758ZM320.605 8.65039C319.949 8.65039 319.398 8.89062 318.953 9.37109C318.508 9.8457 318.232 10.5137 318.127 11.375H322.891V11.252C322.844 10.4258 322.621 9.78711 322.223 9.33594C321.824 8.87891 321.285 8.65039 320.605 8.65039Z" fill="#424242"/>
</svg>
