<svg version="1.1" id="Layer_1" xmlns="http://www.w3.org/2000/svg" x="0" y="0" viewBox="0 0 1247.02 750.94" xml:space="preserve"><style>.st25{fill:#ebebeb}.st30{fill:#3c3c3b}.st42{opacity:.4}.st48{fill:#fff}.st62{fill:#f3f3f3}.st63{fill:#c41347}.st64{fill:#6f6f6e}.st65{fill:#d9d9d9}.st66{fill:#20140f}.st67{fill:#323b6e}.st69{fill:#f8c7bd}.st70{fill:#ee7c78}.st71{fill:#bf453f}.st72{fill:#575756}.st73{fill:#e0e0e0}.st74{fill:#f5f4f5}.st75{fill:#455a64}.st76{fill:#263239}.st77{fill:#e9505b}</style><path class="st62" d="M1198.27 707.03s137.81-305.23-133.8-305.23c-143.51 0-84.39-83.75-181.96-180.66-97.57-96.92-438.78-174.35-511.41 12.8-72.62 187.15 106.86 329.25-66.58 304.87C96.12 509.52 13.79 707.03 13.79 707.03h1184.48z"/><path class="st63" d="M321.02 325.52v-1.97c-.37.05-.93-.39-.78.4.11.54.34 1.06.52 1.59.08 0 .17-.01.26-.02zM320.4 316.64v-.53h-.18v.53h.18zM320.05 322.28h.53v-.18h-.53v.18z"/><path class="st64" d="M959.71 707.11h131.55v2.64H959.71zM140.14 707.25h754.98v2.64H140.14zM895.12 707.15h64.59v2.64h-64.59z"/><path class="st65" d="M545.9 156.9c-7.67 0-13.77 6.47-13.76 14.59.01 8.05 6.22 14.54 13.87 14.51 7.58-.03 13.69-6.52 13.71-14.55.01-8.09-6.13-14.56-13.82-14.55zM580.56 212.35c6.35-.03 11.2-5.25 11.16-11.99-.04-6.61-4.97-11.78-11.23-11.78-6.28 0-11.31 5.32-11.29 11.94.03 6.66 5.03 11.87 11.36 11.83zM613.79 235.34c5.53-.03 9.75-4.57 9.72-10.44-.03-5.75-4.33-10.26-9.78-10.25-5.47 0-9.85 4.63-9.83 10.39.02 5.79 4.38 10.33 9.89 10.3z"/><path class="st66" d="M729.4 389.91a3.777 3.777 0 00-3.82 3.74 3.79 3.79 0 003.74 3.82c2.08.02 3.79-1.65 3.82-3.73.01-2.1-1.66-3.81-3.74-3.83z"/><path class="st67" d="M770.76 332.08c-.99.76-1.6 2.14-1.08 3.27.35.78 1.16 1.27 1.98 1.48.83.21 1.69.19 2.54.23 2.31.09 4.67.6 6.58 1.92 1 .69 1.86 1.58 2.91 2.17 1.06.58 2.46.8 3.45.1.95-.67 1.22-2.04.89-3.17-.33-1.12-1.14-2.04-2.02-2.82-3.49-3.11-8.37-4.6-13.01-3.98 0-.21-1.27.05-2.24.8z"/><path class="st48" d="M735.35 421.2c-.04 3.08 1.74 5.92 3.96 8.07 3.55 3.46 8.34 5.6 13.29 6.05 4.94.44 10-.8 14.23-3.4 1.89-1.17 3.66-2.63 4.79-4.54 1.13-1.92 1.54-4.33.73-6.39-1.43-3.62-5.94-4.94-9.83-4.8-3.89.15-7.79 1.26-11.61.53-3.58-.69-7.19-2.97-10.6-1.71-2.32.84-4.91 3.11-4.96 6.19z"/><path d="M858.18 643.27c11.78-36.36 33.2-68.1 54.95-99.8l.15.1c4.8 4.64 7.08 8.71 9.37 14.99 4.58 12.56 4.2 26.39 2.36 39.63-3.74 26.88-13.16 52.58-22.53 78.04-3.78 10.27-7.55 20.54-11.33 30.82l-39.54.06h-13.05l19.62-63.84z" fill="#4f4f4f"/><path class="st66" d="M777.68 390.45a3.79 3.79 0 00-3.82 3.74 3.788 3.788 0 003.73 3.82c2.09.02 3.8-1.65 3.82-3.73.03-2.1-1.64-3.81-3.73-3.83z"/><path class="st67" d="M717.53 337.3c-.35 1.12-.12 2.49.82 3.19.98.72 2.38.54 3.45-.02 1.08-.57 1.94-1.44 2.96-2.11 1.94-1.27 4.3-1.73 6.62-1.77.85-.02 1.72.02 2.55-.17.83-.19 1.64-.67 2.01-1.44.54-1.11-.04-2.51-1.01-3.29-.96-.77-2.22-1.06-2.21-.85-4.63-.72-9.53.66-13.09 3.69-.91.76-1.74 1.65-2.1 2.77z"/><path class="st69" d="M833.73 424.81c-7.48 16.23-14.97 32.52-20.19 49.61-.7 2.28-1.36 4.7-.96 7.03l-.69.16c-8.24 7.94-18.59 14.11-29.94 15.54-11.22 1.4-23.4-2.44-30.44-11.27.24-.2.47-.4.69-.61 2.06-2.01 3.23-4.74 4.18-7.45.91-2.59 1.68-5.23 2.3-7.9-10.94-.84-21.7-3.97-31.26-9.38-8.63-4.89-14.6-12.73-17.98-23.39-5.85-18.49-3.87-45.45 5.65-80.14l7.44-27.09c8.84 5.47 20.26 7.6 31.35 8.01 6.89.24 13.77-.11 20.64-.42 3.13-.14 6.53-.65 9.63-.4 2.55.2 20.85 3.12 32.66 21.81.41.63.83 1.25 1.23 1.89 7.54 12.19 10.76 27.53 6.96 41.36-.16.58.08 1.22.48 1.66.41.44.98.72 1.55.91 1.13.4 2.39.52 3.53.15 1.14-.37 2.14-1.3 2.38-2.48 2.11-3.25 5.46-5.68 9.16-6.27 1.33-.22 2.7-.19 4.02.05 2.36.42 4.59 1.53 6.31 3.19 1.36 1.32 2.41 2.95 3.12 4.71 2.63 6.43.45 14.5-5.08 18.72-4.5 3.44-10.9 4.07-16.09 1.89l-.65.11z"/><path class="st30" d="M721.8 340.46c1.08-.57 1.94-1.44 2.96-2.11 1.94-1.27 4.3-1.73 6.62-1.77.85-.02 1.72.02 2.55-.17.83-.19 1.64-.67 2.01-1.44.54-1.11-.04-2.51-1.01-3.29-.96-.77-2.22-1.06-2.21-.85-4.63-.72-9.53.66-13.09 3.69-.9.76-1.73 1.66-2.09 2.77-.35 1.12-.12 2.49.82 3.19.97.73 2.37.54 3.44-.02z"/><path class="st69" d="M729.32 397.46c2.08.02 3.79-1.65 3.82-3.73a3.775 3.775 0 10-7.55-.08c-.04 2.08 1.64 3.79 3.73 3.81z"/><path class="st48" d="M752.61 438.18c4.94.44 10-.8 14.23-3.4 1.89-1.17 3.66-2.63 4.79-4.54 1.13-1.92 1.54-4.33.73-6.39-1.43-3.62-5.94-4.94-9.83-4.8-3.89.15-7.79 1.26-11.61.53-3.58-.69-7.19-2.97-10.6-1.71-2.32.85-4.91 3.13-4.95 6.21-.04 3.08 1.74 5.92 3.96 8.07 3.53 3.44 8.33 5.58 13.28 6.03z"/><path class="st30" d="M771.65 336.83c.83.21 1.69.19 2.54.23 2.31.09 4.67.6 6.58 1.92 1 .69 1.86 1.58 2.91 2.17 1.06.58 2.46.8 3.45.1.95-.67 1.22-2.04.89-3.17-.33-1.12-1.14-2.04-2.02-2.82-3.49-3.11-8.37-4.6-13.01-3.98.01-.21-1.25.05-2.23.8-.99.76-1.6 2.14-1.08 3.27.35.78 1.15 1.27 1.97 1.48z"/><path class="st69" d="M777.6 398a3.775 3.775 0 10.08-7.55 3.79 3.79 0 00-3.82 3.74 3.775 3.775 0 003.74 3.81z"/><path d="M653.5 599.94c.95-3.97 1.91-7.95 2.84-11.93-3.17-56.89-31.87-150.13-31.18-208.25.69-58.12 9.9-101.29 26.24-157.07.31-1 .56-1.99.75-2.95 15.12 1.66 30.54.6 45.3-3.1.11-.03.22-.05.32-.08-6 48.41-5.44 97.18-1.6 145.52 2.02 25.4 5.05 51.08 12.78 75.24 2.1 6.58 4.55 13.03 7.42 19.35 5.9 12.97 14.54 26 27.94 30.74 2.39.91 5.16.11 7.19-1.51 7.04 8.83 19.22 12.67 30.44 11.27 11.35-1.43 21.7-7.6 29.94-15.54l.69-.16c.03.18.07.35.11.53.61 2.5 3.02 4.74 5.54 4.24l.26.08c30.76-17.48 43.27-37.04 57.98-61.33 14.71-24.29 25.28-50.83 35.12-77.47 14.34-38.86 27.27-78.24 38.73-118.05l.21.06c17.11 5.04 32.71 8.85 50.37 8.81.1-.52.21-1.03.35-1.55-.38 3.43-7.73 166.49-45.07 238.39-12.36 23.8-27.79 46.04-43.04 68.29-21.75 31.7-43.17 63.44-54.95 99.8v.08s-.02.01-.03.01l-19.59 63.75-38.3.07-172.55.23v-.24c8.6-35.75 17.2-71.48 25.79-107.23z" fill="#eb144c"/><path class="st70" d="M768.49 468.66v.43h.14v-.43h-.14z"/><path class="st71" d="M849.45 409.51c.13 0 .26-.04.37-.11.33-.21.42-.64.21-.96a6.59 6.59 0 00-4-2.84 6.583 6.583 0 00-4.85.76.7.7 0 00.72 1.2c1.13-.68 2.52-.9 3.81-.59 1.29.3 2.43 1.12 3.15 2.23.13.19.36.31.59.31zM749.28 408.68c.35 0 .65-.26.69-.61a.697.697 0 00-.6-.78c-2.27-.29-4.92-1.73-5.72-4.26-.91-2.88.93-5.83 1.77-6.97.82-1.12 1.81-2.15 2.77-3.15.88-.92 1.79-1.87 2.6-2.91 1.04-1.33 1.97-2.88 2.84-4.75a.699.699 0 00-1.26-.6c-.83 1.77-1.71 3.24-2.68 4.48-.76.98-1.65 1.9-2.5 2.8-.99 1.03-2.01 2.1-2.89 3.29-2.03 2.76-2.75 5.76-1.97 8.22.86 2.7 3.62 4.8 6.87 5.22.02.01.05.02.08.02z"/><path class="st69" d="M636.85 169.78c-.74 5.37.5 11.26 4.39 15.05 1.2 1.17 2.68 2.06 4.27 2.63 3.56 1.27 7.66.93 10.48-1.54l.02-.05c-2.2-1.11-4.16-2.79-5.53-4.81-3.46-5.13-3.81-11.78-2.76-17.87.32-1.83.78-3.69 1.46-5.43-3.13-.57-6.42.87-8.58 3.22-2.18 2.39-3.3 5.59-3.75 8.8zM679.83 183.8c-2.12-.53-4.27-1.17-6.25-2.1l-.06.14c.1 1.94.87 3.83 2.11 5.34.79.97 1.78 1.78 2.89 2.35h.03c.14-1.96.57-3.9 1.28-5.73z"/><path class="st69" d="M661.1 169.4c-.37 4.69-.04 9.69 2.57 13.61.79 1.2 1.85 2.24 3.05 3.05 2.67 1.81 6.06 2.49 8.91 1.13-1.23-1.51-2-3.4-2.11-5.34l.06-.14c-1.58-.74-3.04-1.69-4.29-2.91-2.81-2.76-4.19-7.34-2.21-10.74.63-1.1 1.64-2.04 2.88-2.29 1.11-.23 2.25.12 3.33.47 1.28.41 2.57.82 3.85 1.23 1.04-3.84 2.2-7.7 4.38-11.01 1.52-2.3 3.65-4.32 6.11-5.49v-.01l-.06-.12c-3.9-3.35-8.89-6.4-13.9-5.26-3.31.75-5.79 3.12-7.6 6.06-1.19 1.92-2.09 4.09-2.75 6.2a52.16 52.16 0 00-2.22 11.56z"/><path class="st69" d="M649.18 157.76c-.68 1.74-1.14 3.59-1.46 5.43-1.05 6.09-.7 12.75 2.76 17.87 1.37 2.03 3.33 3.71 5.53 4.81 3.36 1.69 7.29 2.06 10.6.34l.11-.16c-1.21-.81-2.26-1.86-3.05-3.05-2.61-3.91-2.94-8.91-2.57-13.61.31-3.92 1.06-7.81 2.22-11.56.66-2.11 1.56-4.27 2.75-6.2l-.6-.38c-3.1-3.16-8.67-2.59-12.05.26-1.96 1.66-3.31 3.85-4.24 6.25z"/><path class="st69" d="M677.14 167.46c-1.28-.41-2.57-.82-3.85-1.23-1.08-.35-2.21-.7-3.33-.47-1.24.25-2.25 1.2-2.88 2.29-1.97 3.4-.6 7.98 2.21 10.74 1.25 1.22 2.72 2.16 4.29 2.91 1.97.93 4.13 1.57 6.25 2.1-.71 1.84-1.14 3.77-1.29 5.74h-.03a9.125 9.125 0 01-2.89-2.35c-2.85 1.36-6.24.69-8.91-1.13l-.11.16c-3.31 1.72-7.24 1.35-10.6-.34l-.02.05c-2.82 2.47-6.92 2.81-10.48 1.54l-.04.13c-.6 3.28-.35 6.71.72 9.87 1.49 4.43 4.51 8.24 5.79 12.73.85 2.96.88 6.12.19 9.55 15.12 1.66 30.54.6 45.3-3.1l-.01-.07c1.54-8.13 5.68-15.49 9.08-23.04 3.4-7.54 6.12-15.86 4.58-24-1.1-5.81-4.37-11.09-8.76-15.04-2.87-2.6-6.47-4.73-10.35-4.62-1.52.04-3 .43-4.37 1.08v.01c-2.47 1.17-4.59 3.19-6.11 5.49-2.18 3.31-3.34 7.16-4.38 11z"/><path class="st70" d="M647.36 187.62c.25.1.5.19.74.29-.06.08-.11.16-.17.23h2.41l.03-.21c-.95-.2-1.89-.41-2.84-.61-.06.1-.12.2-.17.3zM661.99 187.35c-.04-.64-.53-.36-.86-.43.04.64.54.37.86.43zM676.15 187.03h-.86v.21h.86v-.21z"/><path class="st70" d="M661.14 186.92c-.1-.12-.19-.24-.29-.36-.05.12-.09.24-.14.36h.43z"/><path class="st72" d="M677.17 168.17c.31 0 .59-.2.67-.52 1.05-3.86 2.17-7.6 4.29-10.8 1.54-2.32 3.61-4.19 5.83-5.25.35-.17.5-.58.33-.93a.693.693 0 00-.93-.33c-2.45 1.17-4.72 3.21-6.39 5.74-2.23 3.38-3.39 7.23-4.47 11.21-.1.37.12.76.49.86.06.01.12.02.18.02z"/><path class="st72" d="M682.35 204.1c.14 0 .28-.04.41-.13.31-.22.39-.66.16-.97-3.84-5.36-4.78-12.79-2.4-18.94.07-.19.06-.4-.03-.57a.706.706 0 00-.45-.36c-3.51-.88-7.47-2.13-10.22-4.82-2.42-2.37-3.98-6.64-2.1-9.89.61-1.06 1.49-1.77 2.42-1.96.96-.19 2.03.15 2.98.45l15.05 4.82c2.82.9 5.74 1.84 8.22 3.49 2.68 1.78 4.43 4.26 4.81 6.79a.702.702 0 101.39-.21c-.44-2.92-2.42-5.75-5.42-7.74-2.64-1.76-5.65-2.72-8.57-3.66l-15.05-4.82c-1.05-.34-2.36-.76-3.68-.49-1.31.27-2.53 1.22-3.35 2.63-2.26 3.9-.54 8.78 2.33 11.59 2.79 2.73 6.61 4.07 10.11 4.99-2.19 6.42-1.11 14 2.84 19.52.11.18.33.28.55.28z"/><path class="st72" d="M693.16 173.44c.29 0 .57-.19.66-.48.81-2.42 2.04-4.64 3.66-6.6.25-.3.2-.74-.09-.98s-.74-.2-.98.09a21.8 21.8 0 00-3.91 7.05c-.12.37.08.76.44.88.07.03.14.04.22.04zM678.54 190.24a.699.699 0 00.32-1.32c-2.65-1.35-4.45-4.14-4.61-7.11a.694.694 0 00-.73-.66c-.39.02-.68.35-.66.73.18 3.45 2.29 6.7 5.37 8.28.1.05.21.08.31.08z"/><path class="st72" d="M672.38 188.59c1.24 0 2.42-.24 3.44-.7.35-.16.51-.57.35-.92-.16-.35-.57-.51-.92-.35-3.95 1.79-8.78-.68-10.98-3.99-2.1-3.16-2.9-7.47-2.45-13.17.31-3.86 1.05-7.7 2.2-11.41.71-2.29 1.61-4.33 2.67-6.04a.698.698 0 10-1.19-.73c-1.12 1.81-2.07 3.95-2.82 6.36a53.852 53.852 0 00-2.26 11.72c-.48 6.02.4 10.62 2.68 14.05 2.37 3.55 6.04 5.17 9.28 5.18z"/><path class="st72" d="M661.9 188.06c1.71 0 3.43-.37 5.05-1.21a.699.699 0 00-.64-1.24c-4.24 2.2-11.27.94-15.23-4.93-3.72-5.51-3.49-12.48-2.64-17.36.41-2.38 1.02-4.47 1.81-6.23.16-.35 0-.77-.35-.92-.35-.16-.77 0-.92.35-.85 1.89-1.48 4.04-1.92 6.56-.89 5.13-1.12 12.48 2.86 18.38 2.52 3.72 7.23 6.6 11.98 6.6z"/><path class="st72" d="M649.64 188.89c2.59 0 5.01-.83 6.84-2.44.29-.25.32-.7.06-.99a.698.698 0 00-.99-.06c-2.45 2.15-6.2 2.69-9.78 1.4a.698.698 0 00-.89.42c-.13.36.06.76.42.89 1.44.53 2.91.78 4.34.78z"/><g><path class="st69" d="M968.85 187.56c1.09 2.07 1.89 4.3 2.4 6.58 2.17-.08 4.3-1.06 5.75-2.68l.13-.07c-.41-.75-.77-1.52-1.06-2.32-2.48-.2-4.94-.94-7.22-1.51zM1001.93 164.11c-.62.25-1.2.59-1.74.99-1.66 1.29-2.73 3.18-3.68 5.06a78.756 78.756 0 00-5.65 14.69c-1.03 3.76-1.66 8.15.73 11.22.03.04.06.07.09.11 2.41 2.99 6.74 3.44 10.61 3.49-.16-.26-.3-.54-.41-.84-.54-1.46-.44-3.07-.24-4.61.89-6.87 3.68-13.5 7.96-18.95.96-1.22 2.07-2.43 3.44-3.06l-.15-.3c-.37-3.2-1.48-6.2-4.6-7.68-1.99-.93-4.35-.94-6.36-.12zM970.63 158.55c-4.88 4.53-7.88 9.35-10.03 15.65v.01c1.13-.01 2.28.11 3.41.22l12.81 1.3c.55.06 1.12.12 1.69.21 1.01-3.8 2.65-7.43 4.83-10.71.77-1.15 1.6-2.27 2.57-3.26l-.28-.28c-1.97-2.88-5.19-4.87-8.65-5.36-1.12-.17-2.3-.17-3.37.21-1.15.4-2.09 1.19-2.98 2.01z"/><path class="st69" d="M980.33 188.77c-1.4.37-2.83.43-4.26.31.3.79.65 1.57 1.06 2.32 1.32 2.4 3.2 4.47 5.65 5.63 2.78 1.31 6.35 1.12 8.74-.71l.16-.12c-.03-.04-.06-.07-.09-.11-2.38-3.07-1.75-7.47-.73-11.22 1.39-5.07 3.28-10 5.65-14.69.95-1.88 2.02-3.77 3.68-5.06.54-.41 1.12-.74 1.74-.99-1.37-2.09-2.87-4.25-5.14-5.28-2.46-1.13-5.44-.68-7.8.67-1.15.66-2.17 1.51-3.09 2.47-.96 1-1.8 2.11-2.57 3.26a36.063 36.063 0 00-4.83 10.71c2.87.43 5.79 1.34 7.06 3.84 1.79 3.52-1.39 7.95-5.23 8.97z"/><path class="st69" d="M1002.29 199.68c-3.87-.05-8.2-.5-10.61-3.49l-.16.12c-2.39 1.83-5.96 2.02-8.74.71-2.45-1.15-4.33-3.23-5.65-5.63l-.13.07c-1.45 1.61-3.59 2.59-5.75 2.68-.51-2.28-1.31-4.51-2.4-6.58 2.28.58 4.74 1.32 7.22 1.52 1.42.12 2.86.06 4.26-.31 3.85-1.02 7.03-5.45 5.24-9-1.27-2.5-4.19-3.41-7.06-3.84-.57-.08-1.14-.15-1.69-.21l-12.81-1.3c-1.13-.11-2.28-.23-3.41-.22-1.13 0-2.26.12-3.34.47-4.35 1.42-6.73 6.29-6.94 10.86-.22 4.57 1.22 9.02 2.14 13.5a59.605 59.605 0 01-2.07 31.19c17.11 5.04 32.71 8.85 50.37 8.81.1-.52.21-1.03.35-1.55v-.01c1.08-4.43 3.02-8.63 5.69-12.33 2.48-3.42 5.55-6.37 8.14-9.7 7.89-10.14 10.97-23.85 8.18-36.39-.37-2.16-1.88-4.4-3.96-5.88-1.46-1.04-3.31-1.71-5.07-1.33-.36.08-.72.2-1.05.35-1.37.63-2.48 1.85-3.44 3.06-4.28 5.45-7.07 12.08-7.96 18.95-.21 1.54-.31 3.15.24 4.61.1.32.24.61.41.87z"/><path class="st70" d="M997.99 199.95c.39-.26.88-.58 1.47-.97-1.05-.21-1.97-.39-3.05-.61.05.28.01.67.17.81.35.3.81.46 1.41.77zM1002.55 199.51c-.21.33-.37.6-.57.91.54.1 1.05.23.57-.91zM1007.57 202.28v.71l.2.03c.06-.23.11-.47.17-.7-.13-.01-.25-.03-.37-.04zM992.63 196.21v.43h.14v-.43h-.14z"/><path class="st72" d="M970.33 209.99c.28 0 .55-.18.66-.46 2.45-6.69 2.13-14.38-.81-20.87 3.23.85 6.86 1.76 10.36.83 2.41-.64 4.64-2.53 5.66-4.82.8-1.77.8-3.61.01-5.17-1.63-3.23-5.61-4.05-9.3-4.42l-12.81-1.31c-1.07-.11-2.29-.21-3.48-.23-.39 0-.7.32-.7.7 0 .38.31.7.7.7h.05c1.12 0 2.27.12 3.28.22l12.81 1.31c3.31.34 6.87 1.04 8.19 3.66.76 1.51.4 2.99-.04 3.96-.86 1.92-2.73 3.51-4.75 4.04-3.23.86-6.61-.03-9.88-.89-.42-.11-.84-.22-1.25-.32a.689.689 0 00-.72.25.7.7 0 00-.07.76c3.38 6.42 3.9 14.31 1.41 21.12-.13.36.05.76.42.9.1.02.18.04.26.04z"/><path class="st72" d="M978.54 176.69c.31 0 .59-.21.67-.52.99-3.74 2.59-7.28 4.74-10.51.83-1.25 1.63-2.27 2.46-3.14.27-.28.26-.72-.02-.99a.697.697 0 00-.99.02c-.88.93-1.74 2.02-2.61 3.33a36.698 36.698 0 00-4.92 10.92c-.1.37.12.76.5.85.05.03.11.04.17.04zM988.32 200.81c1.95 0 3.85-.58 5.32-1.71a.7.7 0 00.13-.98.7.7 0 00-.98-.13c-2.09 1.61-5.39 1.87-8.01.64-2.68-1.26-4.91-3.87-6.29-7.37a.692.692 0 00-.91-.39c-.36.14-.54.55-.39.91 1.51 3.83 3.99 6.72 7 8.13 1.3.6 2.72.9 4.13.9z"/><path class="st72" d="M1002.58 200.43a.7.7 0 00.7-.69c0-.39-.31-.7-.69-.71-3.9-.04-8.19-.46-10.41-3.33-2.33-3-1.46-7.49-.6-10.62 1.37-5.01 3.26-9.91 5.6-14.55.85-1.69 1.9-3.59 3.49-4.82.5-.39 1.07-.71 1.68-.95a.702.702 0 10-.51-1.31c-.74.29-1.42.67-2.03 1.14-1.82 1.41-2.96 3.48-3.88 5.3-2.39 4.73-4.3 9.71-5.7 14.81-.93 3.41-1.86 8.35.85 11.84 2.58 3.35 7.25 3.85 11.5 3.89-.01 0-.01 0 0 0z"/><path class="st72" d="M1008.21 203.4c1.29 0 2.57-.28 3.68-.82 3.14-1.54 5.58-4.89 6.86-9.44.1-.37-.11-.76-.48-.86-.37-.1-.76.11-.86.48-.68 2.41-2.38 6.73-6.13 8.57-1.72.84-3.92.91-5.75.18-1.44-.58-2.5-1.59-2.97-2.87-.49-1.33-.39-2.84-.2-4.27.89-6.79 3.59-13.23 7.82-18.62.78-.99 1.84-2.21 3.12-2.83.35-.17.49-.58.33-.93a.705.705 0 00-.93-.33c-1.54.74-2.74 2.11-3.61 3.22a39.605 39.605 0 00-8.11 19.3c-.21 1.61-.32 3.33.27 4.94.61 1.65 1.94 2.95 3.76 3.68 1 .4 2.1.6 3.2.6zM971.45 194.88h.04c2.31-.14 4.52-1.19 6.06-2.9.26-.29.24-.73-.05-.99a.698.698 0 00-.99.05 7.584 7.584 0 01-5.11 2.44c-.39.02-.68.35-.66.74.04.37.34.66.71.66z"/></g><path class="st67" d="M782.15 509.23c2.91 0 5.82-.25 8.67-.89 6.68-1.51 12.56-5.03 18.24-8.43l-1.08-1.8c-5.54 3.32-11.27 6.74-17.62 8.18-6.76 1.53-13.96.69-20.75-.29l-.3 2.07c4.18.61 8.51 1.16 12.84 1.16z"/><path d="M853.34 319.15c.65-.76 2.15-1.37 5.47-1.54 0 0-2.64-1.72-6.19-1.82-.66-4.75-3.05-13.16-10.98-15.24 0 0 4.25 2.36 4.77 7.41-9.13-9.76-28.79-16.92-83.43-12.72-72.01 5.53-48.67 53-39.4 58.69 9.27 5.69 32.85-9.69 50.2-8.2 17.35 1.49 20.45 27.29 26.31 30.86 5.86 3.56 3.6-2.7 11.59-6.37 8-3.67 8.65 9.91 6.28 18.72-2.37 8.82 8.49 20.5 8.49 20.5l11.16-12.2c11.16-12.2 22-64.04 17.05-75.12-.44-.98-.88-1.97-1.32-2.97z" fill="#323431"/><g><path transform="matrix(1 -.00535 .00535 1 -1.454 1.239)" class="st73" d="M222.98 233.78h15.5v77.15h-15.5z"/><path transform="matrix(1 -.00536 .00536 1 -1.366 .586)" class="st25" d="M88.56 234.04h40.15v42.59H88.56z"/><path transform="matrix(1 -.00536 .00536 1 -1.364 .8)" class="st74" d="M128.52 233.83h40.15v42.59h-40.15z"/><path class="st73" d="M88.51 245.91c26.68.22 53.43.06 80.11-.37.55-.01.55-.85 0-.85-26.68-.15-53.43-.02-80.11.49-.47.01-.47.73 0 .73z"/><path transform="matrix(1 -.00536 .00536 1 -1.57 .54)" class="st25" d="M63.51 276.01h72.95v34.71H63.51z"/><path transform="matrix(1 -.00536 .00536 1 -1.567 .929)" class="st74" d="M136.11 275.62h72.95v34.71h-72.95z"/><path class="st73" d="M63.47 285.86c48.46.55 97.09.06 145.55-.72.55-.01.55-.85 0-.85-48.46-.26-97.1-.23-145.55.84-.48.01-.47.73 0 .73zM36.19 310.92h282.62v12.43H36.19z"/><path class="st73" d="M82.46 316.89h11.47v42.43H82.46zM253.73 316.89h11.47v42.43h-11.47z"/><g><path transform="matrix(1 -.00535 .00535 1 -1.378 1.32)" class="st25" d="M238.18 205.01h15.5v106.11h-15.5z"/></g><g><path transform="matrix(1 -.00536 .00536 1 -1.432 1.429)" class="st74" d="M253.77 224.78h24.09v85.99h-24.09z"/><path class="st73" d="M277.47 241.28c0 .23-5.39.42-12.05.42-6.65 0-12.05-.19-12.05-.42 0-.23 5.39-.42 12.05-.42 6.65.01 12.05.19 12.05.42zM277.47 237.67c0 .23-5.39.42-12.05.42-6.65 0-12.05-.19-12.05-.42 0-.23 5.39-.42 12.05-.42 6.65 0 12.05.19 12.05.42zM277.47 297.77c0 .23-5.39.42-12.05.42-6.65 0-12.05-.19-12.05-.42 0-.23 5.39-.42 12.05-.42 6.65 0 12.05.19 12.05.42zM277.47 294.16c0 .23-5.39.42-12.05.42-6.65 0-12.05-.19-12.05-.42 0-.23 5.39-.42 12.05-.42 6.65 0 12.05.19 12.05.42zM265.81 286.27c-.23 0-.42-8.68-.42-19.37 0-10.7.19-19.38.42-19.38.23 0 .42 8.67.42 19.38 0 10.7-.19 19.37-.42 19.37z"/></g><g><path class="st25" d="M277.73 245.83h26.22v64.9h-26.22z"/></g><g><circle class="st73" cx="245.42" cy="223.08" r="4.46"/></g><g><path class="st73" d="M244.05 235.34h2.75v63.12h-2.75z"/></g></g><g><path class="st75" d="M158.16 706.01h208.56v10.73H158.16z"/><path class="st73" d="M328.31 597.38c.01-.01-.04-.12-.15-.33-.14-.25-.3-.56-.5-.93-.46-.81-1.18-1.99-2.2-3.44-2.06-2.85-5.39-6.95-10.87-10.27-2.73-1.63-6.01-3.04-9.76-3.58-3.72-.53-7.87-.25-11.85 1.24-3.96 1.46-7.82 4.23-10.14 8.3-2.33 4.07-3.08 8.84-4.44 13.41-.69 2.28-1.57 4.48-2.83 6.39-1.27 1.91-3 3.41-4.81 4.74-1.81 1.34-3.71 2.54-5.43 3.95a23.121 23.121 0 00-4.41 4.78c-2.42 3.5-3.79 7.37-4.52 11.04-.74 3.68-.82 7.2-.6 10.37.45 6.35 1.79 11.33 2.65 14.75.45 1.71.83 3.03 1.09 3.92.26.89.42 1.36.44 1.35.03-.01-.07-.49-.28-1.39-.23-.97-.54-2.29-.94-3.96-.77-3.44-2.02-8.43-2.38-14.71-.17-3.13-.06-6.59.69-10.2.74-3.59 2.11-7.36 4.47-10.74 1.18-1.69 2.61-3.24 4.28-4.6 1.68-1.36 3.56-2.55 5.41-3.91 1.84-1.35 3.67-2.92 5.02-4.94 1.33-2.01 2.24-4.29 2.94-6.61 1.38-4.64 2.13-9.35 4.36-13.24 2.2-3.89 5.88-6.57 9.7-7.99 3.85-1.47 7.87-1.76 11.49-1.28 3.63.5 6.86 1.85 9.55 3.41 5.42 3.2 8.78 7.2 10.91 9.96 1.06 1.41 1.81 2.55 2.32 3.33.49.78.76 1.19.79 1.18z"/><path class="st73" d="M268.62 614.11c1.26-1.17 1.87-.36 3.56-.05s3.22 1.21 4.56 2.28c5.84 4.66 8.43 13.03 6.23 20.17-5.37.29-10.81-2.56-13.61-7.15-2.81-4.59-2.87-10.73-.16-15.38M320.25 590.61c.63-1.6 1.53-1.13 3.19-1.57 1.66-.45 3.43-.3 5.1.09 7.28 1.69 13.21 8.13 14.3 15.53-4.73 2.58-10.86 2.34-15.37-.6s-7.21-8.45-6.76-13.81M257.25 645.92c3.42-3.95 8.71-6.22 13.93-5.96 5.22.25 10.27 3.02 13.29 7.29-3.81 3.49-8.94 5.52-14.12 5.57-5.17.05-10.34-2.33-14.22-5.75M261.49 622.17c-5.25.15-10.51-2.2-13.9-6.2-3.39-4.01-4.84-9.58-3.82-14.73 5.49-1.26 11.6.71 15.33 4.94 3.73 4.23 4.91 10.54 2.97 15.83M279.66 594.24c-4.9 1.89-10.64 1.42-15.17-1.23-4.53-2.65-7.75-7.43-8.5-12.63 4.76-3.01 11.18-3.19 16.1-.44 4.92 2.75 8.13 8.3 8.06 13.94M285.75 585.13c4.9-1.89 10.64-1.42 15.17 1.23 4.53 2.65 7.75 7.43 8.5 12.63-4.76 3.01-11.18 3.19-16.1.44-4.92-2.75-8.13-8.3-8.06-13.94M293.01 580.22c-4.97-1.68-9.09-5.71-10.88-10.65-1.79-4.93-1.2-10.67 1.54-15.14 5.59.73 10.63 4.7 12.66 9.96 2.02 5.26.94 11.59-2.71 15.87M311.62 581.11c-1.79-4.93-1.21-10.67 1.53-15.14 2.74-4.48 7.58-7.6 12.79-8.25 2.92 4.82 2.96 11.24.12 16.1-2.85 4.86-8.46 7.97-14.1 7.79"/><path class="st76" d="M236.6 706.9l-9.91-62.23 75.98.92-7.5 60.5"/><g><path class="st77" d="M269.39 633.3c4.08 2.55 8.87 2.95 12.61 1.07 3.74-1.89 6.36-6.02 6.9-10.9-4.19-2-8.76-2.24-12.59-.64-3.83 1.59-6.87 5-8.37 9.37M304.12 646.7c4.08 2.55 8.87 2.95 12.61 1.07 3.74-1.89 6.36-6.03 6.9-10.9-4.19-2-8.76-2.24-12.59-.64-3.83 1.59-6.87 5-8.37 9.37M284.62 616.78c2.01 4.37 5.78 7.34 9.95 7.83 4.16.48 8.63-1.53 11.76-5.31-2.4-3.98-6.09-6.69-10.16-7.46-4.07-.77-8.48.4-12.14 3.22M297.3 632.28c-4.81-.07-9.12 2.06-11.34 5.61s-2.33 8.45-.26 12.9c4.62-.45 8.66-2.62 11.11-5.96 2.45-3.34 3.29-7.83 2.32-12.35M309.54 656.78c-2.09 4.33-1.98 9.13.3 12.65 2.28 3.52 6.68 5.67 11.58 5.68 1.54-4.38 1.28-8.95-.72-12.58-2-3.63-5.6-5.43-10.1-6.45"/><path class="st77" d="M329.74 659.66c-.07.09-.82-1.1-3-1.91-1.07-.41-2.48-.67-4.12-.72-1.64-.07-3.51.16-5.61.33-2.08.14-4.48.28-6.9-.59-2.45-.85-4.46-2.98-5.7-5.51-1.3-2.53-1.89-5.46-2.46-8.4-.59-2.93-1.22-6.01-2.93-8.62-1.68-2.63-4.13-4.6-6.42-6.53-2.31-1.92-4.57-3.87-6.15-6.24-3.15-4.76-3.69-10.15-3.06-14.3.63-4.21 2.29-7.34 3.73-9.19.74-.92 1.34-1.61 1.82-2.01.45-.42.7-.63.72-.61.02.02-.19.27-.6.73-.44.43-.99 1.15-1.68 2.08-1.33 1.88-2.87 4.98-3.41 9.08-.54 4.05.06 9.26 3.11 13.8 1.52 2.25 3.73 4.13 6.04 6.05 2.29 1.93 4.82 3.92 6.6 6.7 1.81 2.78 2.44 5.98 3.03 8.91.56 2.96 1.12 5.79 2.34 8.22 1.17 2.43 3.01 4.4 5.26 5.21 2.23.84 4.56.76 6.62.65 2.07-.13 3.98-.32 5.67-.21 1.68.1 3.12.41 4.22.88 1.1.46 1.85 1.04 2.29 1.48.23.21.37.41.47.53.08.11.13.18.12.19z"/><path class="st77" d="M329.74 659.66c-.07.09-.82-1.1-3-1.91-1.07-.41-2.48-.67-4.12-.72-1.64-.07-3.51.16-5.61.33-2.08.14-4.48.28-6.9-.59-2.45-.85-4.46-2.98-5.7-5.51-1.3-2.53-1.89-5.46-2.46-8.4-.59-2.93-1.22-6.01-2.93-8.62-1.68-2.63-4.13-4.6-6.42-6.53-2.31-1.92-4.57-3.87-6.15-6.24-3.15-4.76-3.69-10.15-3.06-14.3.63-4.21 2.29-7.34 3.73-9.19.74-.92 1.34-1.61 1.82-2.01.45-.42.7-.63.72-.61.02.02-.19.27-.6.73-.44.43-.99 1.15-1.68 2.08-1.33 1.88-2.87 4.98-3.41 9.08-.54 4.05.06 9.26 3.11 13.8 1.52 2.25 3.73 4.13 6.04 6.05 2.29 1.93 4.82 3.92 6.6 6.7 1.81 2.78 2.44 5.98 3.03 8.91.56 2.96 1.12 5.79 2.34 8.22 1.17 2.43 3.01 4.4 5.26 5.21 2.23.84 4.56.76 6.62.65 2.07-.13 3.98-.32 5.67-.21 1.68.1 3.12.41 4.22.88 1.1.46 1.85 1.04 2.29 1.48.23.21.37.41.47.53.08.11.13.18.12.19zM184.69 666.03c.32-6.35-2.75-12.76-7.89-16.5s-12.19-4.68-18.13-2.43c4.38 10.08 14.41 17.48 25.33 18.7M179.67 668.68c-3.72 4.08-3.48 10.64-.82 15.48 2.66 4.83 7.23 8.28 11.82 11.35 1.54-5.2 1.33-10.9-.59-15.97a25.116 25.116 0 00-10.16-12.34M197.67 649.55c.59 5.94 3.69 11.58 8.39 15.26 4.69 3.68 10.92 5.34 16.82 4.5-1.44-5.97-3.84-11.99-8.45-16.04-4.61-4.05-11.89-5.56-17-2.15M197.55 643.46c-.93-5.44-6.3-9.38-11.79-9.89s-10.92 1.83-15.32 5.15c3.3 3.78 8.06 6.23 13.05 6.72 4.99.49 10.14-.98 14.11-4.04M169.25 689.7c-5.22 4.45-6.52 12.39-4.36 18.9 2.17 6.51 7.25 11.7 12.95 15.51 2.19-6.45 3.57-13.37 2.41-20.09-1.16-6.72-5.2-13.2-11.44-15.94M196.71 628.2c2.75-4.05 7.44-6.72 12.33-7 4.89-.29 9.86 1.81 13.06 5.52-2.12 4.75-7.1 8.08-12.3 8.21-5.2.13-10.35-2.93-12.7-7.57M203.1 612.53c-5.62 1.71-11.95.9-16.95-2.17s-8.6-8.34-9.62-14.13c4.18-.37 8.42-.56 12.55.18 4.13.74 8.19 2.47 11.12 5.48 2.92 3 3.76 6.53 2.9 10.64M215.15 608.47c-3.88-3.17-6.23-8.12-6.25-13.12-.02-5.01 2.3-9.97 6.15-13.17a35.588 35.588 0 017.45 15.89c.42 2.18.62 4.47-.06 6.57-.68 2.11-2.41 4-4.6 4.3"/><g><path d="M184.69 666.03c.32-6.35-2.75-12.76-7.89-16.5s-12.19-4.68-18.13-2.43c4.38 10.08 14.41 17.48 25.33 18.7M179.67 668.68c-3.72 4.08-3.48 10.64-.82 15.48 2.66 4.83 7.23 8.28 11.82 11.35 1.54-5.2 1.33-10.9-.59-15.97a25.116 25.116 0 00-10.16-12.34M197.67 649.55c.59 5.94 3.69 11.58 8.39 15.26 4.69 3.68 10.92 5.34 16.82 4.5-1.44-5.97-3.84-11.99-8.45-16.04-4.61-4.05-11.89-5.56-17-2.15M197.55 643.46c-.93-5.44-6.3-9.38-11.79-9.89s-10.92 1.83-15.32 5.15c3.3 3.78 8.06 6.23 13.05 6.72 4.99.49 10.14-.98 14.11-4.04M169.25 689.7c-5.22 4.45-6.52 12.39-4.36 18.9 2.17 6.51 7.25 11.7 12.95 15.51 2.19-6.45 3.57-13.37 2.41-20.09-1.16-6.72-5.2-13.2-11.44-15.94M196.71 628.2c2.75-4.05 7.44-6.72 12.33-7 4.89-.29 9.86 1.81 13.06 5.52-2.12 4.75-7.1 8.08-12.3 8.21-5.2.13-10.35-2.93-12.7-7.57M203.1 612.53c-5.62 1.71-11.95.9-16.95-2.17s-8.6-8.34-9.62-14.13c4.18-.37 8.42-.56 12.55.18 4.13.74 8.19 2.47 11.12 5.48 2.92 3 3.76 6.53 2.9 10.64M215.15 608.47c-3.88-3.17-6.23-8.12-6.25-13.12-.02-5.01 2.3-9.97 6.15-13.17a35.588 35.588 0 017.45 15.89c.42 2.18.62 4.47-.06 6.57-.68 2.11-2.41 4-4.6 4.3"/><g><path class="st77" d="M236 646.67c-.01 0-.01-.15 0-.43.02-.33.05-.74.08-1.25.07-1.1.17-2.72.21-4.81.01-4.13 0-10.36-2.83-17.26-1.45-3.39-3.64-6.94-6.94-9.77-3.24-2.87-7.76-4.78-12.64-4.65-2.41.05-4.9.6-7.13 1.79-2.25 1.14-4.13 3.03-5.51 5.26-2.75 4.54-3.44 10.25-3.2 15.87.2 5.67 1.01 11.26.38 16.71-.32 2.71-.97 5.34-2.08 7.74-1.09 2.4-2.66 4.56-4.67 6.13-2 1.6-4.33 2.5-6.51 3.33-2.2.82-4.31 1.63-6.14 2.78-3.7 2.28-6.38 5.5-8.06 8.78a21.252 21.252 0 00-2.33 9.61c-.02 2.95.55 5.46 1.22 7.42 1.38 3.94 2.99 5.71 2.87 5.78-.01.01-.11-.1-.28-.33-.17-.23-.44-.55-.73-1.02a20.7 20.7 0 01-2.17-4.32c-.72-1.97-1.35-4.52-1.38-7.53-.03-2.99.56-6.47 2.27-9.87 1.68-3.38 4.42-6.72 8.22-9.1 3.76-2.5 8.72-3.12 12.54-6.13 3.83-3.01 5.84-8.14 6.42-13.37.61-5.3-.2-10.86-.4-16.58-.24-5.7.44-11.57 3.33-16.32 1.44-2.34 3.45-4.33 5.83-5.53 2.35-1.25 4.96-1.81 7.48-1.85 5.07-.11 9.78 1.92 13.1 4.89 3.38 2.94 5.59 6.59 7.03 10.06 1.43 3.5 2.07 6.89 2.39 9.85.3 2.97.29 5.55.21 7.64-.09 2.1-.24 3.72-.37 4.81-.06.51-.12.92-.16 1.25-.01.28-.04.42-.05.42z"/><path d="M236 646.67c-.01 0-.01-.15 0-.43.02-.33.05-.74.08-1.25.07-1.1.17-2.72.21-4.81.01-4.13 0-10.36-2.83-17.26-1.45-3.39-3.64-6.94-6.94-9.77-3.24-2.87-7.76-4.78-12.64-4.65-2.41.05-4.9.6-7.13 1.79-2.25 1.14-4.13 3.03-5.51 5.26-2.75 4.54-3.44 10.25-3.2 15.87.2 5.67 1.01 11.26.38 16.71-.32 2.71-.97 5.34-2.08 7.74-1.09 2.4-2.66 4.56-4.67 6.13-2 1.6-4.33 2.5-6.51 3.33-2.2.82-4.31 1.63-6.14 2.78-3.7 2.28-6.38 5.5-8.06 8.78a21.252 21.252 0 00-2.33 9.61c-.02 2.95.55 5.46 1.22 7.42 1.38 3.94 2.99 5.71 2.87 5.78-.01.01-.11-.1-.28-.33-.17-.23-.44-.55-.73-1.02a20.7 20.7 0 01-2.17-4.32c-.72-1.97-1.35-4.52-1.38-7.53-.03-2.99.56-6.47 2.27-9.87 1.68-3.38 4.42-6.72 8.22-9.1 3.76-2.5 8.72-3.12 12.54-6.13 3.83-3.01 5.84-8.14 6.42-13.37.61-5.3-.2-10.86-.4-16.58-.24-5.7.44-11.57 3.33-16.32 1.44-2.34 3.45-4.33 5.83-5.53 2.35-1.25 4.96-1.81 7.48-1.85 5.07-.11 9.78 1.92 13.1 4.89 3.38 2.94 5.59 6.59 7.03 10.06 1.43 3.5 2.07 6.89 2.39 9.85.3 2.97.29 5.55.21 7.64-.09 2.1-.24 3.72-.37 4.81-.06.51-.12.92-.16 1.25-.01.28-.04.42-.05.42z"/></g></g><g><path class="st77" d="M346.63 633.09c-.14-.03 1.05-1.87 1.14-5.57.02-1.82-.3-4.11-1.48-6.43-1.15-2.3-3.26-4.58-6.2-5.99-1.46-.7-3.12-1.19-4.88-1.32-1.76-.14-3.61.12-5.46.64-3.72.98-7.41 3.09-11.81 3.97-2.18.42-4.56.55-6.85-.17-2.31-.69-4.28-2.39-5.58-4.45-2.65-4.12-3.4-9.28-6.61-13.07-1.57-1.88-3.73-3.18-6-3.92-2.28-.77-4.7-.93-7.01-.71-4.7.39-8.79 2.89-11.66 6.07-2.9 3.21-4.7 7.02-5.79 10.71-1.1 3.71-1.44 7.32-1.29 10.61.27 6.59 1.38 11.87 1.97 15.52.31 1.77.55 3.18.73 4.21.07.44.12.8.16 1.1.03.25.04.38.03.38-.01 0-.05-.12-.11-.36-.07-.29-.15-.65-.24-1.08-.22-1.02-.51-2.42-.88-4.18-.69-3.64-1.88-8.9-2.24-15.56-.19-3.33.13-7.04 1.22-10.82 1.08-3.77 2.9-7.7 5.88-11.03 1.5-1.65 3.27-3.13 5.33-4.27 2.06-1.14 4.39-1.85 6.81-2.09 2.42-.24 4.95-.08 7.35.73 2.4.78 4.69 2.15 6.37 4.17 3.39 4.07 4.12 9.27 6.66 13.17 1.23 1.96 3.02 3.5 5.14 4.14 2.11.67 4.36.57 6.47.17 4.24-.81 7.94-2.9 11.77-3.88 1.9-.52 3.84-.78 5.69-.62 1.85.15 3.58.68 5.09 1.43 3.05 1.5 5.2 3.9 6.35 6.3 1.18 2.42 1.45 4.78 1.39 6.64-.06 1.88-.48 3.29-.82 4.21-.35.92-.64 1.35-.64 1.35z"/></g><path class="st77" d="M302.19 605.52c4.08 2.55 9.81 2.78 13.55.89 3.74-1.89 6.36-6.02 6.9-10.9-4.19-2-8.76-2.24-12.59-.64-3.83 1.59-6.87 5-8.37 9.37M316.6 618.59c-.05 4.81 2.73 9.82 6.29 12.03 3.56 2.21 8.46 2.3 12.9.22-.47-4.62-2.65-8.65-6-11.08-3.35-2.44-7.84-3.27-12.36-2.27M341.59 615.69c4.33 2.1 10.05 1.72 13.57-.56 3.52-2.27 5.68-6.67 5.7-11.57-4.38-1.54-8.95-1.29-12.59.7-3.63 1.99-6.3 5.7-7.33 10.21M281.21 596.87c-3.64-3.14-6.08-8.66-5.39-12.79.7-4.13 3.87-7.86 8.37-9.81 3.15 3.41 4.73 7.71 4.34 11.84-.39 4.13-2.74 8.04-6.47 10.77"/><g><path class="st77" d="M183.64 578.98c-.01-.01.04-.12.15-.33.14-.25.3-.56.5-.93.46-.81 1.18-1.99 2.2-3.43 2.06-2.85 5.39-6.95 10.87-10.28 2.73-1.63 6.01-3.04 9.76-3.58 3.72-.53 7.87-.25 11.85 1.24 3.96 1.46 7.82 4.23 10.14 8.3 2.33 4.07 3.08 8.84 4.44 13.41.69 2.28 1.57 4.48 2.83 6.39 1.27 1.91 3 3.41 4.81 4.74 1.81 1.34 3.71 2.54 5.43 3.95 1.72 1.41 3.21 3.03 4.41 4.78 2.42 3.5 3.79 7.37 4.52 11.04.74 3.68.82 7.2.6 10.37-.45 6.35-1.79 11.33-2.65 14.75-.45 1.71-.83 3.03-1.09 3.92-.26.89-.42 1.36-.44 1.35-.03-.01.07-.49.28-1.39.23-.97.54-2.29.94-3.96.77-3.44 2.02-8.43 2.38-14.71.17-3.13.06-6.59-.69-10.2-.75-3.59-2.11-7.36-4.47-10.74a22.658 22.658 0 00-4.28-4.6c-1.68-1.36-3.56-2.55-5.41-3.91-1.84-1.35-3.67-2.92-5.02-4.94-1.33-2.01-2.24-4.29-2.94-6.61-1.38-4.64-2.13-9.35-4.36-13.24-2.2-3.89-5.88-6.56-9.7-7.99-3.85-1.47-7.87-1.76-11.49-1.28-3.63.5-6.86 1.85-9.55 3.41-5.42 3.2-8.78 7.2-10.91 9.96a58.836 58.836 0 00-2.32 3.33c-.5.78-.77 1.19-.79 1.18z"/><path class="st77" d="M243.33 595.71c-1.26-1.17-1.87-.36-3.56-.05s-3.22 1.21-4.56 2.28c-5.84 4.66-8.43 13.03-6.23 20.17 5.37.29 10.81-2.56 13.61-7.15 2.81-4.59 2.87-10.73.16-15.38M191.69 572.21c-.63-1.6-1.53-1.13-3.19-1.57-1.66-.45-3.43-.3-5.1.09-7.28 1.69-13.21 8.13-14.3 15.53 4.73 2.58 10.86 2.34 15.37-.6s7.21-8.45 6.76-13.81M254.7 627.52c-3.42-3.95-8.71-6.22-13.93-5.96-5.22.25-10.27 3.02-13.29 7.29 3.81 3.49 8.94 5.52 14.11 5.57 5.17.05 10.34-2.33 14.22-5.75M250.46 603.77c5.25.15 10.51-2.2 13.9-6.2 3.39-4.01 4.84-9.58 3.82-14.73-5.49-1.26-11.6.71-15.33 4.94-3.73 4.23-4.91 10.54-2.97 15.83M232.29 575.84c4.9 1.89 10.64 1.42 15.17-1.23 4.53-2.65 7.75-7.43 8.5-12.63-4.76-3.01-11.18-3.19-16.1-.44-4.92 2.75-8.13 8.3-8.06 13.94M226.19 566.73c-4.9-1.89-10.64-1.42-15.17 1.23-4.53 2.65-7.75 7.43-8.5 12.63 4.76 3.01 11.18 3.19 16.1.44 4.92-2.75 8.13-8.3 8.06-13.94M218.93 561.82c4.97-1.68 9.09-5.71 10.88-10.65 1.79-4.93 1.2-10.67-1.54-15.14-5.59.73-10.63 4.7-12.66 9.96-2.02 5.26-.94 11.59 2.71 15.87M200.32 562.71c1.79-4.93 1.21-10.67-1.53-15.14-2.74-4.48-7.58-7.6-12.79-8.25-2.92 4.82-2.96 11.24-.12 16.1 2.85 4.86 8.46 7.97 14.1 7.79"/></g></g><path class="st76" d="M225.72 699.69l5.81 7.21h71.51l4.87-7.21z"/><g><path class="st75" d="M306.34 699.63c0 .23-17.57.41-39.24.41-21.68 0-39.25-.18-39.25-.41s17.57-.41 39.25-.41c21.67-.01 39.24.18 39.24.41z"/></g><g><path class="st75" d="M298.3 672.48c.02.02-.13.22-.45.59-.31.37-.78.91-1.46 1.53-1.33 1.26-3.43 2.95-6.38 4.43-2.95 1.45-6.78 2.69-11.16 2.87-2.18.1-4.5-.07-6.83-.57-2.33-.51-4.65-1.33-6.96-2.31-4.61-1.96-8.8-4.2-12.88-5.5-4.06-1.34-7.97-1.72-11.12-1.07-3.17.59-5.48 1.99-6.82 3.17-1.36 1.19-1.88 2.08-1.95 2.03-.02-.02.1-.24.36-.65.27-.4.71-.97 1.37-1.62 1.32-1.28 3.66-2.82 6.92-3.5 3.25-.75 7.33-.41 11.47.92 4.18 1.29 8.42 3.52 12.97 5.46 2.28.96 4.56 1.77 6.82 2.28 2.26.49 4.5.68 6.62.6 4.27-.13 8.01-1.28 10.94-2.63 5.87-2.83 8.41-6.21 8.54-6.03z"/></g><g><path class="st75" d="M299.01 666.89c.02.02-.15.21-.49.55-.34.35-.85.85-1.56 1.43-1.41 1.17-3.61 2.74-6.62 4.11-3.01 1.34-6.85 2.5-11.24 2.68-2.19.11-4.5-.04-6.85-.46-2.35-.44-4.71-1.15-7.07-2-4.72-1.71-9.05-3.68-13.19-4.84-4.12-1.19-8.03-1.55-11.22-1.02-3.2.47-5.6 1.68-7.08 2.71-1.48 1.04-2.14 1.84-2.2 1.78-.02-.02.13-.22.45-.59.32-.36.83-.87 1.56-1.44 1.46-1.13 3.89-2.46 7.18-3.02 3.27-.62 7.32-.31 11.52.86 4.22 1.14 8.6 3.1 13.27 4.79 2.34.84 4.66 1.55 6.94 1.98 2.29.42 4.53.58 6.67.49 4.28-.14 8.05-1.22 11.04-2.46 5.97-2.6 8.77-5.72 8.89-5.55z"/></g><g><path class="st75" d="M214.64 713.93h6.26v17.46h-6.26zM303.97 713.93h6.26v17.46h-6.26z"/></g></g><path d="M420.6 709.71l4.18 20.41a6.152 6.152 0 005.92 4.91l287.25 2.63c2.33.05 4.03-2.21 3.34-4.44a6.339 6.339 0 00-5.99-4.47l-102.06-1.13-33.21-156.66c-1.2-5.66-6.14-9.75-11.92-9.88l-169.84-3.82c-4.61-.1-8.12 4.1-7.18 8.62l29.51 143.83z" fill="#fff" stroke="#323431" stroke-miterlimit="10"/><ellipse transform="rotate(-46.536 492.542 634.048)" cx="492.58" cy="634.06" rx="15.5" ry="17.25" fill="#e51b4d"/><circle class="st65" cx="467.13" cy="97.85" r="75.69"/><circle class="st30" cx="467.26" cy="97.02" r="51.73"/><path class="st62" d="M466.57 58.94h1.2c.56.19 1.14.34 1.69.57 3.81 1.55 7.43 3.46 10.89 5.67 3.29 2.1 6.56 4.23 10.16 5.8 1.77.77 3.59 1.37 5.56 1.46 1.59.07 2.75.84 3.23 2.39.09.29.15.59.22.89v.6c-.05.1-.14.2-.14.3-.16 2.02-.24 4.04-.47 6.05-.28 2.51-.67 5-1.03 7.5-.5 3.49-1.36 6.89-2.39 10.25-1.57 5.14-3.62 10.06-6.43 14.66-1.58 2.58-3.28 5.06-5.3 7.3-1.8 2-3.76 3.85-5.7 5.72-.86.83-1.81 1.59-2.8 2.28-1.86 1.31-3.77 2.53-5.66 3.8-1.23.82-2.53 1.26-3.93.54-1.02-.52-1.98-1.17-2.94-1.79-3.74-2.43-7.26-5.15-10.25-8.48-1.7-1.88-3.41-3.78-4.88-5.83-2.51-3.5-4.62-7.25-6.26-11.26-1.51-3.66-2.76-7.4-3.67-11.25-.5-2.11-.96-4.24-1.33-6.38-.33-1.91-.53-3.84-.77-5.76-.13-1.05-.24-2.1-.31-3.16-.12-1.8-.3-3.61-.27-5.42.03-1.56.98-2.51 2.51-2.82.6-.12 1.23-.08 1.83-.19 2.16-.39 4.2-1.13 6.11-2.17 2.57-1.4 5.07-2.94 7.6-4.43 2.06-1.22 4.04-2.59 6.17-3.67 2.39-1.17 4.9-2.11 7.36-3.17zm-1.74 40.55c-.27-.25-.45-.42-.62-.59l-6.62-6.62c-.68-.68-1.61-.82-2.33-.21-1.06.9-2.09 1.85-3.01 2.88-.78.87-.72 1.9.03 2.65 3.69 3.72 7.39 7.43 11.12 11.11 1.57 1.55 3.45 1.29 4.68-.53.83-1.24 1.69-2.46 2.53-3.69 2.45-3.62 4.9-7.25 7.35-10.87 1.87-2.77 3.74-5.55 5.63-8.31.5-.73.51-1.93-.29-2.51-.93-.67-1.9-1.29-2.81-1.99-1.31-1.01-2.6-.7-3.41.64-.65 1.06-1.41 2.05-2.11 3.09-2.73 4.05-5.45 8.11-8.18 12.17-.63.92-1.29 1.82-1.96 2.78z"/></svg>