<svg version="1.1" id="Layer_1" xmlns="http://www.w3.org/2000/svg" x="0" y="0" viewBox="0 0 837.74 488.68" xml:space="preserve"><style>.st12{fill:#e59f39}.st13{fill:#e8ae54}.st14{fill:#f7cc7f}.st15{fill:#44b8b6}.st16{fill:#95c88b}.st18{fill:#323431}.st19{fill:#f4a392}.st20{fill:#e51b4d}.st21{fill:#f8c7bd}.st31{fill:#fff;stroke:#575756;stroke-width:.5;stroke-miterlimit:10}</style><path d="M242.05 44.98c120.28-6.14 246.4 25.86 227.86 72.25s99.11-16.48 146.05.25c33.42 11.91 20.06 48.16 36.23 62.77 37.08 33.49 74.99-8.68 122.18 16.62 47.19 25.31 27.57 261.95 8.35 261.92l-727.67-1.17-8.71.25s-53.37-67.98-5.06-107.67c48.31-39.69 15.14-57.85 9.27-73.19-6.74-17.61-22.47-48.38 46.06-70.95 68.53-22.58 50.84-71.7 49.15-81.87-1.67-10.19-23.99-73.07 96.29-79.21z" fill="#f3f3f3"/><linearGradient id="SVGID_1_" gradientUnits="userSpaceOnUse" x1="398.139" y1="193.204" x2="405.633" y2="208.894"><stop offset="0" stop-color="#96afdb"/><stop offset="1" stop-color="#bac4e5"/></linearGradient><circle cx="401.67" cy="200.59" r="5.15" fill="url(#SVGID_1_)"/><path class="st31" d="M529.14 90.1h43.84v365.49h-43.84zM458.92 214.65h43.84v240.94h-43.84zM596.24 172.51h43.84v283.08h-43.84zM388.7 173.33h43.84v282.25H388.7zM322.49 257.02h43.84v198.57h-43.84z"/><path class="st12" d="M759.28 429.17v22.41c0 3.62-40.42 6.56-90.29 6.56-49.87 0-90.29-2.94-90.29-6.56v-22.41h180.58z"/><path class="st13" d="M693.94 457.89v-28.72h65.34v22.41c0 3-27.61 5.52-65.34 6.31zM690.9 457.95c-7.01.13-14.35.19-21.91.19-11.26 0-22.03-.15-31.97-.42v-28.55h53.88v28.78zM633.4 457.61c-32.17-1-54.7-3.33-54.7-6.03v-22.41h54.7v28.44z"/><ellipse class="st12" cx="668.99" cy="428.93" rx="90.29" ry="6.56"/><path class="st14" d="M594.64 428.93c0 2.51 33.29 4.55 74.35 4.55 41.06 0 74.35-2.04 74.35-4.55s-33.29-4.55-74.35-4.55c-41.07 0-74.35 2.04-74.35 4.55z"/><path class="st12" d="M774.73 404.13v22.41c0 3.62-40.42 6.56-90.29 6.56s-90.29-2.94-90.29-6.56v-22.41h180.58z"/><path class="st13" d="M709.39 432.86v-28.72h65.34v22.41c0 2.99-27.61 5.52-65.34 6.31zM706.34 432.92c-7.01.13-14.35.19-21.91.19-11.26 0-22.03-.15-31.97-.42v-28.55h53.88v28.78zM648.84 432.58c-32.17-1-54.7-3.33-54.7-6.03v-22.41h54.7v28.44z"/><ellipse class="st12" cx="684.44" cy="403.9" rx="90.29" ry="6.56"/><ellipse class="st14" cx="684.44" cy="403.9" rx="74.35" ry="4.55"/><path class="st12" d="M764.43 379.79v22.41c0 3.62-40.42 6.56-90.29 6.56-49.87 0-90.29-2.94-90.29-6.56v-22.41h180.58z"/><path class="st13" d="M699.09 408.51v-28.72h65.34v22.41c0 2.99-27.61 5.52-65.34 6.31zM696.05 408.57c-7.01.13-14.35.19-21.91.19-11.26 0-22.03-.15-31.97-.42v-28.55h53.88v28.78zM638.55 408.23c-32.17-1-54.7-3.33-54.7-6.03v-22.41h54.7v28.44z"/><ellipse class="st12" cx="674.14" cy="379.55" rx="90.29" ry="6.56"/><ellipse class="st14" cx="674.14" cy="379.55" rx="74.35" ry="4.55"/><g><path class="st12" d="M774.73 355.77v22.41c0 3.62-40.42 6.56-90.29 6.56s-90.29-2.94-90.29-6.56v-22.41h180.58z"/><path class="st13" d="M709.39 384.49v-28.72h65.34v22.41c0 3-27.61 5.53-65.34 6.31zM706.34 384.55c-7.01.13-14.35.19-21.91.19-11.26 0-22.03-.15-31.97-.42v-28.55h53.88v28.78zM648.84 384.22c-32.17-1-54.7-3.33-54.7-6.03v-22.41h54.7v28.44z"/><ellipse class="st12" cx="684.44" cy="355.53" rx="90.29" ry="6.56"/><ellipse class="st14" cx="684.44" cy="355.53" rx="74.35" ry="4.55"/></g><g><path class="st12" d="M816.74 328.53l-5.42 18.94c-.88 3.06-35.74-4.24-77.86-16.31-42.13-12.07-75.57-24.33-74.69-27.39l5.42-18.94 152.55 43.7z"/><path class="st13" d="M754.59 336.99l6.95-24.26 55.2 15.81-5.42 18.94c-.73 2.52-24.67-2.03-56.73-10.49zM752 336.3c-5.96-1.59-12.17-3.31-18.55-5.14-9.51-2.72-18.58-5.46-26.91-8.09l6.91-24.12 45.52 13.04L752 336.3zM703.51 322.1c-26.93-8.63-45.4-16.05-44.75-18.33l5.42-18.94 46.21 13.24-6.88 24.03z"/><path class="st12" d="M664.24 284.63c-.88 3.06 32.56 15.32 74.69 27.39s76.99 19.37 77.86 16.31c.88-3.06-32.56-15.32-74.69-27.39-42.12-12.07-76.98-19.37-77.86-16.31z"/><path class="st14" d="M677.71 288.49c-.61 2.12 27.02 11.9 61.71 21.83 34.69 9.94 63.3 16.27 63.91 14.15.61-2.12-27.02-11.9-61.71-21.83-34.69-9.94-63.31-16.27-63.91-14.15z"/></g><g><path class="st12" d="M767.4 198.21l5.77 18.83c.93 3.04-32.27 15.93-74.17 28.78-41.89 12.85-76.61 20.8-77.55 17.75l-5.77-18.83 151.72-46.53z"/><path class="st13" d="M719.91 239.17l-7.4-24.13 54.9-16.84 5.77 18.83c.77 2.53-21.78 11.76-53.27 22.14zM717.37 240.01c-5.86 1.91-12.01 3.86-18.36 5.81-9.46 2.9-18.55 5.55-26.97 7.88l-7.36-23.99 45.27-13.88 7.42 24.18zM668.97 254.54c-27.29 7.45-46.81 11.3-47.51 9.03l-5.77-18.83 45.95-14.09 7.33 23.89z"/><path class="st12" d="M615.63 244.53c.93 3.04 35.65-4.9 77.55-17.75 41.89-12.85 75.1-25.73 74.17-28.78-.93-3.04-35.65 4.9-77.55 17.75-41.9 12.86-75.1 25.74-74.17 28.78z"/><path class="st14" d="M629.02 240.43c.65 2.11 29.14-4.75 63.64-15.34 34.5-10.58 61.94-20.87 61.29-22.98-.65-2.11-29.14 4.75-63.64 15.34-34.5 10.58-61.94 20.87-61.29 22.98z"/></g><path transform="rotate(-180 570.444 429.168)" class="st15" d="M491.36 400.38h158.18v57.57H491.36z"/><path transform="rotate(-180 570.444 412.476)" class="st16" d="M491.36 408.77h158.18v7.41H491.36z"/><path transform="rotate(-180 570.444 426.942)" class="st16" d="M491.36 423.24h158.18v7.41H491.36z"/><path transform="rotate(-180 570.444 441.409)" class="st16" d="M491.36 437.71h158.18v7.41H491.36z"/><path transform="rotate(-180 570.444 454.25)" class="st16" d="M491.36 450.55h158.18v7.41H491.36z"/><path transform="rotate(-180 566.687 429.168)" class="st14" d="M550.24 400.38h32.9v57.57h-32.9z"/><path transform="rotate(-180 659.557 429.168)" class="st15" d="M647.61 400.38h23.89v57.57h-23.89z"/><path d="M569.4 445.85c-.09-.12-.18-.24-.27-.35-1.32-1.65-2.63-3.31-3.95-4.96l-3.16-3.97-2.83-3.55a.239.239 0 01-.05-.14v-2.35c0-.07.02-.09.09-.09h2.74c.53 0 1.05-.05 1.57-.12.69-.1 1.37-.28 2.01-.55.76-.32 1.43-.77 1.98-1.39.57-.64.95-1.38 1.09-2.23.04-.23.05-.46.06-.68.01-.1 0-.11-.1-.11h-10.35c.02-.03.03-.05.04-.07.54-.82 1.07-1.64 1.61-2.47.04-.06.08-.09.16-.09H568.34c-.01-.04-.02-.06-.03-.09a4.078 4.078 0 00-2.07-2.08c-.56-.26-1.15-.43-1.76-.52-.39-.06-.79-.11-1.19-.14a27.4 27.4 0 00-1.28-.06c-1.23-.01-2.46-.01-3.68-.01h-.1c.01-.03.02-.04.03-.06.54-.84 1.09-1.67 1.63-2.51.03-.04.06-.06.11-.06h17.62c-.02.04-.03.06-.05.08-.54.83-1.08 1.65-1.61 2.48-.03.05-.07.07-.13.07H571.19c.03.04.04.06.06.09.6.73.99 1.56 1.16 2.49.02.09.03.18.04.26.01.05.03.06.07.06H577.62c-.02.03-.03.06-.04.08-.54.83-1.08 1.66-1.62 2.48-.03.05-.06.06-.12.06h-3.16c-.11 0-.11 0-.13.11-.11.79-.35 1.55-.71 2.26-.46.91-1.1 1.68-1.88 2.34-1.11.94-2.39 1.56-3.78 1.97-.51.15-1.02.26-1.54.33-.38.05-.76.08-1.14.12-.04 0-.08.01-.14.02.05.06.09.11.13.17 1.16 1.45 2.33 2.9 3.49 4.35 1.2 1.49 2.4 2.98 3.6 4.48l3.3 4.11c.07.08.14.17.21.25-1.55-.01-3.12-.01-4.69-.01z" fill="#fff"/><path fill="#bac4e5" d="M641.34 105.1l-38 25.9 14.35 1.05-91.86 145.52-48.82-69.88-72.45 151.37-44.47-60.28-57.43 73.25 3.37 13.29 53.79-68.27 47.01 63.71 72.18-150.81 47.37 67.8 101.69-161.11 9.12 9.35z"/><g><path class="st18" d="M193.06 139.35c-2.01-.67-3.98-1.43-5.89-2.35-2.16-1.04-4.95-2.25-6.72-2.52-3.72-.57-10.1-.19-13.62 3.62-4.39 4.75-12.2.86-10.62 25.73 1.78 28.15 17.48 25.06 17.86 24.58.38-.48 14.01-18.01 14.01-18.01s4.76 10.39 4.76 10c0-.37 24.32-32.96.22-41.05z"/><path class="st12" d="M102.2 429.85v23.31c0 3.77 42.04 6.82 93.89 6.82s93.89-3.05 93.89-6.82v-23.31H102.2z"/><path class="st13" d="M170.15 459.71v-29.87H102.2v23.31c0 3.12 28.71 5.74 67.95 6.56zM173.31 459.77c7.29.13 14.92.2 22.78.2 11.71 0 22.91-.16 33.25-.44v-29.69h-56.03v29.93zM233.1 459.43c33.45-1.04 56.88-3.46 56.88-6.27v-23.31H233.1v29.58z"/><ellipse class="st12" cx="196.09" cy="429.6" rx="93.89" ry="6.82"/><path class="st14" d="M273.41 429.6c0 2.61-34.62 4.73-77.32 4.73s-77.32-2.12-77.32-4.73c0-2.61 34.62-4.73 77.32-4.73s77.32 2.12 77.32 4.73z"/><path class="st12" d="M86.14 405.18v23.31c0 3.77 42.04 6.82 93.89 6.82s93.89-3.05 93.89-6.82v-23.31H86.14z"/><path class="st13" d="M154.08 435.05v-29.87H86.14v23.31c0 3.11 28.71 5.74 67.94 6.56zM157.24 435.11c7.29.13 14.92.2 22.78.2 11.71 0 22.91-.16 33.25-.44v-29.69h-56.03v29.93zM217.04 434.76c33.45-1.04 56.88-3.46 56.88-6.27v-23.31h-56.88v29.58z"/><ellipse class="st12" cx="180.03" cy="404.93" rx="93.89" ry="6.82"/><path class="st14" d="M257.34 404.93c0 2.61-34.62 4.73-77.32 4.73-42.7 0-77.32-2.12-77.32-4.73 0-2.61 34.62-4.73 77.32-4.73 42.71 0 77.32 2.12 77.32 4.73z"/><path class="st12" d="M96.84 379.86v23.31c0 3.77 42.04 6.82 93.89 6.82s93.89-3.05 93.89-6.82v-23.31H96.84z"/><path class="st13" d="M164.78 409.73v-29.87H96.84v23.31c0 3.11 28.71 5.74 67.94 6.56zM167.95 409.79c7.29.13 14.92.2 22.78.2 11.71 0 22.91-.16 33.25-.44v-29.69h-56.03v29.93zM227.74 409.44c33.45-1.04 56.88-3.46 56.88-6.27v-23.31h-56.88v29.58z"/><ellipse class="st12" cx="190.73" cy="379.61" rx="93.89" ry="6.82"/><path class="st14" d="M268.05 379.61c0 2.61-34.62 4.73-77.32 4.73-42.7 0-77.32-2.12-77.32-4.73 0-2.61 34.62-4.73 77.32-4.73 42.7 0 77.32 2.12 77.32 4.73z"/><path class="st12" d="M86.14 354.89v23.31c0 3.77 42.04 6.82 93.89 6.82s93.89-3.05 93.89-6.82v-23.31H86.14z"/><path class="st13" d="M154.08 384.75v-29.87H86.14v23.31c0 3.12 28.71 5.75 67.94 6.56zM157.24 384.82c7.29.13 14.92.2 22.78.2 11.71 0 22.91-.16 33.25-.44v-29.69h-56.03v29.93zM217.04 384.47c33.45-1.04 56.88-3.46 56.88-6.27v-23.31h-56.88v29.58z"/><ellipse class="st12" cx="180.03" cy="354.64" rx="93.89" ry="6.82"/><path class="st14" d="M257.34 354.64c0 2.61-34.62 4.73-77.32 4.73-42.7 0-77.32-2.12-77.32-4.73 0-2.61 34.62-4.73 77.32-4.73 42.71 0 77.32 2.12 77.32 4.73z"/><path class="st19" d="M256.58 432.5s2.23 11.84 2.23 11.87c.12 1.54.08 5.44.41 6.79 1.25 5.06 22.55-7.24 16.97-8.23-.51-.09-4.17-3.8-5.01-5.37-1.46-2.73-2.8-7.82-2.8-7.82l-11.8 2.76z"/><path class="st20" d="M275.14 442.19s-5.5 1.36-8.3 1.64c-2.8.28-6.39-4.07-8.4-3.24-2.21.9-3.41 14.7-3.41 14.7s35.13 1.6 43.44-.69c3.29-.92-12.4-8.22-23.33-12.41z"/><path class="st19" d="M305.57 431.96s2.23 11.84 2.23 11.87c.12 1.54.08 5.44.41 6.79 1.25 5.06 22.16-6.43 16.57-7.42-.51-.09-3.78-4.61-4.62-6.18-1.46-2.73-2.8-7.82-2.8-7.82l-11.79 2.76z"/><path class="st20" d="M323.58 442.19s-5.5 1.36-8.3 1.64c-2.8.28-6.39-4.07-8.4-3.24-2.21.9-3.41 14.7-3.41 14.7s35.13 1.6 43.44-.69c3.3-.92-12.39-8.22-23.33-12.41z"/><path class="st18" d="M183.75 313.41l63.92-14.83s28.66-7.58 35.58 1.32c6.92 8.9 36.3 131.66 36.3 131.66s-15.16 1.32-16.14.66l-35.48-62.97a55.005 55.005 0 01-6.54-19.37l-2.52-18.03-26.03 7.58s-29.98 6.59-42.17-.99c-12.19-7.57-6.92-25.03-6.92-25.03z"/><path class="st20" d="M208.3 203.22c1.01.04 3.78.96 7.82 8.58 5.17 9.73 12.72 39.12 12.72 39.12l-22.54 8.36-2.9-6.14-4.77-47.23c.01.01 9.39-2.7 9.67-2.69z"/><path class="st20" d="M178.51 198.98c6.44.01 22.39 1.88 29.79 4.24 0 0 5.44 46.57-4.9 81.96-2.31 7.92 1.91 32.84 1.91 32.84l-66.78-.88s7.91-60.24 4.93-69.97c-2.98-9.73-3.05-43.64-3.05-43.64s.46-.07 15-2.58c6.79-1.16 16.22-1.98 23.1-1.97z"/><path class="st21" d="M139.69 208.71c6.24-2.33 9.3 53.74 10.14 76.81 11.06 1.06 30.33.01 35.13-.35 2.26-.17 7.46-2.07 9.71-2.36 2.3-.3 4.39-.46 5.52-.26.42.07 11.94 4.77 12.93 5.8 1.22 1.28 4.53 4.5 3.97 5.89-.56 1.39-6.36-3.88-6.36-3.88l-2.83-1.58c3.53 3.44 10.26 7.96 9.29 9.61-.95 1.61-7.02-2.98-11.34-6.11 3.71 3.34 8.32 9.32 7.26 10.25-.95.84-6.2-6.08-11.8-8.08-2.08-.74-4.15 1.31-5.78 1.55-1.2.18-3.05.57-4.23.24l-5.63-.54c-2.07.19-2.56.23-4.65.68-2.42.51-6.4 1.06-9.49 1.81-17.77 4.33-23.7 6.34-29.14 6.33-16.5-.02-17.46-90.29-2.7-95.81z"/><path class="st20" d="M127.84 261.35c-1.17-23.64-1-52.78 12.3-57.75 5.25-1.96 14.5 9.83 12.83 58.23-7.1.58-17.52 1.05-25.13-.48z"/><path d="M275.94 246.9l-62.92 4.11c-1.66.11-3.1 1.21-3.63 2.79l-16.29 48.52-34.69 2.27c-.97.06-1.7.9-1.64 1.87h0c.06.97.9 1.7 1.87 1.64l98.72-6.45a6.912 6.912 0 006.02-4.48l16.67-44.73c1.05-2.79-1.14-5.73-4.11-5.54z" fill="#fff" stroke="#575756" stroke-miterlimit="10"/><path class="st20" d="M244.59 276.88c-.13 2.17-1.76 3.83-3.66 3.72-1.9-.11-3.33-1.95-3.21-4.12.13-2.17 1.76-3.83 3.66-3.72 1.9.11 3.33 1.96 3.21 4.12z"/><path class="st18" d="M138.57 315.62l69.65-12.03s30.11-4.59 37.03 4.31c6.92 8.9 27.02 124.21 27.02 124.21s-15.16 1.32-16.14.66c-.77-.51-19.11-38.95-27.36-56.27a65.615 65.615 0 01-5.47-17.33l-2.65-15.69-8.76 3.02c-15.4 5.3-31.81 7.14-47.98 5.13-6.77-.84-13.08-2.29-17-4.72-12.19-7.59-8.34-31.29-8.34-31.29z"/><path class="st21" d="M181.14 190.48l1.36 10.06s3.04 14.49-.87 17.28c-3.91 2.79-16.62-17.7-16.62-17.7l1.34-25.49 14.79 15.85z"/><path d="M165.91 182.9c3.23 8.69 10.91 14.04 16.37 16.11l-1.15-8.53-14.79-15.84-.43 8.26z" fill="#ee745a"/><path class="st21" d="M180.33 146.91c8.28-1.33 15.7 5.3 15.5 13.56-.09 3.59-.39 8.07-1.13 12.9-1.8 11.61-9.75 21.83-15 20.92-5.26-.91-18.48-10.93-16.15-27.45 1.43-10.2 8.09-18.53 16.78-19.93z"/><path class="st21" d="M167.19 168.81c-.44 2.55-2.5 4.33-4.58 3.97-2.09-.36-3.42-2.73-2.98-5.28.44-2.55 2.5-4.33 4.58-3.97 2.09.37 3.42 2.73 2.98 5.28z"/><path class="st18" d="M164.21 163.53s6.35 1.57 8.71-2.5c2.36-4.07 10.79-12.86 21.51-9.22 10.72 3.64-9.43-8.86-10.29-8.86-.86 0-11.15-.07-11.15-.07s-7.93 6.5-8.22 7.22c-.29.71-2.57 8.5-2.57 8.5l2.01 4.93z"/><path class="st15" d="M273.72 155.09l1.12 13.64 7.92-8.92 25.63-20.99-21.85 6.88s-10.76 5.23-11.25 5.92c-.5.7-1.57 3.47-1.57 3.47z"/><path class="st16" d="M262.11 149.23l46.28-10.41-34.67 16.27zM291.52 165.19l-14.27-7.11 31.14-19.26z"/><g><path class="st16" d="M268.32 162.67c2.14-.8 3.71-.98 3.73-.98l-.1-.99c-.07.01-1.72.19-3.97 1.04l.34.93zM245.48 243.29a40.32 40.32 0 005.02-5.49l.8.6a41 41 0 01-5.14 5.62l-.68-.73zm8.87-11.83c.49-1.03.94-2.1 1.34-3.18.45-1.23.85-2.51 1.19-3.81l.97.25c-.34 1.33-.75 2.65-1.22 3.91-.41 1.11-.87 2.21-1.37 3.26l-.91-.43zm4.03-21.81l1-.02c.06 2.71-.02 5.19-.25 7.59l-.99-.09c.22-2.37.3-4.81.24-7.48zm-1.42-14.95l.99-.14c.42 2.92.72 5.3.94 7.5l-.99.1c-.23-2.18-.53-4.55-.94-7.46zm-1.12-7.51c-.4-2.69-.52-5.23-.38-7.57l1 .06c-.14 2.27-.02 4.74.37 7.36l.01.06-.99.14-.01-.05zm1.25-15.06c1-2.45 2.46-4.59 4.33-6.36l.69.72a17.208 17.208 0 00-4.09 6.01l-.93-.37z"/></g></g></svg>