<?xml version="1.0" encoding="utf-8"?>
<!-- Generator: Adobe Illustrator 24.0.2, SVG Export Plug-In . SVG Version: 6.00 Build 0)  -->
<svg version="1.1" id="Layer_1" xmlns="http://www.w3.org/2000/svg" xmlns:xlink="http://www.w3.org/1999/xlink" x="0px" y="0px"
	 viewBox="0 0 184.5 141.72" style="enable-background:new 0 0 184.5 141.72;" xml:space="preserve">
<style type="text/css">
	.st0{fill:#F3F3F3;}
	.st1{fill:#E95770;}
	.st2{fill:#DAB3A6;}
	.st3{fill:#FFFFFF;stroke:#6F6F6E;stroke-miterlimit:10;}
	.st4{fill:#8B5990;}
	.st5{fill:#F8B23E;}
	.st6{fill:#F6B6A9;}
	.st7{fill:#E51B4D;}
	.st8{fill:#F7E4DC;}
	.st9{fill:#BAC4E5;}
	.st10{fill:#FFFFFF;}
	.st11{fill:#E20613;}
	.st12{fill:#FFFFFF;stroke:#6F6F6E;stroke-width:0.5;stroke-miterlimit:10;}
	.st13{fill:none;stroke:#6F6F6E;stroke-width:0.25;stroke-miterlimit:10;}
	.st14{fill:#FFFFFF;stroke:#6F6F6E;stroke-width:0.25;stroke-miterlimit:10;}
	.st15{fill:#E98B73;}
	.st16{fill:#263239;}
	.st17{fill:#592B5B;}
	.st18{fill:#833A5D;}
	.st19{fill:#575756;}
	.st20{fill:none;stroke:#6F6F6E;stroke-miterlimit:10;}
	.st21{fill:#F08C80;}
	.st22{fill:#ED968A;}
	.st23{opacity:0.1;fill:#E51B4D;}
	.st24{opacity:0.2;fill:#E51B4D;}
	.st25{opacity:0.2;}
	.st26{fill:#E9505B;}
	.st27{fill:#F8BC9E;}
	.st28{fill:#EC9A6E;}
	.st29{fill:#455A64;}
	.st30{fill:#ED7280;}
	.st31{opacity:0.9;fill:#263239;}
	.st32{fill:#37474F;}
	.st33{fill:#FBFBFB;}
	.st34{fill:#F8BBA7;}
	.st35{fill:#A56BAA;}
	.st36{fill:#F1997A;}
	.st37{fill:#B26668;}
	.st38{opacity:0.5;fill:#A56BAA;}
	.st39{opacity:0.15;fill:#E9505B;}
	.st40{opacity:0.45;fill:#FFFFFF;}
	.st41{fill-rule:evenodd;clip-rule:evenodd;fill:#FFFFFF;}
	.st42{opacity:0.45;}
	.st43{opacity:0.5;fill:#FFFFFF;stroke:#6F6F6E;stroke-width:0.5;stroke-miterlimit:10;}
	.st44{opacity:0.9;}
	.st45{opacity:0.85;}
	.st46{fill:#C9866A;}
	.st47{fill:#B06152;}
	.st48{fill:#F4A6A7;}
	.st49{fill:#F28F8F;}
	.st50{fill:#9B4B4E;}
	.st51{opacity:0.45;fill:#FFFFFF;stroke:#6F6F6E;stroke-width:0.5;stroke-miterlimit:10;}
	.st52{fill:#95C88B;}
	.st53{opacity:0.2;fill:#95C88B;}
	.st54{fill:#E5E7EA;}
	.st55{fill:#BDBABA;}
	.st56{fill:none;}
	.st57{fill:#A1AED1;}
	.st58{fill:#6F6F6E;}
	.st59{fill:#44B8B6;}
	.st60{fill:#CCAE2F;}
	.st61{fill:#E5C536;}
	.st62{fill:#84CBCE;}
	.st63{fill:#A4D7DF;}
</style>
<path class="st0" d="M160.59,133.14c5.67-12.35,10.78-25.41,13.02-39.56c2.24-14.15,1.37-29.61-4.3-41.97
	c-5.66-12.36-16.64-20.85-27.45-18.84c-9.23,1.72-17.97,10.52-27,7.48c-9.33-3.14-13.8-17.17-21.66-24.53
	C79.32,2.73,57.55,12.21,48.92,30.14c-5.8,12.05-7.12,28.05-15.29,37.37c-6.18,7.05-15.35,8.97-20.44,17.41
	c-4.33,7.17-4.51,17.72-1.61,26.06c2.9,8.33,9.01,17.47,15.09,21.85L160.59,133.14z"/>
<path class="st1" d="M89.18,85.36H86.8c-0.18,0-0.33-0.18-0.33-0.41v-0.37c0-0.23,0.15-0.41,0.33-0.41h2.38
	c0.18,0,0.33,0.18,0.33,0.41v0.37C89.51,85.18,89.36,85.36,89.18,85.36z M86.8,84.34c-0.11,0-0.2,0.11-0.2,0.25v0.37
	c0,0.14,0.09,0.25,0.2,0.25h2.38c0.11,0,0.2-0.11,0.2-0.25v-0.37c0-0.14-0.09-0.25-0.2-0.25H86.8z"/>
<path class="st1" d="M89.18,88.25H86.8c-0.18,0-0.33-0.18-0.33-0.41v-0.37c0-0.23,0.15-0.41,0.33-0.41h2.38
	c0.18,0,0.33,0.18,0.33,0.41v0.37C89.51,88.07,89.36,88.25,89.18,88.25z M86.8,87.23c-0.11,0-0.2,0.11-0.2,0.25v0.37
	c0,0.14,0.09,0.25,0.2,0.25h2.38c0.11,0,0.2-0.11,0.2-0.25v-0.37c0-0.14-0.09-0.25-0.2-0.25H86.8z"/>
<rect x="110.75" y="72.7" class="st2" width="2.76" height="0.16"/>
<rect x="98.71" y="72.7" class="st2" width="10.29" height="0.16"/>
<rect x="106.8" y="74.87" class="st2" width="6.72" height="0.16"/>
<rect x="103.3" y="74.87" class="st2" width="2.56" height="0.16"/>
<rect x="98.71" y="74.87" class="st2" width="3.57" height="0.16"/>
<rect x="108.41" y="77.04" class="st2" width="5.11" height="0.16"/>
<rect x="98.71" y="77.04" class="st2" width="7.64" height="0.16"/>
<rect x="108.66" y="82.31" class="st2" width="4.49" height="0.16"/>
<rect x="100.06" y="82.31" class="st2" width="6.74" height="0.16"/>
<rect x="105.29" y="85.2" class="st2" width="7.86" height="0.16"/>
<rect x="95.39" y="85.2" class="st2" width="8.81" height="0.16"/>
<rect x="110.75" y="88.09" class="st2" width="2.4" height="0.16"/>
<rect x="102.73" y="88.09" class="st2" width="6.27" height="0.16"/>
<path class="st3" d="M138.9,111.28h-36.57c-3.65,0-6.61-2.96-6.61-6.61V78.03c0-3.65,2.96-6.61,6.61-6.61h36.57
	c3.65,0,6.61,2.96,6.61,6.61v26.64C145.52,108.32,142.55,111.28,138.9,111.28z"/>
<path class="st0" d="M90.13,111.32c0.03,1.15,0.8,2.07,1.73,2.07h57.52c0.93,0,1.7-0.93,1.73-2.07H90.13z"/>
<rect x="96.88" y="111.2" class="st4" width="47.47" height="0.16"/>
<ellipse class="st5" cx="99.23" cy="74.15" rx="0.21" ry="0.26"/>
<rect x="115.44" y="79.66" transform="matrix(-1 -1.224647e-16 1.224647e-16 -1 239.6637 174.6062)" class="st6" width="8.78" height="15.28"/>
<path class="st7" d="M143.48,99.91c-0.46-1.55-0.75-2.53-0.79-2.65c-0.97-2.49-3.03-4.1-5.27-4.1c-3.22,0-5.84,3.24-5.84,7.22
	c0,0.52,0.04,1.03,0.13,1.53l-0.05,0.02l0.29,1l1.74,6.19h6.73c1.69,0,3.06-1.37,3.06-3.06V99.91z"/>
<path class="st7" d="M110.4,99.65c0-3.58-2.62-6.49-5.84-6.49c-2.23,0-4.3,1.45-5.27,3.69c-0.06,0.15-0.67,1.99-1.55,4.68v5.97
	h10.54l1.74-5.57l0.29-0.9l-0.05-0.01C110.36,100.58,110.4,100.12,110.4,99.65z"/>
<path class="st7" d="M141.21,108.71H99.82c-0.76,0-1.39-0.6-1.42-1.37l-0.28-8.01c0,0-0.72-5.91,5.42-7.96l0.28-0.08v0l11.58-2.78
	c2.21,2.5,6.56,2.42,8.81,0l11.63,2.78v0l0.28,0.08c6.14,2.05,5.42,7.96,5.42,7.96L141.21,108.71z"/>
<polygon class="st8" points="137.1,109.13 136.96,109.11 137.86,99.13 137.99,99.15 "/>
<polygon class="st8" points="104.88,109.13 103.99,99.15 104.12,99.13 105.02,109.11 "/>
<path class="st8" d="M120.9,92.48c-2.32,0-4.55-1.01-6.17-2.82l0.09-0.12c1.73,1.93,4.16,2.94,6.65,2.76
	c2.16-0.15,4.08-1.2,5.26-2.86l0.1,0.11c-1.2,1.69-3.16,2.75-5.35,2.91C121.28,92.47,121.09,92.48,120.9,92.48z"/>
<ellipse class="st9" cx="121" cy="103.77" rx="2.31" ry="2.86"/>
<g>
	<path class="st10" d="M121.35,102.68h-1.54c-0.13,0-0.23,0.15-0.23,0.34v1.51c0,0.18,0.1,0.34,0.23,0.34h1.54
		c0.13,0,0.23-0.15,0.23-0.34v-1.51C121.58,102.83,121.48,102.68,121.35,102.68z"/>
	<path class="st10" d="M122.17,103.01l-0.29,0.35c-0.03,0.04-0.05,0.1-0.05,0.16v0.49c0,0.06,0.02,0.12,0.05,0.16l0.29,0.35
		c0.11,0.14,0.31,0.04,0.31-0.16v-1.2C122.48,102.97,122.29,102.87,122.17,103.01z"/>
</g>
<ellipse class="st9" cx="112.61" cy="103.77" rx="2.31" ry="2.86"/>
<g>
	<path class="st10" d="M113.48,103.85h-0.18c0,0.47-0.31,0.86-0.7,0.86c-0.38,0-0.7-0.39-0.7-0.86h-0.18c0,0.56,0.35,1.02,0.79,1.07
		v0.3h-0.36v0.22h0.9v-0.22h-0.36v-0.3C113.14,104.87,113.48,104.41,113.48,103.85z"/>
	<path class="st10" d="M112.61,104.51L112.61,104.51c-0.31,0-0.56-0.25-0.56-0.56v-1.48c0-0.31,0.25-0.56,0.56-0.56l0,0
		c0.31,0,0.56,0.25,0.56,0.56v1.48C113.17,104.26,112.92,104.51,112.61,104.51z"/>
</g>
<ellipse class="st11" cx="129.39" cy="103.77" rx="2.31" ry="2.86"/>
<path class="st10" d="M128.98,102.21l0.09,1.06l-0.33,0.14c0.14,0.54,0.43,0.92,0.87,1.17l0.16-0.41l0.86,0.19
	c0,0-0.03,0.84-0.51,0.98c-0.64,0.11-1.18-0.41-1.45-0.84c-0.28-0.43-0.72-1.36-0.46-1.92C128.43,102.2,128.98,102.21,128.98,102.21
	z"/>
<path class="st6" d="M79.12,83.1c0,0-0.79,0.28-0.81,1.07c-0.02,0.79,0.63,1.14,0.97,1.29C79.61,85.61,80,83.28,79.12,83.1z"/>
<path class="st6" d="M87.64,86.02c0,0-0.75-2.58-0.1-3.66c0.65-1.07,1.28-0.89,1.47-0.67l0.19,1.59c0,0,0.63,1.4,0.65,1.61
	c0.02,0.2,0.51,3.66,0.51,3.66s0.26,6.66,0.33,7.45c0.07,0.79,0,8.58,0,8.58l-6.7,1.85l0.89-6.95c0,0-2.75-2.7-2.99-4.74l-2.65-0.96
	c-0.79-0.32-0.88-1.64,0-2.05c-1.24,0.02-1.16-1.83-0.11-2.35c-1.15-0.14-1.21-2.11,0.2-2.6L87.64,86.02z"/>
<polygon class="st12" points="87.05,93.69 79.6,93.69 78.84,79.04 87.81,79.04 "/>
<polygon class="st13" points="87.42,88.85 87.75,82.4 78.9,82.4 79.23,88.85 "/>
<polygon class="st14" points="78.74,77.86 78.56,79.04 88.09,79.04 87.91,77.86 "/>
<polygon class="st14" points="86.99,76.45 86.54,76.45 81.22,76.45 79.64,76.45 79.39,78.08 81.21,78.08 86.54,78.08 87.23,78.08 
	"/>
<path class="st10" d="M84.45,88c-1.06,0-1.92-1.07-1.92-2.37c0-1.31,0.86-2.37,1.92-2.37c1.06,0,1.92,1.07,1.92,2.37
	C86.36,86.93,85.5,88,84.45,88z M84.45,83.41c-0.99,0-1.79,0.99-1.79,2.21c0,1.22,0.8,2.21,1.79,2.21c0.98,0,1.79-0.99,1.79-2.21
	C86.23,84.4,85.43,83.41,84.45,83.41z"/>
<path class="st6" d="M88.99,86.05c0.32-0.02,0.64-0.07,0.96-0.13c-0.05-0.54-0.09-0.97-0.1-1.03c-0.02-0.2-0.65-1.61-0.65-1.61
	l-0.19-1.59c-0.19-0.22-0.82-0.4-1.47,0.67c-0.62,1.01,0.02,3.37,0.09,3.63C88.07,86.13,88.54,86.08,88.99,86.05z"/>
<path class="st15" d="M88.29,86.27c-0.39,0-0.68-0.14-0.69-0.15l0.07-0.2c0,0,0.33,0.16,0.73,0.13l0.01,0.22
	C88.37,86.26,88.33,86.27,88.29,86.27z"/>
<polygon class="st15" points="88.11,91.11 87.42,90.05 87.56,89.91 88.24,90.97 "/>
<path class="st15" d="M88.72,84c-0.33,0-0.48-0.64-0.58-1.2c-0.12-0.67,0.8-1.19,0.84-1.21l0.07,0.2c-0.23,0.13-0.81,0.55-0.74,0.96
	c0.16,0.91,0.33,1.03,0.42,1.03c0.14-0.01,0.32-0.34,0.4-0.54l0.16,0.09c-0.02,0.07-0.25,0.65-0.55,0.67C88.73,84,88.72,84,88.72,84
	z"/>
<path class="st15" d="M86.75,96.45c-0.99-0.62-0.7-2.33-0.69-2.4l0.17,0.05c0,0.02-0.27,1.61,0.6,2.16L86.75,96.45z"/>
<path class="st15" d="M81.95,94.8l-0.13-0.14c0.01-0.02,0.28-0.41,0.62-0.52l0.04,0.21C82.2,94.45,81.95,94.8,81.95,94.8z"/>
<path class="st15" d="M82.25,95.79l-0.16-0.1c0.02-0.05,0.48-1.11,1.11-1.46l0.07,0.2C82.7,94.75,82.25,95.78,82.25,95.79z"/>
<polygon class="st15" points="79.14,89.48 79.11,89.26 79.36,89.22 79.38,89.44 "/>
<polygon class="st15" points="79.26,91.83 79.21,91.62 79.47,91.54 79.51,91.75 "/>
<path class="st6" d="M65.83,67.95l0.5,17.36c-4.44,3.67-12.61,3.78-16.88,0l1.38-18.83L65.83,67.95z"/>
<path class="st10" d="M69.22,65.67c-0.04,0-0.08,0-0.11,0c-1.41-0.11-2.45-2.18-2.33-4.63v0c0.12-2.45,1.36-4.35,2.77-4.24
	c0.69,0.05,1.31,0.57,1.75,1.45c0.43,0.87,0.64,2,0.58,3.18C71.77,63.81,70.58,65.67,69.22,65.67z M66.95,61.05
	c-0.11,2.33,0.86,4.3,2.17,4.4c1.31,0.1,2.47-1.71,2.59-4.04c0.06-1.13-0.14-2.22-0.56-3.05c-0.41-0.82-0.98-1.3-1.61-1.35
	C68.23,56.92,67.07,58.73,66.95,61.05L66.95,61.05z"/>
<path class="st6" d="M51.89,49.35l18.98,2.28c0,0-1.06,13.41-1.66,19.71c-0.6,6.3-3.7,6.9-3.7,6.9c-3.84,1.84-14.17,0.54-15.06-7.04
	L51.89,49.35z"/>
<path class="st15" d="M63.54,64.09c-0.51-1.55-0.48-2.85,0.08-3.48c0.35-0.39,0.86-0.43,1.37-0.1l-0.08,0.19
	c-0.45-0.29-0.87-0.27-1.17,0.07c-0.39,0.44-0.6,1.51-0.04,3.23L63.54,64.09z"/>
<path class="st15" d="M64.56,64.51l-0.16-0.1c0.18-0.46,0.21-0.84,0.07-1.13c-0.29-0.6-1.18-0.65-1.19-0.65l0.01-0.22
	c0.04,0,1,0.06,1.34,0.76C64.8,63.53,64.78,63.98,64.56,64.51z"/>
<path class="st16" d="M51.28,49.04c-0.53-4.5,1.57-6.49,3.96-6.51c0,0,13-1.82,14.66-1.54c2.46,0.41,4.18,3.21,3.85,6.25
	c-0.2,1.83-1.09,3.32-2.31,4.14c-0.32,0.25-0.55,0.35-0.55,0.35c-0.27,0.11-0.55,0.19-0.82,0.24c-0.05,0.01-0.11,0.02-0.17,0.03
	c-0.02,0-0.05,0.01-0.07,0.01c-0.01,0-0.01,0-0.02,0c-0.34,0.05-0.67,0.07-1.02,0.07l-1.32,12.05c-0.16,1.42-0.27,2.56-1.51,2.35
	c0,0-0.02-4.11-0.02-4.11c0.06-0.8,0.06-2.11-0.48-2.66c-0.7-0.73-2.1-0.57-2.59,0.4c-1.11,2.03,0.6,6.23,0.6,6.23
	s-1.94,5-3.94,6.53c-3.11,1.82-7.56,1.3-9.08-1.36C49.57,61.48,47.73,51.93,51.28,49.04z"/>
<polygon class="st10" points="71.9,61.28 65.96,60.78 65.97,60.56 71.91,61.06 "/>
<path class="st4" d="M68.8,52.16c-0.03,0-2.66-0.07-5.24-0.39l0.01-0.16C66.15,51.93,68.77,52,68.8,52L68.8,52.16z"/>
<path class="st4" d="M67.86,50.76c-0.36,0-0.74-0.02-1.14-0.07l0.01-0.16c2.1,0.26,3.66-0.17,4.64-1.28
	c1.03-1.15,1.03-2.66,1.03-2.67l0.13,0c0,0.06-0.01,1.59-1.08,2.79C70.65,50.29,69.43,50.76,67.86,50.76z"/>
<path class="st16" d="M67.53,63.72c-0.02,0.67,0.18,1.64,0.92,1.75c0.62,0.13,0.88-0.48,1.33-0.28c0.74,4.36-0.17,13.11-3.71,12.82
	l-0.1-11.53L67.53,63.72z"/>
<polygon class="st10" points="90.55,103.7 90.74,98.97 81.06,98.49 81,103.05 "/>
<polygon class="st16" points="90.67,129.76 90.87,103.14 79.92,101.76 77.73,129.76 "/>
<path class="st17" d="M81.64,129.76l1.64-29.03c0,0,0.7-9.36-5.95-11.7l-11-3.72c-6.97,0.15-14.71-0.2-17.34,0l-10.62,4.54
	c-2.78,1.3-4.28,3.59-4.84,7.08v8.99l1.49,23.83H81.64z"/>
<path class="st16" d="M81.64,129.76l1.64-29.03c0,0,0.7-9.36-5.95-11.7l-11-3.72c-6.97,0.15-14.71-0.2-17.34,0l-10.62,4.54
	c-2.78,1.3-4.28,3.59-4.84,7.08v8.99l1.49,23.83H81.64z"/>
<polygon class="st10" points="49.7,80.72 66.38,80.72 67.35,85.64 48.02,85.64 "/>
<path class="st16" d="M67.43,103.43l7.49,26.33h15.37c-1.61-8.07-6.6-33.11-6.69-33.52c-0.08-0.36-0.17-0.7-0.28-1.05l0-0.02l0,0
	c-0.91-2.81-2.87-5.09-5.5-6c-4.55-1.58-9.39,1.52-10.8,6.91C66.35,98.63,66.55,101.23,67.43,103.43L67.43,103.43z"/>
<path class="st4" d="M76.02,129.48l-8.09-24.04c-0.97-4.43-0.73-8.1,0.7-10.92c1.98-3.89,5.6-4.76,5.64-4.76l0.02,0.16
	c-0.04,0.01-3.6,0.86-5.55,4.69c-1.41,2.78-1.65,6.4-0.69,10.78l8.09,24.03L76.02,129.48z"/>
<polygon class="st4" points="89.12,124.23 83.66,96.85 83.78,96.81 89.25,124.19 "/>
<path class="st7" d="M75.4,129.76l-3.49-27.88c0-2.59-1.71-4.71-3.81-4.71H34.44c-0.31,0-0.61,0.05-0.9,0.14v27.77l0.01,4.68H75.4z"
	/>
<path class="st18" d="M71.13,129.57c-0.5-3.54-0.92-7.14-1.32-10.62c-0.72-6.19-1.46-12.59-2.7-18.98c-0.31-1.51-1.5-2.53-3.19-2.72
	l0.01-0.16c1.75,0.19,2.99,1.26,3.31,2.84c1.24,6.4,1.98,12.81,2.7,19c0.4,3.48,0.82,7.08,1.32,10.61L71.13,129.57z"/>
<rect x="31.98" y="129.25" class="st19" width="126" height="1.11"/>
<path class="st20" d="M140.03,109.12h-38.83c-1.91,0-3.45-1.55-3.45-3.45V77.03c0-1.91,1.55-3.45,3.45-3.45h38.83
	c1.91,0,3.45,1.55,3.45,3.45v28.63C143.48,107.57,141.94,109.12,140.03,109.12z"/>
<path class="st4" d="M120.62,72.96c-0.25,0-0.45-0.25-0.45-0.55c0-0.3,0.2-0.55,0.45-0.55c0.25,0,0.45,0.25,0.45,0.55
	C121.06,72.71,120.86,72.96,120.62,72.96z M120.62,72.02c-0.17,0-0.31,0.17-0.31,0.39c0,0.21,0.14,0.39,0.31,0.39
	c0.17,0,0.31-0.17,0.31-0.39C120.93,72.19,120.79,72.02,120.62,72.02z"/>
<path class="st21" d="M124.22,86.83c-6.04,2.85-8.78,0.37-8.78,0.37V80h8.78V86.83z"/>
<path class="st16" d="M119.31,85.8l0.38,0.02c4.18,0.58,7.89-2.26,8.38-7.56l0.51-5.54c0.48-5.3-2.54-10.12-6.71-10.7l-0.38-0.05
	c-4.18-0.58-7.99,3.28-8.47,8.58l-0.51,5.54C112.02,81.39,115.14,85.21,119.31,85.8z"/>
<path class="st16" d="M114.55,72.05c0,0-0.34-0.31-1.08-0.06l-0.09-2.81c-0.14-1.29,0.34-2.05,0.78-2.2c0,0-0.51-0.3-0.96-2.03
	c-0.44-1.73,0.88-6.3,0.88-6.3c5.58,1.72,11.22,3.43,13.16,5.85c1.45,1.3,1.71,2.78,1.79,4.57c0.72,0.26,1.25,1.25,1.04,2.19
	l-0.8,3.1c-1.46-0.36-2.27,0.69-2.5,3.69c-1.23-0.17-0.66-3.55-0.66-3.55l0.47-5.07l-11.54-1.61L114.55,72.05z"/>
<g>
	<path class="st22" d="M116.81,76.13c-0.13,1.47-1.06,2.56-2.09,2.41c-1.93,0.84-3.35-6.68-0.53-6.47
		C115.22,72.21,116.94,74.65,116.81,76.13z"/>
</g>
<path class="st6" d="M118.19,87.57L118.19,87.57c3.67,0.51,7.9-2.65,8.31-7.19l0.7-7.69c0.29-3.17-1.57-6.06-4.14-6.42l-3.46-0.48
	c-2.87-0.4-5.11-1.82-5.43,1.73l-1,11C112.75,83.05,114.88,87.11,118.19,87.57z"/>
<path class="st16" d="M122.87,76.05c-0.03,0.31,0.15,0.59,0.4,0.63s0.48-0.19,0.51-0.5c0.03-0.31-0.15-0.59-0.4-0.63
	C123.13,75.52,122.9,75.74,122.87,76.05z"/>
<path class="st16" d="M116.3,75.13c-0.03,0.31,0.15,0.59,0.4,0.63c0.25,0.04,0.48-0.19,0.51-0.5c0.03-0.31-0.15-0.59-0.4-0.63
	C116.56,74.6,116.33,74.82,116.3,75.13z"/>
<path class="st16" d="M122.41,74.28c-0.03,0.29,2.1,0.59,2.13,0.3c0.03-0.29-0.43-0.6-1.02-0.68
	C122.93,73.81,122.43,73.99,122.41,74.28z"/>
<path class="st16" d="M115.86,73.36c-0.03,0.29,2.09,0.59,2.12,0.3c0.03-0.29-0.43-0.59-1.01-0.68
	C116.38,72.9,115.89,73.07,115.86,73.36z"/>
<g>
	<path class="st15" d="M119.93,78.87l-0.02-0.22c0.21-0.02,0.36-0.35,0.36-0.35l0.01-0.02l0.02-0.02c0.18-0.14,0.59-0.28,0.86,0.21
		l-0.15,0.12c-0.22-0.39-0.53-0.21-0.61-0.16C120.37,78.52,120.2,78.84,119.93,78.87z"/>
	<path class="st15" d="M119.57,78.81c-0.26-0.1-0.37-0.46-0.4-0.56c-0.07-0.08-0.34-0.33-0.62-0.01l-0.12-0.16
		c0.35-0.4,0.73-0.15,0.88,0.04l0.02,0.02l0.01,0.03c0,0,0.09,0.36,0.29,0.45L119.57,78.81z"/>
	<polygon class="st15" points="119.38,83.9 119.2,83.88 119.29,82.87 119.47,82.9 	"/>
	<path class="st10" d="M121.21,80c-0.16,0.97-0.9,1.65-1.71,1.54c-0.81-0.11-1.41-0.98-1.39-1.97L121.21,80z"/>
</g>
<g>
	<path class="st6" d="M125.04,77.28c-0.13,1.47,0.71,2.8,1.9,2.97c2.02,1.39,5.08-5.5,1.85-6.14
		C127.59,73.94,125.17,75.8,125.04,77.28z"/>
	<g>
		<path class="st15" d="M127.51,78.83c-0.02,0-0.04,0-0.07,0l0.01-0.22c1.24,0.06,1.75-1.73,1.79-2.39
			c0.02-0.29-0.08-0.55-0.27-0.71c-0.24-0.2-0.58-0.2-0.92,0.01l-0.08-0.2c0.39-0.24,0.8-0.24,1.1,0.01
			c0.24,0.2,0.37,0.54,0.34,0.91C129.36,76.94,128.83,78.83,127.51,78.83z"/>
		<path class="st15" d="M128.68,78c-0.02-0.03-0.39-0.61-1.04-0.29l-0.07-0.2c0.77-0.39,1.24,0.35,1.24,0.36L128.68,78z"/>
	</g>
</g>
<path class="st10" d="M124.35,72.08c-1.46-0.2-2.81,0.92-3.24,2.59c-0.52-0.61-1.26-0.71-1.94-0.26c-0.12-1.75-1.22-3.22-2.69-3.43
	c-0.81-0.11-1.6,0.17-2.24,0.8c-0.64,0.63-1.04,1.52-1.13,2.52c-0.09,1,0.14,1.98,0.64,2.77c0.51,0.79,1.23,1.28,2.04,1.39
	c0.12,0.02,0.23,0.02,0.35,0.02c0.69,0,1.35-0.28,1.89-0.82c0.64-0.63,1.04-1.52,1.13-2.52c0.02-0.19,0.02-0.37,0.01-0.55
	c0.67-0.48,1.39-0.38,1.89,0.26c-0.04,0.18-0.07,0.36-0.09,0.54c-0.19,2.06,1.02,3.93,2.68,4.16c0.12,0.02,0.23,0.02,0.34,0.02
	c1.53,0,2.85-1.42,3.02-3.34C127.22,74.18,126.01,72.31,124.35,72.08z M119.03,75.12c-0.09,0.96-0.47,1.81-1.08,2.41
	c-0.61,0.6-1.37,0.87-2.14,0.76c-0.77-0.11-1.46-0.58-1.95-1.33c-0.48-0.75-0.7-1.69-0.62-2.65c0.09-0.96,0.47-1.81,1.08-2.41
	c0.52-0.51,1.15-0.78,1.81-0.78c0.11,0,0.22,0.01,0.33,0.02C118.06,71.36,119.21,73.15,119.03,75.12z M126.9,76.22
	c-0.18,1.97-1.62,3.4-3.22,3.17c-1.59-0.22-2.75-2.01-2.57-3.98c0.18-1.97,1.62-3.39,3.22-3.17
	C125.93,72.46,127.08,74.25,126.9,76.22z"/>
<g>
	<g>
		<path class="st16" d="M118.16,63.83c-0.61,0-1.19,0.07-1.72,0.18c-1.28-0.5-2.3-2.11-2.3-2.11c-0.87,3.03-0.48,4.24,0.2,4.67
			c0.63,0.71,2.11,1.2,3.82,1.2c2.29,0,4.15-0.88,4.15-1.97C122.31,64.71,120.46,63.83,118.16,63.83z"/>
	</g>
</g>
</svg>
