<?xml version="1.0" encoding="utf-8"?>
<!-- Generator: Adobe Illustrator 24.0.2, SVG Export Plug-In . SVG Version: 6.00 Build 0)  -->
<svg version="1.1" id="Layer_1" xmlns="http://www.w3.org/2000/svg" xmlns:xlink="http://www.w3.org/1999/xlink" x="0px" y="0px"
	 viewBox="0 0 184.5 141.72" style="enable-background:new 0 0 184.5 141.72;" xml:space="preserve">
<style type="text/css">
	.st0{fill:#F3F3F3;}
	.st1{fill:#E95770;}
	.st2{fill:#DAB3A6;}
	.st3{fill:#FFFFFF;stroke:#6F6F6E;stroke-miterlimit:10;}
	.st4{fill:#8B5990;}
	.st5{fill:#F8B23E;}
	.st6{fill:#F6B6A9;}
	.st7{fill:#E51B4D;}
	.st8{fill:#F7E4DC;}
	.st9{fill:#BAC4E5;}
	.st10{fill:#FFFFFF;}
	.st11{fill:#E20613;}
	.st12{fill:#FFFFFF;stroke:#6F6F6E;stroke-width:0.5;stroke-miterlimit:10;}
	.st13{fill:none;stroke:#6F6F6E;stroke-width:0.25;stroke-miterlimit:10;}
	.st14{fill:#FFFFFF;stroke:#6F6F6E;stroke-width:0.25;stroke-miterlimit:10;}
	.st15{fill:#E98B73;}
	.st16{fill:#263239;}
	.st17{fill:#592B5B;}
	.st18{fill:#833A5D;}
	.st19{fill:#575756;}
	.st20{fill:none;stroke:#6F6F6E;stroke-miterlimit:10;}
	.st21{fill:#F08C80;}
	.st22{fill:#ED968A;}
	.st23{opacity:0.1;fill:#E51B4D;}
	.st24{opacity:0.2;fill:#E51B4D;}
	.st25{opacity:0.2;}
	.st26{fill:#E9505B;}
	.st27{fill:#F8BC9E;}
	.st28{fill:#EC9A6E;}
	.st29{fill:#455A64;}
	.st30{fill:#ED7280;}
	.st31{opacity:0.9;fill:#263239;}
	.st32{fill:#37474F;}
	.st33{fill:#FBFBFB;}
	.st34{fill:#F8BBA7;}
	.st35{fill:#A56BAA;}
	.st36{fill:#F1997A;}
	.st37{fill:#B26668;}
	.st38{opacity:0.5;fill:#A56BAA;}
	.st39{opacity:0.15;fill:#E9505B;}
	.st40{opacity:0.45;fill:#FFFFFF;}
	.st41{fill-rule:evenodd;clip-rule:evenodd;fill:#FFFFFF;}
	.st42{opacity:0.45;}
	.st43{opacity:0.5;fill:#FFFFFF;stroke:#6F6F6E;stroke-width:0.5;stroke-miterlimit:10;}
	.st44{opacity:0.9;}
	.st45{opacity:0.85;}
	.st46{fill:#C9866A;}
	.st47{fill:#B06152;}
	.st48{fill:#F4A6A7;}
	.st49{fill:#F28F8F;}
	.st50{fill:#9B4B4E;}
	.st51{opacity:0.45;fill:#FFFFFF;stroke:#6F6F6E;stroke-width:0.5;stroke-miterlimit:10;}
	.st52{fill:#95C88B;}
	.st53{opacity:0.2;fill:#95C88B;}
	.st54{fill:#E5E7EA;}
	.st55{fill:#BDBABA;}
	.st56{fill:none;}
	.st57{fill:#A1AED1;}
	.st58{fill:#6F6F6E;}
	.st59{fill:#44B8B6;}
	.st60{fill:#CCAE2F;}
	.st61{fill:#E5C536;}
	.st62{fill:#84CBCE;}
	.st63{fill:#A4D7DF;}
</style>
<path class="st0" d="M162.91,135.09c5.86-13.04,11.14-26.83,13.45-41.77c2.31-14.94,1.41-31.27-4.44-44.32
	c-5.85-13.05-17.19-22.01-28.36-19.89c-9.53,1.81-18.57,11.11-27.89,7.9c-9.64-3.32-14.26-18.13-22.38-25.9
	C78.96-2.6,56.46,7.41,47.55,26.34c-5.99,12.72-7.35,29.62-15.8,39.45c-6.39,7.44-15.85,9.47-21.11,18.38
	c-4.47,7.57-4.66,18.71-1.67,27.51c2.99,8.8,9.31,18.45,15.59,23.07L162.91,135.09z"/>
<path class="st30" d="M27.11,100.56l-0.05-0.02l-1.39-0.73c-0.38-0.19-0.63-0.53-0.69-0.92c-0.01-0.06-0.01-0.12-0.01-0.17v-3.16
	c0-0.42,0.18-0.89,0.47-1.29l0.02,0.01l1.65,0.85c-0.25,0.4-0.42,0.95-0.44,1.81v2.9c0,0.11,0.03,0.21,0.06,0.29
	C26.82,100.39,27.04,100.52,27.11,100.56z"/>
<path class="st31" d="M27.11,100.56c0.01,0.01,0.02,0.01,0.02,0.01L27.11,100.56z"/>
<g id="XMLID_5864_">
	<g>
		<path class="st32" d="M104.9,128.64c-0.24-0.03-0.24,0.65-0.16,0.94c0.08,0.29,1.04,1.29,2.8,1.68c1.76,0.39,5.23,0.05,6.28,0.04
			c1.05-0.01,2.84,0.51,3.88,0.68c1.04,0.17,2.93-0.11,3.57-0.64c0.25-0.21,0.28-0.52,0.28-0.8c0-0.65-0.06-0.78-0.14-0.78
			L104.9,128.64z"/>
		<g id="XMLID_5866_">
			<g id="XMLID_5867_">
				<path id="XMLID_5868_" class="st29" d="M121.18,127.48c0.03,0.13,0.05,0.26,0.07,0.39c0.1,0.64,0.22,1.69,0.1,2.34
					c-0.23,0.48-0.83,0.72-1.3,0.84c-1.25,0.32-2.2,0.23-3.56-0.06c-0.82-0.17-1.7-0.36-2.69-0.34c-1.08,0.03-3.59,0.26-4.67,0.13
					c-0.92-0.11-1.82-0.24-2.66-0.61c-0.71-0.31-1.15-0.72-1.57-1.41c-0.01-1.26,0.46-1.84,1.22-2.21c0.8-0.4,2.04-0.47,2.94-0.55
					c1.23-0.11,2.41-0.17,3.32-0.2c0.62-0.02,1.22-0.05,1.78-0.31c0.27-0.12,0.47-0.25,0.6-0.49c0.16-0.29,0.17-0.73,0.46-0.75
					c0,0,4.77-0.04,5.2,0.01c0.5,0.06,0.52,1.67,0.57,1.98c0.04,0.25,0.04,0.51,0.1,0.75C121.11,127.16,121.14,127.32,121.18,127.48
					z"/>
			</g>
		</g>
		<path class="st33" d="M111.07,125.71c-0.07-0.04-0.14-0.07-0.22-0.08c-0.41-0.07-0.74,0.3-0.93,0.59
			c-0.12,0.18-0.18,0.37-0.24,0.57c-0.08,0.24-0.12,0.5-0.04,0.75c0.02,0.06,0.07,0.14,0.14,0.12c0.06-0.01,0.08-0.09,0.09-0.14
			c0.05-0.35,0.17-0.69,0.35-1c0.08-0.14,0.14-0.26,0.27-0.36c0.12-0.1,0.31-0.25,0.46-0.29c0.06-0.02,0.28-0.02,0.28-0.02
			c-0.01-0.02-0.07-0.08-0.09-0.1C111.11,125.74,111.09,125.72,111.07,125.71z"/>
		<path class="st33" d="M112.78,125.65c-0.19-0.02-0.4,0.02-0.56,0.13c-0.19,0.13-0.31,0.31-0.39,0.5c-0.17,0.37-0.26,0.93-0.03,1.3
			c0.07,0.12,0.19,0.06,0.23-0.04c0.05-0.12,0.04-0.28,0.06-0.4c0.05-0.29,0.09-0.53,0.22-0.8c0.05-0.11,0.13-0.21,0.21-0.3
			c0.05-0.06,0.16-0.17,0.24-0.21c0.04-0.02,0.07-0.03,0.11-0.04l0.13-0.01c0-0.05-0.08-0.09-0.13-0.1
			C112.84,125.66,112.81,125.65,112.78,125.65z"/>
		<path class="st33" d="M114.22,125.27c-0.14,0.04-0.27,0.11-0.36,0.21c-0.09,0.1-0.2,0.25-0.24,0.37
			c-0.09,0.27-0.12,0.52-0.13,0.81c-0.01,0.2,0.02,0.41,0.13,0.59c0.04,0.07,0.13,0.14,0.21,0.11c0.09-0.03,0.08-0.16,0.09-0.23
			c0.02-0.13,0.01-0.28,0.02-0.41c0.02-0.5,0.13-0.81,0.41-1.24c0.09-0.13,0.16-0.2,0.16-0.2c-0.01-0.04-0.06-0.04-0.1-0.04
			C114.35,125.24,114.28,125.25,114.22,125.27z"/>
	</g>
	<path id="XMLID_5865_" class="st34" d="M121.24,120.23c0,0-0.52,3.35-0.69,4.3c-0.1,0.54-0.71,1.02-2.49,0.99
		c-1.25-0.02-2.7-0.37-2.86-0.96l-0.2-5.08L121.24,120.23z"/>
</g>
<g>
	<path class="st34" d="M141.99,117c-0.61-0.92-1.72-3.57-2.47-6.19l-5.67,2.34c0,0,3.62,5.99,4.03,6.54
		C138.54,120.61,141.99,117,141.99,117z"/>
	<g>
		<path class="st29" d="M143.73,118.81c-0.01-0.05-0.02-0.11-0.03-0.16c-0.12-0.47-0.53-0.81-0.95-1.09
			c-0.42-0.28-0.53-0.48-0.84-0.86c-0.14-0.17-0.3-0.44-0.52-0.51c-0.14-0.05-0.59-0.01-0.74,0.01c-0.71,0.12-1.39,0.4-1.98,0.8
			c-0.27,0.19-0.58,0.42-1.05,0.97c-0.21,0.25-0.39,0.55-0.4,0.89c0,0.19,0.09,0.38,0.47,1.06c0.22,0.4,0.5,1.12,0.52,1.57
			c0.04,0.71-0.01,0.95-0.04,1.66c-0.02,1-0.16,0.99-0.16,0.99s-1.81-0.4-3.1,0.22c-1.17,0.56-0.84,1.56-0.84,1.56
			s1.37,0.91,3.03,1.25c0.01,0.02,0.01,0.03,0.01,0.05c0,0,0.74,0.79,1.77,0.47c0.07-0.03,0.14-0.05,0.2-0.08
			c1.13-0.51,3.93-1.85,3.9-2.02c-0.03-0.15,0.01-0.35,0.02-0.51c0.03-0.39,0.06-0.79,0.09-1.18c0.03-0.36,0-0.78,0.1-1.13
			c0.09-0.31,0.14-0.61,0.19-0.93c0.1-0.79,0.21-1.58,0.31-2.37C143.72,119.26,143.75,119.03,143.73,118.81z"/>
		<path id="XMLID_5863_" d="M144.25,119.09c0.5,0.2,0.3,1.49-0.08,2.73c-0.38,1.23-0.58,1.66-0.47,2.7
			c0.11,1.04,0.18,1.51-0.29,1.87c-0.47,0.36-4.17,1.78-4.17,1.78s0.79-1.57,1.01-3.86s0.45-3.77,1.65-4.76
			C143.09,118.55,144.25,119.09,144.25,119.09z"/>
		<path id="XMLID_5862_" class="st32" d="M134.07,125.94c0,0,2.02,1.11,3.62,1.35c1.6,0.24,1.71-0.33,1.97-2.11
			c0.26-1.77,0.45-4.23,1.26-5.28c0.81-1.05,2.1-1.48,2.59-1.35c0.1-0.04,0.58,0.32,0.73,0.53c0,0-1.1-0.18-2.15,0.7
			c-1.05,0.87-1.34,2.8-1.47,4.56c-0.14,1.76-0.32,3.79-1.84,3.94c-1.51,0.15-3.53-0.47-4.48-1.29
			C133.75,126.53,134.07,125.94,134.07,125.94z"/>
		<g>
			<path id="XMLID_5861_" class="st33" d="M138.16,123.51c0,0-0.21,0.11-0.24,0.32c-0.03,0.2,0.03,0.67,0.5,0.95
				c0.2,0.12,0.37,0.08,0.07-0.3C138.18,124.08,138.16,123.51,138.16,123.51z"/>
			<path id="XMLID_5860_" class="st33" d="M138.19,122.27c0,0-0.13,0.1-0.15,0.26c-0.02,0.16,0.27,0.84,0.61,1
				c0.35,0.16,0.17-0.21,0.02-0.39C138.52,122.97,138.19,122.27,138.19,122.27z"/>
			<path id="XMLID_5859_" class="st33" d="M138.09,120.88c0,0-0.1,0.16-0.04,0.38c0.04,0.14,0.63,0.53,0.86,0.53
				c0.23-0.01,0.32-0.12,0.01-0.26C138.68,121.42,138.17,121.07,138.09,120.88z"/>
		</g>
	</g>
</g>
<path id="XMLID_5858_" class="st35" d="M135.79,116.52c0,0-8.73-14.13-9.02-15.3c-0.3-1.17-1.65-7.1-1.65-7.1l-1.91,9.53
	c0.21,1.03,0.51,2.6,0.48,3.79c-0.04,1.58-0.39,3.38-1.09,6.52c-1.1,4.93-1.65,8.42-1.65,8.42c-0.4,0.24-1.43,0.77-3.15,0.57
	c-1.35-0.16-2.77-0.96-2.77-0.96s-0.27-7.67-0.35-10.72c-0.08-3.06-0.05-7.74-0.11-9.75c-0.11-3.64,0.01-3.11,0.14-9.06
	c0.13-6.17,0.81-15.61,0.81-15.61l17.68-0.7c0,0,2.04,2.61,2.03,9.26c-0.01,5.19,0.08,13.96,0.08,13.96
	c1.71,2.64,1.96,3.44,2.82,6.47c0.7,2.46,1.69,5.44,2.19,7.64C138.73,113.42,136.4,115.36,135.79,116.52z"/>
<path id="XMLID_5857_" class="st7" d="M135.79,116.52c0,0-8.73-14.13-9.02-15.3c-0.3-1.17-1.65-7.1-1.65-7.1l-1.91,9.53
	c0.21,1.03,0.51,2.6,0.48,3.79c-0.04,1.58-0.39,3.38-1.09,6.52c-1.1,4.93-1.65,8.42-1.65,8.42c-0.4,0.24-1.43,0.77-3.15,0.57
	c-1.35-0.16-2.77-0.96-2.77-0.96s-0.27-7.67-0.35-10.72c-0.08-3.06-0.05-7.74-0.11-9.75c-0.11-3.64,0.01-3.11,0.14-9.06
	c0.13-6.17,0.81-15.61,0.81-15.61l17.68-0.7c0,0,2.04,2.61,2.03,9.26c-0.01,5.19,0.08,13.96,0.08,13.96
	c1.71,2.64,1.96,3.44,2.82,6.47c0.7,2.46,1.69,5.44,2.19,7.64C138.73,113.42,136.4,115.36,135.79,116.52z"/>
<path id="XMLID_5856_" class="st25" d="M125.1,94.17l1.27-6.83c0,0,2.54-0.12,5.65-2.32c0,0-0.46,2.02-4.82,3.32l-1.22,6.61
	l0.64,5.64C126.62,100.57,125.12,94.3,125.1,94.17z"/>
<path d="M114.88,108.28c1.16,0.59,5.07,0.99,6.43,0.21l-0.45,2.57c0,0-0.82,0.49-2.81,0.38c-2.2-0.13-3.05-0.67-3.05-0.67
	L114.88,108.28z"/>
<path d="M134.58,114.55l1.21,1.97c0,0,1.14-1.56,2.64-2.25c1.37-0.63,2.09-0.44,2.09-0.44l-0.75-2.42c0,0-1.7,0.06-2.95,0.79
	C134.81,113.36,134.58,114.55,134.58,114.55z"/>
<g>
	<polygon id="XMLID_5855_" class="st34" points="122.64,52.78 123.17,57.22 129.73,56.56 129.13,51.77 	"/>
	<g id="XMLID_5784_">
		<g id="XMLID_5853_">
			<path id="XMLID_5854_" class="st36" d="M118.88,45.31c-0.42,0.63-1.72,2.55-1.73,2.88l1.38,0.54L118.88,45.31z"/>
		</g>
		<g id="XMLID_5785_">
			<path id="XMLID_5819_" class="st34" d="M121.86,40.54c-2.05,0.05-3.16,1.49-3.17,5.41c0,0.15-0.21,0.42-0.31,1.02
				c-0.43,2.57,0.37,4.86,0.93,5.43c1.3,0.7,2.64,0.86,4.51,0.48c1.42-0.28,5.02-1.12,6.61-3.08c1.87-2.31,2.51-5.52,0.72-6.92
				C128.63,40.9,122.99,40.51,121.86,40.54z"/>
		</g>
		<path class="st37" d="M120.02,49.66c-0.02,0.01-0.05,0.01-0.07,0.03c-0.01,0.01-0.02,0.03-0.04,0.04
			c-0.03,0.03-0.06,0.06-0.09,0.08c-0.07,0.06-0.14,0.1-0.22,0.14c-0.15,0.08-0.3,0.11-0.46,0.15c-0.01,0-0.02,0.01-0.03,0.02
			c0,0.01-0.01,0.03,0,0.04c0.02,0.03,0.08,0.03,0.12,0.02c0.04,0,0.09-0.01,0.13-0.02c0.1-0.02,0.19-0.05,0.28-0.09
			c0.08-0.04,0.16-0.09,0.23-0.14c0.04-0.03,0.07-0.06,0.1-0.09c0.01-0.01,0.03-0.03,0.04-0.05c0.03-0.03,0.03-0.06,0.03-0.1
			C120.07,49.7,120.05,49.66,120.02,49.66z"/>
		<path class="st36" d="M119.31,52.39c0.31,0.31,2.21,0.9,3.38,0.83l-0.07-0.77C122.63,52.45,120.97,52.65,119.31,52.39z"/>
	</g>
	<g id="XMLID_5687_">
		<g id="XMLID_5781_">
			<g id="XMLID_5782_">
				<path id="XMLID_5783_" class="st16" d="M121.58,43.39c0,0-0.07,0.52,0.23,0.93c0.3,0.41,0.65,0.67,1.13,0.81
					c-0.33,0.5-0.52,1.08-0.56,1.66c-0.01,0.18-0.01,0.38,0.1,0.53c0.18,0.28,0.52,0.26,0.69,0.02c0.2-0.29,0.35-0.6,0.62-0.85
					c0.32-0.29,0.74-0.51,1.19-0.53c1.71-0.09,1.6,1.96,0.87,2.75c-1.19,1.3-2.06,0.41-2.06,0.41s-0.68,2.05,0.91,3.01
					c0,0,2.6,0.65,4.45-0.12c1.23-1.57,2.67-2.56,3.46-3.88c1.87-3.12,1.29-5.7-0.31-6.33c-0.15-1.3-1.43-2.16-2.68-2.62
					c-1.71-0.63-3.43-0.19-5.21-0.27c-0.91-0.04-1.81-0.27-2.6-0.67c-0.35-0.18-0.79-0.39-1.13-0.2c-0.14,0.08-0.23,0.2-0.29,0.33
					c-0.24,0.46-0.21,1.03,0.06,1.47c-0.45-0.32-1.29-0.22-1.78,0.1c-0.7,0.46-0.84,1.03-0.64,1.84
					C118.16,42.3,119.18,43.92,121.58,43.39z"/>
			</g>
		</g>
		<g id="XMLID_5778_">
			<g id="XMLID_5779_">
				<path id="XMLID_5780_" class="st16" d="M132.2,42.13l1.67-0.78c-0.24-0.41-0.81-0.57-1.27-0.35
					C132.14,41.21,131.96,41.72,132.2,42.13z"/>
			</g>
		</g>
	</g>
</g>
<path id="XMLID_5870_" class="st34" d="M130.84,54.29c2.68,0.21,4.19,0.66,5.78,3.67c1.5,2.85,4.19,6.65,4.99,8.73
	c0.39,1.01,1.07,1.91-1,3.77c-2.83,2.54-6.39,4.34-6.39,4.34l-2.28-4.04l3.25-2.96l-1.57-2.7L130.84,54.29z"/>
<path class="st36" d="M135.19,67.79c0.37,0.51,1.2,1.21,2.03,1.45c-0.93,0.23-2-0.65-2.33-1.17L135.19,67.79z"/>
<g>
	<path class="st7" d="M131.02,54.24c1.19,0.03,2.81,0.04,4.22,1.45c1.41,1.41,4.99,8.16,4.99,8.16s-0.75,1.14-3.04,2.03
		c-2.29,0.89-3.39,0.54-3.39,0.54l-3.47-6.53L131.02,54.24z"/>
	<path class="st24" d="M131.02,54.24c1.19,0.03,2.81,0.04,4.22,1.45c1.41,1.41,4.99,8.16,4.99,8.16s-0.75,1.14-3.04,2.03
		c-2.29,0.89-3.39,0.54-3.39,0.54l-3.47-6.53L131.02,54.24z"/>
</g>
<g>
	<path class="st32" d="M133.18,54.76c1.74,0.81,2.44,3.71,2.39,6.1c-0.03,1.51-0.49,5.43-0.88,8.89c-0.12,1.09,0.14,4.32,0.24,5.96
		c0.1,1.64,0.22,4.47,0.22,4.47s-1.65,2.06-7.93,2.41c-7.6,0.43-12.36-1.9-12.36-1.9s0.21-6.55,0.52-11.18
		c0.34-5.04,0.09-9.91,1.25-11.69c0.37-0.7,0.63-1.51,1.93-1.85c1.03-0.27,3.4-0.85,4.34-1c1.56,0.32,5.59,0.24,6.56-0.55l-0.02-0.2
		C131.17,54.15,132.11,54.26,133.18,54.76z"/>
</g>
<path id="XMLID_5869_" class="st34" d="M109.8,74.68c0,0-6.54,4.1-7.1,4.2c-0.47,0.09-0.83-0.15-1.21-0.31
	c-0.44-0.18-0.93-0.25-1.43-0.27c-0.33-0.01-0.67,0.03-0.99,0c-0.3-0.03-0.53-0.2-0.82-0.24c-0.32-0.04-0.41,0.29-0.38,0.56
	c0.04,0.36,0.33,0.65,0.61,0.79c0.13,0.07,0.26,0.14,0.39,0.21c0.12,0.06,0.26,0.1,0.37,0.19c0.05,0.04,0.11,0.11,0.11,0.18
	c0.01,0.17-0.27,0.31-0.4,0.37c-0.83,0.37-1.74,0.58-2.56,0.59c-0.36,0-0.69-0.06-1.06-0.03c-0.32,0.03-0.7,0.1-1.03,0.24
	c-0.17,0.07-0.52,0.25-0.63,0.43c-0.22,0.36,0.4,0.47,0.57,0.54c0.22,0.09,0.36,0.17,0.49,0.37c0.17,0.26,0.3,0.32,0.61,0.39
	c0.26,0.05,0.6,0.05,0.78,0.24c0.06,0.06,0.11,0.15,0.17,0.23c0.15,0.21,0.5,0.33,0.77,0.35c0.34,0.03,0.48,0.12,0.7,0.35
	c0.42,0.45,1.28,0.27,1.89,0.11c0.71-0.19,1.4-0.5,2.08-0.86c0.37-0.19,0.74-0.35,1.11-0.55c0.33-0.18,0.64-0.39,0.97-0.54
	c0.79-0.37,5.92-2.36,8.23-3.68c1.14-0.65,1.64-0.56,2.54-2.44c1.62-3.38,1.84-3.64,2.69-5.7c1.17-2.82,1.76-4.41,1.21-5.77
	c-1.27-3.15-3.2-2.02-3.2-2.02c-0.59,0.81-0.84,1.29-2.19,4.36C111.66,70.23,109.8,74.68,109.8,74.68z"/>
<g>
	<path class="st7" d="M116.5,56.94c-1.31,1.26-1.68,2.38-2.66,4.5c-0.98,2.12-2.62,5.77-2.62,5.77s-0.08,2.23,2.92,3.43
		c1.89,0.76,2.91,0.23,2.91,0.23s4-7.35,4.15-9.08C121.35,60.05,119.64,55.45,116.5,56.94z"/>
	<path class="st24" d="M116.5,56.94c-1.31,1.26-1.68,2.38-2.66,4.5c-0.98,2.12-2.62,5.77-2.62,5.77s-0.08,2.23,2.92,3.43
		c1.89,0.76,2.91,0.23,2.91,0.23s4-7.35,4.15-9.08C121.35,60.05,119.64,55.45,116.5,56.94z"/>
</g>
<path class="st7" d="M90.76,80.4c0-0.04-0.01-0.07-0.02-0.1c0-0.01,0-0.01,0-0.02c0-0.04-0.02-0.07-0.03-0.1
	c-0.02-0.05-0.04-0.1-0.07-0.14c-0.01-0.02-0.02-0.04-0.04-0.06c-0.01-0.01-0.02-0.03-0.04-0.04c-0.02-0.03-0.05-0.05-0.08-0.07
	c0,0,0,0-0.01-0.01c-0.03-0.02-0.07-0.04-0.1-0.05c-0.22-0.09-0.5-0.07-0.82,0.09l-61.37,31.61c-0.67,0.35-1.22,0.95-1.22,2.48
	l0,2.57c0,0.58,0.7,0.94,1.25,0.65L89.54,85.6c0.67-0.35,1.22-1.19,1.22-1.89v-3.18C90.77,80.49,90.76,80.44,90.76,80.4z"/>
<path class="st38" d="M90.36,79.81c-0.22-0.1-0.5-0.07-0.82,0.09l-61.37,31.6c-0.12,0.06-0.23,0.13-0.34,0.21
	c-0.07,0.05-0.14,0.11-0.2,0.18c-0.1,0.09-0.19,0.2-0.27,0.32l-1.53-0.79c0.08-0.11,0.17-0.22,0.26-0.31
	c0.03-0.03,0.07-0.06,0.1-0.09c0.03-0.03,0.07-0.06,0.1-0.09c0.03-0.03,0.07-0.06,0.1-0.08c0.07-0.05,0.14-0.1,0.22-0.14
	l61.38-31.61c0.35-0.18,0.66-0.19,0.88-0.06C89.09,79.17,90.1,79.69,90.36,79.81z"/>
<path class="st39" d="M90.36,79.81c-0.22-0.1-0.5-0.07-0.82,0.09l-61.37,31.6c-0.12,0.06-0.23,0.13-0.34,0.21
	c-0.07,0.05-0.14,0.11-0.2,0.18c-0.1,0.09-0.19,0.2-0.27,0.32l-1.53-0.79c0.08-0.11,0.17-0.22,0.26-0.31
	c0.03-0.03,0.07-0.06,0.1-0.09c0.03-0.03,0.07-0.06,0.1-0.09c0.03-0.03,0.07-0.06,0.1-0.08c0.07-0.05,0.14-0.1,0.22-0.14
	l61.38-31.61c0.35-0.18,0.66-0.19,0.88-0.06C89.09,79.17,90.1,79.69,90.36,79.81z"/>
<g>
	<g>
		<path class="st35" d="M58.86,100.69c1.16-0.6,2.11-2.06,2.11-3.27c0-1.2-0.94-1.69-2.11-1.09c-1.16,0.6-2.11,2.06-2.11,3.27
			C56.75,100.8,57.69,101.29,58.86,100.69z"/>
		<path class="st40" d="M58.86,100.69c1.16-0.6,2.11-2.06,2.11-3.27c0-1.2-0.94-1.69-2.11-1.09c-1.16,0.6-2.11,2.06-2.11,3.27
			C56.75,100.8,57.69,101.29,58.86,100.69z"/>
		<path id="XMLID_5657_" class="st41" d="M57.66,99.91c0.07-0.06,0.4-0.35,0.46-0.41c0.06-0.06,0.1-0.11,0.09-0.2
			c-0.01-0.1-0.01-0.35-0.01-0.43c0-0.08,0.02-0.13,0.09-0.19c0.07-0.06,0.26-0.28,0.58-0.44c0.25-0.13,0.48-0.15,0.55-0.15
			c0.07,0,0.07,0.06,0.06,0.12c0,0.06,0,0.13,0,0.2c0,0.02,0,0.03,0,0.05c0,0.03,0.01,0.06,0.02,0.1c0.01,0.06,0.04,0.07,0.08,0.07
			c0.03,0,0.33,0.05,0.45,0.07c0.12,0.02,0.15-0.06,0.17-0.11c0.03-0.05,0.06-0.1,0.09-0.15c0.03-0.05,0.07-0.15,0.08-0.27
			c0-0.12,0.03-0.43-0.18-0.65c-0.05-0.05-0.1-0.08-0.16-0.11c-0.19-0.07-0.41-0.02-0.45-0.01c-0.05,0.01-0.78,0.08-1.43,0.73
			c-0.64,0.65-0.59,0.71-0.67,0.87c-0.08,0.16-0.18,0.59-0.12,0.75c0.06,0.17,0.14,0.26,0.17,0.26
			C57.55,100.01,57.6,99.97,57.66,99.91z"/>
	</g>
	<g>
		<path class="st35" d="M63.46,97.66c0.81-0.42,1.47-1.44,1.48-2.29c0-0.84-0.66-1.18-1.48-0.76c-0.81,0.42-1.48,1.44-1.48,2.29
			C61.99,97.74,62.65,98.08,63.46,97.66z"/>
	</g>
	<g class="st42">
		<path class="st10" d="M63.46,97.66c0.81-0.42,1.47-1.44,1.48-2.29c0-0.84-0.66-1.18-1.48-0.76c-0.81,0.42-1.48,1.44-1.48,2.29
			C61.99,97.74,62.65,98.08,63.46,97.66z"/>
	</g>
	<g>
		<path class="st10" d="M63.58,96.77l-0.82,0.42c-0.05,0.02-0.08,0-0.08-0.06v-1.16c0-0.05,0.04-0.12,0.08-0.14l0.82-0.42
			c0.05-0.02,0.08,0,0.08,0.06v1.16C63.66,96.68,63.62,96.75,63.58,96.77z"/>
		<path class="st10" d="M64.16,96.33l-0.29-0.06c-0.04-0.01-0.07-0.06-0.07-0.12V95.8c0-0.06,0.03-0.14,0.07-0.19l0.29-0.36
			c0.04-0.05,0.07-0.04,0.07,0.02v0.97C64.23,96.3,64.2,96.34,64.16,96.33z"/>
	</g>
	<g>
		<path class="st35" d="M54.26,102.42c0.81-0.42,1.47-1.44,1.48-2.29c0-0.84-0.66-1.18-1.48-0.76c-0.81,0.42-1.48,1.44-1.47,2.29
			C52.78,102.5,53.44,102.84,54.26,102.42z"/>
		<path class="st40" d="M54.26,102.42c0.81-0.42,1.47-1.44,1.48-2.29c0-0.84-0.66-1.18-1.48-0.76c-0.81,0.42-1.48,1.44-1.47,2.29
			C52.78,102.5,53.44,102.84,54.26,102.42z"/>
		<path class="st10" d="M54.28,101.12c0.12-0.06,0.22-0.22,0.22-0.34c0-0.13-0.1-0.18-0.22-0.11c-0.12,0.06-0.22,0.22-0.22,0.34
			C54.06,101.13,54.15,101.18,54.28,101.12z"/>
		<g>
			<path class="st10" d="M55,100.75c0.12-0.06,0.22-0.22,0.22-0.34c0-0.13-0.1-0.18-0.22-0.11c-0.12,0.06-0.22,0.22-0.22,0.34
				C54.78,100.76,54.88,100.81,55,100.75z"/>
		</g>
		<path class="st10" d="M53.55,101.49c0.12-0.06,0.22-0.22,0.22-0.34c0-0.13-0.1-0.18-0.22-0.11c-0.12,0.06-0.22,0.22-0.22,0.34
			C53.33,101.5,53.43,101.56,53.55,101.49z"/>
	</g>
</g>
<g id="Shadow_49_" class="st25">
	<path d="M58.67,65.8l29.38-15.19c0.21-0.11,0.38-0.02,0.38,0.19l0,23.31c0,0.21-0.17,0.48-0.38,0.58L58.67,89.89
		c-0.21,0.11-0.38,0.02-0.38-0.19l0-23.31C58.3,66.17,58.46,65.91,58.67,65.8z"/>
</g>
<g id="Speech_Bubble_5_">
	<g id="XMLID_5696_">
		<g id="XMLID_5698_">
			<path class="st12" d="M61.1,67.63c0.02-0.03,0.03-0.06,0.05-0.09h0C61.13,67.56,61.11,67.59,61.1,67.63z"/>
			<path class="st43" d="M90.76,52.42c-0.03-0.1-0.11-0.16-0.21-0.16c-0.06,0-0.12,0.02-0.19,0.05L61.45,67.25
				c-0.12,0.06-0.22,0.16-0.3,0.28l-1.54-0.8c0.08-0.11,0.18-0.21,0.29-0.27L88.8,51.53c0.23-0.12,0.61-0.12,0.85,0l0.71,0.35
				C90.55,51.98,90.72,52.2,90.76,52.42z"/>
		</g>
		<g id="XMLID_5697_" class="st44">
			<path class="st12" d="M61.45,91.32c-0.22,0.12-0.63,0.12-0.85,0l-0.71-0.37c-0.23-0.12-0.42-0.41-0.42-0.65V67.12
				c0-0.13,0.05-0.26,0.13-0.39l1.55,0.8c-0.08,0.12-0.12,0.25-0.12,0.37l0,23.19C61.03,91.32,61.2,91.45,61.45,91.32z"/>
		</g>
	</g>
	<g class="st45">
		<path class="st12" d="M90.54,52.32c-0.06,0-0.12,0.02-0.19,0.05L61.45,67.31c-0.23,0.12-0.42,0.41-0.42,0.65v23.19
			c0,0.17,0.1,0.27,0.23,0.27c0.06,0,0.12-0.02,0.19-0.05l28.91-14.94c0.23-0.12,0.42-0.41,0.42-0.65V52.59
			C90.78,52.42,90.68,52.32,90.54,52.32L90.54,52.32z"/>
	</g>
	<polygon class="st12" points="61.05,90.07 90.78,74.71 90.78,53.66 61.05,69.02 	"/>
	<path class="st12" d="M90.54,52.43c0.04,0,0.05,0.08,0.05,0.1v23.19c0,0.18-0.15,0.42-0.33,0.51L61.36,91.17
		c-0.05,0.03-0.08,0.03-0.09,0.03c-0.04,0-0.05-0.08-0.05-0.1V67.91c0-0.18,0.15-0.42,0.33-0.51l28.91-14.94
		C90.5,52.43,90.53,52.43,90.54,52.43 M90.54,52.26c-0.06,0-0.12,0.02-0.19,0.05L61.45,67.25c-0.23,0.12-0.42,0.41-0.42,0.65V91.1
		c0,0.17,0.1,0.27,0.23,0.27c0.06,0,0.12-0.02,0.19-0.05l28.91-14.94c0.23-0.12,0.42-0.41,0.42-0.65V52.53
		C90.78,52.36,90.68,52.26,90.54,52.26L90.54,52.26z"/>
</g>
<g>
	<path class="st33" d="M89.01,54.07c0.12-0.06,0.22-0.22,0.22-0.35c0-0.13-0.1-0.18-0.22-0.12c-0.12,0.06-0.22,0.22-0.22,0.35
		C88.79,54.08,88.89,54.13,89.01,54.07z"/>
	<g>
		<path class="st33" d="M89.75,53.69c0.12-0.06,0.22-0.22,0.22-0.35c0-0.13-0.1-0.18-0.22-0.12c-0.12,0.06-0.22,0.22-0.22,0.35
			C89.52,53.7,89.62,53.75,89.75,53.69z"/>
	</g>
	<path class="st33" d="M88.28,54.45c0.12-0.06,0.22-0.22,0.22-0.35c0-0.13-0.1-0.18-0.22-0.12c-0.12,0.06-0.22,0.22-0.22,0.35
		C88.05,54.46,88.15,54.51,88.28,54.45z"/>
</g>
<path id="XMLID_5693_" class="st29" d="M62.82,68.93c0.41-0.21,0.74-0.04,0.74,0.38c0,0.42-0.33,0.94-0.74,1.15
	c-0.41,0.21-0.74,0.04-0.74-0.38S62.41,69.14,62.82,68.93z"/>
<path class="st35" d="M62.81,69.76c0.13-0.07,0.24-0.24,0.24-0.37c0-0.14-0.11-0.19-0.24-0.12c-0.13,0.07-0.24,0.24-0.24,0.37
	C62.57,69.77,62.68,69.83,62.81,69.76z M62.89,69.79l-0.14,0.07c-0.22,0.11-0.4,0.39-0.4,0.61v0.06c0.04,0.01,0.08,0.02,0.13,0.02
	c0.1,0,0.21-0.03,0.33-0.09c0.18-0.09,0.34-0.24,0.47-0.42V70C63.29,69.77,63.11,69.68,62.89,69.79z"/>
<path class="st40" d="M62.81,69.76c0.13-0.07,0.24-0.24,0.24-0.37c0-0.14-0.11-0.19-0.24-0.12c-0.13,0.07-0.24,0.24-0.24,0.37
	C62.57,69.77,62.68,69.83,62.81,69.76z M62.89,69.79l-0.14,0.07c-0.22,0.11-0.4,0.39-0.4,0.61v0.06c0.04,0.01,0.08,0.02,0.13,0.02
	c0.1,0,0.21-0.03,0.33-0.09c0.18-0.09,0.34-0.24,0.47-0.42V70C63.29,69.77,63.11,69.68,62.89,69.79z"/>
<path class="st29" d="M64.25,69.48l2.18-1.13c0.14-0.07,0.25-0.25,0.25-0.39v-0.07c0-0.14-0.11-0.2-0.25-0.13l-2.18,1.13
	C64.11,68.96,64,69.13,64,69.27v0.07C64,69.49,64.11,69.55,64.25,69.48z"/>
<path class="st32" d="M80.64,79.09c0.02,0.26,0,0.56-0.05,0.88l-9.4,4.86c-1.29-0.91-1.2-2.23-1.2-2.23s-1.48,0.28-2.43-1.3
	c-0.96-1.58-0.17-3.29,2.06-5.18c2.2-1.86,2.63-3.84,2.38-5.79l8.88,0.93c0.17,2.33,1.36,4.06,1.61,5.96
	C82.6,78.2,82.1,79.45,80.64,79.09z"/>
<g>
	<g>
		<path class="st46" d="M84.04,78.19l-2.56,1.33l-1.23-3.21c2.1,0.05,2.49,0.7,3.76,1.86L84.04,78.19z"/>
	</g>
</g>
<g>
	<path class="st35" d="M83.02,78.72l-1.54,0.8l-9.19,4.75c-0.07-1.13-0.19-2.26-0.24-3.17c-0.2-3.2,0.28-3.89,0.8-4.13
		c0,0,0.49-0.06,0.92-0.12c1.09-0.16,4.79-0.57,4.79-0.57l1.69,0.02c0,0,1.35,0.86,2.64,2.27C82.93,78.62,82.98,78.67,83.02,78.72z"
		/>
</g>
<g>
	<path class="st9" d="M83.02,78.72l-1.54,0.8l-9.19,4.75c-0.07-1.13-0.19-2.26-0.24-3.17c-0.2-3.2,0.28-3.89,0.8-4.13
		c0,0,0.49-0.06,0.92-0.12c1.09-0.16,4.79-0.57,4.79-0.57l1.69,0.02c0,0,1.35,0.86,2.64,2.27C82.93,78.62,82.98,78.67,83.02,78.72z"
		/>
</g>
<g>
	<g id="XMLID_5651_">
		<path class="st32" d="M73.39,66.93c-1.52,0.2-1.71,2.64-1.24,4c0.9,2.62,2.77,2.88,2.93,4.01c0.88-0.54,1.76-1.09,2.64-1.63
			c0.68-0.42,1.37-0.85,2.05-1.27c0.9-0.56,2.28-0.76,2.51-2.03c0.08-0.44-0.07-1-0.57-1.27c0.38-0.26,0.55-0.84,0.46-1.46
			c-0.19-1.21-1.54-2.03-2.64-2.42c-1.13-0.4-2.35-0.41-3.48-0.14C74.87,65,73.66,65.7,73.39,66.93z"/>
		<path class="st46" d="M75.22,75.98l-0.34-2.44c0,0-0.67,0.42-1.38-0.23c-0.81-0.74-0.95-1.56-0.58-2.1c0.41-0.6,1.44-0.4,1.93,0.3
			c0.67,0.14,0.87-0.78,0.3-1.7c0,0,1.29-0.79,0.93-2.14c1.19,0.66,3.86,0.92,4.4-0.24c0.41,0.52,0.96,1.13,1.17,4.01
			c0.19,2.63-0.29,3.26-1.01,3.6c-0.43,0.2-0.97,0.26-1.81,0.21l0.09,0.68l0,0c0.04,0.34,0.12,0.35,0.43,0.36
			c0.24,0.01,0.46,0.01,0.46,0.01s1.24,1.26-0.92,1.59c-3.23,0.49-5.11-1.04-5.11-1.04s0.19-0.02,0.74-0.11
			C75.07,76.65,75.21,76.44,75.22,75.98z"/>
		<g id="XMLID_5667_">
			<path id="XMLID_5700_" class="st47" d="M77.82,72.81l1.2,0.34c-0.07,0.33-0.4,0.52-0.74,0.42
				C77.95,73.48,77.74,73.14,77.82,72.81z"/>
		</g>
		<path class="st48" d="M77.91,73.07c0.33-0.01,0.63,0.2,0.72,0.5c-0.11,0.03-0.22,0.04-0.34,0c-0.24-0.07-0.41-0.26-0.46-0.49
			C77.85,73.08,77.88,73.08,77.91,73.07z"/>
		<g id="XMLID_5665_">
			<path id="XMLID_5666_" class="st32" d="M81.01,69.92l-0.9-0.35c0.08-0.24,0.35-0.35,0.59-0.26
				C80.95,69.4,81.09,69.68,81.01,69.92z"/>
		</g>
		<g id="XMLID_5663_">
			<path id="XMLID_5664_" class="st32" d="M76.84,70.11l0.81-0.46c-0.14-0.23-0.43-0.31-0.65-0.18
				C76.78,69.6,76.71,69.89,76.84,70.11z"/>
		</g>
		<g id="XMLID_5656_">
			<polygon id="XMLID_5662_" class="st47" points="78.89,70.09 79.2,72.5 80.44,71.96 			"/>
		</g>
		<path id="XMLID_5655_" class="st16" d="M80.02,70.5c0,0.21,0.18,0.39,0.39,0.41c0.22,0.02,0.4-0.14,0.4-0.35
			c0-0.21-0.18-0.39-0.39-0.41C80.2,70.13,80.02,70.29,80.02,70.5z"/>
		<path id="XMLID_5654_" class="st16" d="M77.16,70.63c0,0.21,0.18,0.39,0.39,0.41c0.22,0.02,0.4-0.14,0.4-0.35
			c0-0.21-0.18-0.39-0.39-0.41C77.34,70.26,77.16,70.42,77.16,70.63z"/>
		<g id="XMLID_5652_">
			<path id="XMLID_5653_" class="st47" d="M78.82,75.25c-1.52-0.11-2.99-0.56-3.38-1.21c0,0,0.05,0.72,0.68,1.06
				c0.89,0.47,2.76,0.67,2.76,0.67L78.82,75.25z"/>
		</g>
	</g>
</g>
<g>
	<path class="st46" d="M73.51,81.59l-1.22,2.67l-5.53,2.86c-0.06-0.3-0.03-0.57,0.06-0.92c0.32-1.27,1.91-4.6,2.9-6.87
		c0.85-1.95,1.69-2.28,3.41-2.4C74.78,78.44,73.51,81.59,73.51,81.59z"/>
</g>
<g id="Shadow_54_" class="st25">
	<path class="st12" d="M58.67,36.92l29.38-15.19c0.21-0.11,0.38-0.02,0.38,0.19l0,23.31c0,0.21-0.17,0.48-0.38,0.58L58.67,61
		c-0.21,0.11-0.38,0.02-0.38-0.19l0-23.31C58.3,37.28,58.46,37.02,58.67,36.92z"/>
</g>
<g id="Speech_Bubble_6_">
	<g id="XMLID_5716_">
		<g id="XMLID_5718_">
			<path class="st12" d="M61.1,38.74c0.02-0.03,0.03-0.06,0.05-0.09h0C61.13,38.68,61.11,38.71,61.1,38.74z"/>
			<path class="st43" d="M90.76,23.53c-0.03-0.1-0.11-0.16-0.21-0.16c-0.06,0-0.12,0.02-0.19,0.05L61.45,38.37
				c-0.12,0.06-0.22,0.16-0.3,0.28l-1.54-0.8c0.08-0.11,0.18-0.21,0.29-0.27L88.8,22.64c0.23-0.12,0.61-0.12,0.85,0L90.35,23
				C90.55,23.1,90.72,23.32,90.76,23.53z"/>
		</g>
		<g id="XMLID_5717_" class="st44">
			<path class="st12" d="M61.45,62.43c-0.22,0.12-0.63,0.12-0.85,0l-0.71-0.37c-0.23-0.12-0.42-0.41-0.42-0.65V38.24
				c0-0.13,0.05-0.26,0.13-0.39l1.55,0.8c-0.08,0.12-0.12,0.25-0.12,0.37l0,23.19C61.03,62.44,61.2,62.56,61.45,62.43z"/>
		</g>
	</g>
	<g class="st45">
		<path class="st12" d="M90.54,23.44c-0.06,0-0.12,0.02-0.19,0.05L61.45,38.43c-0.23,0.12-0.42,0.41-0.42,0.65v23.19
			c0,0.17,0.1,0.27,0.23,0.27c0.06,0,0.12-0.02,0.19-0.05l28.91-14.94c0.23-0.12,0.42-0.41,0.42-0.65V23.71
			C90.78,23.54,90.68,23.44,90.54,23.44L90.54,23.44z"/>
	</g>
	<polygon class="st12" points="61.05,61.19 90.78,45.82 90.78,24.77 61.05,40.14 	"/>
	<path class="st12" d="M90.54,23.54c0.04,0,0.05,0.08,0.05,0.1v23.19c0,0.18-0.15,0.42-0.33,0.51L61.36,62.29
		c-0.05,0.03-0.08,0.03-0.09,0.03c-0.04,0-0.05-0.08-0.05-0.1V39.02c0-0.18,0.15-0.42,0.33-0.51l28.91-14.94
		C90.5,23.55,90.53,23.54,90.54,23.54 M90.54,23.38c-0.06,0-0.12,0.02-0.19,0.05L61.45,38.37c-0.23,0.12-0.42,0.41-0.42,0.65v23.19
		c0,0.17,0.1,0.27,0.23,0.27c0.06,0,0.12-0.02,0.19-0.05l28.91-14.94c0.23-0.12,0.42-0.41,0.42-0.65V23.65
		C90.78,23.47,90.68,23.38,90.54,23.38L90.54,23.38z"/>
</g>
<g>
	<path class="st12" d="M89.01,25.18c0.12-0.06,0.22-0.22,0.22-0.35c0-0.13-0.1-0.18-0.22-0.12c-0.12,0.06-0.22,0.22-0.22,0.35
		C88.79,25.2,88.89,25.25,89.01,25.18z"/>
	<g>
		<path class="st12" d="M89.75,24.81c0.12-0.06,0.22-0.22,0.22-0.35s-0.1-0.18-0.22-0.12c-0.12,0.06-0.22,0.22-0.22,0.35
			C89.52,24.82,89.62,24.87,89.75,24.81z"/>
	</g>
	<path class="st12" d="M88.28,25.56c0.12-0.06,0.22-0.22,0.22-0.35c0-0.13-0.1-0.18-0.22-0.12c-0.12,0.06-0.22,0.22-0.22,0.35
		C88.05,25.57,88.15,25.63,88.28,25.56z"/>
</g>
<path id="XMLID_5715_" class="st12" d="M62.82,40.05c0.41-0.21,0.74-0.04,0.74,0.38c0,0.42-0.33,0.94-0.74,1.15
	c-0.41,0.21-0.74,0.04-0.74-0.38S62.41,40.26,62.82,40.05z"/>
<path class="st12" d="M62.81,40.88c0.13-0.07,0.24-0.24,0.24-0.37c0-0.14-0.11-0.19-0.24-0.12c-0.13,0.07-0.24,0.24-0.24,0.37
	C62.57,40.89,62.68,40.94,62.81,40.88z M62.89,40.91l-0.14,0.07c-0.22,0.11-0.4,0.39-0.4,0.61v0.06c0.04,0.01,0.08,0.02,0.13,0.02
	c0.1,0,0.21-0.03,0.33-0.09c0.18-0.09,0.34-0.24,0.47-0.42v-0.05C63.29,40.89,63.11,40.79,62.89,40.91z"/>
<path class="st40" d="M62.81,40.88c0.13-0.07,0.24-0.24,0.24-0.37c0-0.14-0.11-0.19-0.24-0.12c-0.13,0.07-0.24,0.24-0.24,0.37
	C62.57,40.89,62.68,40.94,62.81,40.88z M62.89,40.91l-0.14,0.07c-0.22,0.11-0.4,0.39-0.4,0.61v0.06c0.04,0.01,0.08,0.02,0.13,0.02
	c0.1,0,0.21-0.03,0.33-0.09c0.18-0.09,0.34-0.24,0.47-0.42v-0.05C63.29,40.89,63.11,40.79,62.89,40.91z"/>
<path class="st29" d="M64.29,40.57l2.18-1.13c0.14-0.07,0.25-0.25,0.25-0.39v-0.07c0-0.14-0.11-0.2-0.25-0.13l-2.18,1.13
	c-0.14,0.07-0.25,0.25-0.25,0.39v0.07C64.04,40.58,64.16,40.64,64.29,40.57z"/>
<g>
	<path class="st29" d="M83,49.84l-4.45,2.3l-0.22-0.34l0.81-4.71c0.91,0.09,1.73,0.24,2.42,0.89C82.06,48.45,82.49,49.03,83,49.84z"
		/>
</g>
<path class="st26" d="M81.69,50.52l-3.14,1.62l-8.61,4.45c-0.11-1.28-0.23-2.51-0.32-3.49c-0.21-2.1-0.15-3.88,0.45-4.37
	c0,0,2.54-1.22,4.39-1.5c2.38-0.37,3.96-0.26,4.7-0.14C79.42,47.13,80.86,47.59,81.69,50.52z"/>
<g id="XMLID_5362_">
	<g id="XMLID_5610_">
		<path class="st16" d="M79.48,40.52c0.31-0.24,0.57-0.52,0.69-0.95c0.13-0.47,0.16-0.84,0.09-1.33c-0.02-0.11-0.1-0.36-0.16-0.45
			c-0.12-0.17-0.34-0.21-0.54-0.24c-0.13-0.01-0.26-0.03-0.38-0.04c0.21-0.24,0.43-0.49,0.52-0.8c0.07-0.23,0.06-0.48-0.01-0.72
			c-0.02-0.06-0.05-0.13-0.1-0.17c-0.11-0.11-0.29-0.08-0.43-0.04c-1.15,0.34-2.3,0.28-2.7,0.27c-0.72-0.02-1.09-0.1-2.09-0.16
			c-1-0.06-2.73,0.42-2.9,2.23c-1.31,0.24-1.33,2.32-0.88,3.18c0.82,1.59,1.57,2.63,2.01,3.78c0.07-0.05,4.32-2.64,5.29-3.37
			c0.36-0.27,0.72-0.54,1.09-0.81C79.14,40.77,79.32,40.65,79.48,40.52z"/>
		<path class="st48" d="M71.21,43.93c0.83,0.55,1.31-0.01,1.31-0.01l0.26,3.9c1.79,2.02,6.14,1.6,4.1-0.44l-0.03-0.93
			c0,0,0.67,0.02,1.21-0.08c0.24-0.04,0.5-0.15,0.69-0.27c0.43-0.28,0.72-0.65,0.87-1.27c0.18-0.74,0.24-1.72,0.17-2.8
			c-0.08-1.13-0.3-2.59-0.74-3.34c-0.74-0.58-2.84-0.6-4.56-0.08c0,0.42,0.07,0.79-0.25,1.27c-0.16,0.23-0.42,0.41-0.64,0.52
			c0.01,0.82-0.01,1.05-0.14,1.41c-0.07,0.21-0.22,0.53-0.67,0.38c-0.21-0.07-0.39-0.5-0.62-0.79c-0.31-0.38-1.22-0.55-1.59,0.31
			C70.21,42.58,70.64,43.55,71.21,43.93z"/>
		<path class="st49" d="M76.85,46.44c-0.89-0.07-2.5-0.36-2.99-0.87c-0.49-0.51-0.93-1.71-0.93-1.71s0.27,1.35,0.66,1.93
			c0.39,0.58,1.17,0.8,1.74,0.96c0.57,0.15,1.54,0.21,1.54,0.21L76.85,46.44z"/>
	</g>
	<g id="XMLID_5561_">
		<path id="XMLID_5609_" class="st16" d="M75.85,40.68l-0.82,0.37c-0.11-0.23-0.02-0.5,0.21-0.61
			C75.46,40.34,75.73,40.45,75.85,40.68z"/>
		<path id="XMLID_5608_" class="st16" d="M78.3,40.58l0.85,0.4c0.1-0.23-0.01-0.5-0.24-0.61C78.67,40.26,78.4,40.35,78.3,40.58z"/>
		<path id="XMLID_5607_" class="st37" d="M75.78,43.63l1.58,0.54c-0.15,0.42-0.63,0.64-1.06,0.49
			C75.86,44.51,75.63,44.05,75.78,43.63z"/>
		<path class="st49" d="M75.85,43.94c0.44-0.01,0.82,0.33,0.86,0.75c-0.13,0.02-0.27,0.01-0.41-0.03c-0.32-0.11-0.54-0.39-0.56-0.7
			C75.77,43.95,75.81,43.94,75.85,43.94z"/>
		<polygon id="XMLID_5606_" class="st49" points="76.84,40.75 77.31,43.42 78.7,42.81 		"/>
		<path class="st16" d="M75.4,41.67c0.01,0.2,0.19,0.36,0.4,0.36c0.21,0,0.37-0.17,0.36-0.37c-0.01-0.2-0.19-0.36-0.4-0.36
			C75.55,41.3,75.39,41.47,75.4,41.67z"/>
		<path class="st16" d="M78.2,41.53c0.01,0.2,0.19,0.36,0.4,0.36c0.21,0,0.37-0.17,0.36-0.37s-0.19-0.36-0.4-0.36
			C78.35,41.17,78.19,41.33,78.2,41.53z"/>
	</g>
</g>
<g>
	<path class="st29" d="M72.38,55.34l-2.44,1.26l-2.6,1.34c-0.05-1.01-0.1-2.16-0.1-2.84c-0.01-2.43-0.13-2.88,0.3-3.98
		c0.43-1.1,1.58-1.95,2.52-2.39c0,0,2.04,1.38,2.16,3.59C72.29,53.43,72.34,54.46,72.38,55.34z"/>
</g>
<g id="Shadow_33_">
	<path class="st12" d="M24.59,83.41l29.38-15.19c0.21-0.11,0.38-0.02,0.38,0.19l0,23.31c0,0.21-0.17,0.48-0.38,0.58L24.59,107.5
		c-0.21,0.11-0.38,0.02-0.38-0.19l0-23.31C24.22,83.78,24.39,83.52,24.59,83.41z"/>
</g>
<g id="XMLID_5671_">
	<g id="XMLID_5673_">
		<path class="st12" d="M27.02,85.24c0.02-0.03,0.03-0.06,0.05-0.09h0C27.05,85.18,27.04,85.21,27.02,85.24z"/>
		<path class="st43" d="M56.68,70.03c-0.03-0.1-0.11-0.16-0.21-0.16c-0.06,0-0.12,0.02-0.19,0.05L27.37,84.86
			c-0.12,0.06-0.22,0.16-0.3,0.28l-1.54-0.8c0.08-0.11,0.18-0.21,0.29-0.27l28.91-14.94c0.23-0.12,0.61-0.12,0.85,0l0.71,0.35
			C56.47,69.59,56.64,69.82,56.68,70.03z"/>
	</g>
	<g id="XMLID_5672_" class="st44">
		<path class="st12" d="M27.37,108.93c-0.22,0.12-0.63,0.12-0.85,0l-0.71-0.37c-0.23-0.12-0.42-0.41-0.42-0.65V84.74
			c0-0.13,0.05-0.26,0.13-0.39l1.55,0.8c-0.08,0.12-0.12,0.25-0.12,0.37l0,23.19C26.95,108.93,27.12,109.06,27.37,108.93z"/>
	</g>
</g>
<g class="st45">
	<path class="st3" d="M56.47,69.93c-0.06,0-0.12,0.02-0.19,0.05L27.37,84.93c-0.23,0.12-0.42,0.41-0.42,0.65v23.19
		c0,0.17,0.1,0.27,0.23,0.27c0.06,0,0.12-0.02,0.19-0.05l28.91-14.94c0.23-0.12,0.42-0.41,0.42-0.65V70.2
		C56.7,70.03,56.6,69.93,56.47,69.93L56.47,69.93z"/>
</g>
<polygon class="st12" points="26.97,107.69 56.7,92.32 56.7,71.27 26.97,86.64 "/>
<path class="st14" d="M56.47,70.04c0.04,0,0.05,0.08,0.05,0.1v23.19c0,0.18-0.15,0.42-0.33,0.51l-28.91,14.94
	c-0.05,0.03-0.08,0.03-0.09,0.03c-0.04,0-0.05-0.08-0.05-0.1V85.52c0-0.18,0.15-0.42,0.33-0.51l28.91-14.94
	C56.42,70.04,56.45,70.04,56.47,70.04 M56.47,69.87c-0.06,0-0.12,0.02-0.19,0.05L27.37,84.87c-0.23,0.12-0.42,0.41-0.42,0.65v23.19
	c0,0.17,0.1,0.27,0.23,0.27c0.06,0,0.12-0.02,0.19-0.05l28.91-14.94c0.23-0.12,0.42-0.41,0.42-0.65V70.14
	C56.7,69.97,56.6,69.87,56.47,69.87L56.47,69.87z"/>
<g>
	<path class="st33" d="M54.93,71.68c0.12-0.06,0.22-0.22,0.22-0.35c0-0.13-0.1-0.18-0.22-0.12c-0.12,0.06-0.22,0.22-0.22,0.35
		C54.71,71.69,54.81,71.74,54.93,71.68z"/>
	<g>
		<path class="st33" d="M55.67,71.3c0.12-0.06,0.22-0.22,0.22-0.35c0-0.13-0.1-0.18-0.22-0.12c-0.12,0.06-0.22,0.22-0.22,0.35
			C55.44,71.31,55.54,71.37,55.67,71.3z"/>
	</g>
	<path class="st33" d="M54.2,72.06c0.12-0.06,0.22-0.22,0.22-0.35c0-0.13-0.1-0.18-0.22-0.12c-0.12,0.06-0.22,0.22-0.22,0.35
		C53.97,72.07,54.07,72.12,54.2,72.06z"/>
</g>
<path id="XMLID_5668_" class="st29" d="M28.74,86.54c0.41-0.21,0.74-0.04,0.74,0.38c0,0.42-0.33,0.94-0.74,1.15
	C28.33,88.29,28,88.12,28,87.69C28,87.27,28.33,86.75,28.74,86.54z"/>
<path class="st35" d="M28.74,87.37c0.13-0.07,0.24-0.24,0.24-0.37c0-0.14-0.11-0.19-0.24-0.12c-0.13,0.07-0.24,0.24-0.24,0.37
	C28.5,87.39,28.6,87.44,28.74,87.37z M28.81,87.4l-0.14,0.07c-0.22,0.11-0.4,0.39-0.4,0.61v0.06c0.04,0.01,0.08,0.02,0.13,0.02
	c0.1,0,0.21-0.03,0.33-0.09c0.18-0.09,0.34-0.24,0.47-0.42v-0.05C29.21,87.38,29.03,87.29,28.81,87.4z"/>
<path class="st40" d="M28.74,87.37c0.13-0.07,0.24-0.24,0.24-0.37c0-0.14-0.11-0.19-0.24-0.12c-0.13,0.07-0.24,0.24-0.24,0.37
	C28.5,87.39,28.6,87.44,28.74,87.37z M28.81,87.4l-0.14,0.07c-0.22,0.11-0.4,0.39-0.4,0.61v0.06c0.04,0.01,0.08,0.02,0.13,0.02
	c0.1,0,0.21-0.03,0.33-0.09c0.18-0.09,0.34-0.24,0.47-0.42v-0.05C29.21,87.38,29.03,87.29,28.81,87.4z"/>
<path class="st29" d="M30.15,87.09l2.18-1.13c0.14-0.07,0.25-0.25,0.25-0.39V85.5c0-0.14-0.11-0.2-0.25-0.13l-2.18,1.13
	c-0.14,0.07-0.25,0.25-0.25,0.39v0.07C29.9,87.1,30.02,87.16,30.15,87.09z"/>
<g id="Character_17_">
	<g id="Chest_5_">
		<g>
			<path class="st16" d="M50.15,95.71l-4.06,2.1l-1.07-5.15c1.32-0.01,2.21,0.11,2.86,0.47C48.95,93.71,49.4,94.57,50.15,95.71z"/>
		</g>
		<g id="Chest_1_">
			<path class="st32" d="M48.15,96.74l-12.71,6.57c-0.23-1.39-0.45-2.37-0.73-3.54c-0.42-1.78-0.51-4.38,0.38-4.77
				c1.15-0.5,1.81-0.84,2.39-1.05c0,0,1.61-1.35,4.27-1.32c1.05,0.01,2.1-0.01,3.27,0.03c1.3,0.05,2.49,1.38,3.11,3.96
				C48.13,96.65,48.14,96.7,48.15,96.74z"/>
		</g>
		<g id="Head_5_">
			<g>
				<g id="XMLID_5636_">
					<g id="XMLID_5699_">
						<path class="st16" d="M37.82,83.69c-1.14,1.32-0.77,2.97-0.25,4.52c0.6,1.77,0.33,2.56,1.41,3c-0.52-5.57,1.76,0.95,6.17-3.38
							c0.8-0.78,0.73-3.21-0.34-4.3C43.29,81.98,40.06,81.2,37.82,83.69z"/>
						<path class="st37" d="M37.38,89.96c0.66,0.41,1.21-0.22,1.21-0.22l0.33,3.69c0,0,0.01,0.47,1.14,1.05
							c0.75,0.39,2.31,0.61,3.2,1.45c0.37-0.61,0.67-1.73-0.16-2.69l-0.07-1c0,0,0.43,0.05,0.89-0.07c0.61-0.16,1.4-0.72,1.62-1.55
							c0.34-1.34,0.17-3.36-0.45-5.98c-0.92-0.68-3.87-0.82-5.71,0.3c0.15,1.54-0.27,2.22-0.25,2.77c-0.11,0.22-0.24,0.35-0.33,0.43
							c-0.28,0.24-0.55-0.4-0.8-0.65c-0.26-0.25-1.07-0.6-1.44,0.21C36.19,88.54,36.81,89.61,37.38,89.96z"/>
					</g>
					<g id="XMLID_5639_">
						<path id="XMLID_5642_" class="st16" d="M41.47,86.31l-0.76,0.46c-0.14-0.22-0.09-0.5,0.13-0.62
							C41.05,86.02,41.33,86.09,41.47,86.31z"/>
						<path id="XMLID_5641_" class="st16" d="M44.93,86.3l-0.92-0.25c0.05-0.24,0.29-0.37,0.54-0.3
							C44.8,85.81,44.97,86.06,44.93,86.3z"/>
						<path class="st16" d="M41.15,87.35c0.01,0.2,0.19,0.36,0.4,0.36c0.21,0,0.37-0.17,0.35-0.37c-0.01-0.2-0.19-0.36-0.4-0.36
							C41.29,86.99,41.13,87.15,41.15,87.35z"/>
						<path class="st16" d="M44.08,87.17c0.01,0.2,0.19,0.36,0.4,0.36c0.21,0,0.37-0.17,0.35-0.37c-0.01-0.2-0.19-0.36-0.4-0.36
							C44.22,86.8,44.06,86.97,44.08,87.17z"/>
						<path id="XMLID_5640_" class="st50" d="M42.39,86.31l0.55,2.24l1.15-0.44C43.86,87.49,42.93,86.56,42.39,86.31z"/>
					</g>
				</g>
			</g>
			<path class="st16" d="M39.15,87.47c0.08,1.52,0.81,1.81,1.41,1.97c0.96,0.25,1.4-0.52,2.51-0.59c0.64-0.04,0.8,0.07,1.4,0.41
				c0.09,0.05,0.34,0.17,0.45,0.19c0.23,0.04,0.57,0.07,0.67-0.23c0.12-0.39,0.11-1.19,0.01-1.85l-0.04-0.36c0,0,0.33,1.6,0.21,2.84
				c-0.08,0.78-0.37,1.51-0.79,1.88c-0.59,0.51-1.64,0.8-3.27,0.51c-1.61-0.28-2.28-0.78-2.52-1.32c-0.78-1.76-0.61-2.61-0.85-2.94
				C38.1,87.64,39.15,87.47,39.15,87.47z"/>
			<path class="st37" d="M43.49,89.29c0.76,0.06,1.15,0.35,1.18,0.82c0.03,0.47-0.09,1.06-0.53,1.23c-0.44,0.18-0.41-0.28-0.36-0.53
				c0.06-0.25-0.1-0.19-0.34-0.19c-0.25,0.01-0.35-0.03-0.25,0.22c0.09,0.25,0.23,0.6-0.28,0.56c-0.51-0.04-0.9-0.51-1.02-1.11
				C41.77,89.7,42.34,89.2,43.49,89.29z"/>
			<path id="XMLID_5701_" class="st50" d="M42.46,89.68l1.29,0c-0.02,0.32-0.28,0.58-0.64,0.58C42.76,90.25,42.44,90,42.46,89.68z"
				/>
			<path class="st49" d="M42.48,89.84c0.07,0.24,0.34,0.42,0.63,0.42c0.13,0,0.26-0.04,0.35-0.1
				C43.21,89.94,42.86,89.82,42.48,89.84z"/>
		</g>
		<g id="Head_4_">
			<g>
				<path class="st16" d="M43.27,95.93c-0.49-0.27-1.78-0.79-1.89-0.49c-0.07,0.22-0.28,1.01-0.65,0.99
					c-0.48-0.02-1.8-0.46-2.67-1.43c-0.56-0.62-0.6-1.05-0.6-1.05s0.43-0.83,0.7-1.21c0.26-0.38,0.34-0.62,0.63-0.65l0.08,0.78
					c0,0,0.29,0.51,0.89,0.89C40.65,94.33,42.39,94.94,43.27,95.93z"/>
				<path class="st16" d="M43.27,95.93c0.27-0.25,0.71-1.29,0.94-1.25c0.48,0.08,0.81,0.41,0.8,0.17c0-0.24-0.36-0.74-0.79-1.43
					c-0.33-0.53-0.86-0.97-1.17-1.01l0.07,1.07c0,0,0.18,0.33,0.25,0.92C43.45,95.03,43.45,95.49,43.27,95.93z"/>
			</g>
		</g>
		<g>
			<path class="st16" d="M36.57,100.35c-0.08,0.35-0.25,1.4-0.43,2.59l-5.61,2.9c0.05-0.53,0.15-1.21,0.28-2.17
				c0.42-3.12,0.84-5.1,1.36-6.25c0.53-1.15,1.51-1.85,2.92-2.43C36.63,96.72,36.8,99.37,36.57,100.35z"/>
		</g>
	</g>
	<g id="Hand_3_">
		<path class="st37" d="M54.03,92.77c-0.04,0.41-0.05,0.67-0.05,0.95l-3.12,1.62c0.03-0.6,0.07-1.14,0.11-1.47
			c0.14-1.13-0.54-1.45-0.92-2.13c-0.38-0.68-0.3-1.25-0.57-1.96c-0.26-0.71-0.55-1.05-0.05-1.07c0.51-0.03,0.99,0.82,1.13,0.98
			c0.07,0.08,0.14,0.31,0.24,0.42c0.1,0.11,0.22,0.09,0.38-0.31c0.32-0.81-0.23-2.41-0.19-3.27c0.01-0.27,0.29-0.84,0.55-0.72
			c0.16,0.08,0.52,1.02,0.52,1.02c0.31,0.08,1.04,0.41,1.46,0.9c0.45,0.52,0.64,0.78,0.72,1.66c0.07,0.73,0.09,1.22-0.02,2.42
			C54.2,92.06,54.06,92.55,54.03,92.77z"/>
		<path class="st50" d="M51.64,90.42c0.58,0.65,0.78,1.74,0.62,2.53C52.69,92.29,52.74,90.87,51.64,90.42z"/>
	</g>
</g>
<g id="Window_7_">
	<g id="Shadow_17_" class="st25">
		<path class="st12" d="M24.59,54.53l29.38-15.19c0.21-0.11,0.38-0.02,0.38,0.19l0,23.31c0,0.21-0.17,0.48-0.38,0.58L24.59,78.61
			c-0.21,0.11-0.38,0.02-0.38-0.19l0-23.31C24.22,54.9,24.39,54.64,24.59,54.53z"/>
	</g>
	<g id="Speech_Bubble_16_">
		<g id="XMLID_5659_">
			<g id="XMLID_5661_">
				<path class="st12" d="M27.02,56.35c0.02-0.03,0.03-0.06,0.05-0.09h0C27.05,56.29,27.04,56.32,27.02,56.35z"/>
				<path class="st43" d="M56.68,41.14c-0.03-0.1-0.11-0.16-0.21-0.16c-0.06,0-0.12,0.02-0.19,0.05L27.37,55.98
					c-0.12,0.06-0.22,0.16-0.3,0.28l-1.54-0.8c0.08-0.11,0.18-0.21,0.29-0.27l28.91-14.94c0.23-0.12,0.61-0.12,0.85,0l0.71,0.35
					C56.47,40.71,56.64,40.93,56.68,41.14z"/>
			</g>
			<g id="XMLID_5660_" class="st44">
				<path class="st12" d="M27.37,80.05c-0.22,0.12-0.63,0.12-0.85,0l-0.71-0.37c-0.23-0.12-0.42-0.41-0.42-0.65V55.85
					c0-0.13,0.05-0.26,0.13-0.39l1.55,0.8c-0.08,0.12-0.12,0.25-0.12,0.37l0,23.19C26.95,80.05,27.12,80.18,27.37,80.05z"/>
			</g>
		</g>
		<g class="st45">
			<path class="st12" d="M56.47,41.05c-0.06,0-0.12,0.02-0.19,0.05L27.37,56.04c-0.23,0.12-0.42,0.41-0.42,0.65v23.19
				c0,0.17,0.1,0.27,0.23,0.27c0.06,0,0.12-0.02,0.19-0.05l28.91-14.94c0.23-0.12,0.42-0.41,0.42-0.65V41.32
				C56.7,41.15,56.6,41.05,56.47,41.05L56.47,41.05z"/>
		</g>
		<polygon class="st12" points="26.97,78.8 56.7,63.43 56.7,42.38 26.97,57.75 		"/>
		<path class="st12" d="M56.47,41.16c0.04,0,0.05,0.08,0.05,0.1v23.19c0,0.18-0.15,0.42-0.33,0.51L27.28,79.9
			c-0.05,0.03-0.08,0.03-0.09,0.03c-0.04,0-0.05-0.08-0.05-0.1V56.63c0-0.18,0.15-0.42,0.33-0.51l28.91-14.94
			C56.42,41.16,56.45,41.16,56.47,41.16 M56.47,40.99c-0.06,0-0.12,0.02-0.19,0.05L27.37,55.98c-0.23,0.12-0.42,0.41-0.42,0.65
			v23.19c0,0.17,0.1,0.27,0.23,0.27c0.06,0,0.12-0.02,0.19-0.05l28.91-14.94c0.23-0.12,0.42-0.41,0.42-0.65V41.26
			C56.7,41.09,56.6,40.99,56.47,40.99L56.47,40.99z"/>
	</g>
	<g>
		<path class="st12" d="M54.93,42.8c0.12-0.06,0.22-0.22,0.22-0.35c0-0.13-0.1-0.18-0.22-0.12c-0.12,0.06-0.22,0.22-0.22,0.35
			C54.71,42.81,54.81,42.86,54.93,42.8z"/>
		<g>
			<path class="st12" d="M55.67,42.42c0.12-0.06,0.22-0.22,0.22-0.35c0-0.13-0.1-0.18-0.22-0.12c-0.12,0.06-0.22,0.22-0.22,0.35
				C55.44,42.43,55.54,42.48,55.67,42.42z"/>
		</g>
		<path class="st12" d="M54.2,43.17c0.12-0.06,0.22-0.22,0.22-0.35c0-0.13-0.1-0.18-0.22-0.12c-0.12,0.06-0.22,0.22-0.22,0.35
			C53.97,43.19,54.07,43.24,54.2,43.17z"/>
	</g>
	<path id="XMLID_5643_" class="st12" d="M28.74,57.66c0.41-0.21,0.74-0.04,0.74,0.38c0,0.42-0.33,0.94-0.74,1.15
		C28.33,59.4,28,59.23,28,58.81C28,58.38,28.33,57.87,28.74,57.66z"/>
	<path class="st12" d="M28.74,58.49c0.13-0.07,0.24-0.24,0.24-0.37s-0.11-0.19-0.24-0.12c-0.13,0.07-0.24,0.24-0.24,0.37
		C28.5,58.5,28.6,58.56,28.74,58.49z M28.81,58.52l-0.14,0.07c-0.22,0.11-0.4,0.39-0.4,0.61v0.06c0.04,0.01,0.08,0.02,0.13,0.02
		c0.1,0,0.21-0.03,0.33-0.09c0.18-0.09,0.34-0.24,0.47-0.42v-0.05C29.21,58.5,29.03,58.41,28.81,58.52z"/>
	<path class="st51" d="M28.74,58.49c0.13-0.07,0.24-0.24,0.24-0.37s-0.11-0.19-0.24-0.12c-0.13,0.07-0.24,0.24-0.24,0.37
		C28.5,58.5,28.6,58.56,28.74,58.49z M28.81,58.52l-0.14,0.07c-0.22,0.11-0.4,0.39-0.4,0.61v0.06c0.04,0.01,0.08,0.02,0.13,0.02
		c0.1,0,0.21-0.03,0.33-0.09c0.18-0.09,0.34-0.24,0.47-0.42v-0.05C29.21,58.5,29.03,58.41,28.81,58.52z"/>
	<path class="st12" d="M30.25,58.15l2.18-1.13c0.14-0.07,0.25-0.25,0.25-0.39v-0.07c0-0.14-0.11-0.2-0.25-0.13l-2.18,1.13
		C30.11,57.63,30,57.81,30,57.95v0.07C30,58.17,30.11,58.22,30.25,58.15z"/>
</g>
<g id="Arm_15_">
	<path class="st36" d="M48.85,67.49l-3.46,1.79l-1.68-4.4c1.47-0.04,2.25,0.01,3.27,0.9C47.38,66.12,48.38,67.08,48.85,67.49z"/>
</g>
<g id="Chest_14_">
	<path class="st52" d="M47.22,68.34l-11.1,5.74c-0.16-0.69-0.32-1.27-0.32-1.27s1.25-0.33,1.46-2.33c0.27-2.57-0.96-3.79-0.96-3.79
		s0.89-0.47,2.05-0.87c1.16-0.4,1.81-0.61,4-0.9l1.38-0.04c0,0,1.51,1,2.64,2.13C46.57,67.22,47.16,67.92,47.22,68.34z"/>
</g>
<path id="Hair" class="st32" d="M45.55,64.14c0.3-2.04-2.36-1.85-3.13-3.16l2.02-1.41c1.25-0.76,1-2.42,0.58-3.27
	c-0.93-1.9-3.17-2.5-4.52-2.49c-2.56,0.01-3.73,0.72-3.85,2c-0.95-0.02-2.27,0.97-2.13,3.73c0.03,0.55,0.1,1.22-0.18,1.7
	c-0.25,0.42-0.62,0.83-0.78,1.3c-0.26,0.79,0.06,1.92,1.09,2.03c-0.09-0.21-0.22-0.48-0.05-0.68c0.12,0.97,1.9,1.52,2.69,1.26
	c-0.22-0.12-0.39-0.23-0.47-0.47c1.34,0.62,2.45,0.33,3.75-0.18c0.23-0.09,0.39-0.13,1.16,0.05c0.47,0.11,1.03,0.16,1.89-0.31
	C44.15,63.94,44.99,63.51,45.55,64.14z"/>
<g id="XMLID_5729_">
	<g id="XMLID_5744_">
		<path id="XMLID_5745_" class="st34" d="M37.62,62.16c-0.45,0.09-0.9-0.12-1.2-0.41c-0.66-0.64-0.77-1.31-0.51-1.76
			c0.21-0.37,0.78-0.61,1.2-0.38c0.46,0.26,0.48,0.47,0.67,0.77c0.19,0.3,0.82,0.26,0.89-0.95c0.06-1.13,0.17-2.16,0.71-2.68
			c0.8-0.77,1.81-0.46,2.18-0.02c0.31-0.53,0.91-0.75,1.51-0.46c0.59,0.28,0.97,0.9,1.31,3.03c0.36,2.17-0.01,3.72-0.5,4.1
			c-0.37,0.29-0.87,0.35-1.71,0.41l0.07,1.44c0,0,1.34,0.94,1.47,2.81c-1.47-0.29-4.16-1.13-5.42-2.14l-0.22-4.11
			C38.08,61.81,38.05,62.07,37.62,62.16z"/>
	</g>
	<g>
		<g>
			<g id="XMLID_5742_">
				<path id="XMLID_5743_" class="st16" d="M40.95,59.56c-0.05,0.2-0.25,0.31-0.45,0.26c-0.2-0.06-0.32-0.26-0.27-0.46
					c0.05-0.2,0.25-0.31,0.45-0.26C40.88,59.16,41,59.37,40.95,59.56z"/>
			</g>
			<path class="st16" d="M40.55,59.09c-0.23,0.01-0.35,0.32-0.58,0.2c0.05,0.16,0.31,0.25,0.47,0.17
				C40.53,59.41,40.55,59.09,40.55,59.09z"/>
		</g>
		<g id="XMLID_5740_">
			<path id="XMLID_5741_" class="st16" d="M43.78,58.49l-0.82-0.37c0.09-0.22,0.34-0.31,0.57-0.21
				C43.76,58.01,43.87,58.27,43.78,58.49z"/>
		</g>
		<g>
			<g id="XMLID_5738_">
				<path id="XMLID_5739_" class="st16" d="M42.92,59.41c0.09,0.19,0.31,0.29,0.5,0.22c0.19-0.07,0.27-0.29,0.18-0.48
					c-0.09-0.19-0.31-0.29-0.5-0.22C42.92,59,42.83,59.22,42.92,59.41z"/>
			</g>
			<path class="st16" d="M43.24,58.91c0.23-0.01,0.41,0.28,0.62,0.15c-0.02,0.16-0.26,0.28-0.43,0.21
				C43.31,59.22,43.24,58.91,43.24,58.91z"/>
		</g>
		<g id="XMLID_5736_">
			<path id="XMLID_5737_" class="st16" d="M40.56,58.28l-0.77,0.5c-0.16-0.21-0.12-0.49,0.09-0.63
				C40.09,58.01,40.4,58.07,40.56,58.28z"/>
		</g>
		<g id="XMLID_5734_">
			<path id="XMLID_5735_" class="st37" d="M40.8,61.37l1.26,0.31c-0.06,0.34-0.43,0.54-0.83,0.43
				C40.89,62.01,40.74,61.71,40.8,61.37z"/>
			<path class="st36" d="M41.59,62.13c-0.07-0.33-0.39-0.57-0.74-0.54c-0.02,0-0.04,0.01-0.06,0.01c0.03,0.24,0.18,0.44,0.45,0.52
				C41.36,62.15,41.48,62.15,41.59,62.13z"/>
		</g>
		<g id="XMLID_5732_">
			<polygon id="XMLID_5733_" class="st36" points="41.65,58.77 42.05,60.91 43.22,60.44 			"/>
		</g>
		<g id="XMLID_5730_">
			<path id="XMLID_5731_" class="st36" d="M42.18,63.81c-0.79-0.03-1.62-0.1-2.44-0.38c-0.29-0.1-0.71-0.57-1.07-1.1
				c0,0,0.32,1.06,0.96,1.4c0.97,0.52,2.57,0.57,2.57,0.57L42.18,63.81z"/>
		</g>
	</g>
</g>
<g>
	<path class="st52" d="M38.41,62.23c0.06,0.41-0.15,0.79-0.5,0.97c-0.11,0.06-0.24,0.1-0.38,0.11c-0.57,0.05-1.09-0.36-1.16-0.9
		c-0.03-0.22,0.01-0.43,0.11-0.61c0.03,0.03,0.06,0.06,0.1,0.08c0.06,0.05,0.13,0.09,0.19,0.12c-0.06,0.12-0.09,0.25-0.07,0.38
		c0.05,0.37,0.41,0.64,0.79,0.61c0.15-0.02,0.28-0.07,0.39-0.17c0.15-0.14,0.24-0.34,0.21-0.56c-0.05-0.37-0.41-0.64-0.78-0.61
		c-0.1,0.01-0.18-0.06-0.19-0.15c-0.01-0.09,0.05-0.17,0.14-0.18C37.81,61.28,38.33,61.69,38.41,62.23z"/>
	<path class="st53" d="M38.41,62.23c0.06,0.41-0.15,0.79-0.5,0.97c-0.11,0.06-0.24,0.1-0.38,0.11c-0.57,0.05-1.09-0.36-1.16-0.9
		c-0.03-0.22,0.01-0.43,0.11-0.61c0.03,0.03,0.06,0.06,0.1,0.08c0.06,0.05,0.13,0.09,0.19,0.12c-0.06,0.12-0.09,0.25-0.07,0.38
		c0.05,0.37,0.41,0.64,0.79,0.61c0.15-0.02,0.28-0.07,0.39-0.17c0.15-0.14,0.24-0.34,0.21-0.56c-0.05-0.37-0.41-0.64-0.78-0.61
		c-0.1,0.01-0.18-0.06-0.19-0.15c-0.01-0.09,0.05-0.17,0.14-0.18C37.81,61.28,38.33,61.69,38.41,62.23z"/>
</g>
<g id="Arm_7_">
	<path class="st34" d="M37.97,73.12l-4.01,2.07c0.01-0.71-0.01-2.05-0.06-3.2c-0.16-3.74,0.47-4.23,2.39-5.3
		c2,1.65,1.72,4.78,1.72,4.78C38.03,71.8,38,72.49,37.97,73.12z"/>
</g>
<g id="Hand_2_">
	<g>
		<path class="st34" d="M54.15,59.6c-0.06,0.21-0.33,0.9-0.45,1.56c-0.08,0.41-0.08,0.94-0.11,1.23c-0.07,0.6-0.15,1.02-0.55,1.54
			c-0.29,0.38-0.18,0.95-0.15,1.48l-2.65,1.37c0.02-0.55,0.07-1.03,0.08-1.47c0.01-0.83,0.08-1.36-0.46-2.12
			c-0.16-0.21-0.45-0.57-0.65-0.89c-0.39-0.62-0.61-1.09-0.89-1.45c-0.2-0.26,0.02-0.54,0.59-0.33c0.34,0.13,0.61,0.49,0.89,0.81
			c0.31,0.33,0.42,0.16,0.45-0.21c0.04-0.37,0.18-2.17,0.26-2.74c0.05-0.32,0.08-0.55,0.22-0.61c0.13-0.06,0.56-0.02,0.54,0.73
			c-0.02,0.81-0.19,2-0.12,2c0.06,0,0.15-0.78,0.3-1.59c0.15-0.75,0.19-1.08,0.29-1.3c0.09-0.2,0.52-0.36,0.61,0.25
			c0.04,0.29,0,0.5-0.16,1.6c-0.11,0.76-0.09,1.01-0.09,1.01c0.07,0.04,0.2-0.56,0.49-1.26c0.26-0.64,0.39-0.97,0.55-1.18
			c0.08-0.11,0.38,0.03,0.41,0.33c0.02,0.15-0.07,0.44-0.18,0.79c-0.15,0.48-0.16,0.56-0.26,0.92c-0.07,0.25-0.16,0.58-0.11,0.6
			c0.05,0.02,0.3-0.86,0.75-1.48C54,58.88,54.25,59.27,54.15,59.6z"/>
		<path class="st36" d="M50.5,61.79c0.59,0.2,1.37,1.06,1.52,1.77C52.19,62.68,51.4,61.8,50.5,61.79z"/>
	</g>
</g>
<rect x="25.11" y="131.61" class="st19" width="133.05" height="1.11"/>
</svg>
