<?xml version="1.0" encoding="utf-8"?>
<!-- Generator: Adobe Illustrator 24.0.2, SVG Export Plug-In . SVG Version: 6.00 Build 0)  -->
<svg version="1.1" id="Layer_1" xmlns="http://www.w3.org/2000/svg" xmlns:xlink="http://www.w3.org/1999/xlink" x="0px" y="0px"
	 viewBox="0 0 184.5 141.72" style="enable-background:new 0 0 184.5 141.72;" xml:space="preserve">
<style type="text/css">
	.st0{fill:#F3F3F3;}
	.st1{fill:#E95770;}
	.st2{fill:#DAB3A6;}
	.st3{fill:#FFFFFF;stroke:#6F6F6E;stroke-miterlimit:10;}
	.st4{fill:#8B5990;}
	.st5{fill:#F8B23E;}
	.st6{fill:#F6B6A9;}
	.st7{fill:#E51B4D;}
	.st8{fill:#F7E4DC;}
	.st9{fill:#BAC4E5;}
	.st10{fill:#FFFFFF;}
	.st11{fill:#E20613;}
	.st12{fill:#FFFFFF;stroke:#6F6F6E;stroke-width:0.5;stroke-miterlimit:10;}
	.st13{fill:none;stroke:#6F6F6E;stroke-width:0.25;stroke-miterlimit:10;}
	.st14{fill:#FFFFFF;stroke:#6F6F6E;stroke-width:0.25;stroke-miterlimit:10;}
	.st15{fill:#E98B73;}
	.st16{fill:#263239;}
	.st17{fill:#592B5B;}
	.st18{fill:#833A5D;}
	.st19{fill:#575756;}
	.st20{fill:none;stroke:#6F6F6E;stroke-miterlimit:10;}
	.st21{fill:#F08C80;}
	.st22{fill:#ED968A;}
	.st23{opacity:0.1;fill:#E51B4D;}
	.st24{opacity:0.2;fill:#E51B4D;}
	.st25{opacity:0.2;}
	.st26{fill:#E9505B;}
	.st27{fill:#F8BC9E;}
	.st28{fill:#EC9A6E;}
	.st29{fill:#455A64;}
	.st30{fill:#ED7280;}
	.st31{opacity:0.9;fill:#263239;}
	.st32{fill:#37474F;}
	.st33{fill:#FBFBFB;}
	.st34{fill:#F8BBA7;}
	.st35{fill:#A56BAA;}
	.st36{fill:#F1997A;}
	.st37{fill:#B26668;}
	.st38{opacity:0.5;fill:#A56BAA;}
	.st39{opacity:0.15;fill:#E9505B;}
	.st40{opacity:0.45;fill:#FFFFFF;}
	.st41{fill-rule:evenodd;clip-rule:evenodd;fill:#FFFFFF;}
	.st42{opacity:0.45;}
	.st43{opacity:0.5;fill:#FFFFFF;stroke:#6F6F6E;stroke-width:0.5;stroke-miterlimit:10;}
	.st44{opacity:0.9;}
	.st45{opacity:0.85;}
	.st46{fill:#C9866A;}
	.st47{fill:#B06152;}
	.st48{fill:#F4A6A7;}
	.st49{fill:#F28F8F;}
	.st50{fill:#9B4B4E;}
	.st51{opacity:0.45;fill:#FFFFFF;stroke:#6F6F6E;stroke-width:0.5;stroke-miterlimit:10;}
	.st52{fill:#95C88B;}
	.st53{opacity:0.2;fill:#95C88B;}
	.st54{fill:#E5E7EA;}
	.st55{fill:#BDBABA;}
	.st56{fill:none;}
	.st57{fill:#A1AED1;}
	.st58{fill:#6F6F6E;}
	.st59{fill:#44B8B6;}
	.st60{fill:#CCAE2F;}
	.st61{fill:#E5C536;}
	.st62{fill:#84CBCE;}
	.st63{fill:#A4D7DF;}
</style>
<path class="st0" d="M164.37,131.39c5.88-11.73,11.17-24.13,13.5-37.57c2.32-13.44,1.42-28.12-4.45-39.86
	c-5.87-11.74-17.25-19.8-28.45-17.89c-9.56,1.63-18.63,9.99-27.99,7.1c-9.67-2.98-14.31-16.31-22.45-23.3
	c-14.38-12.33-36.95-3.33-45.89,13.7c-6.01,11.44-7.38,26.64-15.85,35.49c-6.41,6.69-15.9,8.52-21.18,16.53
	c-4.48,6.81-4.67,16.83-1.67,24.74c3,7.92,9.34,16.59,15.64,20.75L164.37,131.39z"/>
<path class="st3" d="M136.25,119.82c0-0.01,0-0.03,0-0.04H30.62c0,0.01,0,0.03,0,0.04c0,1.43,0.24,2.76,0.66,3.87h104.31
	C136.01,122.58,136.25,121.25,136.25,119.82z"/>
<path class="st3" d="M31.28,123.69c0.73,1.95,2,3.24,3.45,3.24h97.41c1.44,0,2.72-1.29,3.45-3.24H31.28z"/>
<path class="st3" d="M126.32,58.95v54.97l3.3,2.12c0.81-1.16,1.3-2.65,1.3-4.29V61.17c0-3.66-2.45-6.62-5.48-6.62H41.42
	c-1.64,0-3.1,0.87-4.11,2.24l3.37,2.17H126.32z"/>
<path class="st3" d="M126.32,113.92v0.05H40.54V58.95h0.14l-3.37-2.17c-0.85,1.17-1.37,2.7-1.37,4.39v50.58
	c0,3.66,2.45,6.62,5.48,6.62h84.03c1.67,0,3.17-0.91,4.18-2.34L126.32,113.92z"/>
<rect x="40.56" y="58.98" class="st54" width="85.75" height="54.95"/>
<path class="st55" d="M81.9,56.73c0,0.92,0.68,1.67,1.53,1.67c0.84,0,1.53-0.75,1.53-1.67c0-0.92-0.68-1.67-1.53-1.67
	C82.59,55.06,81.9,55.81,81.9,56.73z"/>
<polygon class="st56" points="40.54,58.95 40.54,113.97 126.32,113.97 126.32,113.92 40.69,58.95 "/>
<path class="st57" d="M107.27,100.72l2.55,1.19c0,0,2.34-2.08,5.2-1.63c2.35,0.37,3.67,1.63,4.48,3.86l6.74,4.1l0.06,5.7
	l-33.16-1.19l-8.29-7.28l5.03-5.64L107.27,100.72z"/>
<path class="st57" d="M84.82,96.97c0.21,0.6,0.43,1.2,0.67,1.81l0,0c0.07,0,0.13-0.01,0.2-0.01c0.07,0,0.15,0,0.22,0
	c0.09,0,0.19,0.01,0.28,0.01c0.03,0,0.06,0.01,0.09,0.01c0.06,0.01,0.12,0.01,0.19,0.02c0.04,0,0.07,0.01,0.11,0.02
	c0.05,0.01,0.11,0.02,0.16,0.03c0.04,0.01,0.08,0.02,0.12,0.02c0.05,0.01,0.1,0.02,0.15,0.03c0.04,0.01,0.08,0.02,0.12,0.03
	c0.05,0.01,0.1,0.03,0.15,0.04c0.04,0.01,0.08,0.03,0.12,0.04c0.05,0.02,0.09,0.03,0.14,0.05c0.04,0.01,0.08,0.03,0.12,0.05
	c0.05,0.02,0.09,0.04,0.13,0.05c0.04,0.02,0.08,0.03,0.12,0.05c0.04,0.02,0.09,0.04,0.13,0.06c0.04,0.02,0.08,0.04,0.12,0.06
	c0.04,0.02,0.08,0.04,0.13,0.07c0.04,0.02,0.08,0.04,0.11,0.07c0.04,0.02,0.08,0.05,0.12,0.07c0.04,0.02,0.07,0.05,0.11,0.07
	c0.04,0.03,0.08,0.05,0.12,0.08c0.04,0.02,0.07,0.05,0.1,0.08c0.04,0.03,0.08,0.06,0.11,0.09c0.03,0.03,0.07,0.05,0.1,0.08
	c0.04,0.03,0.07,0.06,0.11,0.1c0.03,0.03,0.06,0.05,0.09,0.08c0.04,0.03,0.07,0.07,0.11,0.1c0.03,0.03,0.06,0.06,0.09,0.09
	c0.04,0.04,0.07,0.08,0.11,0.11c0.03,0.03,0.05,0.06,0.08,0.09c0.04,0.04,0.07,0.08,0.11,0.13c0.02,0.02,0.04,0.04,0.06,0.07
	c0,0.01,0.01,0.01,0.01,0.02c0.03,0.03,0.05,0.07,0.08,0.1c0.03,0.04,0.06,0.07,0.08,0.11c0.03,0.03,0.05,0.07,0.07,0.1
	c0.03,0.04,0.05,0.08,0.08,0.11c0.02,0.03,0.05,0.07,0.07,0.11c0.03,0.04,0.05,0.08,0.08,0.12c0.02,0.04,0.04,0.07,0.06,0.11
	c0.02,0.04,0.05,0.08,0.07,0.12c0.02,0.04,0.04,0.07,0.06,0.11c0.02,0.04,0.04,0.09,0.07,0.13c0.01,0.02,0.02,0.04,0.03,0.06h19.22
	c0,0,0.02-0.92-0.52-1.75c-0.02-0.03-0.05-0.05-0.06-0.07c-0.02-0.02-0.03-0.03-0.05-0.05c-0.05-0.05-0.09-0.1-0.14-0.14
	c-0.01-0.01-0.01-0.01-0.02-0.02c-0.06-0.05-0.11-0.11-0.17-0.16c-0.01-0.01-0.02-0.02-0.04-0.03c-0.05-0.04-0.09-0.08-0.14-0.11
	c-0.02-0.02-0.04-0.03-0.06-0.05c-0.04-0.03-0.08-0.06-0.12-0.08c-0.02-0.02-0.05-0.03-0.08-0.05c-0.04-0.02-0.07-0.05-0.11-0.07
	c-0.03-0.02-0.06-0.03-0.08-0.05c-0.04-0.02-0.07-0.04-0.11-0.06c-0.03-0.02-0.06-0.03-0.09-0.04c-0.04-0.02-0.07-0.04-0.11-0.05
	c-0.03-0.01-0.06-0.03-0.09-0.04c-0.04-0.02-0.07-0.03-0.11-0.04c-0.03-0.01-0.06-0.02-0.09-0.04c-0.04-0.01-0.07-0.03-0.11-0.04
	c-0.03-0.01-0.06-0.02-0.1-0.03c-0.04-0.01-0.08-0.02-0.12-0.03c-0.04-0.01-0.08-0.02-0.12-0.03c-0.03-0.01-0.06-0.01-0.1-0.02
	c-0.03-0.01-0.06-0.01-0.09-0.02c-0.04-0.01-0.09-0.01-0.13-0.02c-0.03,0-0.06-0.01-0.08-0.01c-0.06-0.01-0.11-0.01-0.17-0.01
	c-0.02,0-0.03,0-0.05,0c-0.07,0-0.14,0-0.22,0c-0.08,0-0.16,0.01-0.24,0.01c-0.41,0.04-0.82,0.15-1.21,0.33
	c-0.13,0.06-0.25,0.13-0.37,0.2c0.13-0.54,0.1-1.12-0.12-1.68c-0.03-0.08-0.06-0.15-0.1-0.22c-0.01-0.02-0.02-0.04-0.03-0.06
	c-0.03-0.05-0.05-0.1-0.08-0.14c-0.01-0.02-0.03-0.05-0.04-0.07c-0.03-0.04-0.06-0.09-0.09-0.13c-0.02-0.02-0.03-0.04-0.05-0.06
	c-0.04-0.05-0.08-0.1-0.12-0.14c-0.01-0.01-0.02-0.02-0.02-0.03c-0.05-0.05-0.1-0.1-0.16-0.15c-0.02-0.01-0.03-0.03-0.05-0.04
	c-0.04-0.03-0.08-0.06-0.12-0.09c-0.02-0.02-0.04-0.03-0.06-0.04c-0.04-0.03-0.08-0.05-0.12-0.08c-0.02-0.01-0.04-0.03-0.06-0.04
	c-0.05-0.03-0.11-0.06-0.16-0.08c-0.01,0-0.02-0.01-0.03-0.01c-0.06-0.03-0.13-0.05-0.2-0.07c-0.02-0.01-0.04-0.01-0.06-0.02
	c-0.05-0.01-0.09-0.03-0.14-0.04c-0.02-0.01-0.05-0.01-0.07-0.01c-0.05-0.01-0.1-0.02-0.14-0.02c-0.02,0-0.04-0.01-0.07-0.01
	c-0.07-0.01-0.13-0.01-0.2-0.01c0,0-0.01,0-0.01,0c-0.07,0-0.14,0.01-0.21,0.01c-0.02,0-0.04,0.01-0.06,0.01
	c-0.05,0.01-0.1,0.02-0.15,0.03c-0.02,0.01-0.05,0.01-0.07,0.02c-0.05,0.01-0.1,0.03-0.15,0.04c-0.02,0.01-0.04,0.01-0.07,0.02
	c-0.07,0.02-0.14,0.05-0.21,0.08c-0.01,0-0.01,0.01-0.02,0.01c-0.05,0.02-0.1,0.05-0.15,0.08c-0.02,0.01-0.03,0.02-0.05,0.03
	c-0.04,0.02-0.07,0.05-0.11,0.07c-0.02,0.01-0.03,0.02-0.05,0.03c-0.04,0.03-0.08,0.06-0.11,0.09c-0.01,0.01-0.02,0.02-0.03,0.03
	c-0.05,0.04-0.09,0.08-0.13,0.12c-0.01,0.01-0.02,0.02-0.03,0.04c-0.03,0.03-0.06,0.07-0.09,0.1c-0.01,0.02-0.03,0.03-0.04,0.05
	c-0.03,0.03-0.06,0.07-0.08,0.1c-0.01,0.01-0.02,0.03-0.03,0.04c-0.04,0.05-0.07,0.1-0.1,0.15c0,0.01-0.01,0.01-0.01,0.02
	c-0.03,0.05-0.06,0.1-0.08,0.14c-0.01,0.02-0.02,0.03-0.02,0.05c-0.02,0.04-0.04,0.08-0.06,0.13c-0.01,0.02-0.01,0.03-0.02,0.05
	c-0.02,0.06-0.05,0.11-0.06,0.17c0,0,0,0,0,0c-0.02,0.06-0.04,0.12-0.05,0.18c0,0.02-0.01,0.03-0.01,0.05
	c-0.01,0.05-0.02,0.09-0.03,0.14c-0.01,0.03-0.01,0.06-0.02,0.09c-1.09-0.94-2.6-1.22-3.96-0.58c-0.27,0.13-0.51,0.28-0.74,0.46
	l-0.46-0.07c-0.06-0.23-0.14-0.46-0.23-0.69c-0.03-0.08-0.07-0.17-0.11-0.25c-0.01-0.03-0.02-0.05-0.04-0.08
	c-0.03-0.06-0.05-0.11-0.08-0.17c-0.01-0.03-0.03-0.06-0.04-0.08c-0.03-0.05-0.06-0.1-0.08-0.16c-0.01-0.03-0.03-0.05-0.04-0.08
	c-0.03-0.06-0.06-0.11-0.1-0.16c-0.01-0.02-0.02-0.04-0.04-0.06c-0.05-0.07-0.09-0.15-0.14-0.22c0-0.01-0.01-0.01-0.01-0.02
	c-0.05-0.06-0.09-0.13-0.14-0.19c-0.02-0.02-0.03-0.04-0.05-0.06c-0.03-0.04-0.06-0.08-0.1-0.12c-0.08-0.1-0.16-0.19-0.25-0.28
	c-0.02-0.02-0.03-0.03-0.05-0.05c-0.08-0.08-0.16-0.16-0.24-0.23c-0.02-0.02-0.03-0.03-0.05-0.05c-0.09-0.08-0.18-0.16-0.28-0.23
	c-0.02-0.02-0.04-0.03-0.07-0.05c-0.09-0.07-0.19-0.14-0.29-0.2c-0.01,0-0.01-0.01-0.02-0.01c-0.1-0.07-0.21-0.13-0.31-0.18
	c-0.02-0.01-0.05-0.03-0.07-0.04c-0.11-0.06-0.21-0.11-0.32-0.16c-0.02-0.01-0.03-0.01-0.05-0.02c-0.1-0.04-0.2-0.08-0.3-0.12
	c-0.02-0.01-0.04-0.02-0.07-0.02c-0.11-0.04-0.22-0.07-0.34-0.1c-0.02-0.01-0.05-0.01-0.07-0.02c-0.11-0.03-0.22-0.05-0.33-0.07
	c-0.01,0-0.02-0.01-0.04-0.01c-0.12-0.02-0.24-0.03-0.35-0.05c-0.03,0-0.05,0-0.08-0.01c-0.12-0.01-0.24-0.02-0.36-0.02
	c-0.01,0-0.02,0-0.03,0c-0.11,0-0.23,0-0.35,0.01c-0.02,0-0.05,0-0.07,0.01c-0.12,0.01-0.24,0.02-0.36,0.04
	c-0.02,0-0.04,0.01-0.06,0.01c-0.11,0.02-0.22,0.04-0.33,0.07c-0.02,0-0.04,0.01-0.05,0.01c-0.12,0.03-0.24,0.07-0.36,0.11
	c-0.03,0.01-0.05,0.02-0.08,0.03c-0.12,0.04-0.24,0.09-0.36,0.14c-1.08-2.09-2.04-13.71-2.57-17.51l-2.94,0.49
	C82.12,77.91,82.75,91.11,84.82,96.97z"/>
<path class="st9" d="M90.56,101.85c-0.02-0.04-0.04-0.09-0.07-0.13c-0.02-0.04-0.04-0.07-0.06-0.11c-0.02-0.04-0.05-0.08-0.07-0.12
	c-0.02-0.04-0.04-0.07-0.06-0.11c-0.02-0.04-0.05-0.08-0.08-0.12c-0.02-0.04-0.05-0.07-0.07-0.11c-0.03-0.04-0.05-0.08-0.08-0.11
	c-0.02-0.03-0.05-0.07-0.07-0.1c-0.03-0.04-0.06-0.07-0.08-0.11c-0.03-0.03-0.05-0.07-0.08-0.1c-0.02-0.03-0.05-0.06-0.07-0.08
	c-0.04-0.04-0.07-0.09-0.11-0.13c-0.03-0.03-0.05-0.06-0.08-0.09c-0.04-0.04-0.07-0.08-0.11-0.11c-0.03-0.03-0.06-0.06-0.09-0.09
	c-0.04-0.03-0.07-0.07-0.11-0.1c-0.03-0.03-0.06-0.06-0.09-0.08c-0.04-0.03-0.07-0.06-0.11-0.1c-0.03-0.03-0.07-0.05-0.1-0.08
	c-0.04-0.03-0.08-0.06-0.11-0.09c-0.03-0.03-0.07-0.05-0.1-0.08c-0.04-0.03-0.08-0.05-0.12-0.08c-0.04-0.02-0.07-0.05-0.11-0.07
	c-0.04-0.03-0.08-0.05-0.12-0.07c-0.04-0.02-0.07-0.04-0.11-0.07c-0.04-0.02-0.08-0.05-0.13-0.07c-0.04-0.02-0.08-0.04-0.12-0.06
	c-0.04-0.02-0.09-0.04-0.13-0.06c-0.04-0.02-0.08-0.04-0.12-0.05c-0.04-0.02-0.09-0.04-0.13-0.05c-0.04-0.02-0.08-0.03-0.12-0.05
	c-0.05-0.02-0.09-0.03-0.14-0.05c-0.04-0.01-0.08-0.03-0.12-0.04c-0.05-0.01-0.1-0.03-0.15-0.04c-0.04-0.01-0.08-0.02-0.12-0.03
	c-0.05-0.01-0.1-0.02-0.15-0.03c-0.04-0.01-0.08-0.02-0.12-0.02c-0.05-0.01-0.11-0.02-0.16-0.03c-0.04-0.01-0.07-0.01-0.11-0.02
	c-0.06-0.01-0.12-0.01-0.19-0.02c-0.03,0-0.06-0.01-0.09-0.01c-0.09-0.01-0.19-0.01-0.28-0.01c-0.07,0-0.15,0-0.22,0
	c-0.07,0-0.13,0.01-0.2,0.01l0,0c-0.24-0.61-0.46-1.21-0.67-1.81c-2.06-5.86-2.1-19.52-2.18-20.2l2.65-0.1l-5.17,0.19
	c0,0-1.29,13.14-2.77,17.61c-0.29,0.89-0.62,1.78-0.98,2.63c-1.46-1.41-3.7-1.43-5.18,0.03c-0.35,0.35-0.63,0.75-0.84,1.18
	c-1.38-0.71-3.07-0.5-4.28,0.69c-0.06,0.06-0.11,0.12-0.17,0.18c-0.1-0.31-0.26-0.6-0.47-0.86c-0.88-1.07-2.39-1.15-3.36-0.19
	c-0.51,0.5-0.77,1.2-0.78,1.89c-1.35-0.64-2.98-0.4-4.15,0.75c-0.34,0.34-0.61,0.72-0.82,1.14h34.27
	C90.58,101.89,90.57,101.87,90.56,101.85z"/>
<path class="st58" d="M72.83,98.66c-0.05-0.02-0.1-0.04-0.15-0.06c-0.05-0.01-0.1-0.03-0.15-0.04l-0.07-0.01l-0.07-0.01
	c-0.05-0.01-0.1,0-0.15,0c-0.05,0-0.1,0.01-0.15,0.02c-0.05,0.01-0.1,0.02-0.14,0.04c-0.05,0.02-0.09,0.03-0.14,0.05
	c-0.04,0.02-0.09,0.04-0.13,0.07c-0.04,0.02-0.08,0.05-0.12,0.08c-0.04,0.03-0.07,0.06-0.11,0.1c-0.03,0.03-0.07,0.07-0.1,0.11
	c-0.01,0.02-0.03,0.04-0.04,0.06l-0.04,0.06c-0.03,0.04-0.05,0.09-0.07,0.13l-0.01,0.02l0,0c0,0,0,0.01,0-0.01l0,0l0,0l0,0l0,0.01
	l-0.02,0.04c-0.01,0.02-0.02,0.05-0.03,0.07c-0.01,0.04-0.03,0.09-0.04,0.13c-0.01,0.05-0.02,0.1-0.03,0.14l-0.05,0.29l-0.23-0.18
	c-0.05-0.04-0.09-0.08-0.14-0.11l-0.07-0.05l-0.04-0.02l-0.01-0.01l0,0c-0.01,0,0.01,0.01,0.01,0l0,0l0,0l-0.01,0l-0.02-0.01
	l-0.09-0.05l-0.04-0.02l-0.04-0.01c-0.05-0.02-0.1-0.04-0.16-0.06l-0.08-0.02c-0.03-0.01-0.06-0.01-0.08-0.02
	c-0.03,0-0.06-0.01-0.08-0.01l-0.08-0.01c-0.06-0.01-0.11,0-0.17,0c-0.06,0-0.11,0.01-0.17,0.02c-0.06,0.01-0.11,0.02-0.17,0.04
	c-0.05,0.02-0.11,0.03-0.16,0.06c-0.05,0.02-0.11,0.04-0.16,0.07l-0.08,0.04c-0.02,0.02-0.05,0.03-0.07,0.05
	c-0.05,0.03-0.1,0.07-0.14,0.11c-0.05,0.03-0.09,0.08-0.13,0.12c-0.04,0.04-0.08,0.09-0.12,0.14c-0.04,0.05-0.07,0.1-0.11,0.15
	l-0.1,0.13l-0.13-0.07c-0.04-0.02-0.07-0.05-0.11-0.06c-0.04-0.02-0.08-0.04-0.12-0.05c-0.04-0.01-0.08-0.03-0.12-0.04
	c-0.04-0.01-0.08-0.02-0.12-0.03c-0.04,0-0.08-0.01-0.13-0.01c-0.04,0-0.09,0-0.13,0c-0.04,0.01-0.09,0.01-0.13,0.02
	c-0.04,0.01-0.08,0.02-0.13,0.03c-0.04,0.02-0.08,0.03-0.12,0.05c-0.04,0.02-0.08,0.04-0.12,0.06c-0.02,0.01-0.04,0.03-0.06,0.04
	l-0.04,0.01l-0.01-0.01l0,0c0,0,0,0,0,0l0,0l0.01,0.01l0,0.01l-0.01,0.01l-0.11,0.1c-0.04,0.03-0.06,0.07-0.1,0.1
	c-0.02,0.02-0.03,0.03-0.05,0.05l-0.04,0.06c-0.03,0.04-0.06,0.08-0.08,0.13l-0.07,0.14c0.01-0.05,0.02-0.1,0.04-0.15
	c0.01-0.05,0.03-0.1,0.05-0.15l0.03-0.07c0.01-0.02,0.03-0.05,0.04-0.07c0.03-0.04,0.05-0.1,0.09-0.14l0.1-0.12l0.01-0.01l0.01-0.01
	l0,0l-0.01-0.01l0-0.01l0,0l0.04-0.02c0.02-0.02,0.04-0.03,0.06-0.05c0.04-0.03,0.08-0.07,0.13-0.09c0.04-0.03,0.09-0.05,0.14-0.08
	c0.05-0.02,0.1-0.04,0.15-0.06c0.05-0.02,0.1-0.03,0.15-0.05c0.05-0.01,0.1-0.02,0.16-0.02c0.05-0.01,0.11,0,0.16-0.01
	c0.05,0,0.11,0.01,0.16,0.02c0.05,0.01,0.1,0.02,0.16,0.03c0.05,0.02,0.1,0.03,0.15,0.05c0.05,0.02,0.1,0.05,0.15,0.07l-0.22,0.06
	c0.04-0.06,0.08-0.13,0.12-0.19c0.04-0.06,0.09-0.12,0.14-0.17c0.05-0.05,0.1-0.11,0.15-0.16c0.05-0.05,0.11-0.1,0.17-0.14
	c0.03-0.02,0.06-0.04,0.09-0.06l0.09-0.05c0.06-0.04,0.13-0.07,0.19-0.1c0.07-0.03,0.13-0.05,0.2-0.07
	c0.07-0.02,0.14-0.03,0.21-0.05c0.07-0.01,0.14-0.02,0.21-0.02c0.07,0,0.14,0,0.21,0.01l0.11,0.01c0.04,0,0.07,0.01,0.1,0.02
	c0.03,0.01,0.07,0.01,0.1,0.02l0.1,0.03c0.07,0.02,0.14,0.05,0.2,0.08l0.05,0.02l0.04,0.02l0.08,0.05l0.02,0.01l0.02,0.01l0.01,0.01
	l0.04,0.03l0.09,0.06c0.06,0.04,0.11,0.1,0.16,0.14l-0.28,0.11c0.01-0.06,0.03-0.12,0.05-0.18c0.02-0.06,0.04-0.12,0.07-0.18
	c0.01-0.03,0.03-0.05,0.04-0.08l0.02-0.04l0.01-0.03l0.01-0.02c0.03-0.05,0.06-0.11,0.1-0.15l0.06-0.07
	c0.02-0.02,0.04-0.04,0.06-0.07c0.04-0.04,0.09-0.08,0.13-0.12c0.04-0.04,0.1-0.07,0.14-0.1c0.05-0.03,0.1-0.06,0.15-0.08
	c0.05-0.02,0.1-0.04,0.16-0.06c0.03-0.01,0.05-0.02,0.08-0.02l0.08-0.01c0.05-0.01,0.11-0.01,0.16-0.01c0.05,0,0.11,0,0.16,0.01
	c0.05,0.01,0.11,0.02,0.16,0.03l0.08,0.02l0.07,0.03c0.05,0.02,0.1,0.05,0.14,0.07C72.75,98.59,72.79,98.63,72.83,98.66z"/>
<path class="st58" d="M85.4,101.23l-0.06-0.13c-0.02-0.04-0.05-0.08-0.07-0.12c-0.03-0.04-0.05-0.08-0.08-0.12
	c-0.03-0.04-0.06-0.07-0.09-0.11c-0.03-0.03-0.06-0.06-0.1-0.1c-0.03-0.03-0.07-0.06-0.1-0.09l-0.11-0.07l-0.11-0.06l-0.12-0.05
	l-0.12-0.04c-0.04-0.01-0.08-0.02-0.12-0.02c-0.04,0-0.08-0.01-0.12-0.01c-0.04,0-0.08,0-0.12,0c-0.04,0.01-0.08,0.01-0.12,0.01
	l-0.12,0.03l-0.12,0.04l-0.11,0.04l-0.05-0.13l-0.06-0.13c-0.02-0.04-0.04-0.08-0.07-0.13c-0.05-0.08-0.1-0.16-0.15-0.23l-0.02-0.03
	l0-0.01l0-0.01l0,0c0,0-0.01,0,0,0.01l-0.01-0.01l-0.01-0.01l-0.05-0.06c-0.03-0.04-0.07-0.08-0.1-0.1L83,99.52l-0.11-0.08
	c-0.03-0.03-0.07-0.05-0.11-0.07c-0.04-0.02-0.07-0.05-0.11-0.07c-0.04-0.02-0.08-0.04-0.12-0.06l-0.12-0.05
	c-0.04-0.02-0.08-0.02-0.13-0.03c-0.04-0.01-0.08-0.02-0.13-0.03c-0.09-0.02-0.17-0.02-0.26-0.02c-0.09,0-0.17,0.01-0.26,0.02
	l-0.06,0.01l-0.06,0.02c-0.04,0.01-0.08,0.02-0.13,0.04l-0.12,0.04c-0.04,0.02-0.08,0.04-0.12,0.06c-0.04,0.02-0.08,0.04-0.11,0.07
	c-0.04,0.03-0.08,0.04-0.11,0.07l-0.11,0.08l-0.01,0.01l0,0l0,0c0,0,0,0,0,0l0,0l-0.01,0.01l-0.03,0.03l-0.05,0.05
	c-0.03,0.03-0.06,0.06-0.09,0.1c-0.03,0.04-0.06,0.07-0.09,0.11c-0.03,0.04-0.06,0.07-0.08,0.11c-0.03,0.04-0.05,0.08-0.07,0.12
	c-0.05,0.08-0.09,0.17-0.12,0.26l-0.1,0.25l-0.14-0.21l-0.01-0.01l0.01-0.01l0.01-0.01l0,0c0.01,0.01,0,0,0,0.01l0,0l-0.01,0
	l-0.03-0.02l-0.05-0.05c-0.01-0.02-0.03-0.03-0.04-0.05l-0.04-0.04c-0.03-0.03-0.06-0.06-0.09-0.09c-0.03-0.03-0.07-0.05-0.1-0.08
	c-0.03-0.03-0.07-0.04-0.11-0.07c-0.04-0.02-0.08-0.04-0.12-0.05c-0.04-0.02-0.08-0.03-0.12-0.04c-0.04-0.01-0.08-0.02-0.12-0.03
	c-0.04-0.01-0.08-0.01-0.13-0.02c-0.04,0-0.09,0-0.13,0l-0.13,0.01l-0.13,0.02l-0.13,0.04l-0.12,0.05l-0.12,0.06l-0.12,0.08l0.1-0.1
	l0.11-0.09c0.04-0.03,0.08-0.05,0.12-0.08c0.04-0.02,0.09-0.04,0.13-0.06c0.04-0.02,0.09-0.03,0.14-0.05l0.14-0.03
	c0.05-0.01,0.09-0.01,0.14-0.02c0.05,0,0.1,0,0.14,0c0.05,0,0.1,0.01,0.14,0.02c0.05,0.01,0.1,0.02,0.14,0.03
	c0.05,0.02,0.09,0.03,0.14,0.05c0.04,0.02,0.09,0.04,0.14,0.06c0.04,0.03,0.09,0.05,0.13,0.08c0.04,0.03,0.08,0.06,0.12,0.1
	l0.06,0.05c0.02,0.02,0.04,0.04,0.05,0.05l0.05,0.05l0.02,0.03l0.01,0.01l0,0l0.01,0.01l0,0l0.01,0.02l-0.24,0.04
	c0.03-0.11,0.07-0.21,0.12-0.31c0.02-0.05,0.05-0.1,0.08-0.15c0.03-0.05,0.06-0.09,0.09-0.14c0.03-0.05,0.06-0.09,0.1-0.13
	c0.03-0.04,0.07-0.09,0.11-0.13l0.05-0.06l0.02-0.03l0.01-0.01l0,0l0.01,0l0.01,0l0.12-0.1c0.04-0.04,0.09-0.06,0.13-0.09
	c0.04-0.03,0.09-0.06,0.14-0.08c0.05-0.02,0.09-0.05,0.14-0.07l0.15-0.06c0.05-0.02,0.1-0.03,0.15-0.04l0.08-0.02l0.08-0.01
	c0.1-0.02,0.21-0.02,0.31-0.03c0.1,0.01,0.21,0.01,0.31,0.03c0.05,0.01,0.1,0.02,0.15,0.03c0.05,0.01,0.1,0.03,0.15,0.04l0.15,0.06
	c0.05,0.02,0.09,0.05,0.14,0.07c0.05,0.02,0.09,0.05,0.14,0.08c0.04,0.03,0.09,0.06,0.13,0.09l0.12,0.1l0.12,0.12
	c0.04,0.04,0.07,0.08,0.1,0.12l0.05,0.06l0.01,0.01l0.01,0.01l0.01,0.01l0,0l0,0l0,0l0.02,0.03c0.06,0.09,0.12,0.19,0.16,0.29
	c0.02,0.05,0.04,0.1,0.07,0.15l0.05,0.16l-0.17-0.09l0.14-0.04c0.05-0.01,0.1-0.01,0.15-0.02c0.05,0,0.1,0,0.15,0
	c0.05,0,0.1,0.01,0.15,0.01c0.05,0.01,0.1,0.02,0.14,0.03c0.05,0.01,0.09,0.03,0.14,0.04c0.05,0.02,0.09,0.04,0.13,0.06
	c0.04,0.02,0.08,0.05,0.13,0.07l0.12,0.09c0.04,0.03,0.07,0.06,0.11,0.1c0.03,0.04,0.07,0.07,0.1,0.11
	c0.03,0.04,0.06,0.08,0.09,0.12c0.03,0.04,0.05,0.08,0.08,0.13c0.02,0.04,0.04,0.09,0.06,0.13c0.02,0.05,0.03,0.09,0.05,0.14
	L85.4,101.23z"/>
<path class="st9" d="M58.62,101.61l-2.3,0.3c0,0-7.77-5.12-15.78,3.15l0,8.91h85.78c0,0-2.06-6.27-8.99-6.27
	c-6.93,0-7.47,2.38-7.47,2.38s-2.58-7.72-9.51-4.31c0,0-2.72-6.53-9.78-3.92C90.56,101.85,61.34,99.83,58.62,101.61z"/>
<path class="st58" d="M58.15,105.25c-0.07-0.02-0.13-0.05-0.2-0.07c-0.07-0.01-0.13-0.03-0.2-0.04l-0.1-0.01l-0.1,0
	c-0.07-0.01-0.13,0.01-0.2,0.01c-0.07,0-0.13,0.02-0.2,0.03c-0.06,0.02-0.13,0.03-0.19,0.06c-0.06,0.02-0.12,0.05-0.18,0.08
	c-0.06,0.03-0.12,0.06-0.17,0.1c-0.06,0.03-0.11,0.08-0.16,0.12c-0.05,0.05-0.1,0.09-0.14,0.14c-0.04,0.05-0.09,0.1-0.13,0.15
	c-0.02,0.03-0.04,0.05-0.06,0.08l-0.05,0.09c-0.04,0.05-0.06,0.12-0.09,0.18l-0.01,0.02l0,0c0,0,0,0.01,0-0.01l0,0l0,0l0,0.01
	l0,0.01l-0.02,0.05c-0.01,0.03-0.03,0.07-0.04,0.1c-0.02,0.06-0.03,0.12-0.05,0.19c-0.02,0.06-0.02,0.13-0.03,0.2l-0.06,0.39
	l-0.32-0.23c-0.07-0.05-0.13-0.1-0.2-0.14l-0.1-0.06l-0.05-0.03l-0.01-0.01l0,0c-0.01-0.01,0.01,0.01,0.01,0.01l0,0l0,0l-0.01,0
	l-0.03-0.01l-0.12-0.06l-0.06-0.03l-0.05-0.02c-0.07-0.02-0.14-0.05-0.21-0.07l-0.11-0.03c-0.04-0.01-0.08-0.01-0.11-0.02
	c-0.04,0-0.08-0.01-0.11-0.02l-0.12,0c-0.08-0.01-0.15,0-0.23,0.01c-0.08,0-0.15,0.02-0.23,0.03c-0.08,0.02-0.15,0.04-0.23,0.06
	c-0.07,0.03-0.15,0.05-0.22,0.09c-0.07,0.03-0.14,0.06-0.21,0.11l-0.1,0.06c-0.03,0.02-0.06,0.05-0.1,0.07
	c-0.07,0.04-0.13,0.1-0.19,0.15c-0.06,0.05-0.11,0.11-0.17,0.17c-0.06,0.06-0.1,0.13-0.16,0.19c-0.05,0.07-0.09,0.14-0.14,0.21
	l-0.13,0.19l-0.17-0.09c-0.05-0.03-0.1-0.06-0.15-0.08c-0.05-0.03-0.11-0.05-0.16-0.07c-0.06-0.02-0.11-0.04-0.17-0.04
	c-0.06-0.01-0.11-0.02-0.17-0.03c-0.06,0-0.12-0.01-0.17,0c-0.06,0-0.12,0.01-0.17,0.01c-0.06,0.01-0.12,0.02-0.17,0.03
	c-0.06,0.01-0.11,0.03-0.17,0.05c-0.05,0.02-0.11,0.05-0.16,0.08c-0.06,0.03-0.11,0.06-0.16,0.09c-0.03,0.02-0.05,0.04-0.08,0.05
	l-0.05,0.02l-0.01-0.01l0,0c0,0-0.01,0.01,0-0.01l0,0l0.01,0.01l0,0.01l-0.02,0.02l-0.15,0.14c-0.05,0.05-0.08,0.1-0.12,0.15
	c-0.02,0.03-0.04,0.05-0.06,0.08l-0.05,0.09c-0.03,0.06-0.08,0.11-0.1,0.18l-0.09,0.19c0.01-0.07,0.03-0.14,0.04-0.21
	c0.01-0.07,0.04-0.14,0.07-0.2l0.04-0.1c0.01-0.03,0.03-0.06,0.05-0.1c0.04-0.06,0.07-0.13,0.11-0.19l0.13-0.16l0.02-0.02l0.01-0.01
	l0,0l-0.01-0.01l0-0.02l0,0l0.05-0.03c0.03-0.03,0.06-0.05,0.08-0.07c0.05-0.05,0.11-0.09,0.17-0.13c0.06-0.04,0.12-0.08,0.18-0.11
	c0.06-0.03,0.13-0.07,0.19-0.09c0.07-0.03,0.13-0.05,0.2-0.07c0.07-0.02,0.14-0.04,0.21-0.04c0.07-0.01,0.14-0.01,0.21-0.02
	c0.07,0,0.14,0,0.22,0.01c0.07,0.01,0.14,0.02,0.21,0.04c0.07,0.02,0.14,0.04,0.21,0.06c0.07,0.02,0.14,0.06,0.2,0.09l-0.3,0.1
	c0.05-0.09,0.1-0.18,0.15-0.26c0.06-0.08,0.11-0.17,0.18-0.25c0.07-0.08,0.13-0.16,0.2-0.22c0.07-0.07,0.14-0.14,0.22-0.2
	c0.04-0.03,0.08-0.06,0.12-0.09l0.12-0.08c0.08-0.06,0.17-0.1,0.26-0.14c0.09-0.05,0.18-0.07,0.27-0.11
	c0.09-0.03,0.19-0.05,0.28-0.08c0.1-0.01,0.19-0.04,0.29-0.04c0.1,0,0.19-0.01,0.29-0.01l0.14,0.01c0.05,0,0.1,0.01,0.14,0.02
	c0.05,0.01,0.1,0.01,0.14,0.03l0.14,0.04c0.09,0.02,0.19,0.06,0.28,0.1l0.07,0.03l0.06,0.03l0.12,0.06l0.03,0.02l0.03,0.01
	l0.02,0.01l0.06,0.04l0.12,0.08c0.08,0.06,0.15,0.13,0.23,0.19l-0.38,0.17c0.02-0.09,0.03-0.17,0.05-0.25
	c0.02-0.08,0.05-0.17,0.08-0.25c0.02-0.05,0.03-0.07,0.05-0.11l0.02-0.05l0.02-0.03l0.02-0.03c0.04-0.07,0.08-0.15,0.13-0.21
	l0.07-0.1c0.03-0.03,0.05-0.06,0.08-0.09c0.05-0.06,0.11-0.12,0.17-0.17c0.06-0.05,0.13-0.1,0.19-0.14c0.07-0.04,0.13-0.08,0.2-0.11
	c0.07-0.03,0.14-0.07,0.21-0.09c0.04-0.01,0.07-0.03,0.11-0.03l0.11-0.02c0.07-0.02,0.15-0.02,0.22-0.03c0.07,0,0.15,0,0.22,0.01
	c0.07,0.01,0.15,0.02,0.22,0.04l0.11,0.03l0.1,0.04c0.07,0.02,0.13,0.06,0.2,0.09C58.03,105.17,58.09,105.21,58.15,105.25z"/>
<path class="st58" d="M80.68,110.81l-0.1-0.22c-0.04-0.07-0.08-0.14-0.12-0.21c-0.04-0.07-0.09-0.13-0.13-0.19
	c-0.05-0.06-0.1-0.12-0.15-0.18c-0.05-0.06-0.11-0.11-0.16-0.16c-0.06-0.05-0.12-0.1-0.17-0.14l-0.18-0.12l-0.19-0.1l-0.2-0.08
	l-0.2-0.06c-0.07-0.01-0.14-0.03-0.21-0.04c-0.07-0.01-0.14-0.01-0.21-0.02c-0.07,0-0.14,0-0.21,0c-0.07,0.01-0.14,0.01-0.2,0.02
	l-0.2,0.04l-0.2,0.07l-0.19,0.06l-0.09-0.21l-0.1-0.22c-0.04-0.07-0.07-0.14-0.11-0.21c-0.08-0.14-0.16-0.27-0.26-0.39l-0.03-0.05
	l0-0.01l0-0.01l0,0c0,0-0.02-0.01,0,0.02l-0.01-0.01l-0.02-0.02l-0.08-0.09c-0.06-0.06-0.11-0.13-0.17-0.18l-0.16-0.15l-0.18-0.14
	c-0.06-0.05-0.12-0.08-0.19-0.12c-0.06-0.04-0.13-0.08-0.19-0.11c-0.07-0.03-0.13-0.07-0.2-0.1l-0.21-0.08
	c-0.07-0.03-0.14-0.04-0.21-0.06c-0.07-0.02-0.14-0.03-0.21-0.04c-0.14-0.03-0.29-0.03-0.43-0.04c-0.15,0.01-0.29,0.01-0.43,0.04
	l-0.11,0.02l-0.11,0.03c-0.07,0.02-0.14,0.03-0.21,0.06l-0.21,0.08c-0.07,0.03-0.13,0.06-0.2,0.1c-0.07,0.03-0.13,0.07-0.19,0.11
	c-0.06,0.04-0.13,0.07-0.19,0.12l-0.18,0.14l-0.01,0.01l0,0l0,0c-0.01,0.01,0.01-0.01,0.01-0.01l-0.01,0.01l-0.02,0.02l-0.05,0.04
	l-0.09,0.08c-0.05,0.05-0.1,0.1-0.15,0.16c-0.05,0.06-0.1,0.12-0.15,0.18c-0.05,0.06-0.09,0.12-0.13,0.19
	c-0.04,0.06-0.08,0.13-0.12,0.2c-0.08,0.14-0.14,0.28-0.21,0.43l-0.17,0.42l-0.23-0.35l-0.02-0.02l0.01-0.02l0.01-0.02l0,0
	c0.02,0.02,0,0.01,0.01,0.01l0,0l-0.02,0l-0.04-0.04l-0.08-0.09c-0.03-0.04-0.05-0.06-0.07-0.08l-0.07-0.07
	c-0.04-0.05-0.11-0.1-0.16-0.14c-0.05-0.05-0.11-0.09-0.17-0.13c-0.06-0.04-0.12-0.07-0.18-0.11c-0.06-0.04-0.13-0.06-0.19-0.09
	c-0.07-0.03-0.14-0.05-0.2-0.07c-0.07-0.02-0.14-0.03-0.21-0.05c-0.07-0.01-0.14-0.02-0.21-0.03c-0.07,0-0.14,0-0.22-0.01
	l-0.22,0.02l-0.22,0.04l-0.22,0.06l-0.21,0.09l-0.21,0.11l-0.2,0.13l0.17-0.17l0.19-0.15c0.07-0.04,0.14-0.08,0.2-0.13
	c0.07-0.04,0.14-0.07,0.22-0.11c0.07-0.03,0.15-0.06,0.23-0.08l0.24-0.05c0.08-0.01,0.16-0.02,0.24-0.03c0.08,0,0.16,0,0.24,0
	c0.08,0.01,0.16,0.01,0.24,0.03c0.08,0.02,0.16,0.03,0.24,0.06c0.08,0.03,0.16,0.05,0.24,0.08c0.08,0.04,0.16,0.06,0.23,0.11
	c0.07,0.04,0.15,0.08,0.22,0.13c0.07,0.05,0.14,0.1,0.21,0.16l0.1,0.09c0.03,0.03,0.07,0.06,0.09,0.09l0.08,0.09l0.04,0.04
	l0.01,0.01l0,0l0.01,0.01l0,0.01l0.02,0.03l-0.4,0.07c0.06-0.18,0.12-0.35,0.2-0.52c0.04-0.08,0.08-0.17,0.13-0.25
	c0.04-0.08,0.1-0.16,0.15-0.23c0.05-0.08,0.11-0.15,0.16-0.22c0.06-0.07,0.12-0.14,0.19-0.21l0.08-0.1l0.04-0.05l0.02-0.02
	l0.01-0.01l0.02,0l0.02-0.01l0.21-0.17c0.07-0.06,0.15-0.1,0.22-0.16c0.07-0.05,0.15-0.1,0.23-0.14c0.08-0.04,0.16-0.08,0.24-0.12
	l0.25-0.1c0.08-0.03,0.17-0.05,0.25-0.07l0.13-0.03l0.13-0.02c0.17-0.03,0.35-0.04,0.52-0.05c0.18,0.01,0.35,0.01,0.52,0.05
	c0.09,0.01,0.17,0.03,0.26,0.05c0.08,0.02,0.17,0.04,0.25,0.08l0.25,0.1c0.08,0.04,0.16,0.08,0.24,0.12
	c0.08,0.04,0.16,0.09,0.23,0.14c0.07,0.05,0.15,0.1,0.22,0.16l0.21,0.17l0.2,0.2c0.07,0.07,0.12,0.13,0.17,0.2l0.08,0.1l0.02,0.02
	l0.01,0.01l0.01,0.01l0,0l0,0l0,0.01l0.04,0.06c0.1,0.15,0.2,0.31,0.28,0.48c0.04,0.09,0.08,0.17,0.11,0.26l0.09,0.26l-0.28-0.15
	l0.24-0.06c0.08-0.01,0.16-0.02,0.25-0.03c0.08-0.01,0.16-0.01,0.25-0.01c0.08,0,0.16,0.01,0.24,0.02c0.08,0.01,0.16,0.03,0.24,0.05
	c0.08,0.02,0.16,0.05,0.23,0.07c0.08,0.03,0.15,0.06,0.22,0.1c0.07,0.04,0.14,0.08,0.21,0.12l0.2,0.15
	c0.06,0.06,0.12,0.11,0.18,0.16c0.06,0.06,0.11,0.12,0.17,0.18c0.05,0.07,0.1,0.13,0.15,0.2c0.04,0.07,0.09,0.14,0.13,0.21
	c0.04,0.08,0.07,0.15,0.11,0.23c0.03,0.08,0.06,0.16,0.08,0.24L80.68,110.81z"/>
<path class="st58" d="M103.29,110.86l-0.1-0.22c-0.04-0.07-0.08-0.14-0.12-0.21c-0.04-0.07-0.09-0.13-0.13-0.19
	c-0.05-0.06-0.1-0.12-0.15-0.18c-0.05-0.06-0.11-0.11-0.16-0.16c-0.06-0.05-0.11-0.1-0.17-0.14l-0.18-0.12l-0.19-0.1l-0.2-0.08
	l-0.2-0.06c-0.07-0.01-0.14-0.03-0.21-0.04c-0.07-0.01-0.14-0.01-0.21-0.02c-0.07,0-0.14,0-0.21,0c-0.07,0.01-0.14,0.01-0.2,0.02
	l-0.2,0.04l-0.2,0.07l-0.19,0.06l-0.09-0.21l-0.1-0.22c-0.04-0.07-0.07-0.14-0.11-0.21c-0.08-0.14-0.16-0.27-0.26-0.39l-0.03-0.05
	l0-0.01l0-0.01l0,0c0,0-0.01-0.01,0,0.01l-0.01-0.01l-0.02-0.02l-0.08-0.09c-0.06-0.06-0.11-0.13-0.17-0.18l-0.16-0.15l-0.18-0.14
	c-0.06-0.05-0.12-0.08-0.19-0.12c-0.06-0.04-0.13-0.08-0.19-0.11c-0.07-0.03-0.13-0.07-0.2-0.1l-0.21-0.08
	c-0.07-0.03-0.14-0.04-0.21-0.06c-0.07-0.02-0.14-0.03-0.21-0.04c-0.14-0.03-0.29-0.03-0.43-0.04c-0.15,0.01-0.29,0.01-0.43,0.04
	l-0.11,0.02l-0.11,0.03c-0.07,0.02-0.14,0.03-0.21,0.06l-0.21,0.08c-0.07,0.03-0.13,0.06-0.2,0.1c-0.07,0.03-0.13,0.07-0.19,0.11
	c-0.06,0.04-0.13,0.07-0.19,0.12l-0.18,0.14L95.58,108l0,0l0,0c-0.01,0.01,0.01-0.01,0.01-0.01L95.58,108l-0.02,0.02l-0.05,0.04
	l-0.09,0.08c-0.05,0.05-0.1,0.1-0.15,0.16c-0.05,0.06-0.1,0.12-0.15,0.18c-0.05,0.06-0.09,0.12-0.13,0.19
	c-0.04,0.06-0.08,0.13-0.12,0.2c-0.08,0.14-0.14,0.28-0.21,0.43l-0.17,0.42l-0.23-0.35l-0.02-0.02l0.01-0.02l0.01-0.02l0,0
	c0.02,0.02,0,0.01,0.01,0.01l0,0l-0.02,0l-0.04-0.04l-0.08-0.09c-0.03-0.04-0.05-0.06-0.07-0.08l-0.07-0.07
	c-0.04-0.05-0.11-0.1-0.16-0.14c-0.05-0.05-0.11-0.09-0.17-0.13c-0.06-0.04-0.12-0.07-0.18-0.11c-0.06-0.04-0.13-0.06-0.19-0.09
	c-0.07-0.03-0.14-0.05-0.2-0.07c-0.07-0.02-0.14-0.03-0.21-0.05c-0.07-0.01-0.14-0.02-0.21-0.03c-0.07,0-0.14,0-0.22-0.01
	l-0.22,0.02l-0.22,0.04l-0.22,0.06l-0.21,0.09l-0.21,0.11l-0.2,0.13l0.17-0.17l0.19-0.15c0.07-0.04,0.14-0.08,0.2-0.13
	c0.07-0.04,0.14-0.07,0.22-0.11c0.07-0.03,0.15-0.06,0.23-0.08l0.24-0.05c0.08-0.01,0.16-0.02,0.24-0.03c0.08,0,0.16,0,0.24,0
	c0.08,0.01,0.16,0.01,0.24,0.03c0.08,0.02,0.16,0.03,0.24,0.06c0.08,0.03,0.16,0.05,0.24,0.08c0.08,0.04,0.16,0.06,0.23,0.11
	c0.07,0.04,0.15,0.08,0.22,0.13c0.07,0.05,0.14,0.1,0.21,0.16l0.1,0.09c0.03,0.03,0.07,0.06,0.09,0.09l0.08,0.09l0.04,0.04
	l0.01,0.01l0,0l0.01,0.01l0,0.01l0.02,0.03l-0.4,0.07c0.06-0.18,0.12-0.35,0.2-0.52c0.04-0.08,0.08-0.17,0.13-0.25
	c0.04-0.08,0.1-0.16,0.15-0.23c0.05-0.08,0.11-0.15,0.16-0.22c0.06-0.07,0.12-0.14,0.19-0.21l0.08-0.1l0.04-0.05l0.02-0.02
	l0.01-0.01l0.02,0l0.02-0.01l0.21-0.17c0.07-0.06,0.15-0.1,0.22-0.16c0.07-0.05,0.15-0.1,0.23-0.14c0.08-0.04,0.16-0.08,0.24-0.12
	l0.25-0.1c0.08-0.03,0.17-0.05,0.25-0.07l0.13-0.03l0.13-0.02c0.17-0.03,0.35-0.04,0.52-0.05c0.18,0.01,0.35,0.01,0.52,0.05
	c0.09,0.01,0.17,0.03,0.26,0.05c0.08,0.02,0.17,0.04,0.25,0.08l0.25,0.1c0.08,0.04,0.16,0.08,0.24,0.12
	c0.08,0.04,0.16,0.09,0.23,0.14c0.07,0.05,0.15,0.1,0.22,0.16l0.21,0.17l0.2,0.2c0.07,0.07,0.12,0.13,0.17,0.2l0.08,0.1l0.02,0.02
	l0.01,0.01l0.01,0.01l0,0l0,0l0,0.01l0.04,0.06c0.1,0.15,0.2,0.31,0.28,0.48c0.04,0.09,0.08,0.17,0.11,0.26l0.09,0.26l-0.28-0.15
	l0.24-0.06c0.08-0.01,0.16-0.02,0.25-0.03c0.08,0,0.16-0.01,0.25-0.01c0.08,0,0.16,0.01,0.24,0.02c0.08,0.01,0.16,0.03,0.24,0.05
	c0.08,0.02,0.16,0.05,0.23,0.07c0.08,0.03,0.15,0.06,0.22,0.1c0.07,0.04,0.14,0.08,0.21,0.12l0.2,0.15
	c0.06,0.06,0.12,0.11,0.18,0.16c0.06,0.06,0.11,0.12,0.17,0.18c0.05,0.07,0.1,0.13,0.15,0.2c0.04,0.07,0.09,0.14,0.13,0.21
	c0.04,0.08,0.07,0.15,0.11,0.23c0.03,0.08,0.06,0.16,0.08,0.24L103.29,110.86z"/>
<path class="st59" d="M88.24,71.46c0,4.11-5.33,9.66-5.33,9.66s-5.33-5.54-5.33-9.66c0-4.12,2.39-5.25,5.33-5.25
	C85.86,66.22,88.24,67.35,88.24,71.46z"/>
<path class="st52" d="M86.59,70.65c0,2.84-3.68,6.66-3.68,6.66s-3.68-3.82-3.68-6.66c0-2.84,1.65-3.62,3.68-3.62
	C84.94,67.03,86.59,67.81,86.59,70.65z"/>
<path class="st59" d="M85.04,69.29c0,1.65-2.13,3.86-2.13,3.86s-2.13-2.22-2.13-3.86s0.96-2.1,2.13-2.1
	C84.09,67.19,85.04,67.64,85.04,69.29z"/>
<path class="st26" d="M78.56,56.74c0,0-7.35,4.21-7.35,13.34c0,0,0.46,1,1.19-0.2c0.73-1.2,1.38-4.51,6.06-4.51L78.56,56.74z"/>
<path class="st26" d="M87.22,56.74c0,0,7.35,4.21,7.35,13.34c0,0-0.46,1-1.19-0.2c-0.73-1.2-1.38-4.51-6.06-4.51L87.22,56.74z"/>
<path class="st10" d="M91.05,47.86c0-3.74-0.58-7.26-1.44-10.34h-6.72v3.12c2.48,0,4.5,2.2,4.5,4.92c0,2.72-2.01,4.92-4.5,4.92v15.8
	h4.4C89.55,62.4,91.05,55.6,91.05,47.86z"/>
<path class="st10" d="M78.39,45.57c0-2.72,2.01-4.92,4.5-4.92v-3.12h-6.72c-0.86,3.08-1.44,6.6-1.44,10.34
	c0,7.74,1.5,14.54,3.76,18.42h4.4v-15.8C80.41,50.49,78.39,48.29,78.39,45.57z"/>
<path class="st9" d="M78.56,66.3c-0.11,0-0.21,0.1-0.21,0.22v1.05c0,0.12,0.09,0.22,0.21,0.22h4.33v-1.5H78.56z"/>
<path class="st9" d="M87.22,66.3h-4.33v1.5h4.33c0.11,0,0.21-0.1,0.21-0.22v-1.05C87.43,66.4,87.33,66.3,87.22,66.3z"/>
<path class="st60" d="M85.97,45.57c0,1.86-1.38,3.37-3.08,3.37v1.55c2.48,0,4.5-2.2,4.5-4.92c0-2.72-2.01-4.92-4.5-4.92v1.55
	C84.59,42.2,85.97,43.71,85.97,45.57z"/>
<path class="st61" d="M78.39,45.57c0,2.72,2.01,4.92,4.5,4.92v-1.55c-1.7,0-3.08-1.51-3.08-3.37c0-1.86,1.38-3.37,3.08-3.37v-1.55
	C80.41,40.65,78.39,42.85,78.39,45.57z"/>
<path class="st62" d="M85.97,45.57c0-1.86-1.38-3.37-3.08-3.37v6.74C84.59,48.94,85.97,47.43,85.97,45.57z"/>
<path class="st63" d="M79.81,45.57c0,1.86,1.38,3.37,3.08,3.37V42.2C81.19,42.2,79.81,43.71,79.81,45.57z"/>
<g>
	<path class="st7" d="M82.89,26v11.53h6.72C87.69,30.66,84.36,26,82.89,26z"/>
	<path class="st7" d="M82.89,26c-1.47,0-4.8,4.67-6.72,11.53h6.72V26L82.89,26z"/>
	<path class="st7" d="M83.17,59.24c-0.02-0.01-0.05-0.01-0.07-0.01H83.1h-0.21v11.26h0.23h0.01c0.13,0,0.23-0.11,0.23-0.26v-0.34
		l0.01-0.49l0.65-9.06C84.02,59.42,83.32,59.27,83.17,59.24z"/>
	<path class="st7" d="M82.66,59.22L82.66,59.22c-0.03,0-0.05,0-0.08,0.01c-0.04,0.01-0.09,0.03-0.13,0.06
		c-0.26,0.09-0.69,0.33-0.69,1.06l0.65,9.07l0.01,0.46v0.34c0,0.11,0.06,0.2,0.15,0.24c0.03,0.02,0.07,0.03,0.11,0.03h0.01h0.21
		V59.22H82.66z"/>
</g>
<rect x="29.41" y="127.7" class="st19" width="133.05" height="1.11"/>
</svg>
