<svg version="1.1" id="Layer_1" xmlns="http://www.w3.org/2000/svg" x="0" y="0" viewBox="0 0 1200 800" xml:space="preserve"><style>.st1{fill:#eb144c}.st2{fill:#f6b49e}.st3{fill:#3c3c3b}.st5{fill:#1e2144}.st10,.st8{fill:#fff}.st10{stroke:#9c9c9c;stroke-miterlimit:10}.st11{fill:#fcfcfc}.st12{fill:#465b64}.st13{fill:#263339}.st14{fill:#585856}.st15{fill:#ecebeb}.st16{fill:#f8bd9e}.st17{fill:#ed9b6e}.st18{fill:#9b9a9a}.st19{fill:#ea505b}.st20{opacity:.5}.st21{opacity:.4}.st22{opacity:.3}.st23{fill:#000100}.st24{fill:#b78775}.st25{fill:#ab6651}.st30{fill:#c6c6c5}.st31{fill:#b0b0b0}</style><path d="M185.43 735.18c-80.32-75.37-190.1-153.2-147.05-270.76 28.31-77.32 97.73-98.88 155.44-146.56 28.48-23.53 10.57-57.78 10.04-91.78-1.21-87.06 111.53-154.61 215.17-153.2 112.26 1.53 160.86 98.79 255.03 104.01 36.98.49 70.09-18.21 102.81-33.07 96.94-44.02 250.77-15.95 258.54 90.51 2.01 57.49-73.92 149.99 2.15 180.23 60.63 24.1 121.88 32.98 132.8 119.17 14.3 112.82-61.3 174.74-159.82 203.77l-825.11-2.32z" fill="#f2f2f2"/><path d="M594.39 703.75c-11.02 14.89-38.59 8.31-37.7 28.44 41.15-.26 59.08.11 59.08.11-.05-4.62-1.18-21.93-2.13-26.23l-19.25-2.32zM665.57 703.75c11.02 14.89 38.59 8.31 37.7 28.44-41.16-.26-59.08.11-59.08.11.06-4.62 1.18-21.93 2.13-26.23l19.25-2.32z"/><path class="st1" d="M569.88 297.57s-33.44 18.38-54.77 35.38l-11.54 35.41c22.26-2.68 77.39-27.12 77.39-27.12l-11.08-43.67z"/><path class="st2" d="M496.95 259.33c1.03 5.41.99 11.14 7.35 14.57 0 0-2.49 17.42-3 31.85 0 0 17.57-16.85 17.57-16.86-.42-5.87-.21-16.89 1.21-23.02.37-1.59.82-3.17 1.21-4.77 1.03-3.87 2.51-7.78.56-12.73-7.54-19.12-3.95-24.87-5.13-25.88-1.96-1.09-7.09 2.17-5.15 11.4 1.88 8.94.86 13.16.86 13.16s-6.78-1.93-9.44.3c-1.22 1.01-7.25 5.66-6.04 11.98z"/><path class="st1" d="M499.28 277.07l22.15 3.35 10.79 63.23-28.65 24.7c-6.2-12.38-11.54-63.73-4.29-91.28z"/><path class="st3" d="M671.75 433.91c-28.29 3.48-56.95 3.59-85.97.19l-6.57 143.6s3.67 95 8.62 128.33l31.15-.07c-2.03-38.77 3.88-128.36 3.88-128.36l6.21-81.92 6.24 81.89s6.13 89.57 4.27 128.34l32.46-.07c4.81-33.36 6.86-128.37 6.86-128.37l-7.15-143.56z"/><path class="st1" d="M682.02 298.07s19.08 39 30.66 63.86L702.1 396.4c-18.73-12.48-49.27-64.27-49.27-64.27l29.19-34.06z"/><path fill="#f4f4f4" d="M644.28 288.73l-38.76 1.74-3.91 38.41 4.22 109.63 40.88-.52 10.69-122.72z"/><path class="st5" d="M601.75 229.56c5.4-6.28 9.66-.19 17.35-7.97 7.7-7.78 13.88-13.38 20.46-5.17 6.59 8.21 9.98 9.36 14.78 8.89 4.79-.47 4.77 19.51 4.77 19.51s18.87-4.78 16.34-18.73c-2.81-15.46-9.75-11.04-13.64-23.57-3.88-12.53-18.88-19.6-25.75-16.59-7.24 3.17-11.03 6.66-21.57 4.07-10.54-2.59-19.62.55-19.6 14.39.02 13.84-16.05 9.71-10.91 26.99 2 6.7 7.59 12.87 10.18 12.34 3.49-.72 4.11-10.11 7.59-14.16z"/><path class="st3" d="M608.01 433.44h38.07v11.5h-38.07z"/><path class="st2" d="M611.86 298.39l13.49 10.81 13.69-10.81 1.81-26.4h-30.8z"/><path class="st1" d="M569.79 297.64l.7 171.67c13.2 10.97 39.07 13.97 39.07 13.97l-4.7-190.25-35.07 4.61zM682.07 297.64l-.7 171.67c-13.2 10.97-39.07 13.97-39.07 13.97l4.7-190.25 35.07 4.61z"/><path class="st1" d="M585.91 315.61l22.28 97.37-3.38-121.67zM667.12 308.87l-22.84 105.22L647 293.03z"/><path class="st2" d="M628.46 203.12c-39.75-.95-30.68 53.29-27.78 61.81 1.58 4.65 11.67 22.47 27.89 22.72 16.22-.25 26.09-18.07 27.67-22.72 2.9-8.53 13.35-61.18-27.78-61.81z"/><path fill="#e51b4d" d="M628.89 319.3l6.8 92.47-10.2 12.19-10.19-12.19 6.95-92.23z"/><path fill="#ed7069" d="M632.62 309.36l-6.79-1.8-6.93 2.11 3.34 10.04 6.67-.12z"/><path class="st8" d="M625.49 307.58s-4.49 6.66-12.46 10.43l-13.37-20.55 5.85-6.99 19.98 17.11zM625.49 307.58s6.5 7.68 12.82 9.98l12.11-22.18-5.7-6.65-19.23 18.85z"/><path class="st1" d="M762.35 354.94l-5.3-20.58-51.73 22.91-3.22 39.13c13.65-1.33 41.17-20.51 60.25-41.46z"/><path class="st8" d="M642.21 269.54c.53-.89.05-2.17-.77-2.08-2.1.25-5.56.56-8.85.42-3.29-.14-6.71-.76-8.78-1.19-.81-.17-1.4 1.07-.95 2 1.39 2.85 4.34 7.22 9.38 7.44 5.04.23 8.34-3.87 9.97-6.59z"/><path class="st5" d="M597.02 239.33c4.49 1.52 5.76-31.03 23.23-19.24 12.3 8.3 34.96 10.38 30.37-.88 3.67 2.76 7.84 7.11 7.84 7.11l-6.48-21.71s-33.33-10.61-45.17.14c-11.83 10.74-9.79 34.58-9.79 34.58z"/><path class="st2" d="M605.31 243.01c2.64 5.25 1.1 11.41-3.44 13.76-4.54 2.34-10.37-.01-13.01-5.26-2.64-5.25-1.1-11.41 3.44-13.76 4.55-2.35 10.37.01 13.01 5.26z"/><path d="M598.43 254.02c-.12 0-.23-.02-.35-.05-.63-.2-.99-.87-.8-1.51.97-3.22.88-5.65-.25-7.03-1.52-1.86-4.59-1.55-4.63-1.55-.66.07-1.25-.41-1.32-1.07-.07-.66.4-1.26 1.05-1.34.18-.02 4.37-.47 6.72 2.4 1.7 2.07 1.94 5.19.7 9.29-.13.53-.6.86-1.12.86z" fill="#ef9d89"/><path class="st10" d="M798.38 321.56l-2.77 11.22-3.89 15.73-2.95 11.94-23.27-2.76-.16-12.3-.19-16.22-.15-11.56z"/><path class="st1" d="M761.66 317.21l40.06 4.75-.17-4.33-38.74-4.59z"/><path class="st10" d="M798.49 317.27l-32.62-3.87 1.14-4.05 31.3 3.7zM788.77 360.45l-1.03 4.19-22.19-2.63-.05-4.31z"/><path class="st1" d="M795.61 332.78l-3.89 15.73-26.38-3.12-.19-16.22z"/><path id="c_3_" class="st2" d="M787.78 346.32c.25-.18.52-.3.8-.39l-.09-.12c-1.78-2.5-1.79-5.58-.02-6.87.29-.21.61-.36.95-.45-.55-1.88-.19-3.72 1.07-4.64.5-.37 1.09-.54 1.73-.56-.67-1.84-.27-3.83 1.14-4.86 1.77-1.29 4.44-.61 5.96 1.52 1.52 2.13 1.32 4.91-.46 6.21-.45.33-.95.53-1.49.61 1.3 2.34 1.16 4.97-.44 6.14-.29.21-.61.36-.95.45.55 1.88.19 3.72-1.07 4.64-.47.34-1.01.52-1.59.56.66 1.61.35 3.39-.89 4.3-1.5 1.09-3.75.52-5.04-1.29-1.28-1.81-1.1-4.15.39-5.25z"/><path class="st2" d="M765.53 338.52c1.72-.69 3.9-2.85 5.04-6.85 1.14-3.99 10.39-6.58 7.06-8.73-3.33-2.15-13.51-.35-17.38 8.63-2.18 2.24-3.21 2.79-3.21 2.79l4.73 18.51 3.67-.82.09-13.53z"/><path class="st11" d="M967.58 14.23c.11.22-1.48 1.24-3.46 2.44s-3.61 2.14-3.76 1.94c-.14-.19 1.29-1.48 3.3-2.7 2.02-1.22 3.81-1.89 3.92-1.68zM975.54 36.26c0 .24-2.62.44-5.84.44-3.23 0-5.84-.2-5.84-.44s2.61-.44 5.84-.44 5.84.19 5.84.44zM894.54 35.48c0 .24-2.47.44-5.52.44-3.05 0-5.52-.2-5.52-.44s2.47-.44 5.52-.44c3.05 0 5.52.19 5.52.44zM900.27 51.88c.16.18-1.68 1.92-4.1 3.87-2.42 1.95-4.51 3.38-4.65 3.18s1.69-1.93 4.1-3.87c2.41-1.94 4.49-3.37 4.65-3.18zM967.76 60.4c-.17.17-1.94-1.32-3.95-3.32-2.01-2.01-3.5-3.77-3.32-3.95s1.94 1.32 3.95 3.32c2 2.01 3.49 3.78 3.32 3.95zM899.73 19.77c-.17.17-1.74-1.11-3.49-2.87-1.76-1.76-3.04-3.32-2.87-3.49.17-.17 1.74 1.11 3.49 2.87 1.76 1.76 3.04 3.32 2.87 3.49z"/><path transform="rotate(-180 1033.022 642.068)" class="st12" d="M1027.16 571.81h11.73v140.51h-11.73z"/><path class="st12" d="M950.04 578.17h167.73c0-10.06-8.15-18.21-18.21-18.21H968.25c-10.06.01-18.21 8.16-18.21 18.21z"/><path class="st13" d="M1021.63 578.53c0 .24 4.61.43 10.29.43 5.68 0 10.29-.19 10.29-.43s-4.61-.43-10.29-.43c-5.68 0-10.29.19-10.29.43z"/><path class="st12" d="M981.72 725.05h1.66c0-27.52 22.39-49.9 49.9-49.9 27.52 0 49.9 22.39 49.9 49.9h1.66c0-28.43-23.13-51.56-51.56-51.56-28.43 0-51.56 23.13-51.56 51.56z"/><path class="st13" d="M1076.28 727.61c0 4.27 3.46 7.73 7.73 7.73 4.27 0 7.73-3.46 7.73-7.73 0-4.27-3.46-7.73-7.73-7.73-4.27 0-7.73 3.46-7.73 7.73z"/><path class="st12" d="M974.44 726.55c0 4.27 3.46 7.73 7.73 7.73 4.27 0 7.73-3.46 7.73-7.73 0-4.27-3.46-7.73-7.73-7.73-4.27 0-7.73 3.46-7.73 7.73zM982.22 712.32c0 .24 22.44.43 50.11.43 27.68 0 50.11-.19 50.11-.43s-22.43-.43-50.11-.43c-27.67 0-50.11.19-50.11.43zM1122.7 432.71v103.44c0 13.57-11 24.56-24.56 24.56h-79.7l10.83-128c0-6.05 4.9-10.95 10.95-10.95h71.54c6.04 0 10.94 4.9 10.94 10.95z"/><path class="st13" d="M1094.53 559.97c-.01-.01.05-.11.18-.3.16-.23.35-.51.58-.85.53-.73 1.28-1.83 2.19-3.28 1.8-2.91 4.19-7.3 5.94-13.17.88-2.93 1.6-6.21 1.97-9.78.42-3.57.32-7.42.31-11.49l-.03-26.44c.05-18.73.09-35.68.12-48.04.06-6.09.1-11.04.13-14.56.03-1.66.06-2.98.08-3.96.03-.9.06-1.38.08-1.38.03 0 .06.48.08 1.38.02.98.05 2.3.08 3.96.03 3.52.08 8.47.13 14.56.03 12.36.07 29.31.12 48.04l-.03 26.44c-.02 4.05.06 7.95-.4 11.56a53.5 53.5 0 01-2.1 9.88 51.921 51.921 0 01-6.23 13.18c-.96 1.43-1.76 2.51-2.33 3.21-.53.7-.85 1.05-.87 1.04z"/><path class="st13" d="M1051.13 560.02c0-.06.9-.11 2.53-.14 1.78-.02 4.1-.05 6.91-.08 5.83-.03 13.89-.02 22.79.04 4.45.04 8.7.05 12.54.15 3.85.07 7.38.28 10.23 1.12 2.86.79 4.92 2.15 6.15 3.22.63.53 1.06 1 1.34 1.34.28.33.42.51.4.53-.07.07-.65-.64-1.94-1.61-1.27-.98-3.3-2.21-6.1-2.91-2.79-.74-6.24-.89-10.09-.92-3.87-.03-8.1-.05-12.55-.08-8.89-.06-16.94-.17-22.77-.28-2.8-.07-5.13-.14-6.9-.18-1.64-.08-2.54-.14-2.54-.2z"/><path class="st14" d="M977.74 323.21c-2.35 7.23-4.73 14.63-4.56 22.23.08 3.52.65 7.29-1.08 10.35-1.2 2.13-3.33 3.54-5 5.32-4.15 4.4-5.29 11.38-2.77 16.88.88 1.92 2.2 3.69 4.01 4.78 2.08 1.25 4.6 1.5 7.02 1.64 8.08.47 16.2.1 24.2-1.09 3.82-.57 7.96-1.53 10.33-4.59 2.11-2.74 2.27-6.47 2.14-9.93-.48-13.12-3.75-26.12-9.51-37.92"/><path class="st14" d="M1031.96 315.37c3.71-1.17 8.05 2.25 7.77 6.13-.28 3.88-5.07 6.65-8.57 4.96 3.89-.67 7.62 2.27 9.43 5.78 1.81 3.51 2.23 7.54 3.15 11.38s2.6 7.81 5.97 9.86c3.22 1.95 7.75 2.03 9.84 5.16 2.16 3.26.26 7.7 1.17 11.5.9 3.78 4.36 6.28 7.43 8.67 3.07 2.39 6.22 5.54 6.06 9.42-.13 3.11-2.5 5.79-5.3 7.15-2.81 1.36-6 1.63-9.11 1.76-15.35.68-30.82-1.31-45.5-5.86-2.33-.72-4.76-1.59-6.29-3.49-2.33-2.89-1.78-7.07-1.1-10.72 2.14-11.58 4.28-23.2 8.07-34.34 3.79-11.14 9.31-21.87 17.46-30.37"/><path class="st15" d="M1054.93 426.96h18.11l-6.43-32.27c-4.74-26.41-41.77-28.23-41.77-28.23l-29.06-.47s-21.54-2.9-34.84 12.09c-2.73 3.08-5.58 6.27-8.4 9.4l-31.52 32.97-3.35-41.37-27 4.23 3.77 51.96c.82 8.37 6.25 15.87 14.27 18.41 5.84 1.86 11.78.23 17.7-2.73 15.72-7.84 45.2-32.78 47.46-34.7-1.36 2.8-4.07 9.11-4.07 15.11 0 8.6 8.83 15.04 8.83 15.04l2.75 26.19-9.12 42.28 94.89-3.8c-1.85-15.33-6.74-28.45-13.99-39.87l1.77-44.24zm-80.98-10.82c-.07-.07-.18-.29-.31-.64l1.02-.72c-.01 0-.29.5-.71 1.36z"/><path class="st16" d="M1012.47 500.22c-5.3 3.5-11.74 7.6-15.36 9.32-6.73 3.2-7.04 2.61-7.31 1.77-.7-2.26 11.62-6.08 8.45-6.78-3.16-.7-14.48 6.4-15.11 4.01-.83-3.12 12.15-6.88 13.22-7.28 1.04-.39.49-1.95-.46-1.54-1.36.59-15.83 6.45-16.67 3.4-.47-1.69 2.69-2.17 2.69-2.17s13.97-4.49 13.52-5.92c-.45-1.45-8.75.91-11.49 1.91-2.7.98-4.3.11-3.77-1.44.36-1.05 8.67-4.29 11.4-5.21 2.73-.92 10.27-3.31 5.52-5.12s-7.74-4.95-7.96-6.35c-.22-1.39 1.67-2.16 2.78-1.05.9.9 2.86 1.95 4.37 2.68 1.24.6 2.57 1.01 3.94 1.17 1.18.14 2.24.23 3.18.29l10.09.76 5.09 13.35-6.12 4.2z"/><path class="st15" d="M1056.67 378.48s8.24 5.75 11.94 17.87c2.24 7.33 8.67 32.14 13.39 50.61 3.09 12.06-3.68 24.44-15.5 28.35l-53.41 28.85-8.72-22.57 46.86-30.8-11.33-41.94c-1.86-6.38-2.67-12.87-.33-19.1 2.4-6.38 7.25-12.46 17.1-11.27z"/><path class="st16" d="M892.46 384.82l-3.24-10.38c-1.51-7.42 4.36-8.62 5.34-9.72 3.05-3.41 5.24-4.23 5.24-4.23l-.47-2.99s-1.78-7.64-1.69-9.74c.07-1.78 3.27-1.9 3.73-.18 1.06 3.92 2.9 10.57 3.89 13.01 1.3 3.22 4.19 11.65 7.22 6.42 3.03-5.24 2.72-8.3 3.24-9.92.55-1.72 4.35-2.03 3.61 1.52-.31 1.49-.5 4.12-1.43 7.69-.42 1.59-1.29 3.55-1.74 5.13-.52 1.84-.75 8.73-1.03 10.08l-22.67 3.31z"/><path class="st17" d="M894.16 366.72c.13-.01.28 1.2.81 3.06.27.93.64 2.02 1.18 3.17.26.58.6 1.24.67 2.07.07.79-.24 1.84-1.22 2.24-.97.36-1.84-.06-2.47-.49-.64-.47-1.1-1.02-1.48-1.59-.75-1.15-1.09-2.34-1.29-3.32-.35-1.97-.3-3.19-.2-3.21.14-.02.32 1.2.81 3.06.26.92.65 2 1.35 3.01.35.49.79.98 1.31 1.34.5.35 1.17.58 1.64.38.48-.17.72-.79.69-1.37-.03-.59-.3-1.19-.55-1.79-.51-1.22-.84-2.37-1.04-3.35-.39-1.96-.32-3.2-.21-3.21z"/><path class="st17" d="M898.81 363.28c.12-.04.7 1.47 1.54 3.93.44 1.33.92 2.79 1.44 4.34.25.83.57 1.64.79 2.63.1.49.13 1.07-.08 1.64-.2.57-.64 1.03-1.16 1.31-1.03.59-2.33.41-3.2-.17-.89-.56-1.49-1.4-1.87-2.21-.74-1.67-1-3.17-1.38-4.42-.67-2.51-1.03-4.09-.92-4.12.12-.04.69 1.47 1.51 3.94.45 1.21.81 2.77 1.51 4.24.36.72.88 1.4 1.59 1.84.7.44 1.59.54 2.32.13.75-.39.98-1.17.81-2.02-.17-.84-.49-1.73-.71-2.55l-1.26-4.4c-.67-2.5-1.04-4.07-.93-4.11z"/><path class="st13" d="M916.92 430.11c-.22-.09.53-2.38 1.68-5.11 1.15-2.73 2.27-4.86 2.49-4.76.22.09-.53 2.38-1.68 5.11-1.15 2.72-2.27 4.85-2.49 4.76z"/><path class="st18" d="M959.4 423.85c-.03.12-1.85-.31-4.76-1.1-1.54-.44-3.25-.92-5.1-1.44-1.91-.58-4.03-1.28-6.09-2.45-2.05-1.16-3.76-2.75-4.85-4.51-1.12-1.76-1.44-3.71-1.43-5.22-.01-1.52 0-2.72-.12-3.54-.11-.82-.26-1.26-.19-1.29.05-.02.31.39.53 1.22.23.83.31 2.09.4 3.57.07 1.49.43 3.2 1.5 4.82 1.04 1.61 2.65 3.08 4.6 4.18 1.95 1.11 4.01 1.83 5.89 2.44 1.82.59 3.51 1.13 5.04 1.62 2.87.95 4.62 1.59 4.58 1.7zM1038.75 489.55c-.15-.01.03-1.53-.43-3.87-.44-2.35-1.68-5.46-3.74-8.5-1.01-1.53-2.08-2.93-3.05-4.21-.99-1.27-1.81-2.47-2.68-3.23-.86-.77-1.79-1.05-2.43-1.09-.65-.04-1 .11-1.03.04-.02-.04.3-.31 1.03-.38.71-.08 1.82.15 2.83.95 1.03.79 1.9 1.98 2.92 3.21 1.01 1.25 2.11 2.66 3.15 4.23 2.11 3.11 3.33 6.42 3.62 8.88.32 2.47-.1 3.99-.19 3.97zM1067.78 397.48c-.01.03-.46-.1-1.32-.38-.93-.3-2.17-.69-3.73-1.19-3.23-.94-8-2.52-14.03-2.46-3 .05-6.28.69-9.46 2.23-3.19 1.52-6.25 3.79-9.33 6.36-3.09 2.54-6.19 5.46-9.91 7.87-3.69 2.38-8.01 4.39-12.8 4.62-2.38.11-4.77-.39-6.87-1.37-2.12-.97-3.92-2.45-5.44-4.07-3.05-3.25-5.2-6.93-7.63-10.09-4.72-6.48-11.54-9.88-17.38-11.13-5.91-1.29-10.9-.63-14.15.21-3.27.88-4.93 1.81-4.98 1.7 0 0 1.61-1.04 4.89-2.03 3.26-.95 8.32-1.73 14.37-.49 3 .62 6.22 1.74 9.35 3.58 3.12 1.82 6.13 4.4 8.55 7.67 2.48 3.2 4.65 6.85 7.61 9.99 2.86 3.19 7.09 5.39 11.65 5.15 4.54-.21 8.75-2.14 12.37-4.46 3.64-2.34 6.73-5.23 9.86-7.77 3.11-2.56 6.24-4.86 9.53-6.39 3.28-1.56 6.7-2.18 9.76-2.19 6.18.03 10.94 1.72 14.15 2.76 1.61.55 2.85 1.02 3.68 1.35.84.32 1.27.5 1.26.53zM1046.7 441.84c-.04.1-1.05-.5-3.05-.7-2.01-.19-4.93.39-8.23 1.9-3.31 1.45-7.1 3.74-11.78 5.17a48.113 48.113 0 01-15.62 2.27c-5.63-.1-10.95-1.23-15.51-2.94-4.58-1.69-8.39-3.93-11.38-6.07-2.98-2.17-5.12-4.24-6.52-5.74a29.08 29.08 0 01-1.55-1.78c-.34-.42-.5-.65-.48-.67.06-.05.81.8 2.27 2.21a52.29 52.29 0 006.64 5.47c2.99 2.05 6.78 4.2 11.3 5.82 4.5 1.64 9.72 2.72 15.25 2.82 5.53.11 10.79-.74 15.36-2.16 4.61-1.36 8.37-3.55 11.78-4.97 3.38-1.46 6.44-1.98 8.52-1.67 2.05.32 3 1.04 3 1.04zM1078.77 434.7c.05.02-.07.49-.42 1.28s-.94 1.91-1.88 3.15c-1.82 2.46-5.32 5.47-10.06 6.46-4.7 1.03-9.03.27-12.02-.3-3.01-.63-4.82-1.18-4.8-1.28.03-.13 1.89.2 4.9.67 2.99.41 7.24 1.03 11.72.05 4.5-.94 7.87-3.7 9.77-5.99 1.94-2.32 2.64-4.11 2.79-4.04z"/><path class="st13" d="M1039.06 405.25c.02 0 .1.27.24.82.15.6.34 1.39.58 2.4.53 2.17 1.28 5.23 2.23 9.11 1.95 7.84 4.81 19.03 8.4 32.42l.07.26-.22.15c-11.45 7.9-25.01 17.25-39.49 27.24a5292.1 5292.1 0 00-6.25 4.3l.16-.53c3.11 7.81 6.09 15.31 8.88 22.3l-.57-.22c16.38-8.09 30.18-15.47 39.88-20.81 4.8-2.66 8.63-4.79 11.32-6.28 1.28-.71 2.28-1.26 3.02-1.67.69-.37 1.05-.56 1.06-.54.01.02-.33.25-.99.66-.72.44-1.7 1.03-2.95 1.79-2.59 1.54-6.39 3.76-11.21 6.49-9.64 5.46-23.39 12.95-39.76 21.1l-.4.2-.17-.42c-2.8-6.98-5.8-14.47-8.92-22.28l-.13-.33.29-.2c2.06-1.42 4.15-2.85 6.25-4.3 14.51-9.95 28.08-19.27 39.56-27.14l-.15.41c-3.52-13.42-6.28-24.64-8.1-32.51-.92-3.94-1.58-7.04-2.02-9.16-.2-1.02-.35-1.82-.47-2.43-.12-.54-.16-.83-.14-.83z"/><path class="st13" d="M1063.03 454c-.16.18-2.56-1.8-6.17-2.89-1.79-.56-3.47-.84-4.69-.9-1.22-.08-1.99.01-2.02-.13-.03-.1.73-.41 2.02-.5 1.29-.1 3.08.09 4.96.68 3.8 1.16 6.11 3.58 5.9 3.74z"/><path class="st19" d="M865.16 636.71l7.01-14.56 27.35 12.96-10.04 21.4-1.75-.7c-7.75-3.16-39.16-16.61-43.48-20.53-4.81-4.35 20.91 1.43 20.91 1.43z"/><g class="st20"><path class="st8" d="M879.68 651.61c1.47-2.1 3.75-3.62 6.25-4.18 2.5-.56 5.11-.24 7.34 1.04l-3.62 7.65-9.97-4.51z"/></g><g class="st21"><path class="st8" d="M852.4 634.29s-9.26-1.51-8.88.31c.38 1.82 31.62 16.61 45.97 21.92l.25-.63-36.58-16.93c-.01 0 .8-3.85-.76-4.67z"/></g><path class="st13" d="M890.17 656.08c-.01.01-.18-.05-.49-.17l-1.39-.56c-1.38-.58-3.07-1.3-5.07-2.14-4.27-1.84-10.14-4.45-16.55-7.48-6.42-3.03-12.16-5.9-16.3-8.03-1.92-1.01-3.55-1.86-4.87-2.56-.49-.27-.92-.5-1.31-.72-.3-.17-.45-.26-.45-.27.01-.01.17.06.48.21.4.2.85.41 1.34.66 1.34.67 2.98 1.49 4.93 2.46 4.16 2.07 9.92 4.9 16.34 7.93 6.41 3.03 12.26 5.68 16.5 7.58 1.98.89 3.66 1.64 5.03 2.25.51.23.95.43 1.36.62.3.12.46.2.45.22z"/><path class="st19" d="M946.58 724.85l-.33-16.16 30.26-.81.73 23.63-1.87.17c-8.34.69-42.44 2.91-48.06 1.37-6.28-1.72 19.27-8.2 19.27-8.2z"/><g class="st20"><path class="st8" d="M966.26 731.57c.36-2.54 1.71-4.93 3.69-6.56s4.45-2.53 7.01-2.39l.23 8.46-10.93.49z"/></g><g class="st21"><path class="st8" d="M934.11 728.46s-8.94 2.84-7.78 4.3c1.16 1.45 35.71.5 50.91-1.25l-.07-.67-40.28 1.45s-1.02-3.8-2.78-3.83z"/></g><path class="st13" d="M977.65 730.8c0 .01-.18.04-.52.07-.45.04-.94.08-1.49.13-1.49.11-3.33.24-5.49.39a539.945 539.945 0 01-36.32 1.03c-2.17-.03-4.01-.06-5.51-.08-.56-.02-1.05-.03-1.5-.05-.34-.01-.52-.03-.52-.04 0-.01.18-.02.52-.03.45-.01.94-.01 1.5-.02 1.5-.01 3.33-.02 5.5-.04 4.65-.03 11.07-.12 18.16-.32s13.5-.48 18.14-.71c2.17-.11 4-.2 5.5-.27.56-.02 1.05-.04 1.5-.06.35-.01.53-.01.53 0zM970.38 427.87c-.12-.04.35-1.7 1.14-4.36.4-1.33.89-2.92 1.5-4.66.31-.87.64-1.78 1.03-2.72.21-.51.48-.94.61-1.35.13-.42.19-.9.17-1.39-.03-.98-.28-1.99-.45-2.98-.18-.97-.36-1.92-.53-2.83-.3-1.72-.58-3.33-.84-4.81-.45-2.74-.67-4.45-.54-4.48.13-.02.57 1.64 1.19 4.35.32 1.47.66 3.06 1.04 4.77.19.91.38 1.85.58 2.82.18.98.45 1.99.49 3.13.01.57-.04 1.15-.22 1.71-.19.56-.48 1-.65 1.42-.39.91-.74 1.8-1.06 2.66-.6 1.64-1.16 3.17-1.68 4.57-.97 2.61-1.66 4.2-1.78 4.15z"/><g class="st22"><path class="st23" d="M1037.45 400.51c1.18 18 2.99 38.22 3.34 56.25 2.77-1.25 9.35-6.01 9.35-6.68.01.01-8.59-30.17-12.69-49.57z"/></g><path class="st1" d="M1067.44 506.83s-124.08-25.99-136.1-20.3c-12.01 5.69-67.41 142.63-67.41 142.63l37.37 13.73 50.73-113.62s91.39 34.46 106.56 31.31c15.18-3.16 8.85-53.75 8.85-53.75z"/><path class="st1" d="M1011.99 514.13c-1.9.63-73.67 30.14-78.73 39.62-5.06 9.48 7.37 166.97 7.37 166.97h40.82l-2.53-139.97 79.67-20.19-46.6-46.43z"/><path class="st12" d="M1059.01 560.89c-.01.03-.41-.02-1.18-.14-.86-.15-1.97-.35-3.34-.59-2.9-.53-7.08-1.36-12.23-2.45-10.3-2.18-24.49-5.46-39.94-9.9-7.72-2.24-15.02-4.57-21.61-6.83-6.56-2.34-12.45-4.52-17.3-6.6-2.44-.99-4.62-1.97-6.52-2.83-1.91-.85-3.55-1.61-4.86-2.28-1.25-.63-2.25-1.13-3.03-1.53-.69-.36-1.04-.56-1.03-.59.01-.03.4.12 1.11.42.8.35 1.83.8 3.1 1.37 1.33.62 2.99 1.33 4.92 2.13 1.92.82 4.11 1.75 6.56 2.7 4.87 1.99 10.76 4.11 17.33 6.39a524.75 524.75 0 0021.59 6.75c15.43 4.42 29.57 7.81 39.83 10.15 5.05 1.14 9.18 2.07 12.16 2.74 1.36.31 2.45.57 3.3.76.75.19 1.14.3 1.14.33zM933.27 589.93c-.06.01-.2-.83-.38-2.36-.18-1.71-.41-3.87-.68-6.46-.26-2.79-.56-6.03-.89-9.59-.29-3.59-.8-7.64-.02-11.88.76-4.27 3.25-7.81 5.96-10.26 2.73-2.5 5.67-4.09 8.17-5.25 2.51-1.15 4.61-1.89 6.06-2.39 1.45-.49 2.27-.73 2.29-.67.07.17-3.16 1.29-8.07 3.65-2.43 1.22-5.27 2.84-7.86 5.29-2.59 2.42-4.91 5.76-5.63 9.81-.75 4.03-.29 8.02-.04 11.63.26 3.57.49 6.81.69 9.6.15 2.59.28 4.77.39 6.48.07 1.55.08 2.4.01 2.4z"/><path class="st13" d="M969.08 576.41c.1-.24 2.35.52 5.02 1.7 2.67 1.17 4.75 2.32 4.64 2.55-.1.24-2.35-.52-5.02-1.7-2.66-1.17-4.74-2.32-4.64-2.55z"/><path class="st13" d="M972.68 572.1c.25-.11 1.38 2.16 3.25 4.61 1.85 2.47 3.72 4.17 3.55 4.39-.14.2-2.36-1.24-4.29-3.82-1.95-2.57-2.74-5.1-2.51-5.18z"/><path class="st13" d="M988.35 578.56c.03.02-.12.34-.63.64-.5.32-1.35.54-2.37.56-1.01.05-2.21-.11-3.39.09-1.22.16-2.03 1.13-2.03 2.6-.05 5.98-.24 10.91-.51 10.89-.25-.01-.48-4.86-.43-10.95.04-.78.2-1.66.77-2.32.54-.67 1.36-.98 2.05-1.08 1.42-.17 2.57.07 3.54.1 1.98.21 2.91-.63 3-.53z"/><path class="st14" d="M980.74 290.36c-6.2 2-13.41 6.13-9.83 25.54 1.57 8.54 3.57 17.25 9.29 23.77.87.99 2.01 2.02 3.32 1.83.93-.13 1.66-.86 2.29-1.55 6.51-7.09 12.05-15.47 13.81-24.93 1.76-9.47-.88-20.14-8.33-26.23"/><path class="st16" d="M992.64 374.67c-.2-8.93-.59-18.52-.59-18.52s-13.59-1.71-14.17-15.58c-.59-13.87-.73-38.16-.73-38.16l26.53-19.65 18.64 25.64.46 65.82c.06 8.37-6.71 15.18-15.07 15.18-8.19-.01-14.88-6.54-15.07-14.73z"/><path class="st17" d="M992.06 356.15s9.09.26 17.99-5.89c0 0-4.23 10.1-17.76 9.29l-.23-3.4z"/><path class="st14" d="M1010 312.35c2.47-.06 4.87-.8 6.75-2.41 1.23 3.27 1.2 6.9 2.33 10.21 1.12 3.31 2.23 35.2 5.69 34.68 3.17-.48 6.96-32.48 7.77-35.58 2.24-8.58-.57-18.04-6.27-24.82-6.77-8.06-18.06-14.93-28.56-14.18-4.66.33-9.35 1.69-13.01 4.58 0 0-5.66 4.37-5.19 9.94.66 7.77 11.98 12.77 19.77 12.53l1.11 1.08c2.58 2.49 6.02 4.06 9.61 3.97z"/><path class="st14" d="M977.08 309.81c1.98-1.51 3.21-3.82 3.87-6.21.65-2.4.78-4.9.9-7.38.04-.72-.07-1.64-.76-1.83-.67-.18-1.23.51-1.56 1.12-2.42 4.56-3.3 9.93-2.45 15.02.15-.14-.46.39-.32.25"/><path class="st12" d="M111.39 386.58h77.82v156.95h-77.82z"/><path class="st12" d="M115.01 543.17c-6.71 0-12.14-5.44-12.14-12.14v-132.3c0-6.71 5.44-12.14 12.14-12.14 6.71 0 12.14 5.44 12.14 12.14v132.3c0 6.7-5.44 12.14-12.14 12.14z"/><path class="st13" d="M121.35 392.9c.02 0 .04.13.07.39.03.31.07.69.12 1.15.09 1.09.21 2.56.36 4.42.28 3.92.68 9.47 1.17 16.28.91 13.82 2.15 32.78 3.52 53.73 1.3 21 2.53 39.98 3.21 53.77.26 6.91-.58 12.56-2.02 16.18-.67 1.82-1.44 3.13-1.97 3.99-.27.38-.49.69-.67.95-.15.21-.24.31-.25.3-.12-.07 1.32-1.73 2.57-5.36 1.32-3.6 2.05-9.18 1.72-16.04l-3.46-53.73c-1.27-20.95-2.42-39.92-3.26-53.75-.37-6.82-.67-12.37-.89-16.3-.08-1.87-.15-3.35-.2-4.43-.01-.46-.02-.84-.03-1.15-.01-.27-.01-.4.01-.4z"/><path class="st12" d="M182.24 563.02h12.54v150.3h-12.54zM276.09 563.02H96.67c0-10.76 8.72-19.47 19.47-19.47h140.47c10.76 0 19.48 8.71 19.48 19.47z"/><path class="st13" d="M199.51 563.41c0 .26-4.93.46-11.01.46s-11.01-.21-11.01-.46 4.93-.46 11.01-.46c6.09-.01 11.01.2 11.01.46z"/><path class="st12" d="M243.38 726.94h-1.77c0-29.43-23.94-53.38-53.38-53.38-29.43 0-53.38 23.95-53.38 53.38h-1.77c0-30.41 24.74-55.15 55.15-55.15 30.41-.01 55.15 24.73 55.15 55.15z"/><circle class="st13" cx="133.96" cy="725.93" r="8.27"/><path class="st12" d="M251.12 726.31c0 4.57-3.7 8.27-8.27 8.27-4.57 0-8.27-3.7-8.27-8.27 0-4.57 3.7-8.27 8.27-8.27 4.56 0 8.27 3.71 8.27 8.27zM242.85 713.32c0 .26-24 .46-53.6.46-29.61 0-53.6-.21-53.6-.46s23.99-.46 53.6-.46c29.6 0 53.6.2 53.6.46z"/><path class="st13" d="M169.14 543.21c0 .06-.97.13-2.71.19-1.9.05-4.39.12-7.39.19-6.24.13-14.85.24-24.36.3-4.75.03-9.28.06-13.42.09-4.12.03-7.82.19-10.8.98-2.99.75-5.17 2.06-6.53 3.11-1.38 1.04-2 1.8-2.08 1.72-.02-.02.12-.21.43-.56.29-.36.76-.86 1.43-1.43 1.32-1.15 3.52-2.6 6.58-3.45 3.05-.89 6.83-1.12 10.95-1.19 4.11-.11 8.66-.11 13.42-.16 9.52-.07 18.14-.08 24.38-.04 3 .04 5.48.07 7.39.09 1.74.05 2.71.1 2.71.16z"/><path class="st24" d="M163.85 379.07c9.34 0 17.09-6.1 17.22-34.48.03-5.71-.16-10.65-.16-10.65s13.48-1.23 14.46-14.29c.99-13.06.24-43.39.24-43.39-15.04-7.44-32.68-6.16-46.64 3.08l-2.07 1.37.64 64.22c.09 9.02 7.11 34.14 16.31 34.14z"/><path class="st25" d="M180.94 333.76s-8.48.16-17.09-5.9c0 0 3.52 9.66 16.91 9.29l.18-3.39z"/><path class="st13" d="M174.42 311.64c.33-.02.33 2.12 2.2 3.64s4.2 1.28 4.21 1.58c.03.13-.52.42-1.5.44a5.55 5.55 0 01-3.52-1.2c-1.14-.93-1.63-2.17-1.71-3.05-.07-.89.17-1.42.32-1.41z"/><path class="st3" d="M196.03 273.74c-.2-2.03-.97-3.99-2.03-5.7.82-1.91.67-4.27-.7-5.86-1.92-2.24-5.72-2.36-7.9-.42-.04-.01-.07-.03-.11-.04.65-1.15.15-2.85-.95-3.71-1.28-.99-3.01-1.12-4.62-1.09-3 .05-10.09 2.43-15.53 4.46-.35.06-.7.12-1.04.19-4.23.85-9.13 2.56-12.41 5.36-4.09 3.49-6.38 8.54-7.77 13.74-1.39 5.19-1.41 10.65-.35 19.47 1.63-1.45 7.36-5.07 8.22-3.07.49 1.14.33 2.44.44 3.67.11 1.23.68 2.62 1.87 2.94.97.26 2.01-.3 2.58-1.13.57-.83.74-1.86.82-2.85.33-4.07-.69-8.19-.04-12.22.64-3.97 2.95-7.65 6.25-9.95 3.31-2.3 7.56-3.18 11.5-2.39 2.44.49 4.8 1.59 7.29 1.49 3.58-.14 7.23-2.71 10.46-1.16.64.31 1.28.6 1.89.96 1.22.72 1.82 1.42 2.12.78.22-.47.12-2.34.01-3.47z"/><path class="st24" d="M150.35 295.17c-.25-.09-8.44-1.14-7.67 8.35.77 9.48 10.29 5.58 10.29 5.31-.01-.28-2.62-13.66-2.62-13.66z"/><path class="st25" d="M149.73 305.73c-.05-.03-.16.13-.43.28-.27.15-.74.27-1.26.12-1.05-.29-2.04-1.81-2.23-3.52-.1-.86.02-1.7.28-2.4.24-.72.66-1.24 1.16-1.37.5-.16.89.12 1.03.37.15.26.11.45.16.46.03.02.19-.18.09-.56-.06-.18-.19-.4-.43-.56-.25-.17-.6-.23-.95-.17-.74.11-1.36.83-1.64 1.61-.32.78-.48 1.72-.37 2.69.22 1.91 1.36 3.62 2.79 3.9.69.12 1.25-.12 1.52-.37.28-.25.31-.47.28-.48z"/><path class="st1" d="M240.48 694.76l7.39-10.35-28.44-19.91-11.77 15.98 1.63 1.4c7.3 6.16 37.55 30.83 43.78 33.16 6.95 2.59-12.59-20.28-12.59-20.28z"/><g class="st20"><path class="st1" d="M249.72 706.33s6.46 8.52 4.44 9.08c-2.03.55-33.51-23.25-46.5-34.94l.5-.57 36.5 28.07c-.01 0 3.41-2.78 5.06-1.64z"/></g><path class="st13" d="M207.74 679.56c-.01.01.14.15.44.41.39.33.82.7 1.3 1.11 1.32 1.09 2.94 2.42 4.85 4 4.12 3.35 9.87 7.9 16.33 12.79 6.46 4.89 12.41 9.19 16.75 12.25 2.04 1.41 3.76 2.61 5.17 3.58.53.35.99.67 1.42.95.33.21.5.32.51.31.01-.01-.15-.14-.46-.38-.41-.3-.87-.64-1.38-1.01-1.38-1-3.08-2.23-5.09-3.69-4.3-3.12-10.21-7.45-16.67-12.34-6.46-4.89-12.23-9.4-16.4-12.69-1.94-1.54-3.59-2.84-4.93-3.9l-1.35-1.05c-.31-.23-.48-.35-.49-.34z"/><g class="st22"><path class="st23" d="M214.71 670.91l28.74 19.81.83-1.11-27.94-21.01z"/></g><path class="st1" d="M378.49 727.55l-2.66-12.13-33.04 7.55 3.86 18.99 2.08-.26c9.24-1.25 46.91-7.01 52.68-9.99 6.44-3.33-22.92-4.16-22.92-4.16z"/><g class="st20"><path class="st1" d="M392.93 728.44s10.41.9 9.48 2.73c-.93 1.83-38.78 9.05-55.75 10.8l-.09-.74 44.22-8.05s.22-4.3 2.14-4.74z"/></g><path class="st13" d="M346.04 741.31c0 .01.2 0 .58-.05.5-.06 1.04-.14 1.66-.22 1.65-.24 3.68-.54 6.07-.9 5.12-.79 12.19-1.98 19.96-3.45 7.77-1.48 14.78-2.97 19.84-4.11 2.36-.55 4.35-1.02 5.98-1.39.6-.15 1.13-.28 1.62-.41.37-.1.56-.15.56-.17 0-.01-.2.02-.58.09-.49.1-1.03.21-1.64.33-1.63.34-3.64.77-6.01 1.27-5.07 1.07-12.08 2.51-19.85 3.99-7.77 1.47-14.82 2.7-19.93 3.57-2.39.4-4.41.74-6.05 1.02-.61.11-1.15.2-1.64.29-.37.08-.57.12-.57.14zM362.19 735.45c.01.1 2.23.04 4.93-.45 2.7-.49 4.81-1.21 4.78-1.31-.03-.11-2.17.43-4.85.91-2.67.49-4.87.73-4.86.85zM355.69 736.68c-.07.1.26.42.58.86.32.44.52.85.63.82.11-.02.07-.55-.29-1.06-.37-.51-.86-.72-.92-.62zM352.68 734.16c-.06.09.21.39.62.66.41.28.79.42.86.33.06-.09-.21-.39-.62-.66-.42-.27-.8-.42-.86-.33zM346.29 733.29c-.02.11.2.24.5.29.29.05.55.01.57-.1.02-.11-.2-.24-.5-.29-.29-.05-.54-.01-.57.1z"/><g class="st22"><path class="st23" d="M344.34 730.6l33.17-7.84-.26-1.33-33.51 6.47z"/></g><path class="st25" d="M292.48 433.29c0-.61 5.68-5.99 6.61-6.3s17.51-7.22 17.82-6.45c.31.77 2.3 4.55-1.08 6.35l-2.61.87 9.52.77s10.6 7.83 10.45 9.52c-.15 1.69-1.54 2.77-2.46 2-.92-.77 2.46 5.38 2.46 5.38s0 2.61-1.38 2.15c-1.38-.46-3.53-2.92-3.53-2.92s2 3.23 1.38 3.84c-.61.61-3.69.77-3.99 0-.31-.77-.77-2.15-.77-2.15l-1.84.15v2.52l-28.11.86-2.47-16.59z"/><path class="st1" d="M183.52 355.72l8.58 10.16 34.34 60.09 66.95 6.62 1.48 19.38-77.13 7.28-43.06-77.92z"/><path class="st1" d="M190.3 385.03l-6.64-25.07-.14-8.16-37.27-16.92-7.16 8.9.86.45c-2.93 3.08-24.63 26.53-23.34 43.81 1.17 15.58 33.99 113.77 33.99 113.77l74.79-21.86-35.09-94.92z"/><path d="M182.84 360.29l-2.1 10.27 5.47 10.28v7.6l39.18 91.51 11.59 3.9 1.96-7.85s-32.62-55.68-38.26-71.37c-5.64-15.7-13.98-38.26-13.98-38.26l-3.86-6.08z" fill="#d8d8d8"/><g><path class="st1" d="M123.36 406.41c0 .97 67.55 66.25 67.55 66.25l91.26-17.86-2.92-19.49-62.32 1.69c-6.81.27-12.23-2-16.39-7.4-13.37-17.36-42.34-55-43.09-55.99-.97-1.3-34.09 32.8-34.09 32.8z"/></g><g><path class="st12" d="M279.24 435.31s.09.4.22 1.23c.14.86.34 2.09.6 3.7.52 3.33 1.29 8.2 2.28 14.53l.03.18-.18.03c-15.89 3.07-41.28 7.98-72.85 14.08l-6 1.15c-2.03.4-4.16.64-6.29.56-4.27-.13-8.61-1.39-12.42-3.72-1.9-1.16-3.67-2.59-5.22-4.25-1.54-1.67-2.97-3.38-4.48-5.1-2.99-3.44-6.03-6.93-9.12-10.48-12.34-14.2-25.44-29.26-39-44.87l-.05-.06-.02-.06c-.09-.22-.18-.47-.27-.71-1.31-3.35-2.17-6.92-2.19-10.51-.06-3.58.76-7.21 2.6-10.27 1.81-3.1 4.56-5.46 7.51-7.28 3-1.76 6.34-2.95 9.76-3.23 3.42-.35 6.91.28 9.95 1.77 3.05 1.48 5.58 3.74 7.76 6.16 2.18 2.44 4.05 5.06 5.88 7.65 1.84 2.57 3.66 5.12 5.46 7.63 7.26 10 14.45 19.29 21.4 27.8 1.75 2.12 3.47 4.2 5.16 6.24 1.73 2 3.3 4.12 5.18 5.75 1.88 1.65 4.28 2.43 6.66 2.72 2.4.29 4.78.23 7.13.19 18.71-.29 33.86-.52 44.37-.68 5.19-.06 9.23-.12 12.01-.15 1.34-.01 2.37-.02 3.11-.02.68.01 1.02.02 1.02.02s-.38.03-1.1.05c-.74.02-1.79.05-3.16.09-2.79.07-6.85.17-12.07.31-10.47.24-25.56.58-44.2 1-2.32.05-4.74.12-7.21-.17-2.45-.28-5.03-1.1-7.02-2.85-1.99-1.71-3.54-3.82-5.29-5.81-1.7-2.04-3.42-4.12-5.18-6.24-6.98-8.51-14.2-17.79-21.49-27.79-1.8-2.51-3.63-5.06-5.48-7.63-1.83-2.58-3.68-5.18-5.82-7.57-2.14-2.37-4.59-4.55-7.51-5.96a17.73 17.73 0 00-9.49-1.68c-6.52.63-13.03 4.32-16.59 10.1-1.75 2.91-2.54 6.37-2.48 9.82.02 3.46.85 6.92 2.13 10.2.09.24.18.47.27.69l-.07-.12c13.55 15.61 26.64 30.68 38.98 44.89 3.08 3.55 6.12 7.05 9.1 10.49 1.5 1.71 2.96 3.46 4.45 5.08 1.5 1.61 3.21 2.99 5.05 4.12 3.68 2.27 7.88 3.49 12.02 3.64 2.08.08 4.12-.14 6.13-.53 2.02-.38 4.02-.76 6-1.14 31.6-5.94 57.02-10.72 72.92-13.72l-.15.21c-.9-6.3-1.59-11.15-2.07-14.46-.23-1.63-.4-2.88-.52-3.75-.11-.82-.15-1.27-.15-1.27z"/></g><g><path class="st12" d="M183.52 351.79c.09.02-.26 1.67-.59 4.59-.39 2.91-.56 7.11-1.6 12.08l-.11.51-.46-.27c-3.94-2.27-8.49-4.89-13.33-7.67-7.69-4.46-14.62-8.54-19.61-11.53-2.38-1.45-4.36-2.65-5.89-3.58-1.38-.86-2.13-1.36-2.1-1.42.03-.05.84.35 2.27 1.12 1.57.87 3.6 1.99 6.03 3.34 5.08 2.85 12.06 6.85 19.74 11.31l13.28 7.77-.57.25c1.1-4.84 1.38-9.07 1.91-11.97.24-1.46.47-2.6.67-3.36.18-.78.32-1.18.36-1.17z"/></g><g><path class="st24" d="M318.38 435.35l-16.28-4.45-13.52 6.76h-7.68l-1.23.5 2.19 14.58 1.94.28s2.18 1.54 6.48 2.46c4.3.92 10.6-1.84 10.6-1.84l8.6-4.76 6.15-1.75 4.61 2.67s.46 1.84.46 2.46c0 .61 1.69 1.38 2.61 1.38.92 0 1.23-2.15 1.23-2.15l-1.08-4.6 2.15 1.99h5.38v-3.38l-12.61-10.15z"/></g><g><path class="st3" d="M282.16 542.3l-70.17 124.94 37.5 25.44 62.02-110.09-10.45-40.29z"/></g><g><path class="st3" d="M150.6 501.81s-8.05 33.94 13.81 40.85c21.86 6.9 135.58 10.5 135.58 10.5l42.27 174.57 36.18-5.14-31.2-187.09a31.664 31.664 0 00-25.62-25.7c-33.72-6.03-94.82-17.09-95.65-18.34-1.15-1.73-5.75-11.51-5.75-11.51l-69.62 21.86z"/></g><g><path class="st12" d="M313.58 606.51c-.03.01-.15-.3-.36-.9-.22-.6-.51-1.49-.84-2.65-.67-2.32-1.5-5.71-2.39-9.92-.87-4.25-1.9-9.26-3.03-14.81-1.23-5.53-2.48-11.72-5.26-17.59-1.43-2.85-3.33-5.6-6.22-6.52-2.86-.99-5.83-1.46-8.62-1.89-5.62-.78-10.73-1.15-15.02-1.41-4.29-.26-7.77-.4-10.17-.49-1.12-.05-2.04-.08-2.77-.11-.63-.03-.97-.06-.97-.09s.33-.06.97-.08c.63-.03 1.57-.05 2.77-.05 2.41-.01 5.9.03 10.2.21 4.3.19 9.43.49 15.1 1.23 2.83.41 5.8.85 8.81 1.88.74.32 1.5.61 2.19 1.1.68.48 1.29 1.05 1.83 1.67 1.09 1.25 1.94 2.68 2.69 4.17 2.86 6.04 4.07 12.26 5.27 17.81 1.13 5.58 2.02 10.63 2.85 14.85.81 4.22 1.54 7.62 2.11 9.96.54 2.34.94 3.61.86 3.63z"/></g><g><path class="st12" d="M974.66 461.1l-699.69-2.51-.05 13.41 41.54.15-.94 261.19 14.67.06.93-261.2 578.15 2.08-.94 261.19 14.67.05.93-261.19 50.68.18z"/></g><g><path class="st10" d="M774.49 385.49l25.05 73.21h113.44l-.84-3.77-45.87-1.42-21.13-68.06z"/></g><g><path d="M824.75 419.87c.75 3-.54 5.94-2.87 6.56-2.33.62-4.83-1.3-5.58-4.3s.54-5.94 2.87-6.56c2.34-.62 4.84 1.3 5.58 4.3z" fill="#e41d4d"/></g><g><path class="st10" d="M459.87 384.06l-25.06 73.21H321.37l.84-3.77 45.87-1.42 21.13-68.06z"/></g><g><path class="st1" d="M409.6 418.44c-.75 3 .54 5.94 2.87 6.56 2.33.62 4.83-1.3 5.58-4.3s-.54-5.94-2.87-6.56c-2.33-.62-4.83 1.31-5.58 4.3z"/></g><g><circle transform="rotate(-80.758 505.904 431.657)" class="st12" cx="505.9" cy="431.65" r="13.89"/><path fill="#e0dfdf" d="M460.55 426.17h90.7v33.15h-90.7z"/><path class="st13" d="M495.42 435.31c0 .24-6.63.44-14.8.44-8.17 0-14.8-.2-14.8-.44s6.62-.44 14.8-.44c8.17 0 14.8.2 14.8.44zM495.42 440.07c0 .24-6.63.44-14.8.44-8.17 0-14.8-.2-14.8-.44s6.62-.44 14.8-.44c8.17 0 14.8.2 14.8.44zM495.42 444.83c0 .24-6.63.44-14.8.44-8.17 0-14.8-.2-14.8-.44s6.62-.44 14.8-.44c8.17 0 14.8.2 14.8.44zM495.42 449.59c0 .24-6.63.44-14.8.44-8.17 0-14.8-.2-14.8-.44s6.62-.44 14.8-.44c8.17 0 14.8.2 14.8.44zM511.97 458.54c-.24 0-.44-7.13-.44-15.92 0-8.8.2-15.93.44-15.93s.44 7.13.44 15.93c0 8.79-.2 15.92-.44 15.92z"/></g><g><path class="st18" d="M1015.99 443.53c-7.55 0-13.69-6.14-13.69-13.69s6.14-13.69 13.69-13.69 13.69 6.14 13.69 13.69-6.14 13.69-13.69 13.69zm0-23.61c-5.47 0-9.92 4.45-9.92 9.92s4.45 9.92 9.92 9.92 9.92-4.45 9.92-9.92-4.45-9.92-9.92-9.92z"/></g><path d="M1102.55 741.66H111.8c-3.23 0-5.85-1.86-5.85-4.16 0-2.29 2.62-4.16 5.85-4.16h990.75c3.23 0 5.85 1.86 5.85 4.16s-2.62 4.16-5.85 4.16z" fill="#191830"/><path class="st30" d="M464.55 243.14c0 2.47-.42 4.85-1.2 7.12-3.91 11.38-16.98 19.74-32.5 19.74s-28.58-8.36-32.49-19.74c-.78-2.27-1.2-4.65-1.2-7.12h67.39zM501.41 128.02c0-39.43-31.54-71.41-70.46-71.46-38.38-.06-69.95 31.27-70.64 70.14-.3 17 5.26 32.68 14.78 45.09 12.04 15.71 18.72 34.95 18.72 54.83v.35h74.09v-.35c0-19.91 6.73-39.15 18.77-54.9 9.24-12.07 14.74-27.24 14.74-43.7z"/><g><path class="st8" d="M441.53 218.89c-.2 0-.4-.03-.59-.1a1.832 1.832 0 01-1.11-2.33c.08-.24 8.4-24.52 14.45-49.24 10.72-43.82 5.2-50.94 2.33-51.97-8.43-3.02-15.15 1.45-19.3 5.73a36.21 36.21 0 00-3.49 4.23c1.8 3.16 3.43 6.64 4.79 10.32 3.74 10.11 4.73 19.55 2.66 25.26-1.6 4.4-5 6.64-9.57 6.29-4.31-.33-7.47-2.86-9.13-7.32-1.9-5.11-1.65-12.63.67-20.63 1.47-5.05 3.67-9.91 6.33-14.09-2.49-3.99-5.37-7.42-8.5-9.73-4.64-3.43-9-3.58-12.96-.44-8.17 6.47-8.48 25.93-.9 56.27 5.84 23.39 14.42 45.02 14.5 45.23.37.94-.07 2-1 2.38-.92.38-1.98-.07-2.35-1.01-.09-.22-8.74-22.04-14.65-45.67-8.08-32.33-7.35-52.54 2.17-60.08 5.23-4.14 11.38-4.01 17.31.37 2.97 2.19 5.91 5.48 8.57 9.51.95-1.24 1.94-2.4 2.96-3.46 6.9-7.13 15.1-9.48 23.08-6.62 4.97 1.78 7.01 8.55 6.23 20.7-.57 8.96-2.68 20.94-6.27 35.62-6.09 24.88-14.45 49.3-14.54 49.55-.25.76-.94 1.23-1.69 1.23zm-9.9-90.26a52.18 52.18 0 00-4.93 11.54c-2.08 7.14-2.36 13.98-.76 18.3 1.16 3.12 3.13 4.74 6.02 4.96 2.99.23 4.87-1.01 5.92-3.9 2.39-6.58-.51-20.02-6.25-30.9z"/></g><path class="st30" d="M461.82 245.47H399.9c-7.25 0-13.13-5.95-13.13-13.3v-.9c0-7.34 5.88-13.3 13.13-13.3h61.92c7.25 0 13.13 5.95 13.13 13.3v.9c0 7.35-5.88 13.3-13.13 13.3z"/><path class="st31" d="M550.72 130.95h-23.07c-3.28 0-5.95-2.7-5.95-6.02 0-3.33 2.66-6.02 5.95-6.02h23.07c3.28 0 5.95 2.7 5.95 6.02 0 3.33-2.66 6.02-5.95 6.02zM334.06 130.95h-23.07c-3.28 0-5.95-2.7-5.95-6.02 0-3.33 2.66-6.02 5.95-6.02h23.07c3.28 0 5.95 2.7 5.95 6.02-.01 3.33-2.67 6.02-5.95 6.02zM348.72 81.52l-18.36-14.15c-2.61-2.01-3.12-5.79-1.13-8.44a5.895 5.895 0 018.33-1.15l18.36 14.15c2.61 2.01 3.12 5.79 1.13 8.44a5.895 5.895 0 01-8.33 1.15zM511.82 81.52l18.36-14.15c2.61-2.01 3.12-5.79 1.13-8.44a5.895 5.895 0 00-8.33-1.15l-18.36 14.15c-2.61 2.01-3.12 5.79-1.13 8.44a5.893 5.893 0 008.33 1.15zM348.72 175.81l-18.36 14.15c-2.61 2.01-3.12 5.79-1.13 8.44a5.895 5.895 0 008.33 1.15l18.36-14.15c2.61-2.01 3.12-5.79 1.13-8.44a5.895 5.895 0 00-8.33-1.15zM511.82 175.81l18.36 14.15c2.61 2.01 3.12 5.79 1.13 8.44a5.895 5.895 0 01-8.33 1.15l-18.36-14.15c-2.61-2.01-3.12-5.79-1.13-8.44a5.893 5.893 0 018.33-1.15z"/></svg>