<?xml version="1.0" encoding="utf-8"?>
<!-- Generator: Adobe Illustrator 24.0.2, SVG Export Plug-In . SVG Version: 6.00 Build 0)  -->
<svg version="1.1" id="Layer_1" xmlns="http://www.w3.org/2000/svg" xmlns:xlink="http://www.w3.org/1999/xlink" x="0px" y="0px"
	 viewBox="0 0 828.3 637.74" style="enable-background:new 0 0 828.3 637.74;" xml:space="preserve">
<style type="text/css">
	.st0{fill:#F3F3F3;}
	.st1{fill:#575756;}
	.st2{opacity:0.59;fill:url(#XMLID_4_);}
	.st3{enable-background:new    ;}
	.st4{clip-path:url(#XMLID_6_);enable-background:new    ;}
	.st5{fill:#424242;}
	.st6{fill:#454545;}
	.st7{fill:#4B4B4B;}
	.st8{fill:#484748;}
	.st9{fill:#4B4A4A;}
	.st10{fill:none;stroke:#4E4D4D;stroke-miterlimit:10;}
	.st11{fill:#505050;}
	.st12{fill:#535252;}
	.st13{fill:none;stroke:#565656;stroke-miterlimit:10;}
	.st14{fill:#585858;}
	.st15{fill:#5C5B5B;}
	.st16{fill:#5E5F5F;}
	.st17{fill:#FFFFFF;stroke:#4B4B4B;stroke-width:0.75;stroke-miterlimit:10;}
	.st18{fill:#ECECEC;}
	.st19{fill:#FFFFFF;}
	.st20{fill:#E51B4D;}
	.st21{fill:#E9E8E4;}
	.st22{font-family:'Montserrat-Regular';}
	.st23{font-size:9.3385px;}
	.st24{fill:none;stroke:#6F6F6E;stroke-width:0.25;stroke-miterlimit:10;}
	.st25{fill:#E9505B;}
	.st26{fill:#263239;}
	.st27{fill:#F8BC9E;}
	.st28{fill:#EC9A6E;}
	.st29{fill:#11394C;}
	.st30{fill:#0F3444;}
</style>
<path class="st0" d="M735.03,602.81c26.5-57.66,50.35-118.65,60.81-184.73c10.46-66.07,6.39-138.27-20.06-195.97
	c-26.44-57.71-77.71-97.35-128.17-87.95c-43.07,8.03-83.92,49.12-126.08,34.92c-43.55-14.67-64.45-80.19-101.16-114.53
	c-64.8-60.64-166.47-16.37-206.76,67.35c-27.07,56.24-33.24,130.97-71.4,174.48c-28.86,32.9-71.65,41.88-95.43,81.28
	c-20.2,33.46-21.06,82.75-7.53,121.66c13.53,38.92,42.06,81.57,70.47,102.03L735.03,602.81z"/>
<rect x="177.18" y="578.43" class="st1" width="443.87" height="5.2"/>
<linearGradient id="XMLID_4_" gradientUnits="userSpaceOnUse" x1="366.6618" y1="-16218.1963" x2="245.4861" y2="-16395.5059" gradientTransform="matrix(1 0 0 -1 0 -15714.2266)">
	<stop  offset="0" style="stop-color:#E51B4D"/>
	<stop  offset="0.1503" style="stop-color:#E51B4D"/>
	<stop  offset="0.1652" style="stop-color:#E62A59;stop-opacity:0.9737"/>
	<stop  offset="0.2185" style="stop-color:#EA5A7F;stop-opacity:0.8797"/>
	<stop  offset="0.2748" style="stop-color:#ED84A0;stop-opacity:0.7803"/>
	<stop  offset="0.3333" style="stop-color:#EFA8BD;stop-opacity:0.6771"/>
	<stop  offset="0.3945" style="stop-color:#F1C5D4;stop-opacity:0.5691"/>
	<stop  offset="0.4594" style="stop-color:#F3DCE6;stop-opacity:0.4547"/>
	<stop  offset="0.5296" style="stop-color:#F4ECF2;stop-opacity:0.3309"/>
	<stop  offset="0.609" style="stop-color:#F5F5FA;stop-opacity:0.1909"/>
	<stop  offset="0.7172" style="stop-color:#F5F8FC;stop-opacity:0"/>
</linearGradient>
<polygon id="XMLID_112_" class="st2" points="378.52,578.5 166.72,533.15 314.84,487.91 526.65,533.26 "/>
<g id="XMLID_61_" class="st3">
	<defs>
		<path id="XMLID_65_" class="st3" d="M287.09,563.15l-23.59-8.07c-2.53-0.87-4.28-3.83-4.27-7.87l23.59,8.07
			C282.81,559.33,284.56,562.29,287.09,563.15z"/>
	</defs>
	<clipPath id="XMLID_6_">
		<use xlink:href="#XMLID_65_"  style="overflow:visible;"/>
	</clipPath>
	<g id="XMLID_62_" class="st4">
		<path id="XMLID_64_" class="st5" d="M287.09,563.15l-23.59-8.07c-2.41-0.82-4.11-3.55-4.26-7.3l23.59,8.07
			C282.98,559.6,284.68,562.33,287.09,563.15"/>
		<path id="XMLID_63_" class="st6" d="M282.83,555.85l-23.59-8.07c-0.01-0.19-0.01-0.38-0.01-0.57l23.59,8.07
			C282.82,555.47,282.82,555.66,282.83,555.85"/>
	</g>
</g>
<g id="XMLID_59_">
	<polygon id="XMLID_60_" class="st7" points="292.11,143.51 268.52,135.44 439.54,81 463.13,89.07 	"/>
</g>
<g id="XMLID_57_">
	<polygon id="XMLID_58_" class="st7" points="284.11,555.18 260.52,547.11 260.91,148.13 284.5,156.2 	"/>
</g>
<path id="XMLID_55_" class="st6" d="M284.5,156.2l-23.59-8.07c0-0.29,0.01-0.58,0.03-0.87l23.59,8.07
	C284.51,155.62,284.5,155.91,284.5,156.2"/>
<path id="XMLID_54_" class="st8" d="M284.53,155.34l-23.59-8.07c0.02-0.39,0.06-0.77,0.12-1.16l23.59,8.07
	C284.59,154.56,284.55,154.95,284.53,155.34"/>
<path id="XMLID_53_" class="st9" d="M284.65,154.18l-23.59-8.07c0.05-0.35,0.11-0.71,0.19-1.05l23.59,8.07
	C284.76,153.47,284.7,153.82,284.65,154.18"/>
<path id="XMLID_51_" class="st10" d="M284.83,153.12l-23.59-8.07c0.07-0.34,0.15-0.67,0.24-1l23.59,8.07
	C284.99,152.45,284.9,152.79,284.83,153.12"/>
<path id="XMLID_49_" class="st11" d="M285.08,152.12l-23.59-8.07c0.09-0.33,0.19-0.66,0.31-0.98l23.59,8.07
	C285.27,151.47,285.17,151.79,285.08,152.12"/>
<path id="XMLID_48_" class="st12" d="M285.38,151.15l-23.59-8.07c0.12-0.33,0.24-0.66,0.38-0.99l23.59,8.07
	C285.63,150.48,285.5,150.81,285.38,151.15"/>
<path id="XMLID_45_" class="st13" d="M285.77,150.16l-23.59-8.07c0.15-0.35,0.31-0.69,0.48-1.02l23.59,8.07
	C286.07,149.47,285.91,149.81,285.77,150.16"/>
<path id="XMLID_44_" class="st14" d="M286.24,149.14l-23.59-8.07c0.2-0.39,0.41-0.76,0.63-1.12l23.59,8.07
	C286.65,148.38,286.44,148.75,286.24,149.14"/>
<path id="XMLID_43_" class="st15" d="M286.88,147.79l-23.59-8.07c0.3-0.48,0.63-0.94,0.97-1.37l23.59,8.07
	C287.5,146.85,287.18,147.31,286.88,147.79"/>
<path id="XMLID_41_" class="st16" d="M287.96,146.46l-23.59-8.07c0.95-1.18,2.05-2.12,3.24-2.72l23.59,8.07
	C290.01,144.34,288.91,145.28,287.96,146.46"/>
<path id="XMLID_40_" class="st15" d="M291.09,143.93l-23.59-8.07c0.33-0.17,0.68-0.31,1.02-0.42l23.59,8.07
	C291.76,143.62,291.42,143.76,291.09,143.93"/>
<g id="XMLID_36_">
	<path id="XMLID_37_" class="st17" d="M463.13,89.07c4.18-1.33,7.59,2.2,7.59,7.85l-0.4,398.98c-0.01,5.65-3.43,11.36-7.61,12.69
		L291.7,563.03c-4.18,1.33-7.59-2.2-7.59-7.85l0.4-398.98c0.01-5.65,3.43-11.36,7.61-12.69L463.13,89.07z"/>
</g>
<path id="XMLID_31_" class="st18" d="M434.7,485.39l-95.95,28.78c-19.4,5.82-38.91-8.7-38.91-28.95V184.14
	c0-13.35,8.76-25.12,21.54-28.95l95.95-28.78c19.4-5.82,38.91,8.7,38.91,28.95v301.08C456.25,469.79,447.49,481.56,434.7,485.39z"/>
<polygon id="XMLID_42_" class="st19" points="432.65,274.49 319.44,310.98 319.44,288.64 432.65,252.14 "/>
<path id="XMLID_124_" class="st20" d="M354.63,373.5v12.63c0,3.13,3.05,5.36,6.04,4.4l45.38-14.63c1.91-0.62,3.2-2.39,3.2-4.4
	v-12.63c0-3.13-3.05-5.36-6.04-4.4l-45.38,14.63C355.92,369.72,354.63,371.5,354.63,373.5z"/>
<polygon id="XMLID_50_" class="st19" points="432.65,312.47 319.44,348.97 319.44,326.62 432.65,290.13 "/>
<g id="XMLID_77_">
	<g id="XMLID_87_">
		<path id="XMLID_88_" class="st20" d="M388.35,215.38c3.14-3.05,5.22-7.35,5.22-11.58c0-6.71-5.22-10.73-11.63-8.96
			s-11.63,8.67-11.63,15.38c0,4.23,2.08,7.39,5.22,8.7c-7.11,4.7-12.2,13.24-12.2,21.62l3.1-0.86c0-8.95,6.96-18.14,15.51-20.5
			c8.55-2.36,15.51,3,15.51,11.95l3.1-0.86C400.55,221.89,395.46,216.16,388.35,215.38z M381.94,215.93
			c-4.7,1.3-8.53-1.65-8.53-6.57s3.83-9.98,8.53-11.28c4.7-1.3,8.53,1.65,8.53,6.57C390.47,209.58,386.64,214.64,381.94,215.93z"/>
	</g>
	<g id="XMLID_52_">
		<path id="XMLID_78_" class="st20" d="M381.94,244.93c-15.67,4.32-28.43-5.5-28.43-21.89c0-16.39,12.75-33.25,28.43-37.57
			c15.67-4.32,28.43,5.5,28.43,21.89C410.36,223.75,397.61,240.61,381.94,244.93z M381.94,189.12
			c-13.74,3.79-24.93,18.57-24.93,32.95c0,14.38,11.18,22.99,24.93,19.2s24.93-18.57,24.93-32.95
			C406.86,193.94,395.68,185.33,381.94,189.12z"/>
	</g>
</g>
<g id="XMLID_85_">
	<g id="XMLID_83_">
		<circle id="XMLID_82_" class="st20" cx="335.94" cy="294.09" r="4.66"/>
		<circle id="XMLID_84_" class="st20" cx="351.34" cy="288.94" r="4.66"/>
	</g>
	<g id="XMLID_86_">
		<circle id="XMLID_91_" class="st20" cx="366.73" cy="284.65" r="4.66"/>
		<circle id="XMLID_90_" class="st20" cx="382.12" cy="279.5" r="4.66"/>
	</g>
	<g id="XMLID_92_">
		<circle id="XMLID_94_" class="st20" cx="396.03" cy="275.4" r="4.66"/>
		<circle id="XMLID_93_" class="st20" cx="411.42" cy="270.25" r="4.66"/>
	</g>
</g>
<g id="XMLID_96_">
	<g id="XMLID_103_">
		<circle id="XMLID_105_" class="st20" cx="338.24" cy="331.64" r="4.66"/>
		<circle id="XMLID_104_" class="st20" cx="353.63" cy="326.49" r="4.66"/>
	</g>
	<g id="XMLID_100_">
		<circle id="XMLID_102_" class="st20" cx="369.03" cy="322.2" r="4.66"/>
		<circle id="XMLID_101_" class="st20" cx="384.42" cy="317.05" r="4.66"/>
	</g>
	<g id="XMLID_97_">
		<circle id="XMLID_99_" class="st20" cx="398.32" cy="312.96" r="4.66"/>
		<circle id="XMLID_98_" class="st20" cx="413.72" cy="307.8" r="4.66"/>
	</g>
</g>
<g>
	<text transform="matrix(0.914 -0.2824 0.2955 0.9553 366.7255 381.4456)" class="st21 st22 st23">SIGN UP</text>
</g>
<path id="XMLID_1_" class="st24" d="M438.39,495.86l-104.07,30.37c-21.04,6.14-42.21-9.18-42.21-30.55V178.05
	c0-14.08,9.5-26.5,23.37-30.55l104.07-30.37c21.04-6.14,42.21,9.18,42.21,30.55v317.63C461.76,479.4,452.26,491.81,438.39,495.86z"
	/>
<g>
	<g>
		<g>
			<path class="st25" d="M526.64,563.54v-9.68l17.34-0.12l0.14,14.62l-1.07,0.08c-4.78,0.31-24.35,0.76-27.55-0.23
				C511.93,567.11,526.64,563.54,526.64,563.54z"/>
		</g>
		<g>
			<g>
				<path class="st26" d="M515.09,567.31c0,0.16,6.49,0.3,14.49,0.3c8,0,14.49-0.13,14.49-0.3c0-0.16-6.49-0.29-14.49-0.29
					C521.58,567.01,515.09,567.14,515.09,567.31z"/>
			</g>
		</g>
		<g>
			<g>
				<path class="st26" d="M526.34,565.52c0.14-0.08,0.02-0.59-0.35-1.09c-0.37-0.51-0.82-0.77-0.94-0.66
					c-0.12,0.12,0.12,0.54,0.46,1.01C525.85,565.24,526.19,565.59,526.34,565.52z"/>
			</g>
		</g>
		<g>
			<g>
				<path class="st26" d="M525.23,566.15c0.15-0.06,0.07-0.63-0.27-1.23c-0.34-0.61-0.79-0.97-0.92-0.87
					c-0.13,0.1,0.09,0.6,0.4,1.16C524.77,565.77,525.08,566.21,525.23,566.15z"/>
			</g>
		</g>
		<g>
			<g>
				<path class="st26" d="M538.85,567.26c0.07,0.05,0.33-0.21,0.7-0.63c0.38-0.42,0.87-1.02,1.52-1.52c0.64-0.5,1.35-0.75,1.88-0.82
					c0.53-0.07,0.87,0.01,0.9-0.07c0.03-0.06-0.29-0.3-0.92-0.34c-0.62-0.04-1.49,0.19-2.22,0.77c-0.73,0.57-1.2,1.25-1.5,1.75
					C538.91,566.88,538.78,567.22,538.85,567.26z"/>
			</g>
		</g>
		<g>
			<g>
				<path class="st26" d="M526.28,563.7c-0.09,0.14,0.21,0.47,0.71,0.65c0.49,0.18,0.94,0.12,0.96-0.04
					c0.03-0.16-0.33-0.35-0.76-0.51C526.76,563.64,526.37,563.56,526.28,563.7z"/>
			</g>
		</g>
		<g>
			<g>
				<path class="st26" d="M526.56,562.76c-0.02,0.16,0.45,0.3,1.03,0.31c0.59,0.01,1.05-0.12,1.04-0.28
					c-0.01-0.16-0.47-0.3-1.03-0.31C527.04,562.47,526.57,562.6,526.56,562.76z"/>
			</g>
		</g>
	</g>
	<g>
		<g>
			<path class="st25" d="M502.76,573.17l0-9.68l17.34-0.12l0.14,14.47l-1.07,0.08c-4.78,0.31-24.35,0.91-27.55-0.08
				C488.04,576.74,502.76,573.17,502.76,573.17z"/>
		</g>
		<g>
			<g>
				<path class="st26" d="M491.2,576.96c0,0.16,6.49,0.29,14.49,0.29c8,0,14.49-0.13,14.49-0.29c0-0.16-6.49-0.3-14.49-0.3
					C497.69,576.66,491.2,576.8,491.2,576.96z"/>
			</g>
		</g>
		<g>
			<g>
				<path class="st26" d="M502.45,575.15c0.14-0.08,0.02-0.59-0.35-1.09c-0.37-0.51-0.82-0.77-0.94-0.66
					c-0.12,0.12,0.12,0.54,0.46,1.01C501.97,574.87,502.3,575.22,502.45,575.15z"/>
			</g>
		</g>
		<g>
			<g>
				<path class="st26" d="M501.34,575.78c0.15-0.06,0.07-0.63-0.27-1.23c-0.34-0.61-0.79-0.97-0.92-0.87
					c-0.13,0.1,0.09,0.6,0.4,1.16C500.88,575.4,501.19,575.84,501.34,575.78z"/>
			</g>
		</g>
		<g>
			<g>
				<path class="st26" d="M514.96,576.89c0.07,0.05,0.33-0.21,0.7-0.63c0.38-0.42,0.87-1.02,1.52-1.52c0.64-0.5,1.35-0.75,1.88-0.82
					c0.53-0.07,0.87,0.01,0.9-0.07c0.03-0.06-0.29-0.3-0.92-0.34c-0.62-0.04-1.49,0.19-2.22,0.77c-0.73,0.57-1.2,1.25-1.5,1.75
					C515.03,576.51,514.89,576.85,514.96,576.89z"/>
			</g>
		</g>
		<g>
			<g>
				<path class="st26" d="M502.4,573.33c-0.08,0.14,0.21,0.47,0.71,0.65c0.49,0.18,0.94,0.12,0.96-0.04
					c0.03-0.16-0.33-0.35-0.76-0.51C502.87,573.27,502.48,573.19,502.4,573.33z"/>
			</g>
		</g>
		<g>
			<g>
				<path class="st26" d="M502.67,572.39c-0.02,0.16,0.45,0.3,1.03,0.31c0.59,0.01,1.05-0.12,1.04-0.28
					c-0.01-0.16-0.47-0.3-1.03-0.31C503.15,572.1,502.68,572.23,502.67,572.39z"/>
			</g>
		</g>
	</g>
	<g>
		<path class="st27" d="M417.47,316.51c0.46-0.47,1.59-0.25,1.59-0.25s-0.2-1.32,0.01-1.96c0.21-0.64,1.65-0.52,1.65-0.52
			s0.09-0.62-0.04-1.61c-0.03-0.25,0.11-0.43,0.34-0.57c0.68-0.41,2.16-0.39,2.16-0.39c0.89-0.62-2.7-5.57-4.02-7.15
			c-1.31-1.56-1.09-2.81,0.09-2.81c0.81,0,4.99,4.75,6.27,6.35c1.28,1.59,4.7,6.03,4.81,2.49c0.12-3.54,1.56-6.22,2.46-6.67
			c0.9-0.46,1.87,0.61,1.37,1.6c-0.4,0.79-0.66,2.33-0.8,3.48c-0.12,0.95-0.08,1.92,0.13,2.86c0.6,2.65,1.24,4.37,1.54,5.11
			l0.09-0.05c0,0,25.03,23.68,26.83,25.37c1.62,1.52,34.14-1.8,40.66-2.48c1.78-0.2,4.42-0.55,6.7-0.45
			c2.83,0.12,3.33,0.52,6.16,0.56c8.66,0.11,15.88,0.95,21.25,1.84c6.49,1.08,11.82,5.64,13.83,11.83
			c6.58,20.25,21.45,68.18,24.1,95.11c2.09,3.87,4.42,8.4,5.37,10.94c1.84,4.95,1.4,5.12,0.77,5.23c-1.67,0.3-3.57-8.58-4.29-6.44
			c-0.71,2.15,3.61,10.6,1.86,10.85c-2.29,0.32-4.11-9.02-4.33-9.8c-0.21-0.76-1.36-0.5-1.13,0.19c0.33,1,3.56,11.55,1.31,11.89
			c-1.24,0.19-1.38-2.05-1.38-2.05s-2.28-10.09-3.34-9.9c-1.07,0.2,0.07,6.17,0.59,8.16c0.52,1.96-0.21,3.01-1.29,2.51
			c-0.73-0.34-2.49-6.38-2.97-8.36c-0.48-1.98-1.68-7.42-3.3-4.26c-1.62,3.16-4.07,4.99-5.08,5.03c-1.01,0.04-1.44-1.34-0.56-2.02
			c0.71-0.55,1.59-1.83,2.22-2.82c0.52-0.82,0.89-1.71,1.1-2.65c0.81-3.62,0.8-5.72,0.8-5.72l0.19-1.16
			c-2.57-12.55-9.97-49.37-20.6-72.89l-4.38,8.89l-1.9,6.58L546,418.84l-49.78-0.65l7.42-28.21l-9.02-29.42l0,0
			c-9.76,0.21-34.82,0.57-39.03-1.28c-5.25-2.31-32.42-36.11-32.42-36.11h0c-1.84-1.44-3.7-2.99-5.08-4.35
			C418.09,318.81,416.47,317.52,417.47,316.51z"/>
	</g>
	<g>
		<path class="st20" d="M546.42,397.9c-1.42-4.86-8.74-28.91-8.74-28.91s-3.59,19.61-2.65,21.97c1.09,2.72,3.09,5.83,3.09,5.83
			c8.3,12.65,7.21,18.97,7.21,18.97l-50.16-1.53c-0.12-7.02,4.03-23.33,4.9-25.92c0.87-2.6-2.01-11.13-2.01-11.13
			s-5.67-5.76-5.45-8.72c0.44-5.97,0.99-7.9,0.99-7.9l-30.52,1.12l0.96-20.71l43.88-4.39c1.52,4.32,15.33,2.2,15.33,2.2
			c14.92,0.49,15.82,3.23,22.04,8.05c6.22,4.82,16.46,46.18,16.46,46.18L546.42,397.9z"/>
	</g>
	<g>
		<g>
			<path class="st26" d="M516.75,393.01c0,0.08,1.01,0.14,2.64,0.13c1.63-0.01,3.89-0.11,6.37-0.36c2.48-0.25,4.71-0.6,6.31-0.92
				c1.6-0.31,2.58-0.58,2.56-0.66c-0.02-0.08-1.02,0.04-2.63,0.25c-1.61,0.21-3.84,0.49-6.31,0.74c-2.47,0.25-4.7,0.41-6.33,0.53
				C517.75,392.84,516.75,392.92,516.75,393.01z"/>
		</g>
	</g>
	<g>
		<g>
			<path class="st26" d="M513.32,388.74c-0.02,0.07,1.01,0.47,2.74,0.93c1.72,0.47,4.15,0.98,6.86,1.31
				c2.71,0.32,5.19,0.39,6.97,0.33c1.79-0.05,2.88-0.19,2.88-0.27c0-0.09-1.11-0.1-2.88-0.15c-1.77-0.06-4.22-0.19-6.91-0.5
				c-2.68-0.32-5.09-0.77-6.83-1.13C514.41,388.91,513.34,388.66,513.32,388.74z"/>
		</g>
	</g>
	<g>
		<g>
			<path class="st26" d="M496.44,369.71c-0.08,0.02,0.05,0.99,0.34,2.56c0.29,1.56,0.75,3.71,1.33,6.07c0.58,2.36,1.17,4.48,1.63,6
				c0.47,1.52,0.8,2.45,0.88,2.43c0.08-0.02-0.12-0.99-0.48-2.54c-0.43-1.77-0.92-3.79-1.46-6.03c-0.55-2.23-1.06-4.26-1.49-6.02
				C496.8,370.64,496.52,369.7,496.44,369.71z"/>
		</g>
	</g>
	<g>
		<g>
			<path class="st26" d="M545.89,395.02c0.04,0.16,3.5-0.65,7.73-1.8c4.23-1.15,7.62-2.21,7.57-2.37c-0.04-0.16-3.5,0.65-7.73,1.8
				C549.24,393.8,545.85,394.86,545.89,395.02z"/>
		</g>
	</g>
	<g>
		<g>
			<path class="st26" d="M493.04,360.29c0,0.03,0.46,0.08,1.3-0.01c0.83-0.09,2.04-0.28,3.45-0.82c1.41-0.53,3.01-1.41,4.5-2.74
				c1.49-1.33,2.83-3.15,3.68-5.3c0.87-2.15,1.15-4.38,1.01-6.38c-0.13-1.99-0.66-3.79-1.55-5.05c-0.88-1.28-2.05-1.89-2.86-2.11
				c-0.41-0.11-0.74-0.14-0.97-0.13c-0.22,0.01-0.34,0.03-0.34,0.05c0,0.06,0.47,0.03,1.23,0.3c0.75,0.27,1.81,0.9,2.59,2.12
				c1.54,2.42,1.97,6.84,0.33,10.97c-0.82,2.07-2.08,3.82-3.5,5.12c-1.42,1.3-2.94,2.2-4.29,2.76
				C494.91,360.2,493.02,360.17,493.04,360.29z"/>
		</g>
	</g>
	<g>
		<g>
			<path class="st27" d="M508.17,337.84c-0.12-2.52-0.39-5.38-0.39-5.38s-6.24-0.69-6.62-7.14c-0.38-6.45,0-21.32,0-21.32
				l11.37-5.79l12.51,9.87l-1.9,32.24l-11.51,0.73C509.82,341.18,508.26,339.73,508.17,337.84z"/>
		</g>
		<g>
			<g>
				<path class="st28" d="M507.05,320.23c-0.02,0-0.02,0.12,0.1,0.28c0.12,0.15,0.37,0.32,0.72,0.32c0.72-0.03,1.42-0.84,1.68-1.81
					c0.13-0.5,0.13-1,0.03-1.43c-0.08-0.43-0.32-0.86-0.68-0.97c-0.17-0.06-0.35-0.06-0.48,0.01c-0.13,0.07-0.21,0.17-0.26,0.26
					c-0.08,0.19-0.02,0.31,0,0.3c0.03,0,0.02-0.11,0.11-0.23c0.09-0.12,0.3-0.24,0.54-0.11c0.24,0.11,0.4,0.41,0.47,0.81
					c0.07,0.39,0.06,0.84-0.05,1.28c-0.23,0.88-0.83,1.59-1.37,1.66c-0.27,0.03-0.49-0.07-0.61-0.17
					C507.11,320.31,507.07,320.22,507.05,320.23z"/>
			</g>
		</g>
		<g>
			<path class="st26" d="M497.28,300.53c0.87-2.97,4.02-4.44,6.9-5.26c4.37-1.24,9.11-1.79,13.39-0.21
				c4.27,1.57,9.41,4.34,9.41,9.06c2.52-0.21,3.96,2,4.97,4.74c0.59,1.62,0.98,3.42,1.07,5.2l0.04-0.01
				c0.32,6.18,2.05,14.7,6.05,19.27c2.21,2.52,5.4,4.27,6.69,7.41c1.12,2.73,0.54,5.96,1.6,8.72c0.94,2.43,3.01,4.16,4.49,6.28
				c3.23,4.61,3.46,11.13,1.08,16.28c-2.38,5.15-7.09,8.92-12.31,10.64c-5.23,1.73-10.92,1.54-16.24,0.15
				c-3.93-1.02-7.75-2.72-10.88-5.39c-3.13-2.68-5.53-6.39-6.25-10.55c-0.8-4.62,0.5-9.31,1.45-13.9
				c3.01-14.52,2.15-15.28-1.65-28.74c-0.09-0.24-0.14-0.48-0.2-0.73c-0.05-0.18-0.1-0.35-0.15-0.53l0.01,0
				c-0.11-0.53-0.18-1.06-0.18-1.61c1.1,0.43,2.43,0.15,3.27-0.71c0.84-0.85,1.16-2.23,0.77-3.39c-0.44-1.33-1.66-2.22-2.92-2.75
				c-1.25-0.53-2.6-0.79-3.84-1.37c-2.61-1.24-4.42-3.82-5.66-6.53C497.34,304.7,496.7,302.53,497.28,300.53z"/>
		</g>
		<g>
			<g>
				<path class="st25" d="M506.6,320.5c-0.04-0.02-0.26,0.4-0.6,1.12c-0.34,0.71-0.79,1.72-1.29,2.88l-0.09,0.22l0.24,0.02
					c0.38,0.03,0.76,0.07,1.15,0.1c0.79,0.05,1.45,0.15,2.21,0.14c0.12-0.02,0.26-0.13,0.29-0.26c0.04-0.12,0.03-0.22,0.02-0.31
					c-0.03-0.18-0.07-0.31-0.11-0.46l-0.2-0.8c-0.25-0.98-0.43-1.58-0.48-1.57c-0.05,0.01,0.04,0.63,0.23,1.62l0.16,0.81
					c0.06,0.27,0.16,0.68,0.01,0.65c-0.56-0.02-1.37-0.12-2.11-0.17c-0.39-0.03-0.77-0.06-1.15-0.09l0.14,0.24
					c0.48-1.16,0.89-2.19,1.17-2.93C506.49,320.97,506.64,320.52,506.6,320.5z"/>
			</g>
		</g>
	</g>
	<g id="XMLID_123_">
		<path id="XMLID_125_" class="st29" d="M544.01,417.38c9.11,2.38,0.83,61.68,0.83,61.68l2.36,25.33c0.08,0.91,0.1,1.82,0.05,2.72
			l-2.82,51.08c0,0-13.67,2.51-19.05-6.11v-69.54l-2.07-12.4l-2.07,30.32c0,0,1.24,28.22,1.66,46.28
			c0.41,18.06-2.07,18.53-2.07,23.62c0,1.26-20.29,1.27-18.63-9.83c1.66-11.11-1.24-59.64-1.24-59.64s-3.31-22.19-4.97-40.41
			c-1.66-18.22-0.41-51.99-0.41-51.99l50.52,8.73"/>
		<g id="XMLID_131_">
			<g>
				<g id="XMLID_12_">
					<path class="st30" d="M510.06,561.49c1.66-11.11-1.24-59.64-1.24-59.64s-3.31-22.19-4.97-40.41
						c-1.55-17.07-0.56-47.81-0.43-51.6l-7.85-1.36c0,0-1.24,33.78,0.41,51.99c1.66,18.22,4.97,40.41,4.97,40.41
						s2.9,48.53,1.24,59.64c-1.28,8.61,10.63,10.54,16.04,10.38C513.56,569.61,509.26,566.85,510.06,561.49z"/>
				</g>
			</g>
		</g>
	</g>
</g>
</svg>
