<svg version="1.1" id="Layer_1" xmlns="http://www.w3.org/2000/svg" x="0" y="0" viewBox="0 0 1200 656.6" xml:space="preserve"><style>.st1{fill:#fff;stroke:#6c6c6c;stroke-width:2}.st1,.st2,.st3{stroke-miterlimit:10}.st2{stroke-width:2;fill:#6c6c6c;stroke:#fff}.st3{fill:#fff;stroke:#323431}.st4{fill:#323431}.st5{fill:none;stroke:#bac4e5;stroke-miterlimit:10}.st6{fill:#e9505b}.st7,.st8{fill:none;stroke:#44b8b6;stroke-miterlimit:10}.st8{stroke:#fff;stroke-width:1.2199;stroke-linecap:round;stroke-linejoin:round}.st9{fill:#d9d9d9}.st10{fill:none;stroke:#bac4e5;stroke-width:5;stroke-miterlimit:10}.st11{fill:#f7ba99}.st12{fill:#fff}.st13{fill:#f8c7bd}.st14{fill:none;stroke:#ec6a66;stroke-width:.7349;stroke-miterlimit:10}.st15{fill:#1d1d1b}.st20{fill:#bac4e5}.st22{fill:#6c6c6c}.st23{fill:#f3a18f}.st26{fill:#f18b7f}.st29{fill:#e51b4d}.st34{fill:#1e1e1e}.st35{fill:#184655}</style><path d="M134.36 430.29c13.47 65.88 44.16 126.7 78.26 184.2l804.77-1.46c36.57-20.41 73.28-62.94 90.7-101.75 17.41-38.8 16.29-87.95-9.7-121.32-30.6-39.28-42.58-147.55-104.32-153.88-65.19-6.68-75.55-45.06-110.38-101.15C831.84 51.45 700.98 7.32 617.58 67.78c-47.24 34.25-74.13 99.58-130.19 114.2-54.25 14.17-106.83-26.81-162.26-34.81-64.94-9.37-130.93 30.15-164.96 87.71-34.03 57.54-39.26 129.53-25.81 195.41z" fill="#f3f3f3"/><path class="st1" d="M755.1 399.82h238.98v15.1H755.1zM764.76 421.02c2.9 17.3 17.94 30.49 36.07 30.49h147.51c18.13 0 33.16-13.19 36.07-30.49H764.76z"/><path class="st1" d="M984.93 414.92H764.25c0 2.08.18 4.11.52 6.1h219.65c.33-1.99.51-4.02.51-6.1zM216.67 399.82h238.98v15.1H216.67zM226.33 421.02c2.9 17.3 17.94 30.49 36.07 30.49h147.51c18.13 0 33.16-13.19 36.07-30.49H226.33z"/><path class="st1" d="M446.5 414.92H225.81c0 2.08.18 4.11.52 6.1h219.65c.33-1.99.52-4.02.52-6.1z"/><path class="st2" d="M336.15 457.45h269.96v17.34H336.15z"/><path class="st2" d="M336.15 481.99c-9.79 0-17.72-7.94-17.72-17.72V451.5h35.45v12.76c0 9.8-7.94 17.73-17.73 17.73z"/><circle class="st2" cx="336.15" cy="466.12" r="8.67"/><path transform="rotate(-180 741.095 466.125)" class="st2" d="M606.11 457.45h269.96v17.34H606.11z"/><path class="st2" d="M869.72 481.99h12.72c6.28 0 11.37-5.09 11.37-11.37V451.5h-35.45v19.12c-.01 6.28 5.08 11.37 11.36 11.37z"/><circle class="st2" cx="876.07" cy="466.12" r="8.67"/><path class="st3" d="M759.93 596.81H452.3v-38.9c0-6.63 5.37-12 12-12h283.63c6.63 0 12 5.37 12 12v38.9zM632.85 523.83h-53.46v-59.07c0-14.76 11.97-26.73 26.73-26.73s26.73 11.97 26.73 26.73v59.07z"/><circle class="st3" cx="606.11" cy="466.02" r="17.66"/><circle transform="rotate(-80.433 606.115 466.013)" class="st3" cx="606.11" cy="466.02" r="10.89"/><path class="st3" d="M632.85 501.96l-53.47 16.23v7.2h53.47z"/><path class="st4" d="M588.45 510.01c-1.7 0-3.07-1.37-3.07-3.07v-11.4c0-1.7 1.37-3.07 3.07-3.07 1.7 0 3.07 1.37 3.07 3.07v11.4c0 1.7-1.37 3.07-3.07 3.07zM588.45 489.97c-1.7 0-3.07-1.37-3.07-3.07v-2.63c0-1.7 1.37-3.07 3.07-3.07 1.7 0 3.07 1.37 3.07 3.07v2.63c0 1.7-1.37 3.07-3.07 3.07z"/><path class="st5" d="M252.73 240.48H154.9c-1.31 0-2.36-1.06-2.36-2.36v-68.27c0-1.31 1.06-2.36 2.36-2.36h97.84c1.31 0 2.36 1.06 2.36 2.36v68.27a2.36 2.36 0 01-2.37 2.36zM148.74 191.88h109.37M148.74 214.72h109.37"/><circle class="st6" cx="169.61" cy="181.3" r="6.21"/><circle transform="rotate(-77.162 169.61 203.242)" class="st6" cx="169.61" cy="203.24" r="6.21"/><circle class="st6" cx="169.61" cy="226.01" r="6.21"/><path class="st7" d="M179.57 178.62h55.48M179.57 200.79h55.48M179.57 205.13h29.4M179.57 223.78h12.12M179.57 228.12h55.48"/><path class="st8" d="M167.12 181.96l1.76 1.2 3.22-3.71M167.12 203.84l1.76 1.2 3.22-3.7M167.12 226.66l1.76 1.2 3.22-3.71"/><circle class="st5" cx="430.78" cy="174.5" r="20.53"/><path class="st5" d="M430.78 165.72v8.78h13.87"/><path class="st4" d="M442.07 232.88h24.39c3.26 0 5.89-2.64 5.89-5.89 0-3.26-2.64-5.89-5.89-5.89h-24.39c-3.26 0-5.89 2.64-5.89 5.89 0 3.25 2.63 5.89 5.89 5.89z"/><path class="st9" d="M459.44 227a1.575 1.575 0 103.15.01 1.575 1.575 0 00-3.15-.01zM452.69 226.98a1.575 1.575 0 103.15.01 1.575 1.575 0 00-3.15-.01zM445.94 226.96a1.575 1.575 0 103.15.01 1.575 1.575 0 00-3.15-.01z"/><path class="st10" d="M375.21 332.98h30.75c17.28 0 29.37-11.14 32.23-28.18l7.63-45.29"/><path class="st10" d="M375.56 399.65l13.8-63.94A16.017 16.017 0 01405 323.14c7.63 0 14.2 5.38 15.7 12.86l12.52 63.65"/><path class="st11" d="M313.83 390.47l7.12-22.63 11.34-.6-7.11 24.28-10.93.07z"/><path d="M326.76 386.83s-9.37 3.86-13.78-2.22l-19.3 11.73 35.98-.23-2.9-9.28z"/><path transform="matrix(1 -.00644 .00644 1 -2.556 2.015)" class="st12" d="M293.7 396.22h35.98v3.31H293.7z"/><path class="st12" d="M313.22 389.74a.63.63 0 01-.26-.2c-1.47-1.93-2.95-2.88-2.97-2.89a.595.595 0 01-.18-.84c.19-.28.59-.35.88-.17.07.04 1.67 1.07 3.29 3.19.21.27.14.65-.14.85-.18.12-.42.14-.62.06zM310.12 391.29a.63.63 0 01-.26-.2c-1.47-1.93-2.95-2.88-2.97-2.89a.595.595 0 01-.18-.84c.19-.28.59-.35.88-.17.07.04 1.67 1.07 3.29 3.19.21.27.14.65-.14.85-.18.12-.42.14-.62.06zM307.03 392.84a.63.63 0 01-.26-.2c-1.47-1.93-2.95-2.88-2.97-2.89a.595.595 0 01-.18-.84c.19-.28.59-.35.88-.17.07.04 1.67 1.07 3.29 3.19.21.27.14.65-.14.85-.19.12-.42.14-.62.06z"/><path class="st4" d="M353.76 302.27l-9.85.63c-6.94.44-12.84 5.22-14.71 11.92l-15.44 59.47 21.4-1.99 17.25-52.24 1.35-17.79z"/><path class="st6" d="M336.82 377.06h-25.84l1.79-9.52h25.84z"/><path class="st11" d="M355.15 390.47l.33-22.33 11.34-.6-.32 23.98-10.93.07z"/><path d="M368.09 386.83s-9.37 3.86-13.78-2.22l-19.3 11.73 35.98-.23-2.9-9.28z"/><path transform="matrix(1 -.00644 .00644 1 -2.555 2.282)" class="st12" d="M335.02 396.22H371v3.31h-35.98z"/><path class="st12" d="M354.55 389.74a.63.63 0 01-.26-.2c-1.47-1.93-2.95-2.88-2.97-2.89a.595.595 0 01-.18-.84c.19-.28.59-.35.88-.17.07.04 1.67 1.07 3.29 3.19.21.27.14.65-.14.85-.19.12-.42.14-.62.06zM351.45 391.29a.63.63 0 01-.26-.2c-1.47-1.93-2.95-2.88-2.97-2.89a.595.595 0 01-.18-.84c.19-.28.59-.35.88-.17.07.04 1.67 1.07 3.29 3.19.21.27.14.65-.14.85-.18.12-.42.14-.62.06zM348.35 392.84a.63.63 0 01-.26-.2c-1.47-1.93-2.95-2.88-2.97-2.89a.595.595 0 01-.18-.84c.19-.28.59-.35.88-.17.07.04 1.67 1.07 3.29 3.19.21.27.14.65-.14.85-.18.12-.42.14-.62.06z"/><path class="st4" d="M414.37 301.21l-30.82 1.23-23.02.47c-6.72 0-12.19 4.05-12.29 10.77-.31 20.65 1.29 63.58 2.26 63.38 1.31-.26 20.18 0 20.18 0l1.92-46.9 14.78 1.61c3.64.03 14.29.72 17.54-.93 6.72-3.41 15.31-11.39 9.45-29.63z"/><path class="st6" d="M347.04 367.54h25.84v9.53h-25.84z"/><path class="st13" d="M324.94 264.58l-12.39-6.19s-10.11-.75-16.25.59c-.64.14-1.05.77-.9 1.41.14.57.67.94 1.25.88l5.67-.62-3.05 2.08c-.83.56-.73 1.81.17 2.24.38.18.81.17 1.18-.03 1.7-.94 7.03-3.38 12.23-.46l-4.85 2.18c-.95.43-1.21 1.66-.51 2.44.34.37.84.56 1.34.49l4.51-.58s5.31 2.16 10.22-.2l1.38-4.23z"/><path class="st6" d="M365.37 248.56c-3.92 9.61-9.54 28.75-9.54 28.75l-31-14.6-4.1 10.64 26.3 17.96 28.77-1.2 2.13-22.5-12.56-19.05z"/><path class="st6" d="M370.55 242.3c-2.08 1.57-4.05 3.63-5.18 6.27l-1.86 53.7s32.96 6.94 50.86-1.06c0 0-.5-44.98-10.7-56.88 0 0-3.21-6.32-19.55-6.35-4.87-.01-9.69 1.39-13.57 4.32z"/><path class="st14" d="M367.65 258.17l2.38 37.71"/><path class="st13" d="M335.78 289.33l-.45-9.26s-3.32-6.93-6.34-7.03c-2.22-.07-5.02 1.43-6.51 3.01-.68.72-.49 1.87.38 2.32 1.44.73 3.64 2.03 4.76 3.65 0 0-1.46 7.47 1.01 10.54 1.26 1.56 8.66 3.32 8.66 3.32l-1.51-6.55z"/><path class="st6" d="M386.12 246.89l-5.94 37.65-44.66 1.94v15.8l48.03-1.16c1.83.11 3.23-.48 4.22-1.51l.49.23s13.01.22 16.66-44.2l-18.8-8.75z"/><path class="st14" d="M339.67 286.29l40.52-1.83 4.82-30.53M380.19 284.46l6.18 1.83M404.01 267.52l-4.51 20.1a23.958 23.958 0 01-7.82 12.98l-2.02 1.6"/><path class="st15" d="M362.49 203.58s1.11 5.31 0 8.55c-1.11 3.24-4.66 4.76-3.07 13.21 1.59 8.45-.11 8.65-.49 11.04 0 0 33.93 3.2 50.93-5.52 0 0-2.87-4.93-6.06-10.4-3.18-5.47-4.38-14.47-4.38-14.47L386.41 201l-23.92 2.58z"/><path class="st15" d="M370.55 197.31c-.39-.12 1.12-2.36 1.51-2.48 6.04-1.93 18.94-4.48 25.51 6.13 4.82 7.8-.02 22.46-10.15 26.9-9.65 4.23-8.01-27.78-8.01-27.78l-8.86-2.77z"/><path d="M373.02 217.16a4.791 4.791 0 01-4.18 5.33 4.791 4.791 0 01-5.33-4.18 4.791 4.791 0 014.18-5.33 4.791 4.791 0 015.33 4.18z" fill="#f5ada6"/><path class="st13" d="M374.66 229.96l1.18 10.37c.41 3.64 2.87 5.34 6.45 4.91 3.06-.37 5.74-2.29 5.76-5.37l-2.65-16.23-10.74 6.32z"/><path d="M375.4 236.37c7.28-.63 11.02-11.04 11.02-11.04l-11.89 3.57.87 7.47z" fill="#1b172c"/><path class="st13" d="M377.91 231.49c-6.15.33-11.47-4.26-11.9-9.27l-.96-11.83c-.55-6.28 3.99-11.86 10.25-12.61 6.41-.77 13.35 3.66 14.12 10.07l.67 9.52c.51 7.36-4.3 13.51-12.18 14.12z"/><path class="st15" d="M384.4 206.33c-2.92 4.36 1.85 10.54 1.85 10.54l9-10.88c0-.01-9.12-2.25-10.85.34z"/><path class="st13" d="M395.76 215.72a4.791 4.791 0 01-4.18 5.33 4.791 4.791 0 01-5.33-4.18 4.791 4.791 0 014.18-5.33 4.791 4.791 0 015.33 4.18z"/><path d="M389.51 217.91s-.41-3.45 2.95-3.3" fill="none" stroke="#1b172c" stroke-width=".562" stroke-linecap="round" stroke-linejoin="round" stroke-miterlimit="10"/><path class="st15" d="M372.06 194.83s-13.12 4.74-10.4 9.68c2.01 3.66 15.22 5.93 27.77 3.34 0 0 5.73-4.65-1.36-9.47-.01 0-3.82-5.38-16.01-3.55z"/><path class="st13" d="M372.23 241.16s3.74-2.42 9.26-3.18c0 0 6.58-.4 12.09.9 0 0-.36 5.85-11.44 7.14-2.18.25-4.4.2-6.51-.4-2.12-.59-2.62-2.06-3.4-4.46z"/><path d="M335.16 299.66h-37.61v-4.24h37.61a2.121 2.121 0 010 4.24z" fill="#051418"/><path class="st20" d="M302.5 299.66h-54a6.39 6.39 0 01-6.16-4.68l-10.65-38.26a2.2 2.2 0 012.12-2.79h54.63c1.19 0 2.24.8 2.54 1.96l11.52 43.77z"/><path class="st4" d="M269 277.67c0 2.6-2.11 4.71-4.71 4.71s-4.71-2.11-4.71-4.71 2.11-4.71 4.71-4.71 4.71 2.11 4.71 4.71z"/><path fill="none" stroke="#55382e" stroke-width="1.147" stroke-miterlimit="10" d="M288.54 304.69v94.96"/><path class="st22" d="M206.33 299.66h160.43v10.07H206.33zM794.24 399.86l1.55-50.35a4.211 4.211 0 012.77-3.84c.47-.17.96-.26 1.46-.26h.14c1.13.04 2.18.51 2.95 1.33a4.242 4.242 0 011.13 3.33l-5.08 49.79h-4.92zM762.53 400.07l-1.55-50.35a4.211 4.211 0 00-2.77-3.84c-.47-.17-.96-.26-1.46-.26h-.14c-1.13.03-2.18.51-2.95 1.33a4.242 4.242 0 00-1.13 3.33l5.08 49.79h4.92z"/><path class="st20" d="M753.53 354.35h51.84c3.72 0 6.73-3.01 6.73-6.73a8.32 8.32 0 00-8.32-8.32H755.1a8.32 8.32 0 00-8.32 8.32c.02 3.71 3.03 6.73 6.75 6.73z"/><path class="st15" d="M927.65 222.07c-6.11-.87-11.8 1.42-16.09 5.85-9.83 10.14-2.25 16.63-5.48 29.91 1.81 2.01 4.05 3.6 6.96 4.38 13.77 3.84 29.23 1.68 39.64-8.75.05-.05.11-.1.16-.15-2.93-7.57-7.84-17.99-9.84-20.49-3.87-4.84-7.8-9.68-15.35-10.75z"/><path class="st23" d="M928.34 250.22s.06.31.17.84c.52 2.55 2.13 10.15 3.47 12.48 1.62 2.81-3.67 15.47-10.57 14.37-2.05-.33 1.17-6.8.47-9.94-.39-1.77-1.58-7.29-2.54-11.76-.74-3.43-1.34-6.23-1.34-6.23l10.34.24z"/><path d="M928.51 251.07l.18.86c-.71 1.23-1.67 2.39-2.93 3.4-2.09 1.68-4.17 2.37-6.11 2.34-.11-.49-.21-.98-.31-1.45-.74-3.43-1.34-6.23-1.34-6.23l10.34.24c0-.01.06.3.17.84z" fill="#ee745a"/><path class="st23" d="M921.19 227.65s4.22.54 7.27 4.16c3.06 3.63 6.35 14.84-1.24 20.94-7.59 6.1-15.09-.8-16.21-8.12-1.1-7.32-.88-17.24 10.18-16.98z"/><path class="st23" d="M909.85 244.54c.91 1.62 2.43 2.51 3.4 2 .97-.51 1.02-2.24.12-3.85-.91-1.62-2.43-2.51-3.4-2-.97.51-1.02 2.24-.12 3.85z"/><path class="st15" d="M919.91 227.48s6.51 10.66 11.17 11.16c4.66.49 5.27 6.16 5.27 6.16s-1.67-13.06-6.28-15.58c-4.61-2.52-10.16-1.74-10.16-1.74z"/><path class="st23" d="M929.56 241.18c-.38 1.89.38 3.63 1.7 3.88 1.32.25 2.7-1.09 3.07-2.98.38-1.89-.38-3.63-1.7-3.88-1.32-.25-2.69 1.09-3.07 2.98z"/><path d="M968.94 272.41l-1.28-.65c-7.58-3.87-16.75-.67-20.52 7.17l-27.89 57.96c-3.42 7.11-11.22 10.7-18.6 8.56l-50.96-14.75c-6.88-1.99-13.99 2.26-15.78 9.42l84.01 28.57 51.02-96.28z" fill="#7c7c7c"/><path class="st26" d="M772.52 330.76s-41.26-2.42-42.87.13c-1.61 2.55 14.11 6.19 15.59 7.12 12.65 7.95 11.5 3.05 14.33 2.38 2.82-.67 10.54-1.04 10.54-1.04l2.41-8.59z"/><path d="M913.91 347.81s-1.49 2.77-2.9 3.46c-5.21 2.52-15.28-1.31-15.28-1.31l-63.41-14.64-67.2 4.46s-2.29-8.21-1.18-11.57l61.55-12.96 70.66 7.17 17.76 25.39z" fill="#444443"/><path class="st22" d="M833.92 341.29c.25-1.91.58-3.81 1.75-5.21 3.1-3.7 8.98-5.22 13.94-3.83l60.61 18.7c.53.16 1.1.06 1.54-.29.6-.47 1.39-1.06 1.51-.94 2.71 2.57 4.27 18.84 4.27 18.84l-.08.15-83.54-27.42z"/><path d="M780.46 332.26s-6.24 2.51-11.44 5.14c-2.24 1.13-4.77 3.49-5.72 3.73-4.49 1.1-5.48-1.53-7.3-4.25-1.14-1.72-6.1-6.5-9.32-9.76-1.89-1.91-3.13-4.62-2.29-5.51 2.52-2.68 8.71 4.28 13.86 6.06 2.73.94 5.68.11 8.59-.57 3.45-.81 7.95-3.46 7.95-3.46l5.67 8.62z" fill="#f4a392"/><path class="st22" d="M921.49 375.26c2.08 0 4.1-1.14 5.12-3.14l47.55-92.56c1.47-2.86.37-6.37-2.46-7.86a5.73 5.73 0 00-7.77 2.49l-47.55 92.56c-1.47 2.86-.37 6.37 2.46 7.86.85.44 1.76.65 2.65.65z"/><path class="st22" d="M829.2 342.4c.94-3.2 4.3-5.04 7.5-4.1.95.28 85.47 25.08 86.98 25.52l-4.81 11.19-85.57-25.11a6.04 6.04 0 01-4.1-7.5z"/><path class="st22" d="M928.84 399.86l-11.77-28.77a5.35 5.35 0 013.41-7.16 5.35 5.35 0 016.68 3.58l9.69 32.02c.03.11.06.22.08.33h-8.09z"/><path class="st4" d="M894.15 322.07s-42.81-24.36-59.76-26.46c-6.44-.8-67.46 30.7-67.46 30.7l6.38 11.02s37.17-9.44 48.57-14.09c3.27-1.33 12.23-7.1 12.23-7.1l60.04 5.93z"/><path class="st26" d="M922.65 269.49s-37.16 27.37-40.78 27.85c-2.73.36-30.08-8-30.08-8l5.13 10.22s22.43 12.62 30.45 12.28c9.41-.4 31.49-19.03 31.49-19.03l3.79-23.32z"/><path class="st29" d="M892.41 291.85s8.7 12.53 8.91 15.88l18.28-13.79 3.04-24.46-30.23 22.37z"/><path class="st29" d="M941.86 262.56s4.5 12.35 2.69 27.26c-1.81 14.92-30.62 60.6-30.62 60.6s-6.09-.94-10.71-6.38c-1.94-2.28-9.07-21.97-9.07-21.97s9.07-8.87 9.88-14.72c.81-5.85 1.69-12.1 4.11-21.17 2.42-9.06 25.05-27.65 33.72-23.62z"/><path class="st22" d="M941.81 332.35l-80.94-4.88-6.19 8.63c-.9 41.65-1.08 57.77-1.12 63.77h-7.86c-.43-6.71-1.33-23.46-3.07-65.22.01.01 12.47-12.37 15.62-14.72 75.89.3 83.95.33 83.97.33 3.48.03 6.2 2.97 5.99 6.41a6.051 6.051 0 01-6.4 5.68z"/><path class="st23" d="M912.63 285.27l13.18 19.7s2.02-13.25 3.6-27.51c6.12.83 11.58 2.47 16.9 5.44-2.57 13.88-10.89 37.09-18.48 39.89-5.9 2.18-16.89-26.79-16.89-26.79l1.69-10.73z"/><path class="st29" d="M929.31 272.59c.91-4.38 1.97-8.78 6.7-10.16 2.93-.86 6.23-.04 8.57 1.88 2.79 2.29 3.57 5.95 3.56 9.43-.03 7.88-2.46 15.57-4.88 23.23-5.32-2.96-10.19-2.04-16.32-2.88-.56-7.01 1.19-15.79 2.37-21.5z"/><path d="M904.56 293.47h-2.22l.28-2.37h1.94c.92 0 1.67-1.06 1.67-2.37v-2.37c0-1.3-.75-2.37-1.67-2.37h-2.5v-2.37h2.5c1.84 0 3.33 2.12 3.33 4.73v2.37c0 2.63-1.49 4.75-3.33 4.75z" fill="#b85742"/><path d="M889.26 281.28v11.28c0 2.59 2.1 4.69 4.69 4.69h4.02c2.59 0 4.69-2.1 4.69-4.69v-12.71h-13.41v1.43z" fill="#44b8b6"/><path class="st23" d="M906.39 281.58c-1.13-.03-3.67 1.46-3.99 2.71-.31 1.25.34 2.67.29 3.55-.05.79-.25 2.05.04 3.07.08.28 1.56 1.92 1.74 2.54.18.61 6.66 3 6.66 3l1.59-11.1s-1.49-3.65-6.33-3.77z"/><path class="st29" d="M872.92 264.21l9.03 38.17c.22.91-.12 1.83-.75 2.03l-13.92 4.41-8.46-33.93s8.96-8.5 12.32-11.68c.63-.59 1.52-.08 1.78 1z"/><path d="M880.05 300.77l-7.86-33.22c-.26-1.08-1.15-1.59-1.77-1-2.73 2.59-6.86 6.5-9.82 9.31l7.59 30.46 11.11-3.52c.62-.2.96-1.12.75-2.03z" fill="#fbfbfb"/><path class="st29" d="M862.88 260.44l18.68 46.91c.43 1.08.02 2.19-.86 2.3l-20.44 2.76-15.06-37.01 15.3-15.91c.7-.73 1.91-.24 2.38.95z"/><path class="st26" d="M848.66 288.86s-.15-3.94 1.38-2.91c1.54 1.02 1.31 3.39 1.69 3.86.38.47 1.31 1.26 1.54 2.83.23 1.57 1.31 2.68 1.46 3.7.15 1.02.08 1.89.08 1.89s-5-.63-5.15-2.76c-.15-2.13-1-6.61-1-6.61z"/><g><path d="M890.43 267.03c2.49 2.2 5.1 1.98 5.28 2.03.58.15.66.37.72.42.01.02.01.04.03.05 0 .02.01.04.02.06.32 2.58.32 2.7.69 4.41.14.56.97.55 1.1-.02.27-1.23.41-2.75.29-4.66-.22-1.3-1.15-2.03-2.46-2.37-.26-.06-2.62.05-4.43-1.97-1.27-1.57-1.53-2.52-1.66-4.34-.16-2.12 1.17-4.75 3.51-5.91l1.24-.61c-.7-1.03-1.22-1.41-1.42-2.49-.1-.55-.08-1.14.08-1.69.59-2.09 2.48-2.17 2.49-2.18.66-.07.62-1.02-.04-1.05-3.15-.13-5.26 3.32-4.31 6.48-4.98 3.05-5.28 10.23-1.13 13.84zm5.19 2.01c-.02-.01-.02-.01 0 0z" fill="#828481"/></g><path class="st34" d="M967.19 399.86h3.61l.97-9.53h-5.55zM986.88 399.86h3.61l.97-9.53h-5.55z"/><path class="st4" d="M951.18 399.86h3.61l.97-9.53h-5.55z"/><g><path class="st35" d="M969.84 258.56h.66v32.8h-.66z"/></g><g><path class="st35" d="M973.89 263.25h1.61v63.22h-1.61z"/><path class="st35" d="M962.74 327.2c5.71 0 10.35-1.24 10.35-2.77 0-.28-.16-.55-.45-.81l.05-.02h4.17c-.3.26-.47.54-.47.82 0 1.96 6.49 2.78 10.48 2.77v.6h-24.38v-.6c.08.01.16.01.25.01z"/></g><path class="st35" d="M969.04 263.74h10.18c.84 0 1.51-.68 1.51-1.51v-.85h-13.21v.85c0 .83.68 1.51 1.52 1.51z"/><path class="st29" d="M955.18 259.72c0 .53 2.25 1.01 5.86 1.35 12.08 1.14 32.34.31 32.34-1.35 0-.07-12.48-23.05-12.48-23.05h-13.24s-12.48 22.99-12.48 23.05z"/><path class="st35" d="M969.03 291.71c0 .57.5 1.03 1.12 1.03.62 0 1.12-.46 1.12-1.03 0-.57-.5-1.03-1.12-1.03-.62 0-1.12.46-1.12 1.03z"/><path class="st1" d="M947.72 327.8h61.88v62.75h-61.88z"/><path transform="rotate(-180 986.83 348.898)" class="st20" d="M965.61 348.36h42.45v1.08h-42.45z"/><path transform="rotate(-180 986.83 366.261)" class="st20" d="M965.61 365.72h42.45v1.08h-42.45z"/><path d="M1012.31 327.48h-18.15c-1.61 0-2.91-1.41-2.91-3.14 0-1.74 1.31-3.14 2.91-3.14h18.15c-1.39 1.74-1.44 4.3-.13 6.11l.13.17z" fill="#fae0b2"/><path class="st6" d="M991.48 324.33c0-1.74 1.32-3.14 2.95-3.14h18.21c.08 0 .15-.07.15-.16s-.07-.16-.15-.16h-28.89c-1.8 0-3.25 1.55-3.25 3.47 0 1.92 1.46 3.47 3.25 3.47h28.89c.08 0 .15-.07.15-.16s-.07-.16-.15-.16h-18.21c-1.63-.01-2.95-1.42-2.95-3.16z"/><path d="M700.5 523.83H511.73c-5.52 0-10 4.48-10 10v12.07H710.5v-12.07c0-5.52-4.48-10-10-10z" fill="#9c9b9b"/><path class="st20" d="M949.15 329.29h17.95v59.54h-17.95z"/></svg>