<svg version="1.1" id="Layer_1" xmlns="http://www.w3.org/2000/svg" xmlns:xlink="http://www.w3.org/1999/xlink" x="0" y="0" viewBox="0 0 688.56 420.2" xml:space="preserve"><style>.st0{fill:#bac4e5}.st1{fill:#95c88b}.st2{fill:#44b8b6}.st3{fill:#fff}.st4{fill:#e51b4d}.st7{fill:#ed737d}.st8{opacity:.15;fill:#fbfdfb}.st9{fill:#414042}.st11{fill:none;stroke:#fff;stroke-width:1.093;stroke-miterlimit:10}.st12{opacity:.2;fill:#1d1b3a}.st13{fill:#fff;stroke:#6f6f6e;stroke-miterlimit:10}.st14{fill:#1d1b3a}.st15{fill:#f6bcbe}.st16{fill:#e95052}.st21{fill:#263239}.st22{fill:none;stroke:#44b8b6;stroke-miterlimit:10}.st24{fill:#e6e7e7}.st25{fill:#a3b3dc}.st27{fill:#f5b8ad}.st28,.st29{opacity:.5;fill:#e17f88}.st29{opacity:.6}.st30{fill:#353435}.st35{fill:#a2afd6}.st36{fill:#59595b}.st37{fill:#cfd1d3}.st38{fill:#e17f88}.st39{fill:#121d31}.st40{fill:#603914}.st46{fill:#e9a099}.st47{fill:#d57180}.st48{fill:none;stroke:#fff;stroke-width:.75;stroke-miterlimit:10}.st49{fill:#754c29}</style><path class="st0" d="M173.65 203.66c-21.91 0-39.74 17.83-39.74 39.74v69.56h79.49V243.4c0-21.91-17.83-39.74-39.75-39.74z"/><path class="st1" d="M213.4 287.87v25.09h-79.49v-30.97s3.97-1.96 11.25-2.5c.06-.01.14-.01.24-.02 2.99-.21 6.53-.18 10.57.33 3.71.46 7.83 1.32 12.35 2.75 26.35 10.44 43.18 5.88 44.93 5.36.1-.02.15-.04.15-.04z"/><path class="st2" d="M75.53 269.47h13.58l.23-15.6H75.3z"/><path class="st3" d="M74.66 253.24l.25 16.87h14.82l.25-16.87H74.66zm14.45 16.23H75.53l-.23-15.6h14.04l-.23 15.6z"/><path class="st4" d="M600.82 244.9l-10.08.61s-1.14-10.16-.66-13.58c.48-3.42 2.7-4.79 4.62-3.81 1.92 1 6.12 3.22 6.12 16.78z"/><path d="M601.56 245.39l-9.23-.9s-1.61-6.24-.62-10.36c0 0-2.11 5.55-.23 11.88l10.08-.62z" fill="#d83648"/><path d="M657.15 381.57c22.94-35.7 4.58-73.47 13.64-114.38 9.05-40.91 5.53-85.61-17.36-121.35-22.89-35.73-67.27-60.28-110.95-54.46-37.29 4.97-72.65 30.41-109.14 21.62-37.7-9.08-55.79-49.65-87.57-70.92-56.09-37.55-144.11-10.14-178.98 41.7-23.43 34.83-28.77 81.1-61.81 108.04-24.99 20.37-62.03 25.93-82.61 50.33-17.48 20.72-18.23 51.24-6.52 75.33 11.71 24.1 36.41 50.51 61.01 63.18l580.29.91z" fill="#f3f3f3"/><path class="st7" d="M301.97 181.83c3.04 1.05 6.27 1.57 9.54 1.72l-1.24-5.96-8.67-3.03s.65 3.4.37 7.27z"/><path class="st8" d="M296.24 193.45c.14.57-1.71 1.5-4.13 2.09s-4.49.61-4.63.05c-.14-.57 1.71-1.5 4.13-2.09 2.42-.6 4.49-.62 4.63-.05z"/><path class="st9" d="M302.17 241.92l-1.79 1.22s-1.66 8.77 4.9 14.15c0 0 1.13.12 2.89.18-4.32-3.45-7.1-9.8-6-15.55z"/><path fill="#323431" d="M408.62 153.68h14.44v21.63h-14.44z"/><path class="st11" d="M455.84 233.98c-7.99 62.59-51.67 83.29-108.35 74.47-25.34-3.94-40.89-21.01-56.65-40.6-19.49-24.23-44.68-31.2-40.26-65.81 3.23-25.34 19.78-47.41 40.25-54.74 32.36-11.59 43.11-47.86 76.84-42.61 25.6 3.98 22.28 37.17 42.14 51.99 45.27 33.79 50.41 42.98 46.03 77.3z"/><path class="st11" d="M459.38 208.77c6.56 62.79-31.72 90.85-88.59 98.1-25.42 3.24-44.37-8.94-64.09-23.51-24.4-18.02-50.36-17.75-53.99-52.47-2.66-25.42 8.31-51.39 26.45-64.18 28.67-20.22 30.78-58.32 64.63-62.63 25.68-3.27 30.05 29.76 52.66 38.58 51.52 20.09 59.33 31.68 62.93 66.11z"/><path class="st11" d="M457.4 223.15c-2.79 63.13-44.58 88.14-101.76 85.06-25.56-1.38-42.45-16.8-59.76-34.73-21.41-22.17-47.07-26.58-45.52-61.49 1.13-25.56 15.79-49.21 35.57-58.56 31.27-14.79 38.98-52 73.01-50.17 25.82 1.39 25.26 34.77 46.26 47.54 47.86 29.1 53.73 37.73 52.2 72.35z"/><path class="st12" d="M275.65 290.58c1.06-1.96 65.39-12.43 75.35-10.25 9.96 2.18 35.16 12.21 35.09 14.61-.06 2.4-75.6 13.38-78.9 12.47-3.3-.9-32.6-14.87-31.54-16.83z"/><path class="st13" d="M308.64 304.21c-.82 0-1.54-.59-1.68-1.43l-6.65-40.14-12.9 30.2c-.37.87-1.37 1.27-2.24.9a1.704 1.704 0 01-.9-2.24l15.2-35.57c.3-.7 1.01-1.11 1.77-1.02.75.09 1.35.67 1.48 1.41l7.6 45.91c.15.93-.47 1.81-1.4 1.96-.09.02-.18.02-.28.02zM378.2 295.39c-.71 0-1.37-.44-1.61-1.15l-12.43-35.94h-6.23l-7.19 28.17c-.23.91-1.16 1.46-2.07 1.23a1.705 1.705 0 01-1.23-2.07l7.52-29.45c.19-.75.87-1.28 1.65-1.28h8.77c.73 0 1.37.46 1.61 1.15l12.82 37.09c.31.89-.16 1.86-1.05 2.17-.19.06-.38.08-.56.08z"/><path class="st13" d="M304.69 267.32c29.49 5.39 69.93-12.09 69.01-14.75-.91-2.66-23.11 6.95-30.4-9.26-7.3-16.2 3.95-61.5-40.44-55.73-44.38 5.78-27.66 74.35 1.83 79.74z"/><path class="st14" d="M313.45 157.84s.97 28.04 3.78 29.44c2.81 1.4 10.42 1.85 14.98-2.11 0 0-2.76-2.15-3.18-8.97-.42-6.82-1.49-17.95-1.49-17.95l-14.09-.41z"/><path class="st15" d="M336.42 200.14l-12-10.18-4.7-.61-2.45-11.77-8.67-3.03s2.63 13.76-4.95 17.45l-10.59 13.41c3.87 2.56 7.28 5.78 10.36 9.25.02.02.03.05.04.07l23.87-5.73 15.56 23.11 4.83-.6-11.3-31.37z"/><path class="st7" d="M330.08 213.11l3.64 5.4s2.71-1.79 2.67-6.8c-.05-5.01 2.28-5.35 2.28-5.35l-1.97-5.48c-3.87 3.03-5.56 7.53-6.62 12.23z"/><path class="st15" d="M305.11 160.76c-3.17 10.27 4.1 20.87 14.85 21.05h.41c2.18 0 5.72-7.29 6.15-13.58.7-10.03-1.88-16.96-9.91-16.96-6.85 0-10.03 4.73-11.5 9.49z"/><path class="st7" d="M316.62 151.27c-6.86 0-10.04 4.73-11.51 9.49-2.34 7.59 1.02 15.34 7.26 18.96-2-3.81-1.57-8.75-1.43-12.04 5.12-.41 9.44-1.14 13.6-5.36 0 0 1.09 1.02 2.05 1.35-.34-7.5-3.23-12.4-9.97-12.4z"/><path class="st14" d="M315.06 168.46c-.55 0-.99.56-.99 1.25s.44 1.25.99 1.25.99-.56.99-1.25-.44-1.25-.99-1.25zM323.55 168.46c-.55 0-.99.56-.99 1.25s.44 1.25.99 1.25.99-.56.99-1.25-.45-1.25-.99-1.25z"/><path class="st14" d="M314.28 169.22c-.55-.06-.82-.51-1.02-.38-.21.14.59 1.02 1.02 1.09.43.08 0-.71 0-.71zM324.28 169.22c.55-.06.82-.51 1.02-.38.21.14-.59 1.02-1.02 1.09-.43.08 0-.71 0-.71z"/><path class="st16" d="M319.64 174.27c-.14-.02-.28-.07-.41-.13a.153.153 0 01-.07-.21c.04-.08.13-.11.21-.07.42.2.86.12 1.1-.06.11-.08.3-.26.26-.55-.03-.23-.25-.63-.49-1.06-.45-.81-.95-1.73-.71-2.37a.155.155 0 01.29.11c-.19.51.3 1.4.69 2.11.26.48.49.89.52 1.18.04.33-.1.63-.39.84-.27.19-.64.27-1 .21z"/><path class="st14" d="M316.42 166.21a.43.43 0 00-.21-.25c-1.25-.65-2.67-.51-4.22.44-.2.12-.26.38-.14.58.08.14.23.21.39.2.06-.01.13-.03.18-.06 1.29-.79 2.4-.93 3.39-.42.1.05.21.06.32.03.11-.03.2-.11.25-.21.07-.09.08-.21.04-.31zM322.05 166.1c.04-.11.12-.19.22-.24 1.28-.6 2.69-.38 4.19.63a.418.418 0 01-.47.69c-1.26-.85-2.36-1.04-3.37-.57-.1.05-.21.05-.32.01a.433.433 0 01-.24-.22.435.435 0 01-.01-.3z"/><path class="st16" d="M319.58 177.36c-1.24 0-2.51-.29-3.43-.88-.08-.05-.11-.16-.05-.24.05-.08.16-.11.24-.05 1.76 1.12 4.99 1.08 6.39-.07.08-.06.19-.05.25.02.06.08.05.19-.02.25-.8.64-2.07.97-3.38.97z"/><path class="st3" d="M320.49 173.3c0 .2-.27.36-.6.36-.33 0-.6-.16-.6-.36 0-.2.27-.36.6-.36.33 0 .6.16.6.36z"/><path class="st7" d="M321.15 178c0 .27-.49.49-1.09.49-.6 0-1.09-.22-1.09-.49s2.18-.27 2.18 0z"/><path class="st14" d="M313.45 190.1s-3.56-11.2-3.92-23.68c0 0 8.64 1.56 14.93-6.33 0 0 .65 1.56 2.18 2.4 0 0 4.11-6.01-4.79-11.81-4.15-2.7-15.5-3.64-21 5.63-7.37 12.41-2.18 34.26 12.6 33.79z"/><path class="st4" d="M296.58 239.93s8.68-5.82 3.46-23.1c0 0-5.79.93-14.19-5.04 0 0 2.79-15.12 5.97-17.18 3.18-2.05 11.83-3.92 11.83-3.92s8.42 11.47 14.87 9.79c6.45-1.68 5.79-11.32 5.79-11.32s7.39.95 8.75 2.05c3.85 3.12 4.88 9.37 8.06 11.05 0 0-3.98 3.92-8.06 5.23 0 0 1.65 8.69-2.4 11.95 0 0-3.67 7.41 4.04 19.23 0 .01-15.26 9.61-38.12 1.26z"/><path class="st8" d="M333.21 192.79c-.1.57-1.82.74-3.83.37s-3.56-1.13-3.45-1.7c.1-.57 1.82-.74 3.83-.37s3.56 1.13 3.45 1.7z"/><g opacity=".2"><path class="st14" d="M300.03 216.83c5.22 17.27-3.46 23.1-3.46 23.1 22.87 8.35 38.13-1.25 38.13-1.25-7.72-11.82-4.04-19.23-4.04-19.23.6-.45.83-.89 1.26-1.45-3.33.92-18.1 3.78-24.73.13-6.63-3.65-5.1-14.79-5.1-14.79l-2.15 10.44c-6.19.9-13.59-4.5-13.59-4.5-.33 1.51-.51 2.51-.51 2.51 8.41 5.97 14.19 5.04 14.19 5.04zM333.06 207.49c1.55-.5 3.08-1.37 4.39-2.26-3.67.91-4.77-3.56-5.1-6.08l.71 8.34z"/></g><path class="st15" d="M326.22 227.94c-1.84.31-29.42 2.07-29.42 2.07l1.66-13.14c-2.08-.11-6.08-.83-11.19-4.12 0 0 .39 22.88 1.84 24.53 1.46 1.65 42.04-5.61 42.04-5.61s-3.09-4.04-4.93-3.73z"/><path class="st7" d="M292.41 233.44c-1.16-1.16-1.35-10.45-1.87-16.08 3.01.7 5.31 1.07 7.71 1.15l.21-1.64c-2.08-.11-6.08-.83-11.19-4.12 0 0 .39 22.88 1.84 24.53 1.46 1.65 42.04-5.61 42.04-5.61s-.32-.42-.82-.98c-12.57 2.53-36.75 3.9-37.92 2.75z"/><path d="M303.65 230.94s-1.57 5.34-7.07 8.99c-6.99 4.63-7.94 18.16 8.6 20.75 8.2 1.28 22.66.82 30.94-2.46 16.02-6.35 28.43-18.29 28.43-18.29l-1.36-13.33s-23.84 5.89-39.21 6.2c-15.38.3-20.33-1.86-20.33-1.86z" fill="#474797"/><path d="M303.65 230.94s-1.57 5.34-7.07 8.99c-6.99 4.63-7.94 18.16 8.6 20.75 8.2 1.28 22.66.82 30.94-2.46 16.02-6.35 28.43-18.29 28.43-18.29l-1.36-13.33s-23.84 5.89-39.21 6.2c-15.38.3-20.33-1.86-20.33-1.86z" fill="#3fab44"/><path d="M303.65 230.94s-1.57 5.34-7.07 8.99c-6.99 4.63-7.94 18.16 8.6 20.75 8.2 1.28 22.66.82 30.94-2.46 16.02-6.35 28.43-18.29 28.43-18.29l-1.36-13.33s-23.84 5.89-39.21 6.2c-15.38.3-20.33-1.86-20.33-1.86z" fill="#252626"/><path class="st13" d="M285.84 257.51c0-1.78 3.14-1.24 8.03-2.55 0 0 2.08 4.56 17.48 4.56 9.75 0 23.36-8.61 23.36-8.61 13.57-.71 35.44-5.66 36.47-3.22 1.03 2.44-10.37 12.31-24.9 13.12-25.9 1.44-31.84 9.51-34.28 9.51-5.12-.02-26.16-11.03-26.16-12.81z"/><path class="st21" d="M311.41 234.8l47.88-5.96c.29-.04.54-.21.68-.47l13.05-22.34c.31-.59-1.79-1.72-2.46-1.72l-26.83 1.84c-.32 0-.62.17-.78.45l-10.93 23.35c-.14.24-.38.41-.66.45l-20.18 2.64c-.5.07-.85.53-.76 1.03.08.47.52.79.99.73z"/><path class="st13" d="M313.14 235.82l47.88-5.96c.29-.04.54-.21.68-.47l11.38-22.77a.889.889 0 00-.79-1.3l-26.83 1.84c-.32 0-.62.17-.78.45l-10.93 23.35c-.14.24-.38.41-.66.45l-20.18 2.64c-.5.07-.85.53-.76 1.03.08.47.52.8.99.74z"/><path class="st0" d="M356.73 220.53c-.54 1.27-1.87 1.93-2.98 1.46-1.11-.47-1.57-1.88-1.03-3.15s1.87-1.93 2.98-1.46c1.11.46 1.57 1.87 1.03 3.15z"/><path class="st9" d="M303.65 230.94s1.5-7.68 9.01-8.25c7.51-.57 19.4 17.42 38.34 20.55 0 0 .43 5.07-5.15 8.62-.01.01-43.7-6.52-42.2-20.92z"/><path class="st4" d="M346.28 251.14s7.19 2.73 10.44.73c3.24-2 5.78-7.11 2.82-9.63-2.96-2.52-2.96 3.26-9.73 1.85l-3.53 7.05z"/><path class="st9" d="M334.7 246.13s3.45 3.75 2.1 8.56c0 0 39.78-8.11 40.38-22.66.35-8.57-11.8-10.72-27.02 3.15-7.21 6.56-15.46 10.95-15.46 10.95z"/><path class="st15" d="M335.79 247.68l-6.75 1.54s.32 4.59.55 4.51c.24-.08 7.42 0 7.42 0s.49-3.02-1.22-6.05z"/><path class="st4" d="M332.04 254.68s.95-3.96-1.11-7c0 0-5.06 1.7-8.78 0-3.72-1.7-7.43-8.02-12.81-5.89l-1.98 1.34s-1.66 8.78 4.9 14.15c.02.01 13.06 1.36 19.78-2.6z"/><path class="st8" d="M329.57 206.12c1.71.56 2.23 6.14 1.01 6.94s-17.91 4.47-21.37 1.87c-3.46-2.59-3.05-6.87-1.41-7.66s8.43 1.8 12.26 1.66c3.83-.13 7.14-3.58 9.51-2.81z"/><path class="st0" d="M339.97 93.83h51.65v68.18h-51.65z"/><path class="st3" d="M342.76 96.87h46.08v62.01h-46.08z"/><path class="st0" d="M348.61 103.61h34.38v48.52h-34.38z"/><path class="st1" d="M419.22 252.98s-9.03-1.48-12.14-6.07c-3.12-4.59.99-6.72.99-6.72s-6.63-3.35-7.12-7.12c-.49-3.77 3.02-5.41 3.02-5.41s-10-4.86-3.64-13.84c0 0 8.89-2.66 10.69 5.54 0 0 3.61-2.95 7.22.16 3.61 3.12 1.09 12.91 1.09 12.91s2.47-3.06 5.64-1.11c3.94 2.46 2.45 14.94-5.75 21.66z"/><path class="st22" d="M400.74 214.28s17.6 18.88 18.48 38.7c.88 19.83-4.04 29.64-4.04 29.64"/><path class="st22" d="M400.74 222.19l6.75.71.55-7.26"/><path class="st22" d="M402.01 224.63l7.27.98.43-7.35M404.39 235.64l11.18 1.71 3.38-13.15M406.78 244.73l11.99 3.9 6.12-15.44"/><path class="st22" d="M407.06 242.56l11.17 3.31 4.96-13.86"/><path class="st1" d="M423.61 256.85s8.9-19.77 21.02-27.88c0 0 3.24 5.9.6 9.61-2.65 3.71-4.92 3.33-4.92 3.33s4.55 4.21 2.08 9.58c-2.47 5.37-8.97 2.63-8.97 2.63s.95 2.23-.49 3.58c-1.45 1.36-5 2.35-9.32-.85z"/><path class="st22" d="M444.12 229.28s-10.19 5.51-20.51 27.57c-5.08 10.85-5.08 31.16-5.08 31.16M434.94 238.33l9.74-.98M433.21 240.32l9.21-.51M426.53 251.02l15.3-1.69"/><path class="st1" d="M411.83 257.45s-11.47-18.4-24.55-24.82c0 0-2.43 6.28.69 9.6 3.12 3.32 5.32 2.65 5.32 2.65s-3.95 4.78-.78 9.77c3.17 4.99 9.24 1.41 9.24 1.41s-.64 2.34.97 3.48c1.61 1.15 5.26 1.65 9.11-2.09z"/><path class="st22" d="M387.28 232.63s13.92 7.52 24.55 24.82c5.56 9.04 7.19 29.85 7.19 29.85M390.07 240.87l7.2-.85M393.25 249.55l12.32-.74M394.08 253.17l14.13-1.1M404.12 257.24l7.23-.57"/><ellipse class="st12" cx="418.66" cy="294.94" rx="19.79" ry="3.05"/><path class="st4" d="M419.93 294.02h-2.88c-7.62 0-13.8-6.18-13.8-13.8v-15.43h30.49v15.43c0 7.62-6.18 13.8-13.81 13.8z"/><path d="M322.97 157.67c-.63 1.13-3.54.71-6.49-.94-2.96-1.65-4.84-3.9-4.22-5.03.63-1.13 3.54-.71 6.49.94 2.96 1.65 4.85 3.9 4.22 5.03z" opacity=".2" fill="#fbfdfb"/><path class="st24" d="M118.83 325.46v9.37l108.14-9.37s-108.14-1.34-108.14 0zM156.94 359.7s-10.23 3.41-22.85 3.41c-12.62 0-22.85-3.41-22.85-3.41s10.23-3.41 22.85-3.41c12.62 0 22.85 3.41 22.85 3.41z"/><path class="st25" d="M153.57 359.44l-3.4-.17h-9.07c-1.64 0-2.66-2.61.69-3.19 3.35-.58 8.23.95 8.23.95s4.27-1.29 3.55 2.41z"/><path class="st0" d="M146.71 342.64s3.13-3.72 4.41-3.5c1.28.22-.69 5.25-1.64 6.12-.95.87-2.77-2.62-2.77-2.62z"/><path class="st25" d="M147.84 342.46s1.67-1.98 2.35-1.86c.68.12-.37 2.79-.87 3.26-.51.46-1.48-1.4-1.48-1.4z"/><path class="st0" d="M144.13 341.32v11.77c4.02 0 3.76-2.45 4.9-3.41 1.15-.96 2.26-3.16.38-5.69a6.58 6.58 0 00-.7-.78c-1.91-1.78-4.58-1.89-4.58-1.89zM141.54 342.64s-3.13-3.72-4.41-3.5c-1.28.22.69 5.25 1.64 6.12.95.87 2.77-2.62 2.77-2.62z"/><path class="st25" d="M140.41 342.46s-1.67-1.98-2.35-1.86c-.68.12.37 2.79.87 3.26.51.46 1.48-1.4 1.48-1.4z"/><path class="st0" d="M139.22 349.68c1.15.96.88 3.41 4.91 3.41v-11.77s-1.41.06-2.92.78c-.83.39-1.7.99-2.37 1.89-1.88 2.52-.77 4.73.38 5.69z"/><path class="st0" d="M120.56 360.21h17c4.08 0 8.31.53 10.28-1.94 1.06-1.33.98-3.81.68-5.83-.09-.59-.19-1.14-.29-1.61-.2-.93-.39-1.55-.39-1.55s-.52-1.41-7.43.15c-2.12.48-3.84-.1-5.48-.94-3.69-1.89-6.93-5.08-13.26-.37-1.55 1.16-2.69 2.27-3.49 3.32-3.94 5.12.04 8.77 2.38 8.77z"/><path class="st25" d="M151.09 360.43l-3.4-.17h-9.07c-1.64 0-2.66-2.61.69-3.19 3.35-.58 8.23.95 8.23.95s4.27-1.29 3.55 2.41zM116.69 354.3s-2.6 6.59 4.06 6.59c6.65 0 11.64.83 11.87-.97.23-1.8-2.73-3.67-6.28-2.68-3.55.99-10.11 2.32-9.65-2.94z"/><path class="st9" d="M146.61 346.72c0 .59.24 1.06.54 1.06.3 0 .54-.47.54-1.06 0-.59-.24-1.06-.54-1.06-.3 0-.54.47-.54 1.06zM140.49 346.72c0 .59.24 1.06.54 1.06s.54-.47.54-1.06c0-.59-.24-1.06-.54-1.06s-.54.47-.54 1.06z"/><path class="st3" d="M144.08 348.81c1.48-.78 2.99.83 2.1 1.8-.89.97-2.1-.16-2.1-.16s-1.21 1.13-2.1.16c-.89-.97.62-2.58 2.1-1.8z"/><path class="st9" d="M142.96 348.36c.35-.48 1.1-.36 1.1-.36s.76-.12 1.1.36c.35.48-.79 1.14-1.1 1.14s-1.45-.66-1.1-1.14z"/><path class="st25" d="M148.09 357.89s-7.61-3.49-10.53-.2c0 0 1.12-1.71 4.02-1.75 2.9-.04 6.75 1.43 6.75 1.43l-.24.52zM140.66 351.76c.33.58 1.25 1.7 3.47 1.97 2.19.26 3.71-.73 4.39-1.3-.09-.59-.19-1.14-.29-1.61-.02.07-.76 2.49-4.11 2.26-2.3-.15-3.15-.87-3.46-1.32z"/><path d="M140.49 351.4s.02.15.17.36c-.12-.21-.17-.36-.17-.36z" fill="#cab7a9"/><path class="st25" d="M118.18 351.43c.73 2.89 4.63 3.65 6.23 2.87 1.78-.88 3.66-2.81 7.69-1.21 4.03 1.61 7.24-.87 5-1.69-2.24-.81-2.16-2.92-2.16-2.92-3.69-1.89-6.93-5.08-13.26-.37-1.56 1.16-2.7 2.27-3.5 3.32zM141.21 342.1c-.03 1.92 1.85 3.78 2.86 3.3l.06-.03c1.06-.56 1.3-2.01 2.8-1.43 1.53.58 1.79-.72 1.79-.72-1.92-1.78-4.59-1.89-4.59-1.89s-1.42.05-2.92.77z"/><path class="st24" d="M108.72 352.9s-5.9 1.97-13.17 1.97-13.17-1.97-13.17-1.97 5.9-1.97 13.17-1.97 13.17 1.97 13.17 1.97zM265.73 352.9s-7.18 2.4-16.04 2.4-16.04-2.4-16.04-2.4 7.18-2.4 16.04-2.4 16.04 2.4 16.04 2.4z"/><path class="st3" d="M164.61 234.5h-35.63c1.87-5.58 4.58-10.22 7.99-13.88 3.98 2.33 4.73 6.84 4.73 6.84s.81-1.48 2.55-1.29c2.04.25 2.48 2.89 2.48 2.89s1.8-2.72 5.8-2.46c4 .25 5.16 6.11 5.16 6.11s3.53-1.22 6.92 1.79z"/><path class="st13" d="M173.65 197.07c-25.55 0-46.33 20.78-46.33 46.33v76.15h92.66V243.4c0-25.55-20.78-46.33-46.33-46.33zm39.75 115.89h-79.49V243.4c0-21.91 17.83-39.74 39.74-39.74s39.74 17.83 39.74 39.74v69.56z"/><path class="st27" d="M179.25 348.2s-.77 3.63-.92 4.24c-.14.61-.84 5.38 0 6.06.84.68 6.82.68 7.12 0 .3-.68-1.76-6.67-1.97-7.42-.21-.75.08-1.44.08-1.74s-4.31-1.14-4.31-1.14z"/><path class="st4" d="M189.31 269.83l-2.91 7.73-.68 1.81-.8 2.13-.43 1.15c-.04.21-.07.43-.11.65-.91 6.2.41 17.35.41 17.35-3.1 3.01-11.15 3.14-11.15 3.14s-7.75.12-10.85-2.89c0 0 1.05-11.38.12-17.59-.03-.22-.07-.44-.11-.65l-.43-1.15-.8-2.13-.68-1.81-2.9-7.73s7.83-7.4 15.66-8.34c7.83.93 15.66 8.33 15.66 8.33z"/><path class="st27" d="M179.31 263.32s-1.42 3.79-5.82 3.96c-4.41.17-6.1-3.51-6.1-3.51l.47-2.29.81-3.96 4.48.54 4.43-.88.33 1.16 1.4 4.98z"/><path class="st28" d="M177.9 258.35c-.3.88-2.41 5.86-10.05 3.13l.81-3.96 4.48.54 4.43-.88.33 1.17z"/><path class="st27" d="M196.95 291.16c-.99-8.32-7.75-21.25-7.75-21.25l-1.67 2.6-2.91 5.68s3.84 7.21 6.34 11.51c-3.06 2.05-13.19 12.11-13.19 12.11l2.39 1.97c8.2-4.06 14.6-8.51 16-10.19.4-.41.69-1.18.79-2.43z"/><path class="st29" d="M194.46 281.89l-6.45 2.51.7 1.26z"/><path class="st4" d="M189.3 269.83l6.19 11.66-8.82 3.44-3.1-6.08c-.01-.01 1.82-11.16 5.73-9.02"/><path class="st27" d="M157.18 289.7c2.5-4.3 5.86-11.51 5.86-11.51l-2.91-5.68-1.79-2.8s-6.64 13.13-7.63 21.45c-.16 1.22.39 2.02.78 2.44 1.4 1.67 7.8 6.12 16 10.19l2.39-1.97c.01-.01-9.64-10.07-12.7-12.12z"/><path class="st29" d="M159.61 284.53l-6.52-2.54-.43 1.27 6.95 1.27"/><path class="st4" d="M157.99 269.83l-6.19 11.66 8.82 3.44 3.1-6.08c.01-.01-1.81-11.16-5.73-9.02"/><path class="st3" d="M186.4 277.56l-.68 1.81h-24.14l-.68-1.81zM184.93 281.49l-.43 1.15c-.04.21-.07.43-.11.65h-21.46c-.03-.22-.07-.44-.11-.65l-.43-1.15h22.54z"/><path class="st30" d="M183.56 300.13s-30.24-3.1-35.56-1.26c.06 3.51-3.11 5.61-1.04 7.66 9 8.94 37.14 6.32 37.14 6.32l-.54-12.72z"/><path class="st30" d="M184.55 299.02c1.41.91 5.38 3.63 6.39 8.83l-16.82 4.29 10.43-13.12z"/><path class="st9" d="M187.37 306.31s-31.77-7.83-36.13-7.84c-4.83-.5-9.42 4.79-3.16 8.91 6.89 4.6 38.25 4.67 38.25 4.67s-.98-3.71 1.04-5.74z"/><path class="st13" d="M189.28 286.06h-32.62c-.39 0-.69.34-.66.72l1.59 16.41c.03.34.32.59.66.59h29.43c.34 0 .62-.26.66-.59l1.59-16.41a.654.654 0 00-.65-.72z"/><path class="st13" d="M174.13 294.24c-.29-.49-.19-1.01.1-1.43-.37-.22-.8-.36-1.26-.36-1.36 0-2.47 1.11-2.47 2.47s1.11 2.47 2.47 2.47a2.47 2.47 0 002.46-2.35c-.53-.09-1.03-.34-1.3-.8z"/><path class="st4" d="M82.51 244.91h22.05l.38-25.34H82.13z"/><path class="st3" d="M81.09 218.54l.41 27.39h24.07l.41-27.39H81.09zm23.47 26.37H82.51l-.38-25.34h22.81l-.38 25.34z"/><path class="st2" d="M96.97 279.6h22.05l.38-25.34H96.59z"/><path class="st3" d="M95.55 253.24l.41 27.39h24.07l.41-27.39H95.55zm23.47 26.36H96.97l-.38-25.34h22.81l-.38 25.34z"/><path d="M255.87 346.7l1.95 5.7h-16.27l1.95-5.7-.01-.01c-.21-.25-6.99-8.33-6.99-21.31 0-13.17 7.97-18.87 7.97-18.87s0-.02.01-.04c.09-.64 1.09-7.98-3.59-12.64h17.57c-4.67 4.67-3.68 12.01-3.59 12.64.01.02.01.04.01.04s7.97 5.7 7.97 18.87c.01 12.98-6.77 21.06-6.98 21.32z" fill="#d8154c"/><path class="st4" d="M262.86 325.38a36.277 36.277 0 01-1.96 11.84c-2.02 5.89-4.89 9.32-5.03 9.48H243.5c-.2-.23-5.9-7.03-6.86-18.15a35.775 35.775 0 01-.1-4.56c.2-4.51 1.33-8.07 2.69-10.77v-.01c2.31-4.59 5.24-6.69 5.24-6.69s0-.02.01-.04h10.4c.01.02.01.04.01.04s7.51 5.36 7.96 17.72c0 .37.01.75.01 1.14z"/><path class="st24" d="M262.86 325.38c0 1.08-.05 2.13-.14 3.14l-3.9-2.3-4.1 5.39-4.94-4.61-5.04 4.43-3.97-5.4-4.14 2.51a35.693 35.693 0 01-.11-4.56l.09.18 5.14-3.13 3.59 4.87 4.52-3.97 4.38 4.1 3.6-4.74 4.98 2.93c.04.39.04.77.04 1.16z"/><path class="st24" d="M260.9 337.21c-2.02 5.89-4.89 9.32-5.03 9.48H243.5c-.2-.23-5.9-7.03-6.86-18.15a35.775 35.775 0 01-.1-4.56c.2-4.51 1.33-8.07 2.69-10.77-.01.51-.1 20.41 21.67 24z"/><linearGradient id="SVGID_1_" gradientUnits="userSpaceOnUse" x1="82.978" y1="320.383" x2="94.117" y2="320.383"><stop offset="0" stop-color="#bac4e5"/><stop offset="1" stop-color="#625aa3"/></linearGradient><path d="M92.93 339.53s-5.52-6.92-5.41-12.87c.11-5.95 1.19-8.01-2.06-10.71-3.25-2.7-2.38-14.71-2.38-14.71s.11 7.25 3.57 10.17 6.38 7.36 4.87 13.74c-1.51 6.38 2.6 14.39 2.6 14.39h-1.19z" fill="url(#SVGID_1_)"/><linearGradient id="SVGID_2_" gradientUnits="userSpaceOnUse" x1="97.547" y1="320.383" x2="108.686" y2="320.383"><stop offset="0" stop-color="#bac4e5"/><stop offset="1" stop-color="#625aa3"/></linearGradient><path d="M98.74 339.53s5.52-6.92 5.41-12.87c-.11-5.95-1.19-8.01 2.06-10.71 3.25-2.7 2.38-14.71 2.38-14.71s-.11 7.25-3.57 10.17-6.38 7.36-4.87 13.74c1.51 6.38-2.6 14.39-2.6 14.39h1.19z" fill="url(#SVGID_2_)"/><linearGradient id="SVGID_3_" gradientUnits="userSpaceOnUse" x1="89.214" y1="312.919" x2="99.019" y2="312.919"><stop offset="0" stop-color="#bac4e5"/><stop offset="1" stop-color="#625aa3"/></linearGradient><path d="M95.81 338.99s5.3-12.87 2.27-19.26c-3.03-6.38-3.68-11.25-2.27-16.66 1.41-5.41-6.6-16.23-6.6-16.23s3.79 11.03 2.6 16.66c-1.19 5.63-.36 13.85 2.31 17.63 2.67 3.79.51 17.85.51 17.85h1.18z" fill="url(#SVGID_3_)"/><path class="st21" d="M105.02 336.59s-.2 1.19-.61 3.13c-.27 1.26-.63 2.84-1.07 4.61-.31 1.21-.65 2.52-1.05 3.87-.47 1.63-1.01 3.33-1.61 5.03h-9.7c-1.11-3.1-1.99-6.22-2.67-8.9-.44-1.77-.8-3.35-1.07-4.61-.12-.55-.21-1.03-.29-1.44-.01-.02-.01-.03-.01-.03-.21-1.05-.31-1.65-.31-1.65h18.39z"/><path class="st3" d="M87.25 339.72c.27 1.26.62 2.84 1.07 4.61h15.02c.45-1.77.8-3.35 1.07-4.61H87.25z"/><path class="st24" d="M102.29 348.2c-.47 1.63-1.01 3.33-1.61 5.03h-9.7c-1.11-3.1-1.99-6.22-2.67-8.9-.44-1.77-.8-3.35-1.07-4.61-.12-.55-.21-1.03-.29-1.44.18.59 2.97 10.08 15.34 9.92z"/><path class="st0" d="M402.17 145.71h27.08v35.74h-27.08z"/><path class="st3" d="M404.8 148.91h21.82v29.63H404.8z"/><path class="st24" d="M642.22 327.27s-41.95 8.29-93.7 8.29-93.7-8.29-93.7-8.29 41.95-8.29 93.7-8.29 93.7 8.29 93.7 8.29z"/><path class="st35" d="M523.36 327.6s4.29-1.35 3.16-6.09-4.89-10.01.19-12.95c5.08-2.94 5.08 2.03 2 3.84-3.09 1.81-1.81 5.48-.53 9.1 1.28 3.63-.23 6.19-4.82 7.47v-1.37zM504.64 313.94l-1.67 1.47s1.42 7.5 1.42 10.97v3.24s-2.26.03-2.26 1.89h2.95c1.15 0 2.28-.35 2.5-1.51.22-1.15.06-9.71.06-9.71l-3-6.35z"/><path class="st0" d="M520.19 333.4h-5.15c-.21-1.82 1.54-2.36 1.83-2.43-.41.07-3.72.59-5.3-.69-1.69-1.36-.89-5.35-7.12-9.82-4.2-3.01-3.85-7.42-3.17-9.98.33-1.23.73-2.04.73-2.04l9.15.29c.2.32.41.62.64.91 4.59 6.05 12.5 6.71 13.77 15.85.94 5.52-2.67 7.91-5.38 7.91z"/><path class="st35" d="M511.79 309.65c-4.22 3.39-10.51.84-10.51.84.33-1.23.73-2.04.73-2.04l9.15.29c.2.32.41.62.63.91zM505.08 319.4l-.16 1.06s4.45 3.86 4.45 7.52v3.42s-2.38.03-2.38 2h3.12c1.22 0 2.41-.37 2.64-1.59.24-1.22 1.8-9.42 1.8-9.42l-9.47-2.99z"/><path class="st35" d="M512.92 330.92l1.36-7.16-.68 7.29zM516.92 330.96c.35-.15.72-.26 1.1-.35.38-.09.76-.15 1.14-.19l-.09.26c-.83-.72-1.54-1.55-2.14-2.47-.58-.93-1.06-1.95-1.21-3.07-.02-.14-.04-.28-.05-.42l-.01-.42c-.01-.28.03-.57.09-.85.12-.56.45-1.12.95-1.44.49-.33 1.08-.43 1.62-.43.55.01 1.09.11 1.6.29-.53-.09-1.07-.11-1.59-.06-.52.06-1.03.21-1.41.51-.39.3-.61.75-.7 1.23-.04.24-.07.49-.05.75l.02.38c.01.13.03.25.05.38.15 1.02.58 1.98 1.11 2.88.54.9 1.19 1.75 1.91 2.51l.24.26-.34.01c-.38.01-.75.02-1.13.07-.36.03-.74.09-1.11.17zM504.18 299.83s-2.03-4.03-3.15-3.83c-1.12.2-1.56 3.96 0 6.06l3.15-2.23z"/><path class="st0" d="M503.33 300.05s-1.2-2.38-1.86-2.26c-.66.12-.92 2.34 0 3.59l1.86-1.33z"/><path class="st35" d="M509.49 299.83s2.03-4.03 3.15-3.83c1.12.2 1.56 3.96 0 6.06l-3.15-2.23z"/><path class="st0" d="M510.34 300.05s1.2-2.38 1.86-2.26c.66.12.92 2.34 0 3.59l-1.86-1.33z"/><path class="st35" d="M513.96 308.15c-.18.18-.37.34-.56.49l-.02.02c-2.89 2.3-6.65 2.04-6.65 2.04s-3.76.26-6.65-2.04l-.02-.02c-.19-.15-.38-.31-.56-.49-2.94-2.85 2.21-9.28 7.23-9.28 5.01 0 10.16 6.44 7.23 9.28z"/><path class="st0" d="M513.38 308.66c-2.89 2.3-6.65 2.04-6.65 2.04s-3.76.26-6.65-2.04c.14-1.04.8-2.08 2.2-2.4 2.4-.54 4.45-2.23 4.45-3.23 0 1.01 2.04 2.69 4.45 3.23 1.39.31 2.06 1.35 2.2 2.4z"/><path class="st9" d="M503.7 304.21c0 .66-.27 1.19-.61 1.19-.34 0-.61-.53-.61-1.19 0-.66.27-1.19.61-1.19.34.01.61.54.61 1.19zM510.55 304.21c0 .66-.27 1.19-.61 1.19s-.61-.53-.61-1.19c0-.66.27-1.19.61-1.19s.61.54.61 1.19z"/><path class="st3" d="M506.53 306.55c-1.66-.87-3.34.93-2.35 2.02.99 1.08 2.35-.18 2.35-.18s1.35 1.26 2.35.18c1-1.09-.69-2.9-2.35-2.02z"/><path class="st9" d="M507.79 306.05c-.39-.54-1.24-.41-1.24-.41s-.85-.14-1.24.41c-.39.54.88 1.27 1.24 1.27.35 0 1.62-.73 1.24-1.27z"/><g><path class="st13" d="M541.74 328.07l-19.92-63.29h-4l21.28 63.29zM478.27 328.07l19.92-63.29h4l-21.28 63.29z"/></g><g><path class="st13" d="M564.95 272.59h30.79c2.14 0 3.87 1.73 3.87 3.87v5.95h-38.53v-5.95c0-2.14 1.73-3.87 3.87-3.87z"/><path transform="rotate(-180 580.945 297.617)" class="st13" d="M579.35 280.56h3.19v34.11h-3.19z"/><path class="st13" d="M580.34 314.67l15.25 2.12s.16-1.91-3.45-2.73c-3.62-.82-11.8-2.87-11.8-2.87v3.48z"/><path class="st13" d="M591.34 317.26c0 1.03.84 1.87 1.87 1.87 1.03 0 1.87-.84 1.87-1.87 0-1.03-.84-1.87-1.87-1.87-1.04 0-1.87.84-1.87 1.87z"/><path class="st13" d="M592.59 317.26c0 .34.28.62.62.62.34 0 .62-.28.62-.62 0-.34-.28-.62-.62-.62-.34 0-.62.28-.62.62z"/><g><path class="st13" d="M580.95 314.67l-15.25 2.12s-.16-1.91 3.45-2.73c3.62-.82 11.8-2.87 11.8-2.87v3.48z"/><path class="st13" d="M569.95 317.26c0 1.03-.84 1.87-1.87 1.87s-1.87-.84-1.87-1.87c0-1.03.84-1.87 1.87-1.87s1.87.84 1.87 1.87z"/><path class="st13" d="M568.7 317.26c0 .34-.28.62-.62.62s-.62-.28-.62-.62c0-.34.28-.62.62-.62s.62.28.62.62z"/></g></g><path class="st27" d="M552.39 310.01s.73 3.38.76 4.12c.03.74-2.95 5.29-3.98 6.89-1.04 1.61-3.22 2.42-3.33 3.3-.11.87 1.17 1.53 3.76.57 2.59-.95 3.68-3.81 5.62-4.71 1.94-.9 5.59-2.04 5.48-3.49-.11-1.44-2.78-4.2-2.78-4.2l-.82-3.34-4.71.86z"/><path class="st27" d="M565.49 317.66s-.98 3.28-.97 4 .76 5.11-.02 5.85c-.78.73-4.79 1.64-6.11 1.03-1.32-.6-2.92-2.28-2.39-3.1.53-.83 3.51-4.47 3.93-5.17.42-.7 1.08-4.04 1.08-4.04l4.48 1.43z"/><path class="st36" d="M595.71 273.49c-1.75 6.98-21.53 18.51-21.53 18.51l-7.12 28.11-7.6-2.62s3.55-27.76 4.54-30.05c.61-2.52 11.5-12.31 12.52-13.23l.07-.06-.08.05-21.01 12.05 3.56 24.03-7.31 2.96s-9.2-28.53-8.89-31.31c.32-2.78 31.77-21.46 31.77-21.46l3.65.55 15.08 2.25c.01-.01 3 7.68 2.35 10.22z"/><path class="st37" d="M555.15 286.17l3.55 24.03-6.67-24.69 20.93-12.49-1.61-3.79 4.8 4.89z"/><path class="st37" d="M595.72 273.49c-1.75 6.98-21.53 18.51-21.53 18.51l-7.12 28.11 5.01-29.24 18.85-17.56s-13.38-.35-19.6-7c-2.17-2.33 1.4-4.04 6.96-5.29l15.08 2.25c.01-.01 2.99 7.68 2.35 10.22z"/><path class="st27" d="M572.89 235.28c.04-1.99-2.59-11.28-7.74-1.86-1.87 4.27-2.96 21.26-2.96 21.26-5.66-1.58-13.26-3.81-15.77-4.63-.57-.86-1.33-1.94-1.72-2.32-.68-.67-1.94-2.15-2.28-2.48-.35-.33-3.56.12-3.91.45-.34.32-1.46.87-.01 1.02 1.47-.12 2.74-.28 2.74-.28l1.46 1.6s-1.9-.75-2.38-.79c-.48-.04-3.5 1.19-3.68 1.61-.18.42.62.96 1.32.64 0 0-.64.38-.64.68 0 .3.29.48 1.27.18 0 0-.37.51-.19.8.46.54 2.38-.4 2.58-.36.2.04.89 2.55 3.48 2.65h.27c7.48 4.33 18.21 9.12 21.13 8.21 3.44-1.86 6.44-20.25 7.03-26.38z"/><path class="st4" d="M563.34 244.9l10.08.61s1.14-10.16.66-13.58c-.48-3.42-2.7-4.79-4.62-3.81-1.92 1-6.12 3.22-6.12 16.78z"/><path class="st4" d="M566.15 231.03s.36 7.74 3.16 14.23c.19.79.88 2.8 1.06 3.66.37 1.8.7 3.71.99 5.51.05.31.09.61.14.9.09.63-.13 2.34-.12 2.39.06.42-2.61 6.38-2.6 6.44 5.16 6.84 26.55 5.09 27.04 4.5 0 0-2.52-13.44-1.1-20.88-.01-.02-.22-18.91-.01-19.66.01-.03.01-.05.01-.05s-4.16-2.87-9.43-4.71c-.48-.17-.97-.33-1.46-.47-.51-.15-1.02-.29-1.54-.41-1.68-.4-3.4-.64-5.09-.62-1.86.57-3.54 1.54-5.01 2.66-.22.16-.43.33-.64.51-.42.34-.82.69-1.2 1.05-3 2.81-4.2 4.95-4.2 4.95z"/><g><path class="st27" d="M571.54 225.11s.74 6.11 5.36 5.5c4.63-.61 7.15-7.14 7.15-7.14l-.89-2.31-1.19-3.76-1.45-4.58-3.48 5.72-4.77-.13-.14 1.27-.31 2.84-.28 2.59z"/><path class="st28" d="M571.84 224.07c.72-.04 5.02-.46 10.59-5.34l-1.51-4.78-3.64 5.97-4.98-.14-.14 1.32-.32 2.97z"/><path class="st27" d="M571.68 201.77s5.86-1.72 9.26 5.29c0 0 2.04 4.54.29 9.08 0 0-3.92 6.07-8.7 7.93-3.36 1.18-7.11-4.74-7.34-10.91-.23-5.84 2.63-10.74 6.49-11.39z"/><path class="st27" d="M580.72 213.76l.1 2.76c2.37.75 4.19-1.62 4.47-3.52.14-.96-.12-1.79-.89-2.05-1.64-.54-2.79 1.08-3.33 2.08-.23.42-.35.73-.35.73z"/><path class="st28" d="M581.07 213.03l.28-.06s.63-.89 2.07-.96c1.43-.08 1.88.99 1.88.99.14-.96-.12-1.79-.89-2.05-1.64-.53-2.8 1.09-3.34 2.08z"/><path class="st38" d="M583.76 212.6c-1.63.04-2.51 1.54-2.55 1.61-.04.07-.01.15.05.19.02.01.05.02.07.02.05 0 .09-.03.11-.07.01-.01.33-.57.94-1 .58.35.32 1.31.32 1.32-.02.07.02.15.09.17.01 0 .03.01.04.01.06 0 .11-.04.13-.1.01-.05.28-1.06-.33-1.55.31-.17.67-.3 1.09-.32h.04c.07.01.14-.06.13-.14 0-.08-.06-.14-.13-.14zM575.88 215.14c.02.13.36.18.76.11.39-.07.69-.23.67-.36-.02-.13-.36-.18-.76-.11-.39.07-.69.23-.67.36zM575.84 215.93c.01-.13.35-.2.75-.16.4.04.71.18.7.31-.01.13-.35.2-.75.16s-.71-.18-.7-.31zM566.26 216.29c-.02-.13-.36-.18-.76-.11-.39.07-.69.23-.67.36.02.13.36.18.76.11.4-.07.7-.23.67-.36zM566.3 215.5c-.01.13-.35.2-.75.16-.4-.04-.71-.18-.7-.31.01-.13.35-.2.75-.16.4.04.71.18.7.31z"/><path class="st39" d="M572.33 213.4c.09-.52.58-1.03 1.2-1.05.62-.02 1.14.45 1.26.97a2.53 2.53 0 00-.6-.46c-.21-.1-.43-.17-.65-.15-.45.01-.86.29-1.21.69zM566.24 213.68c.02-.25.12-.48.29-.68.16-.2.43-.35.72-.36.29-.01.56.12.74.31.18.19.3.42.33.66-.17-.18-.33-.34-.51-.45-.18-.11-.36-.18-.55-.17-.37.02-.71.32-1.02.69z"/><g><path class="st38" d="M570.48 217.17h-.05c-.21-.01-.69-.17-.79-1.4-.16-2.01.12-3.14.14-3.19a.14.14 0 01.17-.1c.07.02.12.09.1.17 0 .01-.28 1.14-.13 3.1.07.83.32 1.14.53 1.15.31.02.77-.54.93-1.45.01-.07.08-.12.16-.11.07.01.12.08.11.16-.18.96-.66 1.65-1.17 1.67z"/></g><g><path class="st38" d="M571.06 219.26c1.8-.33 2.63-1.91 2.66-1.97.03-.06.01-.13-.05-.16a.117.117 0 00-.16.05c-.01.02-.81 1.54-2.49 1.85-1.67.31-2.72-.87-2.73-.88-.04-.05-.12-.05-.17-.01-.05.04-.06.12-.01.17.05.05 1.15 1.28 2.95.95z"/></g><g><path class="st40" d="M565.73 212.09c.15-.01.29-.11.33-.26.01-.02.23-.73.85-1.06.39-.21.86-.22 1.41-.05.19.06.4-.05.46-.24s-.05-.4-.24-.46c-.75-.23-1.41-.2-1.98.1-.89.48-1.19 1.45-1.2 1.49-.06.19.05.39.25.45.05.02.08.03.12.03z"/></g><g><path class="st40" d="M575.99 211.85c.04 0 .09-.01.13-.03.21-.08.32-.32.24-.53-.02-.05-.43-1.11-1.47-1.57-.66-.29-1.41-.27-2.23.05a.41.41 0 00-.23.53c.08.21.32.31.53.23.61-.24 1.14-.26 1.6-.06.72.32 1.04 1.1 1.04 1.11.05.17.21.27.39.27z"/></g><path class="st40" d="M559.31 206.24s7.78-8.06 17.33-8.57c2.06-.12 3.07 1.09 3.55 2.06v-.06c.1-.85.37-1.52.61-1.49.24.03.35.74.25 1.59-.03.26-.08.5-.14.72.24-.23.55-.48.91-.73.89-.63 1.72-.99 1.85-.81.13.18-.5.83-1.39 1.46-.22.15-.43.29-.63.41.36.07.77.26 1.19.67 1.14 1.11 1.17 8.13.96 9.37-1.59.02-2.43 1.64-2.58 1.98-.11 1.12-.36 2.43-.84 3.75 0 0-.66-3.24-.61-6.23-.87-.16-2.92-.79-3.77-3.3 0 0-6.89 3.24-13.7 1.83.22-.35 1.55-1.05 2.51-1.42-2.36-.13-4.59-.33-5.5-1.23z"/></g><path class="st27" d="M598.39 233.04c-.52-1.92-5.69-10.08-7.95.42-.58 4.63 3.22 21.22 3.22 21.22-5.88.1-13.8.12-16.44.05-.79-.66-1.82-1.49-2.31-1.74-.84-.44-2.47-1.51-2.9-1.73-.43-.22-3.38 1.13-3.62 1.54-.24.41-1.16 1.25.28.98 1.38-.53 2.55-1.05 2.55-1.05l1.86 1.12s-2.04-.18-2.51-.08c-.47.1-3.02 2.14-3.07 2.6-.05.45.87.74 1.45.24 0 0-.51.55-.42.84s.42.38 1.27-.19c0 0-.21.6.04.82.59.38 2.17-1.06 2.37-1.08.2-.02 1.58 2.19 4.09 1.55.09-.02.17-.05.26-.08 8.4 2.02 20.06 3.56 22.59 1.86 2.78-2.76.42-21.24-.76-27.29z"/><path class="st13" d="M561.06 260.45l-.02 1.84s-9.34.87-9.74.91c-.4.04-26.7-.09-28.14-.97-.36-.22-1.02-2.43-1.61-4.14-1.87-5.39-4.11-15.22-3.47-15.98 1.05-.85 21.63-1.49 27.61-.63.83.12.66-.03.83.12 1.12.9 4.43 18.27 4.92 18.67.45.35 9.62.18 9.62.18z"/><path class="st4" d="M533.14 250.9c-.3-.57-.15-1.04.18-1.44-.31-.2-.66-.3-1-.25-1.08.15-1.76 1.65-1.53 3.35.24 1.7 1.31 2.95 2.39 2.8 1.08-.15 1.76-1.65 1.53-3.35-.01-.05-.02-.09-.02-.14-.65-.08-1.24-.37-1.55-.97z"/><g><path class="st13" d="M626.01 330.07l-19.92-63.29h-4l21.28 63.29zM562.54 330.07l19.92-63.29h4l-21.27 63.29z"/></g><path class="st13" d="M493.53 262.46h117.34c1.28 0 2.32 1.04 2.32 2.32 0 1.28-1.04 2.32-2.32 2.32H493.53c-1.28 0-2.32-1.04-2.32-2.32 0-1.28 1.04-2.32 2.32-2.32z"/><g><path class="st13" d="M516.01 211.32l-.26.22a2.977 2.977 0 00-.3 4.2l2.95 3.4a2.977 2.977 0 004.2.3l.26-.22a2.977 2.977 0 00.3-4.2l-2.95-3.4a2.995 2.995 0 00-4.2-.3z"/><path class="st13" d="M521.84 218.67l-.19.16c-.91.79-1.01 2.18-.22 3.1l2.17 2.51c.79.91 2.18 1.01 3.1.22l.19-.16c.91-.79 1.01-2.18.22-3.1l-2.17-2.51a2.21 2.21 0 00-3.1-.22z"/><path class="st13" d="M521.35 211.93l-2.21 1.91-1.3 1.12-2.21 1.91 2.45 12.97 7.22-6.25 1.3-1.13 7.23-6.25z"/><path class="st13" d="M506.58 259.94l-11.89-29.78 21.63-17.18 1.13 1.42-20.57 16.34 11.39 28.53z"/><path class="st13" d="M498.46 230.61a2.68 2.68 0 11-5.36 0 2.68 2.68 0 015.36 0z"/><circle class="st13" cx="495.78" cy="230.61" r="1.26"/><path class="st13" d="M495.78 258.52h22.52v3.94h-22.52z"/></g><g><circle transform="rotate(-67.604 497.502 168.996)" class="st13" cx="497.49" cy="169.01" r="13.14"/><path class="st13" d="M482.64 169.01c0 8.2 6.65 14.85 14.85 14.85s14.85-6.65 14.85-14.85-6.65-14.85-14.85-14.85-14.85 6.65-14.85 14.85zm1.72 0c0-7.24 5.89-13.14 13.14-13.14 7.24 0 13.14 5.89 13.14 13.14 0 7.24-5.89 13.14-13.14 13.14-7.25 0-13.14-5.9-13.14-13.14z"/><path class="st13" d="M497.49 158c.36 0 .66-.3.66-.66v-1.39c0-.36-.3-.66-.66-.66-.36 0-.66.3-.66.66v1.39c0 .36.3.66.66.66zM497.49 183.25c.36 0 .66-.3.66-.66v-1.39c0-.36-.3-.66-.66-.66-.36 0-.66.3-.66.66v1.39c0 .36.3.66.66.66zM486.23 169.26c0-.36-.3-.66-.66-.66h-1.39c-.36 0-.66.3-.66.66 0 .36.3.66.66.66h1.39c.36.01.66-.29.66-.66zM511.47 169.26c0-.36-.3-.66-.66-.66h-1.39c-.36 0-.66.3-.66.66 0 .36.3.66.66.66h1.39c.37.01.66-.29.66-.66z"/><g><path class="st13" d="M497.49 169.44c.08 0 .16-.02.23-.07l5.46-3.57c.2-.13.25-.4.12-.59-.13-.2-.4-.25-.59-.12l-4.8 3.14v-8.75c0-.24-.19-.43-.43-.43s-.43.19-.43.43v9.54c0 .16.09.3.22.38.08.02.15.04.22.04z"/></g><path class="st13" d="M497.49 167.3c.94 0 1.71.77 1.71 1.71s-.77 1.71-1.71 1.71-1.71-.77-1.71-1.71.77-1.71 1.71-1.71z"/></g><path d="M664.96 344.14l-211.79-11.63s-3.81-15.48-.39-32.06c.5-2.43 1.16-4.88 2.01-7.32 2.79-8.03 7.66-15.82 15.84-21.74 27.59-19.94 5.92-49.48.9-67.33-15.9-42.82 33.45-97.69 118.21-64.13 84.76 33.56 33.06 97.28 38.37 131.54 2.54 16.42 12.24 24.13 21.1 32.33 2.68 2.48 5.29 5.01 7.6 7.85 5.99 7.34 9.99 16.69 8.15 32.49z" fill="none" stroke="#f5f5f5" stroke-miterlimit="10"/><path class="st11" d="M666.63 336.95l-207.16 2.91s-4.66-15.19-2.35-31.96c.34-2.46.83-4.95 1.51-7.44 2.22-8.21 6.49-16.31 14.11-22.78 25.67-21.79 2.73-49.78-3.26-67.25-18.13-41.63 26.6-99.78 111.29-72.09 84.68 27.69 38.2 94.8 45.49 128.63 3.49 16.21 13.41 23.24 22.56 30.82 2.77 2.29 5.47 4.64 7.89 7.31 6.28 6.9 10.75 15.96 9.92 31.85z"/><path class="st11" d="M663.49 344.47l-211.72-12.45s-3.65-15.49-.07-32.05c.52-2.43 1.21-4.88 2.08-7.31 2.87-8.02 7.82-15.79 16.07-21.67 27.79-19.83 6.42-49.44 1.58-67.31-15.47-42.87 34.44-97.54 118.88-63.65 84.44 33.89 32.08 97.38 37.05 131.65 2.38 16.42 12 24.17 20.78 32.41 2.66 2.49 5.25 5.03 7.53 7.87 5.92 7.36 9.82 16.72 7.82 32.51zM279.75 331.93c-.22 2.11-.55 4.14-.97 6.06-.01.05-.02.11-.04.16-2.83 12.64-9.36 20.75-9.36 20.75L93.4 376.94s-5.33-7.06-12.16-18.55l-.09-.15a290.25 290.25 0 01-3.26-5.62c-14.71-26.14-33.13-68.93-22.78-105.99 16.3-46.1 43.24-22.58 84.29-78.77 41.04-56.19 111.91-12.64 102.91 24.82-9.01 37.45-4.73 62.06 24.08 98.1 12.07 15.1 14.55 29.51 13.36 41.15z"/><path class="st11" d="M275.67 330.15c-.22 2.11-.55 4.14-.97 6.06-.01.05-.02.11-.04.16-2.83 12.64-9.36 20.75-9.36 20.75L89.32 375.17s-5.33-7.06-12.16-18.55l-.09-.15a290.25 290.25 0 01-3.26-5.62c-14.71-26.14-33.13-68.93-22.78-105.99 16.3-46.1 43.24-22.58 84.29-78.77 41.04-56.19 111.91-12.64 102.91 24.82-9.01 37.45-4.73 62.06 24.08 98.1 12.07 15.1 14.55 29.5 13.36 41.14z"/><g><defs><path id="SVGID_4_" d="M173.65 203.66c-21.91 0-39.74 17.83-39.74 39.74v69.56h79.49V243.4c-.01-21.91-17.83-39.74-39.75-39.74z"/></defs><clipPath id="SVGID_5_"><use xlink:href="#SVGID_4_" overflow="visible"/></clipPath><g clip-path="url(#SVGID_5_)"><path class="st2" d="M177.18 234.23s-9.6 13.92 9.19 16.79c0 0 2.07 8.87 12.04 5.37 0 0 7.07 10.27 14.61-.81 0 0 11.14 4.67 13.01-3.8 0 0 11.39.87 11.95-10.22.11-2.1-.08-3.84-.43-5.28-1.56-6.22-6.44-7.03-6.44-7.03s7.93-7.57-1.7-12.05c0 0 8.62-17.74-11.31-17.13 0 0-1.36-13.57-12.6-14.28-11.23-.72-13.96 11.84-13.96 11.84s-5.89-2.82-7.26 1.7c-.2.64-.3 1.42-.28 2.38 0 0-4.66-2.38-8.92 4.66-4.27 7.05 2.38 15.56 2.38 15.56s-7.88 5.74-.28 12.3z"/><path d="M187.41 218.74s-9.6 13.92 9.19 16.79c0 0 2.07 8.86 12.04 5.36 0 0 7.07 10.27 14.61-.8 0 0 11.14 4.67 13.01-3.81 0 0 .49.04 1.28 0-1.56-6.22-6.44-7.03-6.44-7.03s7.93-7.57-1.7-12.05c0 0 8.62-17.74-11.31-17.13 0 0-1.36-13.57-12.6-14.28-11.23-.72-13.96 11.84-13.96 11.84s-5.89-2.82-7.26 1.7c.98 4.01 3.41 7.11 3.41 7.11s-7.87 5.74-.27 12.3z" fill="#36aca6"/><linearGradient id="SVGID_6_" gradientUnits="userSpaceOnUse" x1="203.342" y1="283.715" x2="209.047" y2="283.715"><stop offset="0" stop-color="#bac4e5"/><stop offset="1" stop-color="#625aa3"/></linearGradient><path d="M204.36 242.91c1.29 3.12 1.82 6.54 2.19 9.9.34 3.38.38 6.79.25 10.18-.08 3.39-.39 6.78-.79 10.15l-.68 5.07c-.22 1.71-.47 3.42-.59 5.14-.61 6.87-1.92 13.9-1.16 20.78.34 3.43.7 20.53.7 20.53l4.5-.41.28-.07s-1.33-13.59-1.67-20.36c-.17-3.38-.36-6.76-.44-10.15-.04-1.69-.12-3.39-.08-5.08l.03-2.54.12-2.54c.05-1.7.22-3.38.37-5.07l.47-5.12c.26-3.43.44-6.88.38-10.33-.06-3.44-.29-6.89-.82-10.3-.57-3.39-1.28-6.79-2.78-9.93l-.28.15z" fill="url(#SVGID_6_)"/></g><linearGradient id="SVGID_7_" gradientUnits="userSpaceOnUse" x1="193.735" y1="259.355" x2="220.509" y2="259.355"><stop offset="0" stop-color="#bac4e5"/><stop offset="1" stop-color="#625aa3"/></linearGradient><path d="M220.38 248.03a95.44 95.44 0 01-2.42 5.1c-.85 1.67-1.78 3.28-2.79 4.84-1.01 1.55-2.47 4.14-8.12 6.64h-.15l-.03.74c-.13.77-.29 1.54-.43 2.31l-.18 1.75.36-.22c-1.67-.79-3.32-1.42-4.75-2.64a22.657 22.657 0 01-3.82-4.13c-1.07-1.53-2.04-3.17-2.68-4.97-.4-.87-.61-1.8-.89-2.72-.26-.93-.39-1.88-.62-2.84l-.13.01c0 .49.02.98.03 1.47.03.49-.01.99.1 1.48.17.97.27 1.97.58 2.92.5 1.93 1.38 3.77 2.5 5.44 1.1 1.69 2.53 3.15 4.13 4.37 1.6 1.22 3.31 2.25 5.25 2.91l.58.19.05-.58.19-2.34c.07-.78.13-1.56.21-2.34l-.17.2c1.85-.58 3.52-1.58 5.02-2.78.76-.59 1.47-1.25 2.13-1.96.66-.7 1.28-1.45 1.82-2.25 1.09-1.59 1.96-3.32 2.7-5.08.73-1.77 1.31-3.59 1.66-5.47l-.13-.05z" clip-path="url(#SVGID_5_)" fill="url(#SVGID_7_)"/></g><g><path class="st46" d="M179.17 252.62s1.23-3.13 3.26-2.44-.07 5.88-3.18 4.86l-.08-2.42z"/><path class="st47" d="M181.84 251.62c-1.44.02-2.22 1.34-2.25 1.39-.03.06-.01.13.04.16.02.01.04.02.06.02.04 0 .08-.02.1-.06 0-.01.3-.5.83-.87.5.31.27 1.15.27 1.16-.02.06.02.13.08.15.01 0 .02.01.04 0 .05 0 .1-.04.11-.09.01-.04.25-.93-.28-1.36.27-.15.59-.26.96-.27h.04c.06.01.12-.05.12-.12 0-.06-.05-.11-.12-.11z"/><path class="st46" d="M166.64 252.99l.07 2.43c-2.03.8-3.77-1.17-4.13-2.82-.18-.83 0-1.57.66-1.85 1.4-.57 2.51.78 3.05 1.62.23.36.35.62.35.62z"/><path class="st47" d="M163.91 252.15c1.43-.06 2.29 1.2 2.33 1.26.04.06.02.13-.03.17-.02.01-.04.02-.06.02-.04 0-.08-.02-.1-.05-.01-.01-.33-.48-.88-.82-.48.34-.21 1.17-.2 1.18.02.06-.01.13-.07.15-.01 0-.02.01-.04.01a.13.13 0 01-.12-.08c-.01-.04-.31-.91.2-1.38-.28-.13-.6-.22-.97-.21h-.04c-.06.01-.12-.05-.13-.11 0-.08.05-.13.11-.14z"/><path class="st27" d="M179.76 251.15c.17 5.64-2.78 10.31-6.59 10.42-3.81.11-7.03-4.37-7.19-10.01-.17-5.64 2.78-10.31 6.59-10.42 3.8-.11 7.02 4.37 7.19 10.01z"/><path class="st39" d="M174.63 252.53c.04-.24.15-.49.35-.67a1.116 1.116 0 011.5-.06c.21.17.34.4.4.64-.37-.33-.75-.54-1.14-.52-.41.01-.78.25-1.11.61zM168.64 252.82c.02-.22.1-.45.28-.64.17-.19.45-.33.76-.34.31-.01.6.11.78.29.19.17.3.39.33.62-.37-.31-.73-.55-1.1-.53-.37 0-.72.26-1.05.6z"/><g><path class="st47" d="M168.49 253.99c-.01.12-.31.18-.66.14-.35-.04-.62-.16-.61-.28.01-.12.31-.18.66-.14s.62.16.61.28zM168.57 254.67c-.02-.11-.32-.16-.66-.1-.35.06-.61.2-.59.32.02.11.32.16.66.1s.61-.2.59-.32z"/><g><path class="st47" d="M177.41 254.41c.01-.12.31-.18.66-.14.35.04.62.16.61.28-.01.12-.31.18-.66.14-.35-.04-.62-.16-.61-.28zM177.33 253.72c.02.11.32.16.66.1.35-.06.61-.2.59-.32-.02-.11-.32-.16-.66-.1-.35.07-.61.21-.59.32z"/></g><g><path class="st47" d="M173.05 255.46h-.04c-.18-.01-.61-.15-.69-1.23-.13-1.77.13-2.76.14-2.8a.12.12 0 11.23.07c0 .01-.26 1-.14 2.72.05.73.27 1 .46 1.01.28.02.68-.47.83-1.27a.13.13 0 01.14-.1c.06.01.11.08.1.14-.15.84-.58 1.44-1.03 1.46zM173.17 257.4c-1.82.05-2.96-1.31-3.01-1.37a.125.125 0 01.02-.17c.05-.04.13-.03.17.02.01.01 1.11 1.33 2.82 1.28 1.7-.05 2.47-1.41 2.48-1.43.03-.06.11-.08.16-.05.06.03.08.11.05.16-.04.07-.86 1.5-2.69 1.56z"/><path class="st9" d="M176.32 249.98c-.4-.11-.84-.04-1.31.22-.16.09-.37.03-.46-.13a.342.342 0 01.13-.46c.64-.36 1.26-.45 1.84-.28.91.27 1.41 1.51 1.24 1.6-.03.02-.81-.77-1.44-.95zM167.63 251.63c-.18-.05.07-1.37.91-1.81.53-.28 1.16-.31 1.86-.08.18.06.28.25.22.43a.34.34 0 01-.43.22c-.52-.17-.96-.15-1.33.04-.59.29-1.2 1.21-1.23 1.2z"/></g></g></g><g><path class="st48" d="M171.96 252.56a2.445 2.445 0 01-2.6 2.3 2.445 2.445 0 01-2.3-2.6 2.445 2.445 0 012.6-2.3c1.35.08 2.39 1.24 2.3 2.6zM178.68 252.21a2.445 2.445 0 01-2.6 2.3 2.445 2.445 0 01-2.3-2.6 2.445 2.445 0 012.6-2.3 2.44 2.44 0 012.3 2.6zM171.96 252.23s.88-.84 1.81-.08"/></g><path class="st49" d="M164.33 250.61s-1.33-3.47-1.17-4.5c.16-1.02 1.46-4.8 4.85-6.33.48-.84 1.73 5 1.73 5s-.69 1.65-2.73 2.31c0 0 1.1 1.91-.93 5.43 0 0-.42-1.4-1.75-1.91z"/><path class="st49" d="M178.68 246.64s-1.71-.25-2.73-2.31c0 0-1.72.04-2.87 2.31-1.31 2.38-6.19 3.45-9.27 1.42 0 0 .55-.36 1.1-3.18.54-3.62 2.89-5.86 7.62-6.86s5.44 2.65 5.44 2.65 2.01-.27 2.94.33c.93.6 1.5 3.49 1.57 4.81.07 1.33-1.11 4.35-1.11 4.35s-1.34.76-1.64 2.12c-.02 0-2.02-3.09-1.05-5.64z"/><g><path class="st9" d="M179.91 242.94c-2.08-3.5-5.96-3.92-6.85-3.98v-.01h-.2v.01c-.89.05-4.77.48-6.85 3.98-2.36 3.97-1.25 8.69-1.25 8.69l1.05-.3s-.48-2.88.01-5.22c.48-2.32 2.39-6.35 7.13-6.41 4.74.05 6.65 4.08 7.13 6.41.48 2.34.01 5.22.01 5.22l1.05.3c.02 0 1.13-4.72-1.23-8.69z"/><path class="st9" d="M180.2 249.44l-1.31 7.13s3.46.67 4.24-.71c.79-1.38 1.1-4.14.56-4.88-.47-1.26-3.49-1.54-3.49-1.54zM165.74 249.44l1.31 7.13s-3.46.67-4.24-.71c-.79-1.38-1.1-4.14-.56-4.88.47-1.26 3.49-1.54 3.49-1.54z"/><path class="st9" d="M166.26 255.67s1.85 2.69 5.12 2.64c0 0 .76-.67 1.27-.28s.07 1.22-1.15.86c0 0-3.8.27-5.9-2.94l.66-.28z"/></g><path class="st13" d="M118.83 312.65h108.14v12.81H118.83z"/><path class="st36" d="M178.34 350.03s2.06-32.66 3.36-36.82c.97-4.76 7.39-7.55 9.45-.34 2.32 7.95-6.43 37.31-6.43 37.31s-3.84-1.46-6.38-.15z"/><path class="st27" d="M184.05 311.08s3.61-.08 4.42.23c.81.3 7.65 4.32 8.81 4.32s2.02-.59 2.27-1c.25-.4-.16-4.49-.82-5.1-.66-.61-6.68-3.19-7.85-3.44s-1.74.8-3.8.56c-2.06-.23-2.59-.01-2.59-.01l-.44 4.44z"/></svg>