<svg xmlns="http://www.w3.org/2000/svg" version="1.1" xmlns:xlink="http://www.w3.org/1999/xlink" xmlns:svgjs="http://svgjs.com/svgjs" width="70" height="70"><svg width="70" height="70" viewBox="0 0 70 70" fill="none" xmlns="http://www.w3.org/2000/svg">
<path opacity="0.78" d="M34.7887 35.1269V35.7931C34.6654 38.8289 33.6397 41.7591 31.8425 44.2089C30.0454 46.6588 27.5585 48.5171 24.6998 49.5463L12.4695 53.8293L2 57.4936L32.4568 11.9987L32.6948 11.618C33.2257 10.8916 33.9518 10.3305 34.7887 10V35.1269Z" fill="#E9264E"></path>
<path opacity="0.78" d="M67.9581 57.208L57.8693 53.6865H57.3934L45.163 49.4035C42.2033 48.372 39.6399 46.4414 37.831 43.8817C36.0222 41.322 35.0583 38.2611 35.0742 35.1268V10.0476C35.8939 10.3387 36.6181 10.8489 37.1681 11.5228V11.5228L37.4061 11.9987L67.9581 57.208Z" fill="#E9264E"></path>
<path opacity="0.3" d="M34.7887 35.7931V41.7417C34.784 44.26 33.999 46.715 32.5417 48.7688C31.0845 50.8227 29.0265 52.3744 26.651 53.2106L8.37695 59.5875L12.3744 53.6389L24.6047 49.3559C27.4523 48.3544 29.9394 46.5316 31.7519 44.1177C33.5644 41.7038 34.6212 38.8071 34.7887 35.7931Z" fill="#E9264E"></path>
<path d="M34.7887 19.8509V35.3172C34.7461 38.3696 33.7842 41.3383 32.0286 43.8356C30.1976 46.3612 27.6415 48.27 24.6999 49.3083L12.4696 53.6865L34.7887 19.8509Z" fill="#E9264E"></path>
<path opacity="0.3" d="M61.4384 59.0164L43.0691 52.592C40.6987 51.7539 38.6471 50.2002 37.1979 48.1457C35.7486 46.0912 34.9733 43.6373 34.979 41.1231V34.9841C34.9631 38.1184 35.927 41.1793 37.7358 43.739C39.5447 46.2987 42.1081 48.2292 45.0679 49.2607L57.2982 53.5437H57.7741L61.4384 59.0164Z" fill="#E9264E"></path>
<path d="M57.8693 53.6865H57.3934L45.163 49.4035C42.2033 48.372 39.6399 46.4415 37.831 43.8818C36.0222 41.3221 35.0583 38.2612 35.0742 35.1269V19.8509L57.8693 53.6865Z" fill="#E9264E"></path>
</svg><style>@media (prefers-color-scheme: dark) { :root { filter: brightness(2); } }
</style></svg>