<svg width="1457" height="465" viewBox="0 0 1457 465" fill="none" xmlns="http://www.w3.org/2000/svg">
<g clip-path="url(#clip0)">
<path d="M231.614 403.525C231.614 403.525 204.757 373.236 254.635 342.752C247.739 354.615 222.387 368.034 240.308 398.275C247.739 415.486 236.811 422.827 236.811 422.827C236.811 422.827 220.59 424.14 231.614 403.525ZM275.664 433.426C271.439 441.351 216.85 440.67 189.361 439.795C189.07 438.579 188.779 437.412 188.536 436.246C188.05 434.106 187.564 432.016 187.176 429.877C208.157 428.515 280.521 424.334 275.664 433.426Z" fill="white" stroke="#BDBDBD" stroke-width="3.007" stroke-miterlimit="10" stroke-linecap="round" stroke-linejoin="round"/>
<path d="M275.664 433.474L271.099 492.838C264.008 503.534 264.154 517.341 261.289 530.468C260.123 536.692 255.704 538.734 250.75 538.442C239.968 529.107 228.312 518.119 216.802 505.624C203.154 483.649 194.607 461.138 189.41 439.892C216.899 440.718 271.439 441.35 275.664 433.474Z" fill="white" stroke="#BDBDBD" stroke-width="3.007" stroke-miterlimit="10" stroke-linecap="round" stroke-linejoin="round"/>
<path d="M289.117 346.058C292.566 349.413 297.519 350.434 300.871 350.726C302.376 349.996 303.882 349.17 305.436 348.295C312.089 344.502 316.315 337.647 319.034 330.063C314.663 331.667 304.853 334.827 300.628 333.126C295.043 330.938 297.228 328.458 299.802 329.236C303.007 330.889 315.052 327.437 320.394 325.833C321.511 321.749 322.288 317.568 322.774 313.581C318.986 315.866 313.255 317.908 310.632 317.033C307.281 315.866 308.593 313.095 311.361 313.435C313.401 313.678 319.957 310.178 323.26 308.281C323.843 300.162 323.503 293.647 323.357 291.946C323.357 291.654 323.308 291.508 323.308 291.508C323.308 291.508 315.392 289.174 305.047 287.667C302.862 289.904 299.608 293.355 298.248 295.689C296.062 299.336 295.043 302.35 293.294 301.767C289.846 299.968 296.937 291.459 300.871 287.132C296.354 286.646 291.546 286.354 286.835 286.5C272.75 297.634 280.133 307.309 274.645 306.142C269.885 305.121 278.336 292.043 281.93 286.841C277.461 287.327 273.236 288.348 269.545 290.001C266.243 291.702 263.28 293.355 260.706 294.96C256.723 304.392 266.194 309.643 261.192 310.81C257.306 311.733 256.772 302.496 256.772 297.537C222.63 321.263 257.549 337.161 257.549 337.161C257.549 337.307 257.598 337.453 257.598 337.599C260.706 356.9 276.733 360.06 294.363 353.545C291.643 351.358 286.689 347.322 285.863 346.398C284.649 345.134 286.301 342.995 289.117 346.058Z" fill="white" stroke="#BDBDBD" stroke-width="3.007" stroke-miterlimit="10" stroke-linecap="round" stroke-linejoin="round"/>
<path d="M317.043 296.321C317.043 296.321 277.121 327.048 257.403 337.161L317.043 296.321Z" stroke="#BDBDBD" stroke-width="3.007" stroke-miterlimit="10" stroke-linecap="round" stroke-linejoin="round"/>
<path d="M306.893 318.686C306.893 318.686 297.617 319.901 288.098 317.616L306.893 318.686ZM284.989 303.809C284.989 303.809 279.356 317.325 282.027 321.846L284.989 303.809ZM294.8 338.279C294.8 338.279 278.53 332.591 273.188 327.778L294.8 338.279ZM257.695 319.075C257.695 319.075 256.432 329.431 262.746 334.292L257.695 319.075Z" stroke="#BDBDBD" stroke-width="3.007" stroke-miterlimit="10" stroke-linecap="round" stroke-linejoin="round"/>
<path d="M166.487 322.867C169.401 323.207 172.217 323.645 174.986 324.18C178.725 327.778 183.291 333.806 183.291 341.342C182.805 347.857 187.516 346.739 187.759 344.065C187.953 342.169 187.079 332.299 186.545 326.951C216.073 335.751 231.42 355.296 210.294 382.911C210.294 382.911 232.294 436.391 161.484 433.474C167.701 427.251 178.628 415.194 172.8 412.568C165.321 409.214 170.08 424.917 153.471 432.94C148.274 432.453 142.689 431.724 136.618 430.703C130.062 429.293 123.699 426.473 117.726 422.827C128.605 419.715 155.171 411.353 150.702 405.519C145.554 398.761 142.252 418.062 111.363 418.548C105.487 414.221 100.047 409.262 95.2393 404.303C105.438 402.65 124.574 398.809 122.728 393.218C121.32 390.836 116.366 393.656 109.178 396.135C104.613 397.691 96.3563 398.955 90.9169 399.684C80.3293 387.87 73.7728 377.32 73.7728 377.32C73.7728 377.32 82.1749 367.596 94.8993 356.317C101.262 357.143 113.5 359.039 115.686 361.276C118.6 364.339 123.699 362.102 121.125 357.435C119.134 353.837 109.615 350.92 102.233 350.142C107.818 345.621 113.986 341.05 120.445 337.015C128.945 340.029 147.691 347.274 149.488 352.427C151.577 355.928 157.259 354.907 153.374 346.787C150.362 340.564 134.675 335.168 127.39 332.98C140.115 325.833 153.762 321.311 166.487 322.867Z" fill="white" stroke="#BDBDBD" stroke-width="3.007" stroke-miterlimit="10" stroke-linecap="round" stroke-linejoin="round"/>
<path d="M87.3229 377.126C87.3229 377.126 173.869 376.688 210.245 382.911L87.3229 377.126Z" fill="white" stroke="#BDBDBD" stroke-width="3.007" stroke-miterlimit="10" stroke-linecap="round" stroke-linejoin="round"/>
<path d="M127.536 358.699C127.536 358.699 140.212 366.04 148.76 378.049L127.536 358.699ZM135.21 398.42C135.21 398.42 158.91 386.8 161.387 378.584L135.21 398.42ZM166.681 345.718C166.681 345.718 179.114 368.471 179.454 379.605L166.681 345.718ZM187.176 405.421C187.176 405.421 201.746 393.607 200.192 381.452L187.176 405.421Z" fill="white" stroke="#BDBDBD" stroke-width="3.007" stroke-miterlimit="10" stroke-linecap="round" stroke-linejoin="round"/>
<path d="M177.803 252.71C179.891 254.169 181.882 255.725 183.776 257.28C184.99 261.948 185.816 269.143 182.368 275.853C179.017 281.444 183.145 282.319 184.553 280.083C185.573 278.478 189.361 269.338 191.45 264.379C210.245 284.021 213.159 307.552 184.262 323.596C184.262 323.596 176.831 379.945 123.456 349.072C131.081 346.009 145.069 339.64 141.766 335.022C137.541 329.041 133.995 344.891 117.531 345.426C113.743 342.946 109.761 340.029 105.535 336.675C101.116 332.834 97.4733 327.777 94.5593 322.138C104.37 323.693 128.702 326.902 127.925 319.901C127.002 311.83 115.637 327.632 91.5967 315.769C89.0227 309.594 87.08 302.982 85.6716 296.662C94.3165 299.287 110.878 303.517 111.946 297.78C111.946 295.057 106.847 295.592 100.144 294.911C95.9192 294.474 88.9256 292.286 84.4574 290.779C81.6891 276.047 81.4463 264.038 81.4463 264.038C81.4463 264.038 92.3738 258.739 107.332 253.78C111.849 257.086 120.494 263.601 121.125 266.469C121.999 270.359 126.953 270.407 127.099 265.205C127.196 261.17 121.174 254.801 115.831 251.154C122.242 249.356 129.042 247.751 135.89 246.73C141.038 252.808 152.257 266.761 151.285 272.012C151.285 275.95 156.19 277.311 156.87 268.56C157.405 261.851 147.691 250.766 143.126 245.904C156.045 244.785 168.623 246.244 177.803 252.71Z" fill="white" stroke="#BDBDBD" stroke-width="3.007" stroke-miterlimit="10" stroke-linecap="round" stroke-linejoin="round"/>
<path d="M91.8882 269.289C91.8882 269.289 158.959 303.517 184.213 323.548L91.8882 269.289Z" stroke="#BDBDBD" stroke-width="3.007" stroke-miterlimit="10" stroke-linecap="round" stroke-linejoin="round"/>
<path d="M131.324 268.998C131.324 268.998 137.784 280.617 138.901 294.717L131.324 268.998ZM119.134 307.406C119.134 307.406 142.737 306.531 148.42 300.211L119.134 307.406ZM167.506 273.082C167.506 273.082 166.729 298.315 161.873 308.33L167.506 273.082ZM156.045 334.39C156.045 334.39 172.703 329.674 177.025 318.297L156.045 334.39Z" stroke="#BDBDBD" stroke-width="3.007" stroke-miterlimit="10" stroke-linecap="round" stroke-linejoin="round"/>
<path d="M265.514 248.383C271.196 246.925 275.033 242.646 277.121 239.389C277.073 237.395 276.927 235.402 276.733 233.36C275.859 224.366 270.225 215.955 262.891 208.565C262.406 213.961 260.852 225.727 256.675 228.936C251.187 233.166 249.438 229.471 251.77 227.38C255.364 225.144 257.792 210.996 258.715 204.627C254.587 201.029 250.167 197.723 245.845 194.757C246.427 199.959 245.796 206.96 243.368 209.051C240.259 211.725 237.734 208.71 239.579 206.085C240.939 204.189 240.356 195.486 239.968 190.965C230.886 185.422 223.212 181.824 221.173 180.901C220.833 180.755 220.638 180.658 220.638 180.658C220.638 180.658 213.742 187.172 206.506 196.702C207.914 200.251 210.197 205.648 212.139 208.467C215.15 212.892 218.113 215.712 216.51 217.17C212.576 219.552 206.554 207.252 203.689 200.591C200.726 204.821 197.812 209.488 195.529 214.35C200.92 235.305 216.025 233.798 211.751 238.611C208.06 242.792 197.424 226.31 193.344 219.504C191.547 224.268 190.43 229.179 190.43 233.895C190.624 238.222 190.964 242.209 191.45 245.806C200.24 255.53 211.314 249.258 210.002 254.995C208.982 259.468 198.055 254.363 192.373 251.349C201.649 300.162 238.511 274.783 238.511 274.783C238.705 274.832 238.851 274.929 239.045 274.978C262.989 283.632 275.13 269.435 276.976 247.751C272.993 249.161 265.708 251.641 264.203 251.884C262.114 252.321 260.512 249.307 265.514 248.383Z" fill="white" stroke="#BDBDBD" stroke-width="3.007" stroke-miterlimit="10" stroke-linecap="round" stroke-linejoin="round"/>
<path d="M222.921 189.944C222.921 189.944 237.248 248.821 238.462 274.832L222.921 189.944Z" fill="white" stroke="#BDBDBD" stroke-width="3.007" stroke-miterlimit="10" stroke-linecap="round" stroke-linejoin="round"/>
<path d="M243.368 213.767C243.368 213.767 239.871 223.831 232.149 231.999L243.368 213.767ZM214.568 226.748C214.568 226.748 227.195 240.653 233.8 240.701L214.568 226.748ZM259.54 237.93C259.54 237.93 244.339 250.814 235.985 253.196L259.54 237.93ZM217.676 263.455C217.676 263.455 228.992 271.088 237.88 267.685L217.676 263.455Z" fill="white" stroke="#BDBDBD" stroke-width="3.007" stroke-miterlimit="10" stroke-linecap="round" stroke-linejoin="round"/>
<path d="M236.277 274.832C236.423 276.388 236.52 277.943 236.617 279.548C236.86 283.875 236.957 288.25 237.005 292.626C237.054 299.287 236.957 305.899 236.617 312.511C236.228 320.922 235.597 329.333 234.626 337.744C234.383 340.029 234.091 342.363 233.8 344.648C233.751 344.94 233.703 345.231 233.703 345.523C233.654 345.961 233.703 345.718 233.703 345.62C233.703 345.766 233.654 345.912 233.654 346.058C233.557 346.69 233.46 347.322 233.411 347.954C233.266 349.17 233.071 350.336 232.877 351.552C232.1 356.511 231.275 361.519 230.303 366.429C230.06 367.693 229.818 368.957 229.526 370.221C230.983 370.416 232.392 370.61 233.849 370.805C233.897 369.93 233.994 369.103 234.043 368.228C234.188 365.894 234.383 363.561 234.528 361.227C234.771 357.775 235.014 354.372 235.257 350.92C235.548 346.739 235.84 342.509 236.18 338.328C236.52 333.709 236.86 329.139 237.151 324.52C237.491 319.901 237.831 315.282 238.122 310.615C238.414 306.288 238.754 301.961 239.045 297.634C239.288 293.987 239.579 290.292 239.822 286.646C240.016 284.021 240.211 281.395 240.405 278.77C240.502 277.506 240.599 276.29 240.648 275.026C240.648 274.978 240.648 274.929 240.648 274.88C240.745 273.713 239.579 272.644 238.462 272.693C237.2 272.693 236.374 273.616 236.277 274.832C236.228 275.707 236.131 276.533 236.083 277.408C235.937 279.742 235.743 282.076 235.597 284.41C235.354 287.861 235.111 291.265 234.868 294.717C234.577 298.898 234.286 303.128 233.946 307.309C233.606 311.928 233.266 316.498 232.974 321.117C232.634 325.735 232.294 330.354 232.003 335.022C231.712 339.349 231.372 343.676 231.08 348.003C230.837 351.649 230.546 355.344 230.303 358.99C230.109 361.616 229.915 364.241 229.72 366.867C229.623 368.131 229.526 369.346 229.478 370.61C229.478 370.659 229.478 370.708 229.478 370.756C229.38 371.826 230.352 372.798 231.372 372.895C232.392 373.041 233.557 372.409 233.751 371.34C235.791 361.47 237.394 351.503 238.608 341.488C239.677 332.882 240.405 324.228 240.842 315.574C241.231 308.67 241.376 301.766 241.376 294.863C241.376 290.147 241.279 285.479 241.036 280.763C240.939 278.818 240.842 276.874 240.648 274.929C240.648 274.88 240.648 274.88 240.648 274.832C240.551 273.714 239.725 272.595 238.462 272.644C237.394 272.693 236.18 273.616 236.277 274.832Z" fill="#BDBDBD"/>
<path d="M180.959 323.645C182.514 324.131 184.068 324.666 185.573 325.249C186.35 325.541 187.127 325.833 187.856 326.173C187.953 326.222 188.05 326.27 188.196 326.319C188.584 326.465 187.613 326.076 188.05 326.27C188.293 326.367 188.487 326.465 188.73 326.562C189.216 326.756 189.653 326.951 190.139 327.194C192.227 328.118 194.267 329.139 196.307 330.208C198.638 331.472 200.92 332.785 203.154 334.244C204.369 335.022 205.534 335.799 206.651 336.626C207.234 337.064 207.817 337.453 208.4 337.89C208.545 337.987 208.691 338.133 208.837 338.23C208.885 338.279 208.982 338.328 209.031 338.376C209.031 338.376 208.594 338.036 208.885 338.279C209.177 338.522 209.468 338.765 209.759 338.96C212.139 340.856 214.373 342.898 216.462 345.086C217.53 346.204 218.55 347.371 219.521 348.586C219.764 348.878 220.007 349.17 220.201 349.461C220.25 349.51 220.298 349.607 220.347 349.656C220.007 349.218 220.153 349.413 220.25 349.51C220.396 349.704 220.493 349.85 220.638 350.045C221.124 350.677 221.561 351.357 221.998 351.989C222.873 353.302 223.698 354.615 224.427 355.976C224.815 356.706 225.204 357.435 225.544 358.164C225.689 358.504 225.884 358.845 226.029 359.234C226.126 359.428 226.175 359.623 226.272 359.817C226.321 359.963 226.369 360.206 226.224 359.671C226.272 359.817 226.321 359.914 226.369 360.06C227.632 363.123 228.555 366.381 229.089 369.638C229.138 369.833 229.138 370.076 229.186 370.27C229.186 370.319 229.235 370.562 229.235 370.562C229.235 370.562 229.186 369.978 229.235 370.416C229.283 370.854 229.332 371.291 229.38 371.729C230.643 371.194 231.857 370.708 233.12 370.173C231.469 368.52 229.818 366.867 228.118 365.165C224.135 361.178 220.153 357.192 216.17 353.156C211.362 348.343 206.506 343.481 201.697 338.668C197.521 334.487 193.344 330.306 189.167 326.124C187.127 324.082 185.136 321.992 183.096 320.047C183.048 319.998 183.048 319.998 182.999 319.95C182.174 319.123 180.717 319.075 179.891 319.95C179.065 320.825 179.017 322.186 179.891 323.061C181.542 324.714 183.194 326.367 184.893 328.069C188.876 332.056 192.858 336.043 196.841 340.078C201.649 344.891 206.506 349.753 211.314 354.566C215.49 358.747 219.667 362.929 223.844 367.11C225.884 369.152 227.826 371.242 229.915 373.187C229.963 373.236 229.963 373.236 230.012 373.284C230.643 373.916 231.615 374.062 232.392 373.722C233.12 373.43 233.8 372.555 233.751 371.729C233.072 364.679 230.837 357.921 227.146 351.892C223.844 346.398 219.521 341.585 214.665 337.404C210.197 333.563 205.34 330.257 200.24 327.388C196.258 325.152 192.081 323.207 187.807 321.506C185.962 320.776 184.019 319.95 182.076 319.415C182.028 319.415 182.028 319.415 181.979 319.366C180.862 319.026 179.551 319.755 179.308 320.922C179.162 322.138 179.794 323.305 180.959 323.645Z" fill="#BDBDBD"/>
<path d="M207.185 385.002C207.671 384.807 208.205 384.71 208.691 384.661C208.837 384.661 208.982 384.613 209.128 384.613C208.302 384.759 208.885 384.661 209.08 384.613C209.468 384.564 209.905 384.515 210.294 384.467C212.139 384.321 214.033 384.272 215.927 384.272C218.113 384.272 220.298 384.37 222.435 384.613C222.97 384.661 223.455 384.71 223.99 384.759C224.232 384.807 224.475 384.807 224.718 384.856C225.252 384.904 224.184 384.759 224.718 384.856C224.912 384.904 225.107 384.904 225.301 384.953C226.272 385.099 227.243 385.293 228.215 385.488C229.186 385.682 230.157 385.974 231.08 386.314C231.274 386.412 231.954 386.703 231.226 386.363C231.42 386.46 231.566 386.509 231.76 386.606C232.1 386.801 232.44 386.995 232.732 387.189C233.12 385.828 233.46 384.467 233.849 383.106C230.789 382.814 227.729 382.571 224.621 382.279C219.716 381.841 214.859 381.404 209.954 380.966C208.837 380.869 207.72 380.772 206.603 380.675C205.437 380.577 204.369 381.744 204.417 382.862C204.466 384.126 205.388 384.953 206.603 385.05C209.662 385.342 212.722 385.585 215.83 385.877C220.736 386.314 225.592 386.752 230.497 387.189C231.614 387.287 232.732 387.384 233.849 387.481C234.771 387.578 235.743 386.752 235.937 385.877C236.18 384.856 235.743 383.981 234.917 383.397C233.509 382.425 231.76 381.841 230.06 381.404C227.923 380.869 225.689 380.529 223.455 380.286C219.279 379.848 215.005 379.702 210.828 379.994C209.225 380.091 207.525 380.188 206.02 380.723C204.951 381.112 204.126 382.23 204.466 383.397C204.806 384.515 206.02 385.391 207.185 385.002Z" fill="#BDBDBD"/>
<path d="M259.006 333.904C257.889 334.244 256.821 334.827 255.849 335.362C253.421 336.772 251.236 338.571 249.293 340.564C246.33 343.676 243.902 347.322 242.008 351.212C239.288 356.803 237.588 362.88 236.665 369.006C235.306 377.806 235.208 386.752 235.937 395.649C236.034 396.913 236.18 398.226 236.277 399.49C236.374 400.608 237.005 401.483 238.171 401.629C239.288 401.775 240.211 401.094 240.551 400.073C241.279 397.934 241.959 395.844 242.688 393.704C244.388 388.648 246.039 383.592 247.739 378.584C249.779 372.458 251.818 366.332 253.858 360.206C255.607 354.907 257.355 349.656 259.152 344.357C260.026 341.78 260.949 339.252 261.726 336.675C261.726 336.626 261.774 336.578 261.774 336.578C262.114 335.508 261.337 334.147 260.22 333.904C259.006 333.612 257.889 334.292 257.549 335.459C256.821 337.599 256.141 339.689 255.412 341.828C253.712 346.885 252.061 351.941 250.361 356.949C248.322 363.075 246.282 369.201 244.242 375.326C242.493 380.626 240.745 385.877 238.948 391.176C238.122 393.753 237.151 396.281 236.374 398.858C236.374 398.906 236.326 398.955 236.326 398.955C237.783 399.15 239.191 399.344 240.648 399.539C239.725 390.544 239.482 381.452 240.551 372.458C240.599 372.215 240.599 372.02 240.648 371.777C240.648 371.68 240.697 371.34 240.648 371.68C240.599 372.069 240.648 371.583 240.648 371.534C240.697 371.097 240.794 370.659 240.842 370.222C240.988 369.346 241.134 368.423 241.328 367.548C241.619 365.992 241.959 364.436 242.396 362.88C242.785 361.422 243.222 360.012 243.708 358.553C243.95 357.921 244.145 357.289 244.388 356.608C244.485 356.317 244.63 355.976 244.776 355.685C244.825 355.587 245.019 355.053 244.873 355.442C244.728 355.83 244.97 355.198 245.019 355.101C245.942 352.962 247.059 350.871 248.322 348.878C248.856 348.003 249.487 347.176 250.07 346.35C250.118 346.253 250.216 346.204 250.264 346.107C249.779 346.739 250.07 346.35 250.167 346.204C250.313 346.01 250.458 345.815 250.604 345.621C250.896 345.28 251.187 344.94 251.478 344.6C252.547 343.433 253.664 342.315 254.878 341.294C255.024 341.196 255.121 341.099 255.267 341.002C255.315 340.953 255.412 340.905 255.461 340.856C255.509 340.856 255.509 340.807 255.558 340.807C255.801 340.613 255.315 341.002 255.267 341.002C255.509 340.807 255.752 340.613 256.044 340.418C256.481 340.078 256.966 339.786 257.403 339.495C258.083 339.057 258.812 338.668 259.54 338.328C259.686 338.279 259.783 338.231 259.929 338.133C260.269 337.987 259.249 338.425 259.589 338.279C259.638 338.279 259.686 338.231 259.735 338.231C259.832 338.182 259.978 338.133 260.075 338.085H260.123C261.192 337.744 262.017 336.529 261.677 335.411C261.337 334.341 260.172 333.515 259.006 333.904Z" fill="#BDBDBD"/>
<path d="M693.921 363.998C693.921 363.998 710.53 413.444 712.57 459.826C659.584 471.883 484.938 458.124 484.938 458.124C484.938 458.124 488.775 376.834 506.89 367.11C585.714 373.236 693.921 363.998 693.921 363.998Z" fill="white" stroke="#BDBDBD" stroke-width="3.007" stroke-miterlimit="10" stroke-linecap="round" stroke-linejoin="round"/>
<path d="M712.57 459.826C710.53 413.395 693.921 363.998 693.921 363.998C693.921 363.998 585.763 373.236 506.939 367.11C502.228 369.638 498.488 376.98 495.526 386.46C512.33 393.413 577.166 414.902 679.399 383.932C678.282 408.727 699.457 409.846 699.457 409.846C702.76 421.417 702.614 445.921 702.128 461.673C705.965 461.138 709.462 460.555 712.57 459.826Z" fill="white" stroke="#BDBDBD" stroke-width="3.007" stroke-miterlimit="10" stroke-linecap="round" stroke-linejoin="round"/>
<path d="M417.188 216.489C417.188 216.489 477.313 184.255 513.738 140.207C513.738 140.207 541.615 57.458 534.573 57.2149C527.531 56.9718 486.347 78.607 460.218 103.257C434.089 127.906 367.213 191.888 367.99 204.286C374.303 207.592 412.088 205.21 417.188 216.489Z" fill="#F2F2F2" stroke="#BDBDBD" stroke-width="3.007" stroke-miterlimit="10" stroke-linecap="round" stroke-linejoin="round"/>
<path d="M504.753 140.061C508.007 155.23 511.844 178.616 512.281 205.648C513.107 252.419 491.106 349.267 491.106 349.267C491.106 349.267 509.756 390.009 586.637 388.308C663.518 386.606 695.183 378.098 698 362.832C702.517 344.745 680.468 222.47 681.585 194.757C682.702 167.044 688.384 123.433 655.019 94.6026C621.653 65.7231 549.823 47.1508 525.589 59.9375L504.753 140.061Z" fill="#F2F2F2" stroke="#BDBDBD" stroke-width="3.007" stroke-miterlimit="10" stroke-linecap="round" stroke-linejoin="round"/>
<path d="M569.687 48.6579C569.687 48.6579 567.259 34.3154 563.665 39.4204C560.071 44.5253 560.848 64.7021 566.093 66.4037L569.687 48.6579Z" fill="white" stroke="#BDBDBD" stroke-width="3.007" stroke-miterlimit="10" stroke-linecap="round" stroke-linejoin="round"/>
<path d="M566.87 51.7695C566.87 51.7695 544.238 130.24 569.881 144.971C595.524 159.703 640.74 131.747 654.29 87.6015C667.84 43.4558 641.76 22.5984 613.203 17.3476C578.963 11.0272 566.87 51.7695 566.87 51.7695Z" fill="white" stroke="#BDBDBD" stroke-width="3.007" stroke-miterlimit="10" stroke-linecap="round" stroke-linejoin="round"/>
<path d="M649.822 87.9904C650.405 87.6015 661.187 79.8225 664.538 89.1087C667.403 97.7628 653.416 114.196 643.314 111.181L641.323 110.258L649.822 87.9904Z" fill="white" stroke="#BDBDBD" stroke-width="3.007" stroke-miterlimit="10" stroke-linecap="round" stroke-linejoin="round"/>
<path d="M628.501 197.625C628.501 197.625 627.384 217.754 630.784 222.129C610.434 249.113 569.687 321.554 569.687 321.554C595.136 328.361 600.284 354.372 594.893 363.998C624.567 337.404 704.265 252.516 705.965 206.668C712.182 177.254 705.479 130.094 661.915 101.361L628.501 197.625Z" fill="#F2F2F2" stroke="#BDBDBD" stroke-width="3.007" stroke-miterlimit="10" stroke-linecap="round" stroke-linejoin="round"/>
<path d="M680.322 245.563C663.469 280.326 617.282 324.228 594.893 344.308C597.613 352.038 597.321 359.671 594.893 363.998C624.567 337.404 704.265 252.516 705.965 206.669C709.365 190.673 708.928 169.475 700.817 148.812C709.268 195.292 702.954 198.938 680.322 245.563ZM657.981 85.1219C656.136 85.1219 654.582 85.5109 653.222 86.1916C647.345 89.0601 646.034 96.7904 646.034 96.7904C646.034 96.7904 643.606 103.111 641.614 100.242C641.42 99.902 641.177 99.5131 640.983 98.9296C646.082 92.123 646.082 75.5441 644.188 70.6336C642.294 65.7231 617.04 77.7805 586.151 66.8413C567.307 58.6734 567.55 43.7961 569.93 34.5586C571.144 29.7453 572.99 26.4879 572.99 26.4879C575.369 20.8481 577.021 5.67913 582.314 7.23492C593.388 10.4438 611.503 -0.738539 627.384 0.574164C640.983 1.69239 653.999 10.4438 662.449 19.0979C667.452 24.1542 670.851 29.1619 671.871 32.5166C674.543 41.6083 663.372 75.8358 657.981 85.1219Z" fill="#BDBDBD" stroke="#BDBDBD" stroke-width="3.007" stroke-miterlimit="10" stroke-linecap="round" stroke-linejoin="round"/>
<path d="M679.399 383.883C679.399 383.883 674.3 400.997 685.761 407.415C697.175 413.833 699.506 409.797 699.506 409.797C699.506 409.797 677.311 407.026 679.399 383.883ZM371.244 199.862C371.244 199.862 360.122 217.413 383.871 269.873C367.31 285.528 366.581 290.876 368.038 310.518C379.888 329.382 397.227 326.125 397.227 326.125C397.227 326.125 408.348 312.171 409.465 307.455C412.671 307.649 400.626 326.902 400.626 326.902C400.626 326.902 402.715 330.792 407.231 330.452C411.748 330.111 425.493 314.262 424.764 290.098C423.987 265.935 412.719 271.04 414.225 253.683C415.731 236.326 417.625 223.685 418.547 212.551C419.519 201.369 399.704 179.88 371.244 199.862Z" fill="white" stroke="#BDBDBD" stroke-width="3.007" stroke-miterlimit="10" stroke-linecap="round" stroke-linejoin="round"/>
<path d="M384.162 303.371L379.84 318.637C379.84 318.637 386.348 304.878 387.853 298.947C389.359 292.967 384.162 303.371 384.162 303.371ZM395.284 327.097C395.43 326.708 410.631 299.092 413.108 302.836C415.585 306.58 401.646 328.118 401.646 328.118C401.646 328.118 400.189 328.993 400.675 326.854C401.161 324.714 412.379 307.99 410.34 308.136C408.348 308.281 398.295 324.714 397.275 326.124C396.255 327.534 395.284 327.097 395.284 327.097ZM386.299 323.305C386.299 323.305 395.478 300.405 398.149 301.475C400.821 302.544 387.368 324.277 387.368 324.277L386.299 323.305ZM377.169 294.133C377.169 294.133 372.895 311.15 373.04 314.65C375.032 317.13 378.334 293.939 377.169 294.133ZM406.794 367.013C391.981 361.713 376.634 360.644 361.336 356.414C361.287 356.414 361.287 356.414 361.239 356.414C363.521 358.747 365.804 361.13 368.087 363.463C382.608 380.042 447.008 388.405 447.008 388.405C447.008 388.405 443.996 385.682 427.192 363.998C425.007 365.019 422.773 366.04 420.539 367.013C416.313 369.103 411.02 368.568 406.794 367.013Z" fill="#BDBDBD" stroke="#BDBDBD" stroke-width="3.007" stroke-miterlimit="10" stroke-linecap="round" stroke-linejoin="round"/>
<path d="M271.779 266.469C271.779 266.469 316.8 310.81 361.239 356.414C361.287 356.414 361.287 356.414 361.336 356.414C376.683 360.644 391.982 361.713 406.794 367.013C411.02 368.617 416.314 369.152 420.539 367.013C422.773 366.04 425.007 365.019 427.192 363.998C417.965 352.087 404.56 334.438 385.182 308.379C339.238 315.137 271.779 266.469 271.779 266.469Z" fill="white" stroke="#BDBDBD" stroke-width="3.007" stroke-miterlimit="10" stroke-linecap="round" stroke-linejoin="round"/>
<path d="M419.616 374.16C419.616 374.16 403.152 376.202 393.341 371.875C383.531 367.547 370.466 361.665 366.97 363.998C364.153 365.846 375.032 379.41 381.394 386.071C383.045 387.773 384.357 389.037 385.085 389.475C388.873 399.539 413.205 413.881 421.899 412.617C430.592 411.353 504.948 386.217 514.758 385.439C524.568 384.661 589.259 369.201 594.893 363.998C600.527 358.796 600.575 324.325 569.687 321.554C528.794 330.84 445.89 376.445 419.616 374.16Z" fill="white" stroke="#BDBDBD" stroke-width="3.007" stroke-miterlimit="10" stroke-linecap="round" stroke-linejoin="round"/>
<path d="M1332.28 512.334C1333.2 524.002 1303.63 547.631 1272.11 556.139C1241.75 567.176 1185.61 579.184 1042.77 615.989C945.302 641.125 886.487 657.46 846.905 667.038C794.648 679.679 775.998 680.506 746.324 674.137C732.288 671.122 719.855 667.379 708.636 663.197C638.943 637.138 615.825 593.381 535.156 598.486C480.47 601.938 447.105 624.837 382.074 610.106C344.823 601.695 317.626 585.602 298.782 574.225C298.782 574.225 247.884 543.547 204.708 491.671C193.781 480.1 184.699 468.237 178.871 455.839L469.105 433.523L1332.28 512.334Z" fill="white" stroke="#BDBDBD" stroke-width="3.007" stroke-miterlimit="10" stroke-linecap="round" stroke-linejoin="round"/>
<path d="M718.544 456.374C718.544 456.374 753.56 464.542 772.696 466.341C777.309 473.487 801.059 473.487 810.723 474.946C820.437 476.405 828.45 491.379 848.411 492.74C868.372 494.102 872.743 501.54 880.708 500.957C888.721 500.373 891.393 485.982 894.258 484.572C897.172 483.163 885.516 473.925 891.344 472.126C853.608 468.139 718.544 456.374 718.544 456.374ZM927.963 513.063C938.794 513.889 952.635 502.999 974.199 506.645C998.385 510.729 1058.17 515.542 1071.04 506.256C1087.8 507.18 1261.37 524.148 1275.8 518.314C1290.27 512.479 1294.35 508.882 1294.35 508.882L971.285 479.516C971.285 479.516 889.45 491.719 892.898 502.561C894.792 509.66 917.133 512.236 927.963 513.063Z" fill="#BDBDBD" stroke="#BDBDBD" stroke-width="3.007" stroke-miterlimit="10" stroke-linecap="round" stroke-linejoin="round"/>
<path d="M958.318 638.062C926.652 624.691 865.361 600.674 826.022 597.562C771.044 593.186 733.017 567.516 733.842 554.389C734.717 541.31 568.23 523.467 475.031 519.821C419.082 517.633 290.186 489.094 384.551 440.086L362.987 441.739C340.792 457.589 308.204 487.052 341.861 504.895C389.65 530.274 717.427 531.149 721.215 562.897C724.809 593.089 878.522 616.475 930.586 645.403C939.279 643.118 948.507 640.687 958.318 638.062Z" fill="#D9DBDA" stroke="#BDBDBD" stroke-width="3.007" stroke-miterlimit="10"/>
<path d="M1150.88 157.418V480.586H1284.44V157.418H1150.88ZM1275.26 458.318H1160.06V310.615H1275.26V458.318ZM1275.26 299.919H1160.06V167.093H1275.26V299.919Z" fill="white" stroke="#BDBDBD" stroke-width="3.007" stroke-miterlimit="10" stroke-linecap="round" stroke-linejoin="round"/>
<path d="M1275.26 167.044H1178.03V299.871H1275.26V167.044Z" fill="white" stroke="#BDBDBD" stroke-width="3.007" stroke-miterlimit="10" stroke-linecap="round" stroke-linejoin="round"/>
<path d="M1178.03 167.044H1160.11V299.871H1178.03V167.044Z" fill="#BDBDBD" stroke="#BDBDBD" stroke-width="3.007" stroke-miterlimit="10" stroke-linecap="round" stroke-linejoin="round"/>
<path d="M1182.02 310.615H1160.11V458.318H1182.02V310.615Z" fill="#BDBDBD" stroke="#BDBDBD" stroke-width="3.007" stroke-miterlimit="10" stroke-linecap="round" stroke-linejoin="round"/>
<path d="M1275.31 310.615H1182.02V458.318H1275.31V310.615Z" fill="white" stroke="#BDBDBD" stroke-width="3.007" stroke-miterlimit="10" stroke-linecap="round" stroke-linejoin="round"/>
<path d="M1310.38 184.207L1284.49 157.418L1285.27 514.181H1311.11L1310.38 184.207Z" fill="white" stroke="#BDBDBD" stroke-width="3.007" stroke-miterlimit="10" stroke-linecap="round" stroke-linejoin="round"/>
<path d="M834.521 319.366C852.879 322.575 869.246 331.764 886.05 340.029C879.057 334.098 871.189 329.625 867.74 327.777C848.605 309.983 802.564 312.511 777.164 312.852C761.671 313.046 747.829 320.728 736.853 330.792C766.236 314.067 801.107 313.775 834.521 319.366Z" fill="#BDBDBD" stroke="#BDBDBD" stroke-width="3.007" stroke-miterlimit="10" stroke-linecap="round" stroke-linejoin="round"/>
<path d="M715.047 402.699C715.921 408.047 717.135 413.93 718.786 420.299C719.224 420.007 719.078 450.685 727.383 458.319C727.966 458.853 768.373 473.779 794.648 466.341C830.247 456.228 856.813 421.611 880.514 408.825C883.525 407.22 886.342 405.421 889.11 403.477L889.013 399.636L903.68 390.544C904.748 389.377 905.768 388.21 906.74 386.995C905.04 375.861 901.786 364.873 898.192 355.247C896.152 349.704 891.344 344.454 886.05 339.981C869.246 331.716 852.879 322.527 834.521 319.318C801.107 313.727 766.236 314.018 736.902 330.743L715.047 402.699Z" fill="white" stroke="#BDBDBD" stroke-width="3.007" stroke-miterlimit="10" stroke-linecap="round" stroke-linejoin="round"/>
<path d="M906.691 387.044C905.671 388.259 904.651 389.426 903.631 390.593L906.934 388.551C906.885 388.016 906.788 387.53 906.691 387.044Z" fill="white" stroke="#BDBDBD" stroke-width="3.007" stroke-miterlimit="10" stroke-linecap="round" stroke-linejoin="round"/>
<path d="M868.906 329.43C855.162 298.752 845.643 262.726 816.017 244.737C811.257 242.111 802.273 241.042 796.445 245.806C787.023 253.196 786.488 264.427 786.731 275.756C800.718 287.327 813.152 296.078 819.077 296.321C836.852 297.148 851.034 337.404 871.771 355.247C881.485 363.609 893.141 361.713 902.806 357.338C897.415 356.317 892.072 354.226 887.896 352.135C878.425 347.954 873.131 338.425 868.906 329.43Z" fill="#BDBDBD" stroke="#BDBDBD" stroke-width="3.007" stroke-miterlimit="10" stroke-linecap="round" stroke-linejoin="round"/>
<path d="M878.862 303.225C875.074 276.825 865.458 249.258 848.508 236.958C831.559 224.657 838.115 193.152 817.134 182.311C765.119 154.403 738.553 183.623 726.12 197.382C713.687 211.141 725.003 218.531 725.003 218.531C725.003 218.531 758.854 252.662 786.731 275.707C786.489 264.379 787.023 253.148 796.445 245.758C802.273 240.993 811.258 242.063 816.017 244.688C845.643 262.677 855.162 298.655 868.906 329.382C873.132 338.376 878.425 347.905 887.944 352.135C892.121 354.226 897.464 356.316 902.854 357.337C913.879 352.378 922.33 344.162 922.33 344.162C922.33 344.162 882.651 329.625 878.862 303.225Z" fill="#BDBDBD" stroke="#BDBDBD" stroke-width="3.007" stroke-miterlimit="10" stroke-linecap="round" stroke-linejoin="round"/>
<path d="M736.756 205.842C735.445 205.599 722.769 209.197 721.264 213.086C717.475 222.81 714.61 242.743 720.292 266.469C725.732 292.189 734.959 318.783 761.768 311.004C775.707 329.868 775.707 339.3 774.978 346.107C791.539 366.089 822.865 348.732 831.121 338.96C829.616 303.517 810.383 282.319 805.478 281.006C813.783 268.365 814.512 258.593 803.584 251.787C792.657 244.98 787.751 270.262 787.751 270.262C787.751 270.262 782.458 275.172 783.38 269.338C788.237 237.93 766.285 210.752 736.756 205.842Z" fill="white" stroke="#BDBDBD" stroke-width="3.007" stroke-miterlimit="10" stroke-linecap="round" stroke-linejoin="round"/>
<path d="M736.756 205.064C736.756 205.064 757.3 212.503 756.571 224.414C755.794 236.326 753.9 245.612 771.967 251.252C763.322 241.479 762.642 239.194 764.585 227.623C766.528 216.052 755.017 191.937 736.756 205.064Z" fill="#BDBDBD" stroke="#BDBDBD" stroke-width="3.007" stroke-miterlimit="10" stroke-linecap="round" stroke-linejoin="round"/>
<path d="M718.544 395.795L718.738 420.299C700.72 438.871 686.975 443.83 678.233 446.067C666.432 449.081 611.94 452.533 603.538 454.186C592.222 454.867 593.047 446.747 590.085 442.517C586.394 437.364 579.837 430.411 580.032 424.577C581.537 419.278 599.118 414.319 621.75 408.047C630.929 405.47 640.448 404.255 649.482 401.094C657.058 398.42 664.1 394.336 670.074 389.037C672.842 386.606 675.465 383.981 677.699 381.064C679.836 378.244 681.439 375.57 683.041 372.361C686.49 365.408 690.083 358.504 694.6 352.184C704.605 338.036 719.515 328.944 735.542 323.013C740.253 321.263 745.061 319.804 749.966 318.637C752.686 318.005 755.406 317.422 758.125 316.984C753.366 318.929 748.849 321.554 744.672 324.52C741.176 327 739.621 328.166 736.61 331.132L718.544 395.795Z" fill="white" stroke="#BDBDBD" stroke-width="3.007" stroke-miterlimit="10" stroke-linecap="round" stroke-linejoin="round"/>
<path d="M580.711 425.063C580.711 425.063 591.833 416.409 599.75 426.182C607.666 436.003 613.251 452.436 607.666 453.748C602.081 455.012 589.648 454.332 583.868 444.122C578.089 433.912 577.797 429.05 580.711 425.063Z" fill="#BDBDBD" stroke="#BDBDBD" stroke-width="3.007" stroke-miterlimit="10" stroke-linecap="round" stroke-linejoin="round"/>
<path d="M803.39 329.479C803.39 329.479 808.295 314.553 804.312 301.572C800.33 288.591 805.332 269.873 805.818 261.024C806.304 252.175 799.213 236.52 802.224 235.159C805.235 233.798 815.628 243.667 816.357 253.44C817.668 261.948 821.651 258.253 821.845 254.558C822.039 250.863 821.845 237.298 824.565 236.812C827.285 236.326 831.267 235.888 830.976 244.348C830.976 244.348 832.967 241.139 835.978 241.528C838.989 241.917 839.669 245.563 838.601 251.641C837.581 257.669 837.581 257.669 837.581 257.669C837.581 257.669 855.016 235.11 857.104 229.276C859.193 223.442 864.438 225.484 864.244 230.783C864.05 236.083 847.343 260.392 844.574 268.317C841.806 276.242 843.312 291.119 837.678 298.12C832.044 305.121 832.967 336.772 832.967 336.772L803.39 329.479Z" fill="white" stroke="#BDBDBD" stroke-width="3.007" stroke-miterlimit="10" stroke-linecap="round" stroke-linejoin="round"/>
<path d="M828.644 260.878C828.547 261.121 831.655 245.32 831.073 242.5C832.238 242.938 832.238 242.938 832.238 242.938C832.238 242.938 830.733 256.6 828.644 260.878Z" fill="white" stroke="#BDBDBD" stroke-width="3.007" stroke-miterlimit="10" stroke-linecap="round" stroke-linejoin="round"/>
<path d="M572.795 457.638L712.57 475.238L560.702 487.587L442.102 470.036L572.795 457.638Z" fill="white" stroke="#BDBDBD" stroke-width="3.007" stroke-miterlimit="10" stroke-linecap="round" stroke-linejoin="round"/>
<path d="M544.141 459.728L643.217 475.675L563.325 482.287L518.449 471.98L544.141 459.728Z" fill="white" stroke="#BDBDBD" stroke-width="3.007" stroke-miterlimit="10" stroke-linecap="round" stroke-linejoin="round"/>
<path d="M587.171 428.418C585.665 428.369 581.003 430.752 581.003 430.752C581.003 430.752 577.215 418.694 558.954 418.889C540.693 419.083 541.227 436.829 541.227 436.829C541.227 436.829 542.732 457.978 548.56 462.305C554.388 466.632 575.709 463.423 576.535 462.305C577.36 461.187 588.919 460.409 594.844 453.991C600.769 447.574 603.975 447.331 603.975 447.331C603.975 447.331 598.584 428.807 587.171 428.418Z" fill="white" stroke="#BDBDBD" stroke-width="3.007" stroke-miterlimit="10" stroke-linecap="round" stroke-linejoin="round"/>
<path d="M559.148 430.606C559.148 430.606 546.715 439.454 555.02 455.304C553.174 455.499 553.174 455.499 553.174 455.499C553.174 455.499 543.704 439.649 559.148 430.606Z" fill="white" stroke="#BDBDBD" stroke-width="3.007" stroke-miterlimit="10" stroke-linecap="round" stroke-linejoin="round"/>
<path d="M574.883 455.839C574.883 455.839 559.342 452.776 563.082 446.65C566.821 440.524 575.515 442.323 575.903 439.941C576.292 437.558 571.581 433.426 569.978 436.002C568.376 438.531 565.753 442.906 565.753 442.906C565.753 442.906 559.148 444.608 560.848 449.227C562.548 453.846 570.075 453.457 562.548 453.846C555.02 454.234 551.717 453.846 551.717 453.846C551.717 453.846 549.726 463.715 553.708 464.104C557.739 464.493 570.561 466 582.411 461.284C594.261 456.568 594.407 454.526 594.407 454.526C594.407 454.526 581.586 457.735 574.883 455.839Z" fill="#BDBDBD" stroke="#BDBDBD" stroke-width="3.007" stroke-miterlimit="10" stroke-linecap="round" stroke-linejoin="round"/>
<path d="M413.108 305.121L529.862 305.267L534.185 306.093C539.187 307.066 542.927 311.247 543.315 316.303C546.035 349.218 553.854 463.764 554.971 485.107C555.068 486.858 551.911 489.24 550.114 488.997L428.601 471.008L413.108 305.121Z" fill="white" stroke="#BDBDBD" stroke-width="3.007" stroke-miterlimit="10" stroke-linecap="round" stroke-linejoin="round"/>
<path d="M415.731 302.885L528.211 305.121C532.533 305.218 536.079 308.524 536.419 312.852C539.284 347.517 550.843 489.191 549.872 488.9C548.9 488.559 454.584 474.8 428.649 471.008C424.813 470.425 421.85 467.313 421.461 463.472L407.134 312.171C406.697 307.115 410.68 302.787 415.731 302.885ZM906.934 388.502C910.139 411.45 906.351 434.933 884.642 448.692C851.859 469.452 795.328 475.481 786.246 464.931C777.212 454.38 779.106 349.461 803.584 321.554C826.216 323.45 834.472 328.701 834.861 335.897C837.872 353.254 836.367 368.569 836.609 376.299C836.852 384.078 834.667 404.644 837.872 407.22C840.106 408.971 849.237 388.551 851.082 387.627C851.082 387.627 861.864 377.563 855.21 357.435L906.934 388.502Z" fill="white" stroke="#BDBDBD" stroke-width="3.007" stroke-miterlimit="10" stroke-linecap="round" stroke-linejoin="round"/>
<path d="M772.307 301.815C773.181 303.42 769.053 308.719 761.768 311.004C771.336 326.513 769.393 322.332 772.016 328.264C778.038 316.449 772.307 301.815 772.307 301.815Z" fill="#BDBDBD" stroke="#BDBDBD" stroke-width="3.007" stroke-miterlimit="10" stroke-linecap="round" stroke-linejoin="round"/>
<path d="M1011.11 424.14C1005.82 396.621 1010.58 370.173 1019.56 344.21C1020.09 342.071 1022.18 340.515 1022.72 337.841C1026.41 321.943 1032.24 308.184 1038.6 293.89C1039.13 291.751 1039.13 289.66 1039.67 287.521C1040.06 286.306 1041.37 285.431 1042.24 284.361C1012.57 289.515 974.49 298.023 956.569 302.107C962.64 311.344 967.74 321.068 970.945 331.959C972.014 334.098 974.636 335.654 975.705 337.793C976.773 339.397 975.705 340.953 976.773 342.557C979.93 346.787 982.601 350.482 983.67 355.782C984.204 356.851 985.806 357.386 985.806 358.407C985.806 384.321 987.943 410.283 985.806 436.197C983.961 456.131 979.639 475.529 975.607 494.928C998.822 494.88 1025.63 494.491 1052.54 494.199C1038.26 478.252 1027.62 459.194 1017.03 439.892C1014.27 434.738 1012.18 429.439 1011.11 424.14Z" fill="white" stroke="#BDBDBD" stroke-width="3.007" stroke-miterlimit="10" stroke-linecap="round" stroke-linejoin="round"/>
<path d="M1079.1 280.374C1072.74 279.742 1058.8 281.59 1042.19 284.41C1041.37 285.479 1040.06 286.354 1039.62 287.57C1039.08 289.709 1039.08 291.8 1038.55 293.939C1032.19 308.233 1026.41 321.992 1022.67 337.89C1022.13 340.515 1020.05 342.12 1019.51 344.259C1010.53 370.173 1005.77 396.67 1011.06 424.188C1012.13 429.487 1014.22 434.787 1016.89 440.086C1027.52 459.339 1038.11 478.398 1052.39 494.393C1116.06 493.664 1180.12 493.324 1197.02 498.186C1227.18 506.84 1232.82 503.825 1234.71 489.872C1236.65 475.87 1100.81 282.513 1079.1 280.374ZM985.709 358.553C985.709 357.483 984.106 356.949 983.572 355.928C982.504 350.628 979.881 346.933 976.676 342.703C975.607 341.099 976.676 339.543 975.607 337.939C974.539 335.799 971.916 334.244 970.848 332.104C967.691 321.214 962.543 311.49 956.472 302.253C950.158 303.711 946.321 304.586 946.321 304.586C946.321 304.586 925.389 318.491 926.263 334.146C927.138 349.85 928.352 483.406 926.215 494.345C938.502 494.977 955.646 495.123 975.413 495.074C979.444 475.675 983.766 456.276 985.612 436.343C987.846 410.38 985.709 384.467 985.709 358.553Z" fill="#F2F2F2" stroke="#BDBDBD" stroke-width="3.007" stroke-miterlimit="10" stroke-linecap="round" stroke-linejoin="round"/>
<path d="M915.433 389.231C917.57 380.772 918.59 371.777 926.555 365.943C927.623 364.873 927.089 363.318 928.158 362.248C934.083 357.581 939.036 350.871 945.399 347.565C943.65 331.472 940.591 319.707 937.434 321.554C929.129 326.465 807.761 409.846 801.544 422.681C795.328 435.516 790.034 456.52 805.138 464.493C805.138 464.493 799.505 427.932 821.36 421.563C843.214 415.145 863.952 434.009 864.341 435.516C864.535 436.294 868.809 442.615 872.986 448.352C879.688 444.997 886.342 441.594 892.752 436.926C907.468 425.209 911.693 407.755 915.433 389.231Z" fill="#F2F2F2" stroke="#BDBDBD" stroke-width="3.007" stroke-miterlimit="10" stroke-linecap="round" stroke-linejoin="round"/>
<path d="M928.109 362.248C927.04 363.318 927.575 364.874 926.506 365.943C918.59 371.777 917.521 380.772 915.385 389.231C911.693 407.755 907.468 425.209 892.655 436.878C886.245 441.545 879.591 444.997 872.889 448.303C876.968 453.846 880.999 458.853 881.194 457.638C881.582 455.11 921.164 432.842 937.337 420.202C947.438 412.325 948.167 374.111 945.302 347.565C938.988 350.823 934.034 357.581 928.109 362.248Z" fill="#F2F2F2" stroke="#BDBDBD" stroke-width="3.007" stroke-miterlimit="10" stroke-linecap="round" stroke-linejoin="round"/>
<path d="M855.016 424.577C850.694 420.056 832.967 412.86 814.317 420.979C806.692 424.285 803.196 430.266 801.641 436.148C800.767 439.6 800.573 443.004 800.622 445.872C800.719 450.199 801.496 453.214 801.496 453.214C801.496 453.214 821.457 486.42 852.394 486.809C856.328 483.017 856.328 483.017 856.328 483.017L856.473 478.155L856.668 471.445L857.882 426.473C857.833 426.425 857.833 426.425 855.016 424.577Z" fill="white" stroke="#BDBDBD" stroke-width="3.007" stroke-miterlimit="10" stroke-linecap="round" stroke-linejoin="round"/>
<path d="M809.606 469.452C809.606 469.452 815.24 469.89 813.832 468.431C809.315 463.521 800.816 441.594 807.858 434.252C815.969 425.841 841.369 422.924 851.762 427.008C850.84 423.021 850.84 423.021 850.84 423.021C850.84 423.021 829.907 414.513 818.057 419.424C806.207 424.334 801.059 421.952 800.622 440.475C800.184 458.999 803.244 468.285 806.984 469.987C810.723 471.737 809.606 469.452 809.606 469.452Z" fill="#BDBDBD" stroke="#BDBDBD" stroke-width="3.007" stroke-miterlimit="10" stroke-linecap="round" stroke-linejoin="round"/>
<path d="M806.984 470.036C806.984 470.036 797.465 443.052 806.11 430.849C814.754 418.646 856.279 420.639 863.418 437.024C867.789 435.759 867.789 435.759 867.789 435.759C867.789 435.759 881.825 420.785 857.833 413.444C833.841 406.102 798.679 416.118 795.376 438.774C792.171 461.381 799.747 468.091 806.984 470.036Z" fill="white" stroke="#BDBDBD" stroke-width="3.007" stroke-miterlimit="10" stroke-linecap="round" stroke-linejoin="round"/>
<path d="M897.998 418.305C897.998 418.305 897.172 417.916 895.909 417.333C892.704 415.874 886.633 413.298 883.671 413.443C879.542 413.638 875.511 419.472 875.511 419.472C875.511 419.472 866.527 417.041 862.01 419.472C857.493 421.903 856.959 429.196 856.959 429.196C856.959 429.196 852.588 428.71 847.683 431.189C842.777 433.62 845.983 441.399 845.983 441.399C845.983 441.399 841.855 437.996 834.473 443.101C826.75 447.865 833.404 466.146 838.115 476.21C839.961 480.099 841.515 482.774 841.806 482.919C850.645 486.857 852.685 479.613 852.685 479.613C852.685 479.613 854.725 487.052 862.107 486.906C869.489 486.76 865.895 475.043 865.895 475.043C865.895 475.043 875.948 484.086 880.659 482.968C885.37 481.85 881.776 471.445 881.776 471.445C881.776 471.445 888.187 478.981 894.987 477.28C901.786 475.578 892.17 451.56 892.17 451.56C892.17 451.56 898.775 455.207 903.486 448.206C908.342 437.947 897.998 418.305 897.998 418.305ZM1026.55 258.253C1025.73 255.384 1024.9 252.127 1024.61 249.356C1023.83 242.549 1046.95 151.486 978.618 149.007C954.044 148.083 926.943 149.882 904.846 161.842C883.622 173.316 876.434 200.883 874.734 223.15C872.549 251.349 880.271 279.062 897.269 301.815C899.795 305.17 902.757 306.045 906.885 305.996C910.577 305.996 932.092 298.703 932.674 299.433C932.674 299.433 957.055 328.118 970.605 341.925C971.673 342.995 972.693 344.016 973.665 344.891C984.884 355.49 988.72 353.983 988.72 353.983C988.72 353.983 1006.84 349.461 1010.58 337.404C1014.36 325.346 1029.18 265.886 1029.18 265.886C1029.18 265.886 1027.77 262.483 1026.55 258.253Z" fill="white" stroke="#BDBDBD" stroke-width="3.007" stroke-miterlimit="10" stroke-linecap="round" stroke-linejoin="round"/>
<path d="M1037.63 186.978C1031.36 175.893 1030.1 160.578 1025.05 157.029C1024.85 150.125 1021.55 144.923 1015.97 140.887C1008.78 135.734 997.754 132.525 984.592 130.094C961.231 125.816 895.375 148.764 878.28 141.374C865.652 135.88 866.235 164.808 866.235 164.808C866.235 164.808 866.089 167.19 866.964 169.961C867.206 170.691 867.498 171.42 867.886 172.149C869.732 175.747 873.714 179.247 882.068 179.15C898.92 178.907 922.524 169.329 924.758 174.386C927.041 179.393 925.001 213.718 928.303 219.212C929.517 219.406 930.586 219.552 931.46 219.698C935.831 220.379 935.831 220.379 935.831 220.379C935.831 220.379 936.317 196.993 950.935 197.382C955.889 197.528 961.086 198.841 965.991 201.466C975.413 206.571 983.621 216.587 986.632 232.485C991.149 256.648 1026.85 253.634 1026.85 253.634C1026.85 253.634 1027.48 251.592 1028.45 248.189C1029.86 243.327 1031.94 235.694 1033.89 227.429C1037.68 211.433 1040.98 192.861 1037.63 186.978Z" fill="#BDBDBD" stroke="#BDBDBD" stroke-width="3.007" stroke-miterlimit="10" stroke-linecap="round" stroke-linejoin="round"/>
<path d="M942.145 187.999L869.052 209.634L868.858 206.474L946.419 185.228L942.145 187.999Z" fill="#BDBDBD" stroke="#BDBDBD" stroke-width="3.007" stroke-miterlimit="10" stroke-linecap="round" stroke-linejoin="round"/>
<path d="M925.972 453.797C925.244 453.505 924.515 453.116 923.835 452.679C925.049 466.049 926.069 474.752 926.069 474.752L966.04 472.612C966.04 472.612 967.642 460.847 969.828 444.948C967.74 445.386 965.651 446.018 963.563 446.942C951.907 452.193 938.697 456.957 925.972 453.797Z" fill="white" stroke="#BDBDBD" stroke-width="3.007" stroke-miterlimit="10" stroke-linecap="round" stroke-linejoin="round"/>
<path d="M976.87 347.857C965.165 330.014 942.436 315.769 943.407 309.886C913.345 300.211 919.561 405.567 923.835 452.679C924.564 453.165 925.292 453.554 925.972 453.797C938.648 456.957 951.858 452.193 963.514 446.893C965.603 445.969 967.691 445.337 969.779 444.9C972.839 422.778 976.967 392.586 979.59 374.938C980.27 370.513 979.59 352.038 976.87 347.857Z" fill="#F2F2F2" stroke="#BDBDBD" stroke-width="3.007" stroke-miterlimit="10" stroke-linecap="round" stroke-linejoin="round"/>
<path d="M1084.88 371.097C1084.88 371.097 1094.94 400.754 1117.57 403.039C1113.78 417.382 1173.91 453.214 1173.91 453.214L1176.58 446.699L1111.01 378.633L1084.88 371.097Z" fill="#BDBDBD" stroke="#BDBDBD" stroke-width="3.007" stroke-miterlimit="10" stroke-linecap="round" stroke-linejoin="round"/>
<path d="M992.411 458.124C973.567 452.484 945.739 463.423 925.778 472.126C905.817 480.829 892.412 487.635 899.6 492.546C899.406 492.886 898.24 494.199 898.192 495.123C898.143 496.095 896.589 496.63 895.812 497.505C893.481 500.082 893.724 504.701 897.803 504.944C898.289 504.992 898.775 505.041 899.26 505.09C904.748 506.013 907.905 509.903 915.919 506.451C924.224 505.333 924.224 505.333 924.224 505.333C924.224 505.333 917.424 510.632 927.623 510.632C937.822 510.632 970.216 498.186 998.094 502.707C1025.97 507.229 1056.13 511.021 1066.67 500.811C1093.04 502.318 1231.02 512.139 1244.57 507.958C1256.61 482.287 1232.86 440.038 1208.78 439.309C1196.29 442.663 1184.06 445.532 1172.11 448.06C1081.63 466.973 1009.07 463.132 992.411 458.124Z" fill="white" stroke="#BDBDBD" stroke-width="3.007" stroke-miterlimit="10" stroke-linecap="round" stroke-linejoin="round"/>
<path d="M1041.8 273.519C1041.8 273.519 1053.99 272.401 1057.39 278.284C1064.68 266.324 1074.34 271.477 1090.32 279.548C1115.82 281.298 1142.09 278.527 1200.86 341.537C1259.67 404.546 1307.17 433.62 1306.01 473.974C1304.89 514.327 1252.44 514.862 1237.38 508.736C1203.09 452.824 1147.29 436.586 1137.87 425.647C1128.45 414.708 1122.81 402.65 1122.81 402.65C1122.81 402.65 1088.52 384.175 1086.63 370.562L1041.8 273.519Z" fill="#F2F2F2" stroke="#BDBDBD" stroke-width="3.007" stroke-miterlimit="10" stroke-linecap="round" stroke-linejoin="round"/>
<path d="M940.882 309.011L931.751 310.615C931.751 310.615 955.5 363.95 953.995 372.75C981.144 360.06 980.901 357.386 980.901 357.386L978.91 346.933C978.181 335.702 956.86 322.138 940.882 309.011ZM1028.2 257.037C1028.2 257.037 993.383 351.503 998.433 366.575C1014.99 362.54 1028.2 367.839 1028.2 367.839C1028.2 367.839 1025.05 306.969 1043.41 273.276C1035.39 262.434 1028.2 257.037 1028.2 257.037Z" fill="white" stroke="#BDBDBD" stroke-width="3.007" stroke-miterlimit="10" stroke-linecap="round" stroke-linejoin="round"/>
<path d="M924.175 505.284L959.677 491.331C940.154 494.15 916.939 506.013 915.87 506.402C918.347 507.277 924.175 505.284 924.175 505.284ZM902.709 506.062C902.709 506.062 918.007 493.032 952.684 485.107C948.167 483.6 916.065 493.032 900.669 505.381C901.932 506.791 902.709 506.062 902.709 506.062ZM897.755 496.095C897.755 496.095 927.866 476.842 946.71 473.439C936.9 470.036 898.532 493.032 898.532 493.032L897.755 496.095ZM973.325 273.422C973.325 273.422 945.447 298.169 932.626 299.433C945.933 314.018 953.995 320.922 959.775 323.839C959.775 296.662 984.884 277.798 982.65 258.934C980.367 240.069 980.901 241.334 980.901 241.334C980.901 241.334 981.095 263.99 973.325 273.422Z" fill="#BDBDBD" stroke="#BDBDBD" stroke-width="3.007" stroke-miterlimit="10" stroke-linecap="round" stroke-linejoin="round"/>
<path d="M1263.8 499.644C1257 487.198 1233.3 435.905 1206.3 439.26C1206.3 439.26 1188.47 441.788 1179.15 444.948C1178.86 448.497 1181.82 450.977 1185.08 452.192C1213.54 460.944 1240.2 482.822 1243.7 511.41C1255.11 513.063 1267.35 516.952 1267.83 510.778C1267.93 509.222 1264.97 501.783 1263.8 499.644Z" fill="white" stroke="#BDBDBD" stroke-width="3.007" stroke-miterlimit="10" stroke-linecap="round" stroke-linejoin="round"/>
<path d="M1185.08 452.193C1181.82 450.977 1178.86 448.449 1179.15 444.948C1176.62 445.824 1174.73 446.699 1173.95 447.622C1214.85 472.029 1217.71 489.532 1236.41 509.951C1238.89 510.583 1241.32 511.07 1243.7 511.41C1240.2 482.822 1213.54 460.993 1185.08 452.193ZM851.811 480.391C851.811 480.391 840.64 458.124 841.66 453.214C842.68 448.303 840.835 443.393 845.983 441.351C844.283 445.143 842.972 449.275 843.263 453.797C843.554 458.319 852.734 479.516 852.734 479.516L851.811 480.391ZM856.473 430.849C856.473 430.849 853.948 440.427 855.987 449.081C857.979 457.735 864.39 474.8 866.089 475.675C867.789 476.55 867.789 476.551 867.789 476.551C867.789 476.551 854.093 443.538 856.473 430.849ZM874.491 419.229C874.491 419.229 869.829 434.398 870.315 440.038C870.8 445.678 881.728 473.099 881.728 473.099L882.505 472.126C882.505 472.126 870.897 442.566 873.86 432.162C876.823 421.806 876.385 418.305 876.385 418.305L874.491 419.229ZM892.17 429.196C892.17 429.196 889.644 448.935 892.17 451.463C894.695 453.991 897.755 453.457 897.755 453.457C897.755 453.457 892.801 437.121 892.17 429.196Z" fill="#BDBDBD" stroke="#BDBDBD" stroke-width="3.007" stroke-miterlimit="10" stroke-linecap="round" stroke-linejoin="round"/>
<path d="M893.724 437.169C893.724 437.169 891.635 447.671 892.17 451.463C892.364 452.922 892.85 454.526 893.675 455.985C895.812 457.735 898.192 458.562 900.62 456.471C904.894 453.068 905.38 447.574 905.38 442.226C905.186 441.594 904.991 440.962 904.797 440.281L893.724 437.169Z" fill="white" stroke="#BDBDBD" stroke-width="3.007" stroke-miterlimit="10" stroke-linecap="round" stroke-linejoin="round"/>
<path d="M886.39 216.052C884.448 210.169 882.553 206.571 880.659 204.383C879.737 203.314 878.765 202.536 877.842 202.098C876.92 201.612 875.997 201.466 875.171 201.466C874.249 201.466 873.471 201.661 872.84 201.855C871.723 202.196 870.655 203.071 869.926 204.481C869.198 205.891 868.76 207.787 868.712 210.364C868.712 213.718 869.489 218.191 871.48 224.171C873.229 229.373 875.123 232.534 877.017 234.43C877.988 235.402 878.959 236.034 879.882 236.423C880.805 236.812 881.728 236.958 882.553 236.958C883.282 236.958 883.962 236.861 884.496 236.715C885.03 236.569 885.467 236.423 885.71 236.326C886.487 236.083 887.41 235.451 888.041 234.284C888.673 233.166 889.11 231.513 889.11 229.276C889.061 226.262 888.333 222.032 886.39 216.052ZM886.147 233.263C885.759 233.992 885.322 234.235 885.03 234.332C884.69 234.43 884.35 234.576 883.913 234.673C883.476 234.77 883.039 234.867 882.505 234.867C881.922 234.867 881.339 234.77 880.659 234.478C879.639 234.041 878.474 233.214 877.26 231.513C875.997 229.811 874.686 227.234 873.423 223.491C871.48 217.656 870.752 213.426 870.752 210.364C870.752 208.03 871.189 206.474 871.675 205.502C872.209 204.481 872.84 204.092 873.374 203.897C873.909 203.703 874.491 203.606 875.123 203.606C875.657 203.606 876.24 203.703 876.871 204.043C877.842 204.529 878.96 205.502 880.271 207.495C881.534 209.488 882.942 212.454 884.35 216.733C886.293 222.615 886.924 226.651 886.924 229.325C886.924 231.318 886.584 232.582 886.147 233.263Z" fill="#BDBDBD" stroke="#BDBDBD" stroke-width="3.007" stroke-miterlimit="10" stroke-linecap="round" stroke-linejoin="round"/>
<path d="M1165.02 237.298L1203.87 299.919H1230.24L1182.02 221.935L1165.02 237.298Z" fill="white" stroke="#BDBDBD" stroke-width="3.007" stroke-miterlimit="10" stroke-linecap="round" stroke-linejoin="round"/>
<path d="M1187.07 211.628L1241.36 299.919H1269.05L1211.4 191.694L1187.07 211.628Z" fill="white" stroke="#BDBDBD" stroke-width="3.007" stroke-miterlimit="10" stroke-linecap="round" stroke-linejoin="round"/>
<path d="M1182.02 221.935L1194.69 223.977L1241.36 299.919H1230.24L1182.02 221.935Z" fill="white" stroke="#BDBDBD" stroke-width="3.007" stroke-miterlimit="10" stroke-linecap="round" stroke-linejoin="round"/>
<path d="M1234.81 209.099L1211.4 191.694L1269.05 299.919H1275.26V284.458L1234.81 209.099Z" fill="white" stroke="#BDBDBD" stroke-width="3.007" stroke-miterlimit="10" stroke-linecap="round" stroke-linejoin="round"/>
<path d="M1180.02 242.792C1180.02 242.792 1185.32 238.416 1190.66 245.806C1196.05 253.197 1185.12 258.739 1181.53 254.023C1177.94 249.307 1176.96 244.056 1180.02 242.792Z" fill="white" stroke="#BDBDBD" stroke-width="3.007" stroke-miterlimit="10" stroke-linecap="round" stroke-linejoin="round"/>
<path d="M1181.58 244.542C1181.58 244.542 1185.27 241.479 1189.06 246.633C1192.85 251.787 1185.17 255.676 1182.65 252.419C1180.12 249.161 1179.44 245.418 1181.58 244.542Z" fill="#BDBDBD" stroke="#BDBDBD" stroke-width="3.007" stroke-miterlimit="10" stroke-linecap="round" stroke-linejoin="round"/>
<path d="M1185.17 261.267L1195.71 255.773L1225.58 299.919H1209.75L1185.17 261.267Z" fill="white" stroke="#BDBDBD" stroke-width="3.007" stroke-miterlimit="10" stroke-linecap="round" stroke-linejoin="round"/>
<path d="M1210.77 233.457C1215.54 233.457 1219.41 228.734 1219.41 222.907C1219.41 217.08 1215.54 212.357 1210.77 212.357C1205.99 212.357 1202.12 217.08 1202.12 222.907C1202.12 228.734 1205.99 233.457 1210.77 233.457Z" fill="white" stroke="#BDBDBD" stroke-width="3.007" stroke-miterlimit="10" stroke-linecap="round" stroke-linejoin="round"/>
<path d="M1211.4 239.826L1225.58 229.227L1227.96 232.145L1213.29 241.479L1211.4 239.826Z" fill="white" stroke="#BDBDBD" stroke-width="3.007" stroke-miterlimit="10" stroke-linecap="round" stroke-linejoin="round"/>
<path d="M1214.9 248.091L1229.13 237.493L1231.51 240.41L1216.79 249.744L1214.9 248.091Z" fill="white" stroke="#BDBDBD" stroke-width="3.007" stroke-miterlimit="10" stroke-linecap="round" stroke-linejoin="round"/>
<path d="M1218.44 256.357L1232.62 245.758L1235 248.675L1220.33 258.01L1218.44 256.357Z" fill="#BDBDBD" stroke="#BDBDBD" stroke-width="3.007" stroke-miterlimit="10" stroke-linecap="round" stroke-linejoin="round"/>
<path d="M191.256 440.087C190.964 437.947 190.77 435.857 190.624 433.815C193.198 430.12 197.958 425.112 205.097 422.778C211.411 421.125 209.322 418.208 206.7 418.84C204.854 419.278 195.675 422.973 190.673 424.966C192.567 401.824 207.768 385.245 238.608 391.322C238.608 391.322 284.601 359.623 297.374 409.457C290.089 407.075 276.199 403.234 275.033 408.095C273.479 414.27 287.369 406.199 298.637 415.145C299.316 418.889 299.851 422.973 300.191 427.494C300.288 432.453 299.025 437.704 296.84 442.955C291.497 436.44 277.753 420.639 273.139 425.501C267.845 431.141 286.883 427.494 294.168 448.643C291.352 454.04 287.855 459.339 284.164 464.153C280.375 457.638 272.508 445.58 267.602 448.595C265.611 450.296 269.399 452.873 273.333 457.054C275.81 459.728 278.821 465.028 280.715 468.577C271.828 479.516 263.231 487.295 263.231 487.295C263.231 487.295 252.11 484.524 238.657 479.176C238.074 474.508 237.151 465.465 238.802 463.326C241.036 460.36 237.831 457.541 233.946 460.749C230.935 463.229 230.255 470.716 231.177 476.064C225.641 473.585 219.959 470.765 214.713 467.556C215.733 460.749 218.502 445.58 222.97 442.761C225.835 440.232 223.601 436.635 216.753 441.837C211.508 445.824 209.857 458.318 209.322 464.055C199.852 457.395 192.567 449.373 191.256 440.087Z" fill="white" stroke="#BDBDBD" stroke-width="3.007" stroke-miterlimit="10" stroke-linecap="round" stroke-linejoin="round"/>
<path d="M260.172 478.009C260.172 478.009 240.745 418.354 238.705 391.322L260.172 478.009Z" stroke="#BDBDBD" stroke-width="3.007" stroke-miterlimit="10" stroke-linecap="round" stroke-linejoin="round"/>
<path d="M233.848 455.936C233.848 455.936 238.074 444.9 247.593 435.273L233.848 455.936ZM269.933 438.385C269.933 438.385 253.664 425.598 245.31 426.425L269.933 438.385ZM212.916 432.891C212.916 432.891 231.809 417.284 242.348 413.589L212.916 432.891ZM265.174 400.365C265.174 400.365 250.75 393.947 239.579 398.761L265.174 400.365Z" stroke="#BDBDBD" stroke-width="3.007" stroke-miterlimit="10" stroke-linecap="round" stroke-linejoin="round"/>
<path d="M843.7 667.865C824.176 651.966 793.725 632.519 749.384 617.496C659.39 586.963 701.011 566.252 666.383 555.847C631.755 545.492 548.755 549.673 451.864 537.032C354.974 524.391 276.101 527.94 299.899 492.74C316.412 468.285 339.53 450.977 352.157 442.615L322.143 444.9C292.517 467.167 236.714 518.849 340.404 529.204C473.379 542.526 663.226 557.063 666.383 586.185C668.909 609.377 786.683 640.93 833.161 670.296C836.512 669.518 840.009 668.74 843.7 667.865Z" fill="#D9DBDA" stroke="#BDBDBD" stroke-width="3.007" stroke-miterlimit="10"/>
</g>
<defs>
<clipPath id="clip0">
<rect width="1457" height="465" fill="white"/>
</clipPath>
</defs>
</svg>
