<?xml version="1.0" encoding="utf-8"?>
<!-- Generator: Adobe Illustrator 24.0.2, SVG Export Plug-In . SVG Version: 6.00 Build 0)  -->
<svg version="1.1" id="Layer_1" xmlns="http://www.w3.org/2000/svg" xmlns:xlink="http://www.w3.org/1999/xlink" x="0px" y="0px"
	 viewBox="0 0 641.51 458.49" style="enable-background:new 0 0 641.51 458.49;" xml:space="preserve">
<style type="text/css">
	.st0{fill:#F2F2F2;}
	.st1{fill:none;stroke:#706F6E;stroke-miterlimit:10;}
	.st2{fill:#706F6E;}
	.st3{fill:#351710;}
	.st4{fill:#D9372E;}
	.st5{fill:#BC8057;}
	.st6{fill:#F4A877;}
	.st7{fill:#FDFAFC;}
	.st8{fill:#EB144C;}
	.st9{opacity:0.15;}
	.st10{fill:#F7AD04;}
	.st11{fill:#B9C3E5;}
	.st12{fill:#585856;}
	.st13{fill:#F3F3F3;}
	.st14{fill:#575756;}
	.st15{opacity:0.95;fill:#D9D9D9;}
	.st16{fill:#BAC6F2;}
	.st17{fill:#BAC4E5;}
	.st18{fill:#6F6F6E;}
	.st19{fill:#EDA886;}
	.st20{fill:#1D1D1B;}
	.st21{fill:#F5F5F5;}
	.st22{fill:#C78C72;}
	.st23{fill:#EDA785;}
	.st24{fill:#16202E;}
	.st25{fill:#ECECEC;}
	.st26{fill:#633029;}
	.st27{fill:#E45453;}
	.st28{fill:#A67860;}
	.st29{fill:#E9ECF7;}
	.st30{fill:#3C3C3B;}
	.st31{fill:#22243B;}
	.st32{fill:#CEBDB5;}
	.st33{fill:#3A3F47;}
	.st34{fill:#24263D;}
	.st35{fill:#D34040;}
	.st36{fill:#EDD9D2;}
	.st37{fill:#191929;}
	.st38{fill:#E51B4D;}
	.st39{fill:url(#SVGID_1_);}
	.st40{fill:#29C6BE;}
	.st41{fill:#84F59A;}
	.st42{fill:#E6431E;}
	.st43{fill:#B92918;}
	.st44{opacity:0.58;fill:#00888C;}
	.st45{fill:#F9B410;}
	.st46{fill:#F6B48E;}
	.st47{fill:#0C0D1E;}
	.st48{fill:#EE8958;}
	.st49{fill:#FFFFFF;}
	.st50{fill:#0D0E1F;}
</style>
<path class="st0" d="M559,403.79c19.44-34.71,36.94-71.43,44.62-111.2c7.68-39.78,4.69-83.24-14.72-117.97
	c-19.4-34.74-57.02-58.61-94.05-52.95c-31.61,4.83-61.58,29.57-92.51,21.02c-31.96-8.83-47.29-48.27-74.23-68.95
	c-47.55-36.5-122.15-9.85-151.71,40.54c-19.86,33.86-24.39,78.84-52.39,105.03c-21.18,19.81-52.58,25.21-70.02,48.93
	c-14.82,20.14-15.45,49.81-5.52,73.24c9.93,23.43,30.86,49.1,51.71,61.42L559,403.79z"/>
<path class="st1" d="M586.72,375.96H327.49v-208.5c0-6.84,5.54-12.38,12.38-12.38h234.47c6.84,0,12.38,5.54,12.38,12.38V375.96z"/>
<rect x="341.32" y="179.57" class="st1" width="228.62" height="179.81"/>
<path class="st2" d="M583.7,399.17H292.48c-4.11,0-7.44-3.33-7.44-7.44v-15.77h306.1v15.77
	C591.15,395.84,587.81,399.17,583.7,399.17z"/>
<path class="st1" d="M218.83,399.57H84.91c-9.11,0-16.49-7.38-16.49-16.49V162.46c0-9.11,7.38-16.49,16.49-16.49h133.91
	c9.11,0,16.49,7.38,16.49,16.49v220.62C235.32,392.18,227.93,399.57,218.83,399.57z"/>
<path class="st1" d="M218.68,365.77H83.46c-3.97,0-7.18-3.22-7.18-7.18V170.73c0-3.97,3.22-7.18,7.18-7.18h135.22
	c3.97,0,7.18,3.22,7.18,7.18v187.86C225.86,362.55,222.64,365.77,218.68,365.77z"/>
<path class="st2" d="M161.44,389.64H148c-1.32,0-2.39-1.07-2.39-2.39v-10.13c0-1.32,1.07-2.39,2.39-2.39h13.45
	c1.32,0,2.39,1.07,2.39,2.39v10.13C163.83,388.57,162.76,389.64,161.44,389.64z"/>
<path class="st3" d="M171.96,155.58h-35.81c-0.32,0-0.58-0.26-0.58-0.58v-2.46c0-0.32,0.26-0.58,0.58-0.58h35.81
	c0.32,0,0.58,0.26,0.58,0.58V155C172.54,155.32,172.28,155.58,171.96,155.58z"/>
<ellipse class="st3" cx="177.24" cy="153.77" rx="1.53" ry="1.81"/>
<path class="st5" d="M246.88,269.72l-2.09,48.34c0,0,50.23,32.71,74.1,24.29c23.87-8.42,22.75-10.14,23.87-11.47
	c1.12-1.33,27.99-36.4-2.17-44.32C310.43,278.64,246.88,269.72,246.88,269.72z"/>
<path class="st6" d="M407.91,323.24c0,0-13.81,4.89-27.06,12.27c-13.25,7.37-75.06,18.33-75.06,18.33s-5.71,1.2-7.26-3.08
	c-1.54-4.28,3.39-7.11,4.81-8.01c0,0-24.37,8.77-27.85-1.56c-3.49-10.33,10.83-12.8,10.83-12.8s-16.73,3.24-18.02-4.55
	c-1.29-7.79,3.68-11.5,13.55-14.24c0,0-10.82,1.13-11.59-5.4c-0.77-6.54,4.25-10.99,25.06-13.35c20.81-2.36,37.63-7.48,37.63-7.49
	c-0.46,0.18-1.38-0.16-1.85-0.19c-4.56-0.27-8.97-1.36-13.77-2.46c-3.84-0.88-9.79-1.95-12.12-6.14c-1.9-3.42,1.07-7.09,3.62-8.42
	c5.21-2.7,10.85-1.82,16.3-0.88c8.51,1.47,17.2,1.35,25.65,3.64c7.85,2.13,15.61,5.08,23.55,6.83c1.58,0.35,3.16,0.62,4.76,0.82
	c6.6,0.8,13.31,0.31,19.86-0.78c2.93-0.49,5.86-1.08,8.73-1.89l8.99,46.97L407.91,323.24z"/>
<path class="st7" d="M412.83,330.77l-16.96,3.63c0,0-11.23,5.98-14.82-25.61s-3.7-32.59,0.19-35.33c3.89-2.74,19.44-6.86,19.44-6.86
	L412.83,330.77z"/>
<path class="st8" d="M569.69,297.74c-44.24,21.78-163.35,39.74-163.35,39.74c-20.61-23.36-16.38-72.43-16.37-72.58c0,0,0,0,0,0
	c111.27-16.91,180.71-77.11,179.72-77.11L569.69,297.74z"/>
<g class="st9">
	<path d="M389.99,266.6c-0.92,0.3-1.85,0.61-2.75,0.92c-0.39,12.48,0.12,43.49,13.33,62.81l2.37-0.51
		C389.74,309.99,389.55,278.31,389.99,266.6z"/>
</g>
<ellipse class="st10" cx="421.05" cy="319.02" rx="5.58" ry="6.58"/>
<g class="st9">
	<path d="M421.91,322.34c-2.51,0.9-5.13-0.4-6.41-2.95c0.03,0.51,0.09,1.03,0.22,1.54c0.9,3.47,4.01,5.43,6.96,4.37
		c2.95-1.06,4.6-4.74,3.71-8.21c-0.13-0.51-0.33-0.98-0.55-1.43C425.98,318.63,424.42,321.44,421.91,322.34z"/>
</g>
<path class="st5" d="M322.82,286.95c-10.49,0.87-20.78,1.28-24.13,2.29l-51.64-11.58l-0.39-18.42c0,0,23.66,11.91,38.39,9.13
	c15.83-2.98,43.18-0.86,43.18-0.86s22.68,3.31,25.4,13.52c2.71,10.2-5.41,11.17-10.97,9.84
	C337.1,289.53,329.63,286.38,322.82,286.95z"/>
<path class="st7" d="M225.14,317.11l16.77,4.64c0,0,10.94,6.65,15.98-24.69c5.04-31.34,5.2-32.32,1.44-35.3
	c-3.76-2.97-19.1-8.02-19.1-8.02L225.14,317.11z"/>
<path class="st8" d="M76.79,286.99C76.79,287,76.78,286.99,76.79,286.99c42.95,24.42,153.32,41.09,153.32,41.09
	c21.6-22.09,19.66-71.35,19.66-71.5c0,0,0,0,0,0c-82.5-17.66-146.04-57.92-172.94-76.84L76.79,286.99z"/>
<g class="st9">
	<path d="M249.8,257.19c0.91,0.35,1.81,0.72,2.7,1.09c-0.18,12.48-2.13,43.42-16.21,61.92l-2.34-0.65
		C248.05,300.53,249.69,268.91,249.8,257.19z"/>
</g>
<ellipse transform="matrix(0.0105 -0.9999 0.9999 0.0105 -89.692 519.1302)" class="st11" cx="217.47" cy="304.89" rx="6.58" ry="5.58"/>
<path class="st5" d="M320.11,347.94c1.43,1.64,4.05,2.94,6.05,3.6c2.26,0.74,4.63,0.14,6.76-0.8c0.99-0.44,2-0.87,2.87-1.55
	c0.2-0.16,1.82-1.54,1.54-1.76c0,0,7.58,5.83,12.82-1.8c0,0,8.04,4.16,12.61-4.11c0,0,8.76,4.7,11.54-4.29
	c2.78-8.99-6.33-8.44-10.07-6.08c0,0-10.39-4.67-14.42,3.04c0,0-8.66-7.36-14.84,2.29c0,0.01-2.92-1-3.11-1.05
	c-2.11-0.52-4.39-0.75-6.52-0.2c-4.22,1.09-6.72,5.82-6.29,10.22C319.14,346.49,319.53,347.28,320.11,347.94z"/>
<rect x="62.58" y="399.92" class="st12" width="532.45" height="3.87"/>
</svg>
