<svg width="1200" height="787" viewBox="0 0 1200 787" fill="none" xmlns="http://www.w3.org/2000/svg">
<path d="M21.66 533.81C37.46 615.6 73.47 691.12 113.48 762.5L1057.65 760.69C1100.55 735.35 1143.63 682.55 1164.07 634.36C1184.49 586.19 1183.19 525.16 1152.69 483.74C1116.79 434.97 1102.73 300.54 1030.29 292.69C953.81 284.4 941.65 236.75 900.79 167.1C839.96 63.46 686.43 8.65998 588.59 83.73C533.17 126.26 501.62 207.36 435.85 225.52C372.2 243.11 310.52 192.23 245.48 182.3C169.29 170.67 91.87 219.74 51.94 291.2C12.01 362.63 5.87997 452.02 21.66 533.81Z" fill="#F2F2F2"/>
<path d="M745.98 474.77H475.64C466.62 474.77 459.3 467.45 459.3 458.43V62.13C459.3 53.11 466.62 45.79 475.64 45.79H745.98C755 45.79 762.32 53.11 762.32 62.13V458.43C762.32 467.46 755.01 474.77 745.98 474.77Z" fill="#D8D8D8"/>
<path d="M745.32 254.73H483.85V239.88C483.85 235.24 487.61 231.47 492.26 231.47H736.91C741.55 231.47 745.32 235.23 745.32 239.88V254.73Z" fill="#706F6E"/>
<path d="M736.39 334.19H492.78C487.85 334.19 483.86 330.19 483.86 325.27V254.74H745.33V325.27C745.32 330.19 741.32 334.19 736.39 334.19Z" fill="#E7E7E8"/>
<path d="M745.09 370.82H483.62V355.97C483.62 351.33 487.38 347.56 492.03 347.56H736.68C741.32 347.56 745.09 351.32 745.09 355.97V370.82Z" fill="#706F6E"/>
<path d="M736.16 450.27H492.54C487.61 450.27 483.62 446.27 483.62 441.35V370.82H745.09V441.35C745.09 446.28 741.09 450.27 736.16 450.27Z" fill="#E7E7E8"/>
<path d="M731.61 383.16H498.75V387.7H731.61V383.16Z" fill="#F9FAFB"/>
<path d="M731.61 395.96H498.75V400.5H731.61V395.96Z" fill="#F9FAFB"/>
<path d="M731.61 408.76H498.75V413.3H731.61V408.76Z" fill="#F9FAFB"/>
<path d="M731.61 421.56H498.75V426.1H731.61V421.56Z" fill="#F9FAFB"/>
<path d="M601.46 210.93H494.95C492.86 210.93 491.16 209.24 491.16 207.14V87.29C491.16 85.2 492.85 83.5 494.95 83.5H601.47C603.56 83.5 605.26 85.19 605.26 87.29V207.14C605.25 209.23 603.56 210.93 601.46 210.93Z" fill="white"/>
<path d="M588.88 158.94C586.91 157.53 563.45 149.05 563.45 149.05L548.21 155L532.97 149.05C532.97 149.05 509.51 157.53 507.54 158.94C505.57 160.35 511.19 210.93 511.19 210.93H547.72H548.71H585.24C585.23 210.93 590.85 160.34 588.88 158.94Z" fill="#EB144C"/>
<path d="M558.24 131.77L548.7 132.89L539.16 131.77C539.16 131.77 539.76 143.39 536.85 149.29L548.7 155.19L560.55 149.29C557.64 143.39 558.24 131.77 558.24 131.77Z" fill="#E7B09B"/>
<path d="M569.45 116.51C569 112.18 565.83 112.87 564.81 113.22V105.32H548.96H533.11V113.22C532.09 112.88 528.92 112.18 528.47 116.51C527.97 121.23 531.48 123.36 533.11 124.09V124.23C533.11 133.26 540.16 143.48 548.96 143.48C557.4 143.48 564.81 133.25 564.81 124.23V124.09C566.45 123.36 569.95 121.23 569.45 116.51Z" fill="#F3C0A7"/>
<path d="M573.62 101.21C572.15 101.28 569.5 100.7 569.5 100.7C571.55 100.19 572.15 96.52 572.15 96.52C567.89 97.69 548.96 91.16 540 92.78C531.05 94.39 531.85 98.72 531.85 98.72C522.75 102.17 529.08 114.36 529.08 114.36C530.35 112.24 533.1 113.22 533.1 113.22L534.49 119.78C534.49 119.78 537.01 115.48 536.01 111.32V111.31C538.69 108.72 538.97 105.33 538.97 105.33L561.28 105.4C561.01 107.47 561.98 109.5 562.97 110.98C562.78 111.24 562.62 111.64 562.48 112.21C561.48 116.37 564 120.67 564 120.67L566.06 113.01C567.69 112.94 568.46 113.87 568.46 113.87C571.45 111.18 571.04 105.33 571.04 105.33C573.55 104.44 573.62 101.21 573.62 101.21Z" fill="#1B212F"/>
<path d="M538.71 142.36L548.7 155.19L541.54 161.89L532.96 149.05L538.71 142.36Z" fill="#706F6E"/>
<path d="M558.69 142.36L548.7 155.19L555.87 161.89L564.44 149.05L558.69 142.36Z" fill="#706F6E"/>
<path d="M507.53 158.94C507.53 158.94 498.82 164.6 498.82 179.99L496.57 210.93H511.18L507.53 158.94Z" fill="#EB144C"/>
<path d="M588.47 158.94C588.47 158.94 597.18 164.6 597.18 179.99L599.43 210.93H584.82L588.47 158.94Z" fill="#EB144C"/>
<path d="M628.05 125.99L631.46 132.89L639.07 133.99L633.56 139.36L634.86 146.95L628.05 143.37L621.24 146.95L622.54 139.36L617.03 133.99L624.65 132.89L628.05 125.99Z" fill="#9B9A9A"/>
<path d="M653.94 125.99L657.35 132.89L664.96 133.99L659.45 139.36L660.75 146.95L653.94 143.37L647.13 146.95L648.43 139.36L642.92 133.99L650.54 132.89L653.94 125.99Z" fill="#9B9A9A"/>
<path d="M679.83 125.99L683.24 132.89L690.85 133.99L685.34 139.36L686.64 146.95L679.83 143.37L673.02 146.95L674.32 139.36L668.81 133.99L676.43 132.89L679.83 125.99Z" fill="#9B9A9A"/>
<path d="M705.72 125.99L709.13 132.89L716.74 133.99L711.23 139.36L712.53 146.95L705.72 143.37L698.91 146.95L700.21 139.36L694.7 133.99L702.32 132.89L705.72 125.99Z" fill="#9B9A9A"/>
<path d="M731.61 125.99L735.02 132.89L742.63 133.99L737.12 139.36L738.42 146.95L731.61 143.37L724.8 146.95L726.1 139.36L720.59 133.99L728.21 132.89L731.61 125.99Z" fill="#9B9A9A"/>
<path d="M733.97 213.39H626.42C622.51 213.39 619.32 210.21 619.32 206.29V159.21C619.32 155.3 622.5 152.11 626.42 152.11H733.97C737.88 152.11 741.07 155.29 741.07 159.21V206.29C741.07 210.2 737.88 213.39 733.97 213.39ZM626.42 155.61C624.43 155.61 622.82 157.23 622.82 159.22V206.3C622.82 208.29 624.44 209.91 626.42 209.91H733.97C735.96 209.91 737.57 208.29 737.57 206.3V159.22C737.57 157.23 735.95 155.61 733.97 155.61H626.42Z" fill="#E7E7E8"/>
<path d="M727.78 169.56H632.14C631.71 169.56 631.36 169.21 631.36 168.78V167.13C631.36 166.7 631.71 166.35 632.14 166.35H727.78C728.21 166.35 728.56 166.7 728.56 167.13V168.78C728.56 169.21 728.21 169.56 727.78 169.56Z" fill="#E7E7E8"/>
<path d="M727.78 178.94H632.14C631.71 178.94 631.36 178.59 631.36 178.16V176.51C631.36 176.08 631.71 175.73 632.14 175.73H727.78C728.21 175.73 728.56 176.08 728.56 176.51V178.16C728.56 178.59 728.21 178.94 727.78 178.94Z" fill="#E7E7E8"/>
<path d="M727.78 188.34H632.14C631.71 188.34 631.36 187.99 631.36 187.56V185.91C631.36 185.48 631.71 185.13 632.14 185.13H727.78C728.21 185.13 728.56 185.48 728.56 185.91V187.56C728.56 187.99 728.21 188.34 727.78 188.34Z" fill="#E7E7E8"/>
<path d="M727.78 197.72H632.14C631.71 197.72 631.36 197.37 631.36 196.94V195.29C631.36 194.86 631.71 194.51 632.14 194.51H727.78C728.21 194.51 728.56 194.86 728.56 195.29V196.94C728.56 197.37 728.21 197.72 727.78 197.72Z" fill="#E7E7E8"/>
<path d="M699.502 105.073C702.055 94.2014 695.311 83.319 684.44 80.7662C673.569 78.2134 662.686 84.9568 660.134 95.8281C657.581 106.699 664.324 117.582 675.195 120.135C686.067 122.687 696.949 115.944 699.502 105.073Z" fill="white"/>
<path d="M658.65 100.07L665.38 93.78L673.99 102.11L693.76 79.8L701.01 87.16L675.33 116.57L658.65 100.07Z" fill="#EB144C"/>
<path d="M731.61 266.35H498.75V270.89H731.61V266.35Z" fill="#F9FAFB"/>
<path d="M731.61 279.15H498.75V283.69H731.61V279.15Z" fill="#F9FAFB"/>
<path d="M731.61 291.95H498.75V296.49H731.61V291.95Z" fill="#F9FAFB"/>
<path d="M731.61 304.75H498.75V309.29H731.61V304.75Z" fill="#F9FAFB"/>
<path d="M459.3 67.58H761.52V50.13C761.52 37.61 751.37 27.47 738.86 27.47H481.97C469.45 27.47 459.31 37.62 459.31 50.13V67.58H459.3Z" fill="#706F6E"/>
<path d="M421.27 441.01H237.13C229.04 441.01 222.47 434.45 222.47 426.35V157.71C222.47 149.62 229.03 143.05 237.13 143.05H421.28C429.37 143.05 435.94 149.61 435.94 157.71V426.36C435.93 434.45 429.37 441.01 421.27 441.01Z" fill="#D8D8D8"/>
<path d="M419.31 291.44H239.25V281.22C239.25 278.02 241.84 275.43 245.04 275.43H413.52C416.72 275.43 419.31 278.02 419.31 281.22V291.44Z" fill="#706F6E"/>
<path d="M413.16 346.16H245.4C242.01 346.16 239.25 343.41 239.25 340.01V291.44H419.31V340.01C419.31 343.41 416.56 346.16 413.16 346.16Z" fill="#E7E7E8"/>
<path d="M419.15 371.38H239.09V361.16C239.09 357.96 241.68 355.37 244.88 355.37H413.36C416.56 355.37 419.15 357.96 419.15 361.16V371.38Z" fill="#706F6E"/>
<path d="M413 426.1H245.24C241.85 426.1 239.09 423.35 239.09 419.95V371.38H419.15V419.95C419.15 423.35 416.4 426.1 413 426.1Z" fill="#E7E7E8"/>
<path d="M324.49 266.35H242.65C241.04 266.35 239.74 265.05 239.74 263.44V171.35C239.74 169.74 241.04 168.44 242.65 168.44H324.49C326.1 168.44 327.4 169.74 327.4 171.35V263.44C327.4 265.05 326.09 266.35 324.49 266.35Z" fill="white"/>
<path d="M314.82 226.41C313.31 225.33 295.28 218.81 295.28 218.81L283.57 223.38L271.86 218.81C271.86 218.81 253.83 225.33 252.32 226.41C250.81 227.49 255.13 266.35 255.13 266.35H283.19H283.95H312.01C312.01 266.35 316.33 227.49 314.82 226.41Z" fill="#848585"/>
<path d="M291.28 205.54L283.95 206.4L276.62 205.54C276.62 205.54 277.08 214.46 274.85 219L283.95 223.53L293.05 219C290.82 214.46 291.28 205.54 291.28 205.54Z" fill="#E7B09B"/>
<path d="M299.89 193.81C299.54 190.48 297.11 191.02 296.32 191.28V185.21H284.14H271.96V191.28C271.17 191.02 268.74 190.48 268.39 193.81C268.01 197.44 270.7 199.07 271.96 199.63V199.74C271.96 206.67 277.37 214.53 284.14 214.53C290.62 214.53 296.32 206.67 296.32 199.74V199.63C297.58 199.07 300.27 197.44 299.89 193.81Z" fill="#F3C0A7"/>
<path d="M276.27 213.67L283.95 223.53L278.44 228.67L271.86 218.81L276.27 213.67Z" fill="#3C3C3B"/>
<path d="M291.62 213.67L283.95 223.53L289.45 228.67L296.04 218.81L291.62 213.67Z" fill="#3C3C3B"/>
<path d="M252.32 226.41C252.32 226.41 245.63 230.76 245.63 242.58L243.9 266.35H255.13L252.32 226.41Z" fill="#3C3C3B"/>
<path d="M314.5 226.41C314.5 226.41 321.19 230.76 321.19 242.58L322.92 266.35H311.69L314.5 226.41Z" fill="#3C3C3B"/>
<path d="M271.59 191.51L272.93 195.38C272.93 195.38 275.64 189.93 274.5 185.35C274.5 185.35 279.92 185.2 283.94 185.35C287.96 185.5 293.74 185.35 293.74 185.35C293.74 185.35 292.85 192.21 295.51 194.2C295.51 194.2 297.87 190 297.95 185.35C298.02 180.7 295.66 177.67 291.75 176.42C287.84 175.17 274.75 174.35 271.59 179.81C268.43 185.28 271.59 191.51 271.59 191.51Z" fill="#1B212F"/>
<path d="M338.55 202.78L340.9 207.53L346.14 208.3L342.35 211.99L343.24 217.22L338.55 214.75L333.86 217.22L334.76 211.99L330.96 208.3L336.21 207.53L338.55 202.78Z" fill="#9B9A9A"/>
<path d="M356.38 202.78L358.73 207.53L363.97 208.3L360.18 211.99L361.07 217.22L356.38 214.75L351.69 217.22L352.59 211.99L348.79 208.3L354.04 207.53L356.38 202.78Z" fill="#9B9A9A"/>
<path d="M411.49 263.51H337.43C334.44 263.51 332 261.07 332 258.08V225.66C332 222.67 334.44 220.23 337.43 220.23H411.49C414.48 220.23 416.92 222.67 416.92 225.66V258.08C416.92 261.08 414.49 263.51 411.49 263.51ZM337.43 223.72C336.36 223.72 335.49 224.59 335.49 225.66V258.08C335.49 259.15 336.36 260.02 337.43 260.02H411.49C412.56 260.02 413.43 259.15 413.43 258.08V225.66C413.43 224.59 412.56 223.72 411.49 223.72H337.43Z" fill="#E7E7E8"/>
<path d="M407.23 232.79H341.37C341.07 232.79 340.83 232.55 340.83 232.25V231.11C340.83 230.81 341.07 230.57 341.37 230.57H407.23C407.53 230.57 407.77 230.81 407.77 231.11V232.25C407.77 232.55 407.53 232.79 407.23 232.79Z" fill="#E7E7E8"/>
<path d="M407.23 239.25H341.37C341.07 239.25 340.83 239.01 340.83 238.71V237.57C340.83 237.27 341.07 237.03 341.37 237.03H407.23C407.53 237.03 407.77 237.27 407.77 237.57V238.71C407.77 239.01 407.53 239.25 407.23 239.25Z" fill="#E7E7E8"/>
<path d="M407.23 245.72H341.37C341.07 245.72 340.83 245.48 340.83 245.18V244.04C340.83 243.74 341.07 243.5 341.37 243.5H407.23C407.53 243.5 407.77 243.74 407.77 244.04V245.18C407.77 245.48 407.53 245.72 407.23 245.72Z" fill="#E7E7E8"/>
<path d="M407.23 252.18H341.37C341.07 252.18 340.83 251.94 340.83 251.64V250.5C340.83 250.2 341.07 249.96 341.37 249.96H407.23C407.53 249.96 407.77 250.2 407.77 250.5V251.64C407.77 251.94 407.53 252.18 407.23 252.18Z" fill="#E7E7E8"/>
<path d="M393.362 182.483C394.792 173.696 388.827 165.414 380.04 163.984C371.253 162.554 362.971 168.519 361.541 177.306C360.111 186.093 366.076 194.375 374.863 195.805C383.65 197.235 391.932 191.271 393.362 182.483Z" fill="white"/>
<path d="M396 169.08L386.35 160.41L377.47 170.24L368.6 160.41L358.95 169.08L368.66 180L358.95 190.76L368.9 199.57L377.47 189.92L386.05 199.57L396 190.76L386.29 180L396 169.08Z" fill="#EB144C"/>
<path d="M988.46 441.01H804.31C796.22 441.01 789.65 434.45 789.65 426.35V157.71C789.65 149.62 796.21 143.05 804.31 143.05H988.46C996.55 143.05 1003.12 149.61 1003.12 157.71V426.36C1003.12 434.45 996.56 441.01 988.46 441.01Z" fill="#D8D8D8"/>
<path d="M986.5 291.44H806.44V281.22C806.44 278.02 809.03 275.43 812.23 275.43H980.71C983.91 275.43 986.5 278.02 986.5 281.22V291.44Z" fill="#706F6E"/>
<path d="M980.35 346.16H812.58C809.19 346.16 806.43 343.41 806.43 340.01V291.44H986.5V340.01C986.5 343.41 983.74 346.16 980.35 346.16Z" fill="#E7E7E8"/>
<path d="M986.34 371.38H806.28V361.16C806.28 357.96 808.87 355.37 812.07 355.37H980.55C983.75 355.37 986.34 357.96 986.34 361.16V371.38Z" fill="#706F6E"/>
<path d="M980.19 426.1H812.43C809.04 426.1 806.28 423.35 806.28 419.95V371.38H986.34V419.95C986.34 423.35 983.59 426.1 980.19 426.1Z" fill="#E7E7E8"/>
<path d="M892.06 266.35H810.22C808.61 266.35 807.31 265.05 807.31 263.44V171.35C807.31 169.74 808.61 168.44 810.22 168.44H892.06C893.67 168.44 894.97 169.74 894.97 171.35V263.44C894.96 265.05 893.66 266.35 892.06 266.35Z" fill="white"/>
<path d="M866.7 187.9C863.88 179.16 852.68 178.24 851.33 178.16V178.15C851.33 178.15 851.28 178.15 851.26 178.15C851.24 178.15 851.19 178.15 851.19 178.15V178.16C849.84 178.24 838.65 179.15 835.82 187.9C832.81 197.21 833.87 230.58 833.87 230.58C833.87 230.58 847.43 229.9 847.32 214.36C847.23 201.52 849.49 192.85 851.26 190.22C853.03 192.85 855.1 201.83 855.01 214.67C854.9 230.22 868.65 230.59 868.65 230.59C868.65 230.59 869.71 197.21 866.7 187.9Z" fill="#1B212F"/>
<path d="M878.88 224.99C877.37 223.91 862.47 218.81 862.47 218.81L850.76 223.38L839.05 218.81C839.05 218.81 825.16 223.51 823.64 224.59C822.13 225.67 829.5 266.35 829.5 266.35H850.37H851.13H874.29C874.3 266.35 880.39 226.07 878.88 224.99Z" fill="#3C3C3B"/>
<path d="M855.28 209.21L851.09 208.08L846.82 209.6C846.82 209.6 846.77 215.49 842.79 219.56L851.08 223.69L859.38 219.56C855.88 215.88 855.28 209.21 855.28 209.21Z" fill="#E7B09B"/>
<path d="M865.63 196.6C865.31 193.57 863.1 194.06 862.38 194.3V188.77H851.28H840.18V194.3C839.46 194.06 837.25 193.57 836.93 196.6C836.58 199.91 839.04 201.4 840.18 201.9V202C840.18 208.32 847.17 215.48 851.28 215.48C856.05 215.48 862.38 208.32 862.38 202V201.9C863.52 201.4 865.97 199.91 865.63 196.6Z" fill="#F3C0A7"/>
<path d="M823.87 224.64C823.87 224.64 817.18 228.99 817.18 240.81L815.45 266.35H829.5L823.87 224.64Z" fill="#848585"/>
<path d="M878.63 224.64C878.63 224.64 885.32 228.99 885.32 240.81L887.05 266.35H874.3L878.63 224.64Z" fill="#848585"/>
<path d="M844.15 214.35L839.05 218.81C839.05 218.81 835.72 227.9 841.19 230.22C846.67 232.55 851.14 223.52 851.14 223.52L844.15 214.35Z" fill="#848585"/>
<path d="M858 214.01L863.15 218.81C863.15 218.81 866.48 227.9 861.01 230.23C855.53 232.56 851.06 223.53 851.06 223.53L858 214.01Z" fill="#848585"/>
<path d="M860.48 189.72C860.48 189.72 857.82 192.25 851.56 193.12C845.31 193.99 841.57 193.83 841.57 193.83C841.57 193.83 841.93 200.7 839.17 203.25C836.41 205.8 834.48 195.18 836.9 190.52C839.32 185.87 856.77 183.83 857.21 183.83C857.65 183.83 860.05 184.56 860.05 184.56C860.05 184.56 864.7 186.33 866.01 193.74C867.32 201.15 863.1 204.38 863.1 204.38C863.1 204.38 859.9 197.13 860.48 189.72Z" fill="#1B212F"/>
<path d="M905.74 202.78L908.09 207.53L913.33 208.3L909.53 211.99L910.43 217.22L905.74 214.75L901.05 217.22L901.95 211.99L898.15 208.3L903.4 207.53L905.74 202.78Z" fill="#9B9A9A"/>
<path d="M923.57 202.78L925.91 207.53L931.16 208.3L927.36 211.99L928.26 217.22L923.57 214.75L918.88 217.22L919.78 211.99L915.98 208.3L921.23 207.53L923.57 202.78Z" fill="#9B9A9A"/>
<path d="M941.4 202.78L943.74 207.53L948.99 208.3L945.19 211.99L946.09 217.22L941.4 214.75L936.71 217.22L937.61 211.99L933.81 208.3L939.05 207.53L941.4 202.78Z" fill="#9B9A9A"/>
<path d="M978.68 263.51H904.62C901.63 263.51 899.19 261.07 899.19 258.08V225.66C899.19 222.67 901.63 220.23 904.62 220.23H978.68C981.67 220.23 984.11 222.67 984.11 225.66V258.08C984.11 261.08 981.68 263.51 978.68 263.51ZM904.62 223.72C903.55 223.72 902.68 224.59 902.68 225.66V258.08C902.68 259.15 903.55 260.02 904.62 260.02H978.68C979.75 260.02 980.62 259.15 980.62 258.08V225.66C980.62 224.59 979.75 223.72 978.68 223.72H904.62Z" fill="#E7E7E8"/>
<path d="M974.42 232.79H908.56C908.26 232.79 908.02 232.55 908.02 232.25V231.11C908.02 230.81 908.26 230.57 908.56 230.57H974.42C974.72 230.57 974.96 230.81 974.96 231.11V232.25C974.95 232.55 974.71 232.79 974.42 232.79Z" fill="#E7E7E8"/>
<path d="M974.42 239.25H908.56C908.26 239.25 908.02 239.01 908.02 238.71V237.57C908.02 237.27 908.26 237.03 908.56 237.03H974.42C974.72 237.03 974.96 237.27 974.96 237.57V238.71C974.95 239.01 974.71 239.25 974.42 239.25Z" fill="#E7E7E8"/>
<path d="M974.42 245.72H908.56C908.26 245.72 908.02 245.48 908.02 245.18V244.04C908.02 243.74 908.26 243.5 908.56 243.5H974.42C974.72 243.5 974.96 243.74 974.96 244.04V245.18C974.95 245.48 974.71 245.72 974.42 245.72Z" fill="#E7E7E8"/>
<path d="M974.42 252.18H908.56C908.26 252.18 908.02 251.94 908.02 251.64V250.5C908.02 250.2 908.26 249.96 908.56 249.96H974.42C974.72 249.96 974.96 250.2 974.96 250.5V251.64C974.95 251.94 974.71 252.18 974.42 252.18Z" fill="#E7E7E8"/>
<path d="M957.357 183.648C959.411 174.986 954.054 166.298 945.391 164.245C936.729 162.191 928.042 167.548 925.988 176.21C923.934 184.873 929.291 193.56 937.954 195.614C946.616 197.668 955.303 192.311 957.357 183.648Z" fill="white"/>
<path d="M960.18 169.08L950.52 160.41L941.65 170.24L932.78 160.41L923.12 169.08L932.83 180L923.12 190.76L933.07 199.57L941.65 189.92L950.23 199.57L960.18 190.76L950.47 180L960.18 169.08Z" fill="#EB144C"/>
<path d="M483.88 750.13C483.72 750.13 483.57 750.12 483.41 750.09C481.99 749.83 481.04 748.47 481.3 747.05L510.49 586.81H534.57L567.04 745.91C567.33 747.33 566.42 748.71 565 749C563.58 749.29 562.2 748.37 561.91 746.96L530.3 592.05H514.86L486.45 747.99C486.23 749.25 485.12 750.13 483.88 750.13Z" fill="white" stroke="#020202" stroke-width="0.5" stroke-miterlimit="10"/>
<path d="M547.17 753.2C547.01 753.2 546.86 753.19 546.7 753.16C545.28 752.9 544.34 751.54 544.59 750.12L573.78 589.88H597.77L637.42 748.35C637.77 749.75 636.92 751.17 635.52 751.53C634.11 751.88 632.7 751.03 632.34 749.63L593.68 595.13H578.15L549.74 751.07C549.51 752.31 548.41 753.2 547.17 753.2Z" fill="white" stroke="#020202" stroke-width="0.5" stroke-miterlimit="10"/>
<path d="M524.06 747.89C517.22 748.19 507.18 748.9 502.38 748.76C497.58 748.62 493.51 748.62 493.22 746.58C493.05 745.34 494.46 739.56 495.59 735.18C496.36 732.28 497 730 497 730L505.87 733.05C505.87 733.05 508.47 735.46 513.43 737.85C513.83 738.04 514.29 738.27 514.77 738.53C520.31 741.4 530.32 747.61 524.06 747.89Z" fill="#F3C0A7"/>
<path d="M506.72 655.53C506.72 655.53 497.15 668.04 497.73 687.53C498.31 707.02 495.4 735.24 495.4 735.24H506.72C506.72 735.24 522.98 656.88 523.45 653.2C523.91 649.53 506.72 655.53 506.72 655.53Z" fill="#F3C0A7"/>
<path d="M531.18 627.02C531.18 627.02 537.64 627.53 541.61 638.62C545.58 649.71 519.84 736.49 519.84 736.49L510.96 728.11C510.96 728.11 509.35 694.36 515.47 674.73C521.59 655.1 522.02 655.38 522.02 655.38L531.18 627.02Z" fill="#F3C0A7"/>
<path d="M540.12 749.77C539.04 751.67 533.59 752.69 526.4 749.77C519.23 746.87 506.08 744.39 506.75 741.78C507.24 739.84 509.77 730.82 511.04 726.3C511.48 724.71 511.77 723.68 511.77 723.68C511.77 723.68 516.78 719.32 519.83 728.46C521.23 732.65 525.82 737.08 530.27 740.8C535.58 745.25 540.71 748.74 540.12 749.77Z" fill="#F3C0A7"/>
<path d="M575.9 583.67H517.43V588.09H575.9V583.67Z" fill="#585856"/>
<path d="M589.07 583.67H574.74V588.09H589.07V583.67Z" fill="#585856"/>
<path d="M464.42 586.87C464.42 586.87 494.82 590.33 515.47 588.09L515.08 580.78L465.05 568.91L464.42 586.87Z" fill="#F3C0A7"/>
<path d="M388.87 752.4C388.6 752.4 388.32 752.36 388.04 752.27C386.67 751.81 385.93 750.33 386.38 748.96L415.73 660.84H439.26L468.9 748.95C469.36 750.32 468.62 751.81 467.25 752.27C465.88 752.72 464.39 751.99 463.93 750.62L435.49 666.08H419.5L391.34 750.61C390.99 751.7 389.97 752.4 388.87 752.4Z" fill="white" stroke="#020202" stroke-width="0.5" stroke-miterlimit="10"/>
<path d="M615.25 588.09H476.6V595.91H615.25V588.09Z" fill="#585856"/>
<path d="M452.86 481.16C452.86 481.16 453.57 476.51 456.71 475.31C459.85 474.11 460.16 475.31 460.16 475.31C460.16 475.31 461.06 476.83 461.06 482.39C461.06 487.95 461.57 493.52 461.06 500.3C460.55 507.08 459.06 511.33 457.07 511.84C455.09 512.35 452.86 511.84 452.86 511.84L449.82 520.04L443.14 517.91L452.86 481.16Z" fill="#F3C0A7"/>
<path d="M474.72 519.37C474.72 519.37 481.2 537.12 483.72 555.46C486.24 573.8 492.72 586.77 496.5 587.99C500.28 589.21 505.74 579.07 498.45 558.72C494.71 548.27 484.85 516.28 484.85 516.28L474.72 519.37Z" fill="#F3C0A7"/>
<path d="M412.65 543.67C414.56 556.43 423.18 592.54 424.92 600.4V617.85H469.86L467.02 588.61L465.7 530.37L451.31 525.12L431.02 518.57C431.04 518.58 409.65 523.6 412.65 543.67Z" fill="#3C3C3B"/>
<path d="M427.87 513.68C427.87 513.68 445.65 517.39 448.92 519.57C452.19 521.75 452.19 526.01 452.19 526.01L425.14 520.45L427.87 513.68Z" fill="#3C3C3B"/>
<path d="M454.68 536.91C454.68 536.91 450.2 545.72 455.6 555.45C461.01 565.18 477.36 585.44 488.56 589.05C497.58 591.96 501.52 585.47 501.52 585.47C500.92 578.57 492.92 577.99 466.28 531.02C463.79 526.64 456.12 532.11 454.68 536.91Z" fill="#3C3C3B"/>
<path d="M424.93 613.9C424.93 613.9 415.98 637.49 429.51 655.38C443.04 673.27 522.02 655.38 522.02 655.38L531.18 627.02L469.49 613.9H424.93Z" fill="#EB144C"/>
<path d="M444.09 464.55C444.09 464.55 434.24 461.04 426.28 467.79C418.32 474.54 422.37 491.4 415.35 500.44C408.33 509.48 415.91 515.59 415.91 515.59C415.91 515.59 416.43 525.27 427.76 526.01C439.09 526.75 446.52 519.6 448.27 511.64C448.27 511.64 452.05 510.56 451.91 502.06C451.78 493.56 451.7 482.09 454.07 478.85C455.39 477.05 460.47 476.22 460.47 476.22C460.47 476.22 459.06 461.98 444.09 464.55Z" fill="#1D1E1C"/>
<path d="M477.72 509.04C474.84 506.64 473.55 505.35 472.51 504.79C471.47 504.23 469.55 502.95 468.1 503.27C467.04 503.51 466.67 502.7 465.81 502.32C465.81 502.32 464.73 501.1 462.73 501.74C462.73 501.74 459.42 504.95 458.95 507.51C458.48 510.07 461.87 507.32 463.02 505.45C463.05 505.49 463.08 505.53 463.11 505.57C462.3 506.61 461.45 507.92 461.24 509.1C460.83 511.33 463.51 509.29 464.78 507.59C466.1 509.17 467.49 510.91 467.2 511.61C466.7 512.81 465.38 513.61 462.58 512.73C459.78 511.85 457.45 512.57 460.18 514.05C462.9 515.53 465.87 517.46 469.15 518.02C472.44 518.58 475.44 520.04 475.44 520.04C475.44 520.04 485.2 517.12 484.85 516.3C484.5 515.47 480.6 511.44 477.72 509.04Z" fill="#F3C0A7"/>
<path d="M454.33 665.95H410.23L396.39 599.33C396.1 597.92 397.01 596.53 398.42 596.23C399.84 595.93 401.22 596.84 401.52 598.26L414.49 660.71H447.77L433.86 599.37C433.54 597.96 434.42 596.56 435.83 596.24C437.23 595.92 438.64 596.8 438.96 598.21L454.33 665.95Z" fill="white" stroke="#020202" stroke-width="0.5" stroke-miterlimit="10"/>
<path d="M382.38 596.04C390.23 608.69 409.65 597.2 417.29 598.8C424.93 600.4 443.53 606.95 449.61 596.47C455.69 586 441.98 564.5 419.04 561.13C385.44 556.18 374.53 583.38 382.38 596.04Z" fill="#585856"/>
<path d="M542.09 540.62L532.05 583.67H589.07L596.91 542.96L593.72 540.62H542.09Z" fill="#706F6E"/>
<path d="M544.41 543.46L536.09 581.1H583.38L589.88 543.46H544.41Z" fill="white"/>
<path d="M513.87 581.27C513.87 581.27 526.23 576.25 529.07 575.52C531.91 574.79 534.38 576.1 536.42 577.34C538.46 578.58 539.4 579.96 540.93 580.98C542.46 582 541.22 583.02 539.33 582.65C537.44 582.29 536.28 580.83 536.28 580.83L533.23 579.02C533.23 579.02 530.32 580.83 529.23 581.85C528.14 582.87 530.25 582.8 533.52 583.96C536.79 585.12 538.25 584.11 539.19 585.56C540.14 587.01 538.17 587.38 533.66 587.38C529.15 587.38 529.15 587.38 529.15 587.38C529.15 587.38 523.11 589.09 515.48 588.09L513.87 581.27Z" fill="#F3C0A7"/>
<path d="M585.14 583.67L593.72 540.62L596.91 542.96L589.07 583.67H585.14Z" fill="#585856"/>
<path d="M509.59 671.54H408.77C406.97 671.54 405.51 670.08 405.51 668.28V662.86C405.51 661.06 406.97 659.6 408.77 659.6H509.6C511.4 659.6 512.86 661.06 512.86 662.86V668.28C512.85 670.08 511.39 671.54 509.59 671.54Z" fill="#585856"/>
<path d="M540.12 749.77C539.04 751.67 533.59 752.69 526.4 749.77C519.23 746.87 506.08 744.39 506.75 741.78C507.24 739.84 509.77 730.82 511.04 726.3C511.77 726.47 512.77 727.03 513.94 728.46C516.56 731.64 518.3 737.33 523 739.39C526.07 740.73 528.78 740.87 530.28 740.8C535.58 745.25 540.71 748.74 540.12 749.77Z" fill="#3C3C3B"/>
<path d="M524.06 747.89C517.22 748.19 507.18 748.9 502.38 748.76C497.58 748.62 493.51 748.62 493.22 746.58C493.05 745.34 494.46 739.56 495.59 735.18C496.38 735.02 499.55 734.6 503.83 737.12C507.11 739.04 512.03 739.01 514.77 738.53C520.31 741.4 530.32 747.61 524.06 747.89Z" fill="#3C3C3B"/>
<path d="M711.18 467.53C711.18 467.53 710.74 462.51 717.51 458.58C724.27 454.65 727.55 453.78 737.58 451.82C747.62 449.86 761.58 451.6 761.58 451.6L779.47 462.51C779.47 462.51 778.82 491.09 774.02 509.85C769.22 528.61 774.33 555.08 774.33 555.08L716.42 560.25L711.18 467.53Z" fill="#EB144C"/>
<path d="M739.18 719.82C739.18 719.82 738.89 738.15 739.18 744.26C739.47 750.37 741.51 751.24 727.25 751.24C713 751.24 701.65 752.99 697 749.49C692.35 746 715.33 738.44 719.98 733.2C724.63 727.96 722.6 723.02 722.6 723.02L739.18 719.82Z" fill="#1B212F"/>
<path d="M768.27 723.02C768.27 723.02 769.43 732.77 768.27 735.75C767.11 738.73 760.42 741.42 757.22 742.88C754.02 744.33 751.69 746.59 753.44 748.33C755.19 750.08 785.02 750.66 786.98 749.49C788.93 748.33 782.82 723.02 782.82 723.02H768.27Z" fill="#1B212F"/>
<path d="M779.47 462.51C779.47 462.51 796.05 507.45 798.23 525.78C800.41 544.11 772.92 567.38 772.92 567.38L764.38 545.85L777.29 525.78L769 506.58L779.47 462.51Z" fill="#EB144C"/>
<path d="M738.32 399.31C738.32 399.31 747.82 399.05 754.23 402.9C760.65 406.75 762.06 411.75 762.06 411.75C762.06 411.75 763.98 414.06 764.37 418.94C764.76 423.82 754.36 439.21 754.36 439.21C754.36 439.21 742.37 439.39 737.84 436.67C733.31 433.95 726.64 413.51 726.64 413.51C726.64 413.51 722.92 410.73 722.02 406.62L725.65 405.98C725.65 405.98 720.74 403.67 722.02 399.95L738.32 399.31Z" fill="#1B212F"/>
<path d="M754.36 439.21C754.36 439.21 742.75 438.49 737.84 436.67C737.84 436.67 740.89 434.59 741.65 431C742.42 427.41 740.37 421.38 737.68 421.5C734.99 421.63 734.78 425.09 734.78 425.09L733.08 418.66C733.08 418.66 732.46 414.56 729.69 413.5C726.92 412.44 726.65 413.5 726.65 413.5C726.65 413.5 725.86 414.84 725.86 419.75C725.86 424.66 725.41 429.57 725.86 435.55C726.31 441.53 727.63 445.28 729.38 445.73C731.13 446.18 734.96 446.46 734.96 446.46L735.77 452.96L741.66 451.09C741.66 451.09 750.65 450.5 754.5 450.5L754.36 439.21Z" fill="#F3C0A7"/>
<path d="M715.52 461.2C715.52 461.2 722.5 471.89 717.48 487.6C714.89 495.7 704.31 504.61 694.65 511.34C685.16 517.96 672.23 516.55 664.38 508.05L640.46 482.15L650.71 471.24L677.33 491.64C677.34 491.64 712.25 459.89 715.52 461.2Z" fill="#EB144C"/>
<path d="M716.41 557.64V567.39C716.41 567.39 718.37 650.59 718.81 664.12C719.25 677.65 717.91 731.97 717.91 731.97H739.73C739.73 731.97 747.62 687.24 745.32 671.97C743.99 663.1 743.22 659.88 743.22 651.15C743.22 642.42 749.18 591.12 749.18 591.12C749.18 591.12 760.27 660.62 760.27 670.22C760.27 679.82 766.46 735.75 766.46 735.75H786.97C786.97 735.75 787.76 673.28 783.83 660.19C779.9 647.1 777.64 567.2 773.91 553.22L716.41 557.64Z" fill="#3C3C3B"/>
<path d="M649.67 472.35C649.67 472.35 641.97 462.84 640.46 460.44C638.95 458.04 630.34 450.51 628.15 450.29C625.97 450.07 630 456.4 632.62 458.36C632.62 458.36 628.47 459.89 629.02 462.61C629.02 462.61 625.64 463.7 626.18 466.43C626.18 466.43 624.11 469.31 625.2 472.34C626.29 475.37 628.47 477.01 629.56 477.23C630.65 477.45 631.85 477.23 631.85 477.23C631.85 477.23 634.39 479.74 637.27 479.85L640.45 482.14L649.67 472.35Z" fill="#F3C0A7"/>
<path d="M1006.01 753.55C1006.01 753.66 827.75 753.75 607.91 753.75C387.99 753.75 209.77 753.66 209.77 753.55C209.77 753.44 387.99 753.35 607.91 753.35C827.75 753.35 1006.01 753.44 1006.01 753.55Z" fill="#263339"/>
</svg>
