<?xml version="1.0" encoding="utf-8"?>
<!-- Generator: Adobe Illustrator 24.0.2, SVG Export Plug-In . SVG Version: 6.00 Build 0)  -->
<svg version="1.1" id="Layer_1" xmlns="http://www.w3.org/2000/svg" xmlns:xlink="http://www.w3.org/1999/xlink" x="0px" y="0px"
	 viewBox="0 0 641.51 458.49" style="enable-background:new 0 0 641.51 458.49;" xml:space="preserve">
<style type="text/css">
	.st0{fill:#F2F2F2;}
	.st1{fill:none;stroke:#706F6E;stroke-miterlimit:10;}
	.st2{fill:#706F6E;}
	.st3{fill:#351710;}
	.st4{fill:#D9372E;}
	.st5{fill:#BC8057;}
	.st6{fill:#F4A877;}
	.st7{fill:#FDFAFC;}
	.st8{fill:#EB144C;}
	.st9{opacity:0.15;}
	.st10{fill:#F7AD04;}
	.st11{fill:#B9C3E5;}
	.st12{fill:#585856;}
	.st13{fill:#F3F3F3;}
	.st14{fill:#575756;}
	.st15{opacity:0.95;fill:#D9D9D9;}
	.st16{fill:#BAC6F2;}
	.st17{fill:#BAC4E5;}
	.st18{fill:#6F6F6E;}
	.st19{fill:#EDA886;}
	.st20{fill:#1D1D1B;}
	.st21{fill:#F5F5F5;}
	.st22{fill:#C78C72;}
	.st23{fill:#EDA785;}
	.st24{fill:#16202E;}
	.st25{fill:#ECECEC;}
	.st26{fill:#633029;}
	.st27{fill:#E45453;}
	.st28{fill:#A67860;}
	.st29{fill:#E9ECF7;}
	.st30{fill:#3C3C3B;}
	.st31{fill:#22243B;}
	.st32{fill:#CEBDB5;}
	.st33{fill:#3A3F47;}
	.st34{fill:#24263D;}
	.st35{fill:#D34040;}
	.st36{fill:#EDD9D2;}
	.st37{fill:#191929;}
	.st38{fill:#E51B4D;}
	.st39{fill:url(#SVGID_1_);}
	.st40{fill:#29C6BE;}
	.st41{fill:#84F59A;}
	.st42{fill:#E6431E;}
	.st43{fill:#B92918;}
	.st44{opacity:0.58;fill:#00888C;}
	.st45{fill:#F9B410;}
	.st46{fill:#F6B48E;}
	.st47{fill:#0C0D1E;}
	.st48{fill:#EE8958;}
	.st49{fill:#FFFFFF;}
	.st50{fill:#0D0E1F;}
</style>
<path class="st13" d="M546.87,416.7c17.99-38.27,34.18-78.74,41.28-122.59c7.1-43.85,4.34-91.76-13.62-130.05
	c-17.95-38.3-52.76-64.61-87.01-58.37c-29.24,5.33-56.98,32.6-85.6,23.17c-29.57-9.74-43.76-53.22-68.68-76.01
	C289.26,12.6,220.24,41.98,192.88,97.54c-18.38,37.33-22.56,86.92-48.47,115.79c-19.6,21.83-48.64,27.79-64.79,53.94
	c-13.71,22.21-14.3,54.91-5.11,80.74c9.19,25.83,28.56,54.13,47.84,67.71L546.87,416.7z"/>
<rect x="139.2" y="413.17" class="st14" width="399.4" height="3.53"/>
<path class="st15" d="M393.2,224.2h104.52c9.26,0,16.77-7.51,16.77-16.77v-85.92c0-9.26-7.51-16.77-16.77-16.77H393.2
	c-9.26,0-16.77,7.51-16.77,16.77v85.92C376.42,216.69,383.93,224.2,393.2,224.2z"/>
<rect x="413.5" y="197" transform="matrix(-1 -3.895518e-11 3.895518e-11 -1 890.9208 396.7385)" class="st16" width="63.92" height="2.73"/>
<rect x="422.55" y="205.61" transform="matrix(-1 -3.874868e-11 3.874868e-11 -1 890.9208 413.9576)" class="st16" width="45.82" height="2.73"/>
<path class="st15" d="M187.7,353.93h143.05c12.68,0,22.96-10.28,22.96-22.96v-146c0-12.68-10.28-22.96-22.96-22.96H187.7
	c-12.68,0-22.96,10.28-22.96,22.96v146C164.74,343.65,175.02,353.93,187.7,353.93z"/>
<g>
	<rect x="253.04" y="259.39" class="st17" width="14.99" height="2.4"/>
</g>
<g>
	
		<rect x="237.72" y="292.39" transform="matrix(-1 -3.875357e-11 3.875357e-11 -1 562.6523 589.4379)" class="st16" width="87.21" height="4.65"/>
	
		<rect x="254.41" y="314.72" transform="matrix(-1 -3.889567e-11 3.889567e-11 -1 579.3399 634.0867)" class="st16" width="70.52" height="4.65"/>
	
		<rect x="283.59" y="303.56" transform="matrix(-1 -3.889345e-11 3.889345e-11 -1 608.5193 611.7621)" class="st16" width="41.34" height="4.65"/>
</g>
<g>
	<path class="st16" d="M196.21,181.16v15.33h2.71v-12.98h15.98v-2.35H196.21z M323.43,181.16h-18.7v2.35h15.98v12.98h2.71V181.16z
		 M196.21,263.45v15.33h18.7v-2.35h-15.98v-12.98H196.21z M320.72,276.43h-15.98v2.35h18.7v-15.33h-2.71V276.43z"/>
</g>
<path class="st15" d="M272.52,139.55h79.24c6.13,0,11.1-4.97,11.1-11.1V71.6c0-6.13-4.97-11.1-11.1-11.1h-79.24
	c-6.13,0-11.1,4.97-11.1,11.1v56.85C261.42,134.58,266.39,139.55,272.52,139.55z"/>
<g>
	<rect x="308.5" y="124.59" class="st16" width="8.05" height="1.29"/>
</g>
<g>
	<path class="st16" d="M277.99,74.8v8.23h1.46v-6.97h8.58V74.8H277.99z M346.29,74.8h-10.04v1.26h8.58v6.97h1.46V74.8z
		 M277.99,118.98v8.23h10.04v-1.26h-8.58v-6.97H277.99z M344.83,125.95h-8.58v1.26h10.04v-8.23h-1.46V125.95z"/>
</g>
<g>
	<rect x="440.09" y="183.65" class="st16" width="10.75" height="1.72"/>
</g>
<g>
	<path class="st16" d="M399.85,117.15v10.99h1.95v-9.31h11.46v-1.68H399.85z M491.07,117.15h-13.41v1.68h11.46v9.31h1.95V117.15z
		 M399.85,176.15v10.99h13.4v-1.68H401.8v-9.31H399.85z M489.12,185.46h-11.46v1.68h13.41v-10.99h-1.95V185.46z"/>
</g>
<g>
	<path class="st18" d="M202.16,253.79h17.93c1.18-7.43,2.63-15.9,2.63-15.9s0.72,7,1.61,15.9h71.74c0.65-8.01,1.44-14,1.73-14.13
		c0.41-0.18,2.97,6.93,5.09,14.13h19.42c-4.99-18.62-14.31-48.48-19.7-50.27c-7.67-2.55-38.93-10.89-38.93-10.89h-17.84
		c0,0-31.7,7.83-34.65,16.33C208.83,215.75,203.66,238.11,202.16,253.79z"/>
</g>
<g>
	<path class="st19" d="M253.93,142.55c0,0-16.66,2.27-14.12,24.82c2.54,22.55,17.24,20.7,18.22,20.68
		c0.98-0.02,14.76,0.41,15.83-27.12C273.87,160.93,274.34,140.57,253.93,142.55z"/>
</g>
<g>
	<path class="st19" d="M246.16,181.41c0,0,0.46,9.28-0.58,11.28c-1.04,2.01,13.75,8.46,22.77,1.27c0,0-2.18-10.08-1.57-13.65
		C267.37,176.74,246.16,181.41,246.16,181.41z"/>
</g>
<g>
	<path class="st19" d="M239.55,161c0,0-1.82-1.69-2.49,0.02c-0.67,1.71,2.83,9.33,2.6,9.68c0,0,0.33,0.66,0.77,0.3
		C240.87,170.63,239.55,161,239.55,161z"/>
</g>
<g>
	<path class="st19" d="M273.68,160.72c0,0,1.79-1.72,2.49-0.02c0.71,1.7-2.62,9.38-2.39,9.72c0,0-0.32,0.67-0.76,0.31
		C272.58,170.37,273.68,160.72,273.68,160.72z"/>
</g>
<g>
	<path class="st20" d="M239.56,164.46l2.39,2.76c0,0-0.07-6.05,0.32-7c0.38-0.95,0.97-3.85,1.29-4.53
		c0.32-0.68,14.31-4.07,26.66,0.99c0,0-0.54,4.35,0.64,4.74s0.6,7.08,0.6,7.08l1.96-1.91c0,0,3-17.35,2.26-19.16
		c-0.74-1.81-3.1-12.68-28.45-6.23c0,0-7.9-1.45-9.49,3.27C236.15,149.2,239.56,164.46,239.56,164.46z"/>
</g>
<g>
	<path class="st19" d="M245.57,192.7c0,0-3.76,0.69,11.97,13.74c0,0,11.16-10.68,10.79-12.47
		C267.98,192.18,245.57,192.7,245.57,192.7z"/>
</g>
<g>
	<polygon class="st21" points="257.54,206.43 253.25,212.78 240.52,194.08 246.03,190.75 	"/>
</g>
<g>
	<polygon class="st21" points="257.54,206.43 267.96,192.09 273.87,195.38 263.28,212.78 	"/>
</g>
<g>
	<path class="st21" d="M260.77,246.17c-0.13,2.11-0.18,4.71-0.19,7.62h0.59c0.01-2.9,0.06-5.49,0.19-7.6
		c0.97-15.91-3.49-35.27-3.52-39.81l-0.58,0.1C257.3,211.02,261.74,230.32,260.77,246.17z"/>
</g>
<path class="st22" d="M265.22,185.4c0,0-3.96,3.62-9.55,2.66c-5.59-0.97-8.07-3.18-8.07-3.18s2.21,4.79,8.67,5.23
	C262.73,190.54,265.22,185.4,265.22,185.4z"/>
<g>
	<g>
		<path class="st23" d="M458.14,117.74c-0.33-0.28,0.43-6.43,0.59-7.66l0-0.02l0.01-0.01c0.03-0.03,0.71-0.68,1.31-0.58
			c0.28,0.05,0.49,0.25,0.62,0.61c0.43,1.12-0.67,4.04-1.13,5.29c-0.08,0.22-0.14,0.37-0.17,0.46c-0.12,0.31-0.71,1.87-1.09,1.95
			c-0.01,0-0.03,0-0.04,0C458.21,117.78,458.17,117.77,458.14,117.74z M458.86,110.12c-0.35,2.8-0.83,7.3-0.62,7.54
			c0.01,0.01,0.01,0.01,0.02,0.01c0.22-0.05,0.71-1.12,0.99-1.87c0.03-0.09,0.09-0.24,0.17-0.46c0.42-1.13,1.55-4.13,1.13-5.22
			c-0.12-0.31-0.29-0.49-0.52-0.53c-0.04-0.01-0.07-0.01-0.11-0.01C459.46,109.58,458.95,110.03,458.86,110.12z"/>
	</g>
</g>
<g>
	<g>
		<path class="st24" d="M445.86,93.27c0,0-9.17-0.83-12.47,6.83c-3.3,7.66-6.42,10.17-6.81,14.2c-1.58,16.28-10.36,12.6-7.89,21.98
			c2.47,9.39,4.18,10.8,4.18,10.8l21.01-3.56l21.28,0.06c0,0-8.33-3.6-6.47-11.26c1.85-7.66,6.47-20.22,3.86-28.78
			C459.95,95,451.34,93.93,445.86,93.27z"/>
	</g>
</g>
<g>
	<g>
		<path class="st23" d="M434.62,117.78c-0.38-0.08-0.97-1.64-1.09-1.95c-0.03-0.08-0.09-0.24-0.17-0.46
			c-0.47-1.25-1.56-4.17-1.13-5.29c0.13-0.35,0.34-0.56,0.62-0.61c0.6-0.11,1.28,0.55,1.31,0.58l0.01,0.01l0,0.02
			c0.16,1.23,0.91,7.38,0.59,7.66c-0.03,0.03-0.07,0.04-0.11,0.04C434.65,117.78,434.64,117.78,434.62,117.78z M432.89,109.59
			c-0.23,0.04-0.4,0.22-0.52,0.53c-0.41,1.08,0.71,4.09,1.13,5.22c0.08,0.22,0.14,0.38,0.17,0.46c0.28,0.75,0.77,1.82,0.99,1.87
			c0.01,0,0.01,0,0.02-0.01c0.21-0.25-0.27-4.75-0.62-7.54C433.95,110.02,433.37,109.5,432.89,109.59z"/>
	</g>
</g>
<g>
	<g>
		<path class="st25" d="M402.74,166.48h13.09c2.71-4.28,4.92-7.63,4.92-7.63s1.76,2.79,3.13,7.63h44.07
			c0.67-3.02,0.71-5.92,0.57-7.98c0,0,2.36,3.68,5.09,7.98h14.81c-3.93-6.37-11.29-17.96-12.96-19.47
			c-2.1-1.9-14.28-9.19-22.97-11.56c-8.7-2.38-13.64-0.08-13.64-0.08s-8.93,1.39-17.19,4.23
			C418.41,140.71,409.45,155.04,402.74,166.48z"/>
	</g>
</g>
<g>
	<g>
		<path class="st19" d="M444.65,97.76c0,0-12.15,1.52-10.37,17.03c1.78,15.51,12.5,14.28,13.21,14.27
			c0.72-0.01,10.75,0.32,11.62-18.61C459.12,110.45,459.53,96.45,444.65,97.76z"/>
	</g>
</g>
<g>
	<g>
		<path class="st19" d="M439.26,126.3c0,0,0.75,8.07-1.04,10.49c-1.8,2.42,1.54,5.7,8.4,4.58c6.87-1.12,6.47-4.49,6.47-4.49
			s-1.92-4.98-1.36-8.97C452.28,123.92,439.26,126.3,439.26,126.3z"/>
	</g>
</g>
<g>
	<g>
		<path class="st24" d="M446.04,103.38c0,0-5.67,5.16-8.31,7.78c-2.64,2.61-2.94,7.66-2.94,7.66s-4.44-4.69-2.58-10.16
			c1.86-5.46,6.25-16.1,17.37-12.83c11.12,3.27,11.53,17.64,10.23,24.77C459.81,120.6,454.82,104.86,446.04,103.38z"/>
	</g>
</g>
<g>
	<g>
		<path class="st19" d="M434.99,136.08c0,0,8.42,18.46,13.54,21.67c0,0,6.72-18.83,6.25-21.58
			C454.79,136.16,444.65,132.72,434.99,136.08z"/>
	</g>
</g>
<g>
	<path class="st24" d="M452.79,131.61c0,0,15.01,11.56,11.12,18.77c-3.33,6.15-15.12,2.38-13.17-4.07
		C452.68,139.87,452.79,131.61,452.79,131.61z"/>
</g>
<g>
	<path class="st26" d="M450.83,128.35c0,0-5.17,2.12-10.21-1.01c0,0,1.4,2.5,5.11,2.86C449.43,130.55,450.83,128.35,450.83,128.35z"
		/>
</g>
<g>
	<path class="st14" d="M317.56,85.65c0,0,4.98,16.22,6.02,19.87c0.31,1.1,1.31,3,2.57,5.17c0.01,0.02,0.02,0.03,0.03,0.05
		c0.27,0.48,0.4,0.91,0.47,1.32c0.2,1.35-0.4,2.42,0.64,4.02l0.19,0.67h9.86c-1.15-2.96-2.61-6.72-3.78-9.75
		c-0.98-2.56-1.76-4.59-1.96-5.18c-0.61-1.76-2.84-7.45-4.74-11.24c-0.66-1.32-3.22-2.62-5.48-3.56
		C319.35,86.2,317.56,85.65,317.56,85.65z"/>
</g>
<g>
	<path class="st20" d="M324.16,62.49c0,0,3.14-17.59-13.69-17.26c-16.83,0.32-16.61,9.02-16.31,17.65s6.75,7.98-0.53,19.99
		c-7.28,12.01,6.3,12.01,6.3,12.01l10.53-12.52L324.16,62.49z"/>
</g>
<g>
	<path class="st23" d="M312.31,46.92c0,0,11.4,1.56,11.85,15.57c0.45,14.02-3.07,17-13.05,14.08c-9.98-2.92-13.13-17.59-13.35-19.86
		C297.53,54.44,296.93,45.23,312.31,46.92z"/>
</g>
<g>
	<path class="st8" d="M292.28,95.67c-0.04,4.82,6.37,16.36,7.36,19.93c0.12,0.41,0.24,0.8,0.37,1.16h31.11
		c0.16-1.66,0.31-3.08,0.39-3.89c0.25-2.63,3.33-8.31,3.23-10.95c-0.11-2.69-1.63-5.02-3.77-7.89c-0.66-0.89-1.36-1.8-2.06-2.68
		c-2.27-2.88-4.53-5.49-5.64-6.39c-0.83-0.67-1.6-1.18-2.27-1.57c0,0,0,0,0,0c-1.4-0.81-2.34-1.07-2.34-1.07l-9.8-1.36
		c0,0-6.11,1.91-9.62,2.62C299.24,83.59,292.39,84.46,292.28,95.67z"/>
</g>
<g>
	<path class="st27" d="M321,83.39l5.68,7.74l5.24,7.15c-0.01-0.04-0.36-1.12-0.95-4.26c-0.11-0.59-0.23-1.26-0.36-2.01
		c-0.04-0.22-0.09-0.44-0.16-0.66c0,0,0,0,0,0C328.2,86.88,321.26,83.5,321,83.39C321,83.39,321,83.39,321,83.39z"/>
</g>
<g>
	<path class="st23" d="M304.69,70.26c0.99,1.61,2.03,11.64,2.03,11.64s13.94,4.56,12.52,1.98c-0.65-1.17-0.84-2.69-0.85-4
		c-0.01-1.03,0.09-1.93,0.15-2.43c0.04-0.26,0.06-0.42,0.06-0.42S303.7,68.64,304.69,70.26z"/>
</g>
<g>
	<path class="st20" d="M316.96,56.97c0,0-5.85,8.24-11.18,11.49c-5.33,3.24-2.63,5.84-2.63,5.84s-13.89-25.31-0.68-27.06
		c13.21-1.75,21.31-1.88,21.69,15.25C324.16,62.49,318.16,56.84,316.96,56.97z"/>
</g>
<g>
	<path class="st28" d="M310.59,76.41c2.14,2.73,7.8,3.47,7.8,3.47s0,0,0,0c-0.01-1.03,0.09-1.93,0.15-2.43
		C314.91,78.05,310.59,76.41,310.59,76.41z"/>
</g>
<path class="st29" d="M330.42,91.3L330.42,91.3c0,0,0.3,0.54,0.55,2.73l-2.05-2.68c0,0-3.67-4.55-4.92-5.73
	c-1.26-1.18-2.98-2.22-2.98-2.22S328.22,86.39,330.42,91.3z"/>
<path class="st27" d="M302.67,98.09c0,0-8.95-3.04-11.6-3.21c0,0,1.8-12.43,10.59-11.12C310.45,85.07,302.67,98.09,302.67,98.09z"/>
<path class="st23" d="M318.66,82.32c0,0,6.57,8.74,4.35,9.51c-2.22,0.76-14.26-1.02-19.38-9.32
	C303.63,82.51,311.28,79.11,318.66,82.32z"/>
<path class="st14" d="M291.07,94.87c0.46,6.85,2.7,13.36,4.56,19.32c0.27,0.86,0.53,1.72,0.77,2.56h18.22
	c0.04-2.36,0.04-4.45-0.05-6.19c-0.92-19.02-7.89-29.03-7.89-29.03s-2.23,0.65-8.63,2.22c-4.39,1.07-6.05,5.9-6.65,8.83
	c0,0,0,0.01-0.01,0.03C291.13,93.95,291.07,94.87,291.07,94.87z"/>
<path class="st14" d="M318.67,82.33c0.07,0.11,1.27,1.85,2.71,4.7c2.16,4.28,4.85,11.06,5.08,18.53c0.07,2.4,0.62,6.28,1.46,11.19
	h3.64c0.37-4.11,1.24-7.39,2-9.75c0.5-1.53,0.95-2.67,1.2-3.4c1.16-3.41-2.55-7.96-3.79-9.59C329.72,92.4,326.75,84.93,318.67,82.33
	z"/>
<path class="st14" d="M285.27,116.76h9.78c0-0.55,0.22-1.45,0.58-2.56c1.78-5.47,7.04-16.11,7.04-16.11s7.87-11.13,0.41-13.97
	c-7.46-2.84-10.67,5.09-11.67,8.47c0,0,0,0.01-0.01,0.03C291.15,93.44,286.71,108.09,285.27,116.76z"/>
<g>
	<path class="st23" d="M346.67,221.31c0,0,0.17-1.79-0.08-2.63c-0.42-1.44,0.2-3.78-1.9-4.92s-8.13,3.62-8.61,4.94
		c-0.47,1.33,1.78,3.59,6.5,5.49S346.67,221.31,346.67,221.31z"/>
</g>
<g>
	<path class="st23" d="M345.34,214.23c0,0-2.04-2.65-4.73-5.36c-2.36-2.38-5.67-5.04-6.37-4.54c-1.06,0.77,1.94,2.69,4.1,5.18
		c1.98,2.3,1.14,2.13,1.14,2.13s0.24,0.04-2.49-2.1c-2.94-2.3-6.2-4.66-6.78-4.25c-0.72,0.5-0.76,0.62,0.14,1.6
		c-0.66-0.47-0.91-0.38-1.16-0.16c-1.32,1.15,2.38,5.11,3.84,6.68c-1.14-1.2-2.12-1.98-2.41-0.82c-0.32,1.32,5.2,6.71,6.96,8.81
		C339.51,223.69,345.34,214.23,345.34,214.23z"/>
</g>
<g>
	<g>
		<g>
			<g>
				<path class="st30" d="M415.92,404.71c0,0-5.74,2.94-8.34,4.03c-2.6,1.09-12.7,1.4-13.7,2.23c-1,0.82-0.63,3.43,1.04,3.7
					c1.67,0.27,13.95,1.23,18.05,0.4c4.1-0.83,11.76,0.57,13.46,0.07c1.7-0.5,0.6-8.41-0.05-10.19
					C425.72,403.17,415.92,404.71,415.92,404.71z"/>
			</g>
		</g>
	</g>
</g>
<g>
	<g>
		<g>
			<g>
				<path class="st31" d="M415.44,401.48l0.48,3.24c0,0,7.68,1.24,10,0.22l-0.58-3.36L415.44,401.48z"/>
			</g>
		</g>
	</g>
</g>
<g>
	<path class="st14" d="M384.64,290.94c0.08,2.24,0.55,7.1,1.1,12.21c0.12,1.13,0.25,2.28,0.38,3.41c0.77,6.87,1.54,13.23,1.54,13.23
		c0.97,5.47,2.97,14.97,5.21,22.15v0c0.65,2.07,1.31,3.95,1.97,5.48c0.65,1.49,1.3,2.66,1.93,3.36
		c4.76,5.26,15.67,51.87,15.67,51.87l14.89-0.1c0,0-3.27-31.57-6.57-39.57c-3.67-8.94-10.05-20.98-8.47-29.6
		c0.99-5.41,2.27-22.62,2.27-22.62s1.24-19.34-4.6-33.51C408.5,273.71,384.64,290.94,384.64,290.94z"/>
</g>
<g>
	<g>
		<g>
			<g>
				<path class="st30" d="M374.08,405.92c0,0-5.7,3-8.29,4.12c-2.58,1.12-12.68,1.54-13.67,2.37c-0.99,0.83-0.58,3.44,1.09,3.69
					c1.68,0.25,13.97,1.08,18.05,0.21c4.09-0.87,11.77,0.44,13.46-0.07c1.69-0.52,0.49-8.42-0.19-10.19
					C383.85,404.28,374.08,405.92,374.08,405.92z"/>
			</g>
		</g>
	</g>
</g>
<g>
	<g>
		<g>
			<g>
				<path class="st31" d="M373.55,402.69l0.52,3.23c0,0,7.69,1.16,10.01,0.12l-0.62-3.36L373.55,402.69z"/>
			</g>
		</g>
	</g>
</g>
<g>
	<path class="st14" d="M391.35,356.47c0.39-10.31,1.44-17.16,4.51-23.12c2.58-5,4.78-20.71,4.78-20.71s6.98-18.41,5.56-33.4
		c-0.35-3.75-27.33,5.67-27.33,5.67c-0.59,2.18-2.39,9.06-3.03,14.15c-3.65,29.12-2.29,48.09-2.29,48.09
		c2.09,6.43-3.18,57.02-3.18,57.02h15.18c0,0,3.98-18,4.4-29.19C389.95,374.98,391.5,358.25,391.35,356.47z"/>
</g>
<g>
	<g>
		<path class="st32" d="M391.69,223.06c0,0-7.07,10.03-9.14,15.63c-2.07,5.6-0.4,21.88-0.77,25.15
			c-1.13,10.15-2.78,21.33-2.78,21.33l23.71,13.11c0,0,4.26-8.6,7.97-19.31c3.71-10.71,4.01-20.35,3.98-26.8
			c-0.11-20.21-12.74-31.62-12.74-31.62L391.69,223.06z"/>
	</g>
</g>
<g>
	<g>
		<path class="st23" d="M382.98,196.14c0,0-4.86,4.5-3.49,5.69c1.13,0.98-3.34,5.47-3.97,6.22c-0.64,0.75,1.99,2,2.42,2.68
			c0.43,0.68,0.18,7.74,2.43,8.46c2.25,0.73,13.61-0.04,17.22-1.95c3.61-1.91,9.43-12.9,9.02-18.19
			C406.18,193.76,391.53,188.29,382.98,196.14z"/>
	</g>
</g>
<g>
	<g>
		<path class="st23" d="M387.57,217.67c0,0,0.08,0.6,0.19,1.53c0.04,0.39,0.1,0.83,0.15,1.32c0.03,0.29,0.06,0.59,0.09,0.91
			c0.01,0.08,0.02,0.17,0.03,0.25c0.01,0.14,0.03,0.29,0.04,0.44c0.06,0.68,0.11,1.38,0.15,2.08c0.1,1.79,0.12,3.51-0.1,4.46
			c-0.6,2.62,12.43-8.42,12.43-8.42s-1.1-8.56-0.57-18.19C400.52,192.42,387.57,217.67,387.57,217.67z"/>
	</g>
</g>
<g>
	<g>
		<path class="st33" d="M381.98,197.13c0,0-2.3-4.7,4.79-7.95c8.35-3.84,17.21,5.8,18.38,6.36c1.17,0.57,6.51,5.77,1.29,12.66
			c-6.59,8.7-6.25,8.4-6.25,8.4s-0.66-6.41-0.62-7.65c0.08-2.26-6.78-2.53-6.78-2.53s2.82-3.24-0.31-4.7
			C389.35,200.27,385.69,196.81,381.98,197.13z"/>
	</g>
</g>
<g>
	<g>
		<path class="st23" d="M396.4,205.6c0.5-0.61,2.33-3.29,4.69-0.93c2.36,2.35-3.96,6.75-4.48,6.71
			C396.08,211.33,392.2,210.71,396.4,205.6z"/>
	</g>
</g>
<g>
	<path class="st34" d="M377.7,289.49c0,0,1.18-4.8,1.41-5.52l34.68,4.99l-0.36,3.88C413.44,292.84,388.45,291.55,377.7,289.49z"/>
</g>
<g>
	<path class="st8" d="M416.88,268.34c0,0-5.33,19.91,3.02,43.13c1.02,2.84-23.1-0.44-23.1-0.44L416.88,268.34z"/>
</g>
<g>
	<g>
		<path class="st8" d="M386.25,309.58c0,0,17.13,3.25,21.94,1.78c0,0,7-22.03,9.44-44.4c0.19-1.73,0.35-3.46,0.48-5.18c0,0,0,0,0,0
			c1.36-18.19-3.99-36.65-16.18-41.24c-0.34,0.2-17.52,13.3-17.19,25.3c0.02,0.81,0.04,1.63,0.04,2.44c0.01,1.47,0,2.95-0.04,4.43
			l0,0c-0.11,4.56-0.44,9.11-0.9,13.53c-0.05,0.46-0.1,0.92-0.15,1.38c-0.08,0.74-0.17,1.48-0.26,2.21
			c-0.12,0.98-0.25,1.94-0.38,2.9C380.26,292.75,386.25,309.58,386.25,309.58z"/>
	</g>
</g>
<g>
	<path class="st8" d="M386.95,231.82c0,0-3.23,11.05-4.46,24.96c-1.03,11.64-2.4,19.86-2.4,19.86l-2.06,5.76l-0.85-5.55
		c0,0,0.76-15.02,1.76-21.12c1.02-6.16,1.46-13.98,7.15-24.12L386.95,231.82z"/>
</g>
<g>
	<path class="st35" d="M387.31,231.83c0,0-0.39,0.32-0.94,0.39c-0.55,0.07-1.34-0.69,1.48-3.9L387.31,231.83z"/>
</g>
<g>
	<g>
		<path class="st36" d="M400.4,218.88c0,0-7.98,6.5-12.72,7.93l-0.91,6.23l15.15-12.5L400.4,218.88z"/>
	</g>
</g>
<g>
	<path class="st8" d="M395.05,244.04c3.14-0.97,16.21-6.45,12.73-12.86c-3.47-6.41-12.43-3-19.18-0.39
		c-7.06,2.73-23.71,11.11-25.03,10.32c-1.32-0.78-7.08-7.91-8.12-9.5c-1.04-1.59-7.33-11.75-7.92-12.52
		c-0.58-0.75-9.71,5.89-9.71,5.89s16.4,25.2,20.81,29.22C363.05,258.21,395.05,244.04,395.05,244.04z"/>
</g>
<g>
	<path class="st37" d="M392.87,341.93L392.87,341.93c0.65,2.07,1.31,3.95,1.97,5.49c0,0,0,0,0,0l5.19-26.8
		C398.73,323.16,392.87,341.93,392.87,341.93z"/>
</g>
<g>
	<path class="st38" d="M384.73,252.7l15.03-10.62c-3.98,1.85-13.76,5.71-14.99,6.19C384.78,249.75,384.77,251.23,384.73,252.7z"/>
</g>
<g>
	<path class="st28" d="M387.77,219.2c0.04,0.39,0.1,0.83,0.15,1.32c0.03,0.29,0.06,0.59,0.09,0.91c4.98-0.29,8.83-3.72,9.06-3.93
		C395.04,218.89,387.77,219.2,387.77,219.2z"/>
</g>
</svg>
