<?xml version="1.0" encoding="utf-8"?>
<!-- Generator: Adobe Illustrator 24.0.2, SVG Export Plug-In . SVG Version: 6.00 Build 0)  -->
<svg version="1.1" id="Layer_1" xmlns="http://www.w3.org/2000/svg" xmlns:xlink="http://www.w3.org/1999/xlink" x="0px" y="0px"
	 viewBox="0 0 641.51 458.49" style="enable-background:new 0 0 641.51 458.49;" xml:space="preserve">
<style type="text/css">
	.st0{fill:#F2F2F2;}
	.st1{fill:none;stroke:#706F6E;stroke-miterlimit:10;}
	.st2{fill:#706F6E;}
	.st3{fill:#351710;}
	.st4{fill:#D9372E;}
	.st5{fill:#BC8057;}
	.st6{fill:#F4A877;}
	.st7{fill:#FDFAFC;}
	.st8{fill:#EB144C;}
	.st9{opacity:0.15;}
	.st10{fill:#F7AD04;}
	.st11{fill:#B9C3E5;}
	.st12{fill:#585856;}
	.st13{fill:#F3F3F3;}
	.st14{fill:#575756;}
	.st15{opacity:0.95;fill:#D9D9D9;}
	.st16{fill:#BAC6F2;}
	.st17{fill:#BAC4E5;}
	.st18{fill:#6F6F6E;}
	.st19{fill:#EDA886;}
	.st20{fill:#1D1D1B;}
	.st21{fill:#F5F5F5;}
	.st22{fill:#C78C72;}
	.st23{fill:#EDA785;}
	.st24{fill:#16202E;}
	.st25{fill:#ECECEC;}
	.st26{fill:#633029;}
	.st27{fill:#E45453;}
	.st28{fill:#A67860;}
	.st29{fill:#E9ECF7;}
	.st30{fill:#3C3C3B;}
	.st31{fill:#22243B;}
	.st32{fill:#CEBDB5;}
	.st33{fill:#3A3F47;}
	.st34{fill:#24263D;}
	.st35{fill:#D34040;}
	.st36{fill:#EDD9D2;}
	.st37{fill:#191929;}
	.st38{fill:#E51B4D;}
	.st39{fill:url(#SVGID_1_);}
	.st40{fill:#29C6BE;}
	.st41{fill:#84F59A;}
	.st42{fill:#E6431E;}
	.st43{fill:#B92918;}
	.st44{opacity:0.58;fill:#00888C;}
	.st45{fill:#F9B410;}
	.st46{fill:#F6B48E;}
	.st47{fill:#0C0D1E;}
	.st48{fill:#EE8958;}
	.st49{fill:#FFFFFF;}
	.st50{fill:#0D0E1F;}
</style>
<path class="st13" d="M555.64,429.92c19.19-40.78,36.46-83.93,44.03-130.66c7.57-46.73,4.63-97.8-14.52-138.61
	c-19.15-40.82-56.28-68.86-92.82-62.21c-31.19,5.68-60.78,34.74-91.31,24.7c-31.54-10.38-46.67-56.72-73.26-81.01
	C280.84-0.76,207.21,30.55,178.03,89.76c-19.6,39.78-24.07,92.64-51.71,123.41c-20.9,23.27-51.89,29.62-69.11,57.49
	c-14.63,23.67-15.25,58.53-5.45,86.05c9.8,27.53,30.46,57.69,51.04,72.17L555.64,429.92z"/>
<g>
	<linearGradient id="SVGID_1_" gradientUnits="userSpaceOnUse" x1="139.326" y1="363.7884" x2="315.166" y2="363.7884">
		<stop  offset="0" style="stop-color:#F3F3F3"/>
		<stop  offset="1" style="stop-color:#BAC4E5"/>
	</linearGradient>
	<path class="st39" d="M315.11,426.29c0.04-0.33,0.06-0.67,0.06-1.01c0-5.1-4.13-9.23-9.23-9.23c-3.02,0-5.69,1.45-7.37,3.69
		c-0.43-0.61-0.91-1.2-1.46-1.75c-4.21-4.21-10.55-4.98-15.54-2.31c0.26-1.32,0.4-2.68,0.4-4.08c0-11.44-9.28-20.72-20.72-20.72
		c-0.11,0-0.23,0.01-0.34,0.01c2.2-0.99,3.73-3.2,3.73-5.77c0-3.5-2.84-6.33-6.33-6.33c-3.5,0-6.33,2.84-6.33,6.33
		c0,3.05,2.16,5.6,5.03,6.2c-5.99,1.25-11.02,5.08-13.89,10.28c-0.3-0.17-0.62-0.33-0.93-0.48c0.28-1.01,0.44-2.06,0.44-3.16
		c0-3.43-1.47-6.51-3.8-8.67c8.68-3.47,14.82-11.95,14.82-21.88c0-3.07-0.59-6-1.67-8.69l0,0c-1.83-10.62,1.45-19.94,10.84-32.41
		c14.09-18.72,19.17-25.01,19.17-25.01s-14.61,15.64-26.66,25.01c-12.05,9.37-23.09,10.34-23.09,10.34l0,0
		c-4.38,0.52-8.1,3.18-10.09,6.91c-2.24-4.29-6.72-7.22-11.9-7.22c-5.06,0-9.46,2.8-11.75,6.93c-1.18-0.74-2.57-1.17-4.07-1.17
		c-3.69,0-6.77,2.61-7.5,6.08c-0.28,0.02-0.55,0.04-0.83,0.06c0-0.05,0.01-0.09,0.01-0.14c0-7.3-5.92-13.22-13.22-13.22
		c-2.63,0-5.07,0.78-7.12,2.1c-0.69-4.7-3.25-8.79-6.91-11.49c2.09-2.34,3.38-5.42,3.38-8.8c0-7.3-5.92-13.22-13.22-13.22
		c-3.74,0-7.11,1.56-9.51,4.05l-0.15,118.78H315.11z"/>
</g>
<g>
	<path class="st40" d="M300.06,268.77l7.45,8.92l10.06,5.66c2.1,1.18,2.79,3.86,1.48,5.74l-22.57,32.54c0,0-9.69-9.94-13.82-13.38
		c-4.13-3.44-16.2-11.6-16.2-11.6l27.79-28.29C295.82,266.76,298.53,266.95,300.06,268.77z"/>
	<path class="st40" d="M338.22,240.57c-1.09,20.23-18.62,47.27-18.62,47.27l0,0c-9.77-4.37-18.2-11.39-24.28-20.21l0,0
		C295.32,267.63,319.47,244.79,338.22,240.57z"/>
</g>
<path class="st41" d="M319.6,287.84c0,0,4.33-6.22-2.13,3.51c-17.57,26.47-21,30.28-21,30.28s-6.75-8.11-13.82-13.38
	c0,0,9.09-10.74,22.2-26.24c0.6-0.71,1.19-1.43,1.79-2.17C310.59,283.06,314.94,285.75,319.6,287.84z"/>
<path class="st41" d="M306.64,279.86c12.43-15.35,24.21-36.37,25.16-37.23c2.18-0.87,4.34-1.58,6.42-2.05
	c-0.01,0.17-0.03,0.34-0.04,0.52c-0.2,2.16-1.3,11.08-6.73,24.27c-5.33,12.43-11.85,22.48-11.85,22.48
	C314.94,285.75,310.59,283.06,306.64,279.86z"/>
<path class="st20" d="M266.46,296.66c-0.67,0.81,5.5,7.06,13.79,13.96c8.29,6.9,15.55,11.83,16.23,11.02
	c0.67-0.81-5.5-7.06-13.79-13.96S267.13,295.85,266.46,296.66z"/>
<rect x="345.99" y="183.08" transform="matrix(-0.7658 -0.643 0.643 -0.7658 502.9296 607.7866)" class="st42" width="32.27" height="58.48"/>
<path class="st43" d="M362.83,218.73c0,0,1.28-1.6,0.6-2.89c-0.68-1.29-12.35-11.64-12.35-11.64s14.33,8.98,17.43,11.66
	c3.1,2.68,5.35,7.85,5.35,7.85l-2.24,2.4L362.83,218.73z"/>
<polygon class="st16" points="342.12,192.61 380.65,224.64 384.9,228.75 416.84,190.7 373.96,154.69 "/>
<rect x="320.71" y="207.57" transform="matrix(-0.7658 -0.643 0.643 -0.7658 438.924 644.6996)" class="st16" width="32.27" height="69.73"/>
<path class="st16" d="M412.65,119.48l14.53,17.02l19.16,11.3c4,2.36,5.48,7.32,3.18,10.65l-39.8,57.51c0,0-18.78-19.1-26.73-25.77
	c-7.94-6.67-31.04-22.74-31.04-22.74l49.84-49.23C404.61,115.42,409.68,116.01,412.65,119.48z"/>
<path class="st8" d="M481.61,76.34c-3.01,36.12-31.14,79.86-31.14,79.86l0,0c-18.63-8.95-34.7-22.44-46.74-39.24l0,0
	c0,0,39.54-36.04,73.29-44.56C479.5,71.78,481.82,73.8,481.61,76.34z"/>
<path class="st40" d="M409.71,215.95l-10.8-3.9c0,0-9.79-10.01-19.81-18.3c-13.16-10.89-23.07-17.72-23.07-17.72l-4.1-8.58
	l2.42,1.43C375.37,181.29,394.09,197.22,409.71,215.95L409.71,215.95z"/>
<path class="st40" d="M373.86,223.71c0,0-4-4.63-11.23-10.61c-9.49-7.86-13.56-10.22-13.56-10.22l-2.7-6.69
	c12.82,7.86,24.46,17.52,34.54,28.66L373.86,223.71z"/>
<ellipse transform="matrix(0.9978 -0.067 0.067 0.9978 -9.9564 27.4753)" class="st8" cx="404.7" cy="162.2" rx="22.21" ry="22.21"/>
<g>
	<path class="st17" d="M346.43,205.93l24.71,20.75c0.31,0.26,0.78,0.22,1.04-0.09c0.26-0.31,0.22-0.78-0.09-1.04l-24.71-20.75
		c-0.31-0.26-0.78-0.22-1.04,0.09C346.08,205.2,346.12,205.66,346.43,205.93z"/>
</g>
<rect x="315.79" y="214.08" transform="matrix(-0.7658 -0.643 0.643 -0.7658 434.9324 647.0012)" class="st16" width="38.96" height="60.45"/>
<path class="st20" d="M298.6,258.9c-0.67,0.81,5.5,7.06,13.79,13.96c8.29,6.9,15.55,11.83,16.23,11.02
	c0.67-0.81-5.5-7.06-13.79-13.96C306.54,263.02,299.28,258.09,298.6,258.9z"/>
<path class="st16" d="M316.72,288.75l7.49,8.06l9.76,4.55c2.04,0.95,2.83,3.53,1.71,5.54l-19.42,34.74c0,0-9.65-8.84-13.72-11.81
	c-4.07-2.97-15.86-9.8-15.86-9.8l24.56-31.07C312.63,287.2,315.19,287.1,316.72,288.75z"/>
<path class="st8" d="M351.04,256.66c0.09,20.21-14.9,48.94-14.9,48.94l0,0c-9.42-3.3-17.73-9.37-23.94-17.48v0
	C312.21,288.12,333.65,262.85,351.04,256.66z"/>
<path class="st16" d="M279.94,253.26l6.05,8.75l9.04,5.83c1.88,1.22,2.2,3.77,0.67,5.46l-26.43,29.4c0,0-8.1-9.83-11.66-13.27
	c-3.56-3.44-14.22-11.72-14.22-11.72l30.94-25.14C276.09,251.16,278.71,251.47,279.94,253.26z"/>
<path class="st8" d="M320.99,228.73c-3.81,18.94-24.58,43.43-24.58,43.43l0,0c-8.93-4.6-16.2-11.62-20.94-20.21l0,0
	C275.48,251.95,302.14,231.73,320.99,228.73z"/>
<path class="st44" d="M396.7,290.52c0-0.17,0.01-0.35,0.01-0.52C396.71,290.01,396.71,290.19,396.7,290.52z"/>
<path class="st8" d="M243.34,277.9c-0.76,0.73,4.38,6.89,11.48,13.75c7.1,6.86,13.48,11.83,14.25,11.1
	c0.76-0.73-4.38-6.89-11.48-13.75C250.48,282.14,244.1,277.17,243.34,277.9z"/>
<path class="st8" d="M286.58,320.17c-0.59,0.88,5.55,6.42,13.72,12.39c8.17,5.96,15.27,10.09,15.86,9.21s-5.55-6.42-13.72-12.39
	C294.27,323.41,287.17,319.29,286.58,320.17z"/>
<g>
	<g>
		<path class="st44" d="M379.62,284.85c0.01-0.17,0.03-0.35,0.04-0.52C379.66,284.34,379.65,284.52,379.62,284.85z"/>
	</g>
</g>
<polygon class="st44" points="346.66,196.53 361.72,180.73 359.45,178.77 342.12,192.61 "/>
<path class="st30" d="M267.47,142.81c0,0-1.56,16.41,0.22,27.99c1.79,11.58,4.06,32.33,1.09,45.07s-9.55,39.85-10.39,40.6
	c-0.83,0.75,10.5-1.9,10.5-1.9s17.13-31.92,19.08-48.17c1.95-16.25,1.46-44.09,3.73-47.3c2.27-3.21,9.46-5.94,11.28-12.83
	c2.35-8.9-4.19-18.49-4.19-18.49S269.44,137.8,267.47,142.81z"/>
<rect x="198.86" y="126.65" transform="matrix(0.9031 0.4293 -0.4293 0.9031 74.4928 -73.2247)" class="st45" width="1.37" height="3.69"/>
<rect x="213.51" y="135.32" transform="matrix(0.9032 0.4292 -0.4292 0.9032 79.3117 -78.729)" class="st45" width="1.37" height="2.28"/>
<rect x="177.79" y="132.33" transform="matrix(0.9032 0.4292 -0.4292 0.9032 81.7923 -71.2015)" class="st8" width="41.9" height="26.78"/>
<rect x="180.02" y="131.39" transform="matrix(0.9032 0.4293 -0.4293 0.9032 79.3135 -73.1853)" class="st8" width="43.76" height="15.68"/>
<rect x="196.57" y="143.43" transform="matrix(0.9032 0.4293 -0.4293 0.9032 82.1945 -71.2654)" class="st17" width="5.03" height="6.3"/>
<g>
	<polygon class="st8" points="218.65,131.65 200.27,122.92 197.96,127.77 200.99,129.21 202.45,126.29 214.67,132.1 213.2,135.02 
		216.34,136.51 	"/>
	
		<rect x="205.86" y="127.08" transform="matrix(0.4292 -0.9032 0.9032 0.4292 -3.1139 262.7562)" class="st8" width="0.95" height="13.53"/>
</g>
<path class="st25" d="M300.01,131.37c0,0,6.98-15.51,9.17-34c2.18-18.5-9.28-20.99-10.13-21.39c-5.84-2.77-28.41-1.21-29.75,1.64
	c-3.24,6.87,8.67,22,9.08,38.2c0.28,11.13-13.73,34.09-16.08,36.36c-3.85,3.73,7.97,3.43,19.57-12.73c1.26-1.75,2.75,0.1,7.22-1.77
	c1.44-0.6,2.82-1.76,3.92-2.58C296.28,132.65,300.01,131.37,300.01,131.37z"/>
<path class="st25" d="M278.31,137.2c0,0,11.27-17.01,14.81-26.86s2.06-19.58,1.47-22.08c-0.59-2.49,0.12-6.75,0.12-6.75l-4.98-2.19
	l-5.37-0.11C284.36,79.22,279.02,133.24,278.31,137.2z"/>
<path class="st46" d="M283,74.83c0,0,5-10.56,5.1-14.29c0.1-3.73-0.01-11.5,5.92-12.59c5.93-1.08,7.61,4.68,7.93,6.95
	c0.32,2.27,0.83,8.45,0.45,8.54c-0.38,0.09-1.61-0.88-1.61-0.88s0.19,3.91-1.46,5.1c-1.66,1.2-3.8,0.69-3.8,0.69
	s-2.16,5.29-1.89,6.93s2.02,5.38,2.02,5.38S284.2,80.84,283,74.83z"/>
<path class="st30" d="M282.04,74.08c0,0,8.55,11.58,10.52,19.42c1.97,7.84-12.7,44.67-17.95,49.24c-5.24,4.57-13.57,6.64-13.57,6.64
	s8.5-28.75,9.57-43.44c1.07-14.69-4.24-25.11-0.52-29.37C273.82,72.33,282.04,74.08,282.04,74.08z"/>
<path class="st30" d="M295.02,74.28c0,0,4.42,12.15,8.36,18.68s4.25,36.1,4.25,36.1l1.51-0.84c0,0,3.06-34.39,2.3-40.89
	c-0.75-6.5-5.07-11.56-7.29-11.75C301.92,75.39,295.02,74.28,295.02,74.28z"/>
<path class="st30" d="M261.05,149.39c0,0,11.85-1.74,16.15-10.1c4.29-8.37,8.96-32.77,8.29-39.44c-0.67-6.67-1.46-7.31-1.46-7.31
	l4.2-0.84l-4.83-2.3c0,0,0.23-2.17-2.52-6.21c-2.75-4.04-7.36-8.51-7.36-8.51s-5.74-0.08-4.7,7.95c1.04,8.03,1.2,22.24,0.8,27.3
	C269.21,114.99,263.13,145.15,261.05,149.39z"/>
<path class="st30" d="M301,75.19c0,0,6.28,11.15,7.04,12.63c0.76,1.48-3.09,1.44-3.09,1.44l3.62,1.03c0,0,1.34,4.76,1.69,8.43
	c0.35,3.67-2.12,16.54-2.12,16.54l-0.52,13.81l2.56-1.11c0,0,3.46-33.5,1.86-41.33s-5.7-10.26-6.8-10.66
	C304.15,75.58,301,75.19,301,75.19z"/>
<path class="st30" d="M311.61,89.56c0,0,29.02,5.02,31.74-0.35c2.72-5.37-1.31-28.16-2.34-29.9c-1.03-1.74-2.29-1.47-2.29-1.47
	l-4.31,1.63c0,0,0.61,18.79,0.13,19.94c-0.47,1.15-21.89-3.96-29.3-3.44C305.25,75.98,310.71,89.13,311.61,89.56z"/>
<path class="st30" d="M271.98,75.03c0,0-36.79,13.72-45.2,25.42c-8.41,11.7-13.31,18.89-13.31,18.89l5.45,4.99
	c0,0,13.36-16.41,22.56-22.46c9.2-6.05,29.78-10.27,32.92-14.48C277.55,83.18,271.98,75.03,271.98,75.03z"/>
<path class="st46" d="M217.92,123.41c0,0-0.65,3.9-2.24,6.96c-1.59,3.06-2.27,2.08-1.87-0.13c0.4-2.21,0.24-3.53,0.24-3.53
	s-1.68,1.36-2.23,2.76c-0.25,0.64,1.22,1.5,0.87,1.72c-1.78,1.11-3.66-1.17-3.66-1.17s-0.73,1.13-1.5,0.97
	c-1.64-0.36-0.45-2.08-0.45-2.08s-1.37,1.21-1.73-0.09c-0.36-1.3-0.21-1.25-0.21-1.25s-3.68,2.76-3.53,1.02s11.87-9.24,11.87-9.24
	L217.92,123.41z"/>
<path class="st47" d="M295.02,74.28l-0.63,0.59c0,0,6.94,13.92,8.58,18.19c2.59,6.76,2.55,8.9,3.27,12.32
	c0.2,0.95,0.52,5.34,0.52,5.34l0.85,18.13c0,0,2.23-19.43-1.5-30.53C304.65,93.91,295.02,74.28,295.02,74.28z"/>
<g>
	<path class="st47" d="M215.33,120.14l-0.42-0.28c0.59-0.88,14.22-21.13,17.33-22.76c0.05-0.03,0.1-0.05,0.15-0.06
		c1.24-0.45,8.73-4.78,16.66-9.37c11.92-6.89,19.8-11.42,20.72-11.49c0.09-0.01,0.23,0.01,0.36,0.16c0.78,0.84,1.28,6.66,0.92,8.82
		l-0.5-0.08c0.39-2.33-0.25-8.01-0.8-8.41c-0.81,0.08-11.7,6.38-20.45,11.44c-7.95,4.6-15.46,8.94-16.74,9.4
		c-0.04,0.01-0.08,0.03-0.12,0.05C229.99,98.85,219.31,114.22,215.33,120.14z"/>
</g>
<polygon class="st47" points="266.24,124.58 273.84,123.05 274.64,120.56 266.65,122.61 "/>
<g>
	<path class="st47" d="M267.61,122.62c-0.06,0.03-0.14,0.04-0.21,0.01c-0.13-0.05-0.19-0.2-0.14-0.33
		c0.05-0.12,4.98-12.34,6.25-19.1c1.27-6.74,1.08-9.34,1.08-9.37c-0.01-0.14,0.09-0.26,0.23-0.27c0.14-0.01,0.26,0.09,0.27,0.23
		c0.01,0.11,0.21,2.68-1.08,9.5c-1.29,6.82-6.23,19.08-6.28,19.2C267.71,122.54,267.67,122.59,267.61,122.62z"/>
</g>
<g>
	<path class="st47" d="M270.08,109.58c-0.04,0.02-0.09,0.03-0.14,0.03c-0.14-0.01-0.24-0.14-0.23-0.28l1.45-14.87
		c0.01-0.14,0.14-0.24,0.28-0.23c0.14,0.01,0.24,0.14,0.23,0.28l-1.45,14.87C270.2,109.47,270.15,109.55,270.08,109.58z"/>
</g>
<g>
	<path class="st47" d="M291.27,93.54c-0.07,0.04-0.16,0.04-0.23,0l-7.88-3.98l-0.02-0.13c0-0.02-0.26-1.6-2.5-6.13
		c-2.25-4.54-7.24-8.38-7.29-8.42c-0.11-0.08-0.13-0.24-0.05-0.35c0.08-0.11,0.24-0.13,0.35-0.05c0.05,0.04,5.14,3.94,7.44,8.59
		c1.95,3.95,2.42,5.68,2.52,6.15l7.66,3.86c0.12,0.06,0.17,0.21,0.11,0.34C291.36,93.47,291.32,93.51,291.27,93.54z"/>
</g>
<g>
	<path class="st47" d="M282.41,123.36c-0.06,0.03-0.12,0.04-0.19,0.02c-0.13-0.04-0.21-0.18-0.17-0.31
		c0.02-0.09,2.51-8.94,2.93-16.78c0.41-7.84-0.75-13.73-0.76-13.79c-0.03-0.14,0.06-0.27,0.2-0.3c0.14-0.03,0.27,0.06,0.3,0.2
		c0.01,0.06,1.19,6.02,0.77,13.92c-0.42,7.9-2.92,16.8-2.95,16.89C282.52,123.27,282.47,123.32,282.41,123.36z"/>
</g>
<g>
	<path class="st47" d="M307.96,88.89c-0.79,0.42-2.42,0.58-2.98,0.62c-0.14,0.01-0.26-0.09-0.27-0.23
		c-0.01-0.14,0.09-0.26,0.23-0.27c1.47-0.12,2.89-0.45,2.98-0.71c-0.34-0.75-6.13-11.19-6.18-11.3c-0.07-0.12-0.02-0.28,0.1-0.34
		c0,0,0,0,0.01,0c0.12-0.06,0.27-0.02,0.34,0.1c0.24,0.43,5.85,10.56,6.2,11.34c0.07,0.15,0.06,0.32-0.03,0.47
		C308.28,88.68,308.14,88.79,307.96,88.89z"/>
</g>
<g>
	<path class="st47" d="M309.41,111.11c-0.05,0.02-0.1,0.03-0.15,0.03c-0.14-0.02-0.23-0.15-0.21-0.29c0.01-0.07,0.96-6.78,1-10.85
		c0.04-4.05-1.56-9.13-1.58-9.18c-0.04-0.13,0.03-0.28,0.16-0.32c0.13-0.04,0.27,0.03,0.32,0.16c0.02,0.05,1.64,5.21,1.6,9.34
		c-0.04,4.11-1,10.85-1.01,10.92C309.53,111.01,309.48,111.08,309.41,111.11z"/>
</g>
<path class="st20" d="M286.54,65.11c0,0,2.91-1.67,4.07-3.75c1.16-2.07,1.48-3.24,1.08-4.16c-0.82-1.94,0.31-5.59,1.08-4.56
	c0.77,1.03,0.35,3.75,1.03,3.08c0.68-0.66,0.5-4.18,2.55-5.12c2.05-0.94,3.35,0.78,5.71,0.43c2.55-0.38,6.15-1.6,7.37-2.48
	c4.04-2.92,5.57-6.08,4.08-8.61c-2.29-3.9-6.84-3.34-13.07-1.19c-6.45,2.24-14.72,6.47-14.43,8.39c0.29,1.91,3.67,3.74,1.83,3.71
	c-1.84-0.03-2.85,1.09-2.74,2.65C285.34,56.78,287.86,61.29,286.54,65.11z"/>
<path class="st25" d="M281.17,72.78c0.25-0.07,2.84,0.65,6.35,2.38c3.51,1.72,5.95,4.05,5.95,4.05s-0.27,0.57,0.65,1.44
	s0.6,0.87,0.6,0.87s-0.81,0.56-1.26,0.25c-0.45-0.31-1.55-1.34-1.55-1.34L290.55,83c0,0-3.34-1.98-6.51-4.62
	c-2.43-2.03-5.76-4.65-5.76-4.65L281.17,72.78z"/>
<path class="st25" d="M293.7,73.66l3.14-0.01c0,0,1.45,1.39,1.56,3.38c0.11,1.99-1.04,4.49-1.11,4.39c-0.07-0.1-1.31-1.86-1.49-1.64
	c-0.18,0.22-0.19,1.16-0.19,1.16s-2.09-4.71-2.06-5.63C293.57,74.38,293.7,73.66,293.7,73.66z"/>
<path class="st8" d="M293.67,81.85l3.31,3.53l-0.39-4.89C296.59,80.48,294.72,81.54,293.67,81.85z"/>
<path class="st8" d="M272.93,128.94l4.07-6.52c0,0,9.55-9.75,14.58-19.59c5.04-9.83,4.24-19.32,4.24-19.32l1.17,1.41
	c0,0,1.42,15.39-4.75,27.37C286.07,124.27,280.74,127.37,272.93,128.94z"/>
<path class="st48" d="M295.44,68.37l-3.35-2.43c0,0-0.3,4.44-0.24,6.77c0.06,2.32,2.18,4.14,2.18,4.14s-0.48-1.05-0.29-2.66
	C293.93,72.58,295.44,68.37,295.44,68.37z"/>
<g>
	<path class="st47" d="M298.45,50.02c-0.01,0-0.02,0.01-0.03,0.01c-0.14,0.04-0.27-0.05-0.31-0.18c-0.03-0.13,0.05-0.27,0.18-0.31
		c0,0,0,0,0.01,0c0.19-0.05,6.15-1.68,8.66-6c0.5-0.86,0.59-1.54,0.27-2.03c-0.89-1.33-4.71-1.15-6.11-0.97
		c-0.14,0.02-0.27-0.08-0.28-0.22c-0.02-0.14,0.08-0.27,0.22-0.28c0.22-0.03,5.35-0.68,6.59,1.19c0.44,0.66,0.35,1.52-0.25,2.56
		C304.81,48.24,298.96,49.89,298.45,50.02z"/>
</g>
<g>
	<path class="st47" d="M297.04,50.22c-0.08,0.04-0.19,0.04-0.27-0.02c-0.11-0.09-0.13-0.24-0.05-0.35c2.87-3.71,5.01-7.22,4.67-7.66
		c-0.45-0.59-2.35-0.01-3.43,0.5c-0.13,0.06-0.28,0-0.34-0.12c-0.06-0.13,0-0.28,0.12-0.34c0.33-0.15,3.2-1.46,4.05-0.35
		c0.8,1.05-3.37,6.6-4.67,8.28C297.1,50.18,297.07,50.2,297.04,50.22z"/>
</g>
<g>
	<path class="st47" d="M293.92,53.55c-0.02,0-0.03,0-0.05,0c-0.14-0.02-0.23-0.15-0.22-0.28c0-0.02,0.18-1.66-1.72-3.96
		c-1.91-2.3-4.58-1.99-4.61-1.99c-0.13,0.02-0.26-0.08-0.28-0.22c-0.02-0.14,0.08-0.26,0.22-0.28c0.12-0.01,2.99-0.35,5.06,2.17
		c2.06,2.49,1.84,4.28,1.83,4.35C294.13,53.45,294.03,53.54,293.92,53.55z"/>
</g>
<g>
	<path class="st47" d="M307.25,48.75c-2.98,1.56-6.01,1.95-6.2,1.97c-0.14,0.02-0.26-0.08-0.28-0.22c-0.02-0.14,0.08-0.26,0.22-0.28
		c0.07-0.01,6.76-0.87,9.91-5.09c0.79-1.06,1.08-1.9,0.81-2.42c-0.37-0.73-1.72-0.73-1.74-0.73c-0.14,0-0.25-0.11-0.26-0.25
		c0-0.14,0.11-0.25,0.25-0.26c0.07,0,1.68-0.01,2.19,1c0.36,0.71,0.07,1.71-0.86,2.95C310.21,46.9,308.73,47.97,307.25,48.75z"/>
</g>
<path class="st46" d="M335,59.07c0,0-4.11-3.97-4.25-5c-0.13-1.03,1.46-4.03,1.83-4.44c0.37-0.41,0.42,3.49,0.39,4.31
	c-0.03,0.82,1.54,0.48,3.27,0.36c2.29-0.16,3.38-0.3,3.67,0.01c0.29,0.31-0.99,3.47-0.99,3.47L335,59.07z"/>
<path class="st48" d="M338.93,57.79c0,0-1.4,0.17-3.1-0.56c-1.7-0.73-2.52-2.75-2.52-2.75s2.31-0.84,4.17-0.78
	c1.86,0.05,2.55,0.14,2.55,0.14S340.19,56.07,338.93,57.79z"/>
<path class="st30" d="M300.01,131.37c4.35-3.21,46.51-12.14,50.27-5.77c3.76,6.37-3,53.82-3,53.82l-9.78,2.86
	c0,0,0.37-9.6,0.08-20.48c-0.47-17.56-0.24-19.93-0.24-19.93c-2.77-1.46-48.76,15.33-48.76,15.33S295.06,135.02,300.01,131.37z"/>
<g>
	<path class="st49" d="M267.28,261.71c0,0-1.39-0.22-1.43-2.34c-0.05-2.12,0.32-4.1,0.32-4.1l-7.16,1.43c0,0,0.76,10.08,3.5,10.58
		C264.31,267.6,265.46,263.6,267.28,261.71z"/>
	<path class="st50" d="M259.99,266.51c0,0,1.97,2.69,4.06,1.45c2.09-1.23,17.08-10.97,16.44-11.35c-0.64-0.37-0.95-1.57-1.38-1.36
		c-0.42,0.21-7.47,4.05-9.87,3.12c-2.4-0.93-2.56-2.92-2.56-2.92l-3.28,2.21c0,0,2.04,2.47,1.93,3.87
		C265.22,262.94,259.99,266.51,259.99,266.51z"/>
</g>
<g>
	<path class="st49" d="M348.22,186.04c0,0-1.4-0.13-1.58-2.24c-0.18-2.11,0.06-4.11,0.06-4.11l-7.06,1.89c0,0,1.4,10.01,4.17,10.33
		C345.63,192.11,346.52,188.05,348.22,186.04z"/>
	<path class="st50" d="M341.25,191.31c0,0,2.14,2.55,4.14,1.19c2.01-1.36,16.34-12.05,15.67-12.38c-0.66-0.33-1.05-1.51-1.46-1.27
		c-0.41,0.24-7.2,4.52-9.65,3.75c-2.45-0.78-2.74-2.75-2.74-2.75l-3.13,2.42c0,0,2.19,2.33,2.17,3.74
		C346.24,187.41,341.25,191.31,341.25,191.31z"/>
</g>
<g>
	<path class="st47" d="M262.59,154.49c-0.09,0-0.14,0-0.16-0.01c-0.17-0.02-0.3-0.17-0.28-0.35c0.02-0.17,0.18-0.3,0.35-0.28
		c0.02,0,2.47,0.17,7.8-3.15c3.69-2.3,7.44-6.85,9.69-9.57c1.38-1.67,1.95-2.35,2.3-2.47c0.25-0.09,0.73-0.13,1.39-0.19
		c1.82-0.17,4.87-0.45,6.64-1.89c1.87-1.51,3.87-2.54,5.33-3.29c0.51-0.26,0.96-0.49,1.33-0.7c1.45-0.83,2.89-1.51,2.91-1.51
		c0.16-0.08,0.35,0,0.42,0.15c0.07,0.16,0,0.35-0.15,0.42c-0.01,0.01-1.43,0.67-2.86,1.49c-0.38,0.22-0.84,0.45-1.35,0.72
		c-1.43,0.74-3.4,1.75-5.21,3.22c-1.92,1.56-5.09,1.85-6.99,2.03c-0.57,0.05-1.06,0.1-1.25,0.16c-0.23,0.11-1.13,1.2-2.01,2.27
		c-2.27,2.75-6.06,7.35-9.84,9.71C265.77,154.27,263.22,154.49,262.59,154.49z"/>
</g>
<g>
	<path class="st47" d="M268.32,159.94l-0.22-3.26l0.22-0.08c0.06-0.02,5.62-2.19,8.39-3.66c2.66-1.41,3.17-2.01,3.19-2.04l0.43-0.52
		l0.63,3.34l-0.17,0.12c-0.03,0.02-3.35,2.24-5.78,3.57c-2.45,1.34-6.15,2.39-6.3,2.44L268.32,159.94z M268.76,157.1l0.14,2.01
		c1.01-0.31,3.85-1.21,5.79-2.27c2.09-1.14,4.85-2.95,5.56-3.43l-0.32-1.71c-0.45,0.35-1.32,0.93-2.93,1.79
		C274.52,154.82,269.82,156.68,268.76,157.1z"/>
</g>
<g>
	<path class="st47" d="M279.2,207.94c-0.03,0-0.07,0-0.1-0.02c-2.25-0.76-7.52-2.62-7.79-3.54c-0.04-0.15-0.02-0.3,0.08-0.41
		c0.59-0.75,7.9-1.71,11.02-2.08c0.17-0.02,0.33,0.1,0.35,0.28c0.02,0.17-0.1,0.33-0.28,0.35c-4.56,0.55-9.51,1.34-10.47,1.78
		c0.66,0.58,4.17,1.98,7.3,3.03c0.17,0.06,0.26,0.24,0.2,0.4C279.46,207.86,279.33,207.94,279.2,207.94z"/>
</g>
<g>
	
		<rect x="273.52" y="200.01" transform="matrix(0.9447 -0.3278 0.3278 0.9447 -50.3489 101.9683)" class="st47" width="7.51" height="0.64"/>
</g>
<g>
	<path class="st47" d="M258.58,256.66c-0.03,0-0.06,0-0.08-0.01c-0.17-0.05-0.27-0.22-0.22-0.39l1.39-5.1l9.83-0.67
		c0.18-0.02,0.33,0.12,0.34,0.3c0.01,0.18-0.12,0.33-0.3,0.34l-9.38,0.64l-1.27,4.66C258.85,256.57,258.72,256.66,258.58,256.66z"/>
</g>
<g>
	<path class="st47" d="M291.72,159.42c-0.04,0-0.09-0.01-0.13-0.03c-0.16-0.07-0.23-0.26-0.16-0.42c0,0,1.32-2.94,2.75-6.24
		c1.05-2.44,0.75-4.15,0.52-5.41c-0.07-0.4-0.14-0.78-0.15-1.13c-0.05-1.38,0.19-6.78,0.2-7.01c0.01-0.18,0.16-0.32,0.33-0.3
		c0.18,0.01,0.31,0.16,0.3,0.33c0,0.06-0.26,5.6-0.2,6.95c0.01,0.3,0.07,0.65,0.14,1.05c0.24,1.33,0.56,3.16-0.57,5.77
		c-1.43,3.31-2.75,6.25-2.75,6.25C291.95,159.35,291.84,159.42,291.72,159.42z"/>
</g>
<g>
	<path class="st47" d="M338.67,144.1c-0.65,0-0.75-0.2-0.8-0.31c-0.29-0.62,1.89-3.37,6.46-8.17c0.12-0.13,0.32-0.13,0.45-0.01
		c0.13,0.12,0.13,0.32,0.01,0.45c-2.92,3.06-5.97,6.56-6.3,7.42c0.73,0.11,3.98-0.78,6.74-1.73c0.16-0.06,0.35,0.03,0.4,0.2
		c0.06,0.17-0.03,0.35-0.2,0.4C341.39,143.74,339.54,144.1,338.67,144.1z"/>
</g>
<g>
	<path class="st47" d="M337.15,182.7l0.37-6.12l3.62-1.06l7.17-1.27l-0.73,5.42l-0.21,0.05c-0.02,0-1.62,0.4-2.97,0.87
		c-1.38,0.47-6.58,1.93-6.81,1.99L337.15,182.7z M338.13,177.06l-0.29,4.78c1.31-0.37,5.21-1.47,6.34-1.86
		c1.09-0.37,2.33-0.7,2.81-0.83l0.56-4.13l-6.27,1.11L338.13,177.06z"/>
</g>
<g>
	<path class="st47" d="M307.99,128.18l-0.63-0.06c0.01-0.12,0.93-11.88,1.58-17.33c0.13-1.1,0.14-1.17,0.47-1.14
		c0.12,0.01,0.2,0.02,0.22,0.39l0.05,0.01c-0.01,0.04-0.02,0.13-0.04,0.29c-0.02,0.95-0.23,3.23-0.76,8.74
		C308.44,123.64,307.99,128.18,307.99,128.18z"/>
</g>
<g>
	<path class="st47" d="M296.78,154.86c-0.05,0-0.09-0.01-0.14-0.03c-0.16-0.08-0.23-0.27-0.15-0.42c0.02-0.04,2.07-4.37,3.15-7.48
		c1.07-3.06,0.83-5.97,0.82-5.99c-0.02-0.18,0.11-0.33,0.29-0.34c0.18-0.01,0.33,0.11,0.34,0.29c0.01,0.12,0.25,3.07-0.86,6.26
		c-1.09,3.14-3.16,7.5-3.18,7.54C297.02,154.79,296.9,154.86,296.78,154.86z"/>
</g>
<g>
	<path class="st47" d="M302.65,58.65c-0.17,0-0.32-0.03-0.41-0.05l-0.22-0.05l-0.35-3.41l0.24-0.08c0.38-0.13,1.08-0.32,1.43-0.15
		c0.11,0.06,0.2,0.15,0.23,0.26c0.1,0.31-0.04,2.99-0.38,3.3C303.05,58.61,302.84,58.65,302.65,58.65z M302.6,58.01
		c0.05,0,0.1,0,0.13,0c0.12-0.41,0.27-2.03,0.24-2.53c-0.13,0-0.37,0.05-0.62,0.11L302.6,58.01z"/>
</g>
<g>
	<g>
		<path class="st47" d="M295.73,59.04c-0.43,0-0.52-0.08-0.58-0.13l-0.12-0.1l-0.01-0.2c0.02-0.36,0.23-2.39,0.24-2.47l0.03-0.24
			l0.24-0.04c5.46-0.91,5.49-0.81,5.59-0.49c0.09,0.28-0.25,1.81-0.66,2.5c-0.19,0.33-0.41,0.52-0.65,0.56
			C297.42,58.91,296.29,59.04,295.73,59.04z M295.68,58.41c0.58,0,2.13-0.23,4.01-0.6c0.28-0.06,0.69-1.37,0.79-2.03
			c-0.74,0.06-2.75,0.36-4.61,0.67C295.81,57.07,295.71,57.96,295.68,58.41z"/>
	</g>
	<g>
		<path class="st47" d="M302.09,57.34c-0.01,0-0.01,0-0.02,0l-1.58-0.09c-0.18-0.01-0.31-0.16-0.3-0.33c0.01-0.18,0.14-0.3,0.33-0.3
			l1.58,0.09c0.18,0.01,0.31,0.16,0.3,0.33C302.4,57.21,302.26,57.34,302.09,57.34z"/>
	</g>
	<path class="st47" d="M295.58,56.17c0,0-2.56-3.8-3.38-3.99c-0.82-0.18-2.23,1.11-2.23,1.11l0.34,0.26c0,0,1.1-0.97,1.58-0.43
		c0.48,0.53,3.18,5.66,3.18,5.66L295.58,56.17z"/>
</g>
<path class="st46" d="M332.78,51.72c0,0,1.61,3.32,2.28,3.55c0.66,0.23,0.58-1.23,0.58-1.23s0.64,1.69,1.3,1.46
	c0.65-0.23,0.46-1.61,0.46-1.61s0.57,1.36,1.07,0.94c0.5-0.41,0.43-1.72,0.43-1.72s0.16,1.21,0.88,1.27
	c0.72,0.05,0.48-1.73-0.11-3.22c-0.58-1.5-1.01-2.05-1.43-1.98c-0.43,0.07-0.5,0.32-0.5,0.32s-0.79-0.7-1.27-0.36
	c-0.48,0.34-0.45,0.67-0.45,0.67s-1.24-0.86-1.69-0.45c-0.45,0.41-0.52,0.9-0.52,0.9s-1.07-0.74-1.38-0.29
	c-0.3,0.45-0.69,1.7-0.69,1.7L332.78,51.72z"/>
<rect x="115.31" y="426.29" class="st14" width="434.09" height="3.63"/>
</svg>
