<?xml version="1.0" encoding="utf-8"?>
<!-- Generator: Adobe Illustrator 24.0.2, SVG Export Plug-In . SVG Version: 6.00 Build 0)  -->
<svg version="1.1" id="Layer_1" xmlns="http://www.w3.org/2000/svg" xmlns:xlink="http://www.w3.org/1999/xlink" x="0px" y="0px"
	 viewBox="0 0 1247.02 750.94" style="enable-background:new 0 0 1247.02 750.94;" xml:space="preserve">
<style type="text/css">
	.st0{fill:#F2F2F2;}
	.st1{fill:#84F59A;}
	.st2{fill:#29C6BE;}
	.st3{fill:#EB144C;}
	.st4{fill:#A21738;}
	.st5{fill:#B0B0B0;}
	.st6{fill:#C6C6C5;}
	.st7{fill:#8F4A17;}
	.st8{fill:#D0134D;}
	.st9{fill:#E51B4D;}
	.st10{fill:#DFA169;}
	.st11{fill:#853F17;}
	.st12{fill:#DBCAD4;}
	.st13{fill:#FBEFF4;}
	.st14{fill:#EAD9E0;}
	.st15{fill:#2F313D;}
	.st16{fill:#323431;}
	.st17{fill:#E53543;}
	.st18{fill:#F3BC82;}
	.st19{fill:#CF7948;}
	.st20{fill:#8292B2;}
	.st21{fill:#A3BED4;}
	.st22{opacity:0.2;fill:#A3BED4;}
	.st23{fill:#B8D3EF;}
	.st24{fill:#B9C3E5;}
	.st25{fill:#EBEBEB;}
	.st26{fill:#F3B3A4;}
	.st27{fill:#E24761;}
	.st28{fill:#6D3A45;}
	.st29{fill:#D18552;}
	.st30{fill:#3C3C3B;}
	.st31{fill:#E41D4D;}
	.st32{fill:#3D3C51;}
	.st33{fill:#33323D;}
	.st34{fill:#2E2D38;}
	.st35{fill:#454551;}
	.st36{fill:#FFFFFF;stroke:#585856;stroke-width:0.25;stroke-miterlimit:10;}
	.st37{fill:#218C9B;}
	.st38{fill:#F5C4AD;}
	.st39{fill:#F1AD92;}
	.st40{fill:#3DA8B7;}
	.st41{opacity:0.4;fill:#3A98B5;}
	.st42{opacity:0.4;}
	.st43{fill:#3A98B5;}
	.st44{filter:url(#Adobe_OpacityMaskFilter);}
	.st45{fill:url(#SVGID_2_);}
	.st46{mask:url(#SVGID_1_);fill:#E41D4D;}
	.st47{fill:#BFA8B5;}
	.st48{fill:#FFFFFF;}
	.st49{fill:#313648;}
	.st50{fill:#3D4359;}
	.st51{fill:#E7355D;}
	.st52{fill:#AAC736;}
	.st53{fill:#FFD825;}
	.st54{fill:#7D788C;}
	.st55{fill:#A3A2BA;}
	.st56{fill:#EAB49F;}
	.st57{fill:#848585;}
	.st58{fill:#FFFFFF;stroke:#848585;stroke-width:0.25;stroke-miterlimit:10;}
	.st59{fill:#585856;}
	.st60{opacity:0.16;fill:#B9C3E5;}
	.st61{fill:#BAC6F2;}
	.st62{fill:#F3F3F3;}
	.st63{fill:#C41347;}
	.st64{fill:#6F6F6E;}
	.st65{fill:#D9D9D9;}
	.st66{fill:#20140F;}
	.st67{fill:#323B6E;}
	.st68{fill:#4F4F4F;}
	.st69{fill:#F8C7BD;}
	.st70{fill:#EE7C78;}
	.st71{fill:#BF453F;}
	.st72{fill:#575756;}
	.st73{fill:#E0E0E0;}
	.st74{fill:#F5F4F5;}
	.st75{fill:#455A64;}
	.st76{fill:#263239;}
	.st77{fill:#E9505B;}
	.st78{fill:#FFFFFF;stroke:#323431;stroke-miterlimit:10;}
	.st79{clip-path:url(#SVGID_6_);}
	.st80{clip-path:url(#SVGID_6_);fill:#B1B1B1;}
	.st81{clip-path:url(#SVGID_6_);fill:#575756;}
	.st82{clip-path:url(#SVGID_6_);fill:#F4A891;}
	.st83{clip-path:url(#SVGID_6_);fill:#FFC7B0;}
	.st84{clip-path:url(#SVGID_6_);fill:#FFFFFF;}
	.st85{clip-path:url(#SVGID_6_);fill:none;}
	.st86{clip-path:url(#SVGID_6_);fill:#EAECEE;}
	.st87{clip-path:url(#SVGID_10_);}
	.st88{clip-path:url(#SVGID_10_);fill:#575756;}
	.st89{clip-path:url(#SVGID_10_);fill:#F4A891;}
	.st90{clip-path:url(#SVGID_10_);fill:#FFC7B0;}
	.st91{clip-path:url(#SVGID_10_);fill:#FFFFFF;}
	.st92{clip-path:url(#SVGID_10_);fill:none;stroke:#E48867;stroke-width:1.3558;stroke-linecap:round;stroke-miterlimit:10;}
	.st93{clip-path:url(#SVGID_10_);fill:none;}
	.st94{clip-path:url(#SVGID_14_);}
	.st95{fill:#B95241;}
	.st96{fill:#F4A891;}
	.st97{fill:#FFC7B0;}
	.st98{fill:#DB734C;}
	.st99{fill:none;stroke:#DB734C;stroke-width:2.5582;stroke-linecap:round;stroke-miterlimit:10;}
	.st100{opacity:0.18;}
	.st101{fill:#D93838;}
	.st102{fill:#FFC050;}
	.st103{opacity:0.56;fill:none;stroke:#FFFFFF;stroke-width:1.2235;stroke-miterlimit:10;}
	.st104{fill:#07113D;}
	.st105{fill:none;stroke:#575756;stroke-width:3;stroke-miterlimit:10;}
	.st106{clip-path:url(#SVGID_16_);fill:#3C3C3B;}
	.st107{clip-path:url(#SVGID_16_);fill:#B1B1B1;}
	.st108{clip-path:url(#SVGID_16_);fill:#F4A891;}
	.st109{clip-path:url(#SVGID_16_);}
	.st110{clip-path:url(#SVGID_16_);fill:#EB144C;}
	.st111{clip-path:url(#SVGID_16_);fill:#D93838;}
	.st112{clip-path:url(#SVGID_16_);fill:none;}
	.st113{clip-path:url(#SVGID_18_);}
	.st114{clip-path:url(#SVGID_18_);fill:#EB144C;}
	.st115{clip-path:url(#SVGID_18_);fill:#1D1D1B;}
	.st116{clip-path:url(#SVGID_18_);fill:#F4A891;}
	.st117{clip-path:url(#SVGID_18_);fill:#FFC7B0;}
	.st118{clip-path:url(#SVGID_18_);fill:#FFFFFF;}
	.st119{clip-path:url(#SVGID_18_);fill:#575756;}
	.st120{clip-path:url(#SVGID_18_);fill:none;}
	.st121{clip-path:url(#SVGID_22_);}
	.st122{clip-path:url(#SVGID_22_);fill:#EB144C;}
	.st123{clip-path:url(#SVGID_22_);fill:#1D1D1B;}
	.st124{clip-path:url(#SVGID_22_);fill:#F4A891;}
	.st125{clip-path:url(#SVGID_22_);fill:#FFC7B0;}
	.st126{clip-path:url(#SVGID_22_);fill:none;}
	.st127{clip-path:url(#SVGID_22_);fill:#FBFCFC;}
	.st128{clip-path:url(#SVGID_22_);fill:none;stroke:#E48867;stroke-width:1.3558;stroke-miterlimit:10;}
	.st129{fill:#B1B1B1;}
	.st130{opacity:0.56;fill:none;stroke:#FFFFFF;stroke-width:1.746;stroke-miterlimit:10;}
	.st131{opacity:0.63;}
	.st132{fill:#FFE0D2;}
	.st133{fill:#FFD7C5;}
	.st134{fill:#FFFFFF;stroke:#6F6F6E;stroke-miterlimit:10;}
</style>
<path class="st62" d="M164.95,413.75c13.29,67,43.59,128.86,77.25,187.33l794.3-1.48c36.09-20.76,72.33-64.01,89.52-103.48
	c17.18-39.46,16.08-89.45-9.57-123.38c-30.2-39.95-42.03-150.07-102.97-156.5c-64.34-6.79-74.57-45.82-108.94-102.87
	C853.36,28.46,724.2-16.43,641.89,45.07c-46.62,34.84-73.17,101.27-128.5,116.15c-53.54,14.41-105.44-27.27-160.15-35.4
	c-64.09-9.53-129.23,30.67-162.82,89.2C156.83,273.53,151.67,346.75,164.95,413.75z"/>
<g>
	<g>
		<defs>
			<rect id="SVGID_3_" x="543.44" y="339" width="143.95" height="180.43"/>
		</defs>
		<clipPath id="SVGID_1_">
			<use xlink:href="#SVGID_3_"  style="overflow:visible;"/>
		</clipPath>
	</g>
</g>
<g>
	<defs>
		<rect id="SVGID_5_" x="545.57" y="74.13" width="138.97" height="188.04"/>
	</defs>
	<clipPath id="SVGID_2_">
		<use xlink:href="#SVGID_5_"  style="overflow:visible;"/>
	</clipPath>
	<g style="clip-path:url(#SVGID_2_);">
		<g>
			<defs>
				<rect id="SVGID_7_" x="546.29" y="77.31" width="137.98" height="184.86"/>
			</defs>
			<clipPath id="SVGID_4_">
				<use xlink:href="#SVGID_7_"  style="overflow:visible;"/>
			</clipPath>
		</g>
	</g>
	<path style="clip-path:url(#SVGID_2_);fill:#B1B1B1;" d="M524.01,294.12c1.06-2.4,43.67-71.66,59.4-79.53
		c15.73-7.87,57.85-3.65,65.72,2.46c7.87,6.11,52.24,67.74,57.51,80.51c6.12,14.85,0.01,34.08-6.98,34.08
		c-6.99,0-164.27,0.04-164.27,0.04S510.91,323.83,524.01,294.12z"/>
	<path style="clip-path:url(#SVGID_2_);fill:#B1B1B1;" d="M664.9,250.22l-2.94,126.15l-95.52,0.91l-2.53-127.03
		c-0.01-21.29,15.4-39,35.68-42.57c2.44-0.42,4.94-0.64,7.51-0.64l14.6,0C645.54,207.03,664.89,226.37,664.9,250.22z"/>
	<path style="clip-path:url(#SVGID_2_);fill:#575756;" d="M645.41,186.95l-55.16,0.01c-7.3,0-13.22-5.91-13.22-13.21l-0.02-63.23
		c0-9.17,7.43-16.61,16.61-16.62l48.36-0.01c9.17,0,16.61,7.43,16.62,16.61l0.02,63.23C658.63,181.03,652.71,186.95,645.41,186.95z"
		/>
	<path style="clip-path:url(#SVGID_2_);fill:#F4A891;" d="M587.86,142.33l-0.55,9.52l-0.38,6.43l-2.87-0.13
		c-0.21-0.01-0.42-0.02-0.62-0.06c-4.78-0.51-8.39-4.35-8.15-8.57c0.12-2.19,1.27-4.02,3.03-5.4c1.57-1.24,3.64-1.89,5.9-1.92h0.01
		c0.26-0.02,0.48-0.02,0.75,0L587.86,142.33z"/>
	<path style="clip-path:url(#SVGID_2_);fill:#F4A891;" d="M650.42,142.53l0.55,9.52l0.38,6.43l2.87-0.13
		c0.21-0.01,0.42-0.02,0.62-0.06c4.78-0.51,8.39-4.35,8.15-8.58c-0.12-2.19-1.27-4.02-3.03-5.4c-1.57-1.23-3.64-1.89-5.9-1.91h-0.01
		c-0.26-0.02-0.48-0.02-0.75,0L650.42,142.53z"/>
	<path style="clip-path:url(#SVGID_2_);fill:#F4A891;" d="M625.76,222.7l-16.77,0c-3.17,0-5.76-2.59-5.76-5.76l-0.01-44.75
		c0-3.17,2.59-5.76,5.76-5.76l16.77,0c3.17,0,5.76,2.59,5.76,5.76l0.01,44.75C631.53,220.1,628.93,222.69,625.76,222.7z"/>
	<path style="clip-path:url(#SVGID_2_);fill:#FFC7B0;" d="M655.93,140.99l-0.89,17.42l-0.13,2.61c-0.08,1.72-0.3,3.42-0.61,5.06
		c-2.68,13.84-13.28,24.79-26.78,28.26c-1.51,0.39-3.05,0.68-4.63,0.88c-0.47,0.08-0.96,0.12-1.43,0.14c-1,0.11-1.99,0.16-3,0.16
		c-0.72,0-1.44-0.03-2.18-0.05c-1.65-0.09-3.25-0.29-4.84-0.59c-0.66-0.12-1.3-0.26-1.94-0.42c-2.45-0.58-4.78-1.41-7-2.46
		c0,0-0.01,0-0.03-0.01c-10.62-5.02-18.35-14.9-20.47-26.52c-0.01-0.04-0.01-0.07-0.01-0.1c-0.21-1.26-0.37-2.53-0.46-3.81
		c-0.04-0.41-0.05-0.8-0.07-1.21c-0.01-0.42-0.03-0.83-0.01-1.24c-0.03-0.49,0-0.98,0.03-1.48l0-0.26l0.05-1.19l0.17-3.11l0.26-5.32
		v-0.05l0.26-5.37l0.01-0.1v-0.01l0.1-1.98l0.08-1.55l0.08-1.42l0.03-0.37c0.14-2.46,0.64-4.85,1.36-7.13
		c0.48-1.6,1.09-3.16,1.75-4.65c0.09-0.25,0.18-0.46,0.29-0.68c0.55-1.23,1.19-2.45,1.89-3.6c0-0.01,0.01-0.03,0.01-0.03
		c2.63-4.4,6.18-8.22,10.38-11.17c0.84-0.59,1.7-1.15,2.58-1.68c6.12-3.59,13.3-5.52,20.88-5.13c10.13,0.52,19.22,5.07,25.55,12.01
		c1.86,2.04,3.38,4.27,4.63,6.68c1.04,1.95,1.89,4.01,2.62,6.19c0.47,1.36,0.81,2.77,1.06,4.18c0,0,0,0.01,0,0.03
		c0.08,0.49,0.14,0.96,0.2,1.44c0.11,0.85,0.18,1.72,0.22,2.59C656.04,137.59,656.02,139.28,655.93,140.99z"/>
	<path style="clip-path:url(#SVGID_2_);fill:#FFFFFF;" d="M627.99,168.3c-3.35,4.92-6.44,8.19-11.02,7.48
		c-3.84-0.59-6.96-3.48-8.88-7.75L627.99,168.3z"/>
	<path style="clip-path:url(#SVGID_2_);fill:#F4A891;" d="M655.93,140.99l-0.89,17.42l-0.13,2.61c-0.08,1.72-0.3,3.42-0.61,5.06
		c-2.68,13.84-13.28,24.79-26.78,28.26c-1.51,0.39-3.05,0.68-4.63,0.88c-0.47,0.08-0.96,0.12-1.43,0.14c-1,0.11-1.99,0.16-3,0.16
		c-0.72,0-1.44-0.03-2.18-0.05c-1.87-0.08-3.71-0.29-5.52-0.6c-0.37-0.07-0.72-0.12-1.09-0.2c-2.48-0.58-4.82-1.41-7.05-2.46
		c0,0-0.01,0-0.03-0.01c-10.7-5.06-18.5-15-20.58-26.73c-0.01-0.04-0.01-0.07-0.01-0.1c-0.22-1.26-0.38-2.53-0.46-3.81
		c-0.04-0.41-0.05-0.8-0.07-1.21c-0.01-0.42-0.03-0.83-0.01-1.24c-0.03-0.49,0-0.98,0.03-1.48l0-0.26l0.05-1.19l0.17-3.11l0.26-5.32
		c1.64,19.49,8.54,44.11,32.84,45.1c33.65,1.37,40.62-35.62,41.14-56.91C656.04,137.59,656.02,139.28,655.93,140.99z"/>
	<g style="clip-path:url(#SVGID_2_);">
		<polygon class="st48" points="636.09,377.81 598.05,377.82 598.1,204.09 607.66,203.8 616.62,220.82 626.48,204.37 636.59,204.53 
					"/>
	</g>
	<rect x="546.29" y="77.31" style="clip-path:url(#SVGID_2_);fill:none;" width="137.98" height="184.86"/>
	<polygon style="clip-path:url(#SVGID_2_);fill:#EAECEE;" points="607.82,203.63 602.24,213.08 594.89,209.11 597.46,203.63 	"/>
	<polygon style="clip-path:url(#SVGID_2_);fill:#EAECEE;" points="626.56,204.23 632.53,213.08 639.83,210.59 637.62,204.23 	"/>
	
		<ellipse transform="matrix(0.4651 -0.8853 0.8853 0.4651 241.9757 636.2158)" style="clip-path:url(#SVGID_2_);fill:#575756;" cx="647.43" cy="117.88" rx="12.94" ry="12.94"/>
	<path style="clip-path:url(#SVGID_2_);fill:#575756;" d="M636.82,122.2c0,5.5-4.45,9.95-9.95,9.95c-5.5,0-9.95-4.45-9.95-9.95
		c0-5.5,4.45-9.95,9.95-9.95C632.36,112.25,636.82,116.7,636.82,122.2z"/>
	<path style="clip-path:url(#SVGID_2_);fill:#575756;" d="M612.06,120.6l8.78,3.03c-1.66,4.82-6.99,7.41-11.81,5.75
		c-4.82-1.66-7.41-6.99-5.75-11.81c1.66-4.82,6.99-7.41,11.81-5.75c4.06,1.4,6.65,5.45,6.21,9.72L612.06,120.6z"/>
	<path style="clip-path:url(#SVGID_2_);fill:#575756;" d="M602.99,120.38c0,4.85-3.93,8.79-8.79,8.79c-4.85,0-8.79-3.93-8.79-8.79
		s3.93-8.79,8.79-8.79C599.05,111.59,602.99,115.53,602.99,120.38z"/>
	<path style="clip-path:url(#SVGID_2_);fill:#575756;" d="M605.81,101.81c0,0,18.57-5.31,28.52,1.65s15.26,16.58,15.26,16.58
		l-38.14,3.33l-22.89-3.64l8.79-16.75L605.81,101.81z"/>
	<path style="clip-path:url(#SVGID_2_);fill:#575756;" d="M589.23,122.87l-4.22,28.08c-0.2,1.3-1.66,1.97-2.78,1.27l0,0
		c-0.5-0.31-0.81-0.84-0.85-1.43l-1.27-20.46C580.11,130.34,586.9,113.42,589.23,122.87z"/>
	<path style="clip-path:url(#SVGID_2_);fill:#575756;" d="M647.6,126.5l4.23,28.08c0.2,1.3,1.67,1.97,2.78,1.27l0,0
		c0.5-0.31,0.81-0.84,0.85-1.43l1.26-26.1C656.72,128.33,649.92,117.05,647.6,126.5z"/>
	<path style="clip-path:url(#SVGID_2_);fill:#575756;" d="M585.25,149.57c-0.5,6.8,3.16,37.98,31.35,38.63
		c28.19,0.66,33.87-29.52,34.32-35.83c0.45-6.31,4.64-5.64,4.64-4.31l-0.16,16.26c0,19.04-15.43,34.49-34.47,34.49l-4,0
		c-19.04,0-35.81-14.45-35.82-33.49l0.16-15.59C581.27,149.74,585.3,148.99,585.25,149.57z"/>
</g>
<g>
	<defs>
		<rect id="SVGID_9_" x="754.78" y="75.95" width="138.97" height="188.04"/>
	</defs>
	<clipPath id="SVGID_6_">
		<use xlink:href="#SVGID_9_"  style="overflow:visible;"/>
	</clipPath>
	<g class="st79">
		<g>
			<defs>
				<rect id="SVGID_11_" x="751.04" y="75.95" width="144.66" height="188.04"/>
			</defs>
			<clipPath id="SVGID_8_">
				<use xlink:href="#SVGID_11_"  style="overflow:visible;"/>
			</clipPath>
		</g>
	</g>
	<path class="st79" d="M864.9,226.43h-77.83V111.56c0-8.75,7.1-15.85,15.85-15.85h46.14c8.75,0,15.85,7.1,15.85,15.85V226.43z"/>
	<path class="st81" d="M872.47,312.46h-89.77v-94.49c0-10.1,8.18-18.28,18.28-18.28h53.22c10.1,0,18.28,8.18,18.28,18.28V312.46z"/>
	<rect x="813.21" y="180.23" class="st82" width="27.42" height="37.59"/>
	<path class="st82" d="M867.8,148.27c0.02,3.28-2.36,6.21-5.53,6.89c-0.29,0.06-0.59,0.11-0.91,0.14c-0.14,0.03-0.3,0.02-0.47,0.03
		l-2.14,0.02l-0.04-4.47l-0.01-1l-0.06-8.12l2.16-0.02c0.2,0,0.38,0,0.56,0.02l0.01,0c0.28,0.01,0.55,0.05,0.81,0.1
		c0,0,0.01-0.01,0.01,0c1.36,0.22,2.58,0.81,3.52,1.73C866.99,144.82,867.78,146.41,867.8,148.27z"/>
	<path class="st82" d="M784.8,148.27c-0.02,3.28,2.36,6.21,5.53,6.89c0.29,0.06,0.59,0.11,0.91,0.14c0.14,0.03,0.3,0.02,0.46,0.03
		l2.14,0.02l0.04-4.47l0.01-1l0.06-8.12l-2.16-0.02c-0.2,0-0.38,0-0.56,0.02l-0.01,0c-0.28,0.01-0.55,0.05-0.81,0.1
		c0,0-0.01-0.01-0.01,0c-1.36,0.22-2.58,0.81-3.52,1.73C785.61,144.82,784.82,146.41,784.8,148.27z"/>
	<path class="st83" d="M860.97,153.83v1.13l-0.01,0.24c0,0.48,0,0.96-0.04,1.42c0,0.4-0.04,0.78-0.07,1.19
		c0,0.12-0.03,0.24-0.04,0.37c-0.41,4.96-1.92,9.65-4.26,13.81c-0.12,0.21-0.24,0.42-0.36,0.62c-3.82,6.47-9.67,11.64-16.7,14.59
		c-0.01,0.01-0.03,0.01-0.03,0.01c-2.72,1.15-5.61,1.96-8.64,2.37c-1.11,0.16-2.23,0.27-3.36,0.33c-0.45,0.03-0.9,0.03-1.37,0.03
		c-1.64,0.01-3.26-0.08-4.86-0.31c-0.45-0.05-0.92-0.11-1.35-0.2c-14.87-2.51-26.55-14.3-28.76-29.11
		c-0.23-1.58-0.37-3.21-0.37-4.86l-0.03-2.49l-0.08-11.1l-0.04-5.55c-0.01-0.85,0-1.7,0.04-2.53c0.07-1.62,0.21-3.21,0.46-4.76
		c0.31-1.83,0.77-3.61,1.45-5.33c0.8-2.04,1.7-3.99,2.77-5.84c1.29-2.23,2.81-4.29,4.67-6.14c6.33-6.37,15.19-10.32,24.88-10.4
		c7.24-0.07,14.02,2.08,19.7,5.76c0.82,0.54,1.62,1.11,2.4,1.71c3.25,2.51,6.06,5.59,8.24,9.07c0.42,0.65,0.82,1.33,1.19,2.02
		c0,0,0.01,0.01,0.01,0.03c0.61,1.13,1.18,2.31,1.64,3.52c0.09,0.21,0.17,0.41,0.25,0.66c0.57,1.45,1.09,2.96,1.49,4.51
		c0.58,2.2,0.97,4.5,1,6.86l0.01,0.34l0.01,1.35l0.01,1.49l0.01,1.88v0.01l0.01,0.11v0.32l0.01,0.89l0.04,8.09v0.9L860.97,153.83z"
		/>
	<path class="st84" d="M810.54,204.37c3.62,19.62,17.26,90.46,17.26,90.46l15.29-89.99c0.55-3.26-2.01-6.22-5.32-6.14h0
		c-2.1,0.05-3.96,1.34-4.75,3.29l0,0c-2.46,6.09-10.96,6.44-13.91,0.57l-0.46-0.91c-0.75-1.5-2.3-2.42-3.97-2.38l0,0
		C812.03,199.33,810.06,201.75,810.54,204.37z"/>
	<g class="st79">
		<path d="M862.48,139.23c-0.01,0.04-0.01,0.07-0.01,0.09c-0.08,1.27-0.2,2.11-0.24,2.4c-0.01,0.07-1.24-0.04-1.24-0.04
			c-1.96-12.75-32.3-23.92-51.2-22.93c-2.12,0.11-4.02,0.6-5.72,1.35c-13.43,6.02-13.65,29.73-13.84,28.87
			c-11.28-51.41,33.15-52.45,33.15-52.45c12.39,0.45,20.92,3.98,26.77,8.89C862.7,115.95,862.92,132.82,862.48,139.23z"/>
	</g>
	
		<path style="clip-path:url(#SVGID_6_);fill:none;stroke:#E48867;stroke-width:1.3558;stroke-linecap:round;stroke-miterlimit:10;" d="
		M815.43,165.16c1.28,1.74,4.09,4.16,9.67,3.95c5.05-0.19,7.49-2.1,8.64-3.64"/>
	<path class="st79" d="M798.56,119.52c0,0,7.63,11.28,27.2,12.27c19.57,1,29.19,0.17,34.66,18.91c1.5,5.13,1.16-20.07,1.16-20.07
		S819.79,96.64,798.56,119.52z"/>
	<path class="st79" d="M803.54,118.86c0,0-8.59,18.24-11.94,30.18C788.25,160.98,784.63,114.05,803.54,118.86z"/>
	<rect x="751.04" y="75.95" class="st85" width="144.66" height="188.04"/>
</g>
<g>
	<g>
		<defs>
			<rect id="SVGID_13_" x="543.44" y="339" width="143.95" height="180.43"/>
		</defs>
		<clipPath id="SVGID_10_">
			<use xlink:href="#SVGID_13_"  style="overflow:visible;"/>
		</clipPath>
		<g class="st87">
			<path class="st95" d="M639.66,450.39h-43.84c-8.28,0-15.06-6.78-15.06-15.06v-47.04c0-8.28,6.78-15.06,15.06-15.06h43.84
				c8.28,0,15.06,6.78,15.06,15.06v47.04C654.72,443.61,647.94,450.39,639.66,450.39z"/>
			<rect x="605.6" y="435.68" class="st96" width="27.42" height="42.9"/>
			<g>
				<path class="st96" d="M660.2,403.72c0.02,3.28-2.36,6.21-5.53,6.89c-0.29,0.06-0.59,0.11-0.91,0.14
					c-0.14,0.03-0.3,0.02-0.46,0.03l-2.14,0.02l-0.04-4.47l-0.01-1l-0.06-8.12l2.16-0.02c0.2,0,0.38,0,0.56,0.02l0.01,0
					c0.28,0.01,0.55,0.05,0.81,0.1c0,0,0.01-0.01,0.01,0c1.36,0.22,2.58,0.81,3.52,1.73C659.38,400.26,660.18,401.85,660.2,403.72z"
					/>
				<path class="st96" d="M577.19,403.72c-0.02,3.28,2.36,6.21,5.53,6.89c0.29,0.06,0.59,0.11,0.91,0.14
					c0.14,0.03,0.3,0.02,0.46,0.03l2.14,0.02l0.04-4.47l0.01-1l0.06-8.12l-2.16-0.02c-0.2,0-0.38,0-0.56,0.02l-0.01,0
					c-0.28,0.01-0.55,0.05-0.81,0.1c0,0-0.01-0.01-0.01,0c-1.36,0.22-2.58,0.81-3.52,1.73
					C578.01,400.26,577.21,401.85,577.19,403.72z"/>
				<path class="st97" d="M653.36,409.27v1.13l-0.01,0.24c0,0.48,0,0.96-0.04,1.42c0,0.4-0.04,0.78-0.07,1.19
					c0,0.12-0.03,0.24-0.04,0.37c-0.41,4.96-1.92,9.65-4.26,13.81c-0.12,0.21-0.24,0.42-0.36,0.62c-3.82,6.47-9.67,11.64-16.7,14.59
					c-0.01,0.01-0.03,0.01-0.03,0.01c-2.72,1.15-5.61,1.96-8.64,2.37c-1.11,0.16-2.23,0.27-3.36,0.33c-0.45,0.03-0.9,0.03-1.37,0.03
					c-1.64,0.01-3.26-0.08-4.86-0.31c-0.45-0.05-0.92-0.11-1.35-0.2c-14.87-2.51-26.55-14.3-28.76-29.11
					c-0.23-1.58-0.37-3.21-0.37-4.86l-0.03-2.49l-0.08-11.1l-0.04-5.55c-0.01-0.85,0-1.7,0.04-2.53c0.07-1.62,0.21-3.21,0.46-4.76
					c0.31-1.83,0.77-3.61,1.45-5.33c0.8-2.04,1.7-3.99,2.77-5.84c1.29-2.23,2.81-4.29,4.67-6.14c6.33-6.37,15.19-10.32,24.88-10.4
					c7.24-0.07,14.02,2.08,19.7,5.76c0.82,0.54,1.62,1.11,2.4,1.71c3.25,2.51,6.06,5.59,8.24,9.07c0.42,0.65,0.82,1.33,1.19,2.02
					c0,0,0.01,0.01,0.01,0.03c0.61,1.13,1.18,2.31,1.64,3.52c0.09,0.21,0.17,0.41,0.25,0.66c0.57,1.45,1.09,2.96,1.49,4.51
					c0.58,2.2,0.97,4.5,1,6.86l0.01,0.34l0.01,1.35l0.01,1.49l0.01,1.88v0.01l0.01,0.11v0.32l0.01,0.89l0.04,8.09v0.9L653.36,409.27
					z"/>
			</g>
			<path class="st98" d="M654.87,394.68c-0.01,0.04-0.01,0.07-0.01,0.09c-0.11,0.9-0.19,1.72-0.24,2.4
				c-0.01,0.07-0.01,0.11-0.01,0.11c-0.11,1.38-1.18,2.48-2.55,2.65c-0.03,0-0.05,0-0.07,0.01c-1.14,0.13-2.25-0.41-2.85-1.39
				l-4.03-6.66c-5.51-10.52-40.36-11.49-40.36-11.49c-2.43,0.11-4.7-0.78-6.37-2.31c-0.8-0.72-1.45-1.58-1.92-2.53
				c-0.8-1.54-1.15-3.33-0.9-5.21c0.58-4.31,4.38-7.48,8.73-7.68l38.26-1.79C655.1,371.39,655.31,388.27,654.87,394.68z"/>
			<g>
				<path class="st96" d="M613.02,413.46c0,0,0.46,2.51,4.01,2.32c3.13-0.17,3.39-2.36,3.39-2.36L613.02,413.46z"/>
				<g>
					<path class="st99" d="M598.58,393.67c0,0,5.58-2.99,11.2,0.3"/>
				</g>
				<g class="st100">
					<path class="st101" d="M609.75,410.22c-0.02,1.42-3.02,2.53-6.7,2.47c-3.68-0.06-6.64-1.26-6.62-2.68
						c0.02-1.42,3.02-2.53,6.7-2.47C606.81,407.6,609.77,408.8,609.75,410.22z"/>
				</g>
			</g>
			<path class="st101" d="M664.86,567.91h-89.77v-94.49c0-10.1,8.18-18.28,18.28-18.28h53.22c10.1,0,18.28,8.18,18.28,18.28V567.91z
				"/>
			<path class="st102" d="M602.06,454.84c0,1.28,18.13,95.43,18.13,95.43l16.36-96.29L602.06,454.84z"/>
			<line class="st103" x1="618.76" y1="455.44" x2="620.87" y2="551.84"/>
			<g>
				<path class="st48" d="M624.06,471.48c0.03,0.82-0.42,1.49-0.99,1.51c-0.58,0.02-1.06-0.63-1.09-1.44
					c-0.03-0.82,0.42-1.49,0.99-1.51C623.55,470.02,624.04,470.67,624.06,471.48z"/>
				<path class="st48" d="M624.35,480.12c0.03,0.82-0.42,1.49-0.99,1.51c-0.58,0.02-1.06-0.63-1.09-1.44
					c-0.03-0.82,0.42-1.49,0.99-1.51C623.83,478.66,624.32,479.31,624.35,480.12z"/>
				<path class="st48" d="M624.63,488.76c0.03,0.82-0.42,1.49-0.99,1.51c-0.58,0.02-1.06-0.63-1.09-1.44
					c-0.03-0.82,0.42-1.49,0.99-1.51C624.12,487.3,624.61,487.95,624.63,488.76z"/>
			</g>
			<path class="st48" d="M641.02,460.51l-14.72,1.08c-4.32-0.04-7.75-2.78-7.71-6.96l0,0l20.22-0.5c1.69,0.01,2.97,1.47,2.72,3.09
				L641.02,460.51z"/>
			<path class="st48" d="M596.96,461.22l14.72,1.08c4.32-0.04,7.79-3.46,7.75-7.64l-0.01-0.12l-20.26,0.29
				c-1.69,0.01-2.97,1.47-2.72,3.09L596.96,461.22z"/>
			<path class="st96" d="M653.36,403.99v6.41l-0.01,0.24c0,0.48,0,0.96-0.04,1.42c0,0.4-0.04,0.78-0.07,1.19
				c0,0.12-0.03,0.24-0.04,0.37c-0.41,4.96-1.92,9.65-4.26,13.81c-0.12,0.21-0.24,0.42-0.36,0.62c-3.82,6.47-9.67,11.64-16.7,14.59
				c-0.01,0.01-0.03,0.01-0.03,0.01c-2.72,1.15-5.61,1.96-8.64,2.37c-1.11,0.16-2.23,0.27-3.36,0.33c-0.45,0.03-0.9,0.03-1.37,0.03
				c-1.64,0.01-3.26-0.08-4.86-0.31c-0.45-0.05-0.92-0.11-1.35-0.2c-14.87-2.51-26.55-14.3-28.76-29.11
				c-0.23-1.58-0.37-3.21-0.37-4.86l-0.03-2.49l-0.08-11.1v-6.41l0.08,11.1l0.03,2.49c0,1.65,0.15,3.28,0.37,4.86
				c2.22,14.81,13.89,26.6,28.76,29.11c0.44,0.09,0.9,0.15,1.35,0.2c1.59,0.23,3.21,0.32,4.86,0.31c0.46,0,0.92,0,1.37-0.03
				c1.13-0.07,2.24-0.17,3.36-0.33c3.03-0.41,5.92-1.22,8.64-2.37c0,0,0.01,0,0.03-0.01c7.03-2.96,12.88-8.12,16.7-14.59
				c0.12-0.2,0.24-0.41,0.36-0.62c2.33-4.17,3.85-8.85,4.26-13.81c0.01-0.13,0.04-0.25,0.04-0.37c0.03-0.41,0.07-0.8,0.07-1.19
				c0.01-0.08,0.01-0.17,0.01-0.25c0.03-0.38,0.03-0.77,0.03-1.17L653.36,403.99z"/>
			<path class="st98" d="M654.87,394.68c-0.01,0.04-0.01,0.07-0.01,0.09c-0.08,1.27-0.2,2.11-0.24,2.4
				c-0.01,0.07-0.01,0.11-0.01,0.11c-1.96-12.75-33.53-24.07-52.43-23.07c-2.12,0.11-4.02,0.6-5.72,1.35
				c-13.43,6.02-14.33,29.69-14.51,28.83c-11.28-51.41,33.83-52.41,33.83-52.41c12.39,0.45,20.92,3.98,26.77,8.89
				C655.1,371.39,655.31,388.27,654.87,394.68z"/>
			<path class="st104" d="M602.29,403.67v-5.86c0-0.33,0.27-0.61,0.61-0.61h1.77c0.33,0,0.61,0.27,0.61,0.61v5.86
				c0,0.33-0.27,0.61-0.61,0.61h-1.77C602.56,404.28,602.29,404,602.29,403.67z"/>
			<g>
				<g>
					<path class="st99" d="M626.28,393.67c0,0,5.58-2.99,11.2,0.3"/>
				</g>
				<g class="st100">
					<path class="st101" d="M637.44,410.22c-0.02,1.42-3.02,2.53-6.7,2.47c-3.68-0.06-6.64-1.26-6.62-2.68
						c0.02-1.42,3.02-2.53,6.7-2.47C634.5,407.6,637.47,408.8,637.44,410.22z"/>
				</g>
			</g>
			<path class="st104" d="M629.98,403.67v-5.86c0-0.33,0.27-0.61,0.61-0.61h1.77c0.33,0,0.61,0.27,0.61,0.61l0,5.86
				c0,0.33-0.27,0.61-0.61,0.61h-1.77C630.25,404.28,629.98,404,629.98,403.67z"/>
			<path class="st48" d="M606.27,418.1l21.45-0.11c0,0-2.66,7.11-10.28,7.52C609.25,425.95,606.27,418.1,606.27,418.1z"/>
		</g>
	</g>
</g>
<rect x="542.72" y="331.4" class="st105" width="138.97" height="188.04"/>
<g>
	<defs>
		<rect id="SVGID_15_" x="754.78" y="331.4" width="138.97" height="188.04"/>
	</defs>
	<clipPath id="SVGID_12_">
		<use xlink:href="#SVGID_15_"  style="overflow:visible;"/>
	</clipPath>
	
		<ellipse transform="matrix(0.7071 -0.7071 0.7071 0.7071 -7.5298 686.2034)" style="clip-path:url(#SVGID_12_);fill:#3C3C3B;" cx="824.56" cy="352.19" rx="15.09" ry="15.09"/>
	<path style="clip-path:url(#SVGID_12_);fill:#B1B1B1;" d="M876.64,577.79l-96.16,0V476.57c0-10.81,8.77-19.58,19.58-19.58h57
		c10.81,0,19.58,8.77,19.58,19.58V577.79z"/>
	<rect x="813.21" y="435.68" style="clip-path:url(#SVGID_12_);fill:#F4A891;" width="27.42" height="37.59"/>
	<g style="clip-path:url(#SVGID_12_);">
		<path class="st96" d="M867.8,403.72c0.02,3.28-2.36,6.21-5.53,6.89c-0.29,0.06-0.59,0.11-0.91,0.14c-0.14,0.03-0.3,0.02-0.47,0.03
			l-2.14,0.02l-0.04-4.47l-0.01-1l-0.06-8.12l2.16-0.02c0.2,0,0.38,0,0.56,0.02l0.01,0c0.28,0.01,0.55,0.05,0.81,0.1
			c0,0,0.01-0.01,0.01,0c1.36,0.22,2.58,0.81,3.52,1.73C866.99,400.26,867.78,401.85,867.8,403.72z"/>
		<path class="st96" d="M784.8,403.72c-0.02,3.28,2.36,6.21,5.53,6.89c0.29,0.06,0.59,0.11,0.91,0.14c0.14,0.03,0.3,0.02,0.46,0.03
			l2.14,0.02l0.04-4.47l0.01-1l0.06-8.12l-2.16-0.02c-0.2,0-0.38,0-0.56,0.02l-0.01,0c-0.28,0.01-0.55,0.05-0.81,0.1
			c0,0-0.01-0.01-0.01,0c-1.36,0.22-2.58,0.81-3.52,1.73C785.61,400.26,784.82,401.85,784.8,403.72z"/>
		<path class="st97" d="M860.97,409.27v1.13l-0.01,0.24c0,0.48,0,0.96-0.04,1.42c0,0.4-0.04,0.78-0.07,1.19
			c0,0.12-0.03,0.24-0.04,0.37c-0.41,4.96-1.92,9.65-4.26,13.81c-0.12,0.21-0.24,0.42-0.36,0.62c-3.82,6.47-9.67,11.64-16.7,14.59
			c-0.01,0.01-0.03,0.01-0.03,0.01c-2.72,1.15-5.61,1.96-8.64,2.37c-1.11,0.16-2.23,0.27-3.36,0.33c-0.45,0.03-0.9,0.03-1.37,0.03
			c-1.64,0.01-3.26-0.08-4.86-0.31c-0.45-0.05-0.92-0.11-1.35-0.2c-14.87-2.51-26.55-14.3-28.76-29.11
			c-0.23-1.58-0.37-3.21-0.37-4.86l-0.03-2.49l-0.08-11.1l-0.04-5.55c-0.01-0.85,0-1.7,0.04-2.53c0.07-1.62,0.21-3.21,0.46-4.76
			c0.31-1.83,0.77-3.61,1.45-5.33c0.8-2.04,1.7-3.99,2.77-5.84c1.29-2.23,2.81-4.29,4.67-6.14c6.33-6.37,15.19-10.32,24.88-10.4
			c7.24-0.07,14.02,2.08,19.7,5.76c0.82,0.54,1.62,1.11,2.4,1.71c3.25,2.51,6.06,5.59,8.24,9.07c0.42,0.65,0.82,1.33,1.19,2.02
			c0,0,0.01,0.01,0.01,0.03c0.61,1.13,1.18,2.31,1.64,3.52c0.09,0.21,0.17,0.41,0.25,0.66c0.57,1.45,1.09,2.96,1.49,4.51
			c0.58,2.2,0.97,4.5,1,6.86l0.01,0.34l0.01,1.35l0.01,1.49l0.01,1.88v0.01l0.01,0.11v0.32l0.01,0.89l0.04,8.09v0.9L860.97,409.27z"
			/>
	</g>
	<path style="clip-path:url(#SVGID_12_);fill:#EB144C;" d="M809.67,454.84c0,1.28,18.13,95.43,18.13,95.43l16.36-96.29l-9.84,0.24
		l-7.62,18.86l-9.27-18.44L809.67,454.84z"/>
	<g style="clip-path:url(#SVGID_12_);">
		<path class="st96" d="M860.87,396.8c-0.01,0.04,0.11,2.99,0.11,2.99c-1.96-12.75-32.3-23.92-51.2-22.93
			c-2.12,0.11-4.02,0.6-5.72,1.35c-13.43,6.02-13.72,29.75-13.84,28.87c-6.63-50.42,33.15-52.45,33.15-52.45
			c12.39,0.45,20.92,3.98,26.77,8.89C862.7,374.05,861.31,390.39,860.87,396.8z"/>
		<ellipse class="st96" cx="813.78" cy="380.44" rx="9.4" ry="8.96"/>
		<ellipse class="st96" cx="831.24" cy="380.44" rx="9.4" ry="8.96"/>
		<ellipse class="st96" cx="844.95" cy="381.77" rx="9.4" ry="8.96"/>
	</g>
	<g style="clip-path:url(#SVGID_12_);">
		<path class="st30" d="M862.48,394.68c-0.01,0.04-0.01,0.07-0.01,0.09c-0.08,1.27-0.2,2.11-0.24,2.4
			c-0.01,0.07-1.24-0.04-1.24-0.04c-1.96-12.75-32.3-23.92-51.2-22.93c-2.12,0.11-4.02,0.6-5.72,1.35
			c-13.43,6.02-13.65,29.73-13.84,28.87c-11.28-51.41,33.15-52.45,33.15-52.45c12.39,0.45,20.92,3.98,26.77,8.89
			C862.7,371.39,862.92,388.27,862.48,394.68z"/>
		<ellipse class="st30" cx="813.78" cy="377.79" rx="9.4" ry="8.96"/>
		<ellipse class="st30" cx="831.24" cy="377.79" rx="9.4" ry="8.96"/>
		<ellipse class="st30" cx="844.95" cy="379.11" rx="9.4" ry="8.96"/>
		<path class="st30" d="M857.15,384.97c0-0.92,0,16.05,0,22.26c0,1.23,1,2.23,2.23,2.23l0,0c1.23,0,2.23-1,2.23-2.23v-20.68
			C861.62,386.55,857.15,385.42,857.15,384.97z"/>
		<path class="st30" d="M789.56,384.97c0-0.9,0,15.76,0,21.86c0,1.21,0.98,2.19,2.19,2.19l0,0c1.21,0,2.19-0.98,2.19-2.19v-20.31
			C793.95,386.52,789.56,385.41,789.56,384.97z"/>
	</g>
	<path style="clip-path:url(#SVGID_12_);fill:#D93838;" d="M828.26,423.67h-7.3c-0.73,0-1.33-0.6-1.33-1.33l0,0
		c0-0.73,0.6-1.33,1.33-1.33h7.3c0.73,0,1.33,0.6,1.33,1.33l0,0C829.59,423.07,828.99,423.67,828.26,423.67z"/>
	<path style="clip-path:url(#SVGID_12_);fill:#D93838;" d="M828.31,426.04h-7.15c-0.3,0-0.54-0.24-0.54-0.54v-1.57
		c0-0.3,0.24-0.54,0.54-0.54h7.15c0.3,0,0.54,0.24,0.54,0.54v1.57C828.85,425.8,828.61,426.04,828.31,426.04z"/>
	<rect x="751.04" y="331.39" style="clip-path:url(#SVGID_12_);fill:none;" width="144.66" height="188.04"/>
</g>
<g>
	<defs>
		<rect id="SVGID_17_" x="325.25" y="74.13" width="139.6" height="188.04"/>
	</defs>
	<clipPath id="SVGID_14_">
		<use xlink:href="#SVGID_17_"  style="overflow:visible;"/>
	</clipPath>
	<g class="st94">
		<g>
			<defs>
				<rect id="SVGID_19_" x="328.32" y="77.31" width="137.98" height="184.86"/>
			</defs>
			<clipPath id="SVGID_16_">
				<use xlink:href="#SVGID_19_"  style="overflow:visible;"/>
			</clipPath>
		</g>
	</g>
	<path style="clip-path:url(#SVGID_14_);fill:#EB144C;" d="M304.68,294.43c1.06-2.4,43.69-71.65,59.42-79.51
		c15.73-7.86,58.54-4.37,66.41,1.75c7.86,6.12,51.53,68.49,56.79,81.26c6.12,14.85,0,34.08-6.99,34.08c-6.99,0-164.27,0-164.27,0
		S291.57,324.14,304.68,294.43z"/>
	<path style="clip-path:url(#SVGID_14_);fill:#1D1D1B;" d="M427.44,186.95h-55.16c-7.3,0-13.21-5.92-13.21-13.21v-63.23
		c0-9.17,7.44-16.61,16.61-16.61h48.36c9.17,0,16.61,7.44,16.61,16.61v63.23C440.66,181.04,434.74,186.95,427.44,186.95z"/>
	<path style="clip-path:url(#SVGID_14_);fill:#F4A891;" d="M369.89,142.32l-0.55,9.52l-0.38,6.43l-2.87-0.13
		c-0.21-0.01-0.42-0.02-0.62-0.06c-4.78-0.51-8.39-4.35-8.15-8.57c0.12-2.19,1.27-4.02,3.03-5.4c1.57-1.23,3.64-1.89,5.9-1.92h0.01
		c0.26-0.02,0.48-0.02,0.75,0L369.89,142.32z"/>
	<path style="clip-path:url(#SVGID_14_);fill:#F4A891;" d="M432.46,142.54l0.55,9.52l0.38,6.43l2.87-0.13
		c0.21-0.01,0.42-0.02,0.62-0.06c4.78-0.51,8.39-4.35,8.15-8.57c-0.12-2.19-1.27-4.02-3.03-5.4c-1.57-1.23-3.64-1.89-5.9-1.92h-0.01
		c-0.26-0.02-0.48-0.02-0.75,0L432.46,142.54z"/>
	<path style="clip-path:url(#SVGID_14_);fill:#F4A891;" d="M407.78,218.87h-16.77c-3.17,0-5.76-2.59-5.76-5.76v-40.93
		c0-3.17,2.59-5.76,5.76-5.76h16.77c3.17,0,5.76,2.59,5.76,5.76v40.93C413.54,216.28,410.95,218.87,407.78,218.87z"/>
	<path style="clip-path:url(#SVGID_14_);fill:#FFC7B0;" d="M436.16,141.4l-0.85,16.57l-0.12,2.48c-0.07,1.63-0.29,3.25-0.59,4.81
		c-2.56,13.17-12.64,23.58-25.49,26.88c-1.43,0.37-2.9,0.65-4.4,0.84c-0.45,0.07-0.91,0.11-1.36,0.14c-0.95,0.1-1.9,0.15-2.86,0.15
		c-0.69,0-1.37-0.02-2.07-0.05c-1.57-0.09-3.09-0.27-4.6-0.56c-0.62-0.11-1.23-0.25-1.85-0.4c-2.33-0.55-4.55-1.35-6.66-2.34
		c0,0-0.01,0-0.02-0.01c-10.1-4.78-17.46-14.18-19.46-25.24c-0.01-0.04-0.01-0.06-0.01-0.1c-0.2-1.2-0.35-2.41-0.44-3.63
		c-0.04-0.39-0.05-0.76-0.06-1.15c-0.01-0.4-0.03-0.79-0.01-1.18c-0.02-0.46,0-0.94,0.02-1.41v-0.25l0.05-1.13l0.16-2.96l0.25-5.06
		v-0.05l0.25-5.11l0.01-0.1v-0.01l0.1-1.88l0.07-1.47l0.07-1.35l0.02-0.35c0.14-2.34,0.61-4.61,1.3-6.78
		c0.46-1.52,1.03-3.01,1.67-4.43c0.09-0.24,0.17-0.44,0.27-0.65c0.52-1.17,1.13-2.33,1.8-3.43c0-0.01,0.01-0.03,0.01-0.03
		c2.51-4.19,5.88-7.82,9.87-10.62c0.8-0.56,1.62-1.1,2.46-1.6c5.82-3.42,12.66-5.25,19.86-4.88c9.64,0.5,18.28,4.83,24.3,11.43
		c1.77,1.95,3.22,4.07,4.4,6.36c0.98,1.86,1.8,3.82,2.49,5.89c0.45,1.3,0.77,2.63,1.01,3.98c0,0,0,0.01,0,0.03
		c0.07,0.46,0.14,0.91,0.19,1.37c0.1,0.81,0.17,1.63,0.21,2.47C436.26,138.16,436.24,139.77,436.16,141.4z"/>
	<path style="clip-path:url(#SVGID_14_);fill:#FFFFFF;" d="M410.02,168.3c-3.35,4.92-6.44,8.19-11.02,7.48
		c-3.84-0.6-6.96-3.48-8.88-7.76L410.02,168.3z"/>
	<path style="clip-path:url(#SVGID_14_);fill:#1D1D1B;" d="M390.2,120.44l19.85,6.14c3.13,0.97,6-2.08,4.85-5.15l-0.13-0.34
		l2.39,1.27c7.01,3.73,12.68,9.55,16.24,16.65l4.53,9.05c0,0,10.7-45.87-39.54-46.96c-40.1-0.87-35.06,39.32-35.06,39.32
		S372.17,117.82,390.2,120.44z"/>
	<path style="clip-path:url(#SVGID_14_);fill:#EB144C;" d="M444.92,249.9l-2.98,126.15l-95.52,0.88l-2.5-127.03
		c0-21.29,15.41-38.99,35.69-42.56c2.44-0.42,4.94-0.64,7.51-0.64h14.6C425.58,206.7,444.92,226.05,444.92,249.9z"/>
	<g class="st94">
		<polygon class="st48" points="418.06,377.82 380.03,377.82 380.12,204.08 418.79,204.08 		"/>
	</g>
	<path style="clip-path:url(#SVGID_14_);fill:#575756;" d="M389.87,205.63c0.66,0.98,10.49,15.07,10.49,15.07l11.8-14.42l-5.57-4.91
		l-10.81,1.31L389.87,205.63z"/>
	<polygon style="clip-path:url(#SVGID_14_);fill:#FFFFFF;" points="419.22,213.91 401.09,203.26 379.9,213.91 379.9,200.8 
		419.22,200.8 	"/>
	<polygon style="clip-path:url(#SVGID_14_);fill:#575756;" points="407.23,261.66 393.49,261.66 396.42,211.86 405.27,211.86 	"/>
	<path style="clip-path:url(#SVGID_14_);fill:#1D1D1B;" d="M369.71,117.54l-1.2,30.22c-0.06,1.43-1.37,2.49-2.78,2.24l0,0
		c-1.11-0.2-1.93-1.16-1.95-2.29l-0.46-25.58L369.71,117.54z"/>
	<path style="clip-path:url(#SVGID_14_);fill:#1D1D1B;" d="M432.63,119.35l1.2,30.22c0.06,1.43,1.37,2.49,2.78,2.24l0,0
		c1.11-0.2,1.93-1.16,1.95-2.29l0.46-25.58L432.63,119.35z"/>
	<rect x="328.32" y="77.31" style="clip-path:url(#SVGID_14_);fill:none;" width="137.98" height="184.86"/>
</g>
<g>
	<defs>
		<rect id="SVGID_21_" x="325.25" y="331.98" width="139.6" height="188.04"/>
	</defs>
	<clipPath id="SVGID_18_">
		<use xlink:href="#SVGID_21_"  style="overflow:visible;"/>
	</clipPath>
	<g class="st113">
		<g>
			<defs>
				<rect id="SVGID_23_" x="328.32" y="334.58" width="137.98" height="184.86"/>
			</defs>
			<clipPath id="SVGID_20_">
				<use xlink:href="#SVGID_23_"  style="overflow:visible;"/>
			</clipPath>
		</g>
	</g>
	<path class="st114" d="M306,551.36c1.06-2.4,43.69-71.65,59.42-79.51c15.73-7.86,57.85-3.64,65.72,2.48
		c7.86,6.12,52.22,67.76,57.48,80.53c6.12,14.85,0,34.08-6.99,34.08c-6.99,0-164.27,0-164.27,0S292.9,581.07,306,551.36z"/>
	<path class="st114" d="M446.91,507.5l-2.98,126.15l-95.52,0.88l-2.5-127.03c0-21.29,15.41-38.99,35.69-42.56
		c2.44-0.42,4.94-0.64,7.51-0.64h14.6C427.57,464.3,446.91,483.65,446.91,507.5z"/>
	<path class="st115" d="M427.44,444.22h-55.16c-7.3,0-13.21-5.92-13.21-13.21v-63.23c0-9.17,7.44-16.61,16.61-16.61h48.36
		c9.17,0,16.61,7.44,16.61,16.61v63.23C440.66,438.31,434.74,444.22,427.44,444.22z"/>
	<path class="st116" d="M369.89,399.59l-0.55,9.52l-0.38,6.43l-2.87-0.13c-0.21-0.01-0.42-0.02-0.62-0.06
		c-4.78-0.51-8.39-4.35-8.15-8.57c0.12-2.19,1.27-4.02,3.03-5.4c1.57-1.23,3.64-1.89,5.9-1.92h0.01c0.26-0.02,0.48-0.02,0.75,0
		L369.89,399.59z"/>
	<path class="st116" d="M432.46,399.81l0.55,9.52l0.38,6.43l2.87-0.13c0.21-0.01,0.42-0.02,0.62-0.06c4.78-0.51,8.39-4.35,8.15-8.57
		c-0.12-2.19-1.27-4.02-3.03-5.4c-1.57-1.23-3.64-1.89-5.9-1.92h-0.01c-0.26-0.02-0.48-0.02-0.75,0L432.46,399.81z"/>
	<path class="st116" d="M407.78,479.97h-16.77c-3.17,0-5.76-2.59-5.76-5.76v-44.75c0-3.17,2.59-5.76,5.76-5.76h16.77
		c3.17,0,5.76,2.59,5.76,5.76v44.75C413.54,477.37,410.95,479.97,407.78,479.97z"/>
	<path class="st117" d="M436.11,398.68l-0.85,16.55l-0.12,2.48c-0.07,1.63-0.29,3.25-0.58,4.81c-2.55,13.15-12.63,23.55-25.45,26.85
		c-1.43,0.37-2.9,0.65-4.4,0.83c-0.45,0.07-0.91,0.11-1.36,0.14c-0.95,0.1-1.89,0.15-2.85,0.15c-0.69,0-1.37-0.02-2.07-0.05
		c-1.57-0.09-3.09-0.27-4.59-0.56c-0.62-0.11-1.23-0.25-1.84-0.4c-2.33-0.55-4.54-1.34-6.65-2.34c0,0-0.01,0-0.02-0.01
		c-10.09-4.77-17.43-14.16-19.44-25.2c-0.01-0.04-0.01-0.06-0.01-0.1c-0.2-1.2-0.35-2.4-0.44-3.62c-0.04-0.39-0.05-0.76-0.06-1.15
		c-0.01-0.4-0.02-0.78-0.01-1.18c-0.02-0.46,0-0.93,0.02-1.41v-0.25l0.05-1.13l0.16-2.95l0.25-5.06v-0.05l0.25-5.11l0.01-0.1v-0.01
		l0.1-1.88l0.07-1.47l0.07-1.34l0.02-0.35c0.14-2.34,0.61-4.61,1.29-6.77c0.46-1.52,1.03-3,1.67-4.42c0.09-0.24,0.17-0.44,0.27-0.65
		c0.52-1.17,1.13-2.33,1.79-3.42c0-0.01,0.01-0.03,0.01-0.03c2.5-4.18,5.88-7.81,9.86-10.61c0.8-0.56,1.62-1.1,2.45-1.59
		c5.81-3.41,12.64-5.24,19.83-4.87c9.62,0.5,18.25,4.82,24.27,11.42c1.77,1.94,3.21,4.06,4.4,6.35c0.98,1.86,1.79,3.81,2.49,5.88
		c0.45,1.29,0.77,2.63,1.01,3.97c0,0,0,0.01,0,0.02c0.07,0.46,0.14,0.91,0.19,1.37c0.1,0.81,0.17,1.63,0.21,2.47
		C436.21,395.44,436.2,397.05,436.11,398.68z"/>
	<rect x="328.32" y="334.58" class="st120" width="137.98" height="184.86"/>
	<path class="st115" d="M371.27,380.13l-4.23,28.08c-0.2,1.3-1.66,1.97-2.78,1.27l0,0c-0.5-0.31-0.81-0.84-0.85-1.43l-1.27-20.46
		C362.15,387.6,368.95,370.68,371.27,380.13z"/>
	<path class="st115" d="M429.64,383.78l4.23,28.08c0.2,1.3,1.66,1.97,2.78,1.27l0,0c0.5-0.31,0.81-0.84,0.85-1.43l1.27-26.1
		C438.77,385.61,431.97,374.33,429.64,383.78z"/>
	<path class="st115" d="M366.25,399.46l7.79-9.54c1.83-2.24,3.43-4.67,4.77-7.24l4.79-9.19c0,0,42.01,2.65,49.09,26.09l5.75-15.92
		c0,0-12.82-35.38-45.55-26.98C360.16,365.1,366.25,399.46,366.25,399.46z"/>
	<path class="st115" d="M416.32,354.92c0,0,30.51,15.92,30.51,17.25c0,1.33-9.73,9.29-19.9,4.42
		C416.76,371.73,416.32,354.92,416.32,354.92z"/>
	<path class="st115" d="M415.44,362.89c0,0,30.51,15.92,30.51,17.25c0,1.33-9.73,9.29-19.9,4.42
		C415.88,379.69,415.44,362.89,415.44,362.89z"/>
	<path style="clip-path:url(#SVGID_18_);fill:#FBFCFC;" d="M385.03,463.05c0,0,1,13.43,13.27,13.6
		c12.27,0.17,15.42-13.93,15.42-13.93l2.16,3.48c0,0-0.33,14.95-17.25,14.59c-15.75-0.33-16.25-14.1-16.42-15.92L385.03,463.05z"/>
	<path style="clip-path:url(#SVGID_18_);fill:none;stroke:#E48867;stroke-width:1.3558;stroke-miterlimit:10;" d="M408.62,425.61
		c-1.96,2.03-5,3.22-8.35,3.05c-2.81-0.14-5.31-1.22-7.07-2.87"/>
</g>
<path class="st48" d="M665.69,484.97c-0.65,0.38-1.3,0.76-1.97,1.14c-28.44,16.15-61.78,16.22-89.34,3.02
	c-6.01-2.88-11.74-6.39-17.09-10.5c-9.84-7.55-18.37-17.16-24.89-28.62c-26.17-46.42-10.17-105.37,36.27-131.53
	c34.61-19.72,76.27-15.6,106.06,7.14c9.99,7.62,18.65,17.34,25.27,28.95C725.96,400.15,710.43,458.09,665.69,484.97z"/>
<path class="st3" d="M665.69,484.97c-0.65,0.38-1.3,0.76-1.97,1.14c-28.44,16.15-61.78,16.22-89.34,3.02
	c6.31-7.06,14.18-12.7,23.05-16.4c7.58-3.17,15.9-4.91,24.64-4.91c7.98,0,15.64,1.46,22.69,4.14
	C652.59,474.92,659.67,479.37,665.69,484.97z"/>
<path class="st64" d="M650.17,461.05h-62.56c-11.82,0-21.49-9.67-21.49-21.49v-67.13c0-11.82,9.67-21.49,21.49-21.49h62.56
	c11.82,0,21.49,9.67,21.49,21.49v67.13C671.66,451.38,661.99,461.05,650.17,461.05z"/>
<rect x="601.57" y="440.06" class="st96" width="39.13" height="61.22"/>
<path class="st96" d="M679.48,394.45c0.03,4.68-3.37,8.86-7.89,9.83c-0.42,0.09-0.85,0.16-1.3,0.19c-0.2,0.05-0.43,0.04-0.66,0.04
	l-3.06,0.03l-0.06-6.39l-0.01-1.43l-0.08-11.59l3.08-0.03c0.29-0.01,0.54,0.01,0.8,0.04l0.02,0c0.39,0.02,0.78,0.07,1.16,0.14
	c0,0,0.02-0.02,0.02,0c1.93,0.32,3.69,1.16,5.02,2.47C678.32,389.52,679.45,391.78,679.48,394.45z"/>
<path class="st96" d="M561.03,394.45c-0.03,4.68,3.37,8.86,7.89,9.83c0.42,0.09,0.85,0.16,1.3,0.19c0.2,0.05,0.43,0.04,0.66,0.04
	l3.06,0.03l0.06-6.39l0.01-1.43l0.08-11.59l-3.08-0.03c-0.29-0.01-0.54,0.01-0.8,0.04l-0.02,0c-0.39,0.02-0.78,0.07-1.16,0.14
	c0,0-0.02-0.02-0.02,0c-1.93,0.32-3.69,1.16-5.02,2.47C562.19,389.52,561.05,391.78,561.03,394.45z"/>
<path class="st97" d="M669.72,402.37v1.61l-0.02,0.34c0,0.68,0,1.36-0.06,2.03c0,0.57-0.06,1.12-0.09,1.7
	c0,0.17-0.04,0.34-0.06,0.53c-0.59,7.08-2.75,13.76-6.08,19.71c-0.17,0.3-0.34,0.61-0.51,0.89c-5.45,9.24-13.8,16.6-23.84,20.83
	c-0.02,0.02-0.04,0.02-0.04,0.02c-3.88,1.65-8.01,2.8-12.33,3.39c-1.59,0.23-3.18,0.38-4.79,0.47c-0.64,0.04-1.29,0.04-1.95,0.04
	c-2.35,0.02-4.66-0.11-6.93-0.44c-0.64-0.08-1.31-0.15-1.93-0.28c-21.22-3.58-37.89-20.41-41.05-41.54
	c-0.32-2.25-0.53-4.58-0.53-6.93l-0.04-3.56l-0.11-15.85l-0.06-7.91c-0.02-1.21,0-2.42,0.06-3.62c0.09-2.31,0.3-4.58,0.66-6.8
	c0.44-2.61,1.1-5.15,2.06-7.61c1.14-2.92,2.42-5.7,3.96-8.33c1.84-3.18,4.01-6.12,6.66-8.77c9.03-9.09,21.68-14.73,35.5-14.84
	c10.34-0.09,20.01,2.97,28.12,8.22c1.17,0.78,2.31,1.59,3.43,2.44c4.64,3.58,8.65,7.97,11.76,12.95c0.61,0.93,1.17,1.89,1.7,2.88
	c0,0,0.02,0.02,0.02,0.04c0.87,1.61,1.68,3.29,2.35,5.02c0.13,0.3,0.25,0.59,0.36,0.95c0.81,2.06,1.55,4.22,2.12,6.44
	c0.83,3.14,1.38,6.42,1.42,9.79l0.02,0.49l0.02,1.93l0.02,2.12l0.02,2.69v0.02l0.02,0.15v0.45l0.02,1.27l0.06,11.55v1.29
	L669.72,402.37z"/>
<path class="st64" d="M671.88,381.55c-0.02,0.06-0.02,0.09-0.02,0.13c-0.15,1.29-0.27,2.46-0.34,3.43
	c-0.02,0.09-0.02,0.15-0.02,0.15c-0.15,1.97-1.69,3.54-3.64,3.79c-0.04,0-0.08,0-0.1,0.02c-1.63,0.19-3.22-0.59-4.07-1.99l-5.76-9.5
	c-7.86-15.01-57.6-16.4-57.6-16.4c-3.46,0.15-6.7-1.12-9.09-3.29c-1.14-1.02-2.06-2.25-2.75-3.62c-1.14-2.2-1.65-4.75-1.29-7.44
	c0.83-6.15,6.25-10.68,12.46-10.96l54.6-2.56C672.2,348.32,672.5,372.4,671.88,381.55z"/>
<path class="st129" d="M645.29,468.92l-0.51,3.04l-8.12,46.12h-30.43c-3.83-20.02-7.21-36.72-8.78-45.35
	c-0.59-3.22-0.92-5.13-0.92-5.33L645.29,468.92z"/>
<line class="st130" x1="620.35" y1="468.26" x2="621.14" y2="504.29"/>
<g>
	<path class="st48" d="M627.91,491.15c0.04,1.17-0.6,2.13-1.42,2.16c-0.82,0.03-1.52-0.9-1.56-2.06c-0.04-1.17,0.6-2.13,1.42-2.16
		C627.18,489.07,627.87,489.99,627.91,491.15z"/>
	<path class="st48" d="M628.32,503.49c0.04,1.17-0.6,2.13-1.42,2.16c-0.82,0.03-1.52-0.9-1.56-2.06c-0.04-1.17,0.6-2.13,1.42-2.16
		C627.58,501.4,628.28,502.32,628.32,503.49z"/>
	<path class="st48" d="M628.73,515.82c0.04,1.17-0.6,2.13-1.42,2.16c-0.82,0.03-1.52-0.9-1.56-2.06c-0.04-1.17,0.6-2.13,1.42-2.16
		C627.99,513.73,628.69,514.65,628.73,515.82z"/>
</g>
<path class="st65" d="M652.11,475.5l-21,1.55c-6.17-0.05-11.06-3.96-11-9.93l0,0l28.86-0.72c2.41,0.02,4.24,2.1,3.88,4.41
	L652.11,475.5z"/>
<path class="st65" d="M589.23,476.52l21,1.55c6.17-0.05,11.12-4.93,11.06-10.9l-1.78-0.14l-27.14,0.39
	c-2.41,0.02-4.24,2.1-3.88,4.41L589.23,476.52z"/>
<path class="st96" d="M669.72,394.84v9.14l-0.02,0.34c0,0.68,0,1.36-0.06,2.03c0,0.57-0.06,1.12-0.09,1.7
	c0,0.17-0.04,0.34-0.06,0.53c-0.59,7.08-2.75,13.76-6.08,19.71c-0.17,0.3-0.34,0.61-0.51,0.89c-5.45,9.24-13.8,16.6-23.84,20.83
	c-0.02,0.02-0.04,0.02-0.04,0.02c-3.88,1.65-8.01,2.8-12.33,3.39c-1.59,0.23-3.18,0.38-4.79,0.47c-0.64,0.04-1.29,0.04-1.95,0.04
	c-2.35,0.02-4.66-0.11-6.93-0.44c-0.64-0.08-1.31-0.15-1.93-0.28c-21.22-3.58-37.89-20.41-41.05-41.54
	c-0.32-2.25-0.53-4.58-0.53-6.93l-0.04-3.56l-0.11-15.85l0-9.14l0.11,15.85l0.04,3.56c0,2.35,0.21,4.68,0.53,6.93
	c3.16,21.13,19.82,37.96,41.05,41.54c0.62,0.13,1.29,0.21,1.93,0.28c2.27,0.32,4.58,0.45,6.93,0.44c0.66,0,1.31,0,1.95-0.04
	c1.61-0.09,3.2-0.25,4.79-0.47c4.32-0.59,8.44-1.74,12.33-3.39c0,0,0.02,0,0.04-0.02c10.03-4.22,18.38-11.59,23.84-20.83
	c0.17-0.28,0.34-0.59,0.51-0.89c3.33-5.95,5.49-12.63,6.08-19.71c0.02-0.19,0.06-0.36,0.06-0.53c0.04-0.59,0.09-1.14,0.09-1.7
	c0.02-0.11,0.02-0.25,0.02-0.36c0.04-0.55,0.04-1.1,0.04-1.67L669.72,394.84z"/>
<path class="st64" d="M671.88,381.55c-0.02,0.06-0.02,0.09-0.02,0.13c-0.11,1.82-0.28,3.01-0.34,3.43
	c-0.02,0.09-0.02,0.15-0.02,0.15c-2.8-18.2-47.85-34.35-74.83-32.93c-3.03,0.15-5.74,0.85-8.16,1.93
	c-19.16,8.6-20.45,42.37-20.71,41.14c-16.09-73.37,48.28-74.79,48.28-74.79c17.68,0.64,29.86,5.68,38.21,12.69
	C672.2,348.32,672.5,372.4,671.88,381.55z"/>
<path class="st48" d="M602.51,414.97l30.61-0.16c0,0-3.8,10.14-14.67,10.73C606.77,426.17,602.51,414.97,602.51,414.97z"/>
<path class="st97" d="M734.55,595.19c25.35-10.71,53.34-18.48,80.34-13.19c17.34,3.4,92.22,19.09,92.22,19.09s-2.34,69.17-0.8,72.63
	c7.97,17.89-152.53,30.85-152.53,30.85S719.86,601.39,734.55,595.19z"/>
<path class="st96" d="M809.73,698.45c0,0-26.4-89.57-28.91-90.1c-2.5-0.53-55.97-17.97-55.97-17.97s56.13,109.79,58.01,109.85
	C784.75,700.29,809.73,698.45,809.73,698.45z"/>
<path class="st72" d="M775.28,725.41l-125.5-231.22l10.68-5.8l19.54-10.6l125.51,231.21c3.38,6.24,2.52,13.66-1.64,18.89
	c-1.4,1.76-3.17,3.29-5.27,4.44C790.25,736.85,779.82,733.76,775.28,725.41z"/>
<path class="st72" d="M673.48,548.88l36.22-19.66c2.82-1.53,3.87-5.09,2.34-7.91l-8.1-14.92c-1.53-2.82-5.09-3.87-7.91-2.34
	l-36.22,19.66c-2.82,1.53-3.87,5.09-2.34,7.91l8.1,14.92C667.1,549.36,670.66,550.41,673.48,548.88z"/>
<g>
	<path class="st72" d="M717.68,343.94c-7.96-14.05-18.41-25.81-30.48-35.04c-36.1-27.63-86.74-32.69-128.88-8.74
		c-56.06,31.75-75.74,103.13-43.79,159.35c7.94,13.97,18.31,25.69,30.28,34.9c36.2,27.92,87.01,33.06,129.27,9.05
		C730.12,471.36,749.79,399.99,717.68,343.94z M663.73,485.63c-34.64,19.67-76.57,15.49-106.44-7.48
		c-9.84-7.55-18.37-17.16-24.89-28.62c-26.17-46.42-10.17-105.37,36.27-131.53c34.61-19.72,76.27-15.6,106.06,7.14
		c9.99,7.62,18.65,17.34,25.27,28.95C726.34,400.34,709.97,459.29,663.73,485.63z"/>
</g>
<path class="st96" d="M666.45,621.55l0,0.14c-0.04,1.24,0.07,2.51,0.36,3.77c1.81,7.99,9.84,13.02,17.81,11.2l35.24-8.05
	c6.71-1.54,11.34-7.46,11.55-14.05c0.04-1.24-0.07-2.51-0.36-3.77c0-0.03-0.01-0.05-0.01-0.08c-1.88-7.93-9.85-12.94-17.81-11.11
	l-35.22,8.04C671.33,609.16,666.72,615.01,666.45,621.55z"/>
<path class="st97" d="M666.45,621.55c1.89,7.9,9.87,12.88,17.8,11.07l35.22-8.05c6.66-1.51,11.26-7.34,11.56-13.85
	c-1.88-7.93-9.85-12.94-17.81-11.11l-35.22,8.04C671.33,609.16,666.72,615.01,666.45,621.55z"/>
<path class="st96" d="M692.82,646.32l0,0.06c-0.04,1.24,0.07,2.51,0.36,3.79c1.84,8.03,9.92,13.11,17.96,11.28l39.34-8.99
	c6.76-1.55,11.43-7.5,11.65-14.15c0.04-1.25-0.09-2.52-0.38-3.8c-0.07-0.29-0.13-0.58-0.23-0.85c-2.17-7.53-9.97-12.19-17.73-10.43
	l-39.33,8.99C697.71,633.76,693.06,639.7,692.82,646.32z"/>
<path class="st97" d="M692.82,646.32c2.21,7.52,9.98,12.16,17.71,10.39l39.34-8.98c6.72-1.55,11.4-7.47,11.64-14.08
	c-2.17-7.53-9.97-12.19-17.73-10.43l-39.33,8.99C697.71,633.76,693.06,639.7,692.82,646.32z"/>
<path class="st96" d="M714.21,670.66c-0.03,0.86,0.02,1.75,0.17,2.63c0.05,0.26,0.1,0.5,0.16,0.76c1.64,7.21,8.89,11.76,16.09,10.12
	l33.56-7.67c6.07-1.39,10.24-6.74,10.44-12.7c0.04-1.12-0.06-2.25-0.33-3.39c-0.19-0.82-0.45-1.6-0.77-2.34
	c-2.5-5.82-8.93-9.24-15.32-7.77l-33.56,7.65C718.59,659.35,714.4,664.71,714.21,670.66z"/>
<path class="st97" d="M714.21,670.66c-0.03,0.86,0.02,1.75,0.17,2.63c2.5,5.85,8.93,9.29,15.33,7.83l33.56-7.67
	c6.07-1.39,10.24-6.74,10.44-12.68c0.03-0.88-0.03-1.78-0.19-2.69c-2.5-5.82-8.93-9.24-15.32-7.77l-33.56,7.65
	C718.59,659.35,714.4,664.71,714.21,670.66z"/>
<path class="st96" d="M732.51,694.29l0.25,1.67c0.04,0.26,0.07,0.5,0.14,0.74c1.23,5.97,6.99,10.07,13.1,9.2l33.38-4.77
	c6.37-0.91,10.85-6.87,9.94-13.26l-0.25-1.67c-0.22-1.56-0.75-3.01-1.54-4.31c-2.34-3.94-6.9-6.31-11.71-5.62l-33.38,4.77
	C736.08,681.96,731.6,687.92,732.51,694.29z"/>
<path class="st97" d="M732.51,694.29l0.25,1.67c0.04,0.26,0.07,0.5,0.14,0.74c2.32,3.94,6.9,6.31,11.71,5.62l33.38-4.77
	c6.37-0.9,10.85-6.87,9.94-13.24l-0.25-1.67c-0.04-0.26-0.07-0.5-0.14-0.74c-2.34-3.94-6.9-6.31-11.71-5.62l-33.38,4.77
	C736.08,681.96,731.6,687.92,732.51,694.29z"/>
<path class="st97" d="M841.25,623.45l-81.75-22.44l-36.01-12.15c-11.99-3.29-18.35-10.92-19.21-23.35c-0.02-0.36-0.04-0.7-0.03-1.06
	c0.05-1.5,0.42-2.9,1.07-4.15c1.29-2.54,4.09-3.09,7.19-2.8c1.82,0.15,3.74,0.6,5.52,1.1l12.4,4.26l20.87,7.16l68.01,12.89
	L841.25,623.45z"/>
<g class="st131">
	<path class="st132" d="M708.3,605.87l5.89-1.6c0.7-0.19,1.41-0.29,2.13-0.29c3.77,0,7.01,2.57,7.88,6.25
		c1.02,4.32-1.66,8.69-5.98,9.73l-6.32,1.53L708.3,605.87z"/>
</g>
<g class="st131">
	<path class="st132" d="M739.75,630.03l5.75-1.55c0.68-0.18,1.38-0.28,2.08-0.28c3.69,0,6.86,2.49,7.7,6.05
		c0.99,4.18-1.62,8.41-5.84,9.42l-6.18,1.48L739.75,630.03z"/>
</g>
<g class="st131">
	<path class="st132" d="M754.97,656.7l5.44-1.4c0.65-0.17,1.31-0.25,1.98-0.25c3.53,0,6.55,2.27,7.37,5.53
		c0.44,1.78,0.16,3.63-0.81,5.21c-1.04,1.69-2.71,2.87-4.72,3.33l-5.89,1.35L754.97,656.7z"/>
</g>
<g class="st131">
	<path class="st132" d="M770.62,681.96l5.21-0.95c0.43-0.08,0.86-0.12,1.29-0.12c3.48,0,6.49,2.57,7.01,5.97
		c0.58,3.79-2.07,7.35-5.89,7.93l-5.59,0.86L770.62,681.96z"/>
</g>
<g>
	<path class="st133" d="M730.43,562.86c0,0.12-0.02,0.22-0.06,0.32l-2.64,7.05c-0.16,0.43-0.58,0.72-1.05,0.72
		c-0.11,0-0.22-0.02-0.32-0.05c-3.42-1.03-11.6-3.92-13.86-8.57c-0.71-1.48-0.76-2.98-0.13-4.59c0.03-0.09,0.08-0.17,0.14-0.23
		c0.52-1,3.46,0.22,5.52,1.1L730.43,562.86z"/>
</g>
<path class="st96" d="M703.09,565.33c-0.01,0.09,0.01,0.19,0.02,0.28c0.88,12.22,6.56,19.57,22.65,26.13l54.98,22.8
	c0.24-0.04,12.47-7.02,12.48-7.09c0.04-1.27-69.13-21.11-80-28.62c-14.68-10.15-6.05-22.09-6.36-20.3
	C703.99,559.33,703.35,563.3,703.09,565.33z"/>
<path class="st96" d="M801.61,626.72l-20.14-17.07l19.9,92.31l109.27-15.66l-3.72-88.96h-14.66l-4.46,42.97
	C887.81,640.31,846.06,663.15,801.61,626.72z"/>
<rect x="895.66" y="593.39" transform="matrix(-0.9995 -0.0321 0.0321 -0.9995 1801.8464 1318.3525)" class="st6" width="31.7" height="102.64"/>
<polygon class="st3" points="919.19,703.05 1053.51,707.92 1053.51,597.79 922.73,592.92 "/>
<g>
	<path class="st134" d="M439.17,472.54h-88.23c-1.05,0-1.88,0.91-1.77,1.95l4.31,44.38c0.09,0.91,0.86,1.61,1.77,1.61h79.61
		c0.92,0,1.68-0.7,1.77-1.61l4.31-44.38C441.04,473.45,440.22,472.54,439.17,472.54z"/>
	<path class="st134" d="M398.19,494.67c-0.79-1.32-0.51-2.74,0.28-3.87c-1-0.6-2.16-0.96-3.41-0.96c-3.69,0-6.68,2.99-6.68,6.68
		c0,3.69,2.99,6.68,6.68,6.68c3.57,0,6.47-2.82,6.64-6.35C400.28,496.58,398.94,495.92,398.19,494.67z"/>
</g>
<rect x="325.57" y="331.55" class="st105" width="138.97" height="188.04"/>
<path class="st64" d="M871.49,470.77h-88.23c-1.05,0-1.88,0.91-1.77,1.95l4.31,44.38c0.09,0.91,0.86,1.61,1.77,1.61h79.61
	c0.92,0,1.68-0.7,1.77-1.61l4.31-44.38C873.36,471.68,872.54,470.77,871.49,470.77z"/>
<path class="st48" d="M830.51,492.9c-0.79-1.32-0.51-2.74,0.28-3.87c-1-0.6-2.16-0.96-3.41-0.96c-3.69,0-6.68,2.99-6.68,6.68
	c0,3.69,2.99,6.68,6.68,6.68c3.57,0,6.47-2.82,6.64-6.35C832.6,494.81,831.25,494.15,830.51,492.9z"/>
<path class="st64" d="M659.17,213.41h-88.23c-1.05,0-1.88,0.91-1.77,1.95l4.31,44.38c0.09,0.91,0.86,1.61,1.77,1.61h79.61
	c0.92,0,1.68-0.7,1.77-1.61l4.31-44.38C661.04,214.31,660.22,213.41,659.17,213.41z"/>
<path class="st65" d="M870.33,214.23H782.1c-1.05,0-1.88,0.91-1.77,1.95l4.31,44.38c0.09,0.91,0.86,1.61,1.77,1.61h79.61
	c0.92,0,1.68-0.7,1.77-1.61l4.31-44.38C872.21,215.14,871.38,214.23,870.33,214.23z"/>
<path class="st48" d="M831.9,241.6c-0.79-1.32-0.51-2.74,0.28-3.87c-1-0.6-2.16-0.96-3.41-0.96c-3.69,0-6.68,2.99-6.68,6.68
	c0,3.69,2.99,6.68,6.68,6.68c3.57,0,6.47-2.82,6.64-6.35C833.99,243.51,832.64,242.85,831.9,241.6z"/>
<path class="st48" d="M619.36,240.8c-0.79-1.32-0.51-2.74,0.28-3.87c-1-0.6-2.16-0.96-3.41-0.96c-3.69,0-6.68,2.99-6.68,6.68
	s2.99,6.68,6.68,6.68c3.57,0,6.47-2.82,6.64-6.35C621.44,242.71,620.1,242.05,619.36,240.8z"/>
<g>
	<path class="st6" d="M440.61,212.52h-88.23c-1.05,0-1.88,0.91-1.77,1.95l4.31,44.38c0.09,0.91,0.86,1.61,1.77,1.61h79.61
		c0.92,0,1.68-0.7,1.77-1.61l4.31-44.38C442.48,213.43,441.66,212.52,440.61,212.52z"/>
	<path class="st48" d="M402.19,239.52c-0.79-1.32-0.51-2.74,0.28-3.87c-1-0.6-2.16-0.96-3.41-0.96c-3.69,0-6.68,2.99-6.68,6.68
		s2.99,6.68,6.68,6.68c3.57,0,6.47-2.82,6.64-6.35C404.28,241.43,402.94,240.77,402.19,239.52z"/>
</g>
<rect x="325.57" y="74.13" class="st105" width="138.97" height="188.04"/>
<rect x="545.57" y="74.13" class="st105" width="138.97" height="188.04"/>
<rect x="754.78" y="75.95" class="st105" width="138.97" height="188.04"/>
<rect x="756.73" y="331.4" class="st105" width="138.97" height="188.04"/>
</svg>
