<svg width="459" height="415" viewBox="0 0 459 415" fill="none" xmlns="http://www.w3.org/2000/svg">
<g clip-path="url(#clip0)">
<path d="M424.082 73.1968V295.7C424.082 299.265 420.784 302.162 416.817 302.162H69.8403C65.8733 302.162 62.6636 299.265 62.6636 295.7V73.1968H424.082Z" fill="#202F85"/>
<path d="M69.8404 300.722C66.6777 300.722 64.1044 298.47 64.1044 295.7V74.6372H422.642V295.7C422.642 298.47 420.029 300.722 416.816 300.722H69.8404Z" fill="white"/>
<path d="M424.043 51.2008V73.1979H167.502L182.525 44.7173H416.826C420.803 44.7173 424.043 47.6282 424.043 51.2008Z" fill="#4F4F4F"/>
<path d="M182.525 44.7173L167.502 73.1979H62.6504V51.2008C62.6504 47.6282 65.8907 44.7173 69.8674 44.7173H182.525V44.7173Z" fill="#333333"/>
<path d="M90.574 64.5265C93.6498 64.5265 96.1433 62.0332 96.1433 58.9576C96.1433 55.882 93.6498 53.3887 90.574 53.3887C87.4981 53.3887 85.0046 55.882 85.0046 58.9576C85.0046 62.0332 87.4981 64.5265 90.574 64.5265Z" fill="white"/>
<path d="M116.579 64.5265C119.655 64.5265 122.148 62.0332 122.148 58.9576C122.148 55.882 119.655 53.3887 116.579 53.3887C113.503 53.3887 111.01 55.882 111.01 58.9576C111.01 62.0332 113.503 64.5265 116.579 64.5265Z" fill="white"/>
<path d="M146.257 64.5265C149.333 64.5265 151.827 62.0332 151.827 58.9576C151.827 55.882 149.333 53.3887 146.257 53.3887C143.181 53.3887 140.688 55.882 140.688 58.9576C140.688 62.0332 143.181 64.5265 146.257 64.5265Z" fill="white"/>
<path d="M180.3 184.646L132.593 185.612C132.526 185.614 132.47 185.56 132.468 185.493L132.398 182.028C132.397 181.961 132.45 181.906 132.518 181.904L180.225 180.938C180.292 180.936 180.348 180.99 180.35 181.057L180.42 184.521C180.421 184.589 180.368 184.644 180.3 184.646ZM196.429 192.689L116.803 194.302C116.735 194.303 116.68 194.25 116.678 194.183L116.608 190.718C116.607 190.651 116.66 190.595 116.727 190.594L196.354 188.981C196.421 188.979 196.477 189.033 196.479 189.1L196.549 192.564C196.55 192.632 196.497 192.687 196.429 192.689Z" fill="#828282"/>
<path d="M194.674 103.021L195.873 162.161C195.919 164.437 195.17 166.542 193.892 168.213C192.349 170.211 190.04 171.606 187.398 171.907C187.09 171.951 186.781 171.969 186.46 171.976L127.314 173.174C126.993 173.181 126.683 173.174 126.374 173.144C124.602 173.006 122.956 172.397 121.588 171.422C119.166 169.715 117.576 166.927 117.511 163.749L116.313 104.609C116.25 101.505 117.666 98.7183 119.918 96.9161C121.512 95.6346 123.525 94.8516 125.726 94.807L184.872 93.6087C187.518 93.5551 189.951 94.582 191.717 96.2904C193.497 97.9982 194.621 100.375 194.674 103.021Z" fill="#4F4F4F"/>
<path d="M166.553 135.385C172.43 129.509 172.43 119.982 166.553 114.106C160.676 108.23 151.148 108.23 145.272 114.106C139.395 119.982 139.395 129.51 145.272 135.386C151.149 141.262 160.677 141.261 166.553 135.385Z" fill="white"/>
<path d="M187.441 169.766C187.456 170.483 187.446 171.201 187.398 171.907C187.09 171.951 186.781 171.969 186.459 171.976L127.314 173.174C126.993 173.18 126.683 173.174 126.374 173.144C126.297 172.44 126.258 171.723 126.244 171.006C125.901 154.104 139.325 140.126 156.216 139.784C173.12 139.441 187.099 152.864 187.441 169.766Z" fill="white"/>
<path d="M348.852 182.806L301.145 183.773C301.077 183.774 301.022 183.721 301.02 183.653L300.95 180.189C300.949 180.122 301.002 180.066 301.069 180.065L348.777 179.098C348.844 179.097 348.9 179.15 348.901 179.218L348.972 182.682C348.973 182.749 348.919 182.805 348.852 182.806ZM364.981 190.849L285.354 192.463C285.287 192.464 285.232 192.411 285.23 192.343L285.16 188.879C285.159 188.812 285.212 188.756 285.279 188.755L364.906 187.141C364.973 187.14 365.029 187.193 365.03 187.261L365.101 190.725C365.102 190.793 365.049 190.848 364.981 190.849ZM363.264 103.021L364.462 162.161C364.508 164.437 363.759 166.542 362.482 168.213C360.939 170.211 358.629 171.606 355.988 171.907C355.679 171.951 355.37 171.969 355.049 171.976L295.904 173.174C295.582 173.181 295.273 173.174 294.963 173.144C293.191 173.006 291.546 172.397 290.178 171.422C287.755 169.715 286.165 166.927 286.101 163.749L284.902 104.609C284.839 101.505 286.255 98.7183 288.507 96.9161C290.102 95.6346 292.115 94.8516 294.316 94.807L353.461 93.6087C356.107 93.5551 358.54 94.582 360.307 96.2904C362.086 97.9982 363.21 100.375 363.264 103.021Z" fill="#828282"/>
<path d="M335.141 135.386C341.018 129.51 341.018 119.983 335.141 114.107C329.264 108.231 319.736 108.231 313.86 114.107C307.983 119.983 307.983 129.511 313.86 135.387C319.737 141.263 329.265 141.262 335.141 135.386Z" fill="white"/>
<path d="M356.031 169.766C356.045 170.483 356.035 171.201 355.988 171.907C355.679 171.951 355.37 171.969 355.049 171.976L295.904 173.174C295.582 173.18 295.273 173.174 294.963 173.144C294.887 172.44 294.847 171.723 294.833 171.006C294.49 154.104 307.914 140.126 324.806 139.784C341.71 139.441 355.688 152.864 356.031 169.766Z" fill="white"/>
<path d="M195.618 300.722H117.209L116.318 256.685C116.229 253.565 117.655 250.802 119.928 248.974C121.533 247.726 123.539 246.924 125.723 246.88L184.875 245.676C187.505 245.632 189.957 246.657 191.74 248.35C193.478 250.089 194.637 252.451 194.682 255.081L195.618 300.722Z" fill="#828282"/>
<path d="M166.552 287.458C172.428 281.581 172.428 272.054 166.551 266.178C160.675 260.302 151.147 260.302 145.27 266.179C139.394 272.055 139.394 281.582 145.271 287.458C151.147 293.334 160.675 293.334 166.552 287.458Z" fill="white"/>
<path d="M178.367 300.722H135.307C140.612 295.463 147.833 292.12 155.901 291.853H156.213C164.816 291.675 172.706 295.106 178.367 300.722Z" fill="white"/>
<path d="M364.188 300.722H285.78L284.888 256.685C284.844 253.565 286.27 250.802 288.499 248.974C290.104 247.726 292.109 246.924 294.294 246.88L353.445 245.676C356.12 245.632 358.527 246.657 360.31 248.35C362.093 250.089 363.207 252.451 363.252 255.081L364.188 300.722Z" fill="#828282"/>
<path d="M337.334 287.459C343.211 281.583 343.21 272.056 337.334 266.18C331.457 260.304 321.929 260.304 316.052 266.18C310.176 272.056 310.176 281.583 316.053 287.459C321.93 293.335 331.457 293.335 337.334 287.459Z" fill="white"/>
<path d="M346.982 300.722H303.922C309.227 295.418 316.492 292.12 324.516 291.853H324.828C333.476 291.675 341.321 295.106 346.982 300.722Z" fill="white"/>
<path d="M263.502 206.225C261.413 207.839 258.819 208.804 255.722 208.689C249.08 208.458 242.871 210.648 238.189 211.282C234.774 211.743 232.167 211.382 230.755 208.689C227.412 202.278 245.551 193.491 245.263 188.938C244.989 184.386 245.825 174.374 247.496 165.025C247.496 165.025 268.011 179.531 269.812 187.21C271.137 192.799 269.135 201.889 263.502 206.225Z" fill="#4F4F4F"/>
<path d="M263.502 206.225C261.413 207.839 258.82 208.804 255.722 208.689C249.08 208.458 242.871 210.648 238.189 211.282C236.734 210.043 235.754 208.746 235.466 207.594C234.53 203.748 240.465 201.299 246.041 193.001C246.041 193.001 258.949 199.166 263.502 206.225Z" fill="#4F4F4F"/>
<path d="M273.068 224.463C271.325 227.3 267.68 228.828 263.833 229.26C259.756 229.706 255.434 228.943 252.884 227.243C251.803 226.537 251.04 225.658 250.737 224.65C249.887 221.841 250.06 217.072 250.506 212.261C250.665 210.532 250.852 208.804 251.054 207.147C251.083 206.931 251.111 206.729 251.126 206.513C251.486 203.574 251.832 200.938 251.962 199.08L274.537 193.519C274.537 193.519 274.725 195.104 274.926 197.567C275.546 204.684 276.309 219.176 273.068 224.463Z" fill="#FC9E9E"/>
<path d="M273.068 224.463C271.325 227.301 267.68 228.828 263.833 229.26C263.631 227.286 264.827 224.218 263.545 221.639C261.571 217.606 254.728 213.169 251.054 207.147C251.083 206.931 251.112 206.729 251.126 206.513C253.316 205.476 264.914 200.06 271.541 198.115C272.751 197.769 273.889 197.582 274.926 197.567C275.546 204.684 276.309 219.176 273.068 224.463Z" fill="#FC9E9E"/>
<path d="M256.687 221.394C256.27 223.44 254.785 225.788 252.884 227.243C251.803 226.537 251.04 225.659 250.737 224.65C249.887 221.841 250.06 217.073 250.507 212.261C251.976 215.747 257.307 218.412 256.687 221.394Z" fill="#F0C2D2"/>
<path d="M279.998 200.953C275.906 202.854 267.103 205.764 259.367 207.003H259.352C255.621 207.593 252.135 207.809 249.556 207.334C242.626 206.052 244.196 194.225 245.263 188.635C245.421 187.814 245.565 187.123 245.68 186.619C245.954 185.38 245.493 184.588 244.744 184.011C244.744 184.011 244.744 184.011 244.744 183.997C243.159 182.787 240.249 182.528 240.033 180.957C239.759 179.012 244.758 173.61 246.602 166.465C246.602 166.451 246.602 166.436 246.617 166.422C246.833 165.601 247.006 164.751 247.107 163.886C247.179 163.411 247.222 162.936 247.251 162.446C246.732 148.948 279.998 152.607 282.721 159.205C285.443 165.788 286.063 198.129 279.998 200.953Z" fill="#FC9E9E"/>
<path d="M324.5 219.882C323.189 219.795 322.066 219.781 321.072 219.81C315.899 219.939 313.897 221.294 305.022 221.812C303.279 221.913 301.593 221.841 299.937 221.639C294.649 221.02 289.808 219.19 285.342 218.052C283.686 217.634 282.086 217.303 280.545 217.173C279.608 217.072 278.686 217.072 277.779 217.159C274.681 217.461 273.572 209.913 273.341 200.909C273.27 197.639 273.298 194.153 273.399 190.796C273.414 189.99 273.442 189.197 273.471 188.419C273.615 184.688 273.831 181.188 274.033 178.379C274.307 174.417 274.552 171.81 274.552 171.81C273.356 170.484 272.131 168.698 271.065 166.652C268.501 161.798 266.801 155.459 268.184 150.187C268.357 149.452 268.602 148.76 268.904 148.069C270.892 143.704 275.517 140.42 284.305 139.959C307.961 138.734 296.292 157.634 307.961 162.921C308.264 163.051 308.566 163.18 308.883 163.296C313.479 164.924 315.611 168.827 316.749 173.481C318.853 182.182 317.369 193.476 321.849 196.948C324.558 199.036 326.805 203.113 328.015 207.277C329.903 213.658 329.384 220.184 324.5 219.882Z" fill="#4F4F4F"/>
<path d="M278.077 187.546C275.282 190.701 275.229 196.732 274.35 200.377C274.177 201.068 273.817 201.198 273.341 200.91C273.269 197.64 273.298 194.153 273.399 190.797C273.414 189.99 273.442 189.198 273.471 188.42C273.615 184.689 273.831 181.188 274.033 178.379C276.108 176.391 278.182 174.922 279.119 174.187C281.078 172.66 285.486 172.213 285.486 172.213C287.835 177.155 280.857 184.406 278.077 187.546Z" fill="#4F4F4F"/>
<path d="M276.165 185.034C275.445 185.207 274.869 185.337 274.379 185.452C272.074 186 272.074 186 272.074 186L272.42 172.487C274.307 169.779 277.116 168.41 279.695 168.237C282.951 168.021 285.861 169.692 286.135 172.948C286.639 178.768 280.242 184.055 276.165 185.034Z" fill="#FC9E9E"/>
<path d="M246.602 163.056C246.228 167.764 264.747 165.097 267.69 167.618C270.633 170.139 270.622 176.329 272.308 176.835C273.995 177.342 277.596 168.219 277.596 168.219C277.596 168.219 278.269 158.374 262.806 157.414C247.342 156.453 246.602 163.056 246.602 163.056Z" fill="#FC9E9E"/>
<path d="M282.706 163.051C281.078 166.293 273.241 174.777 273.241 174.777C272.218 171.493 271.872 168.626 270.316 166.955C269.279 165.846 267.708 165.255 265.058 165.428C258.387 165.86 249.93 163.051 243.98 164.132C238.045 165.212 235.019 150.389 247.222 143.56C251.832 140.982 255.304 141.025 258.027 141.904C262.522 143.301 264.971 146.931 267.147 144.641C270.633 140.953 282.721 132.929 293.425 138.893C304.129 144.857 284.32 159.796 282.706 163.051Z" fill="#4F4F4F"/>
<path d="M270.316 166.955C269.279 165.846 267.708 165.255 265.058 165.428C258.387 165.86 249.93 163.051 243.98 164.132C238.045 165.212 235.019 150.389 247.222 143.56C251.832 140.982 255.304 141.025 258.027 141.904C257.393 142.192 256.745 142.379 256.226 142.408C253.33 142.523 248.49 142.898 245.651 149.611C242.813 156.324 245.651 162.518 254.901 162.1C262.363 161.755 268.429 162.677 270.316 166.955ZM299.937 221.639C294.649 221.02 289.809 219.19 285.342 218.052C283.686 217.634 282.086 217.303 280.545 217.173C279.608 217.072 278.686 217.072 277.779 217.159C273.543 217.562 273.024 203.387 273.399 190.796C275.315 205.793 272.909 210.158 285.645 212.837C294.808 214.768 297.876 218.672 299.937 221.639Z" fill="#4F4F4F"/>
<path d="M276.165 185.034C275.445 185.207 274.869 185.337 274.379 185.452C275.848 184.444 278.975 182.139 281.251 179.589C283.758 176.794 283.254 170.946 279.695 168.237C282.951 168.021 285.861 169.692 286.135 172.948C286.639 178.768 280.242 184.055 276.165 185.034ZM244.744 183.997C243.159 182.787 240.249 182.528 240.033 180.958C239.759 179.013 244.758 173.611 246.602 166.465C245.925 171.478 246.645 176.636 244.34 178.249C242.439 179.575 244.239 182.081 244.744 183.997ZM259.352 207.003C255.621 207.594 252.135 207.81 249.556 207.335C242.626 206.052 244.196 194.225 245.263 188.636C245.551 195.061 247.597 202.379 252.812 204.9C255.016 205.966 257.336 206.6 259.352 207.003Z" fill="#FC9E9E"/>
<path d="M142.514 252.27H3.76931C1.70214 252.27 0.0264359 250.594 0.0264359 248.527V215.016C0.0264359 212.949 1.70214 211.274 3.76931 211.274H142.514C144.581 211.274 146.257 212.95 146.257 215.016V248.527C146.257 250.594 144.581 252.27 142.514 252.27Z" fill="#4F4F4F"/>
<path d="M30.8497 238.609C27.771 242.448 22.1632 243.064 18.3241 239.986C14.4849 236.908 13.8683 231.3 16.9469 227.461C20.0255 223.623 25.6333 223.006 29.4725 226.084C33.3117 229.163 33.9281 234.77 30.8497 238.609Z" fill="white"/>
<path d="M28.9068 230.011C29.0231 230.13 26.8643 232.424 24.0854 235.134C23.6804 235.525 23.2886 235.903 22.9086 236.27L22.698 236.473L22.4961 236.267C20.3286 234.055 18.7894 232.347 18.89 232.246C18.9906 232.146 20.6985 233.685 22.9112 235.852L22.4989 235.85C22.8752 235.479 23.2633 235.097 23.6643 234.702C26.4428 231.992 28.7904 229.891 28.9068 230.011Z" fill="#4F4F4F"/>
<path d="M131.985 228.768C131.985 228.934 113.396 229.069 90.4717 229.069C67.5388 229.069 48.9541 228.934 48.9541 228.768C48.9541 228.601 67.5388 228.466 90.4717 228.466C113.396 228.466 131.985 228.601 131.985 228.768ZM97.9294 236.876C97.9294 237.042 87.1829 237.177 73.9294 237.177C60.6713 237.177 49.9272 237.042 49.9272 236.876C49.9272 236.709 60.6714 236.574 73.9294 236.574C87.1829 236.574 97.9294 236.709 97.9294 236.876Z" fill="white"/>
<path d="M241.876 248.977C237.464 251.96 226.246 248.736 213.792 242.782C213.188 242.505 212.556 242.198 211.939 241.892C211.263 241.556 210.588 241.221 209.899 240.871C199.199 235.417 188.006 228.289 179.691 221.597C178.845 220.914 177.985 220.175 177.14 219.391C170.894 213.619 164.966 205.415 159.99 196.956C153.032 185.129 147.907 172.824 146.335 166C145.746 163.418 145.656 161.617 146.165 160.928C149.114 156.97 154.253 159.926 154.253 159.926C151.82 147.911 153.914 147.233 155.148 150.309C155.418 150.973 155.743 152.012 156.095 153.282C156.095 153.297 156.095 153.297 156.095 153.297C156.631 155.245 157.278 157.698 157.954 160.18C158.856 163.528 159.829 166.905 160.752 169.043C161.633 171.036 166.601 178.486 174.172 186.7C179.138 192.09 185.226 197.789 192.011 202.513C199.442 207.702 207.73 211.7 216.296 212.761C217.102 212.867 217.894 212.958 218.672 213.035C223.624 213.613 228.232 213.987 232.481 214.244C232.625 214.259 232.754 214.26 232.898 214.276C233.662 214.309 234.41 214.357 235.145 214.39C239.38 214.575 243.226 214.656 246.684 214.634C247.274 214.638 247.851 214.627 248.413 214.616C248.931 214.619 249.436 214.608 249.926 214.596C254.032 214.535 257.52 214.355 260.359 214.2C260.806 214.174 261.238 214.148 261.656 214.136C262.074 214.11 262.463 214.083 262.852 214.057C263.472 214.032 264.049 213.992 264.582 213.966C264.712 213.953 264.827 213.954 264.956 213.954C265.288 213.942 265.591 213.929 265.879 213.917C266.57 213.878 267.161 213.867 267.665 213.885C273.428 213.992 250.484 243.167 241.876 248.977Z" fill="#FC9E9E"/>
<path d="M218.672 213.035C218.606 214.461 218.423 215.958 218.155 217.483C210.413 218.228 203.003 216.727 197.079 210.179C194.546 207.383 192.948 204.809 192.012 202.513C199.442 207.702 207.731 211.7 216.296 212.761C217.103 212.867 217.894 212.958 218.672 213.035Z" fill="#FC9E9E"/>
<path d="M213.792 242.782C213.188 242.505 212.556 242.198 211.939 241.892C211.264 241.556 210.589 241.221 209.899 240.871C199.199 235.417 188.006 228.289 179.691 221.597C178.845 220.914 177.985 220.175 177.14 219.391C187.262 225.101 204.974 233.594 214.768 234.058C214.768 234.058 215.143 238.555 213.792 242.782Z" fill="#FC9E9E"/>
<path d="M156.096 153.282C156.096 153.297 156.096 153.297 156.096 153.297C156.022 153.541 155.964 153.685 155.921 153.699C155.646 153.798 155.251 152.398 154.974 153.074C154.696 153.735 157.163 162.494 154.916 162.48C152.87 162.468 147.701 162.018 146.336 166C145.747 163.418 145.657 161.617 146.166 160.928C149.115 156.97 154.254 159.926 154.254 159.926C151.821 147.911 153.914 147.233 155.149 150.309C155.419 150.973 155.744 152.012 156.096 153.282ZM174.173 186.7C169.78 184.123 165.446 181.302 162.423 178.546C158.756 175.196 157.468 164.47 157.941 160.18C157.941 160.18 157.941 160.18 157.955 160.18C158.856 163.527 159.83 166.904 160.753 169.042C161.634 171.036 166.602 178.485 174.173 186.7Z" fill="#FC9E9E"/>
<path d="M241.877 248.977C237.001 252.26 223.859 248.002 209.899 240.871C211.198 238.142 212.542 235.154 213.757 232.064C215.674 227.25 217.333 222.175 218.155 217.483C218.423 215.958 218.606 214.461 218.672 213.035C223.625 213.613 228.233 213.987 232.481 214.244C232.625 214.259 232.755 214.26 232.899 214.275C233.662 214.309 234.411 214.357 235.146 214.39C239.38 214.575 243.226 214.656 246.684 214.634C247.275 214.638 247.851 214.627 248.413 214.616C248.932 214.619 249.436 214.608 249.926 214.596C254.033 214.535 257.52 214.355 260.359 214.2C260.806 214.174 261.239 214.148 261.657 214.136C262.075 214.109 262.464 214.083 262.853 214.057C263.472 214.032 264.049 213.992 264.582 213.966C264.712 213.953 264.827 213.953 264.957 213.954C265.288 213.942 265.591 213.929 265.879 213.917C266.571 213.878 267.162 213.867 267.666 213.884C273.428 213.992 250.485 243.167 241.877 248.977Z" fill="#FC9E9E"/>
<path d="M241.877 248.977C237.001 252.26 223.859 248.002 209.899 240.871C211.198 238.142 212.542 235.154 213.757 232.064C220.817 232.035 229.065 230.905 230.953 226.148C233.894 218.704 241.597 217.138 249.926 214.596C258.787 214.45 264.727 213.823 267.666 213.885C273.428 213.992 250.484 243.167 241.877 248.977Z" fill="#FC9E9E"/>
<path d="M232.481 214.244C227.761 215.742 222.897 217.037 218.155 217.483C218.423 215.958 218.606 214.461 218.672 213.035C223.624 213.613 228.232 213.987 232.481 214.244Z" fill="#FC9E9E"/>
<path d="M244.499 335.428L244.011 414.558C243.824 414.513 243.637 414.469 243.45 414.424C239.523 413.464 235.581 412.517 231.61 411.629C227.424 410.666 223.222 409.733 218.992 408.842C216.618 408.338 214.23 407.848 211.841 407.358C214.791 396.154 218.194 384.059 221.663 372.844C223.295 367.596 224.94 362.535 226.582 357.849C226.802 357.202 227.037 356.555 227.257 355.923C230.57 346.608 233.758 338.949 236.494 334.5L244.499 335.428Z" fill="#4F4F4F"/>
<path d="M228.63 369.214C227.929 375.39 225.924 399.162 218.992 408.843C216.618 408.338 214.23 407.848 211.841 407.358C214.791 396.154 218.194 384.06 221.663 372.844C223.295 367.596 224.94 362.536 226.582 357.849C227.844 361.185 229.056 365.514 228.63 369.214Z" fill="#4F4F4F"/>
<path d="M244.499 335.429L244.011 414.558C243.824 414.513 243.637 414.469 243.45 414.424C239.523 413.464 235.581 412.517 231.61 411.629C231.285 401.183 236.411 392.412 237.057 385.746C237.689 379.123 229.034 364.39 227.257 355.923C230.57 346.608 233.758 338.949 236.494 334.5L244.499 335.429Z" fill="#4F4F4F"/>
<path d="M305.62 397.607C305.245 407.069 303.837 420.358 302.486 431.514C300.028 430.677 297.555 429.855 295.053 429.033C284.916 425.729 274.461 422.611 263.746 419.678C257.259 417.895 250.686 416.183 244.011 414.558C243.824 414.513 243.637 414.469 243.45 414.424C243.388 401.142 243.335 386.246 243.388 372.978C243.482 353.17 243.783 337.023 244.499 335.429C245.886 332.383 270.447 332.967 284.721 333.559H284.735C290.64 333.811 294.788 334.067 294.788 334.067C295.153 335.582 295.744 337.891 296.461 340.748C298.458 348.741 301.45 361.163 303.493 373.348C304.937 382.174 305.892 390.809 305.62 397.607Z" fill="#4F4F4F"/>
<path d="M305.62 397.607C305.245 407.07 303.837 420.358 302.486 431.514C300.028 430.678 297.555 429.856 295.053 429.034C297.255 422.291 301.042 413.411 298.651 403.917C295.107 389.792 293.176 357.208 296.461 340.748C298.458 348.741 301.45 361.163 303.493 373.349C304.937 382.174 305.892 390.809 305.62 397.607Z" fill="#4F4F4F"/>
<path d="M284.938 398.79C281.372 402.37 261.91 404.281 262.812 414.674C262.973 416.49 263.323 418.163 263.746 419.678C257.259 417.895 250.686 416.184 244.011 414.558C243.824 414.513 243.637 414.469 243.45 414.424C243.388 401.142 242.005 386.236 242.058 372.968C242.151 353.16 243.783 337.023 244.499 335.429C245.886 332.383 270.447 332.967 284.721 333.559H284.735C284.749 333.573 284.749 333.573 284.749 333.573C282.75 344.769 284.055 357.483 286.608 370.939C289.176 384.41 288.504 395.211 284.938 398.79Z" fill="#4F4F4F"/>
<path d="M294.788 334.053C293.558 334.953 265.935 335.705 249.152 335.457C241.906 335.341 236.692 335.049 236.48 334.5C236.381 334.226 236.259 332.9 236.128 330.81C235.337 318.848 233.978 282.162 232.619 280.656C231.002 278.888 220.864 268.742 223.374 258.86C225.516 250.388 232.999 233.075 240.527 224.896C241.759 223.564 242.991 222.462 244.206 221.692C250.194 217.882 259.212 215.59 264.146 214.554C266.296 214.092 267.666 213.884 267.666 213.884C285.32 212.912 293.944 223.208 296.449 232.89C298.954 242.572 296.525 332.753 294.788 334.053Z" fill="#EB144C"/>
<path d="M249.299 309.225C246.597 317.636 243.647 328.667 236.2 330.782C236.171 330.782 236.157 330.796 236.128 330.81C235.337 318.848 233.978 282.162 232.619 280.656C231.002 278.888 220.864 268.741 223.374 258.86C225.516 250.388 232.999 233.075 240.527 224.896C237.465 237.698 230.035 260.486 233.453 271.585C237.21 283.724 251.988 300.8 249.299 309.225Z" fill="#EB144C"/>
<path d="M301.461 338.322C300.231 339.223 288.486 332.48 249.152 335.457C250.694 328.321 253.561 321.381 253.502 316.958C253.379 306.513 262.911 281.736 264.441 271.777C265.958 261.831 254.199 234.128 256.976 220.82C256.976 220.82 259.63 217.97 264.146 214.554C266.295 214.092 267.665 213.884 267.665 213.884C285.32 212.913 293.944 223.209 296.449 232.89C298.954 242.572 303.198 337.022 301.461 338.322Z" fill="#EB144C"/>
<path d="M284.452 381.861C284.502 383.143 283.961 384.307 283.063 385.079C282.411 385.652 281.559 386.021 280.622 386.058L236.308 388.09C235.256 388.141 234.264 387.775 233.519 387.137C232.702 386.44 232.161 385.414 232.11 384.261L231.488 370.586L230.79 355.412L228.96 315.626C228.923 314.661 229.217 313.769 229.74 313.052C230.437 312.106 231.536 311.479 232.804 311.415L248.901 310.678L277.104 309.397C278.214 309.346 279.249 309.742 280.008 310.438C280.61 310.989 281.052 311.712 281.22 312.549C281.276 312.765 281.303 312.996 281.316 313.226L284.452 381.861Z" fill="white"/>
<path d="M259.851 349.411C263.314 347.51 264.579 343.162 262.677 339.7C260.775 336.238 256.427 334.972 252.965 336.874C249.502 338.775 248.237 343.123 250.139 346.586C252.04 350.048 256.389 351.313 259.851 349.411Z" fill="#BDBDBD"/>
<path d="M284.452 381.861C284.501 383.143 283.961 384.307 283.063 385.079C282.411 385.652 281.559 386.021 280.622 386.058L236.308 388.09C235.256 388.141 234.264 387.775 233.519 387.137C232.702 386.44 232.16 385.414 232.11 384.261L231.488 370.586C233.152 369.545 234.77 368.82 235.738 368.351C235.738 368.351 246.525 368.95 249.602 365.368C252.692 361.785 263.57 349.982 265.967 342.145C267.982 335.531 274.539 318.788 281.22 312.549C281.276 312.765 281.303 312.996 281.316 313.226L284.452 381.861Z" fill="white"/>
<path d="M290.153 281.962C289.54 294.923 287.954 309.175 284.855 321.2C284.323 323.271 283.648 325.355 282.857 327.425C273.47 352.016 247.41 375.063 237.454 372.783H237.439C236.993 372.694 236.591 372.533 236.203 372.329C236.031 372.242 235.873 372.14 235.715 372.067C235.327 371.819 234.983 371.601 234.682 371.383C228.257 366.676 240.107 363.004 250.293 351.354C258.825 341.582 257.639 307.217 256.452 282.373C258.61 282.833 260.784 283.149 262.915 283.364C268.026 283.914 272.997 283.887 277.349 283.611C283.057 283.258 287.687 282.45 290.153 281.962Z" fill="#FC9E9E"/>
<path d="M290.153 281.962C287.687 282.45 283.057 283.258 277.35 283.611C272.997 283.887 268.026 283.914 262.915 283.364C262.915 283.364 262.915 283.364 262.901 283.364C260.77 283.149 258.611 282.819 256.452 282.373C256.134 275.629 255.811 269.591 255.681 264.937C255.211 247.748 256.978 239.173 262.91 235.089C264.502 233.99 266.394 233.224 268.616 232.69C269.193 232.549 269.755 232.438 270.303 232.355C272.452 231.993 274.383 232.005 276.124 232.304C283.306 233.501 287.26 239.533 288.908 245.55C290.134 250.009 290.979 264.852 290.153 281.962Z" fill="#EB144C"/>
<path d="M262.649 324.218C261.367 338.14 259.265 347.246 252.745 353.213C246.776 358.665 235.86 367.227 234.682 371.383C228.257 366.676 240.108 363.004 250.293 351.354C258.825 341.582 257.639 307.216 256.452 282.373C258.611 282.833 260.784 283.149 262.915 283.364C262.879 298.634 263.884 310.755 262.649 324.218Z" fill="#FC9E9E"/>
<path d="M262.915 283.364C262.915 283.364 262.915 283.364 262.901 283.364C260.77 283.149 258.611 282.819 256.452 282.373C256.134 275.629 255.811 269.591 255.681 264.937C255.211 247.748 256.978 239.173 262.91 235.089C263.326 235.423 263.597 235.785 263.724 236.204C266.137 244.43 262.762 266.119 262.915 283.364Z" fill="#EB144C"/>
<path d="M290.153 281.962C289.54 294.923 287.954 309.175 284.855 321.2C284.323 323.271 283.648 325.355 282.857 327.425C273.47 352.016 247.41 375.063 237.454 372.783H237.44C236.993 372.694 236.591 372.533 236.203 372.329C236.031 372.242 235.873 372.14 235.715 372.067C241.169 366.122 260.561 354.371 269.497 342.167C278.52 329.862 277.527 303.839 277.35 283.612C283.057 283.258 287.687 282.45 290.153 281.962Z" fill="#FC9E9E"/>
<path d="M248.901 310.677C248.137 315.384 246.591 323.254 243.635 332.946C239.944 345.024 235.484 348.699 230.789 355.412L228.96 315.626C228.923 314.66 229.216 313.769 229.739 313.052C230.437 312.105 231.536 311.478 232.804 311.414L248.901 310.677Z" fill="white"/>
</g>
<defs>
<clipPath id="clip0">
<rect width="459" height="414" fill="white" transform="translate(0 0.57666)"/>
</clipPath>
</defs>
</svg>
