<?xml version="1.0" encoding="utf-8"?>
<!-- Generator: Adobe Illustrator 24.3.0, SVG Export Plug-In . SVG Version: 6.00 Build 0)  -->
<svg version="1.1" id="Layer_1" xmlns="http://www.w3.org/2000/svg" xmlns:xlink="http://www.w3.org/1999/xlink" x="0px" y="0px"
	 viewBox="0 0 435 415" style="enable-background:new 0 0 435 415;" xml:space="preserve">
<style type="text/css">
	.st0{fill:#E2E2E2;}
	.st1{fill:#455A64;}
	.st2{fill:#E0E0E0;}
	.st3{fill:#263238;}
	.st4{fill:#EA284E;}
	.st5{fill:#FAFAFA;}
	.st6{fill:#F2F2F2;}
	.st7{fill:#D9D9D9;}
	.st8{fill:#FF5722;}
	.st9{opacity:0.2;fill:url(#Shadow_to_man_1_);enable-background:new    ;}
	.st10{fill:#5B1022;}
	.st11{fill:#E92A4F;}
	.st12{fill:#DD2853;}
	.st13{fill:#841933;}
	.st14{fill:#EFD3A5;}
	.st15{fill:#FFB593;}
	.st16{fill:#132328;}
	.st17{fill:#D1D5E8;}
	.st18{fill:#CE9A57;}
	.st19{fill:#2B3A3F;}
	.st20{fill:#72152B;}
	.st21{fill:#D30B44;}
	.st22{fill:#A00B2F;}
	.st23{fill:#A80936;}
	.st24{fill:#BA2246;}
	.st25{clip-path:url(#SVGID_2_);}
	.st26{fill:#14162C;}
	.st27{fill:#1677C7;}
	.st28{fill:#61DAFB;}
	.st29{fill:#D82C20;}
	.st30{fill:#0072C6;}
	.st31{fill:#6181B6;}
	.st32{fill:#A4C439;}
	.st33{clip-path:url(#SVGID_4_);}
	.st34{fill:url(#SVGID_5_);}
	.st35{fill:url(#SVGID_6_);}
	.st36{opacity:0.444;fill:url(#SVGID_7_);enable-background:new    ;}
	.st37{fill:#FF9800;}
	.st38{fill:#212121;}
	.st39{fill:#364548;}
	.st40{fill:#22A0C8;}
	.st41{fill:#37B1D9;}
	.st42{fill:#1B81A5;}
	.st43{fill:#1D91B4;}
	.st44{fill:#23A3C2;}
	.st45{fill:#34BBDE;}
	.st46{fill:#D3ECEC;}
	.st47{fill:#BDD9D7;}
	.st48{fill:#FFA000;}
	.st49{fill:#F57F17;}
	.st50{fill:#FFCA28;}
	.st51{fill:#105E86;}
	.st52{fill:#DE8A03;}
	.st53{fill:#0E5275;}
	.st54{fill:#C17803;}
	.st55{fill:#E76F00;}
	.st56{fill:#5382A1;}
	.st57{fill:url(#SVGID_8_);}
	.st58{fill:url(#SVGID_9_);}
	.st59{fill:#14559A;}
	.st60{fill:url(#SVGID_10_);}
	.st61{fill:#3092C4;}
	.st62{fill:#1969BC;}
	.st63{fill:url(#SVGID_11_);}
	.st64{fill:url(#SVGID_12_);}
	.st65{fill:url(#SVGID_13_);}
	.st66{fill:#2B74B1;}
	.st67{fill:#125A9E;}
	.st68{fill:url(#SVGID_14_);}
	.st69{fill:url(#SVGID_15_);}
	.st70{fill:#0D82CA;}
	.st71{fill:url(#SVGID_16_);}
	.st72{fill:#127BCA;}
	.st73{fill:url(#SVGID_17_);}
	.st74{fill:url(#SVGID_18_);}
	.st75{fill:#05A1E6;}
	.st76{fill:url(#SVGID_19_);}
	.st77{fill:url(#SVGID_20_);}
	.st78{fill:url(#SVGID_21_);}
	.st79{fill:#079AE1;}
	.st80{fill:#1E5CB3;}
	.st81{fill:#1D60B5;}
	.st82{fill:#175FAB;}
	.st83{fill:url(#SVGID_22_);}
	.st84{fill:#7DCBEC;}
	.st85{fill:#5EC5ED;}
	.st86{fill:url(#SVGID_23_);}
	.st87{fill:url(#SVGID_24_);}
	.st88{fill:url(#SVGID_25_);}
	.st89{fill:#F44336;}
</style>
<path class="st0" d="M334.4,281.9c-0.5,1.8-1.1,3.7-1.8,5.5c-5.8,14-19.3,23.4-33.1,29.5c-21,9.3-44.1,12.8-67,13.9
	c-31.4,1.6-63.9-1.3-91.9-15.4c-13.3-6.7-28.5-18-31.6-33.5c-2.3-11.3,1.5-24.7,8.7-33.5c7.3-9,19.4-14.3,30.9-12.5
	c11.5,1.7,21.6,11.2,23.3,22.7c0.7,4.7,0.3,10.2,3.7,13.3c2.7,2.4,6.9,2.5,10.2,1.1c3.3-1.4,5.9-4.2,8.3-7
	c7.6-9.2,13.4-20,21.6-28.5c16-16.5,40.1-23,63.1-23.6c17.9-0.4,37.9,3.5,48.4,18c5.5,7.5,7.6,16.8,8.7,26
	C336.4,265.9,336.5,274.2,334.4,281.9z"/>
<g id="freepik--Device--inject-2">
	<path class="st1" d="M142.3,232.9h151c1.1,0,2,0.9,2,2v96.4c0,2.3-1.9,4.3-4.3,4.3l0,0H144.3c-2.3,0-4.3-1.9-4.3-4.3l0,0v-96.1
		C140,233.9,141,232.9,142.3,232.9L142.3,232.9z"/>
	<path class="st1" d="M133.5,328h168.3l0,0v5c0,2.3-1.8,4.1-4.1,4.1H137.6c-2.3,0-4.1-1.8-4.1-4.1l0,0V328L133.5,328z"/>
	<rect x="144.2" y="237" class="st2" width="146.5" height="86.7"/>
	<polygon class="st3" points="202.3,328 204.4,331.3 233.8,331.3 235.7,328 	"/>
	<rect x="148.5" y="242" class="st3" width="138.2" height="81.7"/>
	<path class="st2" d="M161.4,321.3c-0.1,0-0.2-17.4-0.2-38.8c0-21.5,0.1-38.8,0.2-38.8s0.2,17.4,0.2,38.8
		C161.6,303.9,161.5,321.3,161.4,321.3z"/>
	<path class="st2" d="M156.3,250.6c0,0.1-1,0.2-2.3,0.2c-1.2,0-2.3-0.1-2.3-0.2s1-0.2,2.3-0.2C155.2,250.4,156.3,250.5,156.3,250.6z
		"/>
	<path class="st2" d="M156.5,246.2c0,0.1-1,0.2-2.3,0.2s-2.3-0.1-2.3-0.2s1-0.2,2.3-0.2S156.5,246.1,156.5,246.2z"/>
	<path class="st2" d="M156.3,255.3c0,0.1-1,0.2-2.3,0.2c-1.2,0-2.3-0.1-2.3-0.2c0-0.1,1-0.2,2.3-0.2
		C155.2,255.1,156.3,255.3,156.3,255.3z"/>
	<path class="st2" d="M156.3,260.1c0,0.1-1,0.2-2.3,0.2c-1.2,0-2.3-0.1-2.3-0.2c0-0.1,1-0.2,2.3-0.2
		C155.2,259.9,156.3,260.1,156.3,260.1z"/>
	<path class="st2" d="M156.3,264.9c0,0.1-1,0.2-2.3,0.2c-1.2,0-2.3-0.1-2.3-0.2s1-0.2,2.3-0.2C155.2,264.7,156.3,264.8,156.3,264.9z
		"/>
	<path class="st2" d="M156.3,269.6c0,0.1-1,0.2-2.3,0.2c-1.2,0-2.3-0.1-2.3-0.2s1-0.2,2.3-0.2C155.2,269.4,156.3,269.6,156.3,269.6z
		"/>
	<path class="st2" d="M156.3,274.3c0,0.1-1,0.2-2.3,0.2c-1.2,0-2.3-0.1-2.3-0.2s1-0.2,2.3-0.2C155.2,274.2,156.3,274.3,156.3,274.3z
		"/>
	<path class="st2" d="M156.3,279.1c0,0.1-1,0.2-2.3,0.2c-1.2,0-2.3-0.1-2.3-0.2s1-0.2,2.3-0.2C155.2,278.9,156.3,279,156.3,279.1z"
		/>
	<path class="st2" d="M156.3,283.9c0,0.1-1,0.2-2.3,0.2c-1.2,0-2.3-0.1-2.3-0.2c0-0.1,1-0.2,2.3-0.2
		C155.2,283.7,156.3,283.8,156.3,283.9z"/>
	<path class="st2" d="M156.3,288.6c0,0.1-1,0.2-2.3,0.2c-1.2,0-2.3-0.1-2.3-0.2s1-0.2,2.3-0.2C155.2,288.4,156.3,288.6,156.3,288.6z
		"/>
	<path class="st2" d="M156.3,293.4c0,0.1-1,0.2-2.3,0.2c-1.2,0-2.3-0.1-2.3-0.2s1-0.2,2.3-0.2C155.2,293.2,156.3,293.4,156.3,293.4z
		"/>
	<path class="st2" d="M156.3,298.1c0,0.1-1,0.2-2.3,0.2c-1.2,0-2.3-0.1-2.3-0.2s1-0.2,2.3-0.2C155.2,298,156.3,298.1,156.3,298.1z"
		/>
	<path class="st2" d="M156.3,302.9c0,0.1-1,0.2-2.3,0.2c-1.2,0-2.3-0.1-2.3-0.2c0-0.1,1-0.2,2.3-0.2
		C155.2,302.7,156.3,302.8,156.3,302.9z"/>
	<path class="st2" d="M156.3,307.6c0,0.1-1,0.2-2.3,0.2c-1.2,0-2.3-0.1-2.3-0.2s1-0.2,2.3-0.2C155.2,307.4,156.3,307.6,156.3,307.6z
		"/>
	<path class="st2" d="M156.3,312.4c0,0.1-1,0.2-2.3,0.2c-1.2,0-2.3-0.1-2.3-0.2s1-0.2,2.3-0.2C155.2,312.2,156.3,312.3,156.3,312.4z
		"/>
	<path class="st2" d="M156.3,317.1c0,0.1-1,0.2-2.3,0.2c-1.2,0-2.3-0.1-2.3-0.2s1-0.2,2.3-0.2C155.2,316.9,156.3,317.1,156.3,317.1z
		"/>
	<path class="st4" d="M174.4,250.3c0,0.1-2.6,0.2-5.8,0.2s-5.8-0.1-5.8-0.2c0-0.1,2.6-0.2,5.8-0.2S174.4,250.3,174.4,250.3z"/>
	<path class="st4" d="M174.4,317.1c0,0.1-2.6,0.2-5.8,0.2s-5.8-0.1-5.8-0.2s2.6-0.2,5.8-0.2S174.4,317.1,174.4,317.1z"/>
	<path class="st4" d="M190.5,260.1c0,0.1-4.9,0.2-10.9,0.2c-6,0-10.9-0.1-10.9-0.2c0-0.1,4.9-0.2,10.9-0.2
		C185.6,260,190.5,260.1,190.5,260.1z"/>
	<path class="st2" d="M215.7,260.1c0,0.1-4.9,0.2-10.9,0.2s-10.9-0.1-10.9-0.2c0-0.1,4.9-0.2,10.9-0.2
		C210.9,260,215.7,260.1,215.7,260.1z"/>
	<path class="st2" d="M206.1,264.9c0,0.1-7.2,0.2-16.1,0.2s-16.1-0.1-16.1-0.2s7.2-0.2,16.1-0.2S206.1,264.8,206.1,264.9z"/>
	<path class="st2" d="M206.1,269.6c0,0.1-7.2,0.2-16.1,0.2s-16.1-0.1-16.1-0.2s7.2-0.2,16.1-0.2S206.1,269.6,206.1,269.6z"/>
	<path class="st2" d="M228.2,283.9c0,0.1-7.2,0.2-16.1,0.2s-16.1-0.1-16.1-0.2c0-0.1,7.2-0.2,16.1-0.2S228.2,283.8,228.2,283.9z"/>
	<path class="st2" d="M218.7,274.3c0,0.1-7.2,0.2-16.1,0.2s-16.1-0.1-16.1-0.2s7.2-0.2,16.1-0.2
		C211.5,274.2,218.7,274.3,218.7,274.3z"/>
	<path class="st2" d="M258,274.3c0,0.1-7.2,0.2-16.1,0.2s-16.1-0.1-16.1-0.2s7.2-0.2,16.1-0.2S258,274.3,258,274.3z"/>
	<path class="st5" d="M244.3,264.9c0,0.1-7.2,0.2-16.1,0.2s-16.1-0.1-16.1-0.2s7.2-0.2,16.1-0.2S244.3,264.8,244.3,264.9z"/>
	<path class="st5" d="M266.5,283.9c0,0.1-7.2,0.2-16.1,0.2s-16.1-0.1-16.1-0.2c0-0.1,7.2-0.2,16.1-0.2S266.5,283.8,266.5,283.9z"/>
	<path class="st1" d="M262,269.6c0,0.1-11.1,0.2-24.9,0.2c-13.8,0-24.9-0.1-24.9-0.2s11.1-0.2,24.9-0.2
		C250.9,269.4,262,269.6,262,269.6z"/>
	<path class="st5" d="M174.4,255.3c0,0.1-2.6,0.2-5.8,0.2s-5.8-0.1-5.8-0.2c0-0.1,2.6-0.2,5.8-0.2S174.4,255.3,174.4,255.3z"/>
	<path class="st5" d="M174.4,312.4c0,0.1-2.6,0.2-5.8,0.2s-5.8-0.1-5.8-0.2s2.6-0.2,5.8-0.2S174.4,312.3,174.4,312.4z"/>
	<path class="st5" d="M180.1,274.3c0,0.1-2.6,0.2-5.8,0.2c-3.2,0-5.8-0.1-5.8-0.2s2.6-0.2,5.8-0.2
		C177.5,274.2,180.1,274.3,180.1,274.3z"/>
	<path class="st4" d="M273.4,274.3c0,0.1-2.6,0.2-5.8,0.2c-3.2,0-5.8-0.1-5.8-0.2s2.6-0.2,5.8-0.2
		C270.8,274.2,273.4,274.3,273.4,274.3z"/>
	<path class="st4" d="M190.5,293.4c0,0.1-4.9,0.2-10.9,0.2c-6,0-10.9-0.1-10.9-0.2s4.9-0.2,10.9-0.2
		C185.6,293.2,190.5,293.3,190.5,293.4z"/>
	<path class="st2" d="M215.7,293.4c0,0.1-4.9,0.2-10.9,0.2s-10.9-0.1-10.9-0.2s4.9-0.2,10.9-0.2S215.7,293.3,215.7,293.4z"/>
	<path class="st2" d="M206.1,298.1c0,0.1-7.2,0.2-16.1,0.2s-16.1-0.1-16.1-0.2s7.2-0.2,16.1-0.2C198.9,298,206.1,298.1,206.1,298.1z
		"/>
	<path class="st2" d="M206.1,302.8c0,0.1-7.2,0.2-16.1,0.2s-16.1-0.1-16.1-0.2c0-0.1,7.2-0.2,16.1-0.2
		C198.9,302.7,206.1,302.7,206.1,302.8z"/>
	<path class="st2" d="M218.7,307.6c0,0.1-7.2,0.2-16.1,0.2s-16.1-0.1-16.1-0.2s7.2-0.2,16.1-0.2
		C211.5,307.4,218.7,307.5,218.7,307.6z"/>
	<path class="st2" d="M258,307.6c0,0.1-7.2,0.2-16.1,0.2s-16.1-0.1-16.1-0.2s7.2-0.2,16.1-0.2S258,307.5,258,307.6z"/>
	<path class="st5" d="M244.3,298.1c0,0.1-7.2,0.2-16.1,0.2s-16.1-0.1-16.1-0.2s7.2-0.2,16.1-0.2C237.1,298,244.3,298.1,244.3,298.1z
		"/>
	<path class="st1" d="M262,302.8c0,0.1-11.1,0.2-24.9,0.2c-13.8,0-24.9-0.1-24.9-0.2c0-0.1,11.1-0.2,24.9-0.2
		C250.9,302.7,262,302.7,262,302.8z"/>
	<path class="st5" d="M180.1,307.6c0,0.1-2.6,0.2-5.8,0.2c-3.2,0-5.8-0.1-5.8-0.2s2.6-0.2,5.8-0.2
		C177.5,307.4,180.1,307.5,180.1,307.6z"/>
	<path class="st4" d="M273.4,307.6c0,0.1-2.6,0.2-5.8,0.2c-3.2,0-5.8-0.1-5.8-0.2s2.6-0.2,5.8-0.2
		C270.8,307.4,273.4,307.5,273.4,307.6z"/>
	<path class="st3" d="M276.6,331c0,0.1-29.7,0.1-66.5,0.1s-66.5-0.1-66.5-0.1c0-0.1,29.7-0.1,66.5-0.1S276.6,330.9,276.6,331z"/>
</g>
<g id="freepik--Floor--inject-2">
	<path class="st3" d="M302.8,337.1c0,0.1-38.2,0.1-85.2,0.1s-85.2-0.1-85.2-0.1c0-0.1,38.2-0.1,85.2-0.1
		C264.6,336.9,302.8,337,302.8,337.1z"/>
</g>
<g>
	<path class="st6" d="M56.1,62.5c-1,0-1.9-0.3-2.9-0.8l-13.6-8c-1.6-1-2.6-3-2.6-4.7V33.3c0-1.8,1-3.7,2.6-4.7l13.6-8
		c0.8-0.5,1.7-0.8,2.7-0.8c1,0,1.9,0.3,2.9,0.8l13.6,8c1.6,1,2.6,3,2.6,4.7V49c0,1.8-1,3.7-2.6,4.7l-13.6,8
		C58,62.1,57,62.5,56.1,62.5z"/>
	<path class="st7" d="M55.9,20.2c0.9,0,1.7,0.3,2.6,0.7l13.6,8c1.5,1,2.4,2.7,2.4,4.3V49c0,1.7-1,3.4-2.4,4.3l-13.6,8
		c-0.7,0.5-1.6,0.7-2.4,0.7s-1.7-0.3-2.6-0.7l-13.6-8c-1.5-1-2.4-2.7-2.4-4.3V33.3c0-1.7,1-3.4,2.4-4.3l13.6-8
		C54.2,20.5,55,20.2,55.9,20.2 M55.9,19.3c-1,0-2.1,0.3-2.9,0.9l-13.5,8l0,0l0,0c-1.7,1.1-2.8,3.1-2.8,5V49c0,1.9,1.1,3.9,2.8,5l0,0
		l0,0l13.6,8c1,0.5,2,0.9,3,0.9c1,0,2.1-0.3,2.9-0.9l13.5-8l0,0l0,0c1.7-1.1,2.8-3.1,2.8-5V33.3c0-1.9-1.1-3.9-2.8-5l0,0l0,0
		l-13.6-8C58,19.6,56.9,19.3,55.9,19.3L55.9,19.3z"/>
</g>
<g>
	<path class="st6" d="M148.5,64.6c-1,0-1.8-0.3-2.6-0.7l-13.6-7.8c-1.7-0.9-2.7-2.7-2.7-4.7V35.8c0-1.8,1-3.7,2.7-4.7l13.6-7.8
		c0.9-0.4,1.8-0.7,2.7-0.7c1,0,1.8,0.3,2.6,0.7l13.6,7.8c1.7,0.9,2.7,2.7,2.7,4.7v15.6c0,1.8-1,3.7-2.7,4.7l-13.6,7.8
		C150.4,64.4,149.4,64.6,148.5,64.6z"/>
	<path class="st7" d="M148.5,22.9c0.9,0,1.7,0.2,2.4,0.7l13.6,7.8c1.6,0.9,2.4,2.6,2.4,4.3v15.6c0,1.7-1,3.5-2.4,4.3L151,63.6
		c-0.8,0.4-1.7,0.7-2.5,0.7s-1.7-0.2-2.4-0.7l-13.6-7.8c-1.6-0.9-2.4-2.6-2.4-4.3V35.8c0-1.7,1-3.5,2.4-4.3l13.6-7.8
		C146.9,23.1,147.8,22.9,148.5,22.9 M148.5,22c-1,0-2,0.3-3,0.8l-13.6,7.8c-1.7,1-2.9,3.1-2.9,5.1v15.6c0,2.2,1.1,4.1,3,5.1
		l13.6,7.8c0.9,0.5,1.8,0.8,2.9,0.8c1,0,2-0.3,3-0.8l13.6-7.8c1.7-1,2.9-3.1,2.9-5.1V35.8c0-2.2-1.1-4.1-3-5.1l-13.6-7.8
		C150.6,22.3,149.6,22,148.5,22L148.5,22z"/>
</g>
<g>
	<path class="st6" d="M102.2,108.8c-1,0-1.9-0.3-2.7-0.7l-13.6-7.9c-1.7-1-2.8-2.8-2.8-4.7V79.8c0-1.9,1-3.7,2.8-4.7l13.6-7.9
		c0.9-0.4,1.8-0.7,2.7-0.7c1,0,1.9,0.3,2.7,0.7l13.6,7.8c1.7,1,2.8,2.8,2.8,4.7v15.7c0,1.9-1,3.7-2.8,4.7l-13.6,7.9
		C104.1,108.5,103.2,108.8,102.2,108.8z"/>
	<path class="st7" d="M102.3,66.9c0.9,0,1.7,0.2,2.4,0.7l13.6,7.8c1.6,0.9,2.5,2.5,2.5,4.3v15.7c0,1.8-1,3.4-2.5,4.3l-13.6,7.9
		c-0.8,0.4-1.7,0.7-2.5,0.7s-1.7-0.3-2.4-0.7l-13.6-7.9c-1.6-0.9-2.5-2.5-2.5-4.3V79.8c0-1.8,1-3.4,2.5-4.3l13.6-7.9
		C100.6,67.1,101.4,66.9,102.3,66.9 M102.3,66c-1,0-2,0.3-3,0.8l-13.6,7.9c-1.9,1.1-3,3-3,5.1v15.6c0,2.2,1.1,4.1,3,5.1l13.6,7.9
		c0.9,0.5,1.9,0.8,2.9,0.8c1,0,2-0.3,3-0.8l13.6-7.9c1.9-1.1,3-3,3-5.1V79.7c0-2.2-1.1-4.1-3-5.1l-13.6-7.8
		C104.3,66.3,103.3,66,102.3,66L102.3,66z"/>
</g>
<g>
	<path class="st6" d="M148.5,155.1c-1,0-1.9-0.3-2.8-0.7l-13.6-7.8c-1.7-0.9-2.7-2.7-2.7-4.7v-15.6c0-1.8,1-3.7,2.7-4.7l13.6-7.8
		c0.9-0.4,1.8-0.7,2.8-0.7c1,0,1.9,0.3,2.8,0.7l13.6,7.8c1.7,0.9,2.7,2.7,2.7,4.7v15.6c0,1.8-1,3.7-2.7,4.7l-13.6,7.8
		C150.5,154.8,149.5,155.1,148.5,155.1z"/>
	<path class="st7" d="M148.5,113.4c0.9,0,1.7,0.2,2.5,0.7l13.6,7.8c1.6,0.9,2.4,2.6,2.4,4.3v15.6c0,1.7-1,3.5-2.4,4.3l-13.6,7.8
		c-0.8,0.4-1.7,0.7-2.5,0.7s-1.7-0.2-2.5-0.7l-13.6-7.8c-1.6-0.9-2.4-2.6-2.4-4.3v-15.6c0-1.7,1-3.5,2.4-4.3l13.6-7.8
		C146.8,113.6,147.7,113.4,148.5,113.4 M148.5,112.5c-1,0-2,0.3-3,0.8l-13.6,7.8c-1.7,1-2.9,3.1-2.9,5.1v15.6c0,2.2,1.1,4.1,3,5.1
		l13.6,7.8c1,0.5,1.9,0.8,3,0.8c1,0,2-0.3,3-0.8l13.6-7.8c1.7-1,2.9-3.1,2.9-5.1v-15.6c0-2.2-1.1-4.1-3-5.1l-13.6-7.8
		C150.5,112.8,149.6,112.5,148.5,112.5L148.5,112.5z"/>
</g>
<g>
	<path class="st6" d="M379.4,108.9c-1,0-1.9-0.3-2.9-0.9l-13.6-8c-1.7-1.3-2.6-3-2.6-4.7V79.7c0-1.7,1-3.5,2.6-4.7l13.6-8
		c0.7-0.5,1.7-0.9,2.6-0.9c1,0,1.9,0.3,2.9,0.9l13.6,8c1.7,1.3,2.6,3,2.6,4.7v15.6c0,1.7-1,3.5-2.6,4.7l-13.6,8
		C381.3,108.7,380.4,108.9,379.4,108.9z"/>
	<path class="st7" d="M379.1,66.6c0.9,0,1.8,0.3,2.7,0.8l13.6,8c1.4,1,2.4,2.6,2.4,4.3v15.6c0,1.7-1,3.3-2.4,4.3l-13.6,8
		c-0.7,0.5-1.6,0.8-2.4,0.8c-0.9,0-1.8-0.3-2.7-0.8l-13.6-8c-1.4-1-2.4-2.6-2.4-4.3V79.7c0-1.7,1-3.3,2.4-4.3l13.6-8
		C377.5,66.9,378.2,66.6,379.1,66.6 M379.1,65.8c-1,0-2.1,0.3-2.9,1l-13.6,8l0,0l0,0c-1.7,1.3-2.8,3.1-2.8,5v15.6c0,1.9,1,3.7,2.8,5
		l0,0l0,0l13.6,8c1,0.6,2.1,0.9,3.1,0.9c1,0,2.1-0.3,2.9-1l13.6-8l0,0l0,0c1.7-1.3,2.8-3.1,2.8-5V79.7c0-1.9-1-3.7-2.8-5l0,0l0,0
		l-13.6-8C381.3,66.1,380.1,65.8,379.1,65.8L379.1,65.8z"/>
</g>
<g>
	<path class="st6" d="M240.8,63.1c-1,0-1.9-0.3-2.9-0.8l-13.6-7.7c-1.7-1-2.6-3-2.6-4.7V34.2c0-1.8,1-3.7,2.6-4.7l13.6-7.7
		c0.8-0.5,1.7-0.8,2.7-0.8c1,0,1.9,0.3,2.9,0.8l13.6,7.7c1.7,1,2.6,3,2.6,4.7v15.7c0,1.8-1,3.7-2.6,4.7l-13.6,7.7
		C242.7,62.9,241.9,63.1,240.8,63.1z"/>
	<path class="st7" d="M240.7,21.4c0.9,0,1.7,0.3,2.6,0.7l13.6,7.7c1.5,1,2.4,2.7,2.4,4.3v15.7c0,1.7-1,3.4-2.4,4.3L243.3,62
		c-0.7,0.5-1.6,0.7-2.4,0.7s-1.7-0.3-2.6-0.7l-13.6-7.7c-1.5-1-2.4-2.7-2.4-4.3V34.2c0-1.7,1-3.4,2.4-4.3l13.6-7.7
		C239,21.7,239.8,21.4,240.7,21.4 M240.7,20.6c-1,0-2.1,0.3-2.9,0.9l-13.5,7.7l0,0l0,0c-1.7,1.1-2.8,3.1-2.8,5v15.7
		c0,1.9,1.1,3.9,2.8,5l0,0l0,0l13.6,7.7c1,0.5,2,0.9,3,0.9s2.1-0.3,2.9-0.9l13.5-7.7l0,0l0,0c1.7-1.1,2.8-3.1,2.8-5V34.2
		c0-1.9-1.1-3.9-2.8-5l0,0l0,0l-13.6-7.7C242.7,20.8,241.7,20.6,240.7,20.6L240.7,20.6z"/>
</g>
<g>
	<path class="st6" d="M240.7,155.4c-0.9,0-1.7-0.3-2.6-0.8l-13.5-8c-1.7-1-2.9-2.8-2.9-4.7v-15.7c0-1.9,1.1-3.7,2.9-4.7l13.5-8
		c0.9-0.5,1.8-0.8,2.7-0.8s1.7,0.3,2.6,0.8l13.5,8c1.7,1,2.9,2.8,2.9,4.7v15.7c0,1.9-1.1,3.7-2.9,4.7l-13.5,8
		C242.5,155.1,241.6,155.4,240.7,155.4z"/>
	<path class="st7" d="M240.8,113.1c0.8,0,1.6,0.3,2.3,0.7l13.6,8c1.7,1,2.7,2.7,2.7,4.3v15.7c0,1.7-1,3.4-2.7,4.3l-13.6,8
		c-0.9,0.5-1.7,0.7-2.5,0.7s-1.6-0.3-2.3-0.7l-13.6-8c-1.7-1-2.7-2.7-2.7-4.3v-15.7c0-1.7,1-3.4,2.7-4.3l13.6-8
		C239.2,113.4,240.1,113.1,240.8,113.1 M240.8,112.3c-1,0-2,0.3-3,0.9l-13.6,8c-1.9,1-3,3-3,5.1V142c0,2.1,1.2,4,3.1,5.1l13.5,7.9
		c0.9,0.6,1.8,0.9,2.8,0.9s2-0.3,3-0.9l13.6-8c1.9-1,3-3,3-5.1v-15.7c0-2.1-1.2-4-3.1-5.1l-13.5-7.9
		C242.8,112.5,241.9,112.3,240.8,112.3L240.8,112.3z"/>
</g>
<g>
	<path class="st6" d="M333.2,62.1c-1,0-1.9-0.3-2.9-0.8l-13.6-8c-1.6-1-2.6-3-2.6-4.7V32.9c0-1.8,1-3.7,2.6-4.7l13.6-8
		c0.8-0.5,1.7-0.8,2.7-0.8c1,0,1.9,0.3,2.9,0.8l13.6,8c1.6,1,2.6,3,2.6,4.7v15.7c0,1.8-1,3.7-2.6,4.7l-13.6,8
		C335.1,61.8,334.3,62.1,333.2,62.1z"/>
	<path class="st7" d="M333,19.9c0.9,0,1.7,0.3,2.6,0.7l13.6,8c1.5,1,2.4,2.7,2.4,4.3v15.7c0,1.7-1,3.4-2.4,4.3l-13.6,8
		c-0.7,0.5-1.6,0.7-2.4,0.7c-0.9,0-1.7-0.3-2.6-0.7l-13.6-8c-1.5-1-2.4-2.7-2.4-4.3V32.9c0-1.7,1-3.4,2.4-4.3l13.6-8
		C331.4,20.1,332.2,19.9,333,19.9 M333,19c-1,0-2.1,0.3-2.9,0.9l-13.5,8l0,0l0,0c-1.7,1.1-2.8,3.1-2.8,5v15.7c0,1.9,1.1,3.9,2.8,5
		l0,0l0,0l13.6,8c1,0.5,2,0.9,3,0.9c1,0,2.1-0.3,2.9-0.9l13.5-8l0,0l0,0c1.7-1.1,2.8-3.1,2.8-5V32.9c0-1.9-1.1-3.9-2.8-5l0,0l0,0
		l-13.6-8C335.2,19.3,334.1,19,333,19L333,19z"/>
</g>
<g>
	<path class="st6" d="M287,108.7c-1,0-1.9-0.3-2.8-0.7l-13.6-7.8c-1.7-0.9-2.7-2.7-2.7-4.7V79.8c0-1.8,1-3.7,2.7-4.7l13.6-7.8
		c0.9-0.4,1.8-0.7,2.8-0.7c1,0,1.9,0.3,2.8,0.7l13.6,7.8c1.7,0.9,2.7,2.7,2.7,4.7v15.6c0,1.8-1,3.7-2.7,4.7l-13.6,7.8
		C288.9,108.4,287.9,108.7,287,108.7z"/>
	<path class="st7" d="M287,67c0.9,0,1.7,0.2,2.5,0.7l13.6,7.8c1.6,0.9,2.4,2.6,2.4,4.3v15.6c0,1.7-1,3.5-2.4,4.3l-13.6,7.8
		c-0.8,0.4-1.7,0.7-2.5,0.7c-0.9,0-1.7-0.2-2.5-0.7l-13.6-7.8c-1.6-0.9-2.4-2.6-2.4-4.3V79.8c0-1.7,1-3.5,2.4-4.3l13.6-7.8
		C285.2,67.1,286.1,67,287,67 M287,66.1c-1,0-2,0.3-3,0.8l-13.6,7.8c-1.7,1-2.9,3.1-2.9,5.1v15.6c0,2.2,1.1,4.1,3,5.1l13.6,7.8
		c1,0.5,1.9,0.8,3,0.8c1,0,2-0.3,3-0.8l13.6-7.8c1.7-1,2.9-3.1,2.9-5.1V79.8c0-2.2-1.1-4.1-3-5.1l-13.6-7.8
		C289,66.4,288,66.1,287,66.1L287,66.1z"/>
</g>
<g>
	<path class="st6" d="M56,155.3c-1,0-1.9-0.3-2.7-0.7l-13.7-8c-1.7-1-2.6-2.7-2.6-4.7v-15.6c0-2.1,1-3.8,2.7-4.7l13.6-8.1
		c0.9-0.4,1.8-0.7,2.8-0.7c1,0,1.9,0.3,2.7,0.7l13.7,8c1.7,1,2.6,2.7,2.6,4.7v15.6c0,2.1-1,3.8-2.7,4.7l-13.7,8
		C57.9,155,56.9,155.3,56,155.3z"/>
	<path class="st7" d="M56,113.2c0.9,0,1.7,0.2,2.5,0.7l13.7,8c1.6,0.9,2.4,2.4,2.4,4.3v15.6c0,1.9-0.9,3.5-2.4,4.3l-13.7,8
		c-0.8,0.4-1.7,0.7-2.5,0.7s-1.7-0.2-2.5-0.7l-13.7-8c-1.6-0.9-2.4-2.4-2.4-4.3v-15.6c0-1.9,0.9-3.5,2.4-4.3l13.7-8
		C54.2,113.4,55.1,113.2,56,113.2 M56,112.3c-1,0-2.1,0.3-3,0.8l-13.7,8c-1.8,1-2.9,2.9-2.9,5.1v15.6c0,2.3,1,4.1,2.9,5.1l13.7,8
		c0.9,0.5,1.9,0.8,3,0.8s2.1-0.3,3-0.8l13.7-8c1.8-1,2.9-2.9,2.9-5.1v-15.6c0-2.3-1-4.1-2.9-5.1l-13.7-8
		C58.1,112.6,57,112.3,56,112.3L56,112.3z"/>
</g>
<path class="st6" d="M64.2,129.5h-0.7H48.2h-0.7v-0.7c0-2.4,1.4-5,3.7-6.4l-0.9-1.6c-0.2-0.2-0.2-0.5,0-0.7c0-0.2,0.2-0.5,0.5-0.5
	c0.2,0,0.3-0.2,0.5-0.2c0.3,0,0.7,0.2,0.7,0.5l0.9,1.7c0.9-0.3,2.1-0.5,3-0.5c1,0,2.1,0.2,3.1,0.5l0.9-1.7c0.2-0.3,0.5-0.5,0.7-0.5
	c0.2,0,0.3,0,0.5,0.2s0.3,0.3,0.5,0.5c0,0.2,0,0.5,0,0.7l-0.9,1.6c2.3,1.4,3.7,3.7,3.7,6.4L64.2,129.5z M59.7,122.7l1.2-2.1
	c0-0.2,0-0.3-0.2-0.3c-0.2,0-0.3,0-0.3,0.2l-1.2,2.1c-0.9-0.5-2.1-0.7-3.3-0.7c-1.2,0-2.3,0.3-3.3,0.7l-1.2-2.1
	c0-0.2-0.2-0.2-0.3-0.2c-0.2,0-0.2,0.2-0.2,0.3l1.2,2.1c-2.3,1.2-3.8,3.5-3.8,6.1h15.3C63.7,126.2,62,123.9,59.7,122.7z M52.4,126
	c-0.3,0-0.7-0.3-0.7-0.7s0.3-0.7,0.7-0.7c0.3,0,0.7,0.3,0.7,0.7S52.8,126,52.4,126z M59.5,126c-0.3,0-0.7-0.3-0.7-0.7
	s0.3-0.7,0.7-0.7s0.7,0.3,0.7,0.7C60.1,125.6,59.7,126,59.5,126z M53.1,148.2c-1.2,0-2.3-1-2.3-2.3v-3.1h-0.7
	c-0.7,0-1.2-0.3-1.7-0.7c-0.5-0.5-0.7-1-0.7-1.7v-11v-0.7h0.7h15.3h0.7v0.7v11c0,1.4-1,2.4-2.4,2.4h-0.7v3.1c0,1.2-1,2.3-2.3,2.3
	c-0.7,0-1.2-0.3-1.7-0.7c-0.5-0.5-0.7-1-0.7-1.7v-3.1h-1v3.1C55.4,147.2,54.3,148.2,53.1,148.2z"/>
<path class="st6" d="M48.4,140.2c0,0.9,0.7,1.9,1.9,1.9h1.2v3.7c0,0.9,0.7,1.7,1.7,1.7c1,0,1.7-0.7,1.7-1.7v-3.7h2.3v3.7
	c0,0.9,0.7,1.7,1.7,1.7c1,0,1.7-0.7,1.7-1.7v-3.7H62c0.9,0,1.9-0.7,1.9-1.9v-11H48.6L48.4,140.2z M65.8,140.1c-1.2,0-2.3-1-2.3-2.3
	v-7.1c0-1.2,1-2.3,2.3-2.3c1.2,0,2.3,1,2.3,2.3v7.1C68.2,139,67.2,140.1,65.8,140.1z M65.8,128.9c-0.9,0-1.7,0.7-1.7,1.7v7.1
	c0,0.9,0.7,1.7,1.7,1.7c1,0,1.7-0.7,1.7-1.7v-7.1C67.5,129.8,66.8,128.9,65.8,128.9z"/>
<path class="st6" d="M46.2,140.1c-1.2,0-2.3-1-2.3-2.3v-7.1c0-1.2,1-2.3,2.3-2.3c0.7,0,1.2,0.3,1.7,0.7c0.5,0.5,0.7,1,0.7,1.7v7.1
	c0,0.7-0.3,1.2-0.7,1.7C47.2,139.9,46.7,140.1,46.2,140.1z M46.2,128.9c-0.9,0-1.7,0.7-1.7,1.7v7.1c0,0.9,0.7,1.7,1.7,1.7
	c1,0,1.7-0.7,1.7-1.7v-7.1C47.7,129.8,47,128.9,46.2,128.9z"/>
<g>
	<path class="st6" d="M102.3,201.9c-1,0-1.9-0.3-2.9-0.8l-13.6-8c-1.6-1-2.6-3-2.6-4.7v-15.7c0-1.8,1-3.7,2.6-4.7l13.6-8
		c0.8-0.5,1.7-0.8,2.7-0.8c1,0,1.9,0.3,2.9,0.8l13.6,8c1.6,1,2.6,3,2.6,4.7v15.7c0,1.8-1,3.7-2.6,4.7l-13.6,8
		C104.2,201.6,103.3,201.9,102.3,201.9z"/>
	<path class="st7" d="M102.1,159.7c0.9,0,1.7,0.3,2.6,0.7l13.6,8c1.5,1,2.4,2.7,2.4,4.3v15.7c0,1.7-1,3.4-2.4,4.3l-13.6,8
		c-0.7,0.5-1.6,0.7-2.4,0.7s-1.7-0.3-2.6-0.7l-13.6-8c-1.5-1-2.4-2.7-2.4-4.3v-15.7c0-1.7,1-3.4,2.4-4.3l13.6-8
		C100.4,160,101.3,159.7,102.1,159.7 M102.1,158.8c-1,0-2.1,0.3-2.9,0.9l-13.5,8l0,0l0,0c-1.7,1.1-2.8,3.1-2.8,5v15.7
		c0,1.9,1.1,3.9,2.8,5l0,0l0,0l13.6,8c1,0.5,2,0.9,3,0.9c1,0,2.1-0.3,2.9-0.9l13.5-8l0,0l0,0c1.7-1.1,2.8-3.1,2.8-5v-15.7
		c0-1.9-1.1-3.9-2.8-5l0,0l0,0l-13.6-8C104.2,159.1,103.2,158.8,102.1,158.8L102.1,158.8z"/>
</g>
<g>
	<path class="st6" d="M194.7,108.7c-1,0-1.9-0.3-2.7-0.7l-13.6-7.8c-1.7-0.9-2.6-2.7-2.6-4.7V79.8c0-1.8,1-3.7,2.6-4.7l13.6-7.8
		c0.9-0.4,1.8-0.7,2.8-0.7s1.9,0.3,2.7,0.7l13.6,7.8c1.7,0.9,2.7,2.7,2.7,4.7v15.6c0,1.8-1,3.7-2.6,4.7l-13.6,7.8
		C196.6,108.4,195.6,108.7,194.7,108.7z"/>
	<path class="st7" d="M194.7,67c0.9,0,1.7,0.2,2.5,0.7l13.6,7.8c1.6,0.9,2.4,2.6,2.4,4.3v15.6c0,1.7-1,3.5-2.4,4.3l-13.6,7.8
		c-0.8,0.4-1.7,0.7-2.5,0.7s-1.7-0.2-2.5-0.7l-13.6-7.8c-1.6-0.9-2.4-2.6-2.4-4.3V79.8c0-1.7,1-3.5,2.4-4.3l13.6-7.8
		C192.9,67.1,193.8,67,194.7,67 M194.7,66.1c-1,0-2.1,0.3-3,0.8l-13.6,7.8c-1.7,1-2.9,3.1-2.9,5.1v15.6c0,2.2,1.1,4.1,2.9,5.1
		l13.6,7.8c0.9,0.5,1.9,0.8,3,0.8s2.1-0.3,3-0.8l13.6-7.8c1.7-1,2.9-3.1,2.9-5.1V79.8c0-2.2-1.1-4.1-2.9-5.1l-13.6-7.8
		C196.8,66.4,195.7,66.1,194.7,66.1L194.7,66.1z"/>
</g>
<g>
	<path class="st6" d="M333.1,156.1c-1,0-2-0.3-2.9-0.7l-14.3-8.3c-1.7-0.9-2.9-2.8-2.9-5v-16.6c0-2,1.1-4,2.9-5l14.3-8.3
		c1-0.4,1.9-0.7,3-0.7c1,0,2,0.3,2.9,0.7l14.3,8.3c1.7,0.9,2.9,2.8,2.9,5v16.6c0,2-1.1,4-2.9,5l-14.3,8.3
		C335.1,156,334.2,156.1,333.1,156.1z"/>
	<path class="st7" d="M333.1,112.3c1,0,1.8,0.3,2.7,0.7l14.3,8.3c1.7,0.9,2.6,2.8,2.6,4.5v16.6c0,1.9-1,3.7-2.6,4.5l-14.3,8.3
		c-0.9,0.4-1.8,0.7-2.7,0.7c-1,0-1.8-0.3-2.7-0.7l-14.3-8.3c-1.7-0.9-2.6-2.8-2.6-4.5v-16.6c0-1.9,1-3.7,2.6-4.5l14.3-8.3
		C331.3,112.5,332.3,112.3,333.1,112.3 M333.1,111.4c-1,0-2.1,0.3-3.1,0.8l0,0l0,0l-14.3,8.3c-1.9,1-3,3-3,5.3v16.6
		c0,2.3,1.2,4.3,3,5.3l14.3,8.2l0,0l0,0c1,0.5,2,0.8,3.1,0.8c1,0,2.1-0.3,3.1-0.8l0,0l0,0l14.3-8.3c1.9-1,3-3,3-5.3v-16.6
		c0-2.3-1.2-4.3-3-5.3l-14.3-8.2l0,0l0,0C335.3,111.6,334.3,111.4,333.1,111.4L333.1,111.4z"/>
</g>
<g>
	<path class="st8" d="M345.6,144.2c-0.2,0.3-0.2,0.6-0.3,0.8c-0.3-0.5-0.6-0.8-1-1.1c-1-0.8-1.9-1.3-3.2-1.3c-0.6,0-1.3,0.3-1.9,0.6
		c-1,0.5-1.9,1-3,1.3c-1.5,0.5-3,0.6-4.5,0.5c-2.4-0.2-4.7-0.6-6.9-1.7c-3.4-1.7-6-3.9-8.2-7c0,0,0-0.2-0.2-0.2l0,0
		c0.8,0.5,1.8,1,2.8,1.5c1.9,0.8,3.9,1.5,6,1.8c2.6,0.3,5,0,7.6-1.3c0.2,0,0.2-0.2,0.3-0.2c-0.3-0.3-0.8-0.5-1.1-0.8
		c-1.7-1.3-3.2-2.8-4.5-4.3c-2.8-3-5.2-5.8-7.8-9.1c0,0,0-0.2-0.2-0.2l0,0c1,0.6,1.8,1.5,2.8,2.1c2.6,1.9,5,3.9,7.8,5.6
		c0.2,0.2,0.3,0.2,0.5,0.3c-2.8-3-5-6.2-7.4-9.5c0.2,0,0.2,0,0.3,0c3.4,3,7,6,10.8,8.7c0.8,0.6,1.8,1.3,2.6,1.9
		c0.2,0.2,0.2,0.2,0.3-0.2c0.6-1.9,0.8-3.9,0.5-6c-0.3-2.8-1.5-5.2-3-7.6h0.2c2.8,1.9,5.4,4.2,7.2,7.4c1.3,2.1,1.9,4.5,1.9,7
		c0,1.1-0.2,2.3-0.5,3.2c0,0.2,0,0.3,0.2,0.5c1,1.3,1.8,2.8,2.3,4.3c0,0.2,0,0.5,0.2,0.6c0,0.5,0,0.8,0,1.3
		C345.6,144.1,345.6,144.1,345.6,144.2z"/>
	<path class="st8" d="M319.1,123.5C319.1,123.5,319.1,123.5,319.1,123.5L319.1,123.5L319.1,123.5z"/>
	<path class="st8" d="M316.4,136.2C316.2,136.2,316.2,136.2,316.4,136.2C316.2,136.2,316.4,136.2,316.4,136.2L316.4,136.2z"/>
	<path class="st8" d="M319.1,123.5C319.1,123.5,319.1,123.7,319.1,123.5C319.1,123.7,319.1,123.7,319.1,123.5
		C319.1,123.7,319.1,123.7,319.1,123.5L319.1,123.5z"/>
</g>
<g>
	<path class="st6" d="M287,202.7c-1,0-1.9-0.3-2.9-0.7l-14.3-8.3c-1.7-0.9-2.8-2.8-2.8-5v-16.4c0-2,1-3.9,2.8-5l14.3-8.3
		c1-0.4,1.9-0.7,2.9-0.7c1,0,1.9,0.3,2.9,0.7l14.3,8.3c1.7,0.9,2.8,2.8,2.8,5v16.4c0,2-1,3.9-2.8,5l-14.3,8.3
		C288.9,202.5,287.9,202.7,287,202.7z"/>
	<path class="st7" d="M287,158.8c0.9,0,1.8,0.2,2.7,0.6l14.3,8.3c1.7,0.9,2.6,2.8,2.6,4.6v16.4c0,1.9-1,3.7-2.6,4.6l-14.3,8.3
		c-0.9,0.4-1.7,0.6-2.7,0.6c-1,0-1.8-0.2-2.7-0.6l-14.3-8.3c-1.7-0.9-2.6-2.8-2.6-4.6v-16.4c0-1.9,1-3.7,2.6-4.6l14.3-8.3
		C285.2,159.1,286.1,158.8,287,158.8 M287,158c-1,0-2.1,0.3-3,0.8l0,0l0,0l-14.3,8.3c-1.9,1.2-3,3.2-3,5.4v16.4c0,2.3,1.1,4.4,3,5.4
		l14.3,8.3l0,0l0,0c1,0.5,2,0.8,3,0.8c1,0,2.1-0.3,3-0.8l0,0l0,0l14.3-8.3c1.9-1.2,3-3.2,3-5.4v-16.4c0-2.3-1.1-4.4-3-5.4l-14.3-8.3
		l0,0l0,0C289.1,158.2,288,158,287,158L287,158z"/>
</g>
<g>
	<path class="st6" d="M194.8,201.9c-1,0-1.9-0.3-2.9-0.8l-13.6-8c-1.6-1-2.6-3-2.6-4.7v-15.7c0-1.8,1-3.7,2.6-4.7l13.6-8
		c0.8-0.5,1.7-0.8,2.7-0.8c1,0,1.9,0.3,2.9,0.8l13.6,8c1.6,1,2.6,3,2.6,4.7v15.7c0,1.8-1,3.7-2.6,4.7l-13.6,8
		C196.7,201.6,195.7,201.9,194.8,201.9z"/>
	<path class="st7" d="M194.6,159.7c0.9,0,1.7,0.3,2.6,0.7l13.6,8c1.5,1,2.4,2.7,2.4,4.3v15.7c0,1.7-1,3.4-2.4,4.3l-13.6,8
		c-0.7,0.5-1.6,0.7-2.4,0.7s-1.7-0.3-2.6-0.7l-13.6-8c-1.5-1-2.4-2.7-2.4-4.3v-15.7c0-1.7,1-3.4,2.4-4.3l13.6-8
		C192.9,160,193.7,159.7,194.6,159.7 M194.6,158.8c-1,0-2.1,0.3-2.9,0.9l-13.5,8l0,0l0,0c-1.7,1.1-2.8,3.1-2.8,5v15.7
		c0,1.9,1.1,3.9,2.8,5l0,0l0,0l13.6,8c1,0.5,2,0.9,3,0.9s2.1-0.3,2.9-0.9l13.5-8l0,0l0,0c1.7-1.1,2.8-3.1,2.8-5v-15.7
		c0-1.9-1.1-3.9-2.8-5l0,0l0,0l-13.6-8C196.7,159.1,195.6,158.8,194.6,158.8L194.6,158.8z"/>
</g>
<radialGradient id="Shadow_to_man_1_" cx="284.1138" cy="-501.4453" r="14.7578" gradientTransform="matrix(1 0 0 -1 0 -112)" gradientUnits="userSpaceOnUse">
	<stop  offset="0" style="stop-color:#9E9E9E"/>
	<stop  offset="1" style="stop-color:#363636"/>
</radialGradient>
<ellipse id="Shadow_to_man" class="st9" cx="284.1" cy="389.5" rx="19.8" ry="6.5"/>
<g id="Asian_Business_man">
	<g>
		<g>
			<g>
				<path class="st10" d="M291.1,389.5c-0.5,0-5.8-0.1-5.9-0.1c-1.8,0.3-3.7-1.6-4-0.7c-0.2,0.3,0.1,0.6,0.3,0.7
					c0.9,0.5,1.5,0.8,2.8,0.9c0.5,0,1.2-0.2,1.7-0.1c1.9,0.3,2.6,0.8,3.2,0.8c1.7,0,2.1-0.2,2.3-0.7
					C291.7,389.9,291.7,389.5,291.1,389.5z"/>
			</g>
		</g>
		<path class="st11" d="M291.7,387.9c-0.1-0.5-0.3-1-0.4-1.4c-0.1-0.3-0.2-0.4-0.3-0.7v-0.1c-0.2-0.3-1.2-0.3-1.6-0.3
			c-0.5,0-1.3,0-1.3,0.2c-0.7,1.4-2.2,0.3-3.5,0.1c-0.3,0-1,0-1.1,0c-1.8,0.3-2.2,1.3-2.3,2.3c0,0.3,0.1,0.5,0.2,0.6c0,0,0,0,0.1,0
			c0.9,0.5,1.5,0.8,2.8,0.9c0.5,0,1.2,0,1.7,0.1c1.9,0.3,2.8,0.6,3.5,0.6c1.7,0,1.8-0.3,2.2-0.7
			C291.7,389.5,291.7,388.4,291.7,387.9z"/>
		<g>
			<path class="st12" d="M284.5,385.8c-0.3,0-1,0-1.1,0c-1.2,0.3-1.7,0.8-2,1.3c0.4,0.5,1.6,0.7,2.2-0.1c0.5-0.7,1.2-1,1.6-1.2
				C284.9,385.9,284.6,385.8,284.5,385.8z"/>
			<path class="st12" d="M291.5,389.7c0.2-0.2,0.2-1.2,0.1-1.7c-0.1-0.5-0.3-1-0.4-1.4c-0.1-0.1-0.1-0.3-0.2-0.3
				c-0.3-0.3-0.7-0.3-1.1-0.3c-1.2,0-2.1,1.2-2.1,2.6c0,0.7,0.3,1.3,0.6,1.8c0.3,0.1,0.6,0.1,0.9,0.1
				C291.1,390.3,291.2,390.1,291.5,389.7z"/>
			<g>
				<path class="st13" d="M285.6,386c-0.2,0.2-0.3,0.4-0.3,0.7c-0.1,0.2,0.3,0.3,0.3,0.1c0.1-0.2,0.2-0.4,0.3-0.6
					C285.8,386.1,285.7,386.1,285.6,386z"/>
				<path class="st13" d="M286.4,387c0-0.3,0-0.4,0.1-0.7c-0.1,0-0.2-0.1-0.3-0.1c-0.1,0.3-0.1,0.5-0.1,0.8
					C286,387.1,286.3,387.1,286.4,387z"/>
				<path class="st13" d="M286.7,387c0.1,0.2,0.3,0.1,0.3-0.1c-0.1-0.2-0.1-0.3-0.1-0.5c-0.1,0-0.2,0-0.3,0
					C286.6,386.5,286.6,386.7,286.7,387z"/>
				<path class="st13" d="M287.3,386.8c0.2,0.2,0.3,0,0.3-0.2c-0.1-0.1-0.2-0.3-0.2-0.3c-0.1,0-0.2,0.1-0.3,0.1
					C287.1,386.5,287.2,386.6,287.3,386.8z"/>
				<path class="st13" d="M288.1,386.4c0.2,0.1,0.3-0.2,0.1-0.3c-0.2-0.1-0.3-0.2-0.4-0.3c-0.1,0.1-0.1,0.2-0.2,0.3
					C287.8,386.2,287.9,386.3,288.1,386.4z"/>
			</g>
		</g>
	</g>
	<g>
		<g>
			<g>
				<path class="st10" d="M282.4,389.5c-0.5,0-5.8-0.1-5.9-0.1c-1.8,0.3-3.7-1.6-4-0.7c-0.2,0.3,0.1,0.6,0.3,0.7
					c0.9,0.5,1.5,0.8,2.8,0.9c0.5,0,1.2-0.2,1.7-0.1c1.9,0.3,2.6,0.8,3.2,0.8c1.7,0,2.1-0.2,2.3-0.7
					C283,389.9,283,389.5,282.4,389.5z"/>
			</g>
		</g>
		<path class="st11" d="M282.9,387.9c-0.1-0.5-0.3-1-0.4-1.4c-0.1-0.3-0.2-0.4-0.3-0.7v-0.1c-0.2-0.3-1.2-0.3-1.6-0.3
			c-0.5,0-1.3,0-1.3,0.2c-0.7,1.4-2.2,0.3-3.5,0.1c-0.3,0-1,0-1.1,0c-1.8,0.3-2.2,1.3-2.3,2.3c0,0.3,0.1,0.5,0.2,0.6c0,0,0,0,0.1,0
			c0.9,0.5,1.5,0.8,2.8,0.9c0.5,0,1.2,0,1.7,0.1c1.9,0.3,2.8,0.6,3.5,0.6c1.7,0,1.8-0.3,2.2-0.7C283,389.5,283,388.4,282.9,387.9z"
			/>
		<g>
			<path class="st12" d="M275.9,385.8c-0.3,0-1,0-1.1,0c-1.2,0.3-1.7,0.8-2,1.3c0.4,0.5,1.6,0.7,2.2-0.1c0.5-0.7,1.2-1,1.6-1.2
				C276.3,385.9,276,385.8,275.9,385.8z"/>
			<path class="st12" d="M282.8,389.7c0.2-0.2,0.2-1.2,0.1-1.7c-0.1-0.5-0.3-1-0.4-1.4c-0.1-0.1-0.1-0.3-0.2-0.3
				c-0.3-0.3-0.7-0.3-1.1-0.3c-1.2,0-2.1,1.2-2.1,2.6c0,0.7,0.3,1.3,0.6,1.8c0.3,0.1,0.6,0.1,0.9,0.1
				C282.4,390.3,282.5,390.1,282.8,389.7z"/>
			<g>
				<path class="st13" d="M277,386c-0.2,0.2-0.3,0.4-0.3,0.7c-0.1,0.2,0.3,0.3,0.3,0.1c0.1-0.2,0.2-0.4,0.3-0.6
					C277.2,386.1,277.1,386.1,277,386z"/>
				<path class="st13" d="M277.6,387c0-0.3,0-0.4,0.1-0.7c-0.1,0-0.2-0.1-0.3-0.1c-0.1,0.3-0.1,0.5-0.1,0.8
					C277.4,387.1,277.6,387.1,277.6,387z"/>
				<path class="st13" d="M278,387c0.1,0.2,0.3,0.1,0.3-0.1s-0.1-0.3-0.1-0.5c-0.1,0-0.2,0-0.3,0C277.9,386.5,277.9,386.7,278,387z"
					/>
				<path class="st13" d="M278.6,386.8c0.2,0.2,0.3,0,0.3-0.2c-0.1-0.1-0.2-0.3-0.2-0.3c-0.1,0-0.2,0.1-0.3,0.1
					C278.5,386.5,278.6,386.6,278.6,386.8z"/>
				<path class="st13" d="M279.5,386.4c0.2,0.1,0.3-0.2,0.1-0.3c-0.2-0.1-0.3-0.2-0.4-0.3c-0.1,0.1-0.1,0.2-0.2,0.3
					C279.2,386.2,279.3,386.3,279.5,386.4z"/>
			</g>
		</g>
	</g>
	<g>
		<g>
			<g>
				<path class="st14" d="M278.1,312.6c2.3-2.3,1.6-7.1,1.6-7.1l2.5,0.2v-0.1l3.2-0.1c0,0-0.8,4.8,1.6,7.1c1.2,1.2-3.1,3.9-4.2,4.6
					v0.3C282.8,317.4,276.8,313.9,278.1,312.6z"/>
			</g>
		</g>
	</g>
	<g>
		<g>
			<g>
				<path class="st14" d="M276.3,298.2c-1.3,4,2.1,9.1,3.6,9.4c1.7,0.4,3.9-0.3,4.9-1c1.8-1.2,3.6-3.6,3.6-5.9l0.5-5.1
					c0-3.2-2.9-3.7-6.1-3.7l-0.4,0.1c-3.3,0-5.9,0.1-6,3.3C276.4,295.2,276.6,297.2,276.3,298.2z"/>
			</g>
		</g>
	</g>
	<path class="st15" d="M276.1,298.8c0,0,0.4,0.3,0.4,0.8c0,0.4-0.6,0.8-0.6,0.8C275.9,299.9,276,299.4,276.1,298.8z"/>
	<path class="st16" d="M276.1,297.1c0.3,0.6,1.6,2.9,1.6,2.1c0-0.5,1-1.4,1-1.8c0.4,0.3,0.5,6,2.8,8.2c0.7,0.7,1.7-0.6,2.6-0.7
		c0.5,0,0.4,0.7,1.1,0.7c3.3,0.2,5.2-10.7,4.3-12.9c-0.7-1.5-2.2-2.4-3.1-1.9c0-0.1-0.3-0.5-0.4-0.7c-0.3-0.3-0.7-0.3-1-0.4
		c-1.2-0.2-2.4-0.1-3.6,0c-0.4,0-1,0.1-1.3,0.1c-0.2,0-0.4,0-0.6,0c-0.5-0.1-1-0.2-1.3-0.5c-0.1-0.1-0.2,0-0.2,0
		c-0.1,0-0.1,0.1,0,0.2c0.2,0.3,0.4,0.7,0.7,1c-0.4,0-0.9-0.1-1.1-0.3c-0.1-0.1-0.2,0-0.2,0.1l0,0c0.1,0.3,0.3,0.6,0.4,0.9
		c-0.5,0-0.9,0.3-1.2,0.7C275.2,292.8,275.6,295.9,276.1,297.1z M279.1,290.7L279.1,290.7L279.1,290.7L279.1,290.7z"/>
	<g>
		<path class="st17" d="M287.2,310.7c0,0-0.7-1.1-0.9-1.4c-0.8-1.3-1.2-1.3-1.6-1.3h-4.4c-0.6,0-0.9,0.3-1.2,0.9l-1.2,1.7l1.6,3.4
			l1.2-1.9l0,0h1l1.1,2.4L287.2,310.7z"/>
	</g>
	<g>
		<g>
			<path class="st18" d="M278.7,297.4c-0.3-0.1-0.5-0.2-0.9-0.1c-0.9,0.2-1,1-0.9,1.7c0.1,0.9,1,2.1,1.7,2.2L278.7,297.4
				L278.7,297.4z"/>
		</g>
	</g>
	<g>
		<g>
			<g>
				<g>
					<g>
						<path class="st14" d="M266.7,344.4c0,0-0.6,3.1,0.3,4.5c1.1,1.8,1.8,2.3,1.8,2.3s0.2,0.1,0.3-0.1c0.2-0.2-1-1.7-1.1-2.3
							c-0.1-0.9,0-1.9,0.3-2c0.3-0.1,0.4,1.2,0.4,1.5c0,0.3,0,1,0.3,1.1c0.3,0.1,0.8-0.8,0.4-2.2c-0.3-1.4-0.2-2.3-0.2-2.3l-0.3-1.9
							L266.7,344.4z"/>
					</g>
				</g>
			</g>
			<g>
				<g>
					<path class="st17" d="M266.2,343.1l0.2,1.6c0,0,0.6,0.5,1.6,0.5c0.6,0,1.5-0.1,1.5-0.1l0.2-1.8L266.2,343.1z"/>
				</g>
			</g>
			<g>
				<path class="st4" d="M273.5,322.1c0,0,0-3.6-0.8-6.3c-0.8-2.9-1.6-3.3-1.6-3.3s-1.8,1.6-3.6,11c-1.1,5.9-1.6,19.9-1.6,19.9
					s0.6,0.3,1.6,0.4c1.4,0.1,2.3-0.4,2.3-0.4s0.7-7.3,2-14.5C272.2,327.2,273.5,322.1,273.5,322.1z"/>
			</g>
		</g>
	</g>
	<path class="st3" d="M287.2,385.7c0,0,0.7,0.4,1.4,0.4c2.2-0.1,2.3-0.4,2.3-0.4s-0.4-17.5-0.8-21.2c-0.3-3.9-0.5-21.1-0.5-21.1
		l-7.9,0.3c0.3,3.7,3,18.4,3.3,21C285.8,369.1,287.2,385.7,287.2,385.7z"/>
	<path class="st19" d="M290.4,364.4c-0.3-3.1-0.4-13-0.5-18c-0.3-1.1-0.6-2.1-1-3l-6.2,0.3c-0.2,0.4-0.4,1-0.6,1.4
		c0.7,5.1,2.9,17.3,3.1,19.6c0.1,1,0.3,2.5,0.4,4.3c0.3,0.1,0.5,0.1,0.8,0.1C288.2,369.1,289.5,367.1,290.4,364.4z"/>
	<path class="st3" d="M278.8,385.8c0,0,0.7,0.4,1.4,0.4c2.2,0,2.4-0.3,2.4-0.3s0.3-17.5,0.1-21.2c-0.2-4,0.3-21.1,0.3-21.1l-7.9,0.1
		c0.2,3.7,2.2,18.5,2.4,21.1C278,369.1,278.8,385.8,278.8,385.8z"/>
	<path class="st19" d="M282.7,364.5c-0.1-3.1,0.1-13,0.3-18c-0.3-1.1-0.5-2.1-0.9-3h-6.2c-0.3,0.4-0.4,1-0.7,1.4
		c0.4,5.1,2.1,17.4,2.3,19.7c0.1,1,0.2,2.5,0.3,4.3c0.3,0.1,0.5,0.1,0.8,0.1C280.4,369.1,281.9,367.2,282.7,364.5z"/>
	<g>
		<path class="st20" d="M275.6,347.4c-0.2-2.2-0.3-3.8-0.3-3.8s1.7-7.3,8.7-6.9c7,0.4,6.1,6.3,6.1,6.3s-0.1,1.9-0.2,4.6
			c-2,0.9-4.6,0.8-6.7,0.8C281,348.4,277.5,348.5,275.6,347.4z"/>
	</g>
	<g>
		<g>
			<g>
				<g>
					<g>
						<path class="st14" d="M296.7,343.8c0,0,0.6,3.1-0.3,4.5c-1.1,1.8-1.8,2.3-1.8,2.3s-0.2,0.1-0.3-0.1c-0.2-0.2,1-1.7,1.1-2.3
							c0.1-0.9,0-1.9-0.3-2c-0.3-0.1-0.4,1.2-0.4,1.5s0,1-0.3,1.1c-0.3,0.1-0.8-0.8-0.4-2.2s0.2-2.3,0.2-2.3l0.3-1.9L296.7,343.8z"
							/>
					</g>
				</g>
			</g>
			<g>
				<g>
					<path class="st17" d="M297.2,342.5l-0.2,1.6c0,0-0.6,0.5-1.6,0.5c-0.6,0-1.5-0.1-1.5-0.1l-0.2-1.8L297.2,342.5z"/>
				</g>
			</g>
			<g>
				<path class="st21" d="M289.9,321.6c0,0,0-3.6,0.8-6.3c0.8-2.9,1.6-3.3,1.6-3.3s1.8,1.6,3.6,11c1.1,5.9,1.6,19.9,1.6,19.9
					s-0.6,0.3-1.6,0.4c-1.4,0.1-2.3-0.4-2.3-0.4s-0.7-7.3-2-14.5C291.3,326.6,289.9,321.6,289.9,321.6z"/>
			</g>
		</g>
		<g>
			<path class="st22" d="M296,342.3c0,0.3,0.2,0.5,0.5,0.5s0.5-0.2,0.5-0.5c0-0.3-0.2-0.5-0.5-0.5S296,342,296,342.3z"/>
		</g>
	</g>
	<g>
		<path class="st4" d="M292.3,312l-6.5-1.5c0,0-1-0.3-3.5-0.3c-2,0-3.7,0.3-3.7,0.3l-7.6,2.1c0,0,0.2,5.4,1.6,8.3
			c1.6,3.5,1.4,7.3,1.4,7.3l1.2,18.2c0,0,2.3,1,6.8,1c2,0,8.3-0.8,8.3-0.8l1.3-18.2c0,0,0.1-1.2,0.9-5.8
			C293.1,319.3,292.3,312,292.3,312z"/>
	</g>
	<g>
		<path class="st23" d="M275.7,311.4c0,0,3.4-1.6,7.5-1.5c4.1,0.1,5.4,1.3,5.4,1.3s-2.5,1.2-5.1,1.2
			C280.7,312.4,275.7,311.4,275.7,311.4z"/>
	</g>
	<g>
		<path class="st24" d="M275.7,311.4c0,0,3.6-2.3,7.7-2.3c4.2,0.1,5.1,2.1,5.1,2.1s-2.5,0.7-5.1,0.7
			C280.8,311.8,275.7,311.4,275.7,311.4z"/>
	</g>
	<g>
		<g>
			<g>
				<g>
					<defs>
						<path id="SVGID_1_" d="M276.1,297.1c0.3,0.6,1.6,2.9,1.6,2.1c0-0.5,1-1.4,1-1.8c0.4,0.3,0.5,6,2.8,8.2
							c0.7,0.7,1.7-0.6,2.6-0.7c0.5,0,0.4,0.7,1.1,0.7c3.3,0.2,5.2-10.7,4.3-12.9c-0.7-1.5-2.2-2.4-3.1-1.9c0-0.1-0.3-0.5-0.4-0.7
							c-0.3-0.3-0.7-0.3-1-0.4c-1.2-0.2-2.4-0.1-3.6,0c-0.4,0-1,0.1-1.3,0.1c-0.2,0-0.4,0-0.6,0c-0.5-0.1-1-0.2-1.3-0.5
							c-0.1-0.1-0.2,0-0.2,0c-0.1,0-0.1,0.1,0,0.2c0.2,0.3,0.4,0.7,0.7,1c-0.4,0-0.9-0.1-1.1-0.3c-0.1-0.1-0.2,0-0.2,0.1l0,0
							c0.1,0.3,0.3,0.6,0.4,0.9c-0.5,0-0.9,0.3-1.2,0.7C275.2,292.8,275.6,295.9,276.1,297.1z M279.1,290.7L279.1,290.7L279.1,290.7
							L279.1,290.7z"/>
					</defs>
					<clipPath id="SVGID_2_">
						<use xlink:href="#SVGID_1_"  style="overflow:visible;"/>
					</clipPath>
					<g class="st25">
						<g>
							<path class="st26" d="M286.5,290.3c0,0.6,0.7,1,1.1,1.2c0.5,0.3,1,0.6,1.3,1c1,1.2,1,3,1,4.3c0,0.1-0.1,0.2-0.1,0
								c-0.1-0.4-0.1-0.9-0.1-1.2c0-0.3-0.1-0.9-0.2-1.2c-0.2-0.8-0.5-1.5-1.1-2.1C287.8,291.7,286.4,291.5,286.5,290.3L286.5,290.3
								L286.5,290.3z"/>
						</g>
						<g>
							<path class="st26" d="M286.5,290.1c0,0.7,0.3,1.2,0.7,1.7c0.3,0.6,0.8,1.1,1.1,1.6c0.3,0.5,0.6,1.1,0.7,1.7
								c0.1,0.6,0.1,1.2-0.1,1.8c0,0.1-0.1,0.1-0.1,0c0-0.3,0-0.6,0.1-1c0-0.3,0-0.7-0.1-1c-0.2-0.7-0.5-1.2-0.9-1.8
								c-0.3-0.5-0.7-1.1-1-1.6C286.5,291.1,286.4,290.6,286.5,290.1C286.5,290,286.5,290.1,286.5,290.1L286.5,290.1z"/>
						</g>
						<g>
							<path class="st26" d="M286.5,290.4c-0.2,0.5,0.1,1.1,0.3,1.6c0.2,0.5,0.3,1,0.3,1.5c0,0.5-0.1,1-0.3,1.2
								c-0.1,0.2-0.3,0.4-0.4,0.6s-0.3,0.3-0.5,0.5c-0.1,0-0.1-0.1,0-0.1c0.2-0.2,0.3-0.3,0.5-0.5s0.3-0.4,0.4-0.6
								c0.3-0.4,0.3-0.9,0.3-1.3C286.9,292.3,286.2,291.2,286.5,290.4L286.5,290.4L286.5,290.4z"/>
						</g>
						<g>
							<path class="st26" d="M286.5,290.7c-0.2,1.8-1.7,3.1-3.5,3.5c-1.2,0.3-2.4,0-3.6-0.3c-0.6-0.2-1.2-0.4-1.7-0.7
								s-1.1-0.5-1.7-0.6c-0.5,0-1,0.2-1.4,0.3v-0.1c0.4-0.3,1-0.5,1.5-0.4c0.6,0.1,1.1,0.3,1.6,0.5c1.2,0.5,2.3,1,3.6,1
								c1.9,0.3,4.2-0.4,5-2.3C286.3,291.1,286.4,290.9,286.5,290.7C286.5,290.6,286.5,290.6,286.5,290.7L286.5,290.7z"/>
						</g>
						<g>
							<path class="st26" d="M286.5,290.6c0.1,0.7-0.8,1.3-1.2,1.6c-1,0.5-2,0.5-3,0.5c-1.2,0-2.3-0.3-3.4-0.5
								c-0.5-0.1-1.1-0.3-1.6-0.3c-0.4-0.1-1,0-1.6,0c-0.1,0-0.1-0.2,0-0.2c1-0.3,2,0,3,0.2c1,0.3,2.1,0.4,3.2,0.6
								c1,0.1,2,0.1,3-0.2c0.4-0.1,0.8-0.3,1.1-0.6C286,291.4,286.4,291.1,286.5,290.6L286.5,290.6L286.5,290.6z"/>
						</g>
						<g>
							<path class="st26" d="M286.5,290.7c0,0.3-0.2,0.5-0.3,0.6c-0.3,0.3-0.6,0.4-1,0.5c-0.4,0.2-1,0.2-1.4,0.2s-1,0-1.3-0.1
								c-0.9-0.2-1.5-0.7-2.2-1.2c-0.3-0.3-0.7-0.6-1.1-0.8c-0.4-0.3-0.9-0.3-1.2-0.6v-0.2c0.4,0,0.8,0.3,1.1,0.4s0.7,0.4,1,0.7
								c0.6,0.5,1.2,1,2,1.2c0.8,0.3,1.7,0.3,2.5,0.2c0.4,0,0.8-0.2,1.1-0.3C286,291.1,286.4,290.9,286.5,290.7
								C286.5,290.6,286.5,290.7,286.5,290.7L286.5,290.7z"/>
						</g>
						<g>
							<path class="st26" d="M286.5,290.7c-0.7,1-2,0.6-2.9,0.2c-0.5-0.3-1-0.5-1.4-0.8c-0.3-0.2-0.6-0.3-1-0.4
								c-0.3-0.1-0.7-0.1-1-0.2c-0.1,0,0-0.2,0-0.2c1.2-0.2,2.2,0.7,3.1,1.2c0.5,0.3,1,0.5,1.6,0.5c0.3,0,0.5,0,0.8-0.1
								C286,290.9,286.2,290.8,286.5,290.7C286.5,290.6,286.5,290.7,286.5,290.7L286.5,290.7z"/>
						</g>
						<g>
							<path class="st26" d="M286.5,290.6c-0.1,0.8-0.3,1.5-0.9,2.2c-0.5,0.7-1.2,1.2-1.9,1.5c-1.7,0.9-3.5,0.8-5.3,0.6
								c-0.9-0.1-1.7-0.1-2.5,0.2c-0.8,0.3-1.4,1-1.8,1.6c0,0,0,0.2,0,0.1c0.5-0.6,1-1.1,1.7-1.4c0.7-0.3,1.4-0.3,2.2-0.3
								c1.7,0.2,3.6,0.3,5.2-0.3c1-0.3,1.7-1,2.3-1.7C286.1,292.3,286.4,291.5,286.5,290.6C286.5,290.6,286.5,290.5,286.5,290.6
								L286.5,290.6z"/>
						</g>
						<g>
							<path class="st26" d="M286.4,291.1c-0.2,1.2-0.8,2.3-1.7,3.1c-1,0.8-2.2,1.2-3.4,1.5c-1.1,0.3-2.3,0.5-3.4,0.9
								c-0.3,0.1-0.6,0.2-1,0.3c-0.4,0.2-0.8,0.3-1.1,0.6c-0.6,0.5-0.8,1.3-1,2.1c0,0,0,0.2,0.1,0.1c0.3-0.9,0.4-1.7,1.2-2.2
								c0.3-0.3,0.8-0.3,1.2-0.5c0.3-0.1,0.6-0.2,0.9-0.3c1.2-0.3,2.4-0.6,3.6-1c1.1-0.3,2.2-0.8,3.1-1.5
								C285.9,293.4,286.4,292.2,286.4,291.1C286.5,291,286.5,291,286.4,291.1L286.4,291.1z"/>
						</g>
						<g>
							<path class="st26" d="M285.8,295c-0.4,0.9-0.8,1.7-1.4,2.4c-0.7,0.8-1.4,1.3-2.1,2c-0.7,0.7-1.3,1.3-1.8,2.2
								c-0.4,0.8-0.6,1.6-0.6,2.3c0,0.3,0,0.4,0,0.7c0,0.1,0.1,0.1,0.1,0c0.1-0.9,0.2-1.7,0.5-2.6c0.4-1,1.1-1.6,1.7-2.3
								c0.7-0.7,1.4-1.3,2.1-2c0.7-0.7,1.1-1.5,1.4-2.3C285.7,295.3,285.7,295.1,285.8,295C285.8,295,285.8,294.9,285.8,295
								L285.8,295z"/>
						</g>
						<g>
							<path class="st26" d="M284.6,295.2c-0.2,0.4-0.4,0.8-0.7,1.1c-0.3,0.3-0.6,0.7-1,1c-0.7,0.6-1.3,1-2,1.6
								c-0.7,0.5-1.2,1.2-1.7,1.9c-0.4,0.8-0.7,1.6-0.9,2.4c0,0.2-0.1,0.4-0.1,0.6c0,0.1,0.1,0.2,0.1,0.1c0.3-0.9,0.3-1.7,0.8-2.5
								c0.4-0.9,1-1.5,1.7-2.1c0.7-0.6,1.4-1,2.1-1.6c0.6-0.6,1.2-1.2,1.7-1.9C284.5,295.5,284.5,295.4,284.6,295.2
								C284.6,295.3,284.6,295.2,284.6,295.2L284.6,295.2z"/>
						</g>
						<g>
							<path class="st26" d="M285.5,297.1c-0.3,0.4-0.4,0.9-0.6,1.2c-0.3,0.4-0.6,0.8-0.9,1.1c-0.6,0.7-1.2,1.4-1.7,2.2
								c-0.5,0.7-1,1.5-1.2,2.3c-0.3,1-0.3,1.9-0.1,2.9c0,0.1,0.1,0,0.1-0.1c-0.2-1-0.1-1.9,0.3-3c0.3-0.9,0.8-1.6,1.3-2.3
								c0.5-0.7,1.1-1.4,1.6-2.1c0.3-0.3,0.6-0.7,0.8-1.1C285.2,298,285.3,297.5,285.5,297.1C285.6,297.1,285.5,297,285.5,297.1
								L285.5,297.1z"/>
						</g>
						<g>
							<path class="st26" d="M285.5,298.9c-0.1,0.7-0.6,1.3-1,1.8c-0.4,0.6-1,1.2-1.2,1.7c-0.8,1.2-1.2,2.8-0.7,4.2
								c0,0.1,0.1,0,0.1-0.1c-0.1-0.3-0.1-0.8-0.2-1.1c0-0.4,0.1-0.9,0.2-1.2c0.2-0.7,0.5-1.3,1-2
								C284.3,301.3,285.3,300.3,285.5,298.9C285.5,298.9,285.5,298.8,285.5,298.9L285.5,298.9z"/>
						</g>
						<g>
							<path class="st26" d="M286.3,298.3c-0.3,1.4,0,2.9,0.1,4.3c0.1,0.8,0.1,1.5-0.1,2.3c-0.1,0.3-0.2,0.8-0.3,1.1
								c-0.2,0.3-0.3,0.8-0.4,1.1c0,0,0,0.2,0.1,0.2c0.2-0.3,0.3-0.6,0.4-1c0.2-0.3,0.3-0.8,0.3-1.1c0.2-0.8,0.2-1.4,0.2-2.2
								C286.5,301.4,285.9,299.9,286.3,298.3C286.3,298.3,286.3,298.2,286.3,298.3L286.3,298.3z"/>
						</g>
						<g>
							<path class="st26" d="M287,297.2c-0.3,1.4,0.2,3,0.3,4.3c0.1,0.8,0.2,1.6,0.3,2.3c0,0.4,0,0.9,0,1.2c0,0.4-0.2,0.9-0.3,1.2
								c0,0,0,0.2,0.1,0.1c0.2-0.3,0.3-0.7,0.3-1c0.1-0.4,0.1-0.8,0.1-1.2c0-0.9-0.1-1.6-0.3-2.4C287.3,300.4,286.8,298.8,287,297.2
								C287,297.3,287,297.2,287,297.2L287,297.2z"/>
						</g>
						<g>
							<path class="st26" d="M287.8,295.9c-0.1,0.7,0,1.3,0.1,2.1c0.2,0.7,0.3,1.4,0.6,2.1c0.2,0.8,0.4,1.4,0.4,2.2
								c0,0.9-0.2,1.6-0.3,2.4c0,0,0.1,0.2,0.1,0.1c0.3-0.8,0.3-1.5,0.4-2.3c0-0.8-0.2-1.5-0.3-2.3
								C288.3,298.8,287.7,297.4,287.8,295.9L287.8,295.9L287.8,295.9z"/>
						</g>
					</g>
				</g>
			</g>
		</g>
	</g>
</g>
<path class="st27" d="M369.3,87.5v10h20v-20h-20V87.5z M381.4,93.9c0.1-0.1,0.4-0.3,0.8-0.4l0.6-0.3l0.1,0.2
	c0.2,0.3,0.5,0.6,0.8,0.7c0.6,0.3,1.5,0.3,1.9-0.1c0.2-0.2,0.3-0.3,0.3-0.5l0,0l0,0c0-0.3,0-0.3-0.2-0.5c-0.2-0.3-0.4-0.4-1.4-0.8
	c-1-0.4-1.5-0.7-1.9-1.1c-0.3-0.3-0.4-0.6-0.5-1l0,0c-0.1-0.3-0.1-1,0-1.3c0.2-1,1-1.7,2.1-1.9c0.3-0.1,1.1,0,1.5,0.1l0,0
	c0.5,0.1,0.9,0.3,1.2,0.7c0.2,0.2,0.4,0.5,0.5,0.6c0,0-0.9,0.6-1.4,1c0,0-0.1-0.1-0.2-0.2c-0.3-0.3-0.5-0.5-1-0.5
	c-0.6,0-1,0.3-1,0.8l0,0c0,0.1,0,0.3,0.1,0.3l0,0c0.2,0.3,0.3,0.4,1.1,0.8c1.4,0.6,2.1,1,2.4,1.6c0.4,0.6,0.5,1.7,0.3,2.4
	c-0.3,0.9-1.1,1.4-2.2,1.6c-0.3,0.1-1.1,0.1-1.6,0c-0.8-0.2-1.6-0.5-2-1c-0.2-0.2-0.5-0.7-0.5-0.8C381.2,94,381.3,93.9,381.4,93.9z
	 M373.6,87.6c0-0.4,0-0.8,0-0.8s1.6,0,3.5,0h3.5v0.8v0.8H378v7.4h-1.8v-7.4h-2.6L373.6,87.6L373.6,87.6z"/>
<g>
	<path class="st28" d="M240.8,44.1c1.1,0,2-1,2-2c0-1.1-0.9-2-2-2s-2,1-2,2C238.7,43.2,239.7,44.1,240.8,44.1z"/>
	<path class="st28" d="M248.6,38.7c-0.4-0.2-0.8-0.3-1.2-0.4c0.1-0.4,0.2-0.9,0.3-1.3c0.3-2.3,0-4-1.2-4.7c-0.3-0.2-0.7-0.3-1.1-0.3
		c-1.2,0-2.9,1-4.4,2.5c-1.7-1.6-3.2-2.5-4.4-2.5c-0.4,0-0.8,0.1-1.1,0.3c-1.1,0.7-1.6,2.3-1.2,4.7c0.1,0.4,0.2,0.9,0.3,1.3
		c-0.4,0.1-0.9,0.3-1.2,0.4c-2.3,0.9-3.5,2-3.5,3.4c0,1.3,1.2,2.5,3.5,3.4c0.4,0.2,0.8,0.3,1.2,0.4c-0.1,0.4-0.2,0.9-0.3,1.3
		c-0.3,2.3,0,4,1.2,4.7c0.3,0.2,0.7,0.3,1.1,0.3c1.3,0,2.9-1,4.4-2.5c1.7,1.6,3.2,2.5,4.4,2.5c0.4,0,0.8-0.1,1.1-0.3
		c1.1-0.7,1.6-2.3,1.2-4.7c-0.1-0.4-0.2-0.9-0.3-1.3c0.4-0.1,0.9-0.3,1.2-0.4c2.3-0.9,3.5-2,3.5-3.4C252,40.7,250.7,39.6,248.6,38.7
		z M245.9,33.3c0.7,0.4,1,1.7,0.7,3.7c-0.1,0.3-0.2,0.8-0.3,1.2c-1-0.2-1.9-0.3-3-0.4c-0.6-0.9-1.2-1.7-1.8-2.3
		c1.3-1.3,2.7-2.2,3.7-2.2C245.5,33.1,245.7,33.2,245.9,33.3z M243.9,43.9c-0.3,0.6-0.7,1.1-1.1,1.7c-0.7,0.1-1.3,0.1-2,0.1
		s-1.4,0-2-0.1c-0.4-0.6-0.8-1.1-1-1.7c-0.3-0.6-0.7-1.2-1-1.8c0.3-0.6,0.6-1.2,1-1.8c0.3-0.6,0.7-1.1,1.1-1.7
		c0.7-0.1,1.3-0.1,2-0.1s1.4,0,2,0.1c0.4,0.6,0.8,1.1,1,1.7c0.3,0.6,0.7,1.2,1,1.8C244.5,42.6,244.2,43.2,243.9,43.9z M245.4,43.2
		c0.3,0.6,0.5,1.2,0.7,1.8c-0.6,0.2-1.2,0.3-1.9,0.3c0.2-0.3,0.4-0.7,0.6-1C245,44,245.2,43.6,245.4,43.2z M240.8,48.1
		c-0.4-0.4-0.9-1-1.2-1.5c0.4,0,0.8,0,1.2,0c0.4,0,0.8,0,1.2,0C241.6,47.2,241.2,47.7,240.8,48.1z M237.4,45.4
		c-0.7-0.1-1.3-0.2-1.9-0.3c0.2-0.6,0.4-1.2,0.7-1.8c0.2,0.3,0.4,0.7,0.6,1.1C237,44.7,237.3,45.1,237.4,45.4z M236.2,40.9
		c-0.3-0.6-0.5-1.2-0.7-1.8c0.6-0.2,1.2-0.3,1.9-0.3c-0.2,0.3-0.4,0.7-0.6,1C236.6,40.1,236.4,40.6,236.2,40.9z M240.8,36
		c0.4,0.4,0.9,1,1.2,1.5c-0.4,0-0.8,0-1.2,0c-0.4,0-0.8,0-1.2,0C240,37,240.4,36.5,240.8,36z M244.7,39.8l-0.6-1
		c0.7,0.1,1.3,0.2,1.9,0.3c-0.2,0.6-0.4,1.2-0.7,1.8C245.2,40.6,245,40.1,244.7,39.8z M235,36.9c-0.3-1.9-0.1-3.2,0.7-3.7
		c0.2-0.1,0.4-0.2,0.6-0.2c1,0,2.4,0.9,3.7,2.2c-0.6,0.7-1.2,1.5-1.8,2.3c-1,0.1-2,0.3-3,0.4C235.2,37.7,235.1,37.3,235,36.9z
		 M230.6,42.1c0-0.9,1-1.7,2.8-2.4c0.3-0.2,0.8-0.3,1.1-0.3c0.3,0.9,0.6,1.8,1,2.8c-0.4,1-0.8,1.9-1,2.8
		C232.1,44.1,230.6,43.1,230.6,42.1z M235.7,50.9c-0.7-0.4-1-1.7-0.7-3.7c0.1-0.3,0.2-0.8,0.3-1.2c1,0.2,1.9,0.3,3,0.4
		c0.6,0.9,1.2,1.7,1.8,2.3c-1.3,1.3-2.7,2.2-3.7,2.2C236.1,51.1,235.9,51,235.7,50.9z M246.6,47.2c0.3,1.9,0.1,3.2-0.7,3.7
		c-0.2,0.1-0.4,0.2-0.6,0.2c-1,0-2.4-0.9-3.7-2.2c0.6-0.7,1.2-1.5,1.8-2.3c1-0.1,2-0.3,3-0.4C246.4,46.5,246.5,46.9,246.6,47.2z
		 M248.1,44.5c-0.3,0.2-0.8,0.3-1.1,0.3c-0.3-0.9-0.6-1.8-1-2.8c0.4-1,0.8-1.9,1-2.8c2.4,0.7,3.9,1.8,3.9,2.8
		C251,42.9,250,43.8,248.1,44.5z"/>
</g>
<path class="st29" d="M320.4,38.3c1.5,0.7,9.7,4,11,4.7c1.3,0.6,2.3,0.6,3.9-0.3s9.4-4,10.9-4.8c0.8-0.4,1.1-0.7,1.1-1v-2.8
	c0-0.3-0.3-0.5-1.1-0.8c-1.5-0.5-9.1-3.6-10.6-4.2c-1.5-0.5-2.1-0.5-3.8,0.1c-1.7,0.6-9.9,3.8-11.4,4.4c-0.7,0.3-1.1,0.5-1.1,0.8
	h-0.1v2.9C319.1,37.6,319.6,37.9,320.4,38.3z M333.8,38.6l-4.5-1.9l6.5-1L333.8,38.6z M343.6,34.2l-3.8,1.5l-0.4,0.2l-3.8-1.5
	l4.3-1.7L343.6,34.2z M332.3,31.4l-0.6-1.1l2,0.8l1.8-0.6l-0.5,1.2l1.9,0.7l-2.4,0.3l-0.5,1.3l-0.9-1.5l-2.8-0.3L332.3,31.4z
	 M327.5,33.1c1.9,0,3.5,0.6,3.5,1.3s-1.6,1.3-3.5,1.3s-3.5-0.6-3.5-1.3C324,33.6,325.6,33.1,327.5,33.1z M346.2,39.9
	c-1.5,0.8-9.2,4-10.9,4.8c-1.7,0.9-2.5,0.9-3.8,0.3c-1.3-0.6-9.6-3.9-11-4.7c-0.8-0.3-1.2-0.6-1.2-1v2.9c0,0.3,0.4,0.6,1.1,1
	c1.5,0.7,9.7,4,11,4.7c1.3,0.6,2.3,0.6,3.9-0.3c1.7-0.9,9.4-4,10.9-4.8c0.8-0.4,1.1-0.7,1.1-1V39C347.2,39.2,346.9,39.4,346.2,39.9z
	 M346.2,44.5c-1.5,0.8-9.2,4-10.9,4.8c-1.7,0.9-2.5,0.9-3.8,0.3c-1.3-0.6-9.6-3.9-11-4.7c-0.8-0.3-1.2-0.6-1.2-1v2.9
	c0,0.3,0.4,0.6,1.1,1c1.5,0.7,9.7,4,11,4.7c1.3,0.6,2.3,0.6,3.9-0.3s9.4-4,10.9-4.8c0.8-0.4,1.1-0.7,1.1-1v-2.8
	C347.2,43.8,346.9,44,346.2,44.5z"/>
<path class="st30" d="M103.5,166.9l-8.1,7l-6.9,12.3h6.2L103.5,166.9z M104.6,168.6l-3.5,9.6l6.6,8.3l-12.8,2.2h21L104.6,168.6z"/>
<path class="st31" d="M287,79.8c-8.5,0-15.5,3.5-15.5,7.8c0,4.3,7,7.8,15.5,7.8c8.5,0,15.5-3.5,15.5-7.8
	C302.5,83.3,295.5,79.8,287,79.8z M283,89.2c-0.3,0.3-0.8,0.5-1.2,0.6c-0.4,0.2-1,0.1-1.7,0.1h-1.6l-0.4,2.5h-1.8l1.7-8.6h3.6
	c1,0,1.8,0.3,2.3,0.9c0.5,0.5,0.6,1.4,0.4,2.3c-0.1,0.4-0.2,0.8-0.4,1.1C283.5,88.6,283.2,88.9,283,89.2z M288.4,89.9l0.7-3.7
	c0.1-0.4,0.1-0.8-0.1-0.9c-0.2-0.2-0.4-0.3-1-0.3h-1.5l-1,4.8h-1.8l1.7-8.3h1.8l-0.4,2.3h1.7c1,0,1.7,0.2,2.1,0.5
	c0.3,0.3,0.5,0.9,0.3,1.7l-0.8,3.8L288.4,89.9L288.4,89.9z M298.5,87.1c-0.1,0.4-0.2,0.8-0.4,1.1c-0.2,0.3-0.4,0.7-0.8,1
	c-0.3,0.3-0.8,0.5-1.2,0.6c-0.4,0.2-1,0.1-1.7,0.1h-1.6l-0.4,2.5h-1.8l1.7-8.6h3.6c1,0,1.8,0.3,2.3,0.9
	C298.5,85.3,298.7,86.1,298.5,87.1z M295.1,85.1h-1.3l-0.7,3.6h1.1c0.8,0,1.3-0.1,1.7-0.3c0.3-0.3,0.6-0.7,0.7-1.4
	c0.1-0.6,0.1-1.1-0.2-1.4C296.2,85.3,295.8,85.1,295.1,85.1z M280.6,85.1h-1.3l-0.7,3.6h1.1c0.8,0,1.3-0.1,1.7-0.3
	c0.3-0.3,0.6-0.7,0.7-1.4c0.1-0.6,0.1-1.1-0.2-1.4C281.9,85.3,281.3,85.1,280.6,85.1z"/>
<path class="st32" d="M46,129.2c-1,0-1.7,0.8-1.7,1.7v7.1c0,1,0.8,1.7,1.7,1.7c1,0,1.7-0.8,1.7-1.7v-7.2
	C47.6,130,46.9,129.2,46,129.2z M59.7,122.8l1.2-2.2c0.1-0.1,0-0.3-0.1-0.3c-0.1-0.1-0.3,0-0.3,0.1l-1.2,2.2c-1-0.4-2.2-0.7-3.4-0.7
	c-1.2,0-2.3,0.3-3.3,0.7l-1.2-2.2c-0.1-0.1-0.2-0.2-0.3-0.1c-0.1,0.1-0.2,0.2-0.1,0.3l1.2,2.2c-2.3,1.2-3.9,3.5-3.9,6.2h15.4
	C63.7,126.2,62.1,124,59.7,122.8z M52.5,126.1c-0.3,0-0.6-0.3-0.6-0.6s0.3-0.6,0.6-0.6c0.3,0,0.6,0.3,0.6,0.6S52.9,126.1,52.5,126.1
	z M59.5,126.1c-0.3,0-0.6-0.3-0.6-0.6s0.3-0.6,0.6-0.6c0.3,0,0.6,0.3,0.6,0.6C60.2,125.8,59.8,126.1,59.5,126.1z M48.3,129.5v11.1
	c0,1,0.8,1.8,1.8,1.8h1.2v3.8c0,1,0.8,1.7,1.7,1.7c1,0,1.7-0.8,1.7-1.7v-3.8h2.3v3.8c0,1,0.8,1.7,1.7,1.7c1,0,1.7-0.8,1.7-1.7v-3.8
	h1.2c1,0,1.8-0.8,1.8-1.8v-11.1H48.3z M67.7,130.8c0-1-0.8-1.7-1.7-1.7s-1.7,0.8-1.7,1.7v7.1c0,1,0.8,1.7,1.7,1.7s1.7-0.8,1.7-1.7
	V130.8z"/>
<g>
	<g>
		<defs>
			<rect id="SVGID_3_" x="134.8" y="30" width="27.4" height="27.4"/>
		</defs>
		<clipPath id="SVGID_4_">
			<use xlink:href="#SVGID_3_"  style="overflow:visible;"/>
		</clipPath>
		<g class="st33">
			
				<linearGradient id="SVGID_5_" gradientUnits="userSpaceOnUse" x1="136.954" y1="559.038" x2="149.1348" y2="569.4257" gradientTransform="matrix(1 0 0 1 0 -528)">
				<stop  offset="0" style="stop-color:#5A9FD4"/>
				<stop  offset="1" style="stop-color:#306998"/>
			</linearGradient>
			<path class="st34" d="M148.4,30.3c-0.9,0-1.7,0.1-2.5,0.2c-2.3,0.4-2.6,1.2-2.6,2.8v2h5.3v0.7h-7.3c-1.6,0-2.9,1-3.3,2.7
				c-0.5,2-0.5,3.3,0,5.4c0.3,1.6,1.3,2.7,2.8,2.7h1.8v-2.4c0-1.7,1.5-3.3,3.3-3.3h5.3c1.5,0,2.6-1.2,2.6-2.7v-5
				c0-1.4-1.2-2.5-2.6-2.8C150.2,30.4,149.2,30.3,148.4,30.3z M145.5,31.9c0.5,0,1,0.4,1,1c0,0.5-0.4,1-1,1s-1-0.4-1-1
				S145,31.9,145.5,31.9z"/>
			
				<linearGradient id="SVGID_6_" gradientUnits="userSpaceOnUse" x1="153.7966" y1="575.7965" x2="149.4285" y2="569.6713" gradientTransform="matrix(1 0 0 1 0 -528)">
				<stop  offset="0" style="stop-color:#FFD43B"/>
				<stop  offset="1" style="stop-color:#FFE873"/>
			</linearGradient>
			<path class="st35" d="M154.4,35.9v2.3c0,1.8-1.6,3.4-3.3,3.4h-5.3c-1.5,0-2.6,1.2-2.6,2.7v5c0,1.4,1.2,2.3,2.6,2.7
				c1.7,0.5,3.3,0.6,5.3,0c1.3-0.3,2.6-1.1,2.6-2.7v-2h-5.3v-0.7h7.9c1.6,0,2.1-1,2.6-2.7c0.5-1.7,0.5-3.2,0-5.4
				c-0.3-1.6-1.1-2.7-2.6-2.7H154.4L154.4,35.9z M151.4,48.7c0.5,0,1,0.4,1,1c0,0.5-0.4,1-1,1c-0.5,0-1-0.4-1-1
				C150.5,49.2,150.9,48.7,151.4,48.7z"/>
			
				<radialGradient id="SVGID_7_" cx="-1249.9423" cy="52.2806" r="0.6839" gradientTransform="matrix(1.228149e-16 -2.0057 8.8168 5.398751e-16 -312.4074 -2451.5698)" gradientUnits="userSpaceOnUse">
				<stop  offset="0" style="stop-color:#B8B8B8;stop-opacity:0.498"/>
				<stop  offset="1" style="stop-color:#7F7F7F;stop-opacity:0"/>
			</radialGradient>
			<path class="st36" d="M155.6,55.5c0,0.8-3.1,1.4-7,1.4c-3.9,0-7-0.6-7-1.4c0-0.8,3.1-1.4,7-1.4C152.5,54.1,155.6,54.7,155.6,55.5
				z"/>
		</g>
	</g>
</g>
<g>
	<path class="st37" d="M135.8,136.9c3.4,3,7.8,4.9,12.8,4.9c3.5,0,7.6-1.1,10.4-3.2c0.4-0.3,0.1-0.9-0.4-0.7c-3.1,1.4-6.6,2-9.7,2
		c-4.6,0-9.1-1.3-12.8-3.4C135.8,136.3,135.5,136.7,135.8,136.9z"/>
	<path class="st38" d="M154.1,126.8c0-0.2-0.1-0.2-0.2-0.2h-0.8l0,0c-0.1,0-0.2,0-0.3,0.1c-0.1,0.1-0.1,0.2-0.2,0.3l-1.5,5.8
		l-1.4-5.8c0-0.2-0.1-0.3-0.2-0.3c-0.1-0.1-0.2-0.1-0.3-0.1h-0.7l0,0c-0.1,0-0.3,0-0.3,0.1s-0.1,0.2-0.2,0.3l-1.3,5.7l-1.5-5.7
		c-0.1-0.2-0.1-0.3-0.2-0.3c-0.1-0.1-0.2-0.1-0.3-0.1h-0.9c-0.2,0-0.2,0.1-0.2,0.2l0,0c0,0.1,0,0.3,0.1,0.3l2,6.7
		c0.1,0.2,0.1,0.3,0.2,0.3c0.1,0.1,0.2,0.1,0.3,0.1h0.7c0.2,0,0.3,0,0.3-0.1c0.1-0.1,0.1-0.2,0.2-0.3l1.3-5.6l1.3,5.6
		c0,0.2,0.1,0.3,0.2,0.3c0.1,0.1,0.2,0.1,0.3,0.1h0.7l0,0c0.1,0,0.2,0,0.3-0.1c0.1-0.1,0.1-0.2,0.2-0.3l2.1-6.7l0,0
		C153.9,127,154,126.9,154.1,126.8C154.1,126.9,154.1,126.8,154.1,126.8z M159,132.2L159,132.2c0,0.3-0.2,0.7-0.4,0.8
		c-0.3,0.2-0.7,0.3-1.2,0.3c-0.3,0-0.7,0-1-0.1c-0.3-0.1-0.6-0.2-1-0.3c-0.1,0-0.2-0.1-0.2-0.1c-0.1,0-0.1,0-0.2,0s-0.2,0.1-0.2,0.3
		v0.4c0,0.1,0,0.2,0.1,0.3c0,0.1,0.1,0.2,0.3,0.3c0.3,0.1,0.5,0.3,1,0.3c0.4,0.1,0.9,0.2,1.3,0.2c0.4,0,0.9-0.1,1.2-0.2
		c0.3-0.1,0.7-0.3,1-0.5c0.3-0.2,0.4-0.4,0.6-0.8c0.2-0.3,0.3-0.6,0.3-1c0-0.4-0.1-0.9-0.4-1.2c-0.3-0.3-0.7-0.6-1.3-0.9l-1.2-0.3
		c-0.4-0.2-0.8-0.3-1-0.4c-0.2-0.2-0.3-0.3-0.3-0.6c0-0.3,0.2-0.6,0.4-0.8c0.3-0.2,0.6-0.3,1.1-0.3c0,0,0,0,0.1,0
		c0.6,0,1.1,0.1,1.6,0.3l0,0c0.1,0.1,0.2,0.1,0.3,0.1c0.1,0,0.2-0.1,0.2-0.3v-0.4l0,0c0-0.1,0-0.2-0.1-0.3l0,0
		c-0.1-0.1-0.2-0.2-0.3-0.2c-0.1-0.1-0.2-0.1-0.3-0.2c-0.2-0.1-0.3-0.1-0.5-0.2c-0.2,0-0.3-0.1-0.5-0.1c-0.2,0-0.3,0-0.6,0
		c-0.3,0-0.7,0.1-1,0.2c-0.3,0.1-0.6,0.3-0.9,0.4c-0.3,0.2-0.4,0.4-0.6,0.7s-0.3,0.6-0.3,1c0,0.4,0.2,1,0.4,1.2
		c0.3,0.3,0.8,0.7,1.4,0.9l1.2,0.3c0.4,0.2,0.7,0.3,0.9,0.4C158.9,131.7,159,131.9,159,132.2L159,132.2L159,132.2z"/>
	<path class="st37" d="M159.8,140.7c1.5-1.3,1.9-3.9,1.6-4.3c-0.3-0.3-3-0.7-4.6,0.4c-0.3,0.2-0.2,0.4,0.1,0.3c1-0.1,3-0.3,3.3,0.1
		c0.3,0.4-0.4,2.3-0.8,3.2C159.2,140.8,159.5,140.8,159.8,140.7z"/>
	<path class="st38" d="M140.5,129.7c-0.3,0-0.6-0.1-0.9-0.1c-0.9,0-1.6,0.3-2.1,0.7c-0.5,0.4-0.8,1-0.8,1.8c0,0.7,0.2,1.2,0.6,1.7
		c0.4,0.4,1,0.6,1.7,0.6c1,0,1.8-0.4,2.5-1.2l0,0c0.1,0.2,0.2,0.3,0.3,0.4l0,0c0.1,0.2,0.2,0.3,0.3,0.4c0.1,0.1,0.2,0.1,0.3,0.1l0,0
		c0.1,0,0.2,0,0.3-0.1l0.5-0.3c0.1-0.1,0.2-0.2,0.2-0.3s0-0.1-0.1-0.2c-0.1-0.3-0.2-0.4-0.3-0.6c-0.1-0.2-0.1-0.4-0.1-0.8l0,0v-2.8
		c0-1-0.3-1.7-0.7-2.1c-0.5-0.4-1.2-0.7-2.3-0.7c0,0,0,0-0.1,0c-0.4,0-0.9,0.1-1.3,0.2c-0.4,0.1-0.8,0.3-1,0.3l0,0
		c-0.1,0-0.2,0.1-0.3,0.2c0,0.1-0.1,0.2-0.1,0.3v0.4c0,0.2,0.1,0.3,0.2,0.3l0,0c0.1,0,0.1,0,0.2,0l0,0c0.1,0,0.2-0.1,0.3-0.1
		c0.3-0.1,0.6-0.2,1-0.3c0.3-0.1,0.6-0.1,1-0.1c0.7,0,1.1,0.1,1.4,0.4c0.3,0.3,0.4,0.7,0.4,1.4v0.6
		C141.2,129.8,140.8,129.7,140.5,129.7z M141.5,130.8v0.3c0,0.3,0,0.5-0.1,0.8c-0.1,0.2-0.2,0.4-0.3,0.5c-0.3,0.3-0.5,0.4-0.8,0.5
		c-0.3,0.1-0.6,0.2-0.9,0.2c-0.4,0-0.7-0.1-0.9-0.3c-0.2-0.2-0.3-0.5-0.3-1s0.2-0.8,0.4-1c0.3-0.3,0.7-0.3,1.3-0.3
		c0.3,0,0.5,0,0.8,0.1l0,0C141.1,130.8,141.3,130.8,141.5,130.8z"/>
</g>
<g>
	<path class="st39" d="M287.4,177.7h2.4v2.5h1.2c0.6,0,1.1-0.1,1.7-0.3c0.3-0.1,0.6-0.3,0.9-0.3c-0.3-0.4-0.5-1-0.6-1.6
		c-0.1-0.8,0.1-1.7,0.6-2.3l0.3-0.3l0.3,0.3c0.8,0.6,1.5,1.5,1.6,2.5c1-0.3,2-0.2,2.9,0.3l0.3,0.2l-0.2,0.3
		c-0.7,1.4-2.2,1.8-3.6,1.7c-2.2,5.3-6.8,7.8-12.4,7.8c-3,0-5.6-1.1-7.1-3.7l0,0l-0.3-0.4c-0.5-1.1-0.7-2.3-0.6-3.7v-0.3h2.1V178
		h2.4v-2.4h5v-2.4h3L287.4,177.7L287.4,177.7z"/>
	<path class="st40" d="M295.4,178.6c0.2-1.3-0.8-2.3-1.4-2.8c-0.7,0.8-0.8,2.9,0.3,3.7c-0.6,0.5-1.9,1-3.2,1h-15.8
		c-0.1,1.4,0.1,2.6,0.7,3.7l0.2,0.3c0.1,0.2,0.3,0.3,0.3,0.5c0.6,0,1.2,0.1,1.8,0.1c1,0,2-0.2,2.6-0.3c0.1,0,0.2,0,0.3,0.1
		c0,0.1,0,0.2-0.1,0.3c-0.1,0-0.2,0.1-0.3,0.1c-0.5,0.2-1.1,0.3-1.8,0.3h-0.1h-0.1c-0.3,0-0.6,0-0.9,0c-0.3,0-0.7,0-1,0l0,0
		c1.3,1.5,3.4,2.3,6,2.3c5.5,0,10.1-2.4,12.2-7.9c1.5,0.2,2.9-0.3,3.5-1.5C297.5,178.1,296.2,178.3,295.4,178.6z"/>
	<path class="st41" d="M295.4,178.6c0.2-1.3-0.8-2.3-1.4-2.8c-0.7,0.8-0.8,2.9,0.3,3.7c-0.6,0.5-1.9,1-3.2,1h-14.9
		c-0.1,2.1,0.7,3.7,2.1,4.6c1,0,2-0.2,2.6-0.3c0.1,0,0.2,0,0.3,0.1c0,0.1,0,0.2-0.1,0.3c-0.1,0-0.2,0.1-0.3,0.1
		c-0.5,0.2-1.1,0.3-1.8,0.3l0,0c1.8,1,4.5,1,7.6-0.3c3.5-1.3,6.7-3.9,9-6.8C295.5,178.6,295.5,178.6,295.4,178.6z"/>
	<path class="st42" d="M275.3,182.3c0.1,0.7,0.3,1.4,0.6,2l0.2,0.3c0.1,0.2,0.3,0.3,0.3,0.5c0.6,0,1.2,0.1,1.8,0.1
		c1,0,2-0.2,2.6-0.3c0.1,0,0.2,0,0.3,0.1c0,0.1,0,0.2-0.1,0.3c-0.1,0-0.2,0.1-0.3,0.1c-0.5,0.2-1.1,0.3-1.8,0.3h-0.1
		c-0.3,0-0.6,0-0.9,0c-0.3,0-0.7,0-1,0c1.3,1.5,3.4,2.3,6,2.3c4.7,0,8.8-1.7,11.1-5.7L275.3,182.3L275.3,182.3z"/>
	<path class="st43" d="M276.4,182.3c0.3,1.3,1,2.3,1.9,3c1,0,2-0.2,2.6-0.3c0.1,0,0.2,0,0.3,0.1c0,0.1,0,0.2-0.1,0.3
		c-0.1,0-0.2,0.1-0.3,0.1c-0.5,0.2-1.1,0.3-1.9,0.3c1.8,1,4.5,1,7.6-0.3c1.9-0.7,3.7-1.8,5.3-3L276.4,182.3L276.4,182.3z"/>
	<path class="st44" d="M277.5,178.1h2.2v2.2h-2.2V178.1z M277.7,178.3h0.2v1.8h-0.2V178.3z M277.9,178.3h0.2v1.8h-0.2V178.3z
		 M278.3,178.3h0.2v1.8h-0.2V178.3z M278.6,178.3h0.2v1.8h-0.2V178.3z M279,178.3h0.2v1.8H279V178.3z M279.2,178.3h0.2v1.8h-0.2
		V178.3z M279.9,175.7h2.2v2.2h-2.2V175.7z M280.1,175.9h0.2v1.8h-0.2V175.9z M280.5,175.9h0.2v1.8h-0.2V175.9z M280.8,175.9h0.2
		v1.8h-0.2V175.9z M281.1,175.9h0.2v1.8h-0.2V175.9z M281.4,175.9h0.2v1.8h-0.2V175.9z M281.8,175.9h0.2v1.8h-0.2V175.9z"/>
	<path class="st45" d="M279.9,178.1h2.2v2.2h-2.2V178.1z M280.1,178.3h0.2v1.8h-0.2V178.3z M280.5,178.3h0.2v1.8h-0.2V178.3z
		 M280.8,178.3h0.2v1.8h-0.2V178.3z M281.1,178.3h0.2v1.8h-0.2V178.3z M281.4,178.3h0.2v1.8h-0.2V178.3z M281.8,178.3h0.2v1.8h-0.2
		V178.3z"/>
	<path class="st44" d="M282.5,178.1h2.2v2.2h-2.2V178.1z M282.6,178.3h0.2v1.8h-0.2V178.3z M282.9,178.3h0.2v1.8h-0.2V178.3z
		 M283.2,178.3h0.2v1.8h-0.2V178.3z M283.6,178.3h0.2v1.8h-0.2V178.3z M283.9,178.3h0.2v1.8h-0.2V178.3z M284.2,178.3h0.2v1.8h-0.2
		V178.3z"/>
	<path class="st45" d="M282.5,175.7h2.2v2.2h-2.2V175.7z M282.6,175.9h0.2v1.8h-0.2V175.9z M282.9,175.9h0.2v1.8h-0.2V175.9z
		 M283.2,175.9h0.2v1.8h-0.2V175.9z M283.6,175.9h0.2v1.8h-0.2V175.9z M283.9,175.9h0.2v1.8h-0.2V175.9z M284.2,175.9h0.2v1.8h-0.2
		V175.9z M284.9,178.1h2.2v2.2h-2.2V178.1z M285.1,178.3h0.2v1.8h-0.2V178.3z M285.4,178.3h0.2v1.8h-0.2V178.3z M285.7,178.3h0.2
		v1.8h-0.2V178.3z M286,178.3h0.2v1.8H286V178.3z M286.4,178.3h0.2v1.8h-0.2V178.3z M286.7,178.3h0.2v1.8h-0.2V178.3z"/>
	<path class="st44" d="M284.9,175.7h2.2v2.2h-2.2V175.7z M285.1,175.9h0.2v1.8h-0.2V175.9z M285.4,175.9h0.2v1.8h-0.2V175.9z
		 M285.7,175.9h0.2v1.8h-0.2V175.9z M286,175.9h0.2v1.8H286V175.9z M286.4,175.9h0.2v1.8h-0.2V175.9z M286.7,175.9h0.2v1.8h-0.2
		V175.9z"/>
	<path class="st45" d="M284.9,173.2h2.2v2.2h-2.2V173.2z M285.1,173.3h0.2v1.8h-0.2V173.3z M285.4,173.3h0.2v1.8h-0.2V173.3z
		 M285.7,173.3h0.2v1.8h-0.2V173.3z M286,173.3h0.2v1.8H286V173.3z M286.4,173.3h0.2v1.8h-0.2V173.3z M286.7,173.3h0.2v1.8h-0.2
		V173.3z"/>
	<path class="st44" d="M287.3,178.1h2.2v2.2h-2.2V178.1z M287.5,178.3h0.2v1.8h-0.2V178.3z M287.9,178.3h0.2v1.8h-0.2V178.3z
		 M288.2,178.3h0.2v1.8h-0.2V178.3z M288.5,178.3h0.2v1.8h-0.2V178.3z M288.8,178.3h0.2v1.8h-0.2V178.3z M289.2,178.3h0.2v1.8h-0.2
		V178.3z"/>
	<path class="st46" d="M281.9,183.8c0.3,0,0.6,0.3,0.6,0.6c0,0.3-0.3,0.6-0.6,0.6l0,0c-0.3,0-0.6-0.3-0.6-0.6
		C281.4,184,281.7,183.8,281.9,183.8z"/>
	<path class="st39" d="M281.9,183.9c0.1,0,0.1,0,0.2,0c-0.1,0.1-0.1,0.2-0.1,0.3c0,0.1,0.1,0.1,0.2,0.1s0.1,0,0.2-0.1
		c0.1,0.2,0,0.4-0.3,0.5c-0.2,0.1-0.4,0-0.5-0.3C281.5,184.2,281.6,184,281.9,183.9C281.9,183.9,281.9,183.9,281.9,183.9z"/>
	<path class="st47" d="M283.5,188c-1.5-0.7-2.3-1.7-2.7-2.7c-0.5,0.2-1.2,0.3-1.9,0.3c-0.3,0-0.6,0-0.9,0c-0.3,0-0.8,0-1.1,0
		c1.3,1.3,3,2.3,6.1,2.4C283.1,188,283.3,188,283.5,188z"/>
	<path class="st46" d="M281.3,186.3c-0.2-0.3-0.4-0.6-0.5-1c-0.5,0.2-1.2,0.3-1.9,0.3C279.4,185.9,280.1,186.2,281.3,186.3z"/>
</g>
<g>
	<path class="st48" d="M243.6,130.6l-2.5,2.4l-2.3-4.9l1.2-2.8c0.3-0.5,0.8-0.5,1.1,0L243.6,130.6z"/>
	<path class="st49" d="M241,132.8l-9.3,8.8l7-13.5L241,132.8z"/>
	<path class="st50" d="M246.3,127c0.4-0.4,1-0.3,1,0.3l2.4,14.1l-8.1,4.9c-0.3,0.2-1,0.3-1,0.3s-0.7-0.1-1-0.3l-8.1-4.7L246.3,127z"
		/>
	<path class="st48" d="M238.7,128.2l-7,13.3l3.1-19.5c0.1-0.6,0.4-0.7,0.8-0.2L238.7,128.2z"/>
</g>
<g>
	<path class="st51" d="M188.2,96.4c-0.2,0-0.3,0-0.4,0V97c0.3,0.1,0.5,0.2,0.7,0.2c0.7,0,1.3-0.4,1.9-1.2c0.8-1,1.4-2.8,1.8-5.1h-1
		c-0.2,1.5-0.5,2.8-1,4c0-0.3-0.1-0.7-0.3-1.3l-0.9-2.7h-1.1l1.2,3.6c0.2,0.5,0.3,0.9,0.3,1c0,0.3-0.1,0.5-0.3,0.7
		C188.8,96.3,188.5,96.4,188.2,96.4z"/>
	<path class="st52" d="M203.6,89v6.6h3.1v-0.8h-2.1V89L203.6,89L203.6,89z"/>
	<path class="st51" d="M181.7,90.3L181.7,90.3l1.7,5.3h0.9l1.7-5.3l0,0c0.2,1.7,0.3,3.4,0.3,5.3h1.1l0,0c-0.1-2-0.3-4.3-0.5-6.6
		h-1.3l-1.7,4.9l0,0l-1.6-4.9h-1.4c-0.3,2.1-0.4,4.3-0.5,6.6h1C181.5,93.7,181.6,91.8,181.7,90.3z"/>
	<path class="st52" d="M202.8,92.2c0-2.2-0.9-3.3-2.6-3.3c-0.9,0-1.5,0.3-2,0.9c-0.5,0.6-0.8,1.5-0.8,2.7c0,1.1,0.3,2,0.7,2.5
		c0.4,0.5,1,0.7,1.9,0.7c0.3,0,0.6,0,0.9-0.1l1.6,1l0.4-0.8l0,0l-1.2-0.6c0.1-0.1,0.2-0.2,0.3-0.3C202.5,94.3,202.8,93.4,202.8,92.2
		z M200.2,94.9c-0.5,0-1-0.2-1.1-0.6l0,0c-0.3-0.4-0.4-1.1-0.4-2.1c0-1.7,0.5-2.5,1.6-2.5c0.5,0,1,0.2,1.1,0.6
		c0.3,0.4,0.4,1.1,0.4,2.1C201.6,94.1,201.1,94.9,200.2,94.9z M196.2,92.4c0,0-1-0.5-1.4-0.8c-0.5-0.3-0.8-0.6-0.8-1
		c0-0.3,0.1-0.4,0.3-0.6c0.2-0.2,0.4-0.3,0.8-0.3c0.4,0,0.9,0.1,1.3,0.3l0.3-0.6c-0.5-0.3-1-0.5-1.7-0.5c-0.6,0-1,0.2-1.5,0.5
		c-0.3,0.3-0.5,0.8-0.5,1.3c0,0.6,0.3,1,0.8,1.4c0,0,1,0.5,1.4,0.8c0.5,0.3,0.8,0.6,0.8,1c0,0.3-0.2,0.5-0.3,0.7
		c-0.3,0.2-0.5,0.3-1,0.3c-0.4,0-0.9-0.1-1.4-0.3l-0.3,0.6c0.6,0.4,1.2,0.6,1.9,0.6c0.7,0,1.2-0.2,1.7-0.5c0.4-0.3,0.6-0.8,0.6-1.4
		l0,0C196.9,93.1,196.7,92.8,196.2,92.4z"/>
	<path class="st53" d="M191.8,92.4h-1c-0.2,0.9-0.4,1.7-0.8,2.4c0-0.3-0.1-0.7-0.3-1.2l-0.4-1.2h-1.1l0.7,2.1c0.2,0.5,0.3,0.9,0.3,1
		c0,0.3-0.1,0.4-0.3,0.7c-0.2,0.2-0.4,0.3-0.8,0.3c-0.2,0-0.3,0-0.4,0V97c0.3,0.1,0.5,0.2,0.7,0.2c0.7,0,1.3-0.4,1.9-1.2
		C191,95.1,191.5,93.9,191.8,92.4z"/>
	<path class="st54" d="M204.6,92.4h-1v3.1h3.1v-0.8h-2.1V92.4z"/>
	<path class="st53" d="M181.6,92.4h-1c-0.1,1-0.2,2.1-0.2,3.1h1C181.5,94.4,181.6,93.4,181.6,92.4z M185.3,92.4h-0.9l-0.5,1.5l0,0
		l-0.5-1.5h-1l1,3.1h0.9L185.3,92.4z M187.2,92.4h-1.1c0.1,1,0.1,2.1,0.2,3.1h1.1l0,0C187.4,94.5,187.3,93.5,187.2,92.4z"/>
	<path class="st54" d="M202.8,92.4h-1.1c0,0,0,0,0,0.1c0,1.7-0.5,2.4-1.6,2.4c-0.5,0-1-0.2-1.2-0.6l0,0c-0.3-0.4-0.4-1-0.4-1.9h-1.1
		v0.1c0,1.1,0.3,2,0.7,2.5c0.4,0.5,1,0.7,1.9,0.7c0.3,0,0.6,0,0.9-0.1l1.6,0.9l0.4-0.7l0,0l-1.2-0.6c0.1-0.1,0.2-0.2,0.3-0.3
		C202.5,94.3,202.8,93.5,202.8,92.4z M196.1,92.4H194c0.3,0.2,0.8,0.4,1,0.6c0.5,0.3,0.8,0.6,0.8,1c0,0.3-0.2,0.5-0.3,0.7
		c-0.3,0.2-0.5,0.3-1,0.3c-0.4,0-0.9-0.1-1.4-0.3l-0.3,0.5c0.6,0.4,1.2,0.6,1.9,0.6c0.7,0,1.2-0.2,1.7-0.5c0.4-0.3,0.6-0.8,0.6-1.4
		l0,0c0-0.6-0.3-1-0.8-1.4C196.2,92.4,196.2,92.4,196.1,92.4z"/>
	<path class="st51" d="M200.1,80.1c-0.2,0-0.3,0-0.3,0l0,0l0,0c0.1,0.1,0.2,0.2,0.3,0.3c0.1,0.1,0.1,0.2,0.2,0.3l0,0
		c0.1-0.1,0.2-0.2,0.2-0.3l-0.1-0.2L200.1,80.1L200.1,80.1z"/>
	<path class="st51" d="M208.5,89c-0.3-0.3-0.5-0.6-0.9-0.8c-0.3-0.2-0.8-0.4-1-0.7l0,0c0.2,0,0.3-0.1,0.5-0.1
		c0.3-0.1,0.5-0.1,0.8-0.1c0.1,0,0.3-0.1,0.3-0.1v-0.1c-0.2-0.2-0.3-0.3-0.4-0.4c-0.4-0.3-0.9-0.7-1.3-1c-0.3-0.2-0.6-0.3-0.9-0.4
		l-0.3-0.2c-0.2-0.2-0.3-0.4-0.3-0.6c-0.3-0.4-0.4-1-0.6-1.4c-0.2-0.3-0.3-0.6-0.4-0.9c-0.8-1.3-1.7-2.2-3-3c-0.3-0.2-0.6-0.3-1-0.3
		c-0.2,0-0.4,0-0.6,0c-0.2-0.1-0.3-0.2-0.3-0.3c-0.4-0.3-1.7-0.9-1.9-0.1c-0.2,0.5,0.3,1,0.5,1.3c0.2,0.2,0.3,0.3,0.4,0.6
		c0.1,0.2,0.1,0.3,0.1,0.4c0.1,0.3,0.3,0.7,0.4,1c0.1,0.2,0.2,0.3,0.3,0.5c0.1,0.1,0.2,0.1,0.2,0.3c-0.1,0.2-0.1,0.4-0.2,0.6
		c-0.3,0.9-0.2,2,0.3,2.7c0.1,0.2,0.4,0.6,0.9,0.4c0.3-0.2,0.3-0.6,0.3-1l0.1-0.3l0,0c0.1,0.3,0.3,0.4,0.3,0.7c0.3,0.3,0.7,0.8,1,1
		c0.2,0.2,0.3,0.3,0.6,0.4l0,0l0,0l-0.2-0.2c-0.2-0.2-0.3-0.3-0.4-0.4c-0.3-0.4-0.6-1-0.9-1.5c-0.2-0.3-0.3-0.5-0.3-0.8l-0.1-0.3
		c-0.1,0.2-0.3,0.3-0.3,0.5c-0.2,0.3-0.2,0.8-0.3,1.2l0,0c-0.3-0.1-0.3-0.3-0.4-0.5c-0.3-0.5-0.3-1.5-0.1-2.1
		c0.1-0.2,0.3-0.7,0.2-0.9c-0.1-0.2-0.2-0.3-0.3-0.3c-0.1-0.2-0.2-0.3-0.3-0.5c-0.2-0.4-0.3-1-0.5-1.4c-0.1-0.2-0.3-0.4-0.4-0.6
		c-0.2-0.2-0.3-0.3-0.4-0.6v-0.3l0.1-0.1l0.5,0.1c0.3,0.1,0.5,0.3,0.8,0.4c0.1,0.1,0.3,0.3,0.3,0.3h0.2c0.3,0.1,0.5,0,0.8,0.1
		c0.4,0.2,0.8,0.3,1.1,0.5c1,0.7,1.9,1.6,2.5,2.7c0.1,0.2,0.2,0.3,0.3,0.5c0.2,0.3,0.3,0.8,0.5,1.1c0.2,0.3,0.3,0.8,0.6,1
		c0.1,0.2,0.6,0.3,0.8,0.3c0.2,0.1,0.4,0.2,0.5,0.3c0.3,0.2,0.5,0.3,0.8,0.5c0.2,0.1,0.5,0.3,0.5,0.4c-0.6,0-1.1,0.1-1.6,0.3
		c-0.1,0.1-0.3,0.1-0.3,0.2l0.2,0.3c0.1,0.2,0.3,0.3,0.4,0.5c0.2,0.1,0.3,0.3,0.5,0.3c0.3,0.2,0.7,0.3,1,0.5
		c0.2,0.1,0.3,0.3,0.5,0.3c0.1,0.1,0.2,0.2,0.3,0.2l0,0l-0.1-0.3L208.5,89z"/>
	<path class="st53" d="M200.1,80.1L200.1,80.1c-0.2,0-0.3,0-0.3,0l0,0l0,0c0.1,0.1,0.2,0.2,0.3,0.3c0.1,0.1,0.1,0.2,0.2,0.3l0,0
		c0.1-0.1,0.2-0.2,0.2-0.3l-0.1-0.2L200.1,80.1z"/>
	<path class="st53" d="M197.9,78.2c-0.3,0-0.5,0.1-0.6,0.4c-0.2,0.5,0.3,1,0.5,1.3c0.2,0.2,0.3,0.3,0.4,0.6c0.1,0.2,0.1,0.3,0.1,0.4
		c0.1,0.3,0.3,0.7,0.4,1c0.1,0.2,0.2,0.3,0.3,0.5c0.1,0.1,0.2,0.1,0.2,0.3c-0.1,0.2-0.1,0.4-0.2,0.6c-0.3,0.9-0.2,2,0.3,2.6
		c0.1,0.2,0.3,0.5,0.7,0.5c0.1,0,0.1,0,0.2,0c0.3-0.2,0.3-0.6,0.3-1l0.1-0.3l0,0c0.1,0.3,0.3,0.4,0.3,0.7c0.3,0.3,0.7,0.8,1,1
		c0.2,0.2,0.3,0.3,0.6,0.4l0,0l0,0l-0.2-0.2c-0.2-0.2-0.3-0.3-0.4-0.4c-0.3-0.4-0.6-1-0.9-1.4c-0.2-0.3-0.3-0.5-0.3-0.8l-0.2-0.3
		c-0.1,0.2-0.3,0.3-0.3,0.5c-0.2,0.3-0.2,0.8-0.3,1.2l0,0c-0.3-0.1-0.3-0.3-0.4-0.5c-0.3-0.5-0.3-1.5-0.1-2.1
		c0.1-0.2,0.3-0.7,0.2-0.9c-0.1-0.2-0.2-0.3-0.3-0.3c-0.1-0.2-0.2-0.3-0.3-0.5c-0.2-0.4-0.3-1-0.5-1.4c-0.1-0.2-0.3-0.4-0.4-0.6
		c-0.2-0.2-0.3-0.3-0.4-0.6v-0.3l0.1-0.1l0.5,0.1c0.3,0.1,0.5,0.3,0.8,0.4c0.1,0.1,0.3,0.3,0.3,0.3h0.2c0.3,0.1,0.5,0,0.8,0.1
		c0.4,0.2,0.8,0.3,1.1,0.5c0.3,0.3,0.7,0.5,1,0.8v-0.6c-0.4-0.3-0.9-0.6-1.3-0.9c-0.3-0.2-0.7-0.3-1-0.3c-0.2,0-0.4,0-0.6,0
		c-0.2-0.1-0.3-0.2-0.3-0.3C198.9,78.4,198.3,78.2,197.9,78.2z"/>
</g>
<g>
	<path class="st55" d="M109.4,96.1L109.4,96.1L109.4,96.1l0.2-0.1v0.1H109.4l0.1,0.3h-0.1V96.1z M110,96.1L110,96.1l-0.1,0.3h-0.1
		l-0.1-0.3v0.3h-0.1V96h0.1l0.1,0.3L110,96.1L110,96.1l0.1,0.3H110V96.1z"/>
	<path class="st56" d="M99.6,88.5c0,0-0.8,0.4,0.5,0.6c1.4,0.2,2.8,0.2,4.2-0.2c0.3,0.2,0.7,0.3,1.1,0.5
		C101.4,91.1,96.6,89.4,99.6,88.5z M99.2,86.4c0,0-0.9,0.6,0.4,0.8c1.7,0.2,3.6,0.1,5.3-0.3c0.3,0.3,0.5,0.4,0.8,0.5
		C101,88.8,95.8,87.5,99.2,86.4z"/>
	<path class="st55" d="M103.2,82.6c1,1.1-0.3,2.1-0.3,2.1s2.4-1.3,1.3-2.9c-1-1.5-1.8-2.2,2.5-4.7C106.7,77.2,99.9,78.9,103.2,82.6z
		"/>
	<path class="st56" d="M108.3,90.2c0,0,0.5,0.4-0.6,0.8c-2.3,0.7-9.4,0.9-11.4,0c-0.7-0.3,0.6-0.8,1-0.9C97.6,90,97.8,90,98,90
		c-0.8-0.5-5.1,1.1-2.2,1.6C103.9,93,110.4,91,108.3,90.2L108.3,90.2z M100,84.1c0,0-3.7,0.9-1.3,1.2c1,0.2,3,0.1,4.8-0.1
		c1.5-0.1,3-0.4,3-0.4c-0.3,0.2-0.6,0.3-0.9,0.5c-3.7,1-10.8,0.5-8.8-0.4C97.8,84.4,98.9,84.1,100,84.1L100,84.1z M106.5,87.7
		c3.7-1.9,2-3.8,0.8-3.6c-0.2,0-0.3,0.1-0.4,0.1c0.1-0.1,0.2-0.2,0.3-0.3C109.6,83.1,111.4,86.5,106.5,87.7
		C106.5,87.8,106.5,87.7,106.5,87.7"/>
	<path class="st55" d="M104.2,73.1c0,0,2.1,2.1-2,5.3c-3.2,2.5-0.8,4,0,5.6c-1.9-1.7-3.3-3.2-2.3-4.6
		C101.3,77.4,105.1,76.4,104.2,73.1"/>
	<path class="st56" d="M100.3,93c3.6,0.3,9.1-0.1,9.2-1.8c0,0-0.3,0.6-3,1.1c-3,0.5-6.1,0.5-9.1,0.2C97.5,92.4,98,92.9,100.3,93"/>
	<path class="st55" d="M99.8,99.5c-0.3,0.3-0.6,0.4-1,0.4c-0.1,0-0.2,0-0.3,0c-0.1,0-0.2-0.1-0.3-0.2c-0.1-0.1-0.1-0.2-0.2-0.3
		c-0.1-0.1,0-0.2,0-0.3c0-0.4,0.3-0.9,1.3-0.9h0.4V99.5L99.8,99.5z M100.7,100.5v-3.3c0-0.9-0.4-1.4-1.7-1.4c-0.6,0-1.2,0.2-1.7,0.3
		l0.2,0.6c0.4-0.2,0.9-0.3,1.3-0.3c0.7,0,1,0.3,1,0.8v0.4h-0.3c-1.6,0-2.3,0.6-2.3,1.6c0,0.8,0.4,1.3,1.4,1.3c0.5,0,1-0.3,1.4-0.6
		l0.1,0.5L100.7,100.5L100.7,100.5z M103.8,100.5h-1.1l-1.4-4.6h1l0.9,2.8l0.2,0.9c0.4-1.2,0.7-2.4,0.9-3.7h1
		C105,97.6,104.5,99.1,103.8,100.5L103.8,100.5z M108.3,99.5c-0.3,0.3-0.6,0.4-1,0.4c-0.1,0-0.2,0-0.3,0s-0.2-0.1-0.3-0.2
		c-0.1-0.1-0.1-0.2-0.2-0.3c0-0.1,0-0.2,0-0.3c0-0.4,0.3-0.9,1.3-0.9h0.4V99.5L108.3,99.5z M109.3,100.5v-3.3c0-0.9-0.4-1.4-1.7-1.4
		c-0.6,0-1.2,0.2-1.7,0.3l0.2,0.6c0.4-0.2,0.9-0.3,1.3-0.3c0.7,0,1,0.3,1,0.8v0.4H108c-1.6,0-2.3,0.6-2.3,1.6c0,0.8,0.4,1.3,1.4,1.3
		c0.5,0,1-0.3,1.4-0.6l0.1,0.5L109.3,100.5L109.3,100.5z M96,101.3c-0.3,0.4-0.7,0.7-1.1,0.9l-0.4-0.5c0.3-0.2,0.6-0.4,0.8-0.8
		c0.1-0.3,0.2-0.5,0.2-1.3v-5.2h1v5.1C96.4,100.5,96.3,101,96,101.3"/>
</g>
<g>
	
		<linearGradient id="SVGID_8_" gradientUnits="userSpaceOnUse" x1="192.6448" y1="702.2754" x2="192.6448" y2="717.9086" gradientTransform="matrix(1 0 0 1 0 -528)">
		<stop  offset="0" style="stop-color:#0994DC"/>
		<stop  offset="0.35" style="stop-color:#66CEF5"/>
		<stop  offset="0.846" style="stop-color:#127BCA"/>
		<stop  offset="1" style="stop-color:#127BCA"/>
	</linearGradient>
	<path class="st57" d="M189.7,176.7c1.2,3.6,1.7,10.1,5,10.1c0.3,0,0.5,0,0.8-0.1c-3.1-0.7-3.5-7.1-5.4-10.4
		C190,176.5,189.9,176.6,189.7,176.7z"/>
	
		<linearGradient id="SVGID_9_" gradientUnits="userSpaceOnUse" x1="193.2531" y1="701.8995" x2="193.2531" y2="717.8903" gradientTransform="matrix(1 0 0 1 0 -528)">
		<stop  offset="0" style="stop-color:#0E76BC"/>
		<stop  offset="0.36" style="stop-color:#36AEE8"/>
		<stop  offset="0.846" style="stop-color:#00ADEF"/>
		<stop  offset="1" style="stop-color:#00ADEF"/>
	</linearGradient>
	<path class="st58" d="M190.2,176.3c1.9,3.3,2.3,9.6,5.4,10.4c0.3-0.1,0.5-0.1,0.8-0.2c-2.8-1.4-3.6-7.6-5.7-10.5
		C190.4,176.1,190.3,176.2,190.2,176.3z"/>
	<path class="st59" d="M192.9,174.4c-0.3,0-0.5,0-0.8,0.1c-0.7,0.2-1.4,0.4-2.1,0.9c0.2,0.2,0.3,0.4,0.5,0.7c0.7-0.6,1.5-1,2.2-1.3
		c0.3-0.1,0.5-0.2,0.8-0.3C193.4,174.4,193.1,174.4,192.9,174.4z"/>
	
		<linearGradient id="SVGID_10_" gradientUnits="userSpaceOnUse" x1="196.4252" y1="714.4075" x2="196.4252" y2="701.6843" gradientTransform="matrix(1 0 0 1 0 -528)">
		<stop  offset="0" style="stop-color:#1C63B7"/>
		<stop  offset="0.5" style="stop-color:#33BDF2"/>
		<stop  offset="1" style="stop-color:#33BDF2;stop-opacity:0.42"/>
	</linearGradient>
	<path class="st60" d="M198.5,185.3c0.3-0.3,0.6-0.5,0.9-0.8c-1.2-3.6-1.7-10.1-5.1-10.1c-0.3,0-0.5,0-0.8,0.1
		C196.7,175.3,197.1,182.1,198.5,185.3z"/>
	<path class="st61" d="M193.6,174.5c-0.2-0.1-0.4-0.1-0.6-0.1h1.4C194.1,174.4,193.8,174.4,193.6,174.5z"/>
	<path class="st62" d="M198.5,186c-0.2-0.1-0.3-0.3-0.4-0.4c-0.6,0.4-1.1,0.7-1.7,1c0.2,0.1,0.4,0.2,0.6,0.3c0.2,0,0.3,0.1,0.5,0.1
		c0.6,0,1.1-0.1,1.6-0.3C198.9,186.4,198.7,186.2,198.5,186z"/>
	
		<linearGradient id="SVGID_11_" gradientUnits="userSpaceOnUse" x1="195.6431" y1="700.2289" x2="195.6431" y2="716.8732" gradientTransform="matrix(1 0 0 1 0 -528)">
		<stop  offset="0" style="stop-color:#166AB8"/>
		<stop  offset="0.4" style="stop-color:#36AEE8"/>
		<stop  offset="0.846" style="stop-color:#0798DD"/>
		<stop  offset="1" style="stop-color:#0798DD"/>
	</linearGradient>
	<path class="st63" d="M192.8,174.6c2.9,1.5,3,8.2,5.3,11c0.2-0.1,0.3-0.3,0.4-0.3c-1.4-3.1-1.8-10-5-10.8
		C193.3,174.5,193,174.6,192.8,174.6z"/>
	
		<linearGradient id="SVGID_12_" gradientUnits="userSpaceOnUse" x1="194.3395" y1="700.3589" x2="194.3395" y2="718.0584" gradientTransform="matrix(1 0 0 1 0 -528)">
		<stop  offset="0" style="stop-color:#124379"/>
		<stop  offset="0.39" style="stop-color:#1487CB"/>
		<stop  offset="0.78" style="stop-color:#165197"/>
		<stop  offset="1" style="stop-color:#165197"/>
	</linearGradient>
	<path class="st64" d="M190.6,176c2.2,3,3,9.1,5.7,10.5c0.6-0.2,1.1-0.5,1.7-1c-2.3-2.7-2.5-9.5-5.3-11
		C192,174.9,191.3,175.3,190.6,176z"/>
	
		<linearGradient id="SVGID_13_" gradientUnits="userSpaceOnUse" x1="187.1011" y1="705.778" x2="189.6" y2="705.778" gradientTransform="matrix(1 0 0 1 0 -528)">
		<stop  offset="0" style="stop-color:#33BDF2;stop-opacity:0.698"/>
		<stop  offset="1" style="stop-color:#1DACD8"/>
	</linearGradient>
	<path class="st65" d="M188.3,176.6c-0.3,0.8-0.7,1.8-1.1,3.1c0.9-1.2,1.7-2.2,2.5-3c-0.1-0.3-0.3-0.7-0.3-1
		C189,176,188.7,176.3,188.3,176.6z"/>
	<path class="st66" d="M189.6,175.5c-0.1,0.1-0.2,0.2-0.3,0.3c0.2,0.3,0.3,0.6,0.3,1c0.2-0.2,0.3-0.3,0.4-0.4
		C190,176,189.8,175.8,189.6,175.5z"/>
	<path class="st67" d="M190,175.3c-0.1,0.1-0.3,0.2-0.3,0.3c0.2,0.3,0.3,0.5,0.5,0.8c0.2-0.1,0.3-0.3,0.4-0.3
		C190.4,175.8,190.3,175.5,190,175.3z"/>
	
		<linearGradient id="SVGID_14_" gradientUnits="userSpaceOnUse" x1="206.2458" y1="714.0762" x2="206.2458" y2="701.6821" gradientTransform="matrix(1 0 0 1 0 -528)">
		<stop  offset="0" style="stop-color:#136AB4"/>
		<stop  offset="0.6" style="stop-color:#59CAF5;stop-opacity:0.549"/>
		<stop  offset="1" style="stop-color:#59CAF5;stop-opacity:0.235"/>
	</linearGradient>
	<path class="st68" d="M209.4,174.1c-1.6,6.2-5,11.1-7.7,12.4l0,0l-0.2,0.1l0,0l0,0l0,0h-0.1l0,0l0,0l0,0l0,0h-0.1l0,0l0,0l0,0h-0.1
		h-0.1c0.1,0.1,0.3,0.1,0.4,0.1c2.7,0,5.3-4.8,9.8-12.7L209.4,174.1L209.4,174.1z"/>
	
		<linearGradient id="SVGID_15_" gradientUnits="userSpaceOnUse" x1="178.2353" y1="708.9501" x2="187.5036" y2="708.9501" gradientTransform="matrix(1 0 0 1 0 -528)">
		<stop  offset="0" style="stop-color:#05A1E6;stop-opacity:0.247"/>
		<stop  offset="1" style="stop-color:#05A1E6"/>
	</linearGradient>
	<path class="st69" d="M186.7,174.6L186.7,174.6L186.7,174.6L186.7,174.6L186.7,174.6L186.7,174.6L186.7,174.6L186.7,174.6
		L186.7,174.6l0.2-0.1l0,0h0.1l0,0h0.1l0,0h0.2l0,0l0,0l0,0l0,0l0,0h0.1l0,0l0,0l0,0l0,0l0,0h0.1c-0.1,0-0.2,0-0.3,0
		c-3,0-7.1,5.6-9,12.8h0.3c0.6-1,1.1-2.1,1.7-3C181.7,179,184.3,175.5,186.7,174.6"/>
	<path class="st70" d="M188.3,176.6c0.3-0.3,0.7-0.6,1-0.9c-0.1-0.2-0.2-0.3-0.3-0.4C188.9,175.6,188.6,176.1,188.3,176.6z"/>
	<path class="st70" d="M188.6,174.6c0.2,0.2,0.3,0.3,0.5,0.7c0.1-0.1,0.1-0.1,0.2-0.2C189,174.9,188.8,174.7,188.6,174.6
		L188.6,174.6L188.6,174.6z"/>
	
		<linearGradient id="SVGID_16_" gradientUnits="userSpaceOnUse" x1="183.5196" y1="714.3964" x2="183.5196" y2="701.7056" gradientTransform="matrix(1 0 0 1 0 -528)">
		<stop  offset="0" style="stop-color:#318ED5"/>
		<stop  offset="1" style="stop-color:#38A7E4"/>
	</linearGradient>
	<path class="st71" d="M180.3,184.1c2.7-5.3,4-8.6,6.3-9.5C184.3,175.5,181.7,179,180.3,184.1z"/>
	<path class="st72" d="M189.3,175.2c-0.1,0.1-0.1,0.1-0.2,0.2c0.1,0.2,0.2,0.3,0.3,0.4c0.1-0.1,0.2-0.2,0.3-0.3
		C189.6,175.4,189.4,175.3,189.3,175.2z"/>
	
		<linearGradient id="SVGID_17_" gradientUnits="userSpaceOnUse" x1="184.3453" y1="714.4639" x2="184.3453" y2="702.0962" gradientTransform="matrix(1 0 0 1 0 -528)">
		<stop  offset="0" style="stop-color:#05A1E6"/>
		<stop  offset="1" style="stop-color:#05A1E6;stop-opacity:0.549"/>
	</linearGradient>
	<path class="st73" d="M181.6,187.1L181.6,187.1L181.6,187.1L181.6,187.1L181.6,187.1h-0.2l0,0c2.8-0.1,4-1.5,4.7-3.5
		c0.4-1.6,0.9-2.8,1.2-3.9c-1.1,1.7-2.3,3.6-3.5,5.7C183.2,186.6,182.3,187,181.6,187.1"/>
	
		<linearGradient id="SVGID_18_" gradientUnits="userSpaceOnUse" x1="184.9536" y1="715.1109" x2="184.9536" y2="704.6597" gradientTransform="matrix(1 0 0 1 0 -528)">
		<stop  offset="0" style="stop-color:#1959A6"/>
		<stop  offset="0.5" style="stop-color:#05A1E6"/>
		<stop  offset="0.918" style="stop-color:#7EC5EA"/>
		<stop  offset="1" style="stop-color:#7EC5EA"/>
	</linearGradient>
	<path class="st74" d="M181.6,187.1c0.7-0.1,1.6-0.5,2.2-1.6c1.1-2.2,2.3-4.1,3.5-5.7c0.4-1.3,0.8-2.3,1.1-3.1
		C186,178.8,183.7,182.5,181.6,187.1"/>
	<path class="st75" d="M180.3,184.1c-0.5,1-1,1.9-1.7,3h1C179.9,186,180.1,185.1,180.3,184.1"/>
	
		<linearGradient id="SVGID_19_" gradientUnits="userSpaceOnUse" x1="185.6323" y1="714.3641" x2="183.6394" y2="703.0618" gradientTransform="matrix(1 0 0 1 0 -528)">
		<stop  offset="0" style="stop-color:#165096"/>
		<stop  offset="1" style="stop-color:#0D82CA"/>
	</linearGradient>
	<path class="st76" d="M187.6,174.4L187.6,174.4L187.6,174.4L187.6,174.4L187.6,174.4L187.6,174.4h-0.2l0,0l0,0l0,0l0,0l0,0h-0.2
		l0,0h-0.1l0,0l0,0l0,0H187H187l0,0l0,0l0,0c-2.3,0.9-3.6,4.3-6.3,9.5c-0.3,1-0.4,1.9-0.6,3h0.2h1h0.4h0.1l0,0l0,0l0,0h0.1
		c2.2-4.6,4.4-8.3,6.8-10.4c0.3-0.6,0.5-1,0.8-1.3c-0.2-0.3-0.3-0.5-0.5-0.7l0,0l0,0l0,0l0,0l0,0l0,0h-0.1l0,0h-0.1l0,0h-0.1l0,0
		h-0.1l0,0h-0.1l0,0c-0.1,0-0.1,0-0.2,0l0,0h-0.1l0,0h-0.1l0,0H188L187.6,174.4"/>
	
		<linearGradient id="SVGID_20_" gradientUnits="userSpaceOnUse" x1="203.9427" y1="708.0073" x2="203.9427" y2="702.1006" gradientTransform="matrix(1 0 0 1 0 -528)">
		<stop  offset="0" style="stop-color:#05A1E6"/>
		<stop  offset="0.874" style="stop-color:#0495D6"/>
		<stop  offset="1" style="stop-color:#0495D6"/>
	</linearGradient>
	<path class="st77" d="M203.1,177.5c-0.5,1.7-1,3-1.3,4.3c1.5-2,2.9-4.5,4.3-7.4C204.4,174.8,203.6,176,203.1,177.5z"/>
	
		<linearGradient id="SVGID_21_" gradientUnits="userSpaceOnUse" x1="206.599" y1="701.5671" x2="204.1979" y2="715.1875" gradientTransform="matrix(1 0 0 1 0 -528)">
		<stop  offset="0" style="stop-color:#38A7E4;stop-opacity:0.329"/>
		<stop  offset="0.962" style="stop-color:#0E88D3"/>
		<stop  offset="1" style="stop-color:#0E88D3"/>
	</linearGradient>
	<path class="st78" d="M201.8,186.4c-0.1,0-0.2,0.1-0.3,0.1c2.8-1.2,6.2-6.3,7.7-12.4h-0.3C205.4,180.6,204.2,185.1,201.8,186.4z"/>
	<path class="st79" d="M200,185.9c0.6-0.8,1.1-2,1.8-4.1c-0.8,1-1.6,2-2.3,2.8l0,0C199.6,185,199.7,185.4,200,185.9"/>
	<path class="st62" d="M200,185.9c-0.2,0.3-0.4,0.4-0.7,0.6c-0.1,0-0.1,0.1-0.2,0.1c0.3,0.2,0.5,0.3,0.9,0.3h0.2l0,0h0.1h0.3l0,0
		h0.1l0,0h0.1l0,0l0,0h0.1l0,0h0.1l0,0h0.2C200.5,186.6,200.2,186.3,200,185.9"/>
	<path class="st80" d="M194.8,186.8c0.3,0,0.5,0,0.8-0.1c0.3-0.1,0.5-0.1,0.8-0.2c0.2,0.1,0.4,0.2,0.6,0.3c0.2,0,0.3,0.1,0.5,0.1
		L194.8,186.8L194.8,186.8z M197.6,186.8c0.6,0,1.1-0.1,1.6-0.3c0.3,0.2,0.5,0.3,0.9,0.3h0.2l0,0h0.1h0.1H197.6z"/>
	<path class="st81" d="M200.3,186.8h0.2l0,0h0.1l0,0h0.1l0,0l0,0h0.1l0,0h0.1l0,0h0.2c0.1,0.1,0.3,0.1,0.4,0.1L200.3,186.8
		L200.3,186.8z"/>
	<path class="st82" d="M199.4,184.5L199.4,184.5c-0.3,0.3-0.6,0.5-0.9,0.8c-0.2,0.1-0.3,0.3-0.4,0.3c0.1,0.2,0.3,0.3,0.4,0.4
		c0.2,0.2,0.4,0.3,0.7,0.5c0.1,0,0.1-0.1,0.2-0.1c0.3-0.2,0.4-0.3,0.7-0.6C199.7,185.4,199.6,185,199.4,184.5"/>
	
		<linearGradient id="SVGID_22_" gradientUnits="userSpaceOnUse" x1="204.3337" y1="702.0639" x2="204.3337" y2="714.9501" gradientTransform="matrix(1 0 0 1 0 -528)">
		<stop  offset="0" style="stop-color:#168CD4"/>
		<stop  offset="0.5" style="stop-color:#1C87CC"/>
		<stop  offset="1" style="stop-color:#154B8D"/>
	</linearGradient>
	<path class="st83" d="M208,174.1h-1.7h-0.3l-0.1,0.3c-1.4,2.9-2.8,5.4-4.3,7.4c-0.7,2.1-1.2,3.4-1.8,4.1c0.3,0.4,0.5,0.8,1,0.9l0,0
		l0,0l0,0h0.1l0,0l0,0l0,0h0.1l0,0l0,0l0,0l0,0h0.1l0,0l0,0l0,0l0.2-0.1l0,0c0.1,0,0.2-0.1,0.3-0.1c2.3-1.3,3.6-5.7,7.2-12.3
		L208,174.1L208,174.1z"/>
	<path class="st84" d="M187.6,174.4L187.6,174.4L187.6,174.4L187.6,174.4h0.2l0,0h0.1l0,0h0.2l0,0h0.1l0,0h0.1l0,0h0.1l0,0h0.1l0,0
		h0.1l0,0l0,0l0,0l0,0c0.3,0.1,0.5,0.3,0.7,0.5c0.1-0.1,0.2-0.2,0.3-0.3c-0.5-0.3-1-0.5-1.7-0.5
		C187.8,174.4,187.7,174.4,187.6,174.4"/>
	<path class="st85" d="M189.3,175.2c0.2,0.1,0.3,0.3,0.3,0.4c0.1-0.1,0.3-0.2,0.3-0.3c-0.2-0.2-0.3-0.3-0.5-0.4
		C189.5,175,189.4,175.1,189.3,175.2z"/>
	
		<linearGradient id="SVGID_23_" gradientUnits="userSpaceOnUse" x1="186.7877" y1="701.311" x2="201.771" y2="707.5254" gradientTransform="matrix(1 0 0 1 0 -528)">
		<stop  offset="0" style="stop-color:#97D6EE"/>
		<stop  offset="0.703" style="stop-color:#55C1EA"/>
		<stop  offset="1" style="stop-color:#55C1EA"/>
	</linearGradient>
	<path class="st86" d="M187.6,174.4h0.3c0.6,0,1.2,0.2,1.7,0.5c0.5-0.4,1.1-0.5,2-0.5h-4.2H187.6z"/>
	
		<linearGradient id="SVGID_24_" gradientUnits="userSpaceOnUse" x1="190.449" y1="702.9539" x2="202.2836" y2="697.5891" gradientTransform="matrix(1 0 0 1 0 -528)">
		<stop  offset="0" style="stop-color:#7ACCEC"/>
		<stop  offset="1" style="stop-color:#3FB7ED"/>
	</linearGradient>
	<path class="st87" d="M191.5,174.4c-0.9,0-1.5,0.2-2,0.5c0.2,0.1,0.3,0.3,0.5,0.4c0.7-0.4,1.4-0.8,2.1-0.9c0.3-0.1,0.5-0.1,0.8-0.1
		H191.5L191.5,174.4z"/>
	
		<linearGradient id="SVGID_25_" gradientUnits="userSpaceOnUse" x1="202.6391" y1="702.7645" x2="202.6391" y2="715.3687" gradientTransform="matrix(1 0 0 1 0 -528)">
		<stop  offset="0" style="stop-color:#1DA7E7"/>
		<stop  offset="1" style="stop-color:#37ABE7;stop-opacity:0"/>
	</linearGradient>
	<path class="st88" d="M201.7,181.7c0.3-1.1,0.8-2.5,1.3-4.3c0.4-1.5,1.3-2.7,2.9-3.1l0.1-0.3c-2.6,0.2-3.7,1.5-4.3,3.4
		c-1,3.4-1.7,5.6-2.3,7C200.2,183.7,200.9,182.8,201.7,181.7z"/>
</g>
<g>
	<path class="st89" d="M65.5,47.9L67.2,33l-11.1-4.1L44.9,33l1.7,14.9l9.5,5.3L65.5,47.9z M51.6,47.5H49l7-15.9l7,15.9h-2.6
		l-1.4-3.6H53L51.6,47.5z"/>
	<path class="st89" d="M54,41.8h4.1l-2.1-5L54,41.8z"/>
</g>
</svg>
