<?xml version="1.0" encoding="utf-8"?>
<!-- Generator: Adobe Illustrator 24.0.2, SVG Export Plug-In . SVG Version: 6.00 Build 0)  -->
<svg version="1.1" id="Layer_1" xmlns="http://www.w3.org/2000/svg" xmlns:xlink="http://www.w3.org/1999/xlink" x="0px" y="0px"
	 viewBox="0 0 1200 816.98" style="enable-background:new 0 0 1200 816.98;" xml:space="preserve">
<style type="text/css">
	.st0{fill:#FFFFFF;}
	.st1{fill:#F2F2F2;}
	.st2{fill:#95C88B;}
	.st3{fill:#1D1E1C;}
	.st4{fill:#EB144C;}
	.st5{fill:#F5F4F4;}
	.st6{fill:#ECEBEB;}
	.st7{fill:#263339;}
	.st8{fill:#F9BF9D;}
	.st9{fill:#F49A6C;}
	.st10{fill:#3C3C3B;}
	.st11{fill:#F3AD91;}
	.st12{fill:#8C6B63;}
	.st13{fill:#E51B4D;}
	.st14{fill:#9B9A9A;}
	.st15{opacity:0.3;}
	.st16{fill:#000100;}
	.st17{fill:#EE715F;}
	.st18{fill:#385A65;}
	.st19{fill:#E0DFDF;}
	.st20{fill:#F4F4F4;stroke:#000000;stroke-width:0.5;stroke-miterlimit:10;}
	.st21{fill:#FBD5BD;}
	.st22{fill:#F7B295;}
</style>
<rect x="287.79" y="188.12" class="st0" width="697.56" height="496.11"/>
<path class="st1" d="M36.65,539.29c15.6,82.82,51.14,159.28,90.63,231.55l931.93-1.83c42.34-25.66,84.86-79.12,105.04-127.91
	c20.16-48.77,18.87-110.56-11.23-152.51c-35.43-49.38-49.31-185.49-120.81-193.44c-75.49-8.4-87.49-56.64-127.82-127.16
	C844.34,63.05,692.81,7.56,596.23,83.58c-54.7,43.06-85.85,125.18-150.76,143.57c-62.82,17.81-123.71-33.71-187.9-43.76
	c-75.2-11.78-151.62,37.91-191.03,110.26C27.13,365.97,21.07,456.47,36.65,539.29z"/>
<g>
	<g>
		<path class="st2" d="M310.26,634.99c0.11-19,12.54-31.15,12.54-31.15C326.6,619.48,310.26,634.99,310.26,634.99z"/>
	</g>
</g>
<g>
	<g>
		<path class="st2" d="M328.47,626.18c17.47-7.48,33.57-0.93,33.57-0.93C349.22,634.96,328.47,626.18,328.47,626.18z"/>
	</g>
</g>
<g>
	<g>
		<path class="st2" d="M330.54,616.05c-3.04-14.69,4.57-26.09,4.57-26.09C340.6,601.41,330.54,616.05,330.54,616.05z"/>
	</g>
</g>
<g>
	<g>
		<path class="st2" d="M260.14,579.51c26.61,7.08,40.89,30.22,40.89,30.22C278.29,609.75,260.14,579.51,260.14,579.51z"/>
	</g>
</g>
<g>
	<g>
		<path class="st2" d="M302.65,590.42c-1.38-28.69,26.65-61.15,26.65-61.15C325.07,564.88,302.65,590.42,302.65,590.42"/>
	</g>
</g>
<g>
	<g>
		<path class="st2" d="M302.51,508.72c1.19,23.26-10.08,41.09-10.08,41.09C288.47,531.36,302.51,508.72,302.51,508.72z"/>
	</g>
</g>
<g>
	<g>
		<path class="st2" d="M291.7,567c-20.97-2.25-32.38-23.12-32.38-23.12C284.68,550.99,291.7,567,291.7,567z"/>
	</g>
</g>
<g>
	<g>
		<path class="st2" d="M246.46,654.7c16.03-10.21,32.97-6.35,32.97-6.35C268.36,660,246.46,654.7,246.46,654.7z"/>
	</g>
</g>
<g>
	<g>
		<path class="st2" d="M300.81,664.11c-3.98,10.96-14.09,15.88-14.09,15.88C287.61,670.31,300.81,664.11,300.81,664.11z"/>
	</g>
</g>
<g>
	<g>
		<path class="st2" d="M298.11,661.02c-11.93,7.34-25.08,4.48-25.08,4.48C281.11,657.09,298.11,661.02,298.11,661.02z"/>
	</g>
</g>
<g>
	<g>
		<g>
			<path class="st3" d="M308.84,699.64c-0.02,0-0.03-0.15-0.04-0.43c-0.01-0.34-0.02-0.75-0.03-1.25c0-1.18-0.01-2.78-0.01-4.81
				c0.02-2.09,0.02-4.64-0.04-7.6c-0.05-2.96-0.05-6.34-0.21-10.06c-0.18-7.46-0.71-16.33-1.47-26.16
				c-0.85-9.82-2.05-20.6-3.69-31.86c-3.32-22.53-7.84-42.66-11.48-57.13c-1.83-7.23-3.38-13.07-4.51-17.09
				c-0.53-1.95-0.95-3.5-1.25-4.64c-0.12-0.49-0.22-0.89-0.3-1.21c-0.06-0.27-0.09-0.42-0.07-0.42c0.02,0,0.07,0.13,0.16,0.4
				c0.11,0.32,0.24,0.71,0.39,1.19c0.35,1.13,0.82,2.66,1.42,4.59c1.24,3.99,2.88,9.8,4.8,17.02c3.81,14.44,8.45,34.59,11.77,57.16
				c1.65,11.28,2.81,22.08,3.62,31.93c0.72,9.85,1.18,18.74,1.27,26.21c0.12,3.73,0.08,7.11,0.07,10.08
				c0.01,2.97-0.04,5.52-0.12,7.61c-0.07,2.02-0.13,3.63-0.17,4.81c-0.03,0.5-0.05,0.91-0.07,1.25
				C308.87,699.49,308.85,699.64,308.84,699.64z"/>
		</g>
	</g>
</g>
<g>
	<g>
		<g>
			<path class="st3" d="M270.34,638.92c0.15-0.21,8.62,5.34,18.93,12.41c10.31,7.07,18.55,12.97,18.4,13.18
				c-0.15,0.21-8.62-5.34-18.93-12.41C278.44,645.04,270.2,639.13,270.34,638.92z"/>
		</g>
	</g>
</g>
<g>
	<g>
		<g>
			<path class="st3" d="M307.68,641.98c-0.04-0.05,0.42-0.55,1.3-1.42c1.04-1,2.3-2.22,3.77-3.64c3.4-3.19,7.77-7.29,12.6-11.82
				c4.84-4.53,9.21-8.63,12.61-11.82c1.49-1.4,2.77-2.59,3.82-3.58c0.91-0.84,1.44-1.28,1.48-1.24c0.05,0.05-0.39,0.57-1.22,1.49
				c-0.83,0.92-2.07,2.22-3.61,3.8c-3.1,3.16-7.49,7.42-12.43,12.03c-4.93,4.61-9.47,8.71-12.8,11.63
				c-1.66,1.46-3.02,2.63-3.98,3.42C308.27,641.61,307.72,642.02,307.68,641.98z"/>
		</g>
	</g>
</g>
<g>
	<g>
		<path class="st2" d="M243.42,625.33c0,0,21.67-0.41,30.84,16.65C274.26,641.97,255.77,642.58,243.42,625.33z"/>
	</g>
</g>
<g>
	<g>
		<path class="st2" d="M273.02,616.63c0,0,17.65,12.59,14.84,31.75C287.86,648.38,272.65,637.84,273.02,616.63z"/>
	</g>
</g>
<g>
	<g>
		<path class="st2" d="M365.97,585.61c0,0-6.96,24.26-29.09,28.62C336.88,614.23,342.54,593.45,365.97,585.61z"/>
	</g>
</g>
<g>
	<g>
		<path class="st2" d="M263.39,495.42c0,0,27.65,18.04,24.59,47.37C287.98,542.79,264.18,527.73,263.39,495.42z"/>
	</g>
</g>
<g>
	<g>
		<g>
			<path class="st3" d="M355.42,655.85c0.04,0.05-0.61,0.57-1.8,1.44c-1.2,0.86-2.9,2.15-4.96,3.79c-4.13,3.27-9.6,8.1-14.97,14.07
				c-5.36,5.99-9.58,11.94-12.39,16.4c-1.41,2.23-2.51,4.06-3.24,5.34c-0.74,1.28-1.18,1.97-1.24,1.94
				c-0.06-0.03,0.27-0.78,0.92-2.11c0.63-1.34,1.65-3.23,2.99-5.51c2.68-4.57,6.84-10.64,12.25-16.68
				c5.42-6.02,11.01-10.81,15.27-13.97c2.13-1.58,3.9-2.79,5.16-3.57C354.68,656.2,355.39,655.8,355.42,655.85z"/>
		</g>
	</g>
</g>
<g>
	<g>
		<path class="st2" d="M331.36,673.87c-3.53-18.67,6.35-32.97,6.35-32.97C340.68,661.46,331.36,673.87,331.36,673.87z"/>
	</g>
</g>
<g>
	<g>
		<path class="st2" d="M349.97,663.72c11.92-7,24.14-3.74,24.14-3.74C360.75,667.06,349.97,663.72,349.97,663.72z"/>
	</g>
</g>
<g>
	<g>
		<g>
			<polygon class="st4" points="268.52,701.89 278.89,770.07 339.17,770.07 353.16,702.88 			"/>
		</g>
	</g>
</g>
<g>
	<g>
		<g>
			<path class="st4" d="M261.6,688.39v12.76c0,2.77,2.25,5.02,5.02,5.02h87.28c2.77,0,5.02-2.25,5.02-5.02v-12.76H261.6z"/>
		</g>
	</g>
</g>
<polygon class="st0" points="785.85,350.05 785.85,432.82 757.51,463.38 785.85,463.38 785.85,610.92 785.85,610.92 1057.26,610.92 
	1057.26,350.05 "/>
<rect x="785.94" y="350.34" class="st5" width="271.41" height="19.54"/>
<polygon class="st6" points="786.02,569.75 786.02,611.2 800.17,611.2 835.79,611.2 1057.35,611.2 1057.35,569.75 "/>
<circle class="st4" cx="970" cy="589.38" r="12.89"/>
<path class="st0" d="M970.52,592.89h-3.86c-0.71,0-1.28-0.57-1.28-1.28v-3.86c0-0.71,0.57-1.28,1.28-1.28h3.86
	c0.71,0,1.28,0.57,1.28,1.28v3.86C971.8,592.31,971.23,592.89,970.52,592.89z"/>
<path class="st0" d="M972.39,590.81v-2.18l1.63-1.74c0.22-0.23,0.61-0.08,0.61,0.24v4.95c0,0.31-0.36,0.46-0.59,0.26L972.39,590.81z
	"/>
<g>
	<g>
		<g>
			<path class="st4" d="M922.21,598.55c-4.96-4.96-4.96-13.01,0-17.97c4.96-4.96,13.01-4.96,17.97,0c4.96,4.96,4.96,13.01,0,17.97
				C935.22,603.51,927.17,603.51,922.21,598.55z"/>
		</g>
	</g>
</g>
<g>
	<path class="st0" d="M925.63,591.65l2.27-0.53c0.28-0.07,0.48-0.32,0.48-0.6v-0.47c0,0-0.1-0.79,0.65-0.84c0.54-0.04,3.94,0,3.94,0
		s0.9-0.02,0.88,0.69v0.68c0,0.23,0.15,0.44,0.38,0.51l2.46,0.74c0.26,0.08,0.54-0.05,0.64-0.3l0.31-0.76
		c0.06-0.14,0.09-0.29,0.08-0.44c-0.02-0.3-0.13-0.76-0.42-1.14c-0.49-0.62-2.78-2.1-7.16-1.89c-4.17,0.2-5.08,1.96-5.32,2.38
		c-0.15,0.26-0.19,0.9-0.08,1.17c0.04,0.1,0.11,0.27,0.18,0.43C925.03,591.57,925.34,591.72,925.63,591.65z"/>
</g>
<circle class="st4" cx="892.39" cy="589.49" r="12.77"/>
<path class="st0" d="M888.34,590.75c-0.7,0-1.26-0.56-1.26-1.26c0-0.7,0.56-1.26,1.26-1.26c0.7,0,1.26,0.56,1.26,1.26
	C889.6,590.19,889.03,590.75,888.34,590.75z"/>
<path class="st0" d="M892.26,590.75c-0.7,0-1.26-0.56-1.26-1.26c0-0.7,0.56-1.26,1.26-1.26s1.26,0.56,1.26,1.26
	C893.51,590.19,892.95,590.75,892.26,590.75z"/>
<circle class="st0" cx="896.45" cy="589.49" r="1.26"/>
<g>
	<path class="st7" d="M785.94,350.34c0,0,0.41-0.01,1.24-0.02c0.84,0,2.07-0.01,3.7-0.02c3.28-0.01,8.14-0.02,14.46-0.04
		c12.7-0.02,31.32-0.05,55.03-0.09c47.5-0.04,115.39-0.11,196.98-0.18l0.36,0l0,0.36c0.02,75.89,0.04,165.27,0.06,260.87l0,0.42
		h-0.42c-6.23,0-12.95,0-19.7,0c-90.92-0.02-176.7-0.03-251.71-0.05h-0.15l-0.11-0.11l0,0l-0.11-0.11v-0.15
		c0.03-55.74,0.06-105.5,0.08-147.54l0.29,0.29c-10.19-0.01-19.47-0.02-28.33-0.02l-0.6,0l0.41-0.44
		c10.39-11.18,19.84-21.35,28.37-30.53l-0.06,0.15c0.05-26.55,0.09-47.26,0.12-61.34c0.02-7.01,0.04-12.37,0.05-15.99
		c0.01-1.79,0.02-3.15,0.02-4.07C785.93,350.79,785.94,350.34,785.94,350.34s0.01,0.48,0.02,1.4c0,0.93,0.01,2.3,0.02,4.11
		c0.01,3.63,0.03,9.01,0.05,16.04c0.03,14.06,0.07,34.72,0.12,61.21l0,0.09l-0.06,0.06c-8.51,9.19-17.93,19.38-28.3,30.59
		l-0.19-0.44c8.86-0.01,18.14-0.02,28.33-0.02l0.29,0l0,0.29c0.02,42.04,0.05,91.8,0.08,147.54l-0.11-0.26l0,0l-0.26-0.11
		c75.01-0.01,160.79-0.03,251.71-0.05c6.75,0,13.47,0,19.7,0l-0.42,0.42c0.02-95.6,0.04-184.98,0.06-260.87l0.36,0.36
		c-81.5-0.08-149.31-0.14-196.75-0.18c-23.74-0.04-42.39-0.07-55.11-0.09c-6.36-0.02-11.23-0.03-14.53-0.04
		c-1.64-0.01-2.89-0.02-3.74-0.02C786.38,350.35,785.94,350.34,785.94,350.34z"/>
</g>
<g>
	<path class="st0" d="M975.86,484.48c0.01,0.23-7.46,0.74-16.68,1.15c-9.22,0.4-16.71,0.54-16.72,0.31
		c-0.01-0.23,7.46-0.74,16.68-1.15C968.36,484.39,975.85,484.25,975.86,484.48z"/>
</g>
<path class="st3" d="M894.33,425.03c1.46-8.02,3.39-16.26,8.33-22.74c4.94-6.48,13.68-10.74,21.4-8.13l9.52,5.52
	c-1.96,22.15-6.48,44.07-13.43,65.18c-0.68,2.07-1.43,4.22-2.97,5.77c-3.09,3.13-8.13,2.84-12.49,2.34
	c-5.27-0.61-11.42-1.82-13.68-6.63c-1.09-2.31-0.98-4.99-0.82-7.54C890.92,447.47,892.3,436.19,894.33,425.03z"/>
<path class="st8" d="M947.9,410.77l-29.33-9.73c-9.5-1.71-16.72,9.61-18.03,19.17c-1.45,10.62-2.8,23.65-2.12,31.7
	c1.37,16.2,13.5,19.13,13.5,19.13c0.01-0.05-1.44,5.03-0.95,12.19c0.76,11.03,7.87,13.87,13.7,14.28l0,0
	c9.19,0.97,18.78-1.94,19.84-11.12l8.02-69.54C952.8,413.93,950.79,411.29,947.9,410.77z"/>
<path class="st9" d="M911.92,471.04c0,0,11.64,1.55,22.78-4.09c0,0-7.15,10.8-23.06,8.13L911.92,471.04z"/>
<path class="st3" d="M915.6,404.98c1.16,2.06,2.87,3.75,4.55,5.41c2.69,2.65,5.38,5.31,8.07,7.96c1.91,1.89,3.83,3.78,5.97,5.42
	c1.9,1.45,3.94,2.69,5.99,3.92c2.13,1.28,3.22,4.6,5.35,5.89c0.48,0.29,2.04,0.11,2.55,0.48c-0.1,3.59-0.15,15-0.19,19.54
	c-0.06,7.16-2.62,26.25-2.62,26.25l6.1,0c4.78-0.73,9.83-6.23,10.83-10.96c0.94-4.43,0.71-10.58,1-14.21
	c0.75-9.31-1.07-18.73-1.68-28.05c-0.25-3.76-0.5-7.58-1.83-11.11c-1.88-5-5.74-8.99-9.9-12.33c-4.78-3.84-10.19-7.06-16.17-8.42
	c-5.98-1.36-12.58-0.68-17.67,2.74c-0.79,0.53-1.59,1.2-1.8,2.12C913.38,401.89,914.44,402.92,915.6,404.98z M948.21,434.2
	C948.44,434.63,948.26,435.74,948.21,434.2L948.21,434.2z"/>
<g>
	<g>
		<g>
			<g>
				<g>
					<g>
						<g>
							<g>
								<g>
									<g>
										<g>
											<g>
												<g>
													<path class="st8" d="M947.15,438.51c0.41-3.39,4.28-5.41,7.12-3.49c1.56,1.05,2.66,3.02,2.26,6.63
														c-1.08,9.62-10.51,6.55-10.5,6.27C946.03,447.75,946.67,442.49,947.15,438.51z"/>
												</g>
											</g>
										</g>
									</g>
								</g>
							</g>
						</g>
					</g>
				</g>
			</g>
		</g>
	</g>
</g>
<g>
	<g>
		<g>
			<g>
				<g>
					<g>
						<g>
							<g>
								<g>
									<g>
										<g>
											<g>
												<g>
													<g>
														<path class="st9" d="M949.37,444.61c0.05-0.03,0.15,0.14,0.42,0.3c0.26,0.16,0.73,0.3,1.25,0.17
															c1.06-0.26,2.09-1.78,2.34-3.5c0.12-0.87,0.03-1.73-0.2-2.45c-0.21-0.74-0.61-1.28-1.12-1.43
															c-0.5-0.17-0.89,0.09-1.04,0.35c-0.16,0.25-0.12,0.45-0.17,0.46c-0.03,0.02-0.19-0.18-0.07-0.57
															c0.06-0.19,0.2-0.4,0.45-0.56c0.25-0.16,0.6-0.22,0.95-0.14c0.74,0.13,1.33,0.89,1.58,1.69
															c0.3,0.8,0.42,1.77,0.28,2.75c-0.28,1.93-1.47,3.63-2.91,3.88c-0.7,0.1-1.24-0.17-1.5-0.43
															C949.36,444.84,949.34,444.62,949.37,444.61z"/>
													</g>
												</g>
											</g>
										</g>
									</g>
								</g>
							</g>
						</g>
					</g>
				</g>
			</g>
		</g>
	</g>
</g>
<path class="st7" d="M952.34,449.02c-0.07,1.05-0.98,1.83-2.03,1.76c-1.05-0.07-1.83-0.98-1.76-2.03s0.98-1.83,2.03-1.76
	C951.63,447.07,952.42,447.98,952.34,449.02z"/>
<path class="st9" d="M922,449.54c0.78,1.18,0.93,2.74,0.41,4.05c-0.52,1.31-1.72,2.34-3.09,2.66c-0.55,0.13-1.14,0.14-1.66-0.09
	c-0.9-0.42-1.29-1.47-1.6-2.41c-0.25-0.79-0.5-1.57-0.76-2.36c-0.08-0.26-0.17-0.57-0.03-0.81c0.15-0.26,0.48-0.34,0.78-0.38
	c1.93-0.32,3.86-0.65,5.79-0.97"/>
<path class="st7" d="M917.81,455.89c0,0.06,1,0.24,2.61-0.14c0.79-0.21,1.76-0.7,2.4-1.68c0.32-0.47,0.49-1.15,0.47-1.74
	c0-0.61-0.09-1.24-0.32-1.85c-0.22-0.59-0.56-1.12-0.97-1.56l-0.14-0.15l-0.19,0.05c-3.86,1.06-6.86,1.53-6.84,1.69
	c0.01,0.17,3.08-0.03,7.02-1.04l-0.33-0.1c0.34,0.38,0.63,0.83,0.82,1.34c0.36,1.05,0.45,2.24-0.05,3.02
	c-0.49,0.82-1.3,1.3-2.01,1.55C918.82,455.76,917.8,455.76,917.81,455.89z"/>
<path class="st3" d="M938.56,410.83c6.03,4.31,11.2,9.82,15.11,16.11l-5.2,8.82c-8.83-0.83-9.88-1.73-16.1-8.05
	c-6.22-6.32-18.59-18.91-19.28-27.75C921.45,402.3,931.49,405.79,938.56,410.83z"/>
<g>
	<path class="st10" d="M867.82,518.93c0,0,1.73-13.87,8.42-20.81c6.69-6.94,34.67-15.62,34.67-15.62s1.16,9.89,7.86,12.28
		c7.11,2.53,15.14,1.58,20.34-4.46c5.03-5.84,6.5-13.34,6.5-13.34s33.41,3.07,38.86,12.24c5.45,9.16,12.5,44.66,12.5,44.66
		l-31.24,6.63l2,28.79l-76.77,0.45l-2.37-25.47l-22.6,3.23L867.82,518.93z"/>
</g>
<g>
	<path class="st7" d="M959.52,542.53c-0.05,0-0.09-0.49-0.11-1.38c-0.02-0.89-0.04-2.17-0.04-3.76c0-3.17,0.05-7.55,0.15-12.38
		c0.1-4.84,0.23-9.21,0.36-12.38c0.07-1.58,0.13-2.87,0.19-3.75c0.06-0.89,0.12-1.38,0.17-1.38c0.05,0,0.09,0.49,0.11,1.38
		c0.02,0.89,0.04,2.17,0.04,3.75c0,3.17-0.05,7.55-0.15,12.39c-0.1,4.84-0.23,9.22-0.36,12.39c-0.07,1.58-0.13,2.87-0.19,3.75
		C959.63,542.04,959.57,542.53,959.52,542.53z"/>
</g>
<g>
	<path class="st7" d="M880.88,517.36c0.19-0.05,2.14,6.15,4.35,13.85c2.21,7.7,3.85,13.99,3.66,14.05
		c-0.19,0.05-2.14-6.14-4.35-13.85C882.33,523.7,880.69,517.41,880.88,517.36z"/>
</g>
<g>
	<path class="st7" d="M980.97,487.02c0.02,0.13-1.48,0.4-3.76,1.27c-2.28,0.86-5.3,2.43-8.11,4.87c-2.8,2.45-4.78,5.22-5.95,7.36
		c-1.18,2.14-1.66,3.59-1.78,3.55c-0.05-0.02,0.04-0.39,0.24-1.05c0.18-0.67,0.55-1.61,1.09-2.73c1.07-2.24,3.05-5.15,5.93-7.66
		c2.89-2.5,6.04-4.05,8.41-4.81c1.18-0.38,2.17-0.62,2.86-0.71C980.59,487,980.97,486.97,980.97,487.02z"/>
</g>
<g>
	<path class="st7" d="M875.74,500.92c0.19-0.05,0.85,1.88,1.47,4.31c0.62,2.43,0.96,4.44,0.77,4.48c-0.19,0.05-0.85-1.88-1.47-4.31
		C875.89,502.98,875.54,500.97,875.74,500.92z"/>
</g>
<g>
	<path class="st0" d="M960.24,507.5c0.03,0.23-17.72,2.62-39.63,5.34c-21.92,2.72-39.71,4.74-39.74,4.51
		c-0.03-0.23,17.71-2.62,39.63-5.34C942.42,509.29,960.22,507.27,960.24,507.5z"/>
</g>
<g>
	<path class="st0" d="M990.09,506.46c0.06,0.22-6.47,2.03-14.58,4.04c-8.11,2.01-14.73,3.45-14.79,3.23
		c-0.06-0.22,6.47-2.03,14.58-4.04C983.42,507.68,990.04,506.24,990.09,506.46z"/>
</g>
<g>
	<path class="st0" d="M995.15,525.78c0.05,0.23-7.59,2.05-17.07,4.07c-9.48,2.03-17.2,3.48-17.25,3.26
		c-0.05-0.23,7.59-2.05,17.07-4.07C987.38,527.02,995.1,525.56,995.15,525.78z"/>
</g>
<g>
	<path class="st0" d="M910.69,489.22c0.06,0.22-7.29,2.3-16.42,4.64c-9.13,2.34-16.57,4.05-16.62,3.83
		c-0.06-0.22,7.29-2.3,16.42-4.64C903.19,490.72,910.63,489,910.69,489.22z"/>
</g>
<g>
	<path class="st0" d="M959,536.72c0.01,0.23-15.88,1.36-35.5,2.52c-19.63,1.16-35.54,1.92-35.56,1.69
		c-0.01-0.23,15.88-1.36,35.51-2.52C943.07,537.25,958.99,536.49,959,536.72z"/>
</g>
<g>
	<path class="st0" d="M870.29,526.82c-0.02-0.23,2.78-0.63,6.22-1.07c3.45-0.44,6.25-0.76,6.29-0.53c0.04,0.22-2.71,0.92-6.19,1.36
		C873.14,527.02,870.3,527.04,870.29,526.82z"/>
</g>
<g>
	<path class="st0" d="M957.85,560.27c0,0.06-0.86,0.15-2.42,0.26c-1.71,0.11-3.93,0.26-6.6,0.44c-5.72,0.38-13.35,0.89-21.78,1.45
		c-8.42,0.66-16.04,1.26-21.76,1.7c-2.67,0.21-4.89,0.38-6.6,0.52c-1.56,0.11-2.42,0.14-2.43,0.09c-0.01-0.06,0.85-0.2,2.4-0.41
		c1.55-0.21,3.8-0.48,6.57-0.78c5.56-0.61,13.25-1.33,21.76-1.95c8.51-0.61,16.22-1.01,21.81-1.2c2.79-0.1,5.05-0.16,6.62-0.17
		C956.98,560.2,957.85,560.22,957.85,560.27z"/>
</g>
<g>
	<path class="st8" d="M888.58,544.27l-10.68,1.38l-10.08-26.02l-16.32,6.6c0,0,9.21,31.19,12.73,43.51l33.15-0.04L888.58,544.27z"/>
	<path class="st9" d="M889.72,564.58c-2.09-2.3-4-4.52-5.49-6.74c-1.51-2.2-2.66-4.32-3.55-6.14c-0.88-1.82-1.48-3.35-1.89-4.41
		c-0.41-1.06-0.62-1.65-0.68-1.64c-0.04,0.01,0.08,0.63,0.41,1.73c0.33,1.09,0.87,2.66,1.7,4.53c0.84,1.87,1.96,4.04,3.46,6.3
		c1.48,2.27,3.42,4.56,5.51,6.85c2.08,2.3,2.57,2.46,4.02,4.69l0.84-0.03C892.59,567.41,891.8,566.88,889.72,564.58z"/>
	<g>
		<g>
			<g>
				<g>
					<g>
						<path class="st8" d="M867.82,519.64c0,0,0.06-11.38-0.94-14.59l-8.04-17.97c0,0-2.07-1.27-3.06,2.31
							c-0.97,3.53,2.15,7.27,2.15,7.27l0.24,4.71l-3.26-2.65l-6.27-11.74c0,0-4.32-8.55-5.44-7.19c-1.12,1.36-0.75,4.1,1.11,7.79
							c1.86,3.69,4.22,8.37,4.22,8.37s0.64,1.49-1.58-0.67c-2.22-2.16-7.04-12.6-8.03-13.9c-1-1.3-2.36-5.13-4.52-4.27
							c-2.16,0.86,0.61,5.45,0.61,5.45l6.91,15.48c0,0-4.01-5.86-4.73-6.85s-2.39-4.35-3.7-6.05c-1.31-1.71-2.74-2.37-3.7-1.96
							c-1.72,0.74-1.2,2.36-1.2,2.36l7.38,12.8c0,0,3.69,5.74,3.68,6.18c-0.01,0.44-3.22-1.9-3.22-1.9l-3.09-3.94
							c0,0-3.35-5.91-5.1-5.58c-1.76,0.32-1.44,1.63-1.44,1.63l6.22,10.75l9.02,11.6l9.64,9.58l5.57-1.8L867.82,519.64z"/>
					</g>
				</g>
			</g>
		</g>
	</g>
	<g>
		<g>
			<path class="st9" d="M850.08,517.71c0.15,0.01,0.24-1.39,0.58-3.59c0.36-2.13,1.1-5.31,3.71-7.37c1.14-0.92,2.49-1.43,3.75-1.43
				l0.46,0l-0.03-0.5c-0.14-2.21-0.06-4.31-0.14-5.7c-0.04-1.42-0.2-2.27-0.31-2.25c-0.08,0.02-0.11,0.83-0.22,2.25
				c-0.06,1.44-0.28,3.36-0.18,5.85l0.43-0.5c-1.47-0.05-3.05,0.54-4.33,1.57c-1.43,1.12-2.38,2.63-2.91,4.07
				c-0.55,1.44-0.76,2.81-0.86,3.94C849.83,516.32,849.98,517.71,850.08,517.71z"/>
		</g>
	</g>
</g>
<path class="st8" d="M962.55,541.18l-5.94,28.59l27.89-0.03c1.07-4.07,6.9-34.68,6.9-34.68L962.55,541.18z"/>
<g>
	<g>
		<g>
			<polygon class="st0" points="898.32,319.06 629.92,319.06 629.92,319.06 629.92,61.08 898.32,61.08 			"/>
		</g>
	</g>
</g>
<rect x="629.92" y="61.08" class="st5" width="268.41" height="19.32"/>
<polygon class="st6" points="898.32,278.06 629.99,278.06 629.99,319.06 643.99,319.06 643.99,357.31 679.21,319.06 898.32,319.06 
	"/>
<g>
	<path class="st7" d="M898.36,278.45c0,0,0.04,1.61,0.05,4.74c0.01,3.14,0.03,7.77,0.05,13.82c0.01,6.06,0.03,13.54,0.05,22.34
		l0,0.1c-0.33,0.32-0.12,0.09-0.21,0.16l-0.05,0l-0.21,0l-0.42,0l-0.84,0c-0.56,0-1.13,0-1.7,0c-1.14,0-2.3,0-3.48,0.01
		c-2.36,0-4.81,0.01-7.33,0.01c-5.05,0.01-10.42,0.01-16.09,0.02c-45.41,0.04-110.43,0.09-188.95,0.15l0.26-0.11
		c-11.09,12.06-22.96,24.95-35.21,38.26l-0.65,0.71l0-0.96c0-11.96-0.01-24.98-0.01-38.25l0.39,0.39c-4.35,0-9.19,0-14.07,0h-0.19
		l-0.13-0.16l0,0l-0.08-0.1v-0.14c-0.01-58.5-0.02-122.59-0.03-189.44c0-23.26,0-46.19,0-68.54l0-0.41l0.41,0
		c100.91,0.03,193.09,0.06,268.41,0.08l0.33,0l0,0.33c-0.06,66.27-0.11,120.51-0.14,158.2c-0.04,18.83-0.07,33.52-0.09,43.52
		c-0.02,4.98-0.04,8.8-0.05,11.38C898.39,277.13,898.36,278.45,898.36,278.45s-0.03-1.32-0.05-3.89c-0.01-2.58-0.03-6.39-0.05-11.38
		c-0.02-10-0.05-24.69-0.09-43.52c-0.03-37.69-0.08-91.93-0.14-158.2l0.33,0.33c-75.32,0.02-167.5,0.05-268.41,0.08l0.41-0.41
		c0,22.35,0,45.28,0,68.54c-0.01,66.85-0.02,130.94-0.03,189.44l-0.08-0.23l0,0l-0.31-0.16c4.88,0,9.72,0,14.07,0l0.39,0l0,0.39
		c0,13.27-0.01,26.29-0.01,38.25l-0.65-0.25c12.26-13.3,24.13-26.19,35.24-38.23l0.11-0.11l0.15,0
		c78.51,0.06,143.54,0.11,188.95,0.15c5.67,0.01,11.04,0.02,16.09,0.02c2.52,0,4.97,0.01,7.33,0.01c1.18,0,2.34,0,3.48,0.01
		c0.57,0,1.14,0,1.7,0l0.84,0l0.42,0l0.21,0l0.05,0c-0.05,0.07,0.19-0.16-0.11,0.16l0-0.1c0.02-8.8,0.04-16.27,0.05-22.34
		c0.02-6.05,0.04-10.69,0.05-13.82C898.32,280.06,898.36,278.45,898.36,278.45z"/>
</g>
<ellipse transform="matrix(0.1606 -0.987 0.987 0.1606 387.9382 1051.1024)" class="st4" cx="811.93" cy="297.47" rx="12.74" ry="12.74"/>
<path class="st0" d="M812.44,300.94h-3.79c-0.71,0-1.28-0.57-1.28-1.28v-3.79c0-0.71,0.57-1.28,1.28-1.28h3.79
	c0.71,0,1.28,0.57,1.28,1.28v3.79C813.72,300.36,813.14,300.94,812.44,300.94z"/>
<path class="st0" d="M814.3,298.89v-2.15l1.61-1.72c0.21-0.23,0.6-0.08,0.6,0.24v4.9c0,0.3-0.36,0.46-0.58,0.25L814.3,298.89z"/>
<g>
	<g>
		<g>
			<path class="st4" d="M764.68,306.54c-4.91-4.91-4.91-12.86,0-17.77c4.91-4.91,12.86-4.91,17.77,0c4.91,4.91,4.91,12.86,0,17.77
				C777.54,311.45,769.58,311.45,764.68,306.54z"/>
		</g>
	</g>
</g>
<g>
	<path class="st0" d="M768.06,299.72l2.24-0.53c0.28-0.07,0.47-0.31,0.47-0.6v-0.46c0,0-0.1-0.78,0.64-0.83c0.53-0.04,3.9,0,3.9,0
		s0.89-0.02,0.87,0.68v0.67c0,0.23,0.15,0.44,0.37,0.5l2.43,0.73c0.26,0.08,0.53-0.05,0.64-0.3l0.31-0.75
		c0.06-0.14,0.08-0.28,0.08-0.43c-0.02-0.29-0.13-0.75-0.42-1.12c-0.48-0.62-2.75-2.08-7.09-1.87c-4.12,0.2-5.02,1.94-5.26,2.35
		c-0.15,0.26-0.19,0.89-0.08,1.16c0.04,0.1,0.11,0.27,0.18,0.43C767.47,299.64,767.77,299.79,768.06,299.72z"/>
</g>
<ellipse transform="matrix(0.2305 -0.9731 0.9731 0.2305 276.1333 944.3684)" class="st4" cx="735.19" cy="297.59" rx="12.63" ry="12.63"/>
<path class="st0" d="M731.18,298.83c-0.69,0-1.25-0.56-1.25-1.25c0-0.69,0.56-1.24,1.25-1.24c0.69,0,1.24,0.56,1.24,1.24
	C732.42,298.27,731.86,298.83,731.18,298.83z"/>
<path class="st0" d="M735.05,298.83c-0.69,0-1.24-0.56-1.24-1.25c0-0.69,0.56-1.24,1.24-1.24s1.25,0.56,1.25,1.24
	C736.3,298.27,735.74,298.83,735.05,298.83z"/>
<path class="st0" d="M739.2,298.83c-0.69,0-1.25-0.56-1.25-1.25c0-0.69,0.56-1.24,1.25-1.24s1.25,0.56,1.25,1.24
	C740.44,298.27,739.89,298.83,739.2,298.83z"/>
<g>
	<path class="st3" d="M712.98,132.47c2.45-3.09,5.48-6.08,6.11-9.97c0.58-3.58-0.99-7.51,0.62-10.76c1.98-4.01,7.66-4.79,10.13-8.51
		c1.19-1.8,1.48-4.09,2.65-5.9c2.01-3.09,6.13-4.09,9.81-3.87c3.68,0.21,7.27,1.36,10.95,1.43c5.06,0.11,10.18-1.79,15.08-0.58
		c5.42,1.34,8.91,5.9,12.61,10.3l4.79,5.08c0.98,0.86,2.01,1.65,3.14,2.3c1.96,1.14,4.19,1.88,5.9,3.37
		c3.67,3.19,3.69,9.67,0.04,12.88c3.94,1.05,6.92,4.96,6.88,9.04c-0.02,2.24-0.85,4.39-1.41,6.56c-0.57,2.17-0.85,4.57,0.14,6.58
		c0.99,2.01,3.69,3.29,5.59,2.1c-0.55,2.93-2.5,5.57-5.15,6.95c1.1,1.03,2.61,1.61,4.12,1.6c-3.62,9.8-14.5,15.37-24.93,15.93
		c-10.43,0.55-20.6-2.93-30.47-6.36l-28.44-5.96c-2.49-0.45-3.66-3.4-3.75-5.93c-0.08-2.53,0.43-5.19-0.58-7.52
		c-1.39-3.18-5.24-4.72-6.69-7.88C708.48,139.75,710.53,135.57,712.98,132.47z"/>
</g>
<g>
	<g>
		<g>
			<g>
				<g>
					<path class="st3" d="M780.65,154.94c1.73-6.44,3.44-12.93,4.04-19.58c0.6-6.65,0.04-13.51-2.6-19.64
						c-0.4-0.93-3.73-7.13-4.73-6.98c-0.72,0.11,1.44,5.94,1.11,6.58c-3.16,6.13-3.73,13.34-2.83,20.18S778.3,148.45,780.65,154.94"
						/>
				</g>
			</g>
		</g>
	</g>
</g>
<path class="st11" d="M780,129.48c-0.32-16.73-10.32-30.49-27.04-29.71l-1.54,0.16c-15.5,1.63-27.16,14.9-26.78,30.48
	c0.36,14.5,0.94,30.52,1.84,38.22c1.88,15.95,18.11,16.75,18.11,16.75c0.04,0,0.88,12.91,0.88,12.91l38.52-2.72L780,129.48z"/>
<g>
	<g>
		<g>
			<g>
				<g>
					<g>
						<g>
							<path class="st12" d="M744.61,185.38c0,0,10.13-0.47,20.14-8.34c0,0-3.77,12.15-19.85,12.39L744.61,185.38z"/>
						</g>
					</g>
				</g>
			</g>
		</g>
	</g>
</g>
<g>
	<g>
		<g>
			<g>
				<g>
					<g>
						<g>
							<g>
								<g>
									<g>
										<g>
											<g>
												<g>
													<path class="st7" d="M753.49,155.86c-0.4,0.02-0.13,2.68-2.21,4.81c-2.08,2.14-4.95,2.14-4.93,2.51
														c-0.02,0.17,0.69,0.45,1.89,0.36c1.18-0.08,2.86-0.64,4.13-1.95c1.27-1.31,1.7-2.92,1.68-4.02
														C754.03,156.45,753.67,155.83,753.49,155.86z"/>
												</g>
											</g>
										</g>
									</g>
								</g>
							</g>
						</g>
					</g>
				</g>
			</g>
		</g>
	</g>
</g>
<g>
	<g>
		<g>
			<g>
				<g>
					<path class="st11" d="M779.94,141.44c0.26-0.15,10.63-4.4,11.43,6.55c0.8,10.95-10.36,9.5-10.4,9.19
						C780.93,156.87,779.94,141.44,779.94,141.44z"/>
				</g>
			</g>
		</g>
	</g>
</g>
<g>
	<g>
		<g>
			<g>
				<g>
					<path class="st3" d="M730.57,111.8c-1.84-0.86,3.12-6.95,7.35-9.21c6.4-3.41,16.34-5.9,22.52-4.57
						c7.45,1.6,13.76,4.85,17.86,11.27c4.1,6.42,5.98,14.09,6.26,21.7c0.08,2.32,0,4.76-1.11,6.8c-1.38,2.52-4.21,4.24-3.87,7.57
						c0.13,1.22-0.14,2.47-0.92,3.42c-1.87,2.26-4.45,0.42-5.71-1.52c-2.69-4.14-3.28-9.25-3.81-14.15
						c-0.38-3.49-0.75-7.05,0.02-10.47c0.42-1.86,1.17-3.64,1.48-5.53c0.31-1.88,0.12-3.98-1.13-5.42c-0.2-0.23-0.53-0.52-0.95-0.84
						c-3.28-2.52-7.68-3.06-11.48-1.43c-6.03,2.58-16.36,6.52-19.25,4.6c-4.15-2.76-5.23-4.66-5.23-4.66L730.57,111.8z"/>
				</g>
			</g>
		</g>
	</g>
</g>
<g>
	<g>
		<g>
			<g>
				<g>
					<path class="st3" d="M759.78,96.57c-6.15-1.63-13-1.08-18.45,2.21c-2.89,1.74-5.44,4.4-6.14,7.7c-0.7,3.3,0.94,7.21,4.14,8.28
						l0.22,0.12c4.78,1.27,7.78,0.45,12.34-1.46c3.84-1.61,7.17-4.26,11.01-5.85c4.09-1.69,8.68-2.12,13.01-1.22
						C771.41,101.85,765.93,98.19,759.78,96.57z"/>
				</g>
			</g>
		</g>
	</g>
</g>
<polygon class="st4" points="821.01,202.68 781.1,190.06 745.29,197 702.93,220.17 722.38,278.06 820.6,278.06 818.56,221.41 "/>
<polygon class="st13" points="744.61,198.85 744.61,192.62 784.42,186.79 784.01,198.85 743.84,203.16 "/>
<path class="st4" d="M842.99,216.52c-5.7-13.84-24.21-14.93-25.43-14.93l-2.66,10.86l4.93,55.35l2.36,10.26h42.96
	C858.43,256.13,846.69,225.5,842.99,216.52z"/>
<path class="st4" d="M702.93,220.17c0,0-5.2,5.5-5.97,20.42c-0.77,14.92-2.49,37.47-2.49,37.47l31.42,0l2.06-22.18L702.93,220.17z"
	/>
<g>
	<polygon class="st14" points="519.74,770.15 505.39,770.15 500.07,705.56 516.97,705.56 	"/>
</g>
<g>
	<polygon class="st14" points="644.08,770.15 658.43,770.15 663.75,705.56 646.85,705.56 	"/>
</g>
<g>
	<path class="st3" d="M673.6,713.74l-184.67,4.34l-5.62-119.28c-0.55-11.68,8.77-21.45,20.46-21.45h157.34
		c11.87,0,21.26,10.06,20.44,21.9L673.6,713.74z"/>
</g>
<g>
	<g>
		<path class="st7" d="M683.07,598.39c0,0.01-0.17,0.03-0.52,0.04c-0.39,0.01-0.89,0.03-1.51,0.05c-1.39,0.02-3.34,0.05-5.82,0.09
			c-5.11,0.02-12.41,0.04-21.41,0.08c-18.07,0.03-43.05-0.17-70.61,0.47c-27.58,0.92-52.57,0.76-70.64,0.49
			c-9.04-0.14-16.35-0.32-21.4-0.47c-2.48-0.08-4.43-0.15-5.82-0.2c-0.63-0.03-1.13-0.05-1.51-0.07c-0.34-0.02-0.51-0.04-0.51-0.05
			c0-0.01,0.18-0.02,0.52-0.03c0.39,0,0.89-0.01,1.51-0.01c1.39,0.01,3.34,0.02,5.82,0.04c5.11,0.05,12.41,0.12,21.4,0.21
			c18.07,0.12,43.04,0.19,70.61-0.73c27.58-0.64,52.56-0.34,70.63-0.22c9,0.08,16.29,0.14,21.41,0.19c2.48,0.03,4.43,0.05,5.82,0.07
			c0.63,0.02,1.13,0.03,1.51,0.04C682.9,598.36,683.07,598.37,683.07,598.39z"/>
	</g>
</g>
<g>
	<g>
		<path class="st7" d="M550.68,579.21c0.05,0.28-5.79,0.38-11.99,3.6c-6.25,3.13-9.75,7.8-9.95,7.6c-0.07-0.05,0.68-1.28,2.29-2.97
			c1.6-1.68,4.11-3.75,7.28-5.37c3.18-1.61,6.33-2.44,8.62-2.74C549.24,579.01,550.68,579.12,550.68,579.21z"/>
	</g>
</g>
<g class="st15">
	<g>
		<path class="st16" d="M527,577.35c5.47,6.11,14.4,8.78,22.51,10.02c14.59,2.22,29.53,3.41,44.08,0.93
			c9.32-1.59,18.56-4.68,28-4.03c9.66,0.66,19.36,5.22,28.68,2.58c4.99-1.42,9.35-4.94,11.79-9.52c0.78-1.46,1.26-3.51,0-4.58
			c-0.64-0.54-2.03,1.34-2.87,1.27C615.43,570.68,570.77,580.41,527,577.35"/>
	</g>
</g>
<g class="st15">
	<g>
		<path class="st16" d="M639.64,606.01c-0.78,4.06,1.19,8.24,4.07,11.2c2.87,2.97,6.57,4.97,10.15,7.04
			c5.93,3.44,11.85,7.38,15.56,13.15c7.05,10.96,4.44,25.33,7.43,38.02c0,0,2.49-54.73,1.97-53.35"/>
	</g>
</g>
<g>
	<g>
		<path class="st7" d="M583.93,243.27c6.52,6.5,9.51,16.34,7.73,25.37c-0.86,4.39-2.68,9.3-0.2,13.02c2.46,3.68,8.07,4.24,10.4,8.01
			c2.74,4.43-0.66,10.15-0.11,15.33c0.52,4.86,5.11,8.94,10,8.9c-6.19,3.95-13.49,6.14-20.84,6.27c-1.57-2.59-3.14-5.18-4.71-7.77
			c1.81,2.74,0.78,6.65-1.55,8.96c-2.34,2.31-5.64,3.33-8.87,3.95c-15.4,2.96-32.1-1.81-43.62-12.46"/>
	</g>
</g>
<g>
	<g>
		<path class="st7" d="M496.08,272.6c1.51-3.26,3.74-6.19,4.9-9.6c2.49-7.32-0.17-16.2,4.26-22.53c3.16-4.5,8.96-6.21,14.37-7.2
			c5.41-0.99,11.18-1.7,15.52-5.07c3.19-2.47,5.27-6.15,8.45-8.64c4.53-3.54,10.68-4.2,16.42-3.88c5.89,0.33,11.88,1.6,16.84,4.81
			c4.96,3.2,8.76,8.57,9.02,14.47c0.13,2.88-0.57,5.79,0,8.61c0.63,3.1,2.7,5.7,3.82,8.67c2.36,6.26-0.23,14.01-5.88,17.58
			L537.49,317c-8.82,2.19-28.81-4.07-34.61-11.07C497.1,298.92,492.27,280.85,496.08,272.6z"/>
	</g>
</g>
<g>
	<g>
		<g>
			<g>
				<g>
					<path class="st8" d="M583.5,263.1c-0.27-11.98-7.59-26.96-19.55-26.18l-37.56,7.89c-3.63,0.24-6.48,3.21-6.56,6.85l0.35,89.8
						c-0.09,0.02-0.17,0.03-0.26,0.05c0,0,7.39,25.64,32.28,18.97c4.94-1.32,7.39-6.56,8.59-12l0.25,0.04
						c0.04-0.65,0.07-1.26,0.11-1.88c1.08-6.29,0.67-12.3,0.67-12.3l0,0c0.38-7.23,0.5-10.2,0.5-10.13c0,0,15.37-1.92,19.34-21.7
						C583.63,292.67,583.79,276.41,583.5,263.1z"/>
				</g>
			</g>
		</g>
	</g>
</g>
<g>
	<g>
		<g>
			<g>
				<g>
					<g>
						<g>
							<g>
								<g>
									<g>
										<g>
											<g>
												<g>
													<path class="st9" d="M562.32,324.22c0,0-13.43,0.32-26.39-8.19c0,0,5.92,13.94,25.93,12.89L562.32,324.22z"/>
												</g>
											</g>
										</g>
									</g>
								</g>
							</g>
						</g>
					</g>
				</g>
			</g>
		</g>
	</g>
</g>
<g>
	<g>
		<g>
			<g>
				<g>
					<g>
						<g>
							<g>
								<g>
									<g>
										<g>
											<g>
												<g>
													<path class="st17" d="M560.31,298.19c-0.94-1.35-2.64-2.13-4.37-2.02c-1.2,0.08-2.43,0.61-3.19,1.55
														c-0.76,0.94-0.97,2.31-0.35,3.27c0.7,1.07,2.24,1.38,3.57,1.06c1.33-0.32,2.49-1.14,3.6-1.95
														c0.31-0.23,0.62-0.46,0.82-0.78c0.2-0.32,0.26-0.74,0.04-1.02"/>
												</g>
											</g>
										</g>
									</g>
								</g>
							</g>
						</g>
					</g>
				</g>
			</g>
		</g>
	</g>
</g>
<g>
	<g>
		<g>
			<g>
				<g>
					<g>
						<g>
							<g>
								<g>
									<g>
										<g>
											<g>
												<g>
													<g>
														<path class="st7" d="M553.58,293.19c0.45-0.01,0.33,2.98,2.8,5.2c2.46,2.23,5.66,2.02,5.66,2.44
															c0.03,0.19-0.73,0.55-2.08,0.53c-1.32-0.01-3.22-0.51-4.73-1.87c-1.51-1.36-2.1-3.12-2.16-4.35
															C553.01,293.89,553.37,293.16,553.58,293.19z"/>
													</g>
												</g>
											</g>
										</g>
									</g>
								</g>
							</g>
						</g>
					</g>
				</g>
			</g>
		</g>
	</g>
</g>
<g>
	<g>
		<g>
			<g>
				<g>
					<g>
						<g>
							<path class="st7" d="M518.07,246.71c2.15-2.59,5.6-3.65,8.86-4.49c14.07-3.61,28.57-5.54,43.1-5.73
								c1.44,3.15-0.68,6.95-3.62,8.77c-2.94,1.82-6.49,2.26-9.85,3.08c-3.36,0.83-6.87,2.29-8.57,5.3
								c-1.81,3.2-1.09,7.34-2.73,10.63c-2.83,5.66-11.3,6.6-14.1,12.27c-2.11,4.29-0.08,9.37,0.02,14.15
								c0.11,5.42-2.53,10.83-6.87,14.08c-3.42,2.56-7.83,3.71-12.08,3.29c1.02-17.08,2.04-34.16,3.05-51.24
								C515.48,253.28,515.79,249.45,518.07,246.71z"/>
						</g>
					</g>
				</g>
			</g>
		</g>
	</g>
</g>
<g>
	<g>
		<g>
			<path class="st7" d="M478.84,285.55c2.96-2.09,6.57-3.77,8.04-7.08c2.14-4.82-1.18-11.18,1.94-15.43
				c2.85-3.88,9.78-2.85,12.47-6.84c2.1-3.11,0.48-6.28,1.48-9.12c0.99-2.84,5.43-4.9,8.35-4.21l19.22,36.31
				c0.83,11.52,2.28,17.77-0.91,24.07c-1.75,3.46-3.9,6.78-4.87,10.53c-0.97,3.75-0.5,8.19,2.35,10.82
				c-13.98-0.54-26.11-9.32-37.28-17.75c-3.94-2.97-7.88-5.94-11.82-8.91c-1.23-0.93-2.51-1.91-3.15-3.32
				C473.17,291.33,475.88,287.64,478.84,285.55z"/>
		</g>
	</g>
</g>
<g>
	<g>
		<g>
			<g>
				<path class="st18" d="M489.69,303.43c0,0,0.47,0.24,1.45,0.46c0.97,0.21,2.45,0.43,4.35,0.2c1.88-0.23,4.2-0.9,6.4-2.53
					c2.2-1.6,4.13-4.28,4.92-7.63c0.39-1.67,0.49-3.51,0.17-5.37c-0.32-1.87-1.13-3.66-1.97-5.45c-0.83-1.79-1.74-3.63-2.03-5.65
					c-0.28-1.99-0.02-4.28,1.43-5.79c1.46-1.54,3.85-1.68,6.12-2.3c1.14-0.31,2.35-0.85,3.21-1.84c0.86-0.98,1.26-2.27,1.38-3.52
					c0.27-2.54-0.54-4.99-0.73-7.4c-0.1-1.21-0.04-2.44,0.39-3.54c0.43-1.1,1.26-2.01,2.33-2.57c2.17-1.19,4.75-1.12,7.23-1.05
					c2.49,0.11,5.14-0.14,7.39-1.26c2.26-1.06,4.17-2.72,5.51-4.72c1.33-2.02,1.99-4.29,2.58-6.43c0.59-2.15,1.14-4.24,2.09-6.07
					c0.95-1.82,2.31-3.34,3.84-4.53c3.11-2.33,6.8-3.33,10.1-3.21c3.32,0.11,6.19,1.33,8.37,2.8c2.2,1.47,3.77,3.18,4.86,4.69
					c2.17,3.06,2.63,5.17,2.74,5.11c0.01,0-0.02-0.13-0.09-0.38c-0.08-0.24-0.17-0.61-0.36-1.07c-0.35-0.93-0.97-2.28-2.03-3.85
					c-1.07-1.56-2.63-3.34-4.86-4.89c-2.21-1.54-5.15-2.84-8.6-3c-3.42-0.16-7.26,0.84-10.52,3.25c-1.6,1.23-3.05,2.82-4.06,4.73
					c-1.01,1.92-1.58,4.06-2.18,6.2c-0.6,2.13-1.26,4.31-2.51,6.2c-1.26,1.87-3.07,3.44-5.2,4.43c-2.13,1.05-4.54,1.28-7.03,1.17
					c-2.46-0.07-5.21-0.18-7.64,1.14c-1.2,0.63-2.21,1.71-2.69,2.99c-0.5,1.27-0.55,2.63-0.45,3.9c0.21,2.56,0.99,4.93,0.74,7.26
					c-0.11,1.15-0.47,2.26-1.18,3.08c-0.72,0.82-1.74,1.31-2.83,1.61c-1.09,0.32-2.23,0.48-3.36,0.81
					c-1.12,0.31-2.26,0.83-3.09,1.71c-1.68,1.79-1.91,4.3-1.6,6.41c0.32,2.18,1.29,4.06,2.12,5.84c0.85,1.78,1.64,3.51,1.96,5.27
					c0.32,1.77,0.24,3.52-0.11,5.13c-0.72,3.23-2.54,5.82-4.63,7.4c-2.09,1.61-4.34,2.31-6.17,2.58
					C491.72,304.27,489.7,303.28,489.69,303.43z"/>
			</g>
		</g>
	</g>
</g>
<g>
	<g>
		<g>
			<g>
				<path class="st7" d="M474.02,277.38c0,0-0.32,0.31-0.59,1.08c-0.27,0.76-0.4,2.05,0.19,3.51c0.31,0.71,0.79,1.47,1.55,2.07
					c0.75,0.6,1.75,1.02,2.87,1.14c2.2,0.28,4.96-0.74,6.52-3.14c0.79-1.17,1.3-2.59,1.48-4.11c0.18-1.53-0.03-3.13-0.44-4.69
					c-0.75-3.13-2.4-6.28-2.03-9.79c0.16-1.7,0.78-3.5,2.17-4.57c1.38-1.11,3.32-1.19,5.22-0.98c1.91,0.16,3.95,0.65,6.07,0.08
					c1.04-0.29,2.03-0.92,2.71-1.79c0.69-0.86,1.12-1.89,1.37-2.94c0.51-2.13,0.25-4.23,0.22-6.22c-0.07-1.99,0.27-3.9,0.99-5.67
					c1.45-3.52,4.25-6.3,7.44-7.7c3.22-1.46,6.71-1.24,9.87-1.06c3.17,0.2,6.24,0.36,8.93-0.35c2.69-0.66,4.93-1.87,6.67-3.18
					c1.76-1.3,3.01-2.73,3.91-3.97c1.78-2.51,2.17-4.2,2.17-4.2c-0.09-0.05-0.59,1.61-2.42,4.01c-0.92,1.19-2.19,2.55-3.93,3.79
					c-1.73,1.24-3.92,2.38-6.53,2.98c-2.6,0.66-5.58,0.47-8.76,0.24c-3.15-0.2-6.77-0.48-10.21,1.05c-3.38,1.47-6.34,4.36-7.88,8.09
					c-0.77,1.85-1.14,3.94-1.06,5.98c0.03,2.03,0.26,4.08-0.21,6.02c-0.43,1.93-1.66,3.67-3.51,4.14c-1.83,0.5-3.82,0.07-5.78-0.1
					c-1.92-0.21-4.14-0.15-5.78,1.16c-1.63,1.28-2.27,3.3-2.43,5.11c-0.18,1.85,0.16,3.68,0.66,5.31c0.49,1.65,1.06,3.19,1.46,4.72
					c0.41,1.52,0.61,3.03,0.47,4.46c-0.15,1.43-0.62,2.76-1.34,3.86c-1.42,2.24-3.94,3.22-6,3.01c-1.04-0.08-1.97-0.46-2.67-0.99
					c-0.71-0.53-1.19-1.23-1.5-1.89c-0.6-1.36-0.54-2.59-0.32-3.33C473.8,277.75,474.06,277.4,474.02,277.38z"/>
			</g>
		</g>
	</g>
</g>
<g>
	<g>
		<g>
			<g>
				<path class="st7" d="M619.05,302.84c-0.13-0.02,0.59,1.42-0.47,3.62c-0.53,1.03-1.58,2.24-3.22,2.58
					c-1.6,0.34-3.69-0.31-4.92-1.99c-0.62-0.82-0.91-1.91-0.85-3.04c0.06-1.14,0.42-2.3,0.94-3.44c1.01-2.26,2.81-4.63,2.94-7.72
					c0.18-2.99-0.97-6.2-3.27-8.5c-1.14-1.16-2.52-2.1-4.05-2.78c-1.53-0.7-3.21-1.01-4.85-1.29c-1.64-0.28-3.26-0.52-4.73-1.06
					c-1.46-0.54-2.73-1.47-3.46-2.76c-0.73-1.29-0.93-2.8-0.87-4.26c0.07-1.47,0.41-2.87,0.86-4.23c0.89-2.7,2.04-5.29,2.2-7.96
					c0.17-2.65-0.55-5.1-1.68-7.02c-1.13-1.96-2.73-3.26-4.07-4.35c-1.35-1.09-2.51-2.02-3.32-2.92c-1.67-1.78-1.82-3.24-1.93-3.18
					c-0.01,0,0,0.09,0.03,0.25c0.04,0.16,0.07,0.41,0.2,0.71c0.2,0.62,0.65,1.49,1.46,2.43c0.8,0.95,1.94,1.94,3.26,3.06
					c1.31,1.12,2.82,2.41,3.86,4.28c1.05,1.85,1.7,4.19,1.51,6.69c-0.17,2.51-1.3,5.02-2.24,7.77c-0.47,1.38-0.85,2.87-0.93,4.43
					c-0.08,1.55,0.12,3.22,0.95,4.69c0.82,1.48,2.29,2.54,3.86,3.12c1.58,0.59,3.25,0.83,4.88,1.11c1.64,0.28,3.23,0.58,4.66,1.23
					c1.44,0.63,2.74,1.52,3.81,2.6c2.16,2.14,3.24,5.13,3.09,7.9c-0.08,2.82-1.76,5.11-2.81,7.48c-0.53,1.2-0.91,2.44-0.95,3.69
					c-0.05,1.24,0.3,2.49,1.01,3.41c1.42,1.85,3.71,2.51,5.48,2.09c1.81-0.43,2.9-1.78,3.41-2.89c0.53-1.15,0.54-2.16,0.47-2.8
					C619.23,303.14,619.05,302.84,619.05,302.84z"/>
			</g>
		</g>
	</g>
</g>
<g>
	<g>
		<path class="st8" d="M690.23,479.29l-7.08-10.7l-11.37-5.7l-0.43-0.31c-3.72-2.7-8.45-3.58-12.89-2.4
			c-4.63,1.23-10.8,2.77-16.16,3.68l-12.23-3.35v23.87l61.7-3.9L690.23,479.29z"/>
	</g>
	<g>
		<g>
			<g>
				<g>
					<path class="st9" d="M689.8,478.64c0.07-0.08-0.94-0.99-2.61-2.38c-1.67-1.39-4.01-3.28-6.62-5.32
						c-0.85-0.66-1.67-1.29-2.45-1.9l-0.07-0.06l-0.08-0.02c-2.53-0.47-4.73-0.86-6.3-1.1c-1.57-0.24-2.51-0.34-2.53-0.26
						c-0.02,0.09,0.89,0.35,2.44,0.72c1.54,0.37,3.72,0.85,6.24,1.37l-0.16-0.07c0.77,0.61,1.59,1.25,2.43,1.92
						c2.61,2.04,5.01,3.86,6.76,5.15C688.62,477.97,689.74,478.72,689.8,478.64z"/>
				</g>
			</g>
		</g>
		<g>
			<g>
				<g>
					<path class="st9" d="M684.99,480.72c0.1-0.19-3.87-2.58-8.87-5.36c-0.75-0.41-1.47-0.81-2.16-1.19l-0.08-0.04l-0.08,0
						c-4.53-0.25-7.89-0.31-7.9-0.13c-0.01,0.18,3.33,0.55,7.85,0.88l-0.16-0.05c0.69,0.39,1.41,0.79,2.15,1.21
						C680.75,478.81,684.89,480.91,684.99,480.72z"/>
				</g>
			</g>
		</g>
	</g>
</g>
<g>
	<path class="st19" d="M762.05,411.75c-2.07-1.16-4.67-0.6-6.08,1.31l-49.69,67.3l-78.63,1.07c-3.14,0.19-6.95,6.53-4.14,9.61
		l88.79-1.21l51.26-71.22C765.2,416.32,764.49,413.12,762.05,411.75z"/>
</g>
<path class="st20" d="M762.05,411.75c0-0.01,0.14,0.06,0.39,0.22c0.25,0.16,0.61,0.43,0.99,0.88c0.74,0.84,1.63,2.72,0.73,4.92
	c-0.5,1.06-1.33,2-2.1,3.15c-0.8,1.13-1.68,2.36-2.62,3.68c-1.9,2.66-4.07,5.71-6.5,9.12c-9.78,13.65-23.7,33.09-40.34,56.31
	l-0.11,0.15l-0.19,0c-25.57,0.36-55.43,0.79-87.18,1.24c-0.54,0.01-1.08,0.01-1.61,0.02l-0.18,0l-0.13-0.14
	c-0.8-0.86-1.13-2.07-1.08-3.17c0.04-1.12,0.36-2.18,0.84-3.15c0.48-0.96,1.11-1.85,1.91-2.6c0.77-0.72,1.8-1.4,2.98-1.39
	c4.09-0.05,8.14-0.11,12.14-0.16c8.01-0.1,15.85-0.21,23.47-0.31c15.24-0.19,29.62-0.37,42.81-0.54l-0.28,0.15
	c16.16-21.79,29.63-39.94,39.08-52.68c4.73-6.32,8.45-11.29,11.01-14.71c1.47-1.68,3.39-1.8,4.43-1.6
	C761.59,411.37,762.05,411.75,762.05,411.75c-0.02,0.04-0.49-0.32-1.57-0.49c-1.02-0.16-2.87,0.01-4.24,1.63
	c-2.52,3.45-6.18,8.46-10.84,14.82c-9.39,12.78-22.77,30.99-38.84,52.85l-0.11,0.14l-0.18,0c-13.19,0.19-27.56,0.4-42.8,0.62
	c-7.62,0.11-15.46,0.22-23.46,0.33c-4.01,0.06-8.05,0.11-12.14,0.17c-0.91-0.01-1.73,0.52-2.44,1.17c-0.7,0.66-1.29,1.48-1.73,2.36
	c-0.86,1.71-1.18,3.98,0.11,5.38l-0.31-0.14c0.53-0.01,1.07-0.01,1.61-0.02c31.75-0.42,61.61-0.81,87.18-1.14L712,489.6
	c16.74-23.15,30.75-42.52,40.59-56.14c2.46-3.39,4.66-6.42,6.58-9.06c0.96-1.32,1.85-2.54,2.66-3.65c0.78-1.13,1.64-2.1,2.12-3.07
	c0.9-2.08,0.09-3.91-0.61-4.76C762.62,412.02,762.01,411.79,762.05,411.75z"/>
<g>
	<path class="st4" d="M523.86,333.81c-4.24,0.47-10.15,3.2-13.21,6.17c-5,4.84-8.63,11.47-10.58,17.33
		c-2.62,7.87-1.45,38.94-1.45,47.94s2.29,42.81,3.42,48.43c1.13,5.62-0.73,13.99-3.34,19.43c-4.68,9.76,2.62,14.76,2.62,14.76
		l96.49-0.72l-0.39-3.6c-0.66-6.27,1.67-12.66-0.72-18.49c-2.5-6.11-5.3-15.77-4.44-27.04c1.23-16.07,6.03-27.05,3.09-36.37
		c-4.5-14.23-19.36-46.58-37.31-60.39c0,0-14.16-3.03-17.36-4.15C533.4,334.55,529.54,333.17,523.86,333.81z"/>
</g>
<g>
	<path class="st4" d="M637.3,457.74l-82.43-17.21l-2.13-71.56c0,0-2.88-29.15-17.5-31.86l-35.18,43.79
		c1.97,22.07,0.18,63.83,10.32,79.94c10.14,16.11,20.01,29.01,44.99,27.87c24.98-1.15,80.03-1.67,80.03-1.67L637.3,457.74z"/>
</g>
<g>
	<polygon class="st8" points="682.66,633.39 670.42,723.55 702.44,728.8 725.22,648.8 	"/>
</g>
<g>
	<path class="st10" d="M585.58,494.85c0,0,136.56-12.99,146.69-3.7c10.12,9.28,18.56,29.53,15.19,36.28
		c-3.37,6.75-10.97,29.53-10.97,29.53l-62.9-14.34L585.58,494.85z"/>
</g>
<g>
	<polygon class="st8" points="673.59,556.95 648.25,595.61 678.07,614.93 710.42,565.35 	"/>
</g>
<g>
	<path class="st10" d="M503.63,487.77c0,0-11.81,54,7.59,75.93c19.4,21.94,48.09,21.94,77.62,17.72
		c29.53-4.22,99.63-5.68,99.63-5.68s-3.13,19.17-5.42,40.98c-2.29,21.87-2.76,35.61-2.76,35.61l43.89,3.66
		c0,0,24.45-74.42,28.21-89.16c3.76-14.72,2.49-34.54-10.52-41.88c-11.02-6.22-97.94-30.33-139.56-33.91l-4.52-3.88L503.63,487.77z"
		/>
</g>
<g>
	<g>
		<g>
			<g>
				<g>
					<path class="st17" d="M704.93,726.46l1.07-3.91c-13.59-1.42-25.71-6.46-35.34-15.23l-10.85,23.45l72.35,32.17
						C734.89,756.03,704.93,726.46,704.93,726.46z"/>
				</g>
			</g>
		</g>
		<g>
			<g>
				<g>
					<g>
						<g>
							<g>
								<g>
									<g>
										<g>
											<path class="st19" d="M659.81,730.78l2.65-5.73l68.51,33.05c0,0,2.58,2.8,1.18,4.84L659.81,730.78z"/>
										</g>
									</g>
								</g>
							</g>
						</g>
					</g>
				</g>
			</g>
		</g>
		<g>
			<g>
				<g>
					<g>
						<g>
							<g>
								<g>
									<g>
										<g>
											<g>
												<path class="st7" d="M703.96,726.01c-0.17,0.34-2.01-0.29-4.27,0.04c-2.27,0.28-3.86,1.37-4.12,1.09
													c-0.29-0.21,1.2-2.03,3.94-2.39C702.24,724.37,704.19,725.73,703.96,726.01z"/>
											</g>
										</g>
									</g>
								</g>
							</g>
						</g>
					</g>
				</g>
			</g>
		</g>
		<g>
			<g>
				<g>
					<path class="st19" d="M675.81,723.5c-0.5,1.01-1.74,1.44-2.78,0.96c-1.04-0.48-1.48-1.7-0.98-2.71
						c0.5-1.01,1.74-1.44,2.78-0.96C675.87,721.27,676.31,722.48,675.81,723.5z"/>
				</g>
			</g>
		</g>
		<g>
			<g>
				<g>
					<g>
						<path class="st7" d="M703.53,725.53c-0.02,0.06-0.6-0.02-1.64-0.3c-1-0.3-2.62-0.73-4.06-2.16c-0.35-0.36-0.68-0.78-0.95-1.25
							c-0.27-0.46-0.55-0.99-0.61-1.66c-0.09-0.69,0.4-1.53,1.13-1.79c0.71-0.31,1.55-0.2,2.19,0.1c2.49,1.19,4.41,3.91,4.47,7.06
							l-1.07-0.15c0.17-0.54,0.41-1.09,0.71-1.62c1.63-2.94,4.94-4.52,7.84-4.43c0.36,0.01,0.79,0.03,1.22,0.24
							c0.43,0.21,0.75,0.65,0.82,1.07c0.15,0.84-0.15,1.54-0.52,2.09c-0.74,1.1-1.79,1.78-2.77,2.23c-2.02,0.9-3.83,0.72-4.97,0.74
							C704.17,725.64,703.53,725.6,703.53,725.53c-0.01-0.07,0.64-0.17,1.8-0.27c1.14-0.14,2.87-0.11,4.64-1.01
							c0.87-0.44,1.76-1.09,2.34-2.02c0.29-0.43,0.45-0.99,0.35-1.41c-0.09-0.4-0.43-0.54-1.1-0.53c-2.58-0.02-5.45,1.39-6.88,3.97
							c-0.27,0.46-0.48,0.95-0.63,1.42c-0.09,0.28-0.39,0.44-0.68,0.35c-0.23-0.07-0.38-0.28-0.38-0.5c-0.02-2.7-1.73-5.16-3.79-6.2
							c-0.98-0.52-2.12-0.07-2.04,0.78c0.08,0.88,0.68,1.82,1.23,2.46c1.19,1.33,2.69,1.87,3.64,2.28
							C703,725.24,703.55,725.46,703.53,725.53z"/>
					</g>
				</g>
			</g>
		</g>
	</g>
	<g>
		<g>
			<path class="st7" d="M709.51,731.03c-0.06,0.24-2.22-0.33-4.79,0.34c-2.57,0.61-4.22,2.13-4.39,1.94
				c-0.19-0.11,1.35-2.07,4.18-2.75C707.36,729.84,709.63,730.85,709.51,731.03z"/>
		</g>
	</g>
	<g>
		<g>
			<path class="st7" d="M713.55,735.62c-0.02,0.25-1.98,0.19-4.24,0.87c-2.27,0.66-3.88,1.77-4.03,1.58
				c-0.15-0.15,1.34-1.66,3.79-2.38C711.52,734.96,713.59,735.41,713.55,735.62z"/>
		</g>
	</g>
</g>
<g>
	<g>
		<g>
			<g>
				<g>
					<path class="st17" d="M683.75,610.57l1.71-3.67c-13.16-3.69-24.26-10.7-32.27-20.96l-14.64,21.29l65.9,43.89
						C708.3,644.76,683.75,610.57,683.75,610.57z"/>
				</g>
			</g>
		</g>
		<g>
			<g>
				<g>
					<g>
						<g>
							<g>
								<g>
									<g>
										<g>
											<path class="st19" d="M638.55,607.23l3.58-5.2l61.97,44.11c0,0,2.07,3.19,0.35,4.97L638.55,607.23z"/>
										</g>
									</g>
								</g>
							</g>
						</g>
					</g>
				</g>
			</g>
		</g>
		<g>
			<g>
				<g>
					<g>
						<g>
							<g>
								<g>
									<g>
										<g>
											<g>
												<path class="st7" d="M682.87,609.96c-0.23,0.31-1.93-0.63-4.22-0.68c-2.28-0.11-4.04,0.7-4.25,0.38
													c-0.25-0.26,1.52-1.8,4.28-1.69C681.45,608.06,683.14,609.72,682.87,609.96z"/>
											</g>
										</g>
									</g>
								</g>
							</g>
						</g>
					</g>
				</g>
			</g>
		</g>
		<g>
			<g>
				<g>
					<path class="st19" d="M655.54,602.75c-0.66,0.91-1.96,1.13-2.91,0.47c-0.94-0.65-1.17-1.92-0.51-2.84
						c0.66-0.91,1.96-1.13,2.91-0.47C655.97,600.56,656.2,601.83,655.54,602.75z"/>
				</g>
			</g>
		</g>
		<g>
			<g>
				<g>
					<g>
						<path class="st7" d="M682.52,609.42c-0.03,0.06-0.59-0.12-1.57-0.57c-0.94-0.47-2.46-1.16-3.64-2.82
							c-0.29-0.41-0.53-0.88-0.72-1.39c-0.19-0.5-0.38-1.06-0.32-1.74c0.02-0.69,0.66-1.44,1.42-1.57c0.75-0.19,1.56,0.07,2.14,0.47
							c2.26,1.6,3.69,4.6,3.22,7.71l-1.03-0.33c0.26-0.5,0.59-1.01,0.98-1.48c2.1-2.62,5.63-3.62,8.48-3.05
							c0.36,0.07,0.77,0.16,1.16,0.44c0.39,0.28,0.63,0.77,0.63,1.19c0.01,0.85-0.41,1.49-0.87,1.97c-0.91,0.96-2.06,1.46-3.11,1.73
							c-2.15,0.55-3.9,0.07-5.02-0.1C683.14,609.64,682.52,609.49,682.52,609.42c0.01-0.08,0.66-0.06,1.82,0.04
							c1.15,0.06,2.85,0.38,4.74-0.21c0.94-0.29,1.92-0.78,2.65-1.6c0.36-0.38,0.61-0.9,0.58-1.33c-0.02-0.41-0.34-0.61-1-0.71
							c-2.54-0.45-5.6,0.45-7.45,2.76c-0.34,0.41-0.63,0.86-0.86,1.29c-0.13,0.26-0.46,0.36-0.73,0.23
							c-0.22-0.11-0.33-0.34-0.29-0.56c0.44-2.67-0.84-5.38-2.69-6.75c-0.88-0.68-2.08-0.43-2.14,0.42
							c-0.07,0.88,0.36,1.91,0.8,2.64c0.95,1.51,2.33,2.3,3.21,2.86C682.05,609.05,682.56,609.35,682.52,609.42z"/>
					</g>
				</g>
			</g>
		</g>
	</g>
	<g>
		<g>
			<path class="st7" d="M687.5,615.85c-0.1,0.23-2.14-0.7-4.77-0.48c-2.64,0.17-4.52,1.39-4.65,1.18c-0.17-0.14,1.67-1.81,4.59-2.01
				C685.57,614.31,687.64,615.68,687.5,615.85z"/>
		</g>
	</g>
	<g>
		<g>
			<path class="st7" d="M690.7,621.05c-0.06,0.24-1.98-0.15-4.32,0.15c-2.35,0.26-4.12,1.09-4.24,0.88
				c-0.13-0.17,1.6-1.41,4.14-1.71C688.81,620.06,690.78,620.85,690.7,621.05z"/>
		</g>
	</g>
</g>
<polygon class="st0" points="480.1,328.46 441.95,293.33 441.95,157.8 173.54,157.8 173.54,415.78 173.54,415.78 441.95,415.78 
	441.95,328.46 "/>
<rect x="173.54" y="157.8" class="st5" width="268.41" height="19.32"/>
<polygon class="st6" points="173.61,374.78 173.61,415.78 392.73,415.78 427.95,415.78 441.94,415.78 441.94,374.78 "/>
<ellipse transform="matrix(0.2399 -0.9708 0.9708 0.2399 -112.4284 644.8063)" class="st4" cx="355.56" cy="394.2" rx="12.74" ry="12.74"/>
<path class="st0" d="M356.06,397.66h-3.79c-0.71,0-1.28-0.57-1.28-1.28v-3.79c0-0.71,0.57-1.28,1.28-1.28h3.79
	c0.71,0,1.28,0.57,1.28,1.28v3.79C357.34,397.09,356.77,397.66,356.06,397.66z"/>
<path class="st0" d="M357.92,395.61v-2.15l1.61-1.72c0.21-0.23,0.6-0.08,0.6,0.24v4.9c0,0.3-0.36,0.46-0.58,0.25L357.92,395.61z"/>
<g>
	<g>
		<path class="st4" d="M308.3,403.26c-4.91-4.91-4.91-12.86,0-17.77c4.91-4.91,12.86-4.91,17.77,0c4.91,4.91,4.91,12.86,0,17.77
			C321.16,408.17,313.21,408.17,308.3,403.26z"/>
	</g>
</g>
<path class="st0" d="M311.68,396.44l2.24-0.53c0.28-0.07,0.47-0.31,0.47-0.6v-0.46c0,0-0.1-0.78,0.64-0.83c0.53-0.04,3.9,0,3.9,0
	s0.89-0.02,0.87,0.68v0.67c0,0.23,0.15,0.44,0.37,0.5l2.43,0.73c0.26,0.08,0.53-0.05,0.64-0.3l0.31-0.75
	c0.06-0.14,0.08-0.28,0.08-0.43c-0.01-0.29-0.13-0.75-0.42-1.12c-0.48-0.62-2.75-2.08-7.09-1.87c-4.13,0.2-5.02,1.94-5.26,2.35
	c-0.15,0.26-0.19,0.89-0.08,1.16c0.04,0.1,0.11,0.27,0.18,0.43C311.09,396.36,311.39,396.51,311.68,396.44z"/>
<ellipse transform="matrix(0.716 -0.6981 0.6981 0.716 -196.0868 306.6274)" class="st4" cx="278.81" cy="394.31" rx="12.63" ry="12.63"/>
<path class="st0" d="M274.8,395.56c-0.69,0-1.25-0.56-1.25-1.25c0-0.69,0.56-1.24,1.25-1.24c0.69,0,1.24,0.56,1.24,1.24
	C276.05,395,275.49,395.56,274.8,395.56z"/>
<path class="st0" d="M278.68,395.56c-0.69,0-1.24-0.56-1.24-1.25c0-0.69,0.56-1.24,1.24-1.24c0.69,0,1.25,0.56,1.25,1.24
	C279.92,395,279.36,395.56,278.68,395.56z"/>
<path class="st0" d="M282.82,395.56c-0.69,0-1.25-0.56-1.25-1.25c0-0.69,0.56-1.24,1.25-1.24c0.69,0,1.25,0.56,1.25,1.24
	C284.07,395,283.51,395.56,282.82,395.56z"/>
<g>
	<path class="st7" d="M480.1,328.46c-1.06,0-13.47,0.05-38.15,0.15l0.15-0.15c0.03,20.93,0.06,50.63,0.11,87.32l0,0.26l-0.26,0
		c-67.93,0.03-161.24,0.08-268.41,0.14h-0.17l-0.12-0.12l0,0l-0.12-0.12v-0.17c-0.01-49.87-0.01-103.93-0.02-159.92
		c0-33.49,0-66.28,0.01-98.05v-0.41l0.41,0c102.06,0.04,194.3,0.07,268.41,0.1l0.31,0l0,0.31c-0.06,57.2-0.11,103.58-0.14,135.53
		l-0.06-0.13C466.7,316.04,479.19,327.62,480.1,328.46c-0.92-0.84-13.48-12.33-38.27-35.01l-0.06-0.05l0-0.08
		c-0.03-31.95-0.08-78.33-0.14-135.53l0.31,0.31c-74.1,0.03-166.35,0.06-268.41,0.1l0.41-0.41c0,31.77,0,64.57,0.01,98.05
		c-0.01,56-0.01,110.06-0.02,159.92l-0.12-0.28l0,0l-0.28-0.12c107.16,0.05,200.48,0.1,268.41,0.14l-0.26,0.26
		c0.05-36.68,0.09-66.39,0.11-87.32l0-0.15l0.15,0C466.63,328.41,479.04,328.46,480.1,328.46z"/>
</g>
<g>
	<g>
		<g>
			<g>
				<g>
					<g>
						<g>
							<g>
								<g>
									<g>
										<g>
											<g>
												<path class="st21" d="M287.2,236.31l5.12,67.37c0.87,11.46,4.49,28.11,22.54,25.91l0,0
													c15.52-3.09,18.36-18.29,17.54-28.98c-0.39-5.07-0.71-9.3-0.71-9.82c0,0,17.03-2.92,16.98-19.99
													c-0.02-8.25-1.46-25.23-2.93-40.59c-1.58-16.49-15.58-28.98-32.14-28.73l-1.65,0.03
													C294.2,202.81,285.4,218.61,287.2,236.31z"/>
											</g>
										</g>
									</g>
								</g>
							</g>
						</g>
					</g>
				</g>
			</g>
		</g>
	</g>
</g>
<g>
	<g>
		<g>
			<g>
				<g>
					<g>
						<g>
							<g>
								<g>
									<g>
										<g>
											<g>
												<path class="st22" d="M331.72,290.53c0,0-10.77,1.04-22.35-5.98c0,0,5.45,12.2,22.45,10.4L331.72,290.53z"/>
											</g>
										</g>
									</g>
								</g>
							</g>
						</g>
					</g>
				</g>
			</g>
		</g>
	</g>
</g>
<g>
	<g>
		<g>
			<g>
				<g>
					<g>
						<g>
							<path class="st21" d="M288.79,248.92c-0.29-0.12-11.78-3.29-11.23,8.37c0.55,11.66,12.15,8.7,12.15,8.37
								C289.72,265.33,288.79,248.92,288.79,248.92z"/>
						</g>
					</g>
				</g>
			</g>
		</g>
	</g>
</g>
<path class="st7" d="M324.21,267.11c0.1-0.3-2.24-0.79-4.02-2.78c-0.89-0.98-1.46-2.09-1.88-2.89c-0.41-0.81-0.72-1.32-0.84-1.27
	c-0.11,0.05-0.04,0.62,0.23,1.52c0.27,0.89,0.78,2.15,1.8,3.27c1,1.13,2.26,1.74,3.17,2.01
	C323.59,267.25,324.19,267.22,324.21,267.11z"/>
<path class="st3" d="M366.88,213.01c-0.24-0.67-0.79-1.18-1.43-1.49c-1.4-0.67-2.91-0.43-4.39-0.32c-4.5,0.33-9.09-0.65-13.08-2.75
	c-2-2.4-4.2-4.62-6.56-6.66c-5.6-4.84-10.15-8.07-14.67-9.44c-5.85-1.78-15.39-1.86-21.15,0.21c-5.76,2.07-10.63,7.32-10.91,13.43
	c-3.55-2.5-8.51-2.04-12.4-0.06l-0.1-0.04c-4.34,1.99-6.47,6.96-7.39,11.65c-0.92,4.69-1.05,9.63-3.11,13.94
	c-0.43,0.9-0.94,1.98-0.42,2.83c0.4,0.66,1.3,0.87,2.06,0.69c0.75-0.18,1.39-0.66,2-1.13c-0.39,1.24-0.79,2.48-1.18,3.73
	c1.65,0.14,3.32-0.14,4.85-0.76c1.33,4.19,2.9,8.97,4.26,11.78c1.87-0.17,3.6-0.19,4.85,0.75c1.7,1.27,2.63,3.87,5.15,2.63
	c1.28-0.63,2.25-3.52,2.57-4.92c2.16-9.24,2.28-18.94,0.39-28.24c1.68-2.14,3.78-3.96,6.14-5.32l-0.18,0.2
	c4.59-2.06,9.8-4.15,14.49-2.33c3.64,1.42,6.01,4.85,8.87,7.51c5.42,5.03,12.34,7.41,19.73,7.08c0.67,4.75,0.87,11.53,1.54,16.27
	l3.34-8l0.01,0.04c0.28-0.59,0.5-1.18,0.71-1.76l0.07-0.18l0-0.02c0.34-0.94,0.65-1.89,1.1-2.83c0.02,0.01,0.03,0.02,0.05,0.04
	c2.79,2.05,6.29-1.77,4-4.37c-0.45-0.52-0.98-0.96-1.57-1.32c1.28,1,3.09,1.38,4.59,0.77c1.51-0.61,2.57-2.29,2.29-3.89
	c-0.19-1.09-1.06-2.01-2.1-2.36c2.1-0.02,4.2-0.67,5.92-1.87C366.35,215.7,367.42,214.47,366.88,213.01z"/>
<path class="st10" d="M291.78,296.55l-20.56,8.59c-12.74,5.32-23.85,14.08-31.57,25.52c-1.83,2.72-7.67,23.67-8.1,25.39
	c-1.7,6.89-4.49,18.73-4.49,18.73h163.36c0,0-4.83-46.68-16.46-55.7c-7.55-5.85-42.14-21.82-42.14-21.82s-3.33,8.54-14,8.81
	C301.65,306.48,291.78,296.55,291.78,296.55z"/>
<g>
	<path class="st7" d="M1156.99,770.15c0,0.23-245.85,0.42-549.04,0.42c-303.3,0-549.09-0.19-549.09-0.42
		c0-0.23,245.79-0.42,549.09-0.42C911.14,769.73,1156.99,769.92,1156.99,770.15z"/>
</g>
<rect x="-156.19" y="-79.25" class="st4" width="128.3" height="111.32"/>
</svg>
